<?xml version="1.0" standalone="no"?>
 <!DOCTYPE svg PUBLIC "-//W3C//DTD SVG 1.1//EN" 
 "http://www.w3.org/Graphics/SVG/1.1/DTD/svg11.dtd"> 
<svg xmlns="http://www.w3.org/2000/svg" version="1.1" 
    width="29.7002cm" height="21.0007cm" viewBox="0 0 116930 82680 ">
<title>SVG Picture created as uDSP-1.0-drl_map.svg date 2019/03/11 21:42:14 </title>
  <desc>Picture generated by PCBNEW </desc>
<g style="fill:#000000; fill-opacity:1;stroke:#000000; stroke-opacity:1;
stroke-linecap:round; stroke-linejoin:round; "
 transform="translate(0 0) scale(1 1)">
</g>
<g style="fill:#000000; fill-opacity:0.0; 
stroke:#000000; stroke-width:-0.000393701; stroke-opacity:1; 
stroke-linecap:round; stroke-linejoin:round;">
</g>
<g style="fill:#000000; fill-opacity:0.0; 
stroke:#000000; stroke-width:39.3701; stroke-opacity:1; 
stroke-linecap:round; stroke-linejoin:round;">
<path d="M42125 33858
L42125 53543
" />
<path d="M61811 33858
L42125 33858
" />
<path d="M61811 53543
L61811 33858
" />
<path d="M42125 53543
L61811 53543
" />
</g>
<g style="fill:#000000; fill-opacity:0.0; 
stroke:#000000; stroke-width:78.7402; stroke-opacity:1; 
stroke-linecap:round; stroke-linejoin:round;">
<path d="M42409 36141
L42527 36259
" />
<path d="M42527 36141
L42409 36259
" />
<path d="M42409 38641
L42527 38759
" />
<path d="M42527 38641
L42409 38759
" />
<path d="M42409 44741
L42527 44859
" />
<path d="M42527 44741
L42409 44859
" />
<path d="M42465 48040
L42584 48159
" />
<path d="M42584 48040
L42465 48159
" />
<path d="M42490 49990
L42609 50109
" />
<path d="M42609 49990
L42490 50109
" />
<path d="M42490 50715
L42609 50834
" />
<path d="M42609 50715
L42490 50834
" />
<path d="M42684 47091
L42802 47209
" />
<path d="M42802 47091
L42684 47209
" />
<path d="M42690 46190
L42809 46309
" />
<path d="M42809 46190
L42690 46309
" />
<path d="M42809 45141
L42927 45259
" />
<path d="M42927 45141
L42809 45259
" />
<path d="M42859 42291
L42977 42409
" />
<path d="M42977 42291
L42859 42409
" />
<path d="M42859 42641
L42977 42759
" />
<path d="M42977 42641
L42859 42759
" />
<path d="M43209 43091
L43327 43209
" />
<path d="M43327 43091
L43209 43209
" />
<path d="M43440 50715
L43559 50834
" />
<path d="M43559 50715
L43440 50834
" />
<path d="M43559 43091
L43677 43209
" />
<path d="M43677 43091
L43559 43209
" />
<path d="M43609 47166
L43727 47284
" />
<path d="M43727 47166
L43609 47284
" />
<path d="M43909 43091
L44027 43209
" />
<path d="M44027 43091
L43909 43209
" />
<path d="M43915 44390
L44034 44509
" />
<path d="M44034 44390
L43915 44509
" />
<path d="M43915 44690
L44034 44809
" />
<path d="M44034 44690
L43915 44809
" />
<path d="M43940 48490
L44059 48609
" />
<path d="M44059 48490
L43940 48609
" />
<path d="M44259 43091
L44377 43209
" />
<path d="M44377 43091
L44259 43209
" />
<path d="M44365 49365
L44484 49484
" />
<path d="M44484 49365
L44365 49484
" />
<path d="M44409 34141
L44527 34259
" />
<path d="M44527 34141
L44409 34259
" />
<path d="M44409 53141
L44527 53259
" />
<path d="M44527 53141
L44409 53259
" />
<path d="M44534 48141
L44652 48259
" />
<path d="M44652 48141
L44534 48259
" />
<path d="M44609 43091
L44727 43209
" />
<path d="M44727 43091
L44609 43209
" />
<path d="M44809 42341
L44927 42459
" />
<path d="M44927 42341
L44809 42459
" />
<path d="M44809 42691
L44927 42809
" />
<path d="M44927 42691
L44809 42809
" />
<path d="M44909 46891
L45027 47009
" />
<path d="M45027 46891
L44909 47009
" />
<path d="M44959 43091
L45077 43209
" />
<path d="M45077 43091
L44959 43209
" />
<path d="M45040 44390
L45159 44509
" />
<path d="M45159 44390
L45040 44509
" />
<path d="M45040 44690
L45159 44809
" />
<path d="M45159 44690
L45040 44809
" />
<path d="M45065 51640
L45184 51759
" />
<path d="M45184 51640
L45065 51759
" />
<path d="M45090 37140
L45209 37259
" />
<path d="M45209 37140
L45090 37259
" />
<path d="M45140 43440
L45259 43559
" />
<path d="M45259 43440
L45140 43559
" />
<path d="M45140 44015
L45259 44134
" />
<path d="M45259 44015
L45140 44134
" />
<path d="M45140 46890
L45259 47009
" />
<path d="M45259 46890
L45140 47009
" />
<path d="M45440 43940
L45559 44059
" />
<path d="M45559 43940
L45440 44059
" />
<path d="M45440 49315
L45559 49434
" />
<path d="M45559 49315
L45440 49434
" />
<path d="M45615 40915
L45734 41034
" />
<path d="M45734 40915
L45615 41034
" />
<path d="M45615 46015
L45734 46134
" />
<path d="M45734 46015
L45615 46134
" />
<path d="M45709 44891
L45827 45009
" />
<path d="M45827 44891
L45709 45009
" />
<path d="M45959 45791
L46077 45909
" />
<path d="M46077 45791
L45959 45909
" />
<path d="M45959 48016
L46077 48134
" />
<path d="M46077 48016
L45959 48134
" />
<path d="M46165 50890
L46284 51009
" />
<path d="M46284 50890
L46165 51009
" />
<path d="M46309 46366
L46427 46484
" />
<path d="M46427 46366
L46309 46484
" />
<path d="M46659 49291
L46777 49409
" />
<path d="M46777 49291
L46659 49409
" />
<path d="M46665 40915
L46784 41034
" />
<path d="M46784 40915
L46665 41034
" />
<path d="M46759 52391
L46877 52509
" />
<path d="M46877 52391
L46759 52509
" />
<path d="M46790 42040
L46909 42159
" />
<path d="M46909 42040
L46790 42159
" />
<path d="M46790 42440
L46909 42559
" />
<path d="M46909 42440
L46790 42559
" />
<path d="M46809 45241
L46927 45359
" />
<path d="M46927 45241
L46809 45359
" />
<path d="M46865 38290
L46984 38409
" />
<path d="M46984 38290
L46865 38409
" />
<path d="M46984 37141
L47102 37259
" />
<path d="M47102 37141
L46984 37259
" />
<path d="M46990 42240
L47109 42359
" />
<path d="M47109 42240
L46990 42359
" />
<path d="M47059 45441
L47177 45559
" />
<path d="M47177 45441
L47059 45559
" />
<path d="M47140 38890
L47259 39009
" />
<path d="M47259 38890
L47140 39009
" />
<path d="M47265 40515
L47384 40634
" />
<path d="M47384 40515
L47265 40634
" />
<path d="M47265 40890
L47384 41009
" />
<path d="M47384 40890
L47265 41009
" />
<path d="M47290 38290
L47409 38409
" />
<path d="M47409 38290
L47290 38409
" />
<path d="M47290 41790
L47409 41909
" />
<path d="M47409 41790
L47290 41909
" />
<path d="M47309 45241
L47427 45359
" />
<path d="M47427 45241
L47309 45359
" />
<path d="M47559 45441
L47677 45559
" />
<path d="M47677 45441
L47559 45559
" />
<path d="M47584 49266
L47702 49384
" />
<path d="M47702 49266
L47584 49384
" />
<path d="M47809 45241
L47927 45359
" />
<path d="M47927 45241
L47809 45359
" />
<path d="M47815 42665
L47934 42784
" />
<path d="M47934 42665
L47815 42784
" />
<path d="M47909 53141
L48027 53259
" />
<path d="M48027 53141
L47909 53259
" />
<path d="M47959 47791
L48077 47909
" />
<path d="M48077 47791
L47959 47909
" />
<path d="M47959 48091
L48077 48209
" />
<path d="M48077 48091
L47959 48209
" />
<path d="M48078 38167
L48196 38285
" />
<path d="M48196 38167
L48078 38285
" />
<path d="M48159 51141
L48277 51259
" />
<path d="M48277 51141
L48159 51259
" />
<path d="M48359 46991
L48477 47109
" />
<path d="M48477 46991
L48359 47109
" />
<path d="M48700 44432
L48818 44551
" />
<path d="M48818 44432
L48700 44551
" />
<path d="M48709 44041
L48827 44159
" />
<path d="M48827 44041
L48709 44159
" />
<path d="M48784 42666
L48902 42784
" />
<path d="M48902 42666
L48784 42784
" />
<path d="M48884 45866
L49002 45984
" />
<path d="M49002 45866
L48884 45984
" />
<path d="M48909 37916
L49027 38034
" />
<path d="M49027 37916
L48909 38034
" />
<path d="M48915 41690
L49034 41809
" />
<path d="M49034 41690
L48915 41809
" />
<path d="M49009 43691
L49127 43809
" />
<path d="M49127 43691
L49009 43809
" />
<path d="M49052 43178
L49170 43296
" />
<path d="M49170 43178
L49052 43296
" />
<path d="M49359 43110
L49477 43228
" />
<path d="M49477 43110
L49359 43228
" />
<path d="M49381 41148
L49499 41266
" />
<path d="M49499 41148
L49381 41266
" />
<path d="M49409 42319
L49527 42437
" />
<path d="M49527 42319
L49409 42437
" />
<path d="M49429 38496
L49548 38614
" />
<path d="M49548 38496
L49429 38614
" />
<path d="M49509 44841
L49627 44959
" />
<path d="M49627 44841
L49509 44959
" />
<path d="M49515 47840
L49634 47959
" />
<path d="M49634 47840
L49515 47959
" />
<path d="M49659 50391
L49777 50509
" />
<path d="M49777 50391
L49659 50509
" />
<path d="M49659 51141
L49777 51259
" />
<path d="M49777 51141
L49659 51259
" />
<path d="M49690 41890
L49809 42009
" />
<path d="M49809 41890
L49690 42009
" />
<path d="M49690 49590
L49809 49709
" />
<path d="M49809 49590
L49690 49709
" />
<path d="M49765 52340
L49884 52459
" />
<path d="M49884 52340
L49765 52459
" />
<path d="M49959 34691
L50077 34809
" />
<path d="M50077 34691
L49959 34809
" />
<path d="M50040 37890
L50159 38009
" />
<path d="M50159 37890
L50040 38009
" />
<path d="M50059 43341
L50177 43459
" />
<path d="M50177 43341
L50059 43459
" />
<path d="M50079 44850
L50197 44968
" />
<path d="M50197 44850
L50079 44968
" />
<path d="M50309 47891
L50427 48009
" />
<path d="M50427 47891
L50309 48009
" />
<path d="M50355 43811
L50473 43929
" />
<path d="M50473 43811
L50355 43929
" />
<path d="M50406 44197
L50524 44315
" />
<path d="M50524 44197
L50406 44315
" />
<path d="M50409 36141
L50527 36259
" />
<path d="M50527 36141
L50409 36259
" />
<path d="M50709 44891
L50827 45009
" />
<path d="M50827 44891
L50709 45009
" />
<path d="M50709 47891
L50827 48009
" />
<path d="M50827 47891
L50709 48009
" />
<path d="M50859 34691
L50977 34809
" />
<path d="M50977 34691
L50859 34809
" />
<path d="M50890 37515
L51009 37634
" />
<path d="M51009 37515
L50890 37634
" />
<path d="M50904 38274
L51022 38392
" />
<path d="M51022 38274
L50904 38392
" />
<path d="M50909 53141
L51027 53259
" />
<path d="M51027 53141
L50909 53259
" />
<path d="M50959 44591
L51077 44709
" />
<path d="M51077 44591
L50959 44709
" />
<path d="M50985 44119
L51103 44237
" />
<path d="M51103 44119
L50985 44237
" />
<path d="M51109 47891
L51227 48009
" />
<path d="M51227 47891
L51109 48009
" />
<path d="M51190 48840
L51309 48959
" />
<path d="M51309 48840
L51190 48959
" />
<path d="M51409 36141
L51527 36259
" />
<path d="M51527 36141
L51409 36259
" />
<path d="M51509 47891
L51627 48009
" />
<path d="M51627 47891
L51509 48009
" />
<path d="M51509 46741
L51627 46859
" />
<path d="M51627 46741
L51509 46859
" />
<path d="M51790 37140
L51909 37259
" />
<path d="M51909 37140
L51790 37259
" />
<path d="M52059 47041
L52177 47159
" />
<path d="M52177 47041
L52059 47159
" />
<path d="M52090 45240
L52209 45359
" />
<path d="M52209 45240
L52090 45359
" />
<path d="M52090 49890
L52209 50009
" />
<path d="M52209 49890
L52090 50009
" />
<path d="M52209 48341
L52327 48459
" />
<path d="M52327 48341
L52209 48459
" />
<path d="M52409 45441
L52527 45559
" />
<path d="M52527 45441
L52409 45559
" />
<path d="M52469 44821
L52587 44939
" />
<path d="M52587 44821
L52469 44939
" />
<path d="M52490 49890
L52609 50009
" />
<path d="M52609 49890
L52490 50009
" />
<path d="M52540 38390
L52659 38509
" />
<path d="M52659 38390
L52540 38509
" />
<path d="M52659 47191
L52777 47309
" />
<path d="M52777 47191
L52659 47309
" />
<path d="M52665 39715
L52784 39834
" />
<path d="M52784 39715
L52665 39834
" />
<path d="M52840 44790
L52959 44909
" />
<path d="M52959 44790
L52840 44909
" />
<path d="M52909 53141
L53027 53259
" />
<path d="M53027 53141
L52909 53259
" />
<path d="M53009 45241
L53127 45359
" />
<path d="M53127 45241
L53009 45359
" />
<path d="M53059 46191
L53177 46309
" />
<path d="M53177 46191
L53059 46309
" />
<path d="M53059 47191
L53177 47309
" />
<path d="M53177 47191
L53059 47309
" />
<path d="M53509 36241
L53627 36359
" />
<path d="M53627 36241
L53509 36359
" />
<path d="M54015 36315
L54134 36434
" />
<path d="M54134 36315
L54015 36434
" />
<path d="M54059 37105
L54177 37223
" />
<path d="M54177 37105
L54059 37223
" />
<path d="M54409 36316
L54527 36434
" />
<path d="M54527 36316
L54409 36434
" />
<path d="M54409 48891
L54527 49009
" />
<path d="M54527 48891
L54409 49009
" />
<path d="M54501 43947
L54619 44065
" />
<path d="M54619 43947
L54501 44065
" />
<path d="M54739 44153
L54857 44271
" />
<path d="M54857 44153
L54739 44271
" />
<path d="M54859 50041
L54977 50159
" />
<path d="M54977 50041
L54859 50159
" />
<path d="M55159 44141
L55277 44259
" />
<path d="M55277 44141
L55159 44259
" />
<path d="M55159 44641
L55277 44759
" />
<path d="M55277 44641
L55159 44759
" />
<path d="M55190 40140
L55309 40259
" />
<path d="M55309 40140
L55190 40259
" />
<path d="M55275 38690
L55394 38809
" />
<path d="M55394 38690
L55275 38809
" />
<path d="M55409 43691
L55527 43809
" />
<path d="M55527 43691
L55409 43809
" />
<path d="M55600 38680
L55718 38799
" />
<path d="M55718 38680
L55600 38799
" />
<path d="M55729 45881
L55847 45999
" />
<path d="M55847 45881
L55729 45999
" />
<path d="M55735 44482
L55853 44601
" />
<path d="M55853 44482
L55735 44601
" />
<path d="M55890 41840
L56009 41959
" />
<path d="M56009 41840
L55890 41959
" />
<path d="M55990 42690
L56109 42809
" />
<path d="M56109 42690
L55990 42809
" />
<path d="M56040 42290
L56159 42409
" />
<path d="M56159 42290
L56040 42409
" />
<path d="M56059 37841
L56177 37959
" />
<path d="M56177 37841
L56059 37959
" />
<path d="M56090 38690
L56209 38809
" />
<path d="M56209 38690
L56090 38809
" />
<path d="M56090 40290
L56209 40409
" />
<path d="M56209 40290
L56090 40409
" />
<path d="M56259 43741
L56377 43859
" />
<path d="M56377 43741
L56259 43859
" />
<path d="M56365 48390
L56484 48509
" />
<path d="M56484 48390
L56365 48509
" />
<path d="M56490 49940
L56609 50059
" />
<path d="M56609 49940
L56490 50059
" />
<path d="M56860 45891
L56978 46009
" />
<path d="M56978 45891
L56860 46009
" />
<path d="M56909 53141
L57027 53259
" />
<path d="M57027 53141
L56909 53259
" />
<path d="M57009 41291
L57127 41409
" />
<path d="M57127 41291
L57009 41409
" />
<path d="M57090 40090
L57209 40209
" />
<path d="M57209 40090
L57090 40209
" />
<path d="M57109 41741
L57227 41859
" />
<path d="M57227 41741
L57109 41859
" />
<path d="M57440 40190
L57559 40309
" />
<path d="M57559 40190
L57440 40309
" />
<path d="M57559 43991
L57677 44109
" />
<path d="M57677 43991
L57559 44109
" />
<path d="M57940 40290
L58059 40409
" />
<path d="M58059 40290
L57940 40409
" />
<path d="M58169 42321
L58287 42439
" />
<path d="M58287 42321
L58169 42439
" />
<path d="M58259 41141
L58377 41259
" />
<path d="M58377 41141
L58259 41259
" />
<path d="M58409 38041
L58527 38159
" />
<path d="M58527 38041
L58409 38159
" />
<path d="M58459 48391
L58577 48509
" />
<path d="M58577 48391
L58459 48509
" />
<path d="M58459 48941
L58577 49059
" />
<path d="M58577 48941
L58459 49059
" />
<path d="M58469 43981
L58587 44099
" />
<path d="M58587 43981
L58469 44099
" />
<path d="M58469 45901
L58587 46019
" />
<path d="M58587 45901
L58469 46019
" />
<path d="M58990 50340
L59109 50459
" />
<path d="M59109 50340
L58990 50459
" />
<path d="M59409 53141
L59527 53259
" />
<path d="M59527 53141
L59409 53259
" />
<path d="M61409 36641
L61527 36759
" />
<path d="M61527 36641
L61409 36759
" />
<path d="M61409 38641
L61527 38759
" />
<path d="M61527 38641
L61409 38759
" />
<path d="M61409 40641
L61527 40759
" />
<path d="M61527 40641
L61409 40759
" />
<path d="M61409 43141
L61527 43259
" />
<path d="M61527 43141
L61409 43259
" />
<path d="M61409 45141
L61527 45259
" />
<path d="M61527 45141
L61409 45259
" />
<path d="M61409 47141
L61527 47259
" />
<path d="M61527 47141
L61409 47259
" />
<path d="M61409 49141
L61527 49259
" />
<path d="M61527 49141
L61409 49259
" />
<path d="M61409 51141
L61527 51259
" />
<path d="M61527 51141
L61409 51259
" />
<circle cx="47368.5" cy="45700.8" r="78.7402" /> 
<path d="M51465 41835
L51465 42071
" />
<path d="M51347 41953
L51583 41953
" />
<path d="M52718 40582
L52718 40818
" />
<path d="M52600 40700
L52836 40700
" />
<path d="M52718 43088
L52718 43324
" />
<path d="M52600 43206
L52836 43206
" />
<path d="M53971 41835
L53971 42071
" />
<path d="M53853 41953
L54089 41953
" />
<polyline fill="none;"
points="52607,51839
52607,51561
52329,51561
52329,51839
52607,51839
" /> 
<polyline fill="none;"
points="53607,51839
53607,51561
53329,51561
53329,51839
53607,51839
" /> 
<polyline fill="none;"
points="54607,51839
54607,51561
54329,51561
54329,51839
54607,51839
" /> 
<polyline fill="none;"
points="55607,51839
55607,51561
55329,51561
55329,51839
55607,51839
" /> 
<polyline fill="none;"
points="45607,35839
45607,35561
45329,35561
45329,35839
45607,35839
" /> 
<polyline fill="none;"
points="46607,35839
46607,35561
46329,35561
46329,35839
46607,35839
" /> 
<polyline fill="none;"
points="47607,35839
47607,35561
47329,35561
47329,35839
47607,35839
" /> 
<polyline fill="none;"
points="48607,35839
48607,35561
48329,35561
48329,35839
48607,35839
" /> 
<polyline fill="none;"
points="49607,35839
49607,35561
49329,35561
49329,35839
49607,35839
" /> 
<polyline fill="none;"
points="59607,36839
59607,36561
59329,36561
59329,36839
59607,36839
" /> 
<polyline fill="none;"
points="46357,51839
46357,51561
46079,51561
46079,51839
46357,51839
" /> 
<path d="M46521 51543
L45915 51543
" />
<path d="M46521 51858
L45915 51858
" />
<path d="M45915.4 51543.3 A157.48 157.48 0.0 0 0 45915.4 51858.3 " />
<path d="M46521.7 51858.3 A157.48 157.48 0.0 0 0 46521.7 51543.3 " />
<polyline fill="none;"
points="47607,51839
47607,51561
47329,51561
47329,51839
47607,51839
" /> 
<polyline fill="none;"
points="52607,52839
52607,52561
52329,52561
52329,52839
52607,52839
" /> 
<polyline fill="none;"
points="53607,52839
53607,52561
53329,52561
53329,52839
53607,52839
" /> 
<polyline fill="none;"
points="54607,52839
54607,52561
54329,52561
54329,52839
54607,52839
" /> 
<polyline fill="none;"
points="55607,52839
55607,52561
55329,52561
55329,52839
55607,52839
" /> 
<polyline fill="none;"
points="50607,51839
50607,51561
50329,51561
50329,51839
50607,51839
" /> 
<polyline fill="none;"
points="50607,52839
50607,52561
50329,52561
50329,52839
50607,52839
" /> 
<polyline fill="none;"
points="54607,35839
54607,35561
54329,35561
54329,35839
54607,35839
" /> 
<polyline fill="none;"
points="55607,35839
55607,35561
55329,35561
55329,35839
55607,35839
" /> 
<polyline fill="none;"
points="56607,35839
56607,35561
56329,35561
56329,35839
56607,35839
" /> 
<polyline fill="none;"
points="57607,35839
57607,35561
57329,35561
57329,35839
57607,35839
" /> 
<polyline fill="none;"
points="58607,35839
58607,35561
58329,35561
58329,35839
58607,35839
" /> 
<polyline fill="none;"
points="51607,51839
51607,51561
51329,51561
51329,51839
51607,51839
" /> 
<polyline fill="none;"
points="51607,52839
51607,52561
51329,52561
51329,52839
51607,52839
" /> 
<polyline fill="none;"
points="45607,34839
45607,34561
45329,34561
45329,34839
45607,34839
" /> 
<polyline fill="none;"
points="46607,34839
46607,34561
46329,34561
46329,34839
46607,34839
" /> 
<polyline fill="none;"
points="47607,34839
47607,34561
47329,34561
47329,34839
47607,34839
" /> 
<polyline fill="none;"
points="48607,34839
48607,34561
48329,34561
48329,34839
48607,34839
" /> 
<polyline fill="none;"
points="49607,34839
49607,34561
49329,34561
49329,34839
49607,34839
" /> 
<polyline fill="none;"
points="51607,35839
51607,35561
51329,35561
51329,35839
51607,35839
" /> 
<polyline fill="none;"
points="52607,35839
52607,35561
52329,35561
52329,35839
52607,35839
" /> 
<polyline fill="none;"
points="53607,35839
53607,35561
53329,35561
53329,35839
53607,35839
" /> 
<polyline fill="none;"
points="54607,50839
54607,50561
54329,50561
54329,50839
54607,50839
" /> 
<polyline fill="none;"
points="55607,50839
55607,50561
55329,50561
55329,50839
55607,50839
" /> 
<polyline fill="none;"
points="56607,50839
56607,50561
56329,50561
56329,50839
56607,50839
" /> 
<polyline fill="none;"
points="57607,50839
57607,50561
57329,50561
57329,50839
57607,50839
" /> 
<polyline fill="none;"
points="50607,48839
50607,48561
50329,48561
50329,48839
50607,48839
" /> 
<polyline fill="none;"
points="50607,49839
50607,49561
50329,49561
50329,49839
50607,49839
" /> 
<polyline fill="none;"
points="50607,50839
50607,50561
50329,50561
50329,50839
50607,50839
" /> 
<polyline fill="none;"
points="44607,37839
44607,37561
44329,37561
44329,37839
44607,37839
" /> 
<polyline fill="none;"
points="44607,38839
44607,38561
44329,38561
44329,38839
44607,38839
" /> 
<polyline fill="none;"
points="44607,39839
44607,39561
44329,39561
44329,39839
44607,39839
" /> 
<polyline fill="none;"
points="44607,40839
44607,40561
44329,40561
44329,40839
44607,40839
" /> 
<polyline fill="none;"
points="44607,41839
44607,41561
44329,41561
44329,41839
44607,41839
" /> 
<polyline fill="none;"
points="51607,34839
51607,34561
51329,34561
51329,34839
51607,34839
" /> 
<polyline fill="none;"
points="52607,34839
52607,34561
52329,34561
52329,34839
52607,34839
" /> 
<polyline fill="none;"
points="53607,34839
53607,34561
53329,34561
53329,34839
53607,34839
" /> 
<polyline fill="none;"
points="43607,37839
43607,37561
43329,37561
43329,37839
43607,37839
" /> 
<polyline fill="none;"
points="43607,38839
43607,38561
43329,38561
43329,38839
43607,38839
" /> 
<polyline fill="none;"
points="43607,39839
43607,39561
43329,39561
43329,39839
43607,39839
" /> 
<polyline fill="none;"
points="43607,40839
43607,40561
43329,40561
43329,40839
43607,40839
" /> 
<polyline fill="none;"
points="43607,41839
43607,41561
43329,41561
43329,41839
43607,41839
" /> 
<polyline fill="none;"
points="56607,52839
56607,52561
56329,52561
56329,52839
56607,52839
" /> 
<polyline fill="none;"
points="57607,52839
57607,52561
57329,52561
57329,52839
57607,52839
" /> 
<polyline fill="none;"
points="58607,52839
58607,52561
58329,52561
58329,52839
58607,52839
" /> 
<polyline fill="none;"
points="59607,37839
59607,37561
59329,37561
59329,37839
59607,37839
" /> 
<polyline fill="none;"
points="59607,38839
59607,38561
59329,38561
59329,38839
59607,38839
" /> 
<polyline fill="none;"
points="59607,39839
59607,39561
59329,39561
59329,39839
59607,39839
" /> 
<polyline fill="none;"
points="59607,40839
59607,40561
59329,40561
59329,40839
59607,40839
" /> 
<polyline fill="none;"
points="59607,41839
59607,41561
59329,41561
59329,41839
59607,41839
" /> 
<polyline fill="none;"
points="60607,37839
60607,37561
60329,37561
60329,37839
60607,37839
" /> 
<polyline fill="none;"
points="60607,38839
60607,38561
60329,38561
60329,38839
60607,38839
" /> 
<polyline fill="none;"
points="60607,39839
60607,39561
60329,39561
60329,39839
60607,39839
" /> 
<polyline fill="none;"
points="60607,40839
60607,40561
60329,40561
60329,40839
60607,40839
" /> 
<polyline fill="none;"
points="60607,41839
60607,41561
60329,41561
60329,41839
60607,41839
" /> 
<polyline fill="none;"
points="56607,51839
56607,51561
56329,51561
56329,51839
56607,51839
" /> 
<polyline fill="none;"
points="57607,51839
57607,51561
57329,51561
57329,51839
57607,51839
" /> 
<polyline fill="none;"
points="58607,51839
58607,51561
58329,51561
58329,51839
58607,51839
" /> 
<polyline fill="none;"
points="54607,34839
54607,34561
54329,34561
54329,34839
54607,34839
" /> 
<polyline fill="none;"
points="55607,34839
55607,34561
55329,34561
55329,34839
55607,34839
" /> 
<polyline fill="none;"
points="56607,34839
56607,34561
56329,34561
56329,34839
56607,34839
" /> 
<polyline fill="none;"
points="57607,34839
57607,34561
57329,34561
57329,34839
57607,34839
" /> 
<polyline fill="none;"
points="58607,34839
58607,34561
58329,34561
58329,34839
58607,34839
" /> 
<polyline fill="none;"
points="51607,50839
51607,50561
51329,50561
51329,50839
51607,50839
" /> 
<polyline fill="none;"
points="52607,50839
52607,50561
52329,50561
52329,50839
52607,50839
" /> 
<polyline fill="none;"
points="53607,50839
53607,50561
53329,50561
53329,50839
53607,50839
" /> 
<polyline fill="none;"
points="59607,44839
59607,44561
59329,44561
59329,44839
59607,44839
" /> 
<polyline fill="none;"
points="59607,45839
59607,45561
59329,45561
59329,45839
59607,45839
" /> 
<polyline fill="none;"
points="59607,46839
59607,46561
59329,46561
59329,46839
59607,46839
" /> 
<polyline fill="none;"
points="59607,47839
59607,47561
59329,47561
59329,47839
59607,47839
" /> 
<polyline fill="none;"
points="59607,48839
59607,48561
59329,48561
59329,48839
59607,48839
" /> 
<polyline fill="none;"
points="60607,44839
60607,44561
60329,44561
60329,44839
60607,44839
" /> 
<polyline fill="none;"
points="60607,45839
60607,45561
60329,45561
60329,45839
60607,45839
" /> 
<polyline fill="none;"
points="60607,46839
60607,46561
60329,46561
60329,46839
60607,46839
" /> 
<polyline fill="none;"
points="60607,47839
60607,47561
60329,47561
60329,47839
60607,47839
" /> 
<polyline fill="none;"
points="60607,48839
60607,48561
60329,48561
60329,48839
60607,48839
" /> 
<polyline fill="none;"
points="52718,42740
53505,41953
52718,41166
51931,41953
52718,42740
" /> 
<path d="M59803 34606
L61062 35866
" />
<path d="M61062 34606
L59803 35866
" />
<circle cx="60433.1" cy="35236.2" r="629.921" /> 
<path d="M42874 51535
L44133 52795
" />
<path d="M44133 51535
L42874 52795
" />
<circle cx="43503.9" cy="52165.4" r="629.921" /> 
<path d="M42874 34606
L44133 35866
" />
<path d="M44133 34606
L42874 35866
" />
<circle cx="43503.9" cy="35236.2" r="629.921" /> 
<path d="M59803 51535
L61062 52795
" />
<path d="M61062 51535
L59803 52795
" />
<circle cx="60433.1" cy="52165.4" r="629.921" /> 
</g>
<g style="fill:#000000; fill-opacity:0.0; 
stroke:#000000; stroke-width:118.11; stroke-opacity:1; 
stroke-linecap:round; stroke-linejoin:round;">
<path d="M43233 55396
L43233 54215
L43515 54215
L43683 54271
L43796 54384
L43852 54496
L43908 54721
L43908 54890
L43852 55115
L43796 55227
L43683 55340
L43515 55396
L43233 55396
" />
<path d="M44415 55396
L44415 54609
" />
<path d="M44415 54834
L44471 54721
L44527 54665
L44640 54609
L44752 54609
" />
<path d="M45146 55396
L45146 54609
" />
<path d="M45146 54215
L45089 54271
L45146 54327
L45202 54271
L45146 54215
L45146 54327
" />
<path d="M45877 55396
L45764 55340
L45708 55227
L45708 54215
" />
<path d="M46496 55396
L46383 55340
L46327 55227
L46327 54215
" />
<path d="M47845 55396
L47845 54215
L48239 55059
L48633 54215
L48633 55396
" />
<path d="M49701 55396
L49701 54777
L49645 54665
L49533 54609
L49308 54609
L49195 54665
" />
<path d="M49701 55340
L49589 55396
L49308 55396
L49195 55340
L49139 55227
L49139 55115
L49195 55002
L49308 54946
L49589 54946
L49701 54890
" />
<path d="M50264 54609
L50264 55790
" />
<path d="M50264 54665
L50376 54609
L50601 54609
L50714 54665
L50770 54721
L50826 54834
L50826 55171
L50770 55284
L50714 55340
L50601 55396
L50376 55396
L50264 55340
" />
<path d="M51332 55284
L51389 55340
L51332 55396
L51276 55340
L51332 55284
L51332 55396
" />
<path d="M51332 54665
L51389 54721
L51332 54777
L51276 54721
L51332 54665
L51332 54777
" />
<path d="M41988 57283
L42106 57401
" />
<path d="M42106 57283
L41988 57401
" />
<path d="M43458 56695
L43571 56695
L43683 56751
L43740 56808
L43796 56920
L43852 57145
L43852 57426
L43796 57651
L43740 57764
L43683 57820
L43571 57876
L43458 57876
L43346 57820
L43290 57764
L43233 57651
L43177 57426
L43177 57145
L43233 56920
L43290 56808
L43346 56751
L43458 56695
" />
<path d="M44358 57764
L44415 57820
L44358 57876
L44302 57820
L44358 57764
L44358 57876
" />
<path d="M44808 56695
L45539 56695
L45146 57145
L45314 57145
L45427 57201
L45483 57258
L45539 57370
L45539 57651
L45483 57764
L45427 57820
L45314 57876
L44977 57876
L44865 57820
L44808 57764
" />
<path d="M46271 56695
L46383 56695
L46496 56751
L46552 56808
L46608 56920
L46664 57145
L46664 57426
L46608 57651
L46552 57764
L46496 57820
L46383 57876
L46271 57876
L46158 57820
L46102 57764
L46046 57651
L45989 57426
L45989 57145
L46046 56920
L46102 56808
L46158 56751
L46271 56695
" />
<path d="M47170 57876
L47170 57089
" />
<path d="M47170 57201
L47227 57145
L47339 57089
L47508 57089
L47620 57145
L47677 57258
L47677 57876
" />
<path d="M47677 57258
L47733 57145
L47845 57089
L48014 57089
L48127 57145
L48183 57258
L48183 57876
" />
<path d="M48745 57876
L48745 57089
" />
<path d="M48745 57201
L48802 57145
L48914 57089
L49083 57089
L49195 57145
L49251 57258
L49251 57876
" />
<path d="M49251 57258
L49308 57145
L49420 57089
L49589 57089
L49701 57145
L49758 57258
L49758 57876
" />
<path d="M52064 56639
L51051 58158
" />
<path d="M53582 56695
L53695 56695
L53807 56751
L53863 56808
L53920 56920
L53976 57145
L53976 57426
L53920 57651
L53863 57764
L53807 57820
L53695 57876
L53582 57876
L53470 57820
L53413 57764
L53357 57651
L53301 57426
L53301 57145
L53357 56920
L53413 56808
L53470 56751
L53582 56695
" />
<path d="M54482 57764
L54538 57820
L54482 57876
L54426 57820
L54482 57764
L54482 57876
" />
<path d="M55269 56695
L55382 56695
L55494 56751
L55551 56808
L55607 56920
L55663 57145
L55663 57426
L55607 57651
L55551 57764
L55494 57820
L55382 57876
L55269 57876
L55157 57820
L55101 57764
L55044 57651
L54988 57426
L54988 57145
L55044 56920
L55101 56808
L55157 56751
L55269 56695
" />
<path d="M56788 57876
L56113 57876
" />
<path d="M56451 57876
L56451 56695
L56338 56864
L56226 56976
L56113 57033
" />
<path d="M57238 56808
L57294 56751
L57407 56695
L57688 56695
L57800 56751
L57857 56808
L57913 56920
L57913 57033
L57857 57201
L57182 57876
L57913 57876
" />
<path d="M58363 56695
L58363 56920
" />
<path d="M58813 56695
L58813 56920
" />
<path d="M60556 58326
L60500 58270
L60388 58101
L60331 57989
L60275 57820
L60219 57539
L60219 57314
L60275 57033
L60331 56864
L60388 56751
L60500 56583
L60556 56526
" />
<path d="M61625 57876
L60950 57876
" />
<path d="M61287 57876
L61287 56695
L61175 56864
L61062 56976
L60950 57033
" />
<path d="M62019 56695
L62806 56695
L62300 57876
" />
<path d="M63143 56695
L63931 56695
L63425 57876
" />
<path d="M65281 57876
L65281 56695
" />
<path d="M65787 57876
L65787 57258
L65731 57145
L65618 57089
L65449 57089
L65337 57145
L65281 57201
" />
<path d="M66518 57876
L66406 57820
L66349 57764
L66293 57651
L66293 57314
L66349 57201
L66406 57145
L66518 57089
L66687 57089
L66799 57145
L66856 57201
L66912 57314
L66912 57651
L66856 57764
L66799 57820
L66687 57876
L66518 57876
" />
<path d="M67587 57876
L67474 57820
L67418 57708
L67418 56695
" />
<path d="M68487 57820
L68374 57876
L68149 57876
L68037 57820
L67980 57708
L67980 57258
L68037 57145
L68149 57089
L68374 57089
L68487 57145
L68543 57258
L68543 57370
L67980 57483
" />
<path d="M68993 57820
L69105 57876
L69330 57876
L69443 57820
L69499 57708
L69499 57651
L69443 57539
L69330 57483
L69161 57483
L69049 57426
L68993 57314
L68993 57258
L69049 57145
L69161 57089
L69330 57089
L69443 57145
" />
<path d="M69893 58326
L69949 58270
L70061 58101
L70118 57989
L70174 57820
L70230 57539
L70230 57314
L70174 57033
L70118 56864
L70061 56751
L69949 56583
L69893 56526
" />
<circle cx="42027.6" cy="58901.6" r="78.7402" /> 
<path d="M43458 58254
L43571 58254
L43683 58311
L43740 58367
L43796 58479
L43852 58704
L43852 58985
L43796 59210
L43740 59323
L43683 59379
L43571 59435
L43458 59435
L43346 59379
L43290 59323
L43233 59210
L43177 58985
L43177 58704
L43233 58479
L43290 58367
L43346 58311
L43458 58254
" />
<path d="M44358 59323
L44415 59379
L44358 59435
L44302 59379
L44358 59323
L44358 59435
" />
<path d="M45427 58648
L45427 59435
" />
<path d="M45146 58198
L44865 59042
L45596 59042
" />
<path d="M46271 58254
L46383 58254
L46496 58311
L46552 58367
L46608 58479
L46664 58704
L46664 58985
L46608 59210
L46552 59323
L46496 59379
L46383 59435
L46271 59435
L46158 59379
L46102 59323
L46046 59210
L45989 58985
L45989 58704
L46046 58479
L46102 58367
L46158 58311
L46271 58254
" />
<path d="M47170 59435
L47170 58648
" />
<path d="M47170 58760
L47227 58704
L47339 58648
L47508 58648
L47620 58704
L47677 58817
L47677 59435
" />
<path d="M47677 58817
L47733 58704
L47845 58648
L48014 58648
L48127 58704
L48183 58817
L48183 59435
" />
<path d="M48745 59435
L48745 58648
" />
<path d="M48745 58760
L48802 58704
L48914 58648
L49083 58648
L49195 58704
L49251 58817
L49251 59435
" />
<path d="M49251 58817
L49308 58704
L49420 58648
L49589 58648
L49701 58704
L49758 58817
L49758 59435
" />
<path d="M52064 58198
L51051 59717
" />
<path d="M53582 58254
L53695 58254
L53807 58311
L53863 58367
L53920 58479
L53976 58704
L53976 58985
L53920 59210
L53863 59323
L53807 59379
L53695 59435
L53582 59435
L53470 59379
L53413 59323
L53357 59210
L53301 58985
L53301 58704
L53357 58479
L53413 58367
L53470 58311
L53582 58254
" />
<path d="M54482 59323
L54538 59379
L54482 59435
L54426 59379
L54482 59323
L54482 59435
" />
<path d="M55269 58254
L55382 58254
L55494 58311
L55551 58367
L55607 58479
L55663 58704
L55663 58985
L55607 59210
L55551 59323
L55494 59379
L55382 59435
L55269 59435
L55157 59379
L55101 59323
L55044 59210
L54988 58985
L54988 58704
L55044 58479
L55101 58367
L55157 58311
L55269 58254
" />
<path d="M56788 59435
L56113 59435
" />
<path d="M56451 59435
L56451 58254
L56338 58423
L56226 58535
L56113 58592
" />
<path d="M57800 58254
L57575 58254
L57463 58311
L57407 58367
L57294 58535
L57238 58760
L57238 59210
L57294 59323
L57350 59379
L57463 59435
L57688 59435
L57800 59379
L57857 59323
L57913 59210
L57913 58929
L57857 58817
L57800 58760
L57688 58704
L57463 58704
L57350 58760
L57294 58817
L57238 58929
" />
<path d="M58363 58254
L58363 58479
" />
<path d="M58813 58254
L58813 58479
" />
<path d="M60556 59885
L60500 59829
L60388 59660
L60331 59548
L60275 59379
L60219 59098
L60219 58873
L60275 58592
L60331 58423
L60388 58311
L60500 58142
L60556 58086
" />
<path d="M61625 59435
L60950 59435
" />
<path d="M61287 59435
L61287 58254
L61175 58423
L61062 58535
L60950 58592
" />
<path d="M63031 59435
L63031 58254
" />
<path d="M63537 59435
L63537 58817
L63481 58704
L63368 58648
L63200 58648
L63087 58704
L63031 58760
" />
<path d="M64268 59435
L64156 59379
L64100 59323
L64043 59210
L64043 58873
L64100 58760
L64156 58704
L64268 58648
L64437 58648
L64550 58704
L64606 58760
L64662 58873
L64662 59210
L64606 59323
L64550 59379
L64437 59435
L64268 59435
" />
<path d="M65337 59435
L65224 59379
L65168 59267
L65168 58254
" />
<path d="M66237 59379
L66124 59435
L65899 59435
L65787 59379
L65731 59267
L65731 58817
L65787 58704
L65899 58648
L66124 58648
L66237 58704
L66293 58817
L66293 58929
L65731 59042
" />
<path d="M66687 59885
L66743 59829
L66856 59660
L66912 59548
L66968 59379
L67024 59098
L67024 58873
L66968 58592
L66912 58423
L66856 58311
L66743 58142
L66687 58086
" />
<path d="M41988 60342
L41988 60578
" />
<path d="M41870 60460
L42106 60460
" />
<path d="M43458 59813
L43571 59813
L43683 59870
L43740 59926
L43796 60038
L43852 60263
L43852 60544
L43796 60769
L43740 60882
L43683 60938
L43571 60994
L43458 60994
L43346 60938
L43290 60882
L43233 60769
L43177 60544
L43177 60263
L43233 60038
L43290 59926
L43346 59870
L43458 59813
" />
<path d="M44358 60882
L44415 60938
L44358 60994
L44302 60938
L44358 60882
L44358 60994
" />
<path d="M45427 59813
L45202 59813
L45089 59870
L45033 59926
L44921 60095
L44865 60320
L44865 60769
L44921 60882
L44977 60938
L45089 60994
L45314 60994
L45427 60938
L45483 60882
L45539 60769
L45539 60488
L45483 60376
L45427 60320
L45314 60263
L45089 60263
L44977 60320
L44921 60376
L44865 60488
" />
<path d="M46271 59813
L46383 59813
L46496 59870
L46552 59926
L46608 60038
L46664 60263
L46664 60544
L46608 60769
L46552 60882
L46496 60938
L46383 60994
L46271 60994
L46158 60938
L46102 60882
L46046 60769
L45989 60544
L45989 60263
L46046 60038
L46102 59926
L46158 59870
L46271 59813
" />
<path d="M47170 60994
L47170 60207
" />
<path d="M47170 60320
L47227 60263
L47339 60207
L47508 60207
L47620 60263
L47677 60376
L47677 60994
" />
<path d="M47677 60376
L47733 60263
L47845 60207
L48014 60207
L48127 60263
L48183 60376
L48183 60994
" />
<path d="M48745 60994
L48745 60207
" />
<path d="M48745 60320
L48802 60263
L48914 60207
L49083 60207
L49195 60263
L49251 60376
L49251 60994
" />
<path d="M49251 60376
L49308 60263
L49420 60207
L49589 60207
L49701 60263
L49758 60376
L49758 60994
" />
<path d="M52064 59757
L51051 61276
" />
<path d="M53582 59813
L53695 59813
L53807 59870
L53863 59926
L53920 60038
L53976 60263
L53976 60544
L53920 60769
L53863 60882
L53807 60938
L53695 60994
L53582 60994
L53470 60938
L53413 60882
L53357 60769
L53301 60544
L53301 60263
L53357 60038
L53413 59926
L53470 59870
L53582 59813
" />
<path d="M54482 60882
L54538 60938
L54482 60994
L54426 60938
L54482 60882
L54482 60994
" />
<path d="M55269 59813
L55382 59813
L55494 59870
L55551 59926
L55607 60038
L55663 60263
L55663 60544
L55607 60769
L55551 60882
L55494 60938
L55382 60994
L55269 60994
L55157 60938
L55101 60882
L55044 60769
L54988 60544
L54988 60263
L55044 60038
L55101 59926
L55157 59870
L55269 59813
" />
<path d="M56113 59926
L56169 59870
L56282 59813
L56563 59813
L56676 59870
L56732 59926
L56788 60038
L56788 60151
L56732 60320
L56057 60994
L56788 60994
" />
<path d="M57800 60207
L57800 60994
" />
<path d="M57519 59757
L57238 60601
L57969 60601
" />
<path d="M58363 59813
L58363 60038
" />
<path d="M58813 59813
L58813 60038
" />
<path d="M60556 61444
L60500 61388
L60388 61219
L60331 61107
L60275 60938
L60219 60657
L60219 60432
L60275 60151
L60331 59982
L60388 59870
L60500 59701
L60556 59645
" />
<path d="M61512 60207
L61512 60994
" />
<path d="M61231 59757
L60950 60601
L61681 60601
" />
<path d="M63031 60994
L63031 59813
" />
<path d="M63537 60994
L63537 60376
L63481 60263
L63368 60207
L63200 60207
L63087 60263
L63031 60320
" />
<path d="M64268 60994
L64156 60938
L64100 60882
L64043 60769
L64043 60432
L64100 60320
L64156 60263
L64268 60207
L64437 60207
L64550 60263
L64606 60320
L64662 60432
L64662 60769
L64606 60882
L64550 60938
L64437 60994
L64268 60994
" />
<path d="M65337 60994
L65224 60938
L65168 60826
L65168 59813
" />
<path d="M66237 60938
L66124 60994
L65899 60994
L65787 60938
L65731 60826
L65731 60376
L65787 60263
L65899 60207
L66124 60207
L66237 60263
L66293 60376
L66293 60488
L65731 60601
" />
<path d="M66743 60938
L66856 60994
L67080 60994
L67193 60938
L67249 60826
L67249 60769
L67193 60657
L67080 60601
L66912 60601
L66799 60544
L66743 60432
L66743 60376
L66799 60263
L66912 60207
L67080 60207
L67193 60263
" />
<path d="M67643 61444
L67699 61388
L67812 61219
L67868 61107
L67924 60938
L67980 60657
L67980 60432
L67924 60151
L67868 59982
L67812 59870
L67699 59701
L67643 59645
" />
<polyline fill="none;"
points="42048,62158
42048,61880
41770,61880
41770,62158
42048,62158
" /> 
<path d="M43852 62553
L43177 62553
" />
<path d="M43515 62553
L43515 61372
L43402 61541
L43290 61654
L43177 61710
" />
<path d="M44358 62441
L44415 62497
L44358 62553
L44302 62497
L44358 62441
L44358 62553
" />
<path d="M45146 61372
L45258 61372
L45371 61429
L45427 61485
L45483 61597
L45539 61822
L45539 62104
L45483 62329
L45427 62441
L45371 62497
L45258 62553
L45146 62553
L45033 62497
L44977 62441
L44921 62329
L44865 62104
L44865 61822
L44921 61597
L44977 61485
L45033 61429
L45146 61372
" />
<path d="M46271 61372
L46383 61372
L46496 61429
L46552 61485
L46608 61597
L46664 61822
L46664 62104
L46608 62329
L46552 62441
L46496 62497
L46383 62553
L46271 62553
L46158 62497
L46102 62441
L46046 62329
L45989 62104
L45989 61822
L46046 61597
L46102 61485
L46158 61429
L46271 61372
" />
<path d="M47170 62553
L47170 61766
" />
<path d="M47170 61879
L47227 61822
L47339 61766
L47508 61766
L47620 61822
L47677 61935
L47677 62553
" />
<path d="M47677 61935
L47733 61822
L47845 61766
L48014 61766
L48127 61822
L48183 61935
L48183 62553
" />
<path d="M48745 62553
L48745 61766
" />
<path d="M48745 61879
L48802 61822
L48914 61766
L49083 61766
L49195 61822
L49251 61935
L49251 62553
" />
<path d="M49251 61935
L49308 61822
L49420 61766
L49589 61766
L49701 61822
L49758 61935
L49758 62553
" />
<path d="M52064 61316
L51051 62835
" />
<path d="M53582 61372
L53695 61372
L53807 61429
L53863 61485
L53920 61597
L53976 61822
L53976 62104
L53920 62329
L53863 62441
L53807 62497
L53695 62553
L53582 62553
L53470 62497
L53413 62441
L53357 62329
L53301 62104
L53301 61822
L53357 61597
L53413 61485
L53470 61429
L53582 61372
" />
<path d="M54482 62441
L54538 62497
L54482 62553
L54426 62497
L54482 62441
L54482 62553
" />
<path d="M55269 61372
L55382 61372
L55494 61429
L55551 61485
L55607 61597
L55663 61822
L55663 62104
L55607 62329
L55551 62441
L55494 62497
L55382 62553
L55269 62553
L55157 62497
L55101 62441
L55044 62329
L54988 62104
L54988 61822
L55044 61597
L55101 61485
L55157 61429
L55269 61372
" />
<path d="M56057 61372
L56788 61372
L56394 61822
L56563 61822
L56676 61879
L56732 61935
L56788 62047
L56788 62329
L56732 62441
L56676 62497
L56563 62553
L56226 62553
L56113 62497
L56057 62441
" />
<path d="M57350 62553
L57575 62553
L57688 62497
L57744 62441
L57857 62272
L57913 62047
L57913 61597
L57857 61485
L57800 61429
L57688 61372
L57463 61372
L57350 61429
L57294 61485
L57238 61597
L57238 61879
L57294 61991
L57350 62047
L57463 62104
L57688 62104
L57800 62047
L57857 61991
L57913 61879
" />
<path d="M58363 61372
L58363 61597
" />
<path d="M58813 61372
L58813 61597
" />
<path d="M60556 63003
L60500 62947
L60388 62778
L60331 62666
L60275 62497
L60219 62216
L60219 61991
L60275 61710
L60331 61541
L60388 61429
L60500 61260
L60556 61204
" />
<path d="M61175 61879
L61062 61822
L61006 61766
L60950 61654
L60950 61597
L61006 61485
L61062 61429
L61175 61372
L61400 61372
L61512 61429
L61569 61485
L61625 61597
L61625 61654
L61569 61766
L61512 61822
L61400 61879
L61175 61879
L61062 61935
L61006 61991
L60950 62104
L60950 62329
L61006 62441
L61062 62497
L61175 62553
L61400 62553
L61512 62497
L61569 62441
L61625 62329
L61625 62104
L61569 61991
L61512 61935
L61400 61879
" />
<path d="M62637 61372
L62412 61372
L62300 61429
L62244 61485
L62131 61654
L62075 61879
L62075 62329
L62131 62441
L62187 62497
L62300 62553
L62525 62553
L62637 62497
L62694 62441
L62750 62329
L62750 62047
L62694 61935
L62637 61879
L62525 61822
L62300 61822
L62187 61879
L62131 61935
L62075 62047
" />
<path d="M64156 62553
L64156 61372
" />
<path d="M64662 62553
L64662 61935
L64606 61822
L64493 61766
L64325 61766
L64212 61822
L64156 61879
" />
<path d="M65393 62553
L65281 62497
L65224 62441
L65168 62329
L65168 61991
L65224 61879
L65281 61822
L65393 61766
L65562 61766
L65674 61822
L65731 61879
L65787 61991
L65787 62329
L65731 62441
L65674 62497
L65562 62553
L65393 62553
" />
<path d="M66462 62553
L66349 62497
L66293 62385
L66293 61372
" />
<path d="M67362 62497
L67249 62553
L67024 62553
L66912 62497
L66856 62385
L66856 61935
L66912 61822
L67024 61766
L67249 61766
L67362 61822
L67418 61935
L67418 62047
L66856 62160
" />
<path d="M67868 62497
L67980 62553
L68205 62553
L68318 62497
L68374 62385
L68374 62329
L68318 62216
L68205 62160
L68037 62160
L67924 62104
L67868 61991
L67868 61935
L67924 61822
L68037 61766
L68205 61766
L68318 61822
" />
<path d="M69780 62104
L70680 62104
" />
<path d="M70230 62553
L70230 61654
" />
<path d="M72761 62553
L72086 62553
" />
<path d="M72424 62553
L72424 61372
L72311 61541
L72199 61654
L72086 61710
" />
<path d="M74111 62497
L74223 62553
L74448 62553
L74561 62497
L74617 62385
L74617 62329
L74561 62216
L74448 62160
L74280 62160
L74167 62104
L74111 61991
L74111 61935
L74167 61822
L74280 61766
L74448 61766
L74561 61822
" />
<path d="M75292 62553
L75179 62497
L75123 62385
L75123 61372
" />
<path d="M75911 62553
L75798 62497
L75742 62441
L75686 62329
L75686 61991
L75742 61879
L75798 61822
L75911 61766
L76079 61766
L76192 61822
L76248 61879
L76304 61991
L76304 62329
L76248 62441
L76192 62497
L76079 62553
L75911 62553
" />
<path d="M76642 61766
L77092 61766
" />
<path d="M76811 61372
L76811 62385
L76867 62497
L76979 62553
L77092 62553
" />
<path d="M77373 63003
L77429 62947
L77542 62778
L77598 62666
L77654 62497
L77710 62216
L77710 61991
L77654 61710
L77598 61541
L77542 61429
L77429 61260
L77373 61204
" />
<polyline fill="none;"
points="41318,64366
42106,63578
41318,62791
40531,63578
41318,64366
" /> 
<path d="M43740 63325
L43740 64113
" />
<path d="M43458 62875
L43177 63719
L43908 63719
" />
<path d="M44358 64000
L44415 64056
L44358 64113
L44302 64056
L44358 64000
L44358 64113
" />
<path d="M45146 62931
L45258 62931
L45371 62988
L45427 63044
L45483 63156
L45539 63381
L45539 63663
L45483 63888
L45427 64000
L45371 64056
L45258 64113
L45146 64113
L45033 64056
L44977 64000
L44921 63888
L44865 63663
L44865 63381
L44921 63156
L44977 63044
L45033 62988
L45146 62931
" />
<path d="M46271 62931
L46383 62931
L46496 62988
L46552 63044
L46608 63156
L46664 63381
L46664 63663
L46608 63888
L46552 64000
L46496 64056
L46383 64113
L46271 64113
L46158 64056
L46102 64000
L46046 63888
L45989 63663
L45989 63381
L46046 63156
L46102 63044
L46158 62988
L46271 62931
" />
<path d="M47170 64113
L47170 63325
" />
<path d="M47170 63438
L47227 63381
L47339 63325
L47508 63325
L47620 63381
L47677 63494
L47677 64113
" />
<path d="M47677 63494
L47733 63381
L47845 63325
L48014 63325
L48127 63381
L48183 63494
L48183 64113
" />
<path d="M48745 64113
L48745 63325
" />
<path d="M48745 63438
L48802 63381
L48914 63325
L49083 63325
L49195 63381
L49251 63494
L49251 64113
" />
<path d="M49251 63494
L49308 63381
L49420 63325
L49589 63325
L49701 63381
L49758 63494
L49758 64113
" />
<path d="M52064 62875
L51051 64394
" />
<path d="M53582 62931
L53695 62931
L53807 62988
L53863 63044
L53920 63156
L53976 63381
L53976 63663
L53920 63888
L53863 64000
L53807 64056
L53695 64113
L53582 64113
L53470 64056
L53413 64000
L53357 63888
L53301 63663
L53301 63381
L53357 63156
L53413 63044
L53470 62988
L53582 62931
" />
<path d="M54482 64000
L54538 64056
L54482 64113
L54426 64056
L54482 64000
L54482 64113
" />
<path d="M55663 64113
L54988 64113
" />
<path d="M55326 64113
L55326 62931
L55213 63100
L55101 63213
L54988 63269
" />
<path d="M56732 62931
L56169 62931
L56113 63494
L56169 63438
L56282 63381
L56563 63381
L56676 63438
L56732 63494
L56788 63606
L56788 63888
L56732 64000
L56676 64056
L56563 64113
L56282 64113
L56169 64056
L56113 64000
" />
<path d="M57182 62931
L57969 62931
L57463 64113
" />
<path d="M58363 62931
L58363 63156
" />
<path d="M58813 62931
L58813 63156
" />
<path d="M60556 64562
L60500 64506
L60388 64338
L60331 64225
L60275 64056
L60219 63775
L60219 63550
L60275 63269
L60331 63100
L60388 62988
L60500 62819
L60556 62763
" />
<path d="M61625 64113
L60950 64113
" />
<path d="M61287 64113
L61287 62931
L61175 63100
L61062 63213
L60950 63269
" />
<path d="M63031 64113
L63031 62931
" />
<path d="M63537 64113
L63537 63494
L63481 63381
L63368 63325
L63200 63325
L63087 63381
L63031 63438
" />
<path d="M64268 64113
L64156 64056
L64100 64000
L64043 63888
L64043 63550
L64100 63438
L64156 63381
L64268 63325
L64437 63325
L64550 63381
L64606 63438
L64662 63550
L64662 63888
L64606 64000
L64550 64056
L64437 64113
L64268 64113
" />
<path d="M65337 64113
L65224 64056
L65168 63944
L65168 62931
" />
<path d="M66237 64056
L66124 64113
L65899 64113
L65787 64056
L65731 63944
L65731 63494
L65787 63381
L65899 63325
L66124 63325
L66237 63381
L66293 63494
L66293 63606
L65731 63719
" />
<path d="M66687 64562
L66743 64506
L66856 64338
L66912 64225
L66968 64056
L67024 63775
L67024 63550
L66968 63269
L66912 63100
L66856 62988
L66743 62819
L66687 62763
" />
<path d="M40846 65035
L42106 66295
" />
<path d="M42106 65035
L40846 66295
" />
<circle cx="41476.4" cy="65665.4" r="629.921" /> 
<path d="M43121 65018
L43852 65018
L43458 65468
L43627 65468
L43740 65524
L43796 65580
L43852 65693
L43852 65974
L43796 66087
L43740 66143
L43627 66199
L43290 66199
L43177 66143
L43121 66087
" />
<path d="M44358 66087
L44415 66143
L44358 66199
L44302 66143
L44358 66087
L44358 66199
" />
<path d="M44865 65131
L44921 65074
L45033 65018
L45314 65018
L45427 65074
L45483 65131
L45539 65243
L45539 65356
L45483 65524
L44808 66199
L45539 66199
" />
<path d="M46271 65018
L46383 65018
L46496 65074
L46552 65131
L46608 65243
L46664 65468
L46664 65749
L46608 65974
L46552 66087
L46496 66143
L46383 66199
L46271 66199
L46158 66143
L46102 66087
L46046 65974
L45989 65749
L45989 65468
L46046 65243
L46102 65131
L46158 65074
L46271 65018
" />
<path d="M47170 66199
L47170 65412
" />
<path d="M47170 65524
L47227 65468
L47339 65412
L47508 65412
L47620 65468
L47677 65580
L47677 66199
" />
<path d="M47677 65580
L47733 65468
L47845 65412
L48014 65412
L48127 65468
L48183 65580
L48183 66199
" />
<path d="M48745 66199
L48745 65412
" />
<path d="M48745 65524
L48802 65468
L48914 65412
L49083 65412
L49195 65468
L49251 65580
L49251 66199
" />
<path d="M49251 65580
L49308 65468
L49420 65412
L49589 65412
L49701 65468
L49758 65580
L49758 66199
" />
<path d="M52064 64962
L51051 66480
" />
<path d="M53582 65018
L53695 65018
L53807 65074
L53863 65131
L53920 65243
L53976 65468
L53976 65749
L53920 65974
L53863 66087
L53807 66143
L53695 66199
L53582 66199
L53470 66143
L53413 66087
L53357 65974
L53301 65749
L53301 65468
L53357 65243
L53413 65131
L53470 65074
L53582 65018
" />
<path d="M54482 66087
L54538 66143
L54482 66199
L54426 66143
L54482 66087
L54482 66199
" />
<path d="M55663 66199
L54988 66199
" />
<path d="M55326 66199
L55326 65018
L55213 65187
L55101 65299
L54988 65356
" />
<path d="M56113 65131
L56169 65074
L56282 65018
L56563 65018
L56676 65074
L56732 65131
L56788 65243
L56788 65356
L56732 65524
L56057 66199
L56788 66199
" />
<path d="M57800 65018
L57575 65018
L57463 65074
L57407 65131
L57294 65299
L57238 65524
L57238 65974
L57294 66087
L57350 66143
L57463 66199
L57688 66199
L57800 66143
L57857 66087
L57913 65974
L57913 65693
L57857 65580
L57800 65524
L57688 65468
L57463 65468
L57350 65524
L57294 65580
L57238 65693
" />
<path d="M58363 65018
L58363 65243
" />
<path d="M58813 65018
L58813 65243
" />
<path d="M60556 66649
L60500 66593
L60388 66424
L60331 66312
L60275 66143
L60219 65862
L60219 65637
L60275 65356
L60331 65187
L60388 65074
L60500 64906
L60556 64849
" />
<path d="M61512 65412
L61512 66199
" />
<path d="M61231 64962
L60950 65805
L61681 65805
" />
<path d="M63031 66199
L63031 65018
" />
<path d="M63537 66199
L63537 65580
L63481 65468
L63368 65412
L63200 65412
L63087 65468
L63031 65524
" />
<path d="M64268 66199
L64156 66143
L64100 66087
L64043 65974
L64043 65637
L64100 65524
L64156 65468
L64268 65412
L64437 65412
L64550 65468
L64606 65524
L64662 65637
L64662 65974
L64606 66087
L64550 66143
L64437 66199
L64268 66199
" />
<path d="M65337 66199
L65224 66143
L65168 66030
L65168 65018
" />
<path d="M66237 66143
L66124 66199
L65899 66199
L65787 66143
L65731 66030
L65731 65580
L65787 65468
L65899 65412
L66124 65412
L66237 65468
L66293 65580
L66293 65693
L65731 65805
" />
<path d="M66743 66143
L66856 66199
L67080 66199
L67193 66143
L67249 66030
L67249 65974
L67193 65862
L67080 65805
L66912 65805
L66799 65749
L66743 65637
L66743 65580
L66799 65468
L66912 65412
L67080 65412
L67193 65468
" />
<path d="M67643 66649
L67699 66593
L67812 66424
L67868 66312
L67924 66143
L67980 65862
L67980 65637
L67924 65356
L67868 65187
L67812 65074
L67699 64906
L67643 64849
" />
<path d="M69780 66649
L69724 66593
L69611 66424
L69555 66312
L69499 66143
L69443 65862
L69443 65637
L69499 65356
L69555 65187
L69611 65074
L69724 64906
L69780 64849
" />
<path d="M70230 65412
L70230 66199
" />
<path d="M70230 65524
L70286 65468
L70399 65412
L70568 65412
L70680 65468
L70736 65580
L70736 66199
" />
<path d="M71467 66199
L71355 66143
L71299 66087
L71242 65974
L71242 65637
L71299 65524
L71355 65468
L71467 65412
L71636 65412
L71749 65468
L71805 65524
L71861 65637
L71861 65974
L71805 66087
L71749 66143
L71636 66199
L71467 66199
" />
<path d="M72199 65412
L72649 65412
" />
<path d="M72367 65018
L72367 66030
L72424 66143
L72536 66199
L72649 66199
" />
<path d="M73942 65412
L73942 66593
" />
<path d="M73942 65468
L74055 65412
L74280 65412
L74392 65468
L74448 65524
L74505 65637
L74505 65974
L74448 66087
L74392 66143
L74280 66199
L74055 66199
L73942 66143
" />
<path d="M75179 66199
L75067 66143
L75011 66030
L75011 65018
" />
<path d="M76136 66199
L76136 65580
L76079 65468
L75967 65412
L75742 65412
L75629 65468
" />
<path d="M76136 66143
L76023 66199
L75742 66199
L75629 66143
L75573 66030
L75573 65918
L75629 65805
L75742 65749
L76023 65749
L76136 65693
" />
<path d="M76529 65412
L76979 65412
" />
<path d="M76698 65018
L76698 66030
L76754 66143
L76867 66199
L76979 66199
" />
<path d="M77823 66143
L77710 66199
L77485 66199
L77373 66143
L77317 66030
L77317 65580
L77373 65468
L77485 65412
L77710 65412
L77823 65468
L77879 65580
L77879 65693
L77317 65805
" />
<path d="M78892 66199
L78892 65018
" />
<path d="M78892 66143
L78779 66199
L78554 66199
L78442 66143
L78385 66087
L78329 65974
L78329 65637
L78385 65524
L78442 65468
L78554 65412
L78779 65412
L78892 65468
" />
<path d="M79341 66649
L79398 66593
L79510 66424
L79566 66312
L79623 66143
L79679 65862
L79679 65637
L79623 65356
L79566 65187
L79510 65074
L79398 64906
L79341 64849
" />
</g> 
</svg>
