<?xml version="1.0" standalone="no"?>
 <!DOCTYPE svg PUBLIC "-//W3C//DTD SVG 1.1//EN" 
 "http://www.w3.org/Graphics/SVG/1.1/DTD/svg11.dtd"> 
<svg xmlns="http://www.w3.org/2000/svg" version="1.1" 
    width="29.7002cm" height="21.0007cm" viewBox="0 0 116930 82680 ">
<title>SVG Picture created as uDSP-1.1-Edge_Cuts.svg date 2019/04/02 22:16:30 </title>
  <desc>Picture generated by PCBNEW </desc>
<g style="fill:#000000; fill-opacity:1;stroke:#000000; stroke-opacity:1;
stroke-linecap:round; stroke-linejoin:round; "
 transform="translate(0 0) scale(1 1)">
</g>
<g style="fill:#000000; fill-opacity:0.0; 
stroke:#000000; stroke-width:-0.000393701; stroke-opacity:1; 
stroke-linecap:round; stroke-linejoin:round;">
</g>
<g style="fill:#000000; fill-opacity:0.0; 
stroke:#000000; stroke-width:59.0551; stroke-opacity:1; 
stroke-linecap:round; stroke-linejoin:round;">
<rect x="69685.9" y="65357.2" width="42519.7" height="12598.4" rx="0" />
<rect x="3937.01" y="3937.01" width="109056" height="74806" rx="0" />
<rect x="4724.41" y="4724.41" width="107481" height="73231.2" rx="0" />
<path d="M23622 4724
L23622 3937
" />
<path d="M43307 4724
L43307 3937
" />
<path d="M62992 4724
L62992 3937
" />
<path d="M82677 4724
L82677 3937
" />
<path d="M102362 4724
L102362 3937
" />
<path d="M14199 4562
L13906 4562
" />
<path d="M14052 4562
L14052 4050
L14004 4123
L13955 4172
L13906 4196
" />
<path d="M33591 4099
L33615 4074
L33664 4050
L33786 4050
L33835 4074
L33859 4099
L33884 4147
L33884 4196
L33859 4269
L33567 4562
L33884 4562
" />
<path d="M53252 4050
L53569 4050
L53398 4245
L53471 4245
L53520 4269
L53544 4294
L53569 4342
L53569 4464
L53544 4513
L53520 4537
L53471 4562
L53325 4562
L53276 4537
L53252 4513
" />
<path d="M73205 4221
L73205 4562
" />
<path d="M73083 4026
L72961 4391
L73278 4391
" />
<path d="M92914 4050
L92671 4050
L92646 4294
L92671 4269
L92719 4245
L92841 4245
L92890 4269
L92914 4294
L92939 4342
L92939 4464
L92914 4513
L92890 4537
L92841 4562
L92719 4562
L92671 4537
L92646 4513
" />
<path d="M112575 4050
L112477 4050
L112429 4074
L112404 4099
L112356 4172
L112331 4269
L112331 4464
L112356 4513
L112380 4537
L112429 4562
L112526 4562
L112575 4537
L112599 4513
L112624 4464
L112624 4342
L112599 4294
L112575 4269
L112526 4245
L112429 4245
L112380 4269
L112356 4294
L112331 4342
" />
<path d="M23622 77955
L23622 78742
" />
<path d="M43307 77955
L43307 78742
" />
<path d="M62992 77955
L62992 78742
" />
<path d="M82677 77955
L82677 78742
" />
<path d="M102362 77955
L102362 78742
" />
<path d="M14199 78580
L13906 78580
" />
<path d="M14052 78580
L14052 78069
L14004 78142
L13955 78190
L13906 78215
" />
<path d="M33591 78117
L33615 78093
L33664 78069
L33786 78069
L33835 78093
L33859 78117
L33884 78166
L33884 78215
L33859 78288
L33567 78580
L33884 78580
" />
<path d="M53252 78069
L53569 78069
L53398 78263
L53471 78263
L53520 78288
L53544 78312
L53569 78361
L53569 78483
L53544 78532
L53520 78556
L53471 78580
L53325 78580
L53276 78556
L53252 78532
" />
<path d="M73205 78239
L73205 78580
" />
<path d="M73083 78044
L72961 78410
L73278 78410
" />
<path d="M92914 78069
L92671 78069
L92646 78312
L92671 78288
L92719 78263
L92841 78263
L92890 78288
L92914 78312
L92939 78361
L92939 78483
L92914 78532
L92890 78556
L92841 78580
L92719 78580
L92671 78556
L92646 78532
" />
<path d="M112575 78069
L112477 78069
L112429 78093
L112404 78117
L112356 78190
L112331 78288
L112331 78483
L112356 78532
L112380 78556
L112429 78580
L112526 78580
L112575 78556
L112599 78532
L112624 78483
L112624 78361
L112599 78312
L112575 78288
L112526 78263
L112429 78263
L112380 78288
L112356 78312
L112331 78361
" />
<path d="M3937 23622
L4724 23622
" />
<path d="M3937 43307
L4724 43307
" />
<path d="M3937 62992
L4724 62992
" />
<path d="M4208 13864
L4452 13864
" />
<path d="M4160 14011
L4330 13499
L4501 14011
" />
<path d="M4367 33428
L4440 33452
L4464 33476
L4489 33525
L4489 33598
L4464 33647
L4440 33671
L4391 33696
L4196 33696
L4196 33184
L4367 33184
L4416 33208
L4440 33233
L4464 33281
L4464 33330
L4440 33379
L4416 33403
L4367 33428
L4196 33428
" />
<path d="M4489 53332
L4464 53356
L4391 53381
L4342 53381
L4269 53356
L4221 53308
L4196 53259
L4172 53161
L4172 53088
L4196 52991
L4221 52942
L4269 52893
L4342 52869
L4391 52869
L4464 52893
L4489 52918
" />
<path d="M4196 73066
L4196 72554
L4318 72554
L4391 72578
L4440 72627
L4464 72676
L4489 72773
L4489 72846
L4464 72944
L4440 72993
L4391 73041
L4318 73066
L4196 73066
" />
<path d="M112992 23622
L112205 23622
" />
<path d="M112992 43307
L112205 43307
" />
<path d="M112992 62992
L112205 62992
" />
<path d="M112477 13864
L112721 13864
" />
<path d="M112428 14011
L112599 13499
L112769 14011
" />
<path d="M112635 33428
L112708 33452
L112733 33476
L112757 33525
L112757 33598
L112733 33647
L112708 33671
L112660 33696
L112465 33696
L112465 33184
L112635 33184
L112684 33208
L112708 33233
L112733 33281
L112733 33330
L112708 33379
L112684 33403
L112635 33428
L112465 33428
" />
<path d="M112757 53332
L112733 53356
L112660 53381
L112611 53381
L112538 53356
L112489 53308
L112465 53259
L112440 53161
L112440 53088
L112465 52991
L112489 52942
L112538 52893
L112611 52869
L112660 52869
L112733 52893
L112757 52918
" />
<path d="M112465 73066
L112465 72554
L112587 72554
L112660 72578
L112708 72627
L112733 72676
L112757 72773
L112757 72846
L112733 72944
L112708 72993
L112660 73041
L112587 73066
L112465 73066
" />
<path d="M78911 76293
L78911 75703
L79051 75703
L79136 75731
L79192 75787
L79220 75843
L79248 75956
L79248 76040
L79220 76153
L79192 76209
L79136 76265
L79051 76293
L78911 76293
" />
<path d="M79754 76293
L79754 75984
L79726 75928
L79670 75899
L79557 75899
L79501 75928
" />
<path d="M79754 76265
L79698 76293
L79557 76293
L79501 76265
L79473 76209
L79473 76153
L79501 76096
L79557 76068
L79698 76068
L79754 76040
" />
<path d="M79951 75899
L80176 75899
" />
<path d="M80036 75703
L80036 76209
L80064 76265
L80120 76293
L80176 76293
" />
<path d="M80598 76265
L80542 76293
L80429 76293
L80373 76265
L80345 76209
L80345 75984
L80373 75928
L80429 75899
L80542 75899
L80598 75928
L80626 75984
L80626 76040
L80345 76096
" />
<path d="M80879 76237
L80907 76265
L80879 76293
L80851 76265
L80879 76237
L80879 76293
" />
<path d="M80879 75928
L80907 75956
L80879 75984
L80851 75956
L80879 75928
L80879 75984
" />
<path d="M81582 75759
L81610 75731
L81667 75703
L81807 75703
L81863 75731
L81892 75759
L81920 75815
L81920 75871
L81892 75956
L81554 76293
L81920 76293
" />
<path d="M82285 75703
L82341 75703
L82398 75731
L82426 75759
L82454 75815
L82482 75928
L82482 76068
L82454 76181
L82426 76237
L82398 76265
L82341 76293
L82285 76293
L82229 76265
L82201 76237
L82173 76181
L82145 76068
L82145 75928
L82173 75815
L82201 75759
L82229 75731
L82285 75703
" />
<path d="M83045 76293
L82707 76293
" />
<path d="M82876 76293
L82876 75703
L82820 75787
L82763 75843
L82707 75871
" />
<path d="M83326 76293
L83438 76293
L83494 76265
L83523 76237
L83579 76153
L83607 76040
L83607 75815
L83579 75759
L83551 75731
L83494 75703
L83382 75703
L83326 75731
L83298 75759
L83269 75815
L83269 75956
L83298 76012
L83326 76040
L83382 76068
L83494 76068
L83551 76040
L83579 76012
L83607 75956
" />
<path d="M83860 76068
L84310 76068
" />
<path d="M84704 75703
L84760 75703
L84816 75731
L84844 75759
L84872 75815
L84901 75928
L84901 76068
L84872 76181
L84844 76237
L84816 76265
L84760 76293
L84704 76293
L84647 76265
L84619 76237
L84591 76181
L84563 76068
L84563 75928
L84591 75815
L84619 75759
L84647 75731
L84704 75703
" />
<path d="M85407 75899
L85407 76293
" />
<path d="M85266 75674
L85126 76096
L85491 76096
" />
<path d="M85716 76068
L86166 76068
" />
<path d="M86560 75703
L86616 75703
L86672 75731
L86700 75759
L86728 75815
L86757 75928
L86757 76068
L86728 76181
L86700 76237
L86672 76265
L86616 76293
L86560 76293
L86503 76265
L86475 76237
L86447 76181
L86419 76068
L86419 75928
L86447 75815
L86475 75759
L86503 75731
L86560 75703
" />
<path d="M86982 75759
L87010 75731
L87066 75703
L87206 75703
L87263 75731
L87291 75759
L87319 75815
L87319 75871
L87291 75956
L86953 76293
L87319 76293
" />
<path d="M69685 76577
L112205 76577
" />
<path d="M70249 77395
L70249 76805
" />
<path d="M70587 77395
L70334 77058
" />
<path d="M70587 76805
L70249 77142
" />
<path d="M70840 77395
L70840 77002
" />
<path d="M70840 76805
L70812 76833
L70840 76861
L70868 76833
L70840 76805
L70840 76861
" />
<path d="M71458 77339
L71430 77367
L71346 77395
L71290 77395
L71205 77367
L71149 77311
L71121 77255
L71093 77142
L71093 77058
L71121 76946
L71149 76889
L71205 76833
L71290 76805
L71346 76805
L71430 76833
L71458 76861
" />
<path d="M71965 77395
L71965 77086
L71937 77030
L71880 77002
L71768 77002
L71712 77030
" />
<path d="M71965 77367
L71908 77395
L71768 77395
L71712 77367
L71683 77311
L71683 77255
L71712 77199
L71768 77171
L71908 77171
L71965 77142
" />
<path d="M72499 77395
L72499 76805
" />
<path d="M72499 77367
L72443 77395
L72330 77395
L72274 77367
L72246 77339
L72218 77283
L72218 77114
L72246 77058
L72274 77030
L72330 77002
L72443 77002
L72499 77030
" />
<path d="M73230 77086
L73427 77086
" />
<path d="M73511 77395
L73230 77395
L73230 76805
L73511 76805
" />
<path d="M73764 77339
L73793 77367
L73764 77395
L73736 77367
L73764 77339
L73764 77395
" />
<path d="M74046 77395
L74046 76805
L74186 76805
L74271 76833
L74327 76889
L74355 76946
L74383 77058
L74383 77142
L74355 77255
L74327 77311
L74271 77367
L74186 77395
L74046 77395
" />
<path d="M74636 77339
L74664 77367
L74636 77395
L74608 77367
L74636 77339
L74636 77395
" />
<path d="M74889 77227
L75171 77227
" />
<path d="M74833 77395
L75030 76805
L75227 77395
" />
<path d="M75424 77339
L75452 77367
L75424 77395
L75395 77367
L75424 77339
L75424 77395
" />
<path d="M76605 77395
L76605 76805
" />
<path d="M76661 77171
L76830 77395
" />
<path d="M76830 77002
L76605 77227
" />
<path d="M77083 77395
L77083 77002
" />
<path d="M77083 76805
L77055 76833
L77083 76861
L77111 76833
L77083 76805
L77083 76861
" />
<path d="M77617 77367
L77561 77395
L77448 77395
L77392 77367
L77364 77339
L77336 77283
L77336 77114
L77364 77058
L77392 77030
L77448 77002
L77561 77002
L77617 77030
" />
<path d="M78123 77395
L78123 77086
L78095 77030
L78039 77002
L77926 77002
L77870 77030
" />
<path d="M78123 77367
L78067 77395
L77926 77395
L77870 77367
L77842 77311
L77842 77255
L77870 77199
L77926 77171
L78067 77171
L78123 77142
" />
<path d="M78658 77395
L78658 76805
" />
<path d="M78658 77367
L78601 77395
L78489 77395
L78433 77367
L78404 77339
L78376 77283
L78376 77114
L78404 77058
L78433 77030
L78489 77002
L78601 77002
L78658 77030
" />
<path d="M79557 77620
L79529 77592
L79473 77508
L79445 77452
L79417 77367
L79389 77227
L79389 77114
L79417 76974
L79445 76889
L79473 76833
L79529 76749
L79557 76721
" />
<path d="M80064 76805
L79782 76805
L79754 77086
L79782 77058
L79839 77030
L79979 77030
L80036 77058
L80064 77086
L80092 77142
L80092 77283
L80064 77339
L80036 77367
L79979 77395
L79839 77395
L79782 77367
L79754 77339
" />
<path d="M80345 77339
L80373 77367
L80345 77395
L80317 77367
L80345 77339
L80345 77395
" />
<path d="M80935 77395
L80598 77395
" />
<path d="M80767 77395
L80767 76805
L80710 76889
L80654 76946
L80598 76974
" />
<path d="M81188 77339
L81217 77367
L81188 77395
L81160 77367
L81188 77339
L81188 77395
" />
<path d="M81582 76805
L81638 76805
L81695 76833
L81723 76861
L81751 76917
L81779 77030
L81779 77171
L81751 77283
L81723 77339
L81695 77367
L81638 77395
L81582 77395
L81526 77367
L81498 77339
L81470 77283
L81442 77171
L81442 77030
L81470 76917
L81498 76861
L81526 76833
L81582 76805
" />
<path d="M81976 77620
L82004 77592
L82060 77508
L82088 77452
L82117 77367
L82145 77227
L82145 77114
L82117 76974
L82088 76889
L82060 76833
L82004 76749
L81976 76721
" />
<path d="M82426 77171
L82876 77171
" />
<path d="M83466 77395
L83129 77395
" />
<path d="M83298 77395
L83298 76805
L83241 76889
L83185 76946
L83129 76974
" />
<path d="M69685 75396
L112205 75396
" />
</g>
<g style="fill:#000000; fill-opacity:0.0; 
stroke:#000000; stroke-width:118.11; stroke-opacity:1; 
stroke-linecap:round; stroke-linejoin:round;">
<path d="M104099 76293
L103902 76012
" />
<path d="M103761 76293
L103761 75703
L103986 75703
L104042 75731
L104070 75759
L104099 75815
L104099 75899
L104070 75956
L104042 75984
L103986 76012
L103761 76012
" />
<path d="M104577 76265
L104520 76293
L104408 76293
L104352 76265
L104323 76209
L104323 75984
L104352 75928
L104408 75899
L104520 75899
L104577 75928
L104605 75984
L104605 76040
L104323 76096
" />
<path d="M104802 75899
L104942 76293
L105083 75899
" />
<path d="M105308 76237
L105336 76265
L105308 76293
L105280 76265
L105308 76237
L105308 76293
" />
<path d="M105308 75928
L105336 75956
L105308 75984
L105280 75956
L105308 75928
L105308 75984
" />
<path d="M106348 76293
L106011 76293
" />
<path d="M106180 76293
L106180 75703
L106123 75787
L106067 75843
L106011 75871
" />
<path d="M106601 76237
L106629 76265
L106601 76293
L106573 76265
L106601 76237
L106601 76293
" />
<path d="M107192 76293
L106854 76293
" />
<path d="M107023 76293
L107023 75703
L106967 75787
L106911 75843
L106854 75871
" />
</g>
<g style="fill:#000000; fill-opacity:0.0; 
stroke:#000000; stroke-width:59.0551; stroke-opacity:1; 
stroke-linecap:round; stroke-linejoin:round;">
<path d="M70221 76265
L70305 76293
L70446 76293
L70502 76265
L70530 76237
L70559 76181
L70559 76124
L70530 76068
L70502 76040
L70446 76012
L70334 75984
L70277 75956
L70249 75928
L70221 75871
L70221 75815
L70249 75759
L70277 75731
L70334 75703
L70474 75703
L70559 75731
" />
<path d="M70812 76293
L70812 75899
" />
<path d="M70812 75703
L70784 75731
L70812 75759
L70840 75731
L70812 75703
L70812 75759
" />
<path d="M71037 75899
L71346 75899
L71037 76293
L71346 76293
" />
<path d="M71796 76265
L71740 76293
L71627 76293
L71571 76265
L71543 76209
L71543 75984
L71571 75928
L71627 75899
L71740 75899
L71796 75928
L71824 75984
L71824 76040
L71543 76096
" />
<path d="M72077 76237
L72105 76265
L72077 76293
L72049 76265
L72077 76237
L72077 76293
" />
<path d="M72077 75928
L72105 75956
L72077 75984
L72049 75956
L72077 75928
L72077 75984
" />
<path d="M72780 76124
L73061 76124
" />
<path d="M72724 76293
L72921 75703
L73118 76293
" />
<path d="M73568 75899
L73568 76293
" />
<path d="M73427 75674
L73286 76096
L73652 76096
" />
<path d="M103714 77395
L103714 76805
" />
<path d="M104248 77395
L104248 76805
" />
<path d="M104248 77367
L104192 77395
L104079 77395
L104023 77367
L103995 77339
L103967 77283
L103967 77114
L103995 77058
L104023 77030
L104079 77002
L104192 77002
L104248 77030
" />
<path d="M104529 77339
L104557 77367
L104529 77395
L104501 77367
L104529 77339
L104529 77395
" />
<path d="M104529 77030
L104557 77058
L104529 77086
L104501 77058
L104529 77030
L104529 77086
" />
<path d="M105570 77395
L105232 77395
" />
<path d="M105401 77395
L105401 76805
L105345 76889
L105289 76946
L105232 76974
" />
<path d="M106245 76777
L105739 77536
" />
<path d="M106751 77395
L106413 77395
" />
<path d="M106582 77395
L106582 76805
L106526 76889
L106470 76946
L106413 76974
" />
<path d="M69685 73821
L112205 73821
" />
</g>
<g style="fill:#000000; fill-opacity:0.0; 
stroke:#000000; stroke-width:157.48; stroke-opacity:1; 
stroke-linecap:round; stroke-linejoin:round;">
<path d="M70360 74099
L70810 74099
" />
<path d="M70486 74886
L70585 74099
" />
<path d="M70974 74886
L71039 74361
" />
<path d="M71072 74099
L71030 74136
L71063 74174
L71105 74136
L71072 74099
L71063 74174
" />
<path d="M71302 74361
L71602 74361
" />
<path d="M71447 74099
L71363 74774
L71391 74849
L71461 74886
L71536 74886
" />
<path d="M71911 74886
L71841 74849
L71813 74774
L71897 74099
" />
<path d="M72516 74849
L72436 74886
L72286 74886
L72216 74849
L72187 74774
L72225 74474
L72272 74399
L72352 74361
L72501 74361
L72572 74399
L72600 74474
L72591 74549
L72206 74624
" />
<path d="M72895 74811
L72928 74849
L72886 74886
L72853 74849
L72895 74811
L72886 74886
" />
<path d="M72947 74399
L72980 74436
L72937 74474
L72905 74436
L72947 74399
L72937 74474
" />
<path d="M74264 74361
L74198 74886
" />
<path d="M73926 74361
L73875 74774
L73903 74849
L73973 74886
L74086 74886
L74165 74849
L74208 74811
" />
<path d="M74573 74886
L74672 74099
L74859 74099
L74967 74136
L75032 74211
L75061 74286
L75079 74436
L75065 74549
L75009 74699
L74962 74774
L74878 74849
L74761 74886
L74573 74886
" />
<path d="M75328 74849
L75435 74886
L75623 74886
L75703 74849
L75745 74811
L75792 74736
L75801 74661
L75773 74586
L75740 74549
L75670 74511
L75525 74474
L75454 74436
L75421 74399
L75393 74324
L75403 74249
L75450 74174
L75492 74136
L75571 74099
L75759 74099
L75867 74136
" />
<path d="M76110 74886
L76209 74099
L76509 74099
L76579 74136
L76612 74174
L76640 74249
L76626 74361
L76579 74436
L76537 74474
L76457 74511
L76157 74511
" />
</g>
<g style="fill:#000000; fill-opacity:0.0; 
stroke:#000000; stroke-width:59.0551; stroke-opacity:1; 
stroke-linecap:round; stroke-linejoin:round;">
<path d="M70446 73070
L70249 73070
" />
<path d="M70249 73380
L70249 72789
L70530 72789
" />
<path d="M70755 73380
L70755 72986
" />
<path d="M70755 72789
L70727 72817
L70755 72845
L70784 72817
L70755 72789
L70755 72845
" />
<path d="M71121 73380
L71065 73352
L71037 73295
L71037 72789
" />
<path d="M71571 73352
L71515 73380
L71402 73380
L71346 73352
L71318 73295
L71318 73070
L71346 73014
L71402 72986
L71515 72986
L71571 73014
L71599 73070
L71599 73127
L71318 73183
" />
<path d="M71852 73323
L71880 73352
L71852 73380
L71824 73352
L71852 73323
L71852 73380
" />
<path d="M71852 73014
L71880 73042
L71852 73070
L71824 73042
L71852 73014
L71852 73070
" />
<path d="M72836 72986
L72836 73380
" />
<path d="M72583 72986
L72583 73295
L72611 73352
L72668 73380
L72752 73380
L72808 73352
L72836 73323
" />
<path d="M73118 73380
L73118 72789
L73258 72789
L73343 72817
L73399 72874
L73427 72930
L73455 73042
L73455 73127
L73427 73239
L73399 73295
L73343 73352
L73258 73380
L73118 73380
" />
<path d="M73680 73352
L73764 73380
L73905 73380
L73961 73352
L73989 73323
L74018 73267
L74018 73211
L73989 73155
L73961 73127
L73905 73099
L73793 73070
L73736 73042
L73708 73014
L73680 72958
L73680 72902
L73708 72845
L73736 72817
L73793 72789
L73933 72789
L74018 72817
" />
<path d="M74271 73380
L74271 72789
L74496 72789
L74552 72817
L74580 72845
L74608 72902
L74608 72986
L74580 73042
L74552 73070
L74496 73099
L74271 73099
" />
<path d="M74861 73155
L75311 73155
" />
<path d="M75902 73380
L75564 73380
" />
<path d="M75733 73380
L75733 72789
L75677 72874
L75620 72930
L75564 72958
" />
<path d="M76155 73323
L76183 73352
L76155 73380
L76127 73352
L76155 73323
L76155 73380
" />
<path d="M76745 73380
L76408 73380
" />
<path d="M76577 73380
L76577 72789
L76520 72874
L76464 72930
L76408 72958
" />
<path d="M76998 73323
L77027 73352
L76998 73380
L76970 73352
L76998 73323
L76998 73380
" />
<path d="M77280 73380
L77280 72789
" />
<path d="M77336 73155
L77505 73380
" />
<path d="M77505 72986
L77280 73211
" />
<path d="M77758 73380
L77758 72986
" />
<path d="M77758 72789
L77730 72817
L77758 72845
L77786 72817
L77758 72789
L77758 72845
" />
<path d="M78292 73352
L78236 73380
L78123 73380
L78067 73352
L78039 73323
L78011 73267
L78011 73099
L78039 73042
L78067 73014
L78123 72986
L78236 72986
L78292 73014
" />
<path d="M78798 73380
L78798 73070
L78770 73014
L78714 72986
L78601 72986
L78545 73014
" />
<path d="M78798 73352
L78742 73380
L78601 73380
L78545 73352
L78517 73295
L78517 73239
L78545 73183
L78601 73155
L78742 73155
L78798 73127
" />
<path d="M79332 73380
L79332 72789
" />
<path d="M79332 73352
L79276 73380
L79164 73380
L79108 73352
L79079 73323
L79051 73267
L79051 73099
L79079 73042
L79108 73014
L79164 72986
L79276 72986
L79332 73014
" />
<path d="M79473 73436
L79923 73436
" />
<path d="M80064 72986
L80064 73577
" />
<path d="M80064 73014
L80120 72986
L80232 72986
L80289 73014
L80317 73042
L80345 73099
L80345 73267
L80317 73323
L80289 73352
L80232 73380
L80120 73380
L80064 73352
" />
<path d="M80851 73352
L80795 73380
L80682 73380
L80626 73352
L80598 73323
L80570 73267
L80570 73099
L80598 73042
L80626 73014
L80682 72986
L80795 72986
L80851 73014
" />
<path d="M81104 73380
L81104 72789
" />
<path d="M81104 73014
L81160 72986
L81273 72986
L81329 73014
L81357 73042
L81385 73099
L81385 73267
L81357 73323
L81329 73352
L81273 73380
L81160 73380
L81104 73352
" />
<path d="M69685 71459
L112205 71459
" />
<path d="M70221 72289
L70305 72317
L70446 72317
L70502 72289
L70530 72260
L70559 72204
L70559 72148
L70530 72092
L70502 72064
L70446 72036
L70334 72007
L70277 71979
L70249 71951
L70221 71895
L70221 71839
L70249 71782
L70277 71754
L70334 71726
L70474 71726
L70559 71754
" />
<path d="M70812 72317
L70812 71726
" />
<path d="M71065 72317
L71065 72007
L71037 71951
L70980 71923
L70896 71923
L70840 71951
L70812 71979
" />
<path d="M71571 72289
L71515 72317
L71402 72317
L71346 72289
L71318 72232
L71318 72007
L71346 71951
L71402 71923
L71515 71923
L71571 71951
L71599 72007
L71599 72064
L71318 72120
" />
<path d="M72077 72289
L72021 72317
L71908 72317
L71852 72289
L71824 72232
L71824 72007
L71852 71951
L71908 71923
L72021 71923
L72077 71951
L72105 72007
L72105 72064
L71824 72120
" />
<path d="M72274 71923
L72499 71923
" />
<path d="M72358 71726
L72358 72232
L72386 72289
L72443 72317
L72499 72317
" />
<path d="M72696 72260
L72724 72289
L72696 72317
L72668 72289
L72696 72260
L72696 72317
" />
<path d="M72696 71951
L72724 71979
L72696 72007
L72668 71979
L72696 71951
L72696 72007
" />
</g>
<g style="fill:#000000; fill-opacity:0.0; 
stroke:#000000; stroke-width:118.11; stroke-opacity:1; 
stroke-linecap:round; stroke-linejoin:round;">
<path d="M70409 70545
L70521 70545
L70578 70573
L70634 70629
L70662 70742
L70662 70939
L70634 71051
L70578 71108
L70521 71136
L70409 71136
L70353 71108
L70296 71051
L70268 70939
L70268 70742
L70296 70629
L70353 70573
L70409 70545
" />
<path d="M70915 70742
L70915 71332
" />
<path d="M70915 70770
L70971 70742
L71084 70742
L71140 70770
L71168 70798
L71196 70854
L71196 71023
L71168 71079
L71140 71108
L71084 71136
L70971 71136
L70915 71108
" />
<path d="M71674 71108
L71618 71136
L71506 71136
L71449 71108
L71421 71051
L71421 70826
L71449 70770
L71506 70742
L71618 70742
L71674 70770
L71703 70826
L71703 70883
L71421 70939
" />
<path d="M71956 70742
L71956 71136
" />
<path d="M71956 70798
L71984 70770
L72040 70742
L72124 70742
L72181 70770
L72209 70826
L72209 71136
" />
<path d="M72940 71136
L72940 70545
" />
<path d="M72940 70826
L73277 70826
" />
<path d="M73277 71136
L73277 70545
" />
<path d="M73812 71136
L73812 70826
L73784 70770
L73727 70742
L73615 70742
L73559 70770
" />
<path d="M73812 71108
L73755 71136
L73615 71136
L73559 71108
L73530 71051
L73530 70995
L73559 70939
L73615 70911
L73755 70911
L73812 70883
" />
<path d="M74093 71136
L74093 70742
" />
<path d="M74093 70854
L74121 70798
L74149 70770
L74205 70742
L74262 70742
" />
<path d="M74712 71136
L74712 70545
" />
<path d="M74712 71108
L74655 71136
L74543 71136
L74487 71108
L74458 71079
L74430 71023
L74430 70854
L74458 70798
L74487 70770
L74543 70742
L74655 70742
L74712 70770
" />
<path d="M74937 70742
L75049 71136
L75162 70854
L75274 71136
L75386 70742
" />
<path d="M75865 71136
L75865 70826
L75836 70770
L75780 70742
L75668 70742
L75611 70770
" />
<path d="M75865 71108
L75808 71136
L75668 71136
L75611 71108
L75583 71051
L75583 70995
L75611 70939
L75668 70911
L75808 70911
L75865 70883
" />
<path d="M76146 71136
L76146 70742
" />
<path d="M76146 70854
L76174 70798
L76202 70770
L76258 70742
L76314 70742
" />
<path d="M76736 71108
L76680 71136
L76568 71136
L76511 71108
L76483 71051
L76483 70826
L76511 70770
L76568 70742
L76680 70742
L76736 70770
L76764 70826
L76764 70883
L76483 70939
" />
<path d="M77467 71136
L77467 70545
L77608 70545
L77692 70573
L77749 70629
L77777 70686
L77805 70798
L77805 70883
L77777 70995
L77749 71051
L77692 71108
L77608 71136
L77467 71136
" />
<path d="M78030 71108
L78114 71136
L78255 71136
L78311 71108
L78339 71079
L78367 71023
L78367 70967
L78339 70911
L78311 70883
L78255 70854
L78142 70826
L78086 70798
L78058 70770
L78030 70714
L78030 70658
L78058 70601
L78086 70573
L78142 70545
L78283 70545
L78367 70573
" />
<path d="M78620 71136
L78620 70545
L78845 70545
L78902 70573
L78930 70601
L78958 70658
L78958 70742
L78930 70798
L78902 70826
L78845 70854
L78620 70854
" />
<path d="M79661 71136
L79661 70545
L79886 70545
L79942 70573
L79970 70601
L79998 70658
L79998 70742
L79970 70798
L79942 70826
L79886 70854
L79661 70854
" />
<path d="M80336 71136
L80280 71108
L80251 71051
L80251 70545
" />
<path d="M80814 71136
L80814 70826
L80786 70770
L80730 70742
L80617 70742
L80561 70770
" />
<path d="M80814 71108
L80758 71136
L80617 71136
L80561 71108
L80533 71051
L80533 70995
L80561 70939
L80617 70911
L80758 70911
L80814 70883
" />
<path d="M81011 70742
L81236 70742
" />
<path d="M81095 70545
L81095 71051
L81123 71108
L81180 71136
L81236 71136
" />
<path d="M81348 70742
L81573 70742
" />
<path d="M81433 71136
L81433 70629
L81461 70573
L81517 70545
L81573 70545
" />
<path d="M81854 71136
L81798 71108
L81770 71079
L81742 71023
L81742 70854
L81770 70798
L81798 70770
L81854 70742
L81939 70742
L81995 70770
L82023 70798
L82051 70854
L82051 71023
L82023 71079
L81995 71108
L81939 71136
L81854 71136
" />
<path d="M82304 71136
L82304 70742
" />
<path d="M82304 70854
L82332 70798
L82361 70770
L82417 70742
L82473 70742
" />
<path d="M82670 71136
L82670 70742
" />
<path d="M82670 70798
L82698 70770
L82754 70742
L82839 70742
L82895 70770
L82923 70826
L82923 71136
" />
<path d="M82923 70826
L82951 70770
L83007 70742
L83092 70742
L83148 70770
L83176 70826
L83176 71136
" />
<path d="M83907 70911
L84357 70911
" />
<path d="M85032 70742
L85145 71136
L85257 70854
L85370 71136
L85482 70742
" />
<path d="M85651 70742
L85763 71136
L85876 70854
L85988 71136
L86101 70742
" />
<path d="M86269 70742
L86382 71136
L86494 70854
L86607 71136
L86719 70742
" />
<path d="M86944 71079
L86973 71108
L86944 71136
L86916 71108
L86944 71079
L86944 71136
" />
<path d="M87310 71136
L87254 71108
L87226 71079
L87197 71023
L87197 70854
L87226 70798
L87254 70770
L87310 70742
L87394 70742
L87451 70770
L87479 70798
L87507 70854
L87507 71023
L87479 71079
L87451 71108
L87394 71136
L87310 71136
" />
<path d="M87760 71136
L87760 70545
" />
<path d="M88013 71136
L88013 70826
L87985 70770
L87929 70742
L87844 70742
L87788 70770
L87760 70798
" />
<path d="M88547 71136
L88547 70545
" />
<path d="M88547 71108
L88491 71136
L88379 71136
L88322 71108
L88294 71079
L88266 71023
L88266 70854
L88294 70798
L88322 70770
L88379 70742
L88491 70742
L88547 70770
" />
<path d="M88800 71108
L88857 71136
L88969 71136
L89025 71108
L89054 71051
L89054 71023
L89025 70967
L88969 70939
L88885 70939
L88829 70911
L88800 70854
L88800 70826
L88829 70770
L88885 70742
L88969 70742
L89025 70770
" />
<path d="M89307 70742
L89307 71332
" />
<path d="M89307 70770
L89363 70742
L89475 70742
L89532 70770
L89560 70798
L89588 70854
L89588 71023
L89560 71079
L89532 71108
L89475 71136
L89363 71136
L89307 71108
" />
<path d="M89841 71079
L89869 71108
L89841 71136
L89813 71108
L89841 71079
L89841 71136
" />
<path d="M90206 71136
L90150 71108
L90122 71079
L90094 71023
L90094 70854
L90122 70798
L90150 70770
L90206 70742
L90291 70742
L90347 70770
L90375 70798
L90403 70854
L90403 71023
L90375 71079
L90347 71108
L90291 71136
L90206 71136
" />
<path d="M90656 71136
L90656 70742
" />
<path d="M90656 70854
L90685 70798
L90713 70770
L90769 70742
L90825 70742
" />
<path d="M91275 70742
L91275 71220
L91247 71276
L91219 71304
L91163 71332
L91078 71332
L91022 71304
" />
<path d="M91275 71108
L91219 71136
L91106 71136
L91050 71108
L91022 71079
L90994 71023
L90994 70854
L91022 70798
L91050 70770
L91106 70742
L91219 70742
L91275 70770
" />
</g>
<g style="fill:#000000; fill-opacity:0.0; 
stroke:#000000; stroke-width:59.0551; stroke-opacity:1; 
stroke-linecap:round; stroke-linejoin:round;">
<path d="M70249 69955
L70249 69364
L70446 69786
L70643 69364
L70643 69955
" />
<path d="M70924 69645
L71121 69645
" />
<path d="M71205 69955
L70924 69955
L70924 69364
L71205 69364
" />
<path d="M71796 69955
L71599 69673
" />
<path d="M71458 69955
L71458 69364
L71683 69364
L71740 69392
L71768 69420
L71796 69476
L71796 69561
L71768 69617
L71740 69645
L71683 69673
L71458 69673
" />
<path d="M72386 69898
L72358 69926
L72274 69955
L72218 69955
L72133 69926
L72077 69870
L72049 69814
L72021 69701
L72021 69617
L72049 69505
L72077 69448
L72133 69392
L72218 69364
L72274 69364
L72358 69392
L72386 69420
" />
<path d="M72640 69955
L72640 69364
" />
<path d="M72640 69645
L72977 69645
" />
<path d="M72977 69955
L72977 69364
" />
<path d="M73230 69786
L73511 69786
" />
<path d="M73174 69955
L73371 69364
L73568 69955
" />
<path d="M73764 69955
L73764 69364
L74102 69955
L74102 69364
" />
<path d="M74299 69364
L74636 69364
" />
<path d="M74467 69955
L74467 69364
" />
<path d="M74805 69786
L75086 69786
" />
<path d="M74749 69955
L74946 69364
L75142 69955
" />
<path d="M75536 69645
L75620 69673
L75649 69701
L75677 69758
L75677 69842
L75649 69898
L75620 69926
L75564 69955
L75339 69955
L75339 69364
L75536 69364
L75592 69392
L75620 69420
L75649 69476
L75649 69533
L75620 69589
L75592 69617
L75536 69645
L75339 69645
" />
<path d="M75930 69955
L75930 69364
" />
<path d="M76492 69955
L76211 69955
L76211 69364
" />
<path d="M76689 69955
L76689 69364
" />
<path d="M76886 69364
L77223 69364
" />
<path d="M77055 69955
L77055 69364
" />
<path d="M77533 69673
L77533 69955
" />
<path d="M77336 69364
L77533 69673
L77730 69364
" />
<path d="M77955 69926
L77955 69955
L77926 70011
L77898 70039
" />
<path d="M78629 69926
L78714 69955
L78854 69955
L78911 69926
L78939 69898
L78967 69842
L78967 69786
L78939 69730
L78911 69701
L78854 69673
L78742 69645
L78686 69617
L78658 69589
L78629 69533
L78629 69476
L78658 69420
L78686 69392
L78742 69364
L78883 69364
L78967 69392
" />
<path d="M79192 69786
L79473 69786
" />
<path d="M79136 69955
L79332 69364
L79529 69955
" />
<path d="M79642 69364
L79979 69364
" />
<path d="M79811 69955
L79811 69364
" />
<path d="M80176 69955
L80176 69364
" />
<path d="M80429 69926
L80514 69955
L80654 69955
L80710 69926
L80739 69898
L80767 69842
L80767 69786
L80739 69730
L80710 69701
L80654 69673
L80542 69645
L80485 69617
L80457 69589
L80429 69533
L80429 69476
L80457 69420
L80485 69392
L80542 69364
L80682 69364
L80767 69392
" />
<path d="M81217 69645
L81020 69645
" />
<path d="M81020 69955
L81020 69364
L81301 69364
" />
<path d="M81498 69786
L81779 69786
" />
<path d="M81442 69955
L81638 69364
L81835 69955
" />
<path d="M82370 69898
L82341 69926
L82257 69955
L82201 69955
L82117 69926
L82060 69870
L82032 69814
L82004 69701
L82004 69617
L82032 69505
L82060 69448
L82117 69392
L82201 69364
L82257 69364
L82341 69392
L82370 69420
" />
<path d="M82538 69364
L82876 69364
" />
<path d="M82707 69955
L82707 69364
" />
<path d="M83185 69364
L83298 69364
L83354 69392
L83410 69448
L83438 69561
L83438 69758
L83410 69870
L83354 69926
L83298 69955
L83185 69955
L83129 69926
L83073 69870
L83045 69758
L83045 69561
L83073 69448
L83129 69392
L83185 69364
" />
<path d="M84029 69955
L83832 69673
" />
<path d="M83691 69955
L83691 69364
L83916 69364
L83973 69392
L84001 69420
L84029 69476
L84029 69561
L84001 69617
L83973 69645
L83916 69673
L83691 69673
" />
<path d="M84394 69673
L84394 69955
" />
<path d="M84197 69364
L84394 69673
L84591 69364
" />
<path d="M85632 70011
L85575 69983
L85519 69926
L85435 69842
L85379 69814
L85322 69814
" />
<path d="M85350 69955
L85294 69926
L85238 69870
L85210 69758
L85210 69561
L85238 69448
L85294 69392
L85350 69364
L85463 69364
L85519 69392
L85575 69448
L85604 69561
L85604 69758
L85575 69870
L85519 69926
L85463 69955
L85350 69955
" />
<path d="M85857 69364
L85857 69842
L85885 69898
L85913 69926
L85969 69955
L86082 69955
L86138 69926
L86166 69898
L86194 69842
L86194 69364
" />
<path d="M86447 69786
L86728 69786
" />
<path d="M86391 69955
L86588 69364
L86785 69955
" />
<path d="M87263 69955
L86982 69955
L86982 69364
" />
<path d="M87460 69955
L87460 69364
" />
<path d="M87656 69364
L87994 69364
" />
<path d="M87825 69955
L87825 69364
" />
<path d="M88303 69673
L88303 69955
" />
<path d="M88106 69364
L88303 69673
L88500 69364
" />
<path d="M89119 69786
L89400 69786
" />
<path d="M89063 69955
L89259 69364
L89456 69955
" />
<path d="M89653 69955
L89653 69364
L89991 69955
L89991 69364
" />
<path d="M90272 69955
L90272 69364
L90412 69364
L90497 69392
L90553 69448
L90581 69505
L90609 69617
L90609 69701
L90581 69814
L90553 69870
L90497 69926
L90412 69955
L90272 69955
" />
<path d="M91509 69645
L91312 69645
" />
<path d="M91312 69955
L91312 69364
L91593 69364
" />
<path d="M91818 69955
L91818 69364
" />
<path d="M92015 69364
L92353 69364
" />
<path d="M92184 69955
L92184 69364
" />
<path d="M92550 69955
L92550 69364
L92887 69955
L92887 69364
" />
<path d="M93168 69645
L93365 69645
" />
<path d="M93449 69955
L93168 69955
L93168 69364
L93449 69364
" />
<path d="M93674 69926
L93759 69955
L93899 69955
L93956 69926
L93984 69898
L94012 69842
L94012 69786
L93984 69730
L93956 69701
L93899 69673
L93787 69645
L93731 69617
L93703 69589
L93674 69533
L93674 69476
L93703 69420
L93731 69392
L93787 69364
L93928 69364
L94012 69392
" />
<path d="M94237 69926
L94321 69955
L94462 69955
L94518 69926
L94546 69898
L94574 69842
L94574 69786
L94546 69730
L94518 69701
L94462 69673
L94349 69645
L94293 69617
L94265 69589
L94237 69533
L94237 69476
L94265 69420
L94293 69392
L94349 69364
L94490 69364
L94574 69392
" />
<path d="M95474 69645
L95277 69645
" />
<path d="M95277 69955
L95277 69364
L95559 69364
" />
<path d="M95896 69364
L96009 69364
L96065 69392
L96121 69448
L96149 69561
L96149 69758
L96121 69870
L96065 69926
L96009 69955
L95896 69955
L95840 69926
L95784 69870
L95755 69758
L95755 69561
L95784 69448
L95840 69392
L95896 69364
" />
<path d="M96740 69955
L96543 69673
" />
<path d="M96402 69955
L96402 69364
L96627 69364
L96683 69392
L96712 69420
L96740 69476
L96740 69561
L96712 69617
L96683 69645
L96627 69673
L96402 69673
" />
<path d="M97415 69786
L97696 69786
" />
<path d="M97358 69955
L97555 69364
L97752 69955
" />
<path d="M98399 69955
L98399 69364
L98624 69364
L98680 69392
L98708 69420
L98736 69476
L98736 69561
L98708 69617
L98680 69645
L98624 69673
L98399 69673
" />
<path d="M98961 69786
L99242 69786
" />
<path d="M98905 69955
L99102 69364
L99299 69955
" />
<path d="M99833 69955
L99636 69673
" />
<path d="M99496 69955
L99496 69364
L99721 69364
L99777 69392
L99805 69420
L99833 69476
L99833 69561
L99805 69617
L99777 69645
L99721 69673
L99496 69673
" />
<path d="M100002 69364
L100339 69364
" />
<path d="M100171 69955
L100171 69364
" />
<path d="M100536 69955
L100536 69364
" />
<path d="M101155 69898
L101127 69926
L101042 69955
L100986 69955
L100902 69926
L100845 69870
L100817 69814
L100789 69701
L100789 69617
L100817 69505
L100845 69448
L100902 69392
L100986 69364
L101042 69364
L101127 69392
L101155 69420
" />
<path d="M101408 69364
L101408 69842
L101436 69898
L101464 69926
L101520 69955
L101633 69955
L101689 69926
L101717 69898
L101745 69842
L101745 69364
" />
<path d="M102308 69955
L102027 69955
L102027 69364
" />
<path d="M102476 69786
L102758 69786
" />
<path d="M102420 69955
L102617 69364
L102814 69955
" />
<path d="M103348 69955
L103151 69673
" />
<path d="M103011 69955
L103011 69364
L103236 69364
L103292 69392
L103320 69420
L103348 69476
L103348 69561
L103320 69617
L103292 69645
L103236 69673
L103011 69673
" />
<path d="M104051 69955
L104051 69364
L104276 69364
L104332 69392
L104361 69420
L104389 69476
L104389 69561
L104361 69617
L104332 69645
L104276 69673
L104051 69673
" />
<path d="M104642 69364
L104642 69842
L104670 69898
L104698 69926
L104754 69955
L104867 69955
L104923 69926
L104951 69898
L104979 69842
L104979 69364
" />
<path d="M105598 69955
L105401 69673
" />
<path d="M105260 69955
L105260 69364
L105485 69364
L105542 69392
L105570 69420
L105598 69476
L105598 69561
L105570 69617
L105542 69645
L105485 69673
L105260 69673
" />
<path d="M105851 69955
L105851 69364
L106076 69364
L106132 69392
L106160 69420
L106188 69476
L106188 69561
L106160 69617
L106132 69645
L106076 69673
L105851 69673
" />
<path d="M106554 69364
L106667 69364
L106723 69392
L106779 69448
L106807 69561
L106807 69758
L106779 69870
L106723 69926
L106667 69955
L106554 69955
L106498 69926
L106442 69870
L106413 69758
L106413 69561
L106442 69448
L106498 69392
L106554 69364
" />
<path d="M107032 69926
L107117 69955
L107257 69955
L107313 69926
L107341 69898
L107370 69842
L107370 69786
L107341 69730
L107313 69701
L107257 69673
L107145 69645
L107088 69617
L107060 69589
L107032 69533
L107032 69476
L107060 69420
L107088 69392
L107145 69364
L107285 69364
L107370 69392
" />
<path d="M107623 69645
L107820 69645
" />
<path d="M107904 69955
L107623 69955
L107623 69364
L107904 69364
" />
<path d="M108157 69898
L108185 69926
L108157 69955
L108129 69926
L108157 69898
L108157 69955
" />
<path d="M70249 68773
L70249 68380
" />
<path d="M70249 68183
L70221 68211
L70249 68239
L70277 68211
L70249 68183
L70249 68239
" />
<path d="M70502 68745
L70559 68773
L70671 68773
L70727 68745
L70755 68689
L70755 68661
L70727 68605
L70671 68577
L70587 68577
L70530 68548
L70502 68492
L70502 68464
L70530 68408
L70587 68380
L70671 68380
L70727 68408
" />
<path d="M71712 68773
L71712 68183
" />
<path d="M71712 68745
L71655 68773
L71543 68773
L71487 68745
L71458 68717
L71430 68661
L71430 68492
L71458 68436
L71487 68408
L71543 68380
L71655 68380
L71712 68408
" />
<path d="M71993 68773
L71993 68380
" />
<path d="M71993 68183
L71965 68211
L71993 68239
L72021 68211
L71993 68183
L71993 68239
" />
<path d="M72246 68745
L72302 68773
L72415 68773
L72471 68745
L72499 68689
L72499 68661
L72471 68605
L72415 68577
L72330 68577
L72274 68548
L72246 68492
L72246 68464
L72274 68408
L72330 68380
L72415 68380
L72471 68408
" />
<path d="M72668 68380
L72893 68380
" />
<path d="M72752 68183
L72752 68689
L72780 68745
L72836 68773
L72893 68773
" />
<path d="M73090 68773
L73090 68380
" />
<path d="M73090 68492
L73118 68436
L73146 68408
L73202 68380
L73258 68380
" />
<path d="M73455 68773
L73455 68380
" />
<path d="M73455 68183
L73427 68211
L73455 68239
L73483 68211
L73455 68183
L73455 68239
" />
<path d="M73736 68773
L73736 68183
" />
<path d="M73736 68408
L73793 68380
L73905 68380
L73961 68408
L73989 68436
L74018 68492
L74018 68661
L73989 68717
L73961 68745
L73905 68773
L73793 68773
L73736 68745
" />
<path d="M74524 68380
L74524 68773
" />
<path d="M74271 68380
L74271 68689
L74299 68745
L74355 68773
L74439 68773
L74496 68745
L74524 68717
" />
<path d="M74721 68380
L74946 68380
" />
<path d="M74805 68183
L74805 68689
L74833 68745
L74889 68773
L74946 68773
" />
<path d="M75367 68745
L75311 68773
L75199 68773
L75142 68745
L75114 68689
L75114 68464
L75142 68408
L75199 68380
L75311 68380
L75367 68408
L75395 68464
L75395 68520
L75114 68577
" />
<path d="M75902 68773
L75902 68183
" />
<path d="M75902 68745
L75845 68773
L75733 68773
L75677 68745
L75649 68717
L75620 68661
L75620 68492
L75649 68436
L75677 68408
L75733 68380
L75845 68380
L75902 68408
" />
<path d="M76577 68183
L76717 68773
L76830 68352
L76942 68773
L77083 68183
" />
<path d="M77308 68773
L77308 68183
" />
<path d="M77505 68183
L77842 68183
" />
<path d="M77673 68773
L77673 68183
" />
<path d="M78039 68773
L78039 68183
" />
<path d="M78039 68464
L78376 68464
" />
<path d="M78376 68773
L78376 68183
" />
<path d="M78770 68183
L78883 68183
L78939 68211
L78995 68267
L79023 68380
L79023 68577
L78995 68689
L78939 68745
L78883 68773
L78770 68773
L78714 68745
L78658 68689
L78629 68577
L78629 68380
L78658 68267
L78714 68211
L78770 68183
" />
<path d="M79276 68183
L79276 68661
L79304 68717
L79332 68745
L79389 68773
L79501 68773
L79557 68745
L79586 68717
L79614 68661
L79614 68183
" />
<path d="M79811 68183
L80148 68183
" />
<path d="M79979 68773
L79979 68183
" />
<path d="M80767 68605
L81048 68605
" />
<path d="M80710 68773
L80907 68183
L81104 68773
" />
<path d="M81301 68773
L81301 68183
L81638 68773
L81638 68183
" />
<path d="M82032 68492
L82032 68773
" />
<path d="M81835 68183
L82032 68492
L82229 68183
" />
<path d="M82876 68464
L83073 68464
" />
<path d="M83157 68773
L82876 68773
L82876 68183
L83157 68183
" />
<path d="M83354 68183
L83748 68773
" />
<path d="M83748 68183
L83354 68773
" />
<path d="M83973 68773
L83973 68183
L84197 68183
L84254 68211
L84282 68239
L84310 68295
L84310 68380
L84282 68436
L84254 68464
L84197 68492
L83973 68492
" />
<path d="M84901 68773
L84704 68492
" />
<path d="M84563 68773
L84563 68183
L84788 68183
L84844 68211
L84872 68239
L84901 68295
L84901 68380
L84872 68436
L84844 68464
L84788 68492
L84563 68492
" />
<path d="M85154 68464
L85350 68464
" />
<path d="M85435 68773
L85154 68773
L85154 68183
L85435 68183
" />
<path d="M85660 68745
L85744 68773
L85885 68773
L85941 68745
L85969 68717
L85997 68661
L85997 68605
L85969 68548
L85941 68520
L85885 68492
L85772 68464
L85716 68436
L85688 68408
L85660 68352
L85660 68295
L85688 68239
L85716 68211
L85772 68183
L85913 68183
L85997 68211
" />
<path d="M86222 68745
L86307 68773
L86447 68773
L86503 68745
L86532 68717
L86560 68661
L86560 68605
L86532 68548
L86503 68520
L86447 68492
L86335 68464
L86278 68436
L86250 68408
L86222 68352
L86222 68295
L86250 68239
L86278 68211
L86335 68183
L86475 68183
L86560 68211
" />
<path d="M87375 68183
L87488 68183
L87544 68211
L87600 68267
L87628 68380
L87628 68577
L87600 68689
L87544 68745
L87488 68773
L87375 68773
L87319 68745
L87263 68689
L87235 68577
L87235 68380
L87263 68267
L87319 68211
L87375 68183
" />
<path d="M88219 68773
L88022 68492
" />
<path d="M87881 68773
L87881 68183
L88106 68183
L88163 68211
L88191 68239
L88219 68295
L88219 68380
L88191 68436
L88163 68464
L88106 68492
L87881 68492
" />
<path d="M88922 68773
L88922 68183
" />
<path d="M89203 68773
L89203 68183
L89400 68605
L89597 68183
L89597 68773
" />
<path d="M89878 68773
L89878 68183
L90103 68183
L90159 68211
L90187 68239
L90215 68295
L90215 68380
L90187 68436
L90159 68464
L90103 68492
L89878 68492
" />
<path d="M90750 68773
L90469 68773
L90469 68183
" />
<path d="M90947 68773
L90947 68183
" />
<path d="M91228 68464
L91425 68464
" />
<path d="M91509 68773
L91228 68773
L91228 68183
L91509 68183
" />
<path d="M91762 68773
L91762 68183
L91903 68183
L91987 68211
L92043 68267
L92072 68323
L92100 68436
L92100 68520
L92072 68633
L92043 68689
L91987 68745
L91903 68773
L91762 68773
" />
<path d="M92746 68183
L92887 68773
L93000 68352
L93112 68773
L93253 68183
" />
<path d="M93449 68605
L93731 68605
" />
<path d="M93393 68773
L93590 68183
L93787 68773
" />
<path d="M94321 68773
L94124 68492
" />
<path d="M93984 68773
L93984 68183
L94209 68183
L94265 68211
L94293 68239
L94321 68295
L94321 68380
L94293 68436
L94265 68464
L94209 68492
L93984 68492
" />
<path d="M94912 68773
L94715 68492
" />
<path d="M94574 68773
L94574 68183
L94799 68183
L94856 68211
L94884 68239
L94912 68295
L94912 68380
L94884 68436
L94856 68464
L94799 68492
L94574 68492
" />
<path d="M95137 68605
L95418 68605
" />
<path d="M95081 68773
L95277 68183
L95474 68773
" />
<path d="M95671 68773
L95671 68183
L96009 68773
L96009 68183
" />
<path d="M96205 68183
L96543 68183
" />
<path d="M96374 68773
L96374 68183
" />
<path d="M96852 68492
L96852 68773
" />
<path d="M96655 68183
L96852 68492
L97049 68183
" />
<path d="M97274 68745
L97274 68773
L97246 68830
L97218 68858
" />
<path d="M97977 68773
L97977 68183
" />
<path d="M98258 68773
L98258 68183
L98596 68773
L98596 68183
" />
<path d="M99214 68717
L99186 68745
L99102 68773
L99046 68773
L98961 68745
L98905 68689
L98877 68633
L98849 68520
L98849 68436
L98877 68323
L98905 68267
L98961 68211
L99046 68183
L99102 68183
L99186 68211
L99214 68239
" />
<path d="M99749 68773
L99467 68773
L99467 68183
" />
<path d="M99946 68183
L99946 68661
L99974 68717
L100002 68745
L100058 68773
L100171 68773
L100227 68745
L100255 68717
L100283 68661
L100283 68183
" />
<path d="M100564 68773
L100564 68183
L100705 68183
L100789 68211
L100845 68267
L100874 68323
L100902 68436
L100902 68520
L100874 68633
L100845 68689
L100789 68745
L100705 68773
L100564 68773
" />
<path d="M101155 68773
L101155 68183
" />
<path d="M101436 68773
L101436 68183
L101773 68773
L101773 68183
" />
<path d="M102364 68211
L102308 68183
L102223 68183
L102139 68211
L102083 68267
L102055 68323
L102027 68436
L102027 68520
L102055 68633
L102083 68689
L102139 68745
L102223 68773
L102280 68773
L102364 68745
L102392 68717
L102392 68520
L102280 68520
" />
<path d="M103208 68183
L103320 68183
L103376 68211
L103433 68267
L103461 68380
L103461 68577
L103433 68689
L103376 68745
L103320 68773
L103208 68773
L103151 68745
L103095 68689
L103067 68577
L103067 68380
L103095 68267
L103151 68211
L103208 68183
" />
<path d="M103911 68464
L103714 68464
" />
<path d="M103714 68773
L103714 68183
L103995 68183
" />
<path d="M70530 67592
L70249 67592
L70249 67002
" />
<path d="M70727 67592
L70727 67199
" />
<path d="M70727 67002
L70699 67030
L70727 67058
L70755 67030
L70727 67002
L70727 67058
" />
<path d="M71262 67564
L71205 67592
L71093 67592
L71037 67564
L71009 67536
L70980 67480
L70980 67311
L71009 67255
L71037 67227
L71093 67199
L71205 67199
L71262 67227
" />
<path d="M71740 67564
L71683 67592
L71571 67592
L71515 67564
L71487 67508
L71487 67283
L71515 67227
L71571 67199
L71683 67199
L71740 67227
L71768 67283
L71768 67339
L71487 67395
" />
<path d="M72021 67199
L72021 67592
" />
<path d="M72021 67255
L72049 67227
L72105 67199
L72190 67199
L72246 67227
L72274 67283
L72274 67592
" />
<path d="M72527 67564
L72583 67592
L72696 67592
L72752 67564
L72780 67508
L72780 67480
L72752 67424
L72696 67395
L72611 67395
L72555 67367
L72527 67311
L72527 67283
L72555 67227
L72611 67199
L72696 67199
L72752 67227
" />
<path d="M73258 67564
L73202 67592
L73090 67592
L73033 67564
L73005 67508
L73005 67283
L73033 67227
L73090 67199
L73202 67199
L73258 67227
L73286 67283
L73286 67339
L73005 67395
" />
<path d="M73793 67592
L73793 67002
" />
<path d="M73793 67564
L73736 67592
L73624 67592
L73568 67564
L73539 67536
L73511 67480
L73511 67311
L73539 67255
L73568 67227
L73624 67199
L73736 67199
L73793 67227
" />
<path d="M74777 67199
L74777 67592
" />
<path d="M74524 67199
L74524 67508
L74552 67564
L74608 67592
L74692 67592
L74749 67564
L74777 67536
" />
<path d="M75058 67199
L75058 67592
" />
<path d="M75058 67255
L75086 67227
L75142 67199
L75227 67199
L75283 67227
L75311 67283
L75311 67592
" />
<path d="M75845 67592
L75845 67002
" />
<path d="M75845 67564
L75789 67592
L75677 67592
L75620 67564
L75592 67536
L75564 67480
L75564 67311
L75592 67255
L75620 67227
L75677 67199
L75789 67199
L75845 67227
" />
<path d="M76352 67564
L76295 67592
L76183 67592
L76127 67564
L76099 67508
L76099 67283
L76127 67227
L76183 67199
L76295 67199
L76352 67227
L76380 67283
L76380 67339
L76099 67395
" />
<path d="M76633 67592
L76633 67199
" />
<path d="M76633 67311
L76661 67255
L76689 67227
L76745 67199
L76802 67199
" />
<path d="M77364 67199
L77589 67199
" />
<path d="M77448 67002
L77448 67508
L77476 67564
L77533 67592
L77589 67592
" />
<path d="M77786 67592
L77786 67002
" />
<path d="M78039 67592
L78039 67283
L78011 67227
L77955 67199
L77870 67199
L77814 67227
L77786 67255
" />
<path d="M78545 67564
L78489 67592
L78376 67592
L78320 67564
L78292 67508
L78292 67283
L78320 67227
L78376 67199
L78489 67199
L78545 67227
L78573 67283
L78573 67339
L78292 67395
" />
<path d="M79192 67002
L79529 67002
" />
<path d="M79361 67592
L79361 67002
" />
<path d="M79698 67424
L79979 67424
" />
<path d="M79642 67592
L79839 67002
L80036 67592
" />
<path d="M80232 67592
L80232 67002
L80457 67002
L80514 67030
L80542 67058
L80570 67114
L80570 67199
L80542 67255
L80514 67283
L80457 67311
L80232 67311
" />
<path d="M81160 67592
L80964 67311
" />
<path d="M80823 67592
L80823 67002
L81048 67002
L81104 67030
L81132 67058
L81160 67114
L81160 67199
L81132 67255
L81104 67283
L81048 67311
L80823 67311
" />
<path d="M81976 67002
L82088 67002
L82145 67030
L82201 67086
L82229 67199
L82229 67395
L82201 67508
L82145 67564
L82088 67592
L81976 67592
L81920 67564
L81863 67508
L81835 67395
L81835 67199
L81863 67086
L81920 67030
L81976 67002
" />
<path d="M82482 67199
L82482 67789
" />
<path d="M82482 67227
L82538 67199
L82651 67199
L82707 67227
L82735 67255
L82763 67311
L82763 67480
L82735 67536
L82707 67564
L82651 67592
L82538 67592
L82482 67564
" />
<path d="M83241 67564
L83185 67592
L83073 67592
L83016 67564
L82988 67508
L82988 67283
L83016 67227
L83073 67199
L83185 67199
L83241 67227
L83269 67283
L83269 67339
L82988 67395
" />
<path d="M83523 67199
L83523 67592
" />
<path d="M83523 67255
L83551 67227
L83607 67199
L83691 67199
L83748 67227
L83776 67283
L83776 67592
" />
<path d="M84507 67592
L84507 67002
" />
<path d="M84507 67283
L84844 67283
" />
<path d="M84844 67592
L84844 67002
" />
<path d="M85379 67592
L85379 67283
L85350 67227
L85294 67199
L85182 67199
L85126 67227
" />
<path d="M85379 67564
L85322 67592
L85182 67592
L85126 67564
L85097 67508
L85097 67452
L85126 67395
L85182 67367
L85322 67367
L85379 67339
" />
<path d="M85660 67592
L85660 67199
" />
<path d="M85660 67311
L85688 67255
L85716 67227
L85772 67199
L85829 67199
" />
<path d="M86278 67592
L86278 67002
" />
<path d="M86278 67564
L86222 67592
L86110 67592
L86054 67564
L86025 67536
L85997 67480
L85997 67311
L86025 67255
L86054 67227
L86110 67199
L86222 67199
L86278 67227
" />
<path d="M86503 67199
L86616 67592
L86728 67311
L86841 67592
L86953 67199
" />
<path d="M87431 67592
L87431 67283
L87403 67227
L87347 67199
L87235 67199
L87178 67227
" />
<path d="M87431 67564
L87375 67592
L87235 67592
L87178 67564
L87150 67508
L87150 67452
L87178 67395
L87235 67367
L87375 67367
L87431 67339
" />
<path d="M87713 67592
L87713 67199
" />
<path d="M87713 67311
L87741 67255
L87769 67227
L87825 67199
L87881 67199
" />
<path d="M88303 67564
L88247 67592
L88135 67592
L88078 67564
L88050 67508
L88050 67283
L88078 67227
L88135 67199
L88247 67199
L88303 67227
L88331 67283
L88331 67339
L88050 67395
" />
<path d="M89316 67592
L89034 67592
L89034 67002
" />
<path d="M89512 67592
L89512 67199
" />
<path d="M89512 67002
L89484 67030
L89512 67058
L89541 67030
L89512 67002
L89512 67058
" />
<path d="M90047 67564
L89991 67592
L89878 67592
L89822 67564
L89794 67536
L89766 67480
L89766 67311
L89794 67255
L89822 67227
L89878 67199
L89991 67199
L90047 67227
" />
<path d="M90525 67564
L90469 67592
L90356 67592
L90300 67564
L90272 67508
L90272 67283
L90300 67227
L90356 67199
L90469 67199
L90525 67227
L90553 67283
L90553 67339
L90272 67395
" />
<path d="M90806 67199
L90806 67592
" />
<path d="M90806 67255
L90834 67227
L90890 67199
L90975 67199
L91031 67227
L91059 67283
L91059 67592
" />
<path d="M91312 67564
L91368 67592
L91481 67592
L91537 67564
L91565 67508
L91565 67480
L91537 67424
L91481 67395
L91397 67395
L91340 67367
L91312 67311
L91312 67283
L91340 67227
L91397 67199
L91481 67199
L91537 67227
" />
<path d="M92043 67564
L91987 67592
L91875 67592
L91818 67564
L91790 67508
L91790 67283
L91818 67227
L91875 67199
L91987 67199
L92043 67227
L92072 67283
L92072 67339
L91790 67395
" />
<path d="M92943 67817
L92915 67789
L92859 67705
L92831 67649
L92803 67564
L92775 67424
L92775 67311
L92803 67171
L92831 67086
L92859 67030
L92915 66946
L92943 66917
" />
<path d="M93112 67199
L93224 67592
L93337 67311
L93449 67592
L93562 67199
" />
<path d="M93731 67199
L93843 67592
L93956 67311
L94068 67592
L94181 67199
" />
<path d="M94349 67199
L94462 67592
L94574 67311
L94687 67592
L94799 67199
" />
<path d="M95024 67536
L95052 67564
L95024 67592
L94996 67564
L95024 67536
L95024 67592
" />
<path d="M95221 67199
L95446 67199
" />
<path d="M95305 67002
L95305 67508
L95334 67564
L95390 67592
L95446 67592
" />
<path d="M95896 67592
L95896 67283
L95868 67227
L95812 67199
L95699 67199
L95643 67227
" />
<path d="M95896 67564
L95840 67592
L95699 67592
L95643 67564
L95615 67508
L95615 67452
L95643 67395
L95699 67367
L95840 67367
L95896 67339
" />
<path d="M96177 67199
L96177 67789
" />
<path d="M96177 67227
L96233 67199
L96346 67199
L96402 67227
L96430 67255
L96458 67311
L96458 67480
L96430 67536
L96402 67564
L96346 67592
L96233 67592
L96177 67564
" />
<path d="M96712 67592
L96712 67199
" />
<path d="M96712 67311
L96740 67255
L96768 67227
L96824 67199
L96880 67199
" />
<path d="M97077 67536
L97105 67564
L97077 67592
L97049 67564
L97077 67536
L97077 67592
" />
<path d="M97443 67592
L97386 67564
L97358 67536
L97330 67480
L97330 67311
L97358 67255
L97386 67227
L97443 67199
L97527 67199
L97583 67227
L97611 67255
L97640 67311
L97640 67480
L97611 67536
L97583 67564
L97527 67592
L97443 67592
" />
<path d="M97893 67592
L97893 67199
" />
<path d="M97893 67311
L97921 67255
L97949 67227
L98005 67199
L98061 67199
" />
<path d="M98511 67199
L98511 67677
L98483 67733
L98455 67761
L98399 67789
L98314 67789
L98258 67761
" />
<path d="M98511 67564
L98455 67592
L98343 67592
L98286 67564
L98258 67536
L98230 67480
L98230 67311
L98258 67255
L98286 67227
L98343 67199
L98455 67199
L98511 67227
" />
<path d="M99214 66974
L98708 67733
" />
<path d="M99524 67002
L99636 67002
L99692 67030
L99749 67086
L99777 67199
L99777 67395
L99749 67508
L99692 67564
L99636 67592
L99524 67592
L99467 67564
L99411 67508
L99383 67395
L99383 67199
L99411 67086
L99467 67030
L99524 67002
" />
<path d="M100030 67592
L100030 67002
" />
<path d="M100030 67283
L100367 67283
" />
<path d="M100367 67592
L100367 67002
" />
<path d="M100930 67592
L100649 67592
L100649 67002
" />
<path d="M101070 67817
L101099 67789
L101155 67705
L101183 67649
L101211 67564
L101239 67424
L101239 67311
L101211 67171
L101183 67086
L101155 67030
L101099 66946
L101070 66917
" />
<path d="M101520 67536
L101548 67564
L101520 67592
L101492 67564
L101520 67536
L101520 67592
" />
<path d="M102167 67002
L102505 67002
" />
<path d="M102336 67592
L102336 67002
" />
<path d="M102701 67592
L102701 67002
" />
<path d="M102955 67592
L102955 67283
L102926 67227
L102870 67199
L102786 67199
L102730 67227
L102701 67255
" />
<path d="M103236 67592
L103236 67199
" />
<path d="M103236 67002
L103208 67030
L103236 67058
L103264 67030
L103236 67002
L103236 67058
" />
<path d="M103489 67564
L103545 67592
L103658 67592
L103714 67564
L103742 67508
L103742 67480
L103714 67424
L103658 67395
L103573 67395
L103517 67367
L103489 67311
L103489 67283
L103517 67227
L103573 67199
L103658 67199
L103714 67227
" />
<path d="M104698 67592
L104698 67002
" />
<path d="M104698 67564
L104642 67592
L104529 67592
L104473 67564
L104445 67536
L104417 67480
L104417 67311
L104445 67255
L104473 67227
L104529 67199
L104642 67199
L104698 67227
" />
<path d="M105064 67592
L105007 67564
L104979 67536
L104951 67480
L104951 67311
L104979 67255
L105007 67227
L105064 67199
L105148 67199
L105204 67227
L105232 67255
L105260 67311
L105260 67480
L105232 67536
L105204 67564
L105148 67592
L105064 67592
" />
<path d="M105767 67564
L105710 67592
L105598 67592
L105542 67564
L105514 67536
L105485 67480
L105485 67311
L105514 67255
L105542 67227
L105598 67199
L105710 67199
L105767 67227
" />
<path d="M106273 67199
L106273 67592
" />
<path d="M106020 67199
L106020 67508
L106048 67564
L106104 67592
L106188 67592
L106245 67564
L106273 67536
" />
<path d="M106554 67592
L106554 67199
" />
<path d="M106554 67255
L106582 67227
L106638 67199
L106723 67199
L106779 67227
L106807 67283
L106807 67592
" />
<path d="M106807 67283
L106835 67227
L106892 67199
L106976 67199
L107032 67227
L107060 67283
L107060 67592
" />
<path d="M107566 67564
L107510 67592
L107398 67592
L107341 67564
L107313 67508
L107313 67283
L107341 67227
L107398 67199
L107510 67199
L107566 67227
L107595 67283
L107595 67339
L107313 67395
" />
<path d="M107848 67199
L107848 67592
" />
<path d="M107848 67255
L107876 67227
L107932 67199
L108016 67199
L108073 67227
L108101 67283
L108101 67592
" />
<path d="M108298 67199
L108523 67199
" />
<path d="M108382 67002
L108382 67508
L108410 67564
L108466 67592
L108523 67592
" />
<path d="M108973 67592
L108973 67283
L108944 67227
L108888 67199
L108776 67199
L108719 67227
" />
<path d="M108973 67564
L108916 67592
L108776 67592
L108719 67564
L108691 67508
L108691 67452
L108719 67395
L108776 67367
L108916 67367
L108973 67339
" />
<path d="M109169 67199
L109394 67199
" />
<path d="M109254 67002
L109254 67508
L109282 67564
L109338 67592
L109394 67592
" />
<path d="M109591 67592
L109591 67199
" />
<path d="M109591 67002
L109563 67030
L109591 67058
L109619 67030
L109591 67002
L109591 67058
" />
<path d="M109957 67592
L109901 67564
L109872 67536
L109844 67480
L109844 67311
L109872 67255
L109901 67227
L109957 67199
L110041 67199
L110097 67227
L110126 67255
L110154 67311
L110154 67480
L110126 67536
L110097 67564
L110041 67592
L109957 67592
" />
<path d="M110407 67199
L110407 67592
" />
<path d="M110407 67255
L110435 67227
L110491 67199
L110575 67199
L110632 67227
L110660 67283
L110660 67592
" />
<path d="M70587 66355
L70559 66383
L70474 66411
L70418 66411
L70334 66383
L70277 66327
L70249 66271
L70221 66158
L70221 66074
L70249 65961
L70277 65905
L70334 65849
L70418 65821
L70474 65821
L70559 65849
L70587 65877
" />
<path d="M70924 66411
L70868 66383
L70840 66355
L70812 66299
L70812 66130
L70840 66074
L70868 66046
L70924 66018
L71009 66018
L71065 66046
L71093 66074
L71121 66130
L71121 66299
L71093 66355
L71065 66383
L71009 66411
L70924 66411
" />
<path d="M71374 66018
L71374 66608
" />
<path d="M71374 66046
L71430 66018
L71543 66018
L71599 66046
L71627 66074
L71655 66130
L71655 66299
L71627 66355
L71599 66383
L71543 66411
L71430 66411
L71374 66383
" />
<path d="M71852 66018
L71993 66411
" />
<path d="M72133 66018
L71993 66411
L71937 66552
L71908 66580
L71852 66608
" />
<path d="M72358 66411
L72358 66018
" />
<path d="M72358 66130
L72386 66074
L72415 66046
L72471 66018
L72527 66018
" />
<path d="M72724 66411
L72724 66018
" />
<path d="M72724 65821
L72696 65849
L72724 65877
L72752 65849
L72724 65821
L72724 65877
" />
<path d="M73258 66018
L73258 66496
L73230 66552
L73202 66580
L73146 66608
L73061 66608
L73005 66580
" />
<path d="M73258 66383
L73202 66411
L73090 66411
L73033 66383
L73005 66355
L72977 66299
L72977 66130
L73005 66074
L73033 66046
L73090 66018
L73202 66018
L73258 66046
" />
<path d="M73539 66411
L73539 65821
" />
<path d="M73793 66411
L73793 66102
L73764 66046
L73708 66018
L73624 66018
L73568 66046
L73539 66074
" />
<path d="M73989 66018
L74214 66018
" />
<path d="M74074 65821
L74074 66327
L74102 66383
L74158 66411
L74214 66411
" />
<path d="M74861 66411
L74861 65821
L75086 65821
L75142 65849
L75171 65877
L75199 65933
L75199 66018
L75171 66074
L75142 66102
L75086 66130
L74861 66130
" />
<path d="M75705 66411
L75705 66102
L75677 66046
L75620 66018
L75508 66018
L75452 66046
" />
<path d="M75705 66383
L75649 66411
L75508 66411
L75452 66383
L75424 66327
L75424 66271
L75452 66214
L75508 66186
L75649 66186
L75705 66158
" />
<path d="M76239 66018
L76239 66411
" />
<path d="M75986 66018
L75986 66327
L76014 66383
L76070 66411
L76155 66411
L76211 66383
L76239 66355
" />
<path d="M76605 66411
L76548 66383
L76520 66327
L76520 65821
" />
<path d="M77448 65821
L77448 66242
L77420 66327
L77364 66383
L77280 66411
L77223 66411
" />
<path d="M77983 66411
L77983 66102
L77955 66046
L77898 66018
L77786 66018
L77730 66046
" />
<path d="M77983 66383
L77926 66411
L77786 66411
L77730 66383
L77701 66327
L77701 66271
L77730 66214
L77786 66186
L77926 66186
L77983 66158
" />
<path d="M78264 66018
L78264 66411
" />
<path d="M78264 66074
L78292 66046
L78348 66018
L78433 66018
L78489 66046
L78517 66102
L78517 66411
" />
<path d="M78798 66411
L78798 66018
" />
<path d="M78798 65821
L78770 65849
L78798 65877
L78826 65849
L78798 65821
L78798 65877
" />
<path d="M79332 66383
L79276 66411
L79164 66411
L79108 66383
L79079 66355
L79051 66299
L79051 66130
L79079 66074
L79108 66046
L79164 66018
L79276 66018
L79332 66046
" />
<path d="M79586 66411
L79586 65821
" />
<path d="M79642 66186
L79811 66411
" />
<path d="M79811 66018
L79586 66242
" />
<path d="M80064 66411
L80064 66018
" />
<path d="M80064 65821
L80036 65849
L80064 65877
L80092 65849
L80064 65821
L80064 65877
" />
<path d="M80767 65877
L80795 65849
L80851 65821
L80992 65821
L81048 65849
L81076 65877
L81104 65933
L81104 65989
L81076 66074
L80739 66411
L81104 66411
" />
<path d="M81470 65821
L81526 65821
L81582 65849
L81610 65877
L81638 65933
L81667 66046
L81667 66186
L81638 66299
L81610 66355
L81582 66383
L81526 66411
L81470 66411
L81413 66383
L81385 66355
L81357 66299
L81329 66186
L81329 66046
L81357 65933
L81385 65877
L81413 65849
L81470 65821
" />
<path d="M82229 66411
L81892 66411
" />
<path d="M82060 66411
L82060 65821
L82004 65905
L81948 65961
L81892 65989
" />
<path d="M82510 66411
L82623 66411
L82679 66383
L82707 66355
L82763 66271
L82791 66158
L82791 65933
L82763 65877
L82735 65849
L82679 65821
L82566 65821
L82510 65849
L82482 65877
L82454 65933
L82454 66074
L82482 66130
L82510 66158
L82566 66186
L82679 66186
L82735 66158
L82763 66130
L82791 66074
" />
<path d="M77559 75396
L77559 76577
" />
<path d="M102756 75396
L102756 77955
" />
</g>
<g style="fill:#000000; fill-opacity:0.0; 
stroke:#000000; stroke-width:39.3701; stroke-opacity:1; 
stroke-linecap:round; stroke-linejoin:round;">
<path d="M42125 33858
L42125 53543
" />
<path d="M61811 33858
L42125 33858
" />
<path d="M61811 53543
L61811 33858
" />
<path d="M42125 53543
L61811 53543
" />
<g >
</g>
<g >
</g>
<g >
</g>
<g >
</g>
<g >
</g>
<g >
</g>
<g >
</g>
<g >
</g>
<g >
</g>
<g >
</g>
<g >
</g>
<g >
</g>
<g >
</g>
<g >
</g>
<g >
</g>
<g >
</g>
<g >
</g>
<g >
</g>
<g >
</g>
<g >
</g>
<g >
</g>
<g >
</g>
<g >
</g>
<g >
</g>
<g >
</g>
<g >
</g>
<g >
</g>
<g >
</g>
<g >
</g>
<g >
</g>
<g >
</g>
<g >
</g>
<g >
</g>
<g >
</g>
<g >
</g>
<g >
</g>
<g >
</g>
<g >
</g>
<g >
</g>
<g >
</g>
<g >
</g>
<g >
</g>
<g >
</g>
<g >
</g>
<g >
</g>
<g >
</g>
<g >
</g>
<g >
</g>
<g >
</g>
<g >
</g>
<g >
</g>
<g >
</g>
<g >
</g>
<g >
</g>
<g >
</g>
<g >
</g>
<g >
</g>
<g >
</g>
<g >
</g>
<g >
</g>
<g >
</g>
<g >
</g>
<g >
</g>
<g >
</g>
<g >
</g>
<g >
</g>
<g >
</g>
<g >
</g>
<g >
</g>
<g >
</g>
<g >
</g>
<g >
</g>
<g >
</g>
<g >
</g>
<g >
</g>
<g >
</g>
<g >
</g>
<g >
</g>
<g >
</g>
<g >
</g>
<g >
</g>
<g >
</g>
<g >
</g>
<g >
</g>
<g >
</g>
<g >
</g>
<g >
</g>
<g >
</g>
<g >
</g>
<g >
</g>
<g >
</g>
<g >
</g>
<g >
</g>
<g >
</g>
<g >
</g>
<g >
</g>
<g >
</g>
<g >
</g>
<g >
</g>
<g >
</g>
<g >
</g>
<g >
</g>
<g >
</g>
<g >
</g>
<g >
</g>
<g >
</g>
<g >
</g>
<g >
</g>
<g >
</g>
<g >
</g>
<g >
</g>
<g >
</g>
<g >
</g>
<g >
</g>
<g >
</g>
<g >
</g>
<g >
</g>
<g >
</g>
<g >
</g>
<g >
</g>
<g >
</g>
<g >
</g>
<g >
</g>
<g >
</g>
<g >
</g>
<g >
</g>
<g >
</g>
<g >
</g>
<g >
</g>
<g >
</g>
<g >
</g>
<g >
</g>
<g >
</g>
<g >
</g>
<g >
</g>
<g >
</g>
<g >
</g>
<g >
</g>
<g >
</g>
<g >
</g>
<g >
</g>
<g >
</g>
<g >
</g>
<g >
</g>
<g >
</g>
<g >
</g>
<g >
</g>
<g >
</g>
<g >
</g>
<g >
</g>
<g >
</g>
<g >
</g>
<g >
</g>
<g >
</g>
<g >
</g>
<g >
</g>
<g >
</g>
<g >
</g>
<g >
</g>
<g >
</g>
<g >
</g>
<g >
</g>
<g >
</g>
<g >
</g>
<g >
</g>
<g >
</g>
<g >
</g>
<g >
</g>
<g >
</g>
<g >
</g>
<g >
</g>
<g >
</g>
<g >
</g>
<g >
</g>
<g >
</g>
<g >
</g>
<g >
</g>
<g >
</g>
</g> 
</svg>
