M48
; DRILL file {KiCad (5.1.0)-1} date 02/04/2019 22:12:59
; FORMAT={-:-/ absolute / metric / decimal}
; #@! TF.CreationDate,2019-04-02T22:12:59+01:00
; #@! TF.GenerationSoftware,Kicad,Pcbnew,(5.1.0)-1
FMAT,2
METRIC
T1C0.300
T2C0.400
T3C0.600
T4C1.000
T5C4.000
T6C3.200
%
G90
G05
T1
X0.87Y44.05
X0.87Y37.7
X0.87Y22.206
X1.013Y13.826
X1.077Y8.873
X1.077Y7.031
X1.569Y16.237
X1.585Y18.525
X1.886Y21.19
X2.013Y28.429
X2.013Y27.54
X2.902Y26.397
X3.49Y7.031
X3.791Y26.397
X3.918Y16.046
X4.68Y26.397
X4.696Y23.097
X4.696Y22.335
X4.76Y12.683
X5.569Y26.397
X5.84Y10.46
X5.95Y49.13
X5.95Y0.87
X6.268Y13.57
X6.458Y26.397
X6.966Y28.302
X6.966Y27.413
X7.22Y16.745
X7.347Y26.397
X7.554Y23.097
X7.554Y22.335
X7.617Y4.682
X7.681Y41.512
X7.808Y25.51
X7.808Y24.049
X7.808Y16.747
X8.57Y24.24
X8.57Y10.588
X9.014Y31.923
X9.014Y18.97
X9.252Y21.825
X9.887Y19.539
X9.887Y13.887
X10.412Y6.587
X10.776Y18.078
X11.665Y10.649
X11.681Y31.923
X11.919Y2.775
X11.999Y29.066
X11.999Y28.05
X12.046Y20.936
X12.189Y38.591
X12.49Y41.51
X12.507Y28.558
X12.681Y20.428
X12.888Y37.067
X13.205Y32.939
X13.205Y31.987
X13.269Y38.591
X13.269Y29.701
X13.316Y20.936
X13.951Y20.428
X14.014Y10.713
X14.586Y20.936
X14.602Y27.479
X14.84Y0.87
X14.967Y14.459
X14.967Y13.697
X15.269Y38.905
X15.475Y5.95
X15.983Y16.491
X16.85Y22.99
X16.872Y23.984
X17.062Y27.476
X17.316Y19.348
X17.38Y39.541
X17.396Y29.955
X17.634Y24.873
X17.743Y26.176
X18.524Y26.349
X18.58Y31.334
X18.65Y28.359
X18.702Y38.069
X18.904Y21.952
X18.921Y14.334
X19.285Y7.855
X19.285Y5.95
X19.365Y29.447
X19.365Y9.889
X19.555Y2.904
X20.047Y47.733
X20.254Y39.607
X20.301Y25.762
X20.352Y21.931
X20.936Y14.205
X21.053Y24.569
X21.183Y23.59
X21.19Y44.05
X21.952Y21.825
X21.952Y14.205
X22.333Y47.733
X22.413Y40.559
X22.447Y38.633
X22.46Y0.87
X22.587Y22.587
X22.653Y23.787
X22.968Y14.205
X23.175Y11.794
X23.73Y44.05
X23.984Y14.205
X23.984Y17.126
X24.699Y41.512
X25.381Y16.364
X25.461Y20.938
X25.461Y9.127
X25.762Y13.062
X26.27Y20.428
X26.422Y22.003
X26.477Y9.127
X26.604Y38.337
X26.905Y15.983
X26.921Y34.971
X27.366Y22.081
X27.54Y0.87
X27.794Y20.936
X27.921Y18.523
X27.921Y15.983
X29.064Y43.796
X30.351Y43.607
X30.461Y41.602
X31.35Y43.605
X31.35Y11.665
X31.583Y24.223
X32.188Y23.7
X32.493Y8.744
X33.255Y23.73
X33.255Y22.46
X33.335Y33.892
X33.551Y37.575
X33.89Y24.873
X34.374Y37.6
X34.703Y19.31
X34.718Y22.863
X35.113Y29.574
X35.367Y27.415
X35.494Y28.431
X35.541Y39.732
X35.621Y37.575
X35.621Y33.511
X36.049Y24.746
X36.319Y12.937
X36.637Y9.0
X37.576Y19.285
X37.7Y0.87
X37.954Y30.969
X38.161Y34.019
X38.208Y29.826
X39.05Y33.765
X39.351Y24.111
X40.32Y33.511
X40.6Y11.5
X40.9Y28.353
X41.129Y31.35
X41.51Y39.224
X41.637Y12.935
X41.637Y11.538
X41.662Y24.136
X41.662Y19.26
X42.987Y7.984
X44.05Y0.87
X49.13Y42.78
X49.13Y37.7
X49.13Y32.62
X49.13Y26.27
X49.13Y21.19
X49.13Y16.11
X49.13Y11.03
X49.13Y5.95
T2
X13.316Y19.92
T3
X23.723Y29.438
X26.905Y32.62
X26.905Y26.256
X30.087Y29.438
T4
X21.19Y4.68
X21.19Y2.14
X13.57Y4.68
X36.43Y4.68
X38.97Y4.68
X41.51Y4.68
X44.05Y40.24
X44.05Y37.7
X44.05Y35.16
X44.05Y32.62
X44.05Y30.08
X3.41Y40.24
X3.41Y37.7
X3.41Y35.16
X3.41Y32.62
X3.41Y30.08
X8.49Y45.32
X11.03Y45.32
X13.57Y45.32
X16.11Y45.32
X18.65Y45.32
X44.05Y42.78
X46.59Y40.24
X46.59Y37.7
X46.59Y35.16
X46.59Y32.62
X46.59Y30.08
X31.35Y45.32
X33.89Y45.32
X36.43Y45.32
X38.97Y45.32
X41.51Y45.32
X23.73Y47.86
X26.27Y47.86
X28.81Y47.86
X21.19Y12.3
X21.19Y9.76
X21.19Y7.22
X23.73Y45.32
X26.27Y45.32
X28.81Y45.32
X36.43Y2.14
X38.97Y2.14
X41.51Y2.14
X8.49Y47.86
X11.03Y47.86
X13.57Y47.86
X16.11Y47.86
X18.65Y47.86
X44.05Y22.46
X44.05Y19.92
X44.05Y17.38
X44.05Y14.84
X44.05Y12.3
X46.59Y22.46
X46.59Y19.92
X46.59Y17.38
X46.59Y14.84
X46.59Y12.3
X31.35Y7.22
X33.89Y7.22
X36.43Y7.22
X38.97Y7.22
X5.95Y40.24
X5.95Y37.7
X5.95Y35.16
X5.95Y32.62
X5.95Y30.08
X26.27Y4.68
X28.81Y4.68
X31.35Y4.68
X33.89Y4.68
X23.73Y7.22
X26.27Y7.22
X28.81Y7.22
X23.73Y4.68
X23.73Y2.14
X26.27Y2.14
X28.81Y2.14
X31.35Y2.14
X33.89Y2.14
X31.35Y47.86
X33.89Y47.86
X36.43Y47.86
X38.97Y47.86
X41.51Y47.86
T5
X26.905Y29.438
T6
X3.5Y3.5
X46.5Y3.5
X46.5Y46.5
X3.5Y46.5
T4
G00X11.165Y4.68
M15
G01X9.625Y4.68
M16
G05
T0
M30
