%TF.GenerationSoftware,KiCad,Pcbnew,(5.0.2)-1*%
%TF.CreationDate,2019-03-11T21:45:58+00:00*%
%TF.ProjectId,uDSP-1.0,75445350-2d31-42e3-902e-6b696361645f,1.0*%
%TF.SameCoordinates,PX660b0c0PY81b3200*%
%TF.FileFunction,Soldermask,Top*%
%TF.FilePolarity,Negative*%
%FSLAX46Y46*%
G04 Gerber Fmt 4.6, Leading zero omitted, Abs format (unit mm)*
G04 Created by KiCad (PCBNEW (5.0.2)-1) date 11/03/2019 21:45:58*
%MOMM*%
%LPD*%
G01*
G04 APERTURE LIST*
%ADD10C,0.100000*%
%ADD11C,0.150000*%
G04 APERTURE END LIST*
D10*
X0Y50000000D02*
X0Y0D01*
X50000000Y50000000D02*
X0Y50000000D01*
X50000000Y0D02*
X50000000Y50000000D01*
X0Y0D02*
X50000000Y0D01*
D11*
G36*
X47204599Y6520579D02*
X47404237Y6480869D01*
X47968401Y6247185D01*
X48476135Y5907928D01*
X48907928Y5476135D01*
X49247185Y4968401D01*
X49480869Y4404237D01*
X49514852Y4233394D01*
X49600000Y3805325D01*
X49600000Y3194675D01*
X49549342Y2940000D01*
X49480869Y2595763D01*
X49247185Y2031599D01*
X48907928Y1523865D01*
X48476135Y1092072D01*
X47968401Y752815D01*
X47404237Y519131D01*
X47204599Y479421D01*
X46805325Y400000D01*
X46194675Y400000D01*
X45795401Y479421D01*
X45595763Y519131D01*
X45031599Y752815D01*
X44523865Y1092072D01*
X44092072Y1523865D01*
X43752815Y2031599D01*
X43519131Y2595763D01*
X43450658Y2940000D01*
X43400000Y3194675D01*
X43400000Y3805325D01*
X43485148Y4233394D01*
X43519131Y4404237D01*
X43752815Y4968401D01*
X44092072Y5476135D01*
X44523865Y5907928D01*
X45031599Y6247185D01*
X45595763Y6480869D01*
X45795401Y6520579D01*
X46194675Y6600000D01*
X46805325Y6600000D01*
X47204599Y6520579D01*
X47204599Y6520579D01*
G37*
G36*
X4204599Y6520579D02*
X4404237Y6480869D01*
X4968401Y6247185D01*
X5476135Y5907928D01*
X5907928Y5476135D01*
X6247185Y4968401D01*
X6480869Y4404237D01*
X6514852Y4233394D01*
X6600000Y3805325D01*
X6600000Y3194675D01*
X6549342Y2940000D01*
X6480869Y2595763D01*
X6247185Y2031599D01*
X5907928Y1523865D01*
X5476135Y1092072D01*
X4968401Y752815D01*
X4404237Y519131D01*
X4204599Y479421D01*
X3805325Y400000D01*
X3194675Y400000D01*
X2795401Y479421D01*
X2595763Y519131D01*
X2031599Y752815D01*
X1523865Y1092072D01*
X1092072Y1523865D01*
X752815Y2031599D01*
X519131Y2595763D01*
X450658Y2940000D01*
X400000Y3194675D01*
X400000Y3805325D01*
X485148Y4233394D01*
X519131Y4404237D01*
X752815Y4968401D01*
X1092072Y5476135D01*
X1523865Y5907928D01*
X2031599Y6247185D01*
X2595763Y6480869D01*
X2795401Y6520579D01*
X3194675Y6600000D01*
X3805325Y6600000D01*
X4204599Y6520579D01*
X4204599Y6520579D01*
G37*
G36*
X8830935Y3601571D02*
X8927534Y3582356D01*
X9200517Y3469283D01*
X9442920Y3307313D01*
X9446197Y3305124D01*
X9655124Y3096197D01*
X9819284Y2850515D01*
X9932356Y2577533D01*
X9990000Y2287739D01*
X9990000Y1992261D01*
X9932356Y1702467D01*
X9819284Y1429485D01*
X9655124Y1183803D01*
X9446197Y974876D01*
X9446194Y974874D01*
X9200517Y810717D01*
X8927534Y697644D01*
X8830935Y678429D01*
X8637739Y640000D01*
X8342261Y640000D01*
X8149065Y678429D01*
X8052466Y697644D01*
X7779483Y810717D01*
X7533806Y974874D01*
X7533803Y974876D01*
X7324876Y1183803D01*
X7160716Y1429485D01*
X7047644Y1702467D01*
X6990000Y1992261D01*
X6990000Y2287739D01*
X7047644Y2577533D01*
X7160716Y2850515D01*
X7324876Y3096197D01*
X7533803Y3305124D01*
X7537080Y3307313D01*
X7779483Y3469283D01*
X8052466Y3582356D01*
X8149065Y3601571D01*
X8342261Y3640000D01*
X8637739Y3640000D01*
X8830935Y3601571D01*
X8830935Y3601571D01*
G37*
G36*
X18688000Y981000D02*
X17088000Y981000D01*
X17088000Y3081000D01*
X18688000Y3081000D01*
X18688000Y981000D01*
X18688000Y981000D01*
G37*
G36*
X37230000Y1340000D02*
X35630000Y1340000D01*
X35630000Y2940000D01*
X37230000Y2940000D01*
X37230000Y1340000D01*
X37230000Y1340000D01*
G37*
G36*
X39203352Y2909257D02*
X39348941Y2848952D01*
X39479973Y2761399D01*
X39591399Y2649973D01*
X39678952Y2518941D01*
X39739257Y2373352D01*
X39770000Y2218795D01*
X39770000Y2061205D01*
X39739257Y1906648D01*
X39678952Y1761059D01*
X39591399Y1630027D01*
X39479973Y1518601D01*
X39348941Y1431048D01*
X39203352Y1370743D01*
X39048795Y1340000D01*
X38891205Y1340000D01*
X38736648Y1370743D01*
X38591059Y1431048D01*
X38460027Y1518601D01*
X38348601Y1630027D01*
X38261048Y1761059D01*
X38200743Y1906648D01*
X38170000Y2061205D01*
X38170000Y2218795D01*
X38200743Y2373352D01*
X38261048Y2518941D01*
X38348601Y2649973D01*
X38460027Y2761399D01*
X38591059Y2848952D01*
X38736648Y2909257D01*
X38891205Y2940000D01*
X39048795Y2940000D01*
X39203352Y2909257D01*
X39203352Y2909257D01*
G37*
G36*
X24530000Y1340000D02*
X22930000Y1340000D01*
X22930000Y2940000D01*
X24530000Y2940000D01*
X24530000Y1340000D01*
X24530000Y1340000D01*
G37*
G36*
X21990000Y1340000D02*
X20390000Y1340000D01*
X20390000Y2940000D01*
X21990000Y2940000D01*
X21990000Y1340000D01*
X21990000Y1340000D01*
G37*
G36*
X34123352Y2909257D02*
X34268941Y2848952D01*
X34399973Y2761399D01*
X34511399Y2649973D01*
X34598952Y2518941D01*
X34659257Y2373352D01*
X34690000Y2218795D01*
X34690000Y2061205D01*
X34659257Y1906648D01*
X34598952Y1761059D01*
X34511399Y1630027D01*
X34399973Y1518601D01*
X34268941Y1431048D01*
X34123352Y1370743D01*
X33968795Y1340000D01*
X33811205Y1340000D01*
X33656648Y1370743D01*
X33511059Y1431048D01*
X33380027Y1518601D01*
X33268601Y1630027D01*
X33181048Y1761059D01*
X33120743Y1906648D01*
X33090000Y2061205D01*
X33090000Y2218795D01*
X33120743Y2373352D01*
X33181048Y2518941D01*
X33268601Y2649973D01*
X33380027Y2761399D01*
X33511059Y2848952D01*
X33656648Y2909257D01*
X33811205Y2940000D01*
X33968795Y2940000D01*
X34123352Y2909257D01*
X34123352Y2909257D01*
G37*
G36*
X27070000Y1340000D02*
X25470000Y1340000D01*
X25470000Y2940000D01*
X27070000Y2940000D01*
X27070000Y1340000D01*
X27070000Y1340000D01*
G37*
G36*
X29043352Y2909257D02*
X29188941Y2848952D01*
X29319973Y2761399D01*
X29431399Y2649973D01*
X29518952Y2518941D01*
X29579257Y2373352D01*
X29610000Y2218795D01*
X29610000Y2061205D01*
X29579257Y1906648D01*
X29518952Y1761059D01*
X29431399Y1630027D01*
X29319973Y1518601D01*
X29188941Y1431048D01*
X29043352Y1370743D01*
X28888795Y1340000D01*
X28731205Y1340000D01*
X28576648Y1370743D01*
X28431059Y1431048D01*
X28300027Y1518601D01*
X28188601Y1630027D01*
X28101048Y1761059D01*
X28040743Y1906648D01*
X28010000Y2061205D01*
X28010000Y2218795D01*
X28040743Y2373352D01*
X28101048Y2518941D01*
X28188601Y2649973D01*
X28300027Y2761399D01*
X28431059Y2848952D01*
X28576648Y2909257D01*
X28731205Y2940000D01*
X28888795Y2940000D01*
X29043352Y2909257D01*
X29043352Y2909257D01*
G37*
G36*
X41743352Y2909257D02*
X41888941Y2848952D01*
X42019973Y2761399D01*
X42131399Y2649973D01*
X42218952Y2518941D01*
X42279257Y2373352D01*
X42310000Y2218795D01*
X42310000Y2061205D01*
X42279257Y1906648D01*
X42218952Y1761059D01*
X42131399Y1630027D01*
X42019973Y1518601D01*
X41888941Y1431048D01*
X41743352Y1370743D01*
X41588795Y1340000D01*
X41431205Y1340000D01*
X41276648Y1370743D01*
X41131059Y1431048D01*
X41000027Y1518601D01*
X40888601Y1630027D01*
X40801048Y1761059D01*
X40740743Y1906648D01*
X40710000Y2061205D01*
X40710000Y2218795D01*
X40740743Y2373352D01*
X40801048Y2518941D01*
X40888601Y2649973D01*
X41000027Y2761399D01*
X41131059Y2848952D01*
X41276648Y2909257D01*
X41431205Y2940000D01*
X41588795Y2940000D01*
X41743352Y2909257D01*
X41743352Y2909257D01*
G37*
G36*
X31583352Y2909257D02*
X31728941Y2848952D01*
X31859973Y2761399D01*
X31971399Y2649973D01*
X32058952Y2518941D01*
X32119257Y2373352D01*
X32150000Y2218795D01*
X32150000Y2061205D01*
X32119257Y1906648D01*
X32058952Y1761059D01*
X31971399Y1630027D01*
X31859973Y1518601D01*
X31728941Y1431048D01*
X31583352Y1370743D01*
X31428795Y1340000D01*
X31271205Y1340000D01*
X31116648Y1370743D01*
X30971059Y1431048D01*
X30840027Y1518601D01*
X30728601Y1630027D01*
X30641048Y1761059D01*
X30580743Y1906648D01*
X30550000Y2061205D01*
X30550000Y2218795D01*
X30580743Y2373352D01*
X30641048Y2518941D01*
X30728601Y2649973D01*
X30840027Y2761399D01*
X30971059Y2848952D01*
X31116648Y2909257D01*
X31271205Y2940000D01*
X31428795Y2940000D01*
X31583352Y2909257D01*
X31583352Y2909257D01*
G37*
G36*
X23963352Y5449257D02*
X24108941Y5388952D01*
X24239973Y5301399D01*
X24351399Y5189973D01*
X24438952Y5058941D01*
X24499257Y4913352D01*
X24530000Y4758795D01*
X24530000Y4601205D01*
X24499257Y4446648D01*
X24438952Y4301059D01*
X24351399Y4170027D01*
X24239973Y4058601D01*
X24108941Y3971048D01*
X23963352Y3910743D01*
X23808795Y3880000D01*
X23651205Y3880000D01*
X23496648Y3910743D01*
X23351059Y3971048D01*
X23220027Y4058601D01*
X23108601Y4170027D01*
X23021048Y4301059D01*
X22960743Y4446648D01*
X22930000Y4601205D01*
X22930000Y4758795D01*
X22960743Y4913352D01*
X23021048Y5058941D01*
X23108601Y5189973D01*
X23220027Y5301399D01*
X23351059Y5388952D01*
X23496648Y5449257D01*
X23651205Y5480000D01*
X23808795Y5480000D01*
X23963352Y5449257D01*
X23963352Y5449257D01*
G37*
G36*
X37230000Y3880000D02*
X35630000Y3880000D01*
X35630000Y5480000D01*
X37230000Y5480000D01*
X37230000Y3880000D01*
X37230000Y3880000D01*
G37*
G36*
X31583352Y5449257D02*
X31728941Y5388952D01*
X31859973Y5301399D01*
X31971399Y5189973D01*
X32058952Y5058941D01*
X32119257Y4913352D01*
X32150000Y4758795D01*
X32150000Y4601205D01*
X32119257Y4446648D01*
X32058952Y4301059D01*
X31971399Y4170027D01*
X31859973Y4058601D01*
X31728941Y3971048D01*
X31583352Y3910743D01*
X31428795Y3880000D01*
X31271205Y3880000D01*
X31116648Y3910743D01*
X30971059Y3971048D01*
X30840027Y4058601D01*
X30728601Y4170027D01*
X30641048Y4301059D01*
X30580743Y4446648D01*
X30550000Y4601205D01*
X30550000Y4758795D01*
X30580743Y4913352D01*
X30641048Y5058941D01*
X30728601Y5189973D01*
X30840027Y5301399D01*
X30971059Y5388952D01*
X31116648Y5449257D01*
X31271205Y5480000D01*
X31428795Y5480000D01*
X31583352Y5449257D01*
X31583352Y5449257D01*
G37*
G36*
X34123352Y5449257D02*
X34268941Y5388952D01*
X34399973Y5301399D01*
X34511399Y5189973D01*
X34598952Y5058941D01*
X34659257Y4913352D01*
X34690000Y4758795D01*
X34690000Y4601205D01*
X34659257Y4446648D01*
X34598952Y4301059D01*
X34511399Y4170027D01*
X34399973Y4058601D01*
X34268941Y3971048D01*
X34123352Y3910743D01*
X33968795Y3880000D01*
X33811205Y3880000D01*
X33656648Y3910743D01*
X33511059Y3971048D01*
X33380027Y4058601D01*
X33268601Y4170027D01*
X33181048Y4301059D01*
X33120743Y4446648D01*
X33090000Y4601205D01*
X33090000Y4758795D01*
X33120743Y4913352D01*
X33181048Y5058941D01*
X33268601Y5189973D01*
X33380027Y5301399D01*
X33511059Y5388952D01*
X33656648Y5449257D01*
X33811205Y5480000D01*
X33968795Y5480000D01*
X34123352Y5449257D01*
X34123352Y5449257D01*
G37*
G36*
X13803352Y5449257D02*
X13948941Y5388952D01*
X14079973Y5301399D01*
X14191399Y5189973D01*
X14278952Y5058941D01*
X14339257Y4913352D01*
X14370000Y4758795D01*
X14370000Y4601205D01*
X14339257Y4446648D01*
X14278952Y4301059D01*
X14191399Y4170027D01*
X14079973Y4058601D01*
X13948941Y3971048D01*
X13803352Y3910743D01*
X13648795Y3880000D01*
X13491205Y3880000D01*
X13336648Y3910743D01*
X13191059Y3971048D01*
X13060027Y4058601D01*
X12948601Y4170027D01*
X12861048Y4301059D01*
X12800743Y4446648D01*
X12770000Y4601205D01*
X12770000Y4758795D01*
X12800743Y4913352D01*
X12861048Y5058941D01*
X12948601Y5189973D01*
X13060027Y5301399D01*
X13191059Y5388952D01*
X13336648Y5449257D01*
X13491205Y5480000D01*
X13648795Y5480000D01*
X13803352Y5449257D01*
X13803352Y5449257D01*
G37*
G36*
X11312649Y5472283D02*
X11351827Y5468424D01*
X11415012Y5449257D01*
X11502629Y5422679D01*
X11641608Y5348392D01*
X11763422Y5248422D01*
X11863392Y5126608D01*
X11937679Y4987629D01*
X11983424Y4836826D01*
X11998870Y4680000D01*
X11983424Y4523174D01*
X11937679Y4372371D01*
X11863392Y4233392D01*
X11763422Y4111578D01*
X11641608Y4011608D01*
X11502629Y3937321D01*
X11427227Y3914448D01*
X11351827Y3891576D01*
X11312649Y3887717D01*
X11234295Y3880000D01*
X9555705Y3880000D01*
X9477351Y3887717D01*
X9438173Y3891576D01*
X9362773Y3914448D01*
X9287371Y3937321D01*
X9148392Y4011608D01*
X9026578Y4111578D01*
X8926608Y4233392D01*
X8852321Y4372371D01*
X8806576Y4523174D01*
X8791130Y4680000D01*
X8806576Y4836826D01*
X8852321Y4987629D01*
X8926608Y5126608D01*
X9026578Y5248422D01*
X9148392Y5348392D01*
X9287371Y5422679D01*
X9374988Y5449257D01*
X9438173Y5468424D01*
X9477351Y5472283D01*
X9555705Y5480000D01*
X11234295Y5480000D01*
X11312649Y5472283D01*
X11312649Y5472283D01*
G37*
G36*
X39203352Y5449257D02*
X39348941Y5388952D01*
X39479973Y5301399D01*
X39591399Y5189973D01*
X39678952Y5058941D01*
X39739257Y4913352D01*
X39770000Y4758795D01*
X39770000Y4601205D01*
X39739257Y4446648D01*
X39678952Y4301059D01*
X39591399Y4170027D01*
X39479973Y4058601D01*
X39348941Y3971048D01*
X39203352Y3910743D01*
X39048795Y3880000D01*
X38891205Y3880000D01*
X38736648Y3910743D01*
X38591059Y3971048D01*
X38460027Y4058601D01*
X38348601Y4170027D01*
X38261048Y4301059D01*
X38200743Y4446648D01*
X38170000Y4601205D01*
X38170000Y4758795D01*
X38200743Y4913352D01*
X38261048Y5058941D01*
X38348601Y5189973D01*
X38460027Y5301399D01*
X38591059Y5388952D01*
X38736648Y5449257D01*
X38891205Y5480000D01*
X39048795Y5480000D01*
X39203352Y5449257D01*
X39203352Y5449257D01*
G37*
G36*
X21423352Y5449257D02*
X21568941Y5388952D01*
X21699973Y5301399D01*
X21811399Y5189973D01*
X21898952Y5058941D01*
X21959257Y4913352D01*
X21990000Y4758795D01*
X21990000Y4601205D01*
X21959257Y4446648D01*
X21898952Y4301059D01*
X21811399Y4170027D01*
X21699973Y4058601D01*
X21568941Y3971048D01*
X21423352Y3910743D01*
X21268795Y3880000D01*
X21111205Y3880000D01*
X20956648Y3910743D01*
X20811059Y3971048D01*
X20680027Y4058601D01*
X20568601Y4170027D01*
X20481048Y4301059D01*
X20420743Y4446648D01*
X20390000Y4601205D01*
X20390000Y4758795D01*
X20420743Y4913352D01*
X20481048Y5058941D01*
X20568601Y5189973D01*
X20680027Y5301399D01*
X20811059Y5388952D01*
X20956648Y5449257D01*
X21111205Y5480000D01*
X21268795Y5480000D01*
X21423352Y5449257D01*
X21423352Y5449257D01*
G37*
G36*
X41743352Y5449257D02*
X41888941Y5388952D01*
X42019973Y5301399D01*
X42131399Y5189973D01*
X42218952Y5058941D01*
X42279257Y4913352D01*
X42310000Y4758795D01*
X42310000Y4601205D01*
X42279257Y4446648D01*
X42218952Y4301059D01*
X42131399Y4170027D01*
X42019973Y4058601D01*
X41888941Y3971048D01*
X41743352Y3910743D01*
X41588795Y3880000D01*
X41431205Y3880000D01*
X41276648Y3910743D01*
X41131059Y3971048D01*
X41000027Y4058601D01*
X40888601Y4170027D01*
X40801048Y4301059D01*
X40740743Y4446648D01*
X40710000Y4601205D01*
X40710000Y4758795D01*
X40740743Y4913352D01*
X40801048Y5058941D01*
X40888601Y5189973D01*
X41000027Y5301399D01*
X41131059Y5388952D01*
X41276648Y5449257D01*
X41431205Y5480000D01*
X41588795Y5480000D01*
X41743352Y5449257D01*
X41743352Y5449257D01*
G37*
G36*
X29043352Y5449257D02*
X29188941Y5388952D01*
X29319973Y5301399D01*
X29431399Y5189973D01*
X29518952Y5058941D01*
X29579257Y4913352D01*
X29610000Y4758795D01*
X29610000Y4601205D01*
X29579257Y4446648D01*
X29518952Y4301059D01*
X29431399Y4170027D01*
X29319973Y4058601D01*
X29188941Y3971048D01*
X29043352Y3910743D01*
X28888795Y3880000D01*
X28731205Y3880000D01*
X28576648Y3910743D01*
X28431059Y3971048D01*
X28300027Y4058601D01*
X28188601Y4170027D01*
X28101048Y4301059D01*
X28040743Y4446648D01*
X28010000Y4601205D01*
X28010000Y4758795D01*
X28040743Y4913352D01*
X28101048Y5058941D01*
X28188601Y5189973D01*
X28300027Y5301399D01*
X28431059Y5388952D01*
X28576648Y5449257D01*
X28731205Y5480000D01*
X28888795Y5480000D01*
X29043352Y5449257D01*
X29043352Y5449257D01*
G37*
G36*
X27070000Y3880000D02*
X25470000Y3880000D01*
X25470000Y5480000D01*
X27070000Y5480000D01*
X27070000Y3880000D01*
X27070000Y3880000D01*
G37*
G36*
X26503352Y7989257D02*
X26648941Y7928952D01*
X26779973Y7841399D01*
X26891399Y7729973D01*
X26978952Y7598941D01*
X27039257Y7453352D01*
X27070000Y7298795D01*
X27070000Y7141205D01*
X27039257Y6986648D01*
X26978952Y6841059D01*
X26891399Y6710027D01*
X26779973Y6598601D01*
X26648941Y6511048D01*
X26503352Y6450743D01*
X26348795Y6420000D01*
X26191205Y6420000D01*
X26036648Y6450743D01*
X25891059Y6511048D01*
X25760027Y6598601D01*
X25648601Y6710027D01*
X25561048Y6841059D01*
X25500743Y6986648D01*
X25470000Y7141205D01*
X25470000Y7298795D01*
X25500743Y7453352D01*
X25561048Y7598941D01*
X25648601Y7729973D01*
X25760027Y7841399D01*
X25891059Y7928952D01*
X26036648Y7989257D01*
X26191205Y8020000D01*
X26348795Y8020000D01*
X26503352Y7989257D01*
X26503352Y7989257D01*
G37*
G36*
X34123352Y7989257D02*
X34268941Y7928952D01*
X34399973Y7841399D01*
X34511399Y7729973D01*
X34598952Y7598941D01*
X34659257Y7453352D01*
X34690000Y7298795D01*
X34690000Y7141205D01*
X34659257Y6986648D01*
X34598952Y6841059D01*
X34511399Y6710027D01*
X34399973Y6598601D01*
X34268941Y6511048D01*
X34123352Y6450743D01*
X33968795Y6420000D01*
X33811205Y6420000D01*
X33656648Y6450743D01*
X33511059Y6511048D01*
X33380027Y6598601D01*
X33268601Y6710027D01*
X33181048Y6841059D01*
X33120743Y6986648D01*
X33090000Y7141205D01*
X33090000Y7298795D01*
X33120743Y7453352D01*
X33181048Y7598941D01*
X33268601Y7729973D01*
X33380027Y7841399D01*
X33511059Y7928952D01*
X33656648Y7989257D01*
X33811205Y8020000D01*
X33968795Y8020000D01*
X34123352Y7989257D01*
X34123352Y7989257D01*
G37*
G36*
X39770000Y6420000D02*
X38170000Y6420000D01*
X38170000Y8020000D01*
X39770000Y8020000D01*
X39770000Y6420000D01*
X39770000Y6420000D01*
G37*
G36*
X36663352Y7989257D02*
X36808941Y7928952D01*
X36939973Y7841399D01*
X37051399Y7729973D01*
X37138952Y7598941D01*
X37199257Y7453352D01*
X37230000Y7298795D01*
X37230000Y7141205D01*
X37199257Y6986648D01*
X37138952Y6841059D01*
X37051399Y6710027D01*
X36939973Y6598601D01*
X36808941Y6511048D01*
X36663352Y6450743D01*
X36508795Y6420000D01*
X36351205Y6420000D01*
X36196648Y6450743D01*
X36051059Y6511048D01*
X35920027Y6598601D01*
X35808601Y6710027D01*
X35721048Y6841059D01*
X35660743Y6986648D01*
X35630000Y7141205D01*
X35630000Y7298795D01*
X35660743Y7453352D01*
X35721048Y7598941D01*
X35808601Y7729973D01*
X35920027Y7841399D01*
X36051059Y7928952D01*
X36196648Y7989257D01*
X36351205Y8020000D01*
X36508795Y8020000D01*
X36663352Y7989257D01*
X36663352Y7989257D01*
G37*
G36*
X23963352Y7989257D02*
X24108941Y7928952D01*
X24239973Y7841399D01*
X24351399Y7729973D01*
X24438952Y7598941D01*
X24499257Y7453352D01*
X24530000Y7298795D01*
X24530000Y7141205D01*
X24499257Y6986648D01*
X24438952Y6841059D01*
X24351399Y6710027D01*
X24239973Y6598601D01*
X24108941Y6511048D01*
X23963352Y6450743D01*
X23808795Y6420000D01*
X23651205Y6420000D01*
X23496648Y6450743D01*
X23351059Y6511048D01*
X23220027Y6598601D01*
X23108601Y6710027D01*
X23021048Y6841059D01*
X22960743Y6986648D01*
X22930000Y7141205D01*
X22930000Y7298795D01*
X22960743Y7453352D01*
X23021048Y7598941D01*
X23108601Y7729973D01*
X23220027Y7841399D01*
X23351059Y7928952D01*
X23496648Y7989257D01*
X23651205Y8020000D01*
X23808795Y8020000D01*
X23963352Y7989257D01*
X23963352Y7989257D01*
G37*
G36*
X29610000Y6420000D02*
X28010000Y6420000D01*
X28010000Y8020000D01*
X29610000Y8020000D01*
X29610000Y6420000D01*
X29610000Y6420000D01*
G37*
G36*
X21990000Y6420000D02*
X20390000Y6420000D01*
X20390000Y8020000D01*
X21990000Y8020000D01*
X21990000Y6420000D01*
X21990000Y6420000D01*
G37*
G36*
X31583352Y7989257D02*
X31728941Y7928952D01*
X31859973Y7841399D01*
X31971399Y7729973D01*
X32058952Y7598941D01*
X32119257Y7453352D01*
X32150000Y7298795D01*
X32150000Y7141205D01*
X32119257Y6986648D01*
X32058952Y6841059D01*
X31971399Y6710027D01*
X31859973Y6598601D01*
X31728941Y6511048D01*
X31583352Y6450743D01*
X31428795Y6420000D01*
X31271205Y6420000D01*
X31116648Y6450743D01*
X30971059Y6511048D01*
X30840027Y6598601D01*
X30728601Y6710027D01*
X30641048Y6841059D01*
X30580743Y6986648D01*
X30550000Y7141205D01*
X30550000Y7298795D01*
X30580743Y7453352D01*
X30641048Y7598941D01*
X30728601Y7729973D01*
X30840027Y7841399D01*
X30971059Y7928952D01*
X31116648Y7989257D01*
X31271205Y8020000D01*
X31428795Y8020000D01*
X31583352Y7989257D01*
X31583352Y7989257D01*
G37*
G36*
X4090000Y7913000D02*
X2890000Y7913000D01*
X2890000Y10913000D01*
X4090000Y10913000D01*
X4090000Y7913000D01*
X4090000Y7913000D01*
G37*
G36*
X21423352Y10529257D02*
X21568941Y10468952D01*
X21699973Y10381399D01*
X21811399Y10269973D01*
X21898952Y10138941D01*
X21959257Y9993352D01*
X21990000Y9838795D01*
X21990000Y9681205D01*
X21959257Y9526648D01*
X21898952Y9381059D01*
X21811399Y9250027D01*
X21699973Y9138601D01*
X21568941Y9051048D01*
X21423352Y8990743D01*
X21268795Y8960000D01*
X21111205Y8960000D01*
X20956648Y8990743D01*
X20811059Y9051048D01*
X20680027Y9138601D01*
X20568601Y9250027D01*
X20481048Y9381059D01*
X20420743Y9526648D01*
X20390000Y9681205D01*
X20390000Y9838795D01*
X20420743Y9993352D01*
X20481048Y10138941D01*
X20568601Y10269973D01*
X20680027Y10381399D01*
X20811059Y10468952D01*
X20956648Y10529257D01*
X21111205Y10560000D01*
X21268795Y10560000D01*
X21423352Y10529257D01*
X21423352Y10529257D01*
G37*
G36*
X18688000Y9581000D02*
X17088000Y9581000D01*
X17088000Y11681000D01*
X18688000Y11681000D01*
X18688000Y9581000D01*
X18688000Y9581000D01*
G37*
G36*
X24942000Y9825000D02*
X24042000Y9825000D01*
X24042000Y10725000D01*
X24942000Y10725000D01*
X24942000Y9825000D01*
X24942000Y9825000D01*
G37*
G36*
X30290000Y9825000D02*
X29390000Y9825000D01*
X29390000Y10725000D01*
X30290000Y10725000D01*
X30290000Y9825000D01*
X30290000Y9825000D01*
G37*
G36*
X27609000Y9825000D02*
X26709000Y9825000D01*
X26709000Y10725000D01*
X27609000Y10725000D01*
X27609000Y9825000D01*
X27609000Y9825000D01*
G37*
G36*
X35125000Y9865000D02*
X33925000Y9865000D01*
X33925000Y11265000D01*
X35125000Y11265000D01*
X35125000Y9865000D01*
X35125000Y9865000D01*
G37*
G36*
X33425000Y9865000D02*
X32225000Y9865000D01*
X32225000Y11265000D01*
X33425000Y11265000D01*
X33425000Y9865000D01*
X33425000Y9865000D01*
G37*
G36*
X39735000Y9945000D02*
X38835000Y9945000D01*
X38835000Y10845000D01*
X39735000Y10845000D01*
X39735000Y9945000D01*
X39735000Y9945000D01*
G37*
G36*
X37835000Y9945000D02*
X36935000Y9945000D01*
X36935000Y10845000D01*
X37835000Y10845000D01*
X37835000Y9945000D01*
X37835000Y9945000D01*
G37*
G36*
X10730000Y10115000D02*
X9430000Y10115000D01*
X9430000Y11015000D01*
X10730000Y11015000D01*
X10730000Y10115000D01*
X10730000Y10115000D01*
G37*
G36*
X15624000Y10264500D02*
X14724000Y10264500D01*
X14724000Y11164500D01*
X15624000Y11164500D01*
X15624000Y10264500D01*
X15624000Y10264500D01*
G37*
G36*
X7670000Y10265000D02*
X6770000Y10265000D01*
X6770000Y11165000D01*
X7670000Y11165000D01*
X7670000Y10265000D01*
X7670000Y10265000D01*
G37*
G36*
X13338000Y10267000D02*
X12438000Y10267000D01*
X12438000Y11167000D01*
X13338000Y11167000D01*
X13338000Y10267000D01*
X13338000Y10267000D01*
G37*
G36*
X44283352Y13069257D02*
X44428941Y13008952D01*
X44559973Y12921399D01*
X44671399Y12809973D01*
X44758952Y12678941D01*
X44819257Y12533352D01*
X44850000Y12378795D01*
X44850000Y12221205D01*
X44819257Y12066648D01*
X44758952Y11921059D01*
X44671399Y11790027D01*
X44559973Y11678601D01*
X44428941Y11591048D01*
X44283352Y11530743D01*
X44128795Y11500000D01*
X43971205Y11500000D01*
X43816648Y11530743D01*
X43671059Y11591048D01*
X43540027Y11678601D01*
X43428601Y11790027D01*
X43341048Y11921059D01*
X43280743Y12066648D01*
X43250000Y12221205D01*
X43250000Y12378795D01*
X43280743Y12533352D01*
X43341048Y12678941D01*
X43428601Y12809973D01*
X43540027Y12921399D01*
X43671059Y13008952D01*
X43816648Y13069257D01*
X43971205Y13100000D01*
X44128795Y13100000D01*
X44283352Y13069257D01*
X44283352Y13069257D01*
G37*
G36*
X46823352Y13069257D02*
X46968941Y13008952D01*
X47099973Y12921399D01*
X47211399Y12809973D01*
X47298952Y12678941D01*
X47359257Y12533352D01*
X47390000Y12378795D01*
X47390000Y12221205D01*
X47359257Y12066648D01*
X47298952Y11921059D01*
X47211399Y11790027D01*
X47099973Y11678601D01*
X46968941Y11591048D01*
X46823352Y11530743D01*
X46668795Y11500000D01*
X46511205Y11500000D01*
X46356648Y11530743D01*
X46211059Y11591048D01*
X46080027Y11678601D01*
X45968601Y11790027D01*
X45881048Y11921059D01*
X45820743Y12066648D01*
X45790000Y12221205D01*
X45790000Y12378795D01*
X45820743Y12533352D01*
X45881048Y12678941D01*
X45968601Y12809973D01*
X46080027Y12921399D01*
X46211059Y13008952D01*
X46356648Y13069257D01*
X46511205Y13100000D01*
X46668795Y13100000D01*
X46823352Y13069257D01*
X46823352Y13069257D01*
G37*
G36*
X21423352Y13069257D02*
X21568941Y13008952D01*
X21699973Y12921399D01*
X21811399Y12809973D01*
X21898952Y12678941D01*
X21959257Y12533352D01*
X21990000Y12378795D01*
X21990000Y12221205D01*
X21959257Y12066648D01*
X21898952Y11921059D01*
X21811399Y11790027D01*
X21699973Y11678601D01*
X21568941Y11591048D01*
X21423352Y11530743D01*
X21268795Y11500000D01*
X21111205Y11500000D01*
X20956648Y11530743D01*
X20811059Y11591048D01*
X20680027Y11678601D01*
X20568601Y11790027D01*
X20481048Y11921059D01*
X20420743Y12066648D01*
X20390000Y12221205D01*
X20390000Y12378795D01*
X20420743Y12533352D01*
X20481048Y12678941D01*
X20568601Y12809973D01*
X20680027Y12921399D01*
X20811059Y13008952D01*
X20956648Y13069257D01*
X21111205Y13100000D01*
X21268795Y13100000D01*
X21423352Y13069257D01*
X21423352Y13069257D01*
G37*
G36*
X30290000Y11725000D02*
X29390000Y11725000D01*
X29390000Y12625000D01*
X30290000Y12625000D01*
X30290000Y11725000D01*
X30290000Y11725000D01*
G37*
G36*
X27609000Y11725000D02*
X26709000Y11725000D01*
X26709000Y12625000D01*
X27609000Y12625000D01*
X27609000Y11725000D01*
X27609000Y11725000D01*
G37*
G36*
X24942000Y11725000D02*
X24042000Y11725000D01*
X24042000Y12625000D01*
X24942000Y12625000D01*
X24942000Y11725000D01*
X24942000Y11725000D01*
G37*
G36*
X4090000Y11913000D02*
X2890000Y11913000D01*
X2890000Y14913000D01*
X4090000Y14913000D01*
X4090000Y11913000D01*
X4090000Y11913000D01*
G37*
G36*
X35125000Y12065000D02*
X33925000Y12065000D01*
X33925000Y13465000D01*
X35125000Y13465000D01*
X35125000Y12065000D01*
X35125000Y12065000D01*
G37*
G36*
X33425000Y12065000D02*
X32225000Y12065000D01*
X32225000Y13465000D01*
X33425000Y13465000D01*
X33425000Y12065000D01*
X33425000Y12065000D01*
G37*
G36*
X15624000Y12164500D02*
X14724000Y12164500D01*
X14724000Y13064500D01*
X15624000Y13064500D01*
X15624000Y12164500D01*
X15624000Y12164500D01*
G37*
G36*
X7670000Y12165000D02*
X6770000Y12165000D01*
X6770000Y13065000D01*
X7670000Y13065000D01*
X7670000Y12165000D01*
X7670000Y12165000D01*
G37*
G36*
X13338000Y12167000D02*
X12438000Y12167000D01*
X12438000Y13067000D01*
X13338000Y13067000D01*
X13338000Y12167000D01*
X13338000Y12167000D01*
G37*
G36*
X10730000Y12315000D02*
X9430000Y12315000D01*
X9430000Y13215000D01*
X10730000Y13215000D01*
X10730000Y12315000D01*
X10730000Y12315000D01*
G37*
G36*
X37835000Y12485000D02*
X36935000Y12485000D01*
X36935000Y13385000D01*
X37835000Y13385000D01*
X37835000Y12485000D01*
X37835000Y12485000D01*
G37*
G36*
X39735000Y12485000D02*
X38835000Y12485000D01*
X38835000Y13385000D01*
X39735000Y13385000D01*
X39735000Y12485000D01*
X39735000Y12485000D01*
G37*
G36*
X17468000Y12741000D02*
X16568000Y12741000D01*
X16568000Y13641000D01*
X17468000Y13641000D01*
X17468000Y12741000D01*
X17468000Y12741000D01*
G37*
G36*
X19368000Y12741000D02*
X18468000Y12741000D01*
X18468000Y13641000D01*
X19368000Y13641000D01*
X19368000Y12741000D01*
X19368000Y12741000D01*
G37*
G36*
X46823352Y15609257D02*
X46968941Y15548952D01*
X47099973Y15461399D01*
X47211399Y15349973D01*
X47298952Y15218941D01*
X47359257Y15073352D01*
X47390000Y14918795D01*
X47390000Y14761205D01*
X47359257Y14606648D01*
X47298952Y14461059D01*
X47211399Y14330027D01*
X47099973Y14218601D01*
X46968941Y14131048D01*
X46823352Y14070743D01*
X46668795Y14040000D01*
X46511205Y14040000D01*
X46356648Y14070743D01*
X46211059Y14131048D01*
X46080027Y14218601D01*
X45968601Y14330027D01*
X45881048Y14461059D01*
X45820743Y14606648D01*
X45790000Y14761205D01*
X45790000Y14918795D01*
X45820743Y15073352D01*
X45881048Y15218941D01*
X45968601Y15349973D01*
X46080027Y15461399D01*
X46211059Y15548952D01*
X46356648Y15609257D01*
X46511205Y15640000D01*
X46668795Y15640000D01*
X46823352Y15609257D01*
X46823352Y15609257D01*
G37*
G36*
X44283352Y15609257D02*
X44428941Y15548952D01*
X44559973Y15461399D01*
X44671399Y15349973D01*
X44758952Y15218941D01*
X44819257Y15073352D01*
X44850000Y14918795D01*
X44850000Y14761205D01*
X44819257Y14606648D01*
X44758952Y14461059D01*
X44671399Y14330027D01*
X44559973Y14218601D01*
X44428941Y14131048D01*
X44283352Y14070743D01*
X44128795Y14040000D01*
X43971205Y14040000D01*
X43816648Y14070743D01*
X43671059Y14131048D01*
X43540027Y14218601D01*
X43428601Y14330027D01*
X43341048Y14461059D01*
X43280743Y14606648D01*
X43250000Y14761205D01*
X43250000Y14918795D01*
X43280743Y15073352D01*
X43341048Y15218941D01*
X43428601Y15349973D01*
X43540027Y15461399D01*
X43671059Y15548952D01*
X43816648Y15609257D01*
X43971205Y15640000D01*
X44128795Y15640000D01*
X44283352Y15609257D01*
X44283352Y15609257D01*
G37*
G36*
X28390000Y14265000D02*
X27490000Y14265000D01*
X27490000Y15165000D01*
X28390000Y15165000D01*
X28390000Y14265000D01*
X28390000Y14265000D01*
G37*
G36*
X30290000Y14265000D02*
X29390000Y14265000D01*
X29390000Y15165000D01*
X30290000Y15165000D01*
X30290000Y14265000D01*
X30290000Y14265000D01*
G37*
G36*
X10337000Y14519500D02*
X9437000Y14519500D01*
X9437000Y15419500D01*
X10337000Y15419500D01*
X10337000Y14519500D01*
X10337000Y14519500D01*
G37*
G36*
X39735000Y15025000D02*
X38835000Y15025000D01*
X38835000Y15925000D01*
X39735000Y15925000D01*
X39735000Y15025000D01*
X39735000Y15025000D01*
G37*
G36*
X37835000Y15025000D02*
X36935000Y15025000D01*
X36935000Y15925000D01*
X37835000Y15925000D01*
X37835000Y15025000D01*
X37835000Y15025000D01*
G37*
G36*
X33390000Y15025000D02*
X32490000Y15025000D01*
X32490000Y15925000D01*
X33390000Y15925000D01*
X33390000Y15025000D01*
X33390000Y15025000D01*
G37*
G36*
X35290000Y15025000D02*
X34390000Y15025000D01*
X34390000Y15925000D01*
X35290000Y15925000D01*
X35290000Y15025000D01*
X35290000Y15025000D01*
G37*
G36*
X18658000Y15279000D02*
X17758000Y15279000D01*
X17758000Y16179000D01*
X18658000Y16179000D01*
X18658000Y15279000D01*
X18658000Y15279000D01*
G37*
G36*
X20558000Y15279000D02*
X19658000Y15279000D01*
X19658000Y16179000D01*
X20558000Y16179000D01*
X20558000Y15279000D01*
X20558000Y15279000D01*
G37*
G36*
X23291000Y15345000D02*
X22391000Y15345000D01*
X22391000Y16245000D01*
X23291000Y16245000D01*
X23291000Y15345000D01*
X23291000Y15345000D01*
G37*
G36*
X14989000Y15872000D02*
X11389000Y15872000D01*
X11389000Y17872000D01*
X14989000Y17872000D01*
X14989000Y15872000D01*
X14989000Y15872000D01*
G37*
G36*
X10337000Y16419500D02*
X9437000Y16419500D01*
X9437000Y17319500D01*
X10337000Y17319500D01*
X10337000Y16419500D01*
X10337000Y16419500D01*
G37*
G36*
X46823352Y18149257D02*
X46968941Y18088952D01*
X47099973Y18001399D01*
X47211399Y17889973D01*
X47298952Y17758941D01*
X47359257Y17613352D01*
X47390000Y17458795D01*
X47390000Y17301205D01*
X47359257Y17146648D01*
X47298952Y17001059D01*
X47211399Y16870027D01*
X47099973Y16758601D01*
X46968941Y16671048D01*
X46823352Y16610743D01*
X46668795Y16580000D01*
X46511205Y16580000D01*
X46356648Y16610743D01*
X46211059Y16671048D01*
X46080027Y16758601D01*
X45968601Y16870027D01*
X45881048Y17001059D01*
X45820743Y17146648D01*
X45790000Y17301205D01*
X45790000Y17458795D01*
X45820743Y17613352D01*
X45881048Y17758941D01*
X45968601Y17889973D01*
X46080027Y18001399D01*
X46211059Y18088952D01*
X46356648Y18149257D01*
X46511205Y18180000D01*
X46668795Y18180000D01*
X46823352Y18149257D01*
X46823352Y18149257D01*
G37*
G36*
X44283352Y18149257D02*
X44428941Y18088952D01*
X44559973Y18001399D01*
X44671399Y17889973D01*
X44758952Y17758941D01*
X44819257Y17613352D01*
X44850000Y17458795D01*
X44850000Y17301205D01*
X44819257Y17146648D01*
X44758952Y17001059D01*
X44671399Y16870027D01*
X44559973Y16758601D01*
X44428941Y16671048D01*
X44283352Y16610743D01*
X44128795Y16580000D01*
X43971205Y16580000D01*
X43816648Y16610743D01*
X43671059Y16671048D01*
X43540027Y16758601D01*
X43428601Y16870027D01*
X43341048Y17001059D01*
X43280743Y17146648D01*
X43250000Y17301205D01*
X43250000Y17458795D01*
X43280743Y17613352D01*
X43341048Y17758941D01*
X43428601Y17889973D01*
X43540027Y18001399D01*
X43671059Y18088952D01*
X43816648Y18149257D01*
X43971205Y18180000D01*
X44128795Y18180000D01*
X44283352Y18149257D01*
X44283352Y18149257D01*
G37*
G36*
X30290000Y16805000D02*
X29390000Y16805000D01*
X29390000Y17705000D01*
X30290000Y17705000D01*
X30290000Y16805000D01*
X30290000Y16805000D01*
G37*
G36*
X28390000Y16805000D02*
X27490000Y16805000D01*
X27490000Y17705000D01*
X28390000Y17705000D01*
X28390000Y16805000D01*
X28390000Y16805000D01*
G37*
G36*
X25958000Y17123000D02*
X25058000Y17123000D01*
X25058000Y18023000D01*
X25958000Y18023000D01*
X25958000Y17123000D01*
X25958000Y17123000D01*
G37*
G36*
X6100000Y17198000D02*
X4900000Y17198000D01*
X4900000Y19198000D01*
X6100000Y19198000D01*
X6100000Y17198000D01*
X6100000Y17198000D01*
G37*
G36*
X3814000Y17198000D02*
X2614000Y17198000D01*
X2614000Y19198000D01*
X3814000Y19198000D01*
X3814000Y17198000D01*
X3814000Y17198000D01*
G37*
G36*
X8386000Y17198000D02*
X7186000Y17198000D01*
X7186000Y19198000D01*
X8386000Y19198000D01*
X8386000Y17198000D01*
X8386000Y17198000D01*
G37*
G36*
X23291000Y17245000D02*
X22391000Y17245000D01*
X22391000Y18145000D01*
X23291000Y18145000D01*
X23291000Y17245000D01*
X23291000Y17245000D01*
G37*
G36*
X39735000Y17565000D02*
X38835000Y17565000D01*
X38835000Y18465000D01*
X39735000Y18465000D01*
X39735000Y17565000D01*
X39735000Y17565000D01*
G37*
G36*
X37835000Y17565000D02*
X36935000Y17565000D01*
X36935000Y18465000D01*
X37835000Y18465000D01*
X37835000Y17565000D01*
X37835000Y17565000D01*
G37*
G36*
X33390001Y17565000D02*
X32490001Y17565000D01*
X32490001Y18465000D01*
X33390001Y18465000D01*
X33390001Y17565000D01*
X33390001Y17565000D01*
G37*
G36*
X35289999Y17565000D02*
X34389999Y17565000D01*
X34389999Y18465000D01*
X35289999Y18465000D01*
X35289999Y17565000D01*
X35289999Y17565000D01*
G37*
G36*
X18658000Y17819000D02*
X17758000Y17819000D01*
X17758000Y18719000D01*
X18658000Y18719000D01*
X18658000Y17819000D01*
X18658000Y17819000D01*
G37*
G36*
X20558000Y17819000D02*
X19658000Y17819000D01*
X19658000Y18719000D01*
X20558000Y18719000D01*
X20558000Y17819000D01*
X20558000Y17819000D01*
G37*
G36*
X25958000Y19023000D02*
X25058000Y19023000D01*
X25058000Y19923000D01*
X25958000Y19923000D01*
X25958000Y19023000D01*
X25958000Y19023000D01*
G37*
G36*
X44283352Y20689257D02*
X44428941Y20628952D01*
X44559973Y20541399D01*
X44671399Y20429973D01*
X44758952Y20298941D01*
X44819257Y20153352D01*
X44850000Y19998795D01*
X44850000Y19841205D01*
X44819257Y19686648D01*
X44758952Y19541059D01*
X44671399Y19410027D01*
X44559973Y19298601D01*
X44428941Y19211048D01*
X44283352Y19150743D01*
X44128795Y19120000D01*
X43971205Y19120000D01*
X43816648Y19150743D01*
X43671059Y19211048D01*
X43540027Y19298601D01*
X43428601Y19410027D01*
X43341048Y19541059D01*
X43280743Y19686648D01*
X43250000Y19841205D01*
X43250000Y19998795D01*
X43280743Y20153352D01*
X43341048Y20298941D01*
X43428601Y20429973D01*
X43540027Y20541399D01*
X43671059Y20628952D01*
X43816648Y20689257D01*
X43971205Y20720000D01*
X44128795Y20720000D01*
X44283352Y20689257D01*
X44283352Y20689257D01*
G37*
G36*
X46823352Y20689257D02*
X46968941Y20628952D01*
X47099973Y20541399D01*
X47211399Y20429973D01*
X47298952Y20298941D01*
X47359257Y20153352D01*
X47390000Y19998795D01*
X47390000Y19841205D01*
X47359257Y19686648D01*
X47298952Y19541059D01*
X47211399Y19410027D01*
X47099973Y19298601D01*
X46968941Y19211048D01*
X46823352Y19150743D01*
X46668795Y19120000D01*
X46511205Y19120000D01*
X46356648Y19150743D01*
X46211059Y19211048D01*
X46080027Y19298601D01*
X45968601Y19410027D01*
X45881048Y19541059D01*
X45820743Y19686648D01*
X45790000Y19841205D01*
X45790000Y19998795D01*
X45820743Y20153352D01*
X45881048Y20298941D01*
X45968601Y20429973D01*
X46080027Y20541399D01*
X46211059Y20628952D01*
X46356648Y20689257D01*
X46511205Y20720000D01*
X46668795Y20720000D01*
X46823352Y20689257D01*
X46823352Y20689257D01*
G37*
G36*
X30290000Y19345000D02*
X29390000Y19345000D01*
X29390000Y20245000D01*
X30290000Y20245000D01*
X30290000Y19345000D01*
X30290000Y19345000D01*
G37*
G36*
X28390000Y19345000D02*
X27490000Y19345000D01*
X27490000Y20245000D01*
X28390000Y20245000D01*
X28390000Y19345000D01*
X28390000Y19345000D01*
G37*
G36*
X35290000Y20105000D02*
X34390000Y20105000D01*
X34390000Y21005000D01*
X35290000Y21005000D01*
X35290000Y20105000D01*
X35290000Y20105000D01*
G37*
G36*
X33390000Y20105000D02*
X32490000Y20105000D01*
X32490000Y21005000D01*
X33390000Y21005000D01*
X33390000Y20105000D01*
X33390000Y20105000D01*
G37*
G36*
X39735000Y20105000D02*
X38835000Y20105000D01*
X38835000Y21005000D01*
X39735000Y21005000D01*
X39735000Y20105000D01*
X39735000Y20105000D01*
G37*
G36*
X37835000Y20105000D02*
X36935000Y20105000D01*
X36935000Y21005000D01*
X37835000Y21005000D01*
X37835000Y20105000D01*
X37835000Y20105000D01*
G37*
G36*
X20558000Y20359000D02*
X19658000Y20359000D01*
X19658000Y21259000D01*
X20558000Y21259000D01*
X20558000Y20359000D01*
X20558000Y20359000D01*
G37*
G36*
X18658000Y20359000D02*
X17758000Y20359000D01*
X17758000Y21259000D01*
X18658000Y21259000D01*
X18658000Y20359000D01*
X18658000Y20359000D01*
G37*
G36*
X32130845Y22305785D02*
X32221839Y22268094D01*
X32259083Y22243208D01*
X32303734Y22213373D01*
X32373373Y22143734D01*
X32373375Y22143731D01*
X32428094Y22061839D01*
X32465785Y21970845D01*
X32485000Y21874246D01*
X32485000Y21775754D01*
X32468090Y21690743D01*
X32465785Y21679155D01*
X32428095Y21588163D01*
X32373373Y21506266D01*
X32303734Y21436627D01*
X32303731Y21436625D01*
X32221839Y21381906D01*
X32130845Y21344215D01*
X32034246Y21325000D01*
X31935754Y21325000D01*
X31839155Y21344215D01*
X31748161Y21381906D01*
X31666269Y21436625D01*
X31666266Y21436627D01*
X31596627Y21506266D01*
X31541905Y21588163D01*
X31504215Y21679155D01*
X31501910Y21690743D01*
X31485000Y21775754D01*
X31485000Y21874246D01*
X31504215Y21970845D01*
X31541906Y22061839D01*
X31596625Y22143731D01*
X31596627Y22143734D01*
X31666266Y22213373D01*
X31710917Y22243208D01*
X31748161Y22268094D01*
X31839155Y22305785D01*
X31935754Y22325000D01*
X32034246Y22325000D01*
X32130845Y22305785D01*
X32130845Y22305785D01*
G37*
G36*
X46823352Y23229257D02*
X46968941Y23168952D01*
X47099973Y23081399D01*
X47211399Y22969973D01*
X47298952Y22838941D01*
X47359257Y22693352D01*
X47390000Y22538795D01*
X47390000Y22381205D01*
X47359257Y22226648D01*
X47298952Y22081059D01*
X47211399Y21950027D01*
X47099973Y21838601D01*
X46968941Y21751048D01*
X46823352Y21690743D01*
X46668795Y21660000D01*
X46511205Y21660000D01*
X46356648Y21690743D01*
X46211059Y21751048D01*
X46080027Y21838601D01*
X45968601Y21950027D01*
X45881048Y22081059D01*
X45820743Y22226648D01*
X45790000Y22381205D01*
X45790000Y22538795D01*
X45820743Y22693352D01*
X45881048Y22838941D01*
X45968601Y22969973D01*
X46080027Y23081399D01*
X46211059Y23168952D01*
X46356648Y23229257D01*
X46511205Y23260000D01*
X46668795Y23260000D01*
X46823352Y23229257D01*
X46823352Y23229257D01*
G37*
G36*
X44850000Y21660000D02*
X43250000Y21660000D01*
X43250000Y23260000D01*
X44850000Y23260000D01*
X44850000Y21660000D01*
X44850000Y21660000D01*
G37*
G36*
X26604480Y22950315D02*
X25543819Y21889654D01*
X25013489Y22419984D01*
X26074150Y23480645D01*
X26604480Y22950315D01*
X26604480Y22950315D01*
G37*
G36*
X28796511Y22419984D02*
X28266181Y21889654D01*
X27205520Y22950315D01*
X27735850Y23480645D01*
X28796511Y22419984D01*
X28796511Y22419984D01*
G37*
G36*
X16075000Y22476000D02*
X14875000Y22476000D01*
X14875000Y24476000D01*
X16075000Y24476000D01*
X16075000Y22476000D01*
X16075000Y22476000D01*
G37*
G36*
X13789000Y22476000D02*
X12589000Y22476000D01*
X12589000Y24476000D01*
X13789000Y24476000D01*
X13789000Y22476000D01*
X13789000Y22476000D01*
G37*
G36*
X11503000Y22476000D02*
X10303000Y22476000D01*
X10303000Y24476000D01*
X11503000Y24476000D01*
X11503000Y22476000D01*
X11503000Y22476000D01*
G37*
G36*
X29150065Y22773537D02*
X28973288Y22596760D01*
X27912627Y23657421D01*
X28089404Y23834198D01*
X29150065Y22773537D01*
X29150065Y22773537D01*
G37*
G36*
X25897373Y23657421D02*
X24836712Y22596760D01*
X24659935Y22773537D01*
X25720596Y23834198D01*
X25897373Y23657421D01*
X25897373Y23657421D01*
G37*
G36*
X37835000Y22645000D02*
X36935000Y22645000D01*
X36935000Y23545000D01*
X37835000Y23545000D01*
X37835000Y22645000D01*
X37835000Y22645000D01*
G37*
G36*
X39735000Y22645000D02*
X38835000Y22645000D01*
X38835000Y23545000D01*
X39735000Y23545000D01*
X39735000Y22645000D01*
X39735000Y22645000D01*
G37*
G36*
X25543820Y24010975D02*
X24483159Y22950314D01*
X23952829Y23480644D01*
X25013490Y24541305D01*
X25543820Y24010975D01*
X25543820Y24010975D01*
G37*
G36*
X29857171Y23480644D02*
X29326841Y22950314D01*
X28266180Y24010975D01*
X28796510Y24541305D01*
X29857171Y23480644D01*
X29857171Y23480644D01*
G37*
G36*
X18658001Y23026000D02*
X17758001Y23026000D01*
X17758001Y23926000D01*
X18658001Y23926000D01*
X18658001Y23026000D01*
X18658001Y23026000D01*
G37*
G36*
X20557999Y23026000D02*
X19657999Y23026000D01*
X19657999Y23926000D01*
X20557999Y23926000D01*
X20557999Y23026000D01*
X20557999Y23026000D01*
G37*
G36*
X24836713Y24718081D02*
X23776052Y23657420D01*
X23599275Y23834197D01*
X24659936Y24894858D01*
X24836713Y24718081D01*
X24836713Y24718081D01*
G37*
G36*
X30210725Y23834197D02*
X30033948Y23657420D01*
X28973287Y24718081D01*
X29150064Y24894858D01*
X30210725Y23834197D01*
X30210725Y23834197D01*
G37*
G36*
X7300000Y23802000D02*
X3700000Y23802000D01*
X3700000Y25802000D01*
X7300000Y25802000D01*
X7300000Y23802000D01*
X7300000Y23802000D01*
G37*
G36*
X24483160Y25071635D02*
X23422499Y24010974D01*
X23245722Y24187751D01*
X24306383Y25248412D01*
X24483160Y25071635D01*
X24483160Y25071635D01*
G37*
G36*
X30564278Y24187751D02*
X30387501Y24010974D01*
X29326840Y25071635D01*
X29503617Y25248412D01*
X30564278Y24187751D01*
X30564278Y24187751D01*
G37*
G36*
X24129606Y25425188D02*
X23068945Y24364527D01*
X22892168Y24541304D01*
X23952829Y25601965D01*
X24129606Y25425188D01*
X24129606Y25425188D01*
G37*
G36*
X30917832Y24541304D02*
X30741055Y24364527D01*
X29680394Y25425188D01*
X29857171Y25601965D01*
X30917832Y24541304D01*
X30917832Y24541304D01*
G37*
G36*
X23776053Y25778742D02*
X22715392Y24718081D01*
X22185062Y25248411D01*
X23245723Y26309072D01*
X23776053Y25778742D01*
X23776053Y25778742D01*
G37*
G36*
X31624938Y25248411D02*
X31094608Y24718081D01*
X30033947Y25778742D01*
X30564277Y26309072D01*
X31624938Y25248411D01*
X31624938Y25248411D01*
G37*
G36*
X46930935Y27731571D02*
X47027534Y27712356D01*
X47300517Y27599283D01*
X47379498Y27546509D01*
X47546197Y27435124D01*
X47755124Y27226197D01*
X47755126Y27226194D01*
X47919283Y26980517D01*
X47977735Y26839402D01*
X48032356Y26707533D01*
X48090000Y26417739D01*
X48090000Y26122261D01*
X48054808Y25945338D01*
X48032356Y25832466D01*
X47952402Y25639440D01*
X47919284Y25559485D01*
X47755124Y25313803D01*
X47546197Y25104876D01*
X47546194Y25104874D01*
X47300517Y24940717D01*
X47027534Y24827644D01*
X46930935Y24808429D01*
X46737739Y24770000D01*
X46442261Y24770000D01*
X46249065Y24808429D01*
X46152466Y24827644D01*
X45879483Y24940717D01*
X45633806Y25104874D01*
X45633803Y25104876D01*
X45424876Y25313803D01*
X45260716Y25559485D01*
X45227598Y25639440D01*
X45147644Y25832466D01*
X45125192Y25945338D01*
X45090000Y26122261D01*
X45090000Y26417739D01*
X45147644Y26707533D01*
X45202266Y26839402D01*
X45260717Y26980517D01*
X45424874Y27226194D01*
X45424876Y27226197D01*
X45633803Y27435124D01*
X45800502Y27546509D01*
X45879483Y27599283D01*
X46152466Y27712356D01*
X46249065Y27731571D01*
X46442261Y27770000D01*
X46737739Y27770000D01*
X46930935Y27731571D01*
X46930935Y27731571D01*
G37*
G36*
X37835000Y24870000D02*
X36935000Y24870000D01*
X36935000Y25770000D01*
X37835000Y25770000D01*
X37835000Y24870000D01*
X37835000Y24870000D01*
G37*
G36*
X39735000Y24870000D02*
X38835000Y24870000D01*
X38835000Y25770000D01*
X39735000Y25770000D01*
X39735000Y24870000D01*
X39735000Y24870000D01*
G37*
G36*
X23068946Y26485848D02*
X22008285Y25425187D01*
X21831508Y25601964D01*
X22892169Y26662625D01*
X23068946Y26485848D01*
X23068946Y26485848D01*
G37*
G36*
X31978492Y25601964D02*
X31801715Y25425187D01*
X30741054Y26485848D01*
X30917831Y26662625D01*
X31978492Y25601964D01*
X31978492Y25601964D01*
G37*
G36*
X30652667Y29438019D02*
X26905000Y25690352D01*
X23157333Y29438019D01*
X26905000Y33185686D01*
X30652667Y29438019D01*
X30652667Y29438019D01*
G37*
G36*
X32332045Y25955518D02*
X32155268Y25778741D01*
X31094607Y26839402D01*
X31271384Y27016179D01*
X32332045Y25955518D01*
X32332045Y25955518D01*
G37*
G36*
X22715393Y26839402D02*
X21654732Y25778741D01*
X21477955Y25955518D01*
X22538616Y27016179D01*
X22715393Y26839402D01*
X22715393Y26839402D01*
G37*
G36*
X14975000Y25820000D02*
X14075000Y25820000D01*
X14075000Y26720000D01*
X14975000Y26720000D01*
X14975000Y25820000D01*
X14975000Y25820000D01*
G37*
G36*
X16875000Y25820000D02*
X15975000Y25820000D01*
X15975000Y26720000D01*
X16875000Y26720000D01*
X16875000Y25820000D01*
X16875000Y25820000D01*
G37*
G36*
X22361839Y27192955D02*
X21301178Y26132294D01*
X21124401Y26309071D01*
X22185062Y27369732D01*
X22361839Y27192955D01*
X22361839Y27192955D01*
G37*
G36*
X32685599Y26309071D02*
X32508822Y26132294D01*
X31448161Y27192955D01*
X31624938Y27369732D01*
X32685599Y26309071D01*
X32685599Y26309071D01*
G37*
G36*
X10995000Y26391500D02*
X9795000Y26391500D01*
X9795000Y29391500D01*
X10995000Y29391500D01*
X10995000Y26391500D01*
X10995000Y26391500D01*
G37*
G36*
X33392705Y27016178D02*
X32862375Y26485848D01*
X31801714Y27546509D01*
X32332044Y28076839D01*
X33392705Y27016178D01*
X33392705Y27016178D01*
G37*
G36*
X22008286Y27546509D02*
X20947625Y26485848D01*
X20417295Y27016178D01*
X21477956Y28076839D01*
X22008286Y27546509D01*
X22008286Y27546509D01*
G37*
G36*
X5900000Y27090000D02*
X5000000Y27090000D01*
X5000000Y27990000D01*
X5900000Y27990000D01*
X5900000Y27090000D01*
X5900000Y27090000D01*
G37*
G36*
X4000000Y27090000D02*
X3100000Y27090000D01*
X3100000Y27990000D01*
X4000000Y27990000D01*
X4000000Y27090000D01*
X4000000Y27090000D01*
G37*
G36*
X21301179Y28253615D02*
X20240518Y27192954D01*
X20063741Y27369731D01*
X21124402Y28430392D01*
X21301179Y28253615D01*
X21301179Y28253615D01*
G37*
G36*
X33746259Y27369731D02*
X33569482Y27192954D01*
X32508821Y28253615D01*
X32685598Y28430392D01*
X33746259Y27369731D01*
X33746259Y27369731D01*
G37*
G36*
X40055000Y27410000D02*
X39155000Y27410000D01*
X39155000Y28310000D01*
X40055000Y28310000D01*
X40055000Y27410000D01*
X40055000Y27410000D01*
G37*
G36*
X37515000Y27410000D02*
X36615000Y27410000D01*
X36615000Y28310000D01*
X37515000Y28310000D01*
X37515000Y27410000D01*
X37515000Y27410000D01*
G37*
G36*
X34453365Y28076838D02*
X33923035Y27546508D01*
X32862374Y28607169D01*
X33392704Y29137499D01*
X34453365Y28076838D01*
X34453365Y28076838D01*
G37*
G36*
X20947626Y28607169D02*
X19886965Y27546508D01*
X19356635Y28076838D01*
X20417296Y29137499D01*
X20947626Y28607169D01*
X20947626Y28607169D01*
G37*
G36*
X16875000Y28360000D02*
X15975000Y28360000D01*
X15975000Y29260000D01*
X16875000Y29260000D01*
X16875000Y28360000D01*
X16875000Y28360000D01*
G37*
G36*
X14975000Y28360000D02*
X14075000Y28360000D01*
X14075000Y29260000D01*
X14975000Y29260000D01*
X14975000Y28360000D01*
X14975000Y28360000D01*
G37*
G36*
X6183352Y30849257D02*
X6328941Y30788952D01*
X6459973Y30701399D01*
X6571399Y30589973D01*
X6658952Y30458941D01*
X6719257Y30313352D01*
X6750000Y30158795D01*
X6750000Y30001205D01*
X6719257Y29846648D01*
X6658952Y29701059D01*
X6571399Y29570027D01*
X6459973Y29458601D01*
X6328941Y29371048D01*
X6183352Y29310743D01*
X6028795Y29280000D01*
X5871205Y29280000D01*
X5716648Y29310743D01*
X5571059Y29371048D01*
X5440027Y29458601D01*
X5328601Y29570027D01*
X5241048Y29701059D01*
X5180743Y29846648D01*
X5150000Y30001205D01*
X5150000Y30158795D01*
X5180743Y30313352D01*
X5241048Y30458941D01*
X5328601Y30589973D01*
X5440027Y30701399D01*
X5571059Y30788952D01*
X5716648Y30849257D01*
X5871205Y30880000D01*
X6028795Y30880000D01*
X6183352Y30849257D01*
X6183352Y30849257D01*
G37*
G36*
X44850000Y29280000D02*
X43250000Y29280000D01*
X43250000Y30880000D01*
X44850000Y30880000D01*
X44850000Y29280000D01*
X44850000Y29280000D01*
G37*
G36*
X47390000Y29280000D02*
X45790000Y29280000D01*
X45790000Y30880000D01*
X47390000Y30880000D01*
X47390000Y29280000D01*
X47390000Y29280000D01*
G37*
G36*
X3643352Y30849257D02*
X3788941Y30788952D01*
X3919973Y30701399D01*
X4031399Y30589973D01*
X4118952Y30458941D01*
X4179257Y30313352D01*
X4210000Y30158795D01*
X4210000Y30001205D01*
X4179257Y29846648D01*
X4118952Y29701059D01*
X4031399Y29570027D01*
X3919973Y29458601D01*
X3788941Y29371048D01*
X3643352Y29310743D01*
X3488795Y29280000D01*
X3331205Y29280000D01*
X3176648Y29310743D01*
X3031059Y29371048D01*
X2900027Y29458601D01*
X2788601Y29570027D01*
X2701048Y29701059D01*
X2640743Y29846648D01*
X2610000Y30001205D01*
X2610000Y30158795D01*
X2640743Y30313352D01*
X2701048Y30458941D01*
X2788601Y30589973D01*
X2900027Y30701399D01*
X3031059Y30788952D01*
X3176648Y30849257D01*
X3331205Y30880000D01*
X3488795Y30880000D01*
X3643352Y30849257D01*
X3643352Y30849257D01*
G37*
G36*
X40055000Y29310000D02*
X39155000Y29310000D01*
X39155000Y30210000D01*
X40055000Y30210000D01*
X40055000Y29310000D01*
X40055000Y29310000D01*
G37*
G36*
X37515000Y29310000D02*
X36615000Y29310000D01*
X36615000Y30210000D01*
X37515000Y30210000D01*
X37515000Y29310000D01*
X37515000Y29310000D01*
G37*
G36*
X34453365Y30799200D02*
X33392704Y29738539D01*
X32862374Y30268869D01*
X33923035Y31329530D01*
X34453365Y30799200D01*
X34453365Y30799200D01*
G37*
G36*
X20947626Y30268869D02*
X20417296Y29738539D01*
X19356635Y30799200D01*
X19886965Y31329530D01*
X20947626Y30268869D01*
X20947626Y30268869D01*
G37*
G36*
X10995000Y30391500D02*
X9795000Y30391500D01*
X9795000Y33391500D01*
X10995000Y33391500D01*
X10995000Y30391500D01*
X10995000Y30391500D01*
G37*
G36*
X33746259Y31506307D02*
X32685598Y30445646D01*
X32508821Y30622423D01*
X33569482Y31683084D01*
X33746259Y31506307D01*
X33746259Y31506307D01*
G37*
G36*
X21301179Y30622423D02*
X21124402Y30445646D01*
X20063741Y31506307D01*
X20240518Y31683084D01*
X21301179Y30622423D01*
X21301179Y30622423D01*
G37*
G36*
X17195000Y30585000D02*
X16295000Y30585000D01*
X16295000Y31485000D01*
X17195000Y31485000D01*
X17195000Y30585000D01*
X17195000Y30585000D01*
G37*
G36*
X14655000Y30585000D02*
X13755000Y30585000D01*
X13755000Y31485000D01*
X14655000Y31485000D01*
X14655000Y30585000D01*
X14655000Y30585000D01*
G37*
G36*
X22008286Y31329529D02*
X21477956Y30799199D01*
X20417295Y31859860D01*
X20947625Y32390190D01*
X22008286Y31329529D01*
X22008286Y31329529D01*
G37*
G36*
X33392705Y31859860D02*
X32332044Y30799199D01*
X31801714Y31329529D01*
X32862375Y32390190D01*
X33392705Y31859860D01*
X33392705Y31859860D01*
G37*
G36*
X22361839Y31683083D02*
X22185062Y31506306D01*
X21124401Y32566967D01*
X21301178Y32743744D01*
X22361839Y31683083D01*
X22361839Y31683083D01*
G37*
G36*
X32685599Y32566967D02*
X31624938Y31506306D01*
X31448161Y31683083D01*
X32508822Y32743744D01*
X32685599Y32566967D01*
X32685599Y32566967D01*
G37*
G36*
X39735000Y31535000D02*
X38835000Y31535000D01*
X38835000Y32435000D01*
X39735000Y32435000D01*
X39735000Y31535000D01*
X39735000Y31535000D01*
G37*
G36*
X37835000Y31535000D02*
X36935000Y31535000D01*
X36935000Y32435000D01*
X37835000Y32435000D01*
X37835000Y31535000D01*
X37835000Y31535000D01*
G37*
G36*
X3643352Y33389257D02*
X3788941Y33328952D01*
X3919973Y33241399D01*
X4031399Y33129973D01*
X4118952Y32998941D01*
X4179257Y32853352D01*
X4210000Y32698795D01*
X4210000Y32541205D01*
X4179257Y32386648D01*
X4118952Y32241059D01*
X4031399Y32110027D01*
X3919973Y31998601D01*
X3788941Y31911048D01*
X3643352Y31850743D01*
X3488795Y31820000D01*
X3331205Y31820000D01*
X3176648Y31850743D01*
X3031059Y31911048D01*
X2900027Y31998601D01*
X2788601Y32110027D01*
X2701048Y32241059D01*
X2640743Y32386648D01*
X2610000Y32541205D01*
X2610000Y32698795D01*
X2640743Y32853352D01*
X2701048Y32998941D01*
X2788601Y33129973D01*
X2900027Y33241399D01*
X3031059Y33328952D01*
X3176648Y33389257D01*
X3331205Y33420000D01*
X3488795Y33420000D01*
X3643352Y33389257D01*
X3643352Y33389257D01*
G37*
G36*
X6183352Y33389257D02*
X6328941Y33328952D01*
X6459973Y33241399D01*
X6571399Y33129973D01*
X6658952Y32998941D01*
X6719257Y32853352D01*
X6750000Y32698795D01*
X6750000Y32541205D01*
X6719257Y32386648D01*
X6658952Y32241059D01*
X6571399Y32110027D01*
X6459973Y31998601D01*
X6328941Y31911048D01*
X6183352Y31850743D01*
X6028795Y31820000D01*
X5871205Y31820000D01*
X5716648Y31850743D01*
X5571059Y31911048D01*
X5440027Y31998601D01*
X5328601Y32110027D01*
X5241048Y32241059D01*
X5180743Y32386648D01*
X5150000Y32541205D01*
X5150000Y32698795D01*
X5180743Y32853352D01*
X5241048Y32998941D01*
X5328601Y33129973D01*
X5440027Y33241399D01*
X5571059Y33328952D01*
X5716648Y33389257D01*
X5871205Y33420000D01*
X6028795Y33420000D01*
X6183352Y33389257D01*
X6183352Y33389257D01*
G37*
G36*
X46823352Y33389257D02*
X46968941Y33328952D01*
X47099973Y33241399D01*
X47211399Y33129973D01*
X47298952Y32998941D01*
X47359257Y32853352D01*
X47390000Y32698795D01*
X47390000Y32541205D01*
X47359257Y32386648D01*
X47298952Y32241059D01*
X47211399Y32110027D01*
X47099973Y31998601D01*
X46968941Y31911048D01*
X46823352Y31850743D01*
X46668795Y31820000D01*
X46511205Y31820000D01*
X46356648Y31850743D01*
X46211059Y31911048D01*
X46080027Y31998601D01*
X45968601Y32110027D01*
X45881048Y32241059D01*
X45820743Y32386648D01*
X45790000Y32541205D01*
X45790000Y32698795D01*
X45820743Y32853352D01*
X45881048Y32998941D01*
X45968601Y33129973D01*
X46080027Y33241399D01*
X46211059Y33328952D01*
X46356648Y33389257D01*
X46511205Y33420000D01*
X46668795Y33420000D01*
X46823352Y33389257D01*
X46823352Y33389257D01*
G37*
G36*
X44283352Y33389257D02*
X44428941Y33328952D01*
X44559973Y33241399D01*
X44671399Y33129973D01*
X44758952Y32998941D01*
X44819257Y32853352D01*
X44850000Y32698795D01*
X44850000Y32541205D01*
X44819257Y32386648D01*
X44758952Y32241059D01*
X44671399Y32110027D01*
X44559973Y31998601D01*
X44428941Y31911048D01*
X44283352Y31850743D01*
X44128795Y31820000D01*
X43971205Y31820000D01*
X43816648Y31850743D01*
X43671059Y31911048D01*
X43540027Y31998601D01*
X43428601Y32110027D01*
X43341048Y32241059D01*
X43280743Y32386648D01*
X43250000Y32541205D01*
X43250000Y32698795D01*
X43280743Y32853352D01*
X43341048Y32998941D01*
X43428601Y33129973D01*
X43540027Y33241399D01*
X43671059Y33328952D01*
X43816648Y33389257D01*
X43971205Y33420000D01*
X44128795Y33420000D01*
X44283352Y33389257D01*
X44283352Y33389257D01*
G37*
G36*
X22715393Y32036636D02*
X22538616Y31859859D01*
X21477955Y32920520D01*
X21654732Y33097297D01*
X22715393Y32036636D01*
X22715393Y32036636D01*
G37*
G36*
X32332045Y32920520D02*
X31271384Y31859859D01*
X31094607Y32036636D01*
X32155268Y33097297D01*
X32332045Y32920520D01*
X32332045Y32920520D01*
G37*
G36*
X23068946Y32390190D02*
X22892169Y32213413D01*
X21831508Y33274074D01*
X22008285Y33450851D01*
X23068946Y32390190D01*
X23068946Y32390190D01*
G37*
G36*
X31978492Y33274074D02*
X30917831Y32213413D01*
X30741054Y32390190D01*
X31801715Y33450851D01*
X31978492Y33274074D01*
X31978492Y33274074D01*
G37*
G36*
X17195000Y32485000D02*
X16295000Y32485000D01*
X16295000Y33385000D01*
X17195000Y33385000D01*
X17195000Y32485000D01*
X17195000Y32485000D01*
G37*
G36*
X14655000Y32485000D02*
X13755000Y32485000D01*
X13755000Y33385000D01*
X14655000Y33385000D01*
X14655000Y32485000D01*
X14655000Y32485000D01*
G37*
G36*
X23776053Y33097296D02*
X23245723Y32566966D01*
X22185062Y33627627D01*
X22715392Y34157957D01*
X23776053Y33097296D01*
X23776053Y33097296D01*
G37*
G36*
X31624938Y33627627D02*
X30564277Y32566966D01*
X30033947Y33097296D01*
X31094608Y34157957D01*
X31624938Y33627627D01*
X31624938Y33627627D01*
G37*
G36*
X30917832Y34334734D02*
X29857171Y33274073D01*
X29680394Y33450850D01*
X30741055Y34511511D01*
X30917832Y34334734D01*
X30917832Y34334734D01*
G37*
G36*
X24129606Y33450850D02*
X23952829Y33274073D01*
X22892168Y34334734D01*
X23068945Y34511511D01*
X24129606Y33450850D01*
X24129606Y33450850D01*
G37*
G36*
X30564278Y34688287D02*
X29503617Y33627626D01*
X29326840Y33804403D01*
X30387501Y34865064D01*
X30564278Y34688287D01*
X30564278Y34688287D01*
G37*
G36*
X24483160Y33804403D02*
X24306383Y33627626D01*
X23245722Y34688287D01*
X23422499Y34865064D01*
X24483160Y33804403D01*
X24483160Y33804403D01*
G37*
G36*
X30210725Y35041841D02*
X29150064Y33981180D01*
X28973287Y34157957D01*
X30033948Y35218618D01*
X30210725Y35041841D01*
X30210725Y35041841D01*
G37*
G36*
X24836713Y34157957D02*
X24659936Y33981180D01*
X23599275Y35041841D01*
X23776052Y35218618D01*
X24836713Y34157957D01*
X24836713Y34157957D01*
G37*
G36*
X20700845Y35132785D02*
X20791839Y35095094D01*
X20812622Y35081207D01*
X20873734Y35040373D01*
X20943373Y34970734D01*
X20943375Y34970731D01*
X20972831Y34926648D01*
X20998095Y34888837D01*
X21035785Y34797845D01*
X21055000Y34701245D01*
X21055000Y34602755D01*
X21035785Y34506155D01*
X20998095Y34415163D01*
X20943373Y34333266D01*
X20873734Y34263627D01*
X20873731Y34263625D01*
X20791839Y34208906D01*
X20700845Y34171215D01*
X20604246Y34152000D01*
X20505754Y34152000D01*
X20409155Y34171215D01*
X20318161Y34208906D01*
X20236269Y34263625D01*
X20236266Y34263627D01*
X20166627Y34333266D01*
X20111905Y34415163D01*
X20074215Y34506155D01*
X20055000Y34602755D01*
X20055000Y34701245D01*
X20074215Y34797845D01*
X20111905Y34888837D01*
X20137170Y34926648D01*
X20166625Y34970731D01*
X20166627Y34970734D01*
X20236266Y35040373D01*
X20297378Y35081207D01*
X20318161Y35095094D01*
X20409155Y35132785D01*
X20505754Y35152000D01*
X20604246Y35152000D01*
X20700845Y35132785D01*
X20700845Y35132785D01*
G37*
G36*
X29857171Y35395394D02*
X28796510Y34334733D01*
X28266180Y34865063D01*
X29326841Y35925724D01*
X29857171Y35395394D01*
X29857171Y35395394D01*
G37*
G36*
X25543820Y34865063D02*
X25013490Y34334733D01*
X23952829Y35395394D01*
X24483159Y35925724D01*
X25543820Y34865063D01*
X25543820Y34865063D01*
G37*
G36*
X46823352Y35929257D02*
X46968941Y35868952D01*
X47099973Y35781399D01*
X47211399Y35669973D01*
X47298952Y35538941D01*
X47359257Y35393352D01*
X47390000Y35238795D01*
X47390000Y35081205D01*
X47359257Y34926648D01*
X47298952Y34781059D01*
X47211399Y34650027D01*
X47099973Y34538601D01*
X46968941Y34451048D01*
X46823352Y34390743D01*
X46668795Y34360000D01*
X46511205Y34360000D01*
X46356648Y34390743D01*
X46211059Y34451048D01*
X46080027Y34538601D01*
X45968601Y34650027D01*
X45881048Y34781059D01*
X45820743Y34926648D01*
X45790000Y35081205D01*
X45790000Y35238795D01*
X45820743Y35393352D01*
X45881048Y35538941D01*
X45968601Y35669973D01*
X46080027Y35781399D01*
X46211059Y35868952D01*
X46356648Y35929257D01*
X46511205Y35960000D01*
X46668795Y35960000D01*
X46823352Y35929257D01*
X46823352Y35929257D01*
G37*
G36*
X6183352Y35929257D02*
X6328941Y35868952D01*
X6459973Y35781399D01*
X6571399Y35669973D01*
X6658952Y35538941D01*
X6719257Y35393352D01*
X6750000Y35238795D01*
X6750000Y35081205D01*
X6719257Y34926648D01*
X6658952Y34781059D01*
X6571399Y34650027D01*
X6459973Y34538601D01*
X6328941Y34451048D01*
X6183352Y34390743D01*
X6028795Y34360000D01*
X5871205Y34360000D01*
X5716648Y34390743D01*
X5571059Y34451048D01*
X5440027Y34538601D01*
X5328601Y34650027D01*
X5241048Y34781059D01*
X5180743Y34926648D01*
X5150000Y35081205D01*
X5150000Y35238795D01*
X5180743Y35393352D01*
X5241048Y35538941D01*
X5328601Y35669973D01*
X5440027Y35781399D01*
X5571059Y35868952D01*
X5716648Y35929257D01*
X5871205Y35960000D01*
X6028795Y35960000D01*
X6183352Y35929257D01*
X6183352Y35929257D01*
G37*
G36*
X44283352Y35929257D02*
X44428941Y35868952D01*
X44559973Y35781399D01*
X44671399Y35669973D01*
X44758952Y35538941D01*
X44819257Y35393352D01*
X44850000Y35238795D01*
X44850000Y35081205D01*
X44819257Y34926648D01*
X44758952Y34781059D01*
X44671399Y34650027D01*
X44559973Y34538601D01*
X44428941Y34451048D01*
X44283352Y34390743D01*
X44128795Y34360000D01*
X43971205Y34360000D01*
X43816648Y34390743D01*
X43671059Y34451048D01*
X43540027Y34538601D01*
X43428601Y34650027D01*
X43341048Y34781059D01*
X43280743Y34926648D01*
X43250000Y35081205D01*
X43250000Y35238795D01*
X43280743Y35393352D01*
X43341048Y35538941D01*
X43428601Y35669973D01*
X43540027Y35781399D01*
X43671059Y35868952D01*
X43816648Y35929257D01*
X43971205Y35960000D01*
X44128795Y35960000D01*
X44283352Y35929257D01*
X44283352Y35929257D01*
G37*
G36*
X3643352Y35929257D02*
X3788941Y35868952D01*
X3919973Y35781399D01*
X4031399Y35669973D01*
X4118952Y35538941D01*
X4179257Y35393352D01*
X4210000Y35238795D01*
X4210000Y35081205D01*
X4179257Y34926648D01*
X4118952Y34781059D01*
X4031399Y34650027D01*
X3919973Y34538601D01*
X3788941Y34451048D01*
X3643352Y34390743D01*
X3488795Y34360000D01*
X3331205Y34360000D01*
X3176648Y34390743D01*
X3031059Y34451048D01*
X2900027Y34538601D01*
X2788601Y34650027D01*
X2701048Y34781059D01*
X2640743Y34926648D01*
X2610000Y35081205D01*
X2610000Y35238795D01*
X2640743Y35393352D01*
X2701048Y35538941D01*
X2788601Y35669973D01*
X2900027Y35781399D01*
X3031059Y35868952D01*
X3176648Y35929257D01*
X3331205Y35960000D01*
X3488795Y35960000D01*
X3643352Y35929257D01*
X3643352Y35929257D01*
G37*
G36*
X39740000Y34710000D02*
X38840000Y34710000D01*
X38840000Y35610000D01*
X39740000Y35610000D01*
X39740000Y34710000D01*
X39740000Y34710000D01*
G37*
G36*
X37195000Y34710000D02*
X36295000Y34710000D01*
X36295000Y35610000D01*
X37195000Y35610000D01*
X37195000Y34710000D01*
X37195000Y34710000D01*
G37*
G36*
X35295000Y34710000D02*
X34395000Y34710000D01*
X34395000Y35610000D01*
X35295000Y35610000D01*
X35295000Y34710000D01*
X35295000Y34710000D01*
G37*
G36*
X16875000Y34710000D02*
X15975000Y34710000D01*
X15975000Y35610000D01*
X16875000Y35610000D01*
X16875000Y34710000D01*
X16875000Y34710000D01*
G37*
G36*
X14975000Y34710000D02*
X14075000Y34710000D01*
X14075000Y35610000D01*
X14975000Y35610000D01*
X14975000Y34710000D01*
X14975000Y34710000D01*
G37*
G36*
X41640000Y34710000D02*
X40740000Y34710000D01*
X40740000Y35610000D01*
X41640000Y35610000D01*
X41640000Y34710000D01*
X41640000Y34710000D01*
G37*
G36*
X9260000Y35029500D02*
X8360000Y35029500D01*
X8360000Y35929500D01*
X9260000Y35929500D01*
X9260000Y35029500D01*
X9260000Y35029500D01*
G37*
G36*
X11160000Y35029500D02*
X10260000Y35029500D01*
X10260000Y35929500D01*
X11160000Y35929500D01*
X11160000Y35029500D01*
X11160000Y35029500D01*
G37*
G36*
X29150065Y36102501D02*
X28089404Y35041840D01*
X27912627Y35218617D01*
X28973288Y36279278D01*
X29150065Y36102501D01*
X29150065Y36102501D01*
G37*
G36*
X25897373Y35218617D02*
X25720596Y35041840D01*
X24659935Y36102501D01*
X24836712Y36279278D01*
X25897373Y35218617D01*
X25897373Y35218617D01*
G37*
G36*
X19684845Y36275785D02*
X19775839Y36238094D01*
X19856640Y36184104D01*
X19857734Y36183373D01*
X19927373Y36113734D01*
X19927375Y36113731D01*
X19982094Y36031839D01*
X20019785Y35940845D01*
X20034086Y35868952D01*
X20039000Y35844245D01*
X20039000Y35745755D01*
X20019785Y35649155D01*
X19982095Y35558163D01*
X19927373Y35476266D01*
X19857734Y35406627D01*
X19857731Y35406625D01*
X19775839Y35351906D01*
X19684845Y35314215D01*
X19588246Y35295000D01*
X19489754Y35295000D01*
X19393155Y35314215D01*
X19302161Y35351906D01*
X19220269Y35406625D01*
X19220266Y35406627D01*
X19150627Y35476266D01*
X19095905Y35558163D01*
X19058215Y35649155D01*
X19039000Y35745755D01*
X19039000Y35844245D01*
X19043915Y35868952D01*
X19058215Y35940845D01*
X19095906Y36031839D01*
X19150625Y36113731D01*
X19150627Y36113734D01*
X19220266Y36183373D01*
X19221360Y36184104D01*
X19302161Y36238094D01*
X19393155Y36275785D01*
X19489754Y36295000D01*
X19588246Y36295000D01*
X19684845Y36275785D01*
X19684845Y36275785D01*
G37*
G36*
X26604480Y35925723D02*
X26074150Y35395393D01*
X25013489Y36456054D01*
X25543819Y36986384D01*
X26604480Y35925723D01*
X26604480Y35925723D01*
G37*
G36*
X28796511Y36456054D02*
X27735850Y35395393D01*
X27205520Y35925723D01*
X28266181Y36986384D01*
X28796511Y36456054D01*
X28796511Y36456054D01*
G37*
G36*
X6183352Y38469257D02*
X6328941Y38408952D01*
X6459973Y38321399D01*
X6571399Y38209973D01*
X6658952Y38078941D01*
X6719257Y37933352D01*
X6750000Y37778795D01*
X6750000Y37621205D01*
X6719257Y37466648D01*
X6658952Y37321059D01*
X6571399Y37190027D01*
X6459973Y37078601D01*
X6328941Y36991048D01*
X6183352Y36930743D01*
X6028795Y36900000D01*
X5871205Y36900000D01*
X5716648Y36930743D01*
X5571059Y36991048D01*
X5440027Y37078601D01*
X5328601Y37190027D01*
X5241048Y37321059D01*
X5180743Y37466648D01*
X5150000Y37621205D01*
X5150000Y37778795D01*
X5180743Y37933352D01*
X5241048Y38078941D01*
X5328601Y38209973D01*
X5440027Y38321399D01*
X5571059Y38408952D01*
X5716648Y38469257D01*
X5871205Y38500000D01*
X6028795Y38500000D01*
X6183352Y38469257D01*
X6183352Y38469257D01*
G37*
G36*
X44283352Y38469257D02*
X44428941Y38408952D01*
X44559973Y38321399D01*
X44671399Y38209973D01*
X44758952Y38078941D01*
X44819257Y37933352D01*
X44850000Y37778795D01*
X44850000Y37621205D01*
X44819257Y37466648D01*
X44758952Y37321059D01*
X44671399Y37190027D01*
X44559973Y37078601D01*
X44428941Y36991048D01*
X44283352Y36930743D01*
X44128795Y36900000D01*
X43971205Y36900000D01*
X43816648Y36930743D01*
X43671059Y36991048D01*
X43540027Y37078601D01*
X43428601Y37190027D01*
X43341048Y37321059D01*
X43280743Y37466648D01*
X43250000Y37621205D01*
X43250000Y37778795D01*
X43280743Y37933352D01*
X43341048Y38078941D01*
X43428601Y38209973D01*
X43540027Y38321399D01*
X43671059Y38408952D01*
X43816648Y38469257D01*
X43971205Y38500000D01*
X44128795Y38500000D01*
X44283352Y38469257D01*
X44283352Y38469257D01*
G37*
G36*
X3643352Y38469257D02*
X3788941Y38408952D01*
X3919973Y38321399D01*
X4031399Y38209973D01*
X4118952Y38078941D01*
X4179257Y37933352D01*
X4210000Y37778795D01*
X4210000Y37621205D01*
X4179257Y37466648D01*
X4118952Y37321059D01*
X4031399Y37190027D01*
X3919973Y37078601D01*
X3788941Y36991048D01*
X3643352Y36930743D01*
X3488795Y36900000D01*
X3331205Y36900000D01*
X3176648Y36930743D01*
X3031059Y36991048D01*
X2900027Y37078601D01*
X2788601Y37190027D01*
X2701048Y37321059D01*
X2640743Y37466648D01*
X2610000Y37621205D01*
X2610000Y37778795D01*
X2640743Y37933352D01*
X2701048Y38078941D01*
X2788601Y38209973D01*
X2900027Y38321399D01*
X3031059Y38408952D01*
X3176648Y38469257D01*
X3331205Y38500000D01*
X3488795Y38500000D01*
X3643352Y38469257D01*
X3643352Y38469257D01*
G37*
G36*
X46823352Y38469257D02*
X46968941Y38408952D01*
X47099973Y38321399D01*
X47211399Y38209973D01*
X47298952Y38078941D01*
X47359257Y37933352D01*
X47390000Y37778795D01*
X47390000Y37621205D01*
X47359257Y37466648D01*
X47298952Y37321059D01*
X47211399Y37190027D01*
X47099973Y37078601D01*
X46968941Y36991048D01*
X46823352Y36930743D01*
X46668795Y36900000D01*
X46511205Y36900000D01*
X46356648Y36930743D01*
X46211059Y36991048D01*
X46080027Y37078601D01*
X45968601Y37190027D01*
X45881048Y37321059D01*
X45820743Y37466648D01*
X45790000Y37621205D01*
X45790000Y37778795D01*
X45820743Y37933352D01*
X45881048Y38078941D01*
X45968601Y38209973D01*
X46080027Y38321399D01*
X46211059Y38408952D01*
X46356648Y38469257D01*
X46511205Y38500000D01*
X46668795Y38500000D01*
X46823352Y38469257D01*
X46823352Y38469257D01*
G37*
G36*
X41640000Y37250000D02*
X40740000Y37250000D01*
X40740000Y38150000D01*
X41640000Y38150000D01*
X41640000Y37250000D01*
X41640000Y37250000D01*
G37*
G36*
X39740000Y37250000D02*
X38840000Y37250000D01*
X38840000Y38150000D01*
X39740000Y38150000D01*
X39740000Y37250000D01*
X39740000Y37250000D01*
G37*
G36*
X9260000Y37569500D02*
X8360000Y37569500D01*
X8360000Y38469500D01*
X9260000Y38469500D01*
X9260000Y37569500D01*
X9260000Y37569500D01*
G37*
G36*
X11160000Y37569500D02*
X10260000Y37569500D01*
X10260000Y38469500D01*
X11160000Y38469500D01*
X11160000Y37569500D01*
X11160000Y37569500D01*
G37*
G36*
X28310000Y37885000D02*
X27410000Y37885000D01*
X27410000Y38785000D01*
X28310000Y38785000D01*
X28310000Y37885000D01*
X28310000Y37885000D01*
G37*
G36*
X30210000Y37885000D02*
X29310000Y37885000D01*
X29310000Y38785000D01*
X30210000Y38785000D01*
X30210000Y37885000D01*
X30210000Y37885000D01*
G37*
G36*
X25765000Y37885000D02*
X24865000Y37885000D01*
X24865000Y38785000D01*
X25765000Y38785000D01*
X25765000Y37885000D01*
X25765000Y37885000D01*
G37*
G36*
X23865000Y37885000D02*
X22965000Y37885000D01*
X22965000Y38785000D01*
X23865000Y38785000D01*
X23865000Y37885000D01*
X23865000Y37885000D01*
G37*
G36*
X6750000Y39440000D02*
X5150000Y39440000D01*
X5150000Y41040000D01*
X6750000Y41040000D01*
X6750000Y39440000D01*
X6750000Y39440000D01*
G37*
G36*
X44283352Y41009257D02*
X44428941Y40948952D01*
X44559973Y40861399D01*
X44671399Y40749973D01*
X44758952Y40618941D01*
X44819257Y40473352D01*
X44850000Y40318795D01*
X44850000Y40161205D01*
X44819257Y40006648D01*
X44758952Y39861059D01*
X44671399Y39730027D01*
X44559973Y39618601D01*
X44428941Y39531048D01*
X44283352Y39470743D01*
X44128795Y39440000D01*
X43971205Y39440000D01*
X43816648Y39470743D01*
X43671059Y39531048D01*
X43540027Y39618601D01*
X43428601Y39730027D01*
X43341048Y39861059D01*
X43280743Y40006648D01*
X43250000Y40161205D01*
X43250000Y40318795D01*
X43280743Y40473352D01*
X43341048Y40618941D01*
X43428601Y40749973D01*
X43540027Y40861399D01*
X43671059Y40948952D01*
X43816648Y41009257D01*
X43971205Y41040000D01*
X44128795Y41040000D01*
X44283352Y41009257D01*
X44283352Y41009257D01*
G37*
G36*
X4210000Y39440000D02*
X2610000Y39440000D01*
X2610000Y41040000D01*
X4210000Y41040000D01*
X4210000Y39440000D01*
X4210000Y39440000D01*
G37*
G36*
X46823352Y41009257D02*
X46968941Y40948952D01*
X47099973Y40861399D01*
X47211399Y40749973D01*
X47298952Y40618941D01*
X47359257Y40473352D01*
X47390000Y40318795D01*
X47390000Y40161205D01*
X47359257Y40006648D01*
X47298952Y39861059D01*
X47211399Y39730027D01*
X47099973Y39618601D01*
X46968941Y39531048D01*
X46823352Y39470743D01*
X46668795Y39440000D01*
X46511205Y39440000D01*
X46356648Y39470743D01*
X46211059Y39531048D01*
X46080027Y39618601D01*
X45968601Y39730027D01*
X45881048Y39861059D01*
X45820743Y40006648D01*
X45790000Y40161205D01*
X45790000Y40318795D01*
X45820743Y40473352D01*
X45881048Y40618941D01*
X45968601Y40749973D01*
X46080027Y40861399D01*
X46211059Y40948952D01*
X46356648Y41009257D01*
X46511205Y41040000D01*
X46668795Y41040000D01*
X46823352Y41009257D01*
X46823352Y41009257D01*
G37*
G36*
X26720000Y40110000D02*
X25820000Y40110000D01*
X25820000Y41010000D01*
X26720000Y41010000D01*
X26720000Y40110000D01*
X26720000Y40110000D01*
G37*
G36*
X9194000Y40110000D02*
X8294000Y40110000D01*
X8294000Y41010000D01*
X9194000Y41010000D01*
X9194000Y40110000D01*
X9194000Y40110000D01*
G37*
G36*
X14528000Y40110000D02*
X13628000Y40110000D01*
X13628000Y41010000D01*
X14528000Y41010000D01*
X14528000Y40110000D01*
X14528000Y40110000D01*
G37*
G36*
X17195000Y40110000D02*
X16295000Y40110000D01*
X16295000Y41010000D01*
X17195000Y41010000D01*
X17195000Y40110000D01*
X17195000Y40110000D01*
G37*
G36*
X11861000Y40110000D02*
X10961000Y40110000D01*
X10961000Y41010000D01*
X11861000Y41010000D01*
X11861000Y40110000D01*
X11861000Y40110000D01*
G37*
G36*
X34340000Y40110000D02*
X33440000Y40110000D01*
X33440000Y41010000D01*
X34340000Y41010000D01*
X34340000Y40110000D01*
X34340000Y40110000D01*
G37*
G36*
X36880000Y40110000D02*
X35980000Y40110000D01*
X35980000Y41010000D01*
X36880000Y41010000D01*
X36880000Y40110000D01*
X36880000Y40110000D01*
G37*
G36*
X39420000Y40110000D02*
X38520000Y40110000D01*
X38520000Y41010000D01*
X39420000Y41010000D01*
X39420000Y40110000D01*
X39420000Y40110000D01*
G37*
G36*
X19481000Y40110000D02*
X18581000Y40110000D01*
X18581000Y41010000D01*
X19481000Y41010000D01*
X19481000Y40110000D01*
X19481000Y40110000D01*
G37*
G36*
X21830500Y40110000D02*
X20930500Y40110000D01*
X20930500Y41010000D01*
X21830500Y41010000D01*
X21830500Y40110000D01*
X21830500Y40110000D01*
G37*
G36*
X24180000Y40110000D02*
X23280000Y40110000D01*
X23280000Y41010000D01*
X24180000Y41010000D01*
X24180000Y40110000D01*
X24180000Y40110000D01*
G37*
G36*
X29260000Y40110000D02*
X28360000Y40110000D01*
X28360000Y41010000D01*
X29260000Y41010000D01*
X29260000Y40110000D01*
X29260000Y40110000D01*
G37*
G36*
X31800000Y40110000D02*
X30900000Y40110000D01*
X30900000Y41010000D01*
X31800000Y41010000D01*
X31800000Y40110000D01*
X31800000Y40110000D01*
G37*
G36*
X41960000Y40110000D02*
X41060000Y40110000D01*
X41060000Y41010000D01*
X41960000Y41010000D01*
X41960000Y40110000D01*
X41960000Y40110000D01*
G37*
G36*
X4204599Y49520579D02*
X4404237Y49480869D01*
X4968401Y49247185D01*
X5476135Y48907928D01*
X5907928Y48476135D01*
X6247185Y47968401D01*
X6480869Y47404237D01*
X6480869Y47404236D01*
X6600000Y46805325D01*
X6600000Y46194675D01*
X6549620Y45941399D01*
X6480869Y45595763D01*
X6247185Y45031599D01*
X5907928Y44523865D01*
X5647445Y44263382D01*
X5631904Y44244446D01*
X5620353Y44222835D01*
X5613240Y44199386D01*
X5610838Y44175000D01*
X5613240Y44150614D01*
X5620353Y44127165D01*
X5631904Y44105554D01*
X5647450Y44086612D01*
X5666392Y44071066D01*
X5688003Y44059515D01*
X5711452Y44052402D01*
X5735838Y44050000D01*
X5950000Y44050000D01*
X5950000Y41510000D01*
X1505000Y41510000D01*
X1505000Y44050000D01*
X1505767Y44050000D01*
X1506520Y44057643D01*
X1504118Y44082030D01*
X1497004Y44105479D01*
X1485453Y44127089D01*
X1469913Y44146024D01*
X1092072Y44523865D01*
X752815Y45031599D01*
X519131Y45595763D01*
X450380Y45941399D01*
X400000Y46194675D01*
X400000Y46805325D01*
X519131Y47404236D01*
X519131Y47404237D01*
X752815Y47968401D01*
X1092072Y48476135D01*
X1523865Y48907928D01*
X2031599Y49247185D01*
X2595763Y49480869D01*
X2795401Y49520579D01*
X3194675Y49600000D01*
X3805325Y49600000D01*
X4204599Y49520579D01*
X4204599Y49520579D01*
G37*
G36*
X14528000Y42010000D02*
X13628000Y42010000D01*
X13628000Y42910000D01*
X14528000Y42910000D01*
X14528000Y42010000D01*
X14528000Y42010000D01*
G37*
G36*
X17195000Y42010000D02*
X16295000Y42010000D01*
X16295000Y42910000D01*
X17195000Y42910000D01*
X17195000Y42010000D01*
X17195000Y42010000D01*
G37*
G36*
X19481000Y42010000D02*
X18581000Y42010000D01*
X18581000Y42910000D01*
X19481000Y42910000D01*
X19481000Y42010000D01*
X19481000Y42010000D01*
G37*
G36*
X24180000Y42010000D02*
X23280000Y42010000D01*
X23280000Y42910000D01*
X24180000Y42910000D01*
X24180000Y42010000D01*
X24180000Y42010000D01*
G37*
G36*
X26720000Y42010000D02*
X25820000Y42010000D01*
X25820000Y42910000D01*
X26720000Y42910000D01*
X26720000Y42010000D01*
X26720000Y42010000D01*
G37*
G36*
X29260000Y42010000D02*
X28360000Y42010000D01*
X28360000Y42910000D01*
X29260000Y42910000D01*
X29260000Y42010000D01*
X29260000Y42010000D01*
G37*
G36*
X21830500Y42010000D02*
X20930500Y42010000D01*
X20930500Y42910000D01*
X21830500Y42910000D01*
X21830500Y42010000D01*
X21830500Y42010000D01*
G37*
G36*
X9194000Y42010000D02*
X8294000Y42010000D01*
X8294000Y42910000D01*
X9194000Y42910000D01*
X9194000Y42010000D01*
X9194000Y42010000D01*
G37*
G36*
X41960000Y42010000D02*
X41060000Y42010000D01*
X41060000Y42910000D01*
X41960000Y42910000D01*
X41960000Y42010000D01*
X41960000Y42010000D01*
G37*
G36*
X34340000Y42010000D02*
X33440000Y42010000D01*
X33440000Y42910000D01*
X34340000Y42910000D01*
X34340000Y42010000D01*
X34340000Y42010000D01*
G37*
G36*
X36880000Y42010000D02*
X35980000Y42010000D01*
X35980000Y42910000D01*
X36880000Y42910000D01*
X36880000Y42010000D01*
X36880000Y42010000D01*
G37*
G36*
X39420000Y42010000D02*
X38520000Y42010000D01*
X38520000Y42910000D01*
X39420000Y42910000D01*
X39420000Y42010000D01*
X39420000Y42010000D01*
G37*
G36*
X31800000Y42010000D02*
X30900000Y42010000D01*
X30900000Y42910000D01*
X31800000Y42910000D01*
X31800000Y42010000D01*
X31800000Y42010000D01*
G37*
G36*
X11861000Y42010000D02*
X10961000Y42010000D01*
X10961000Y42910000D01*
X11861000Y42910000D01*
X11861000Y42010000D01*
X11861000Y42010000D01*
G37*
G36*
X44178511Y43519131D02*
X44268767Y43501178D01*
X44325303Y43477760D01*
X44405257Y43444642D01*
X44528100Y43362561D01*
X44632561Y43258100D01*
X44714642Y43135257D01*
X44771178Y42998766D01*
X44800000Y42853870D01*
X44800000Y42706130D01*
X44771178Y42561234D01*
X44714642Y42424743D01*
X44632561Y42301900D01*
X44528100Y42197439D01*
X44405257Y42115358D01*
X44325303Y42082240D01*
X44268767Y42058822D01*
X44196318Y42044411D01*
X44123870Y42030000D01*
X43976130Y42030000D01*
X43903682Y42044411D01*
X43831233Y42058822D01*
X43774697Y42082240D01*
X43694743Y42115358D01*
X43571900Y42197439D01*
X43467439Y42301900D01*
X43385358Y42424743D01*
X43328822Y42561234D01*
X43300000Y42706130D01*
X43300000Y42853870D01*
X43328822Y42998766D01*
X43385358Y43135257D01*
X43467439Y43258100D01*
X43571900Y43362561D01*
X43694743Y43444642D01*
X43774697Y43477760D01*
X43831233Y43501178D01*
X43921489Y43519131D01*
X43976130Y43530000D01*
X44123870Y43530000D01*
X44178511Y43519131D01*
X44178511Y43519131D01*
G37*
G36*
X47204599Y49520579D02*
X47404237Y49480869D01*
X47968401Y49247185D01*
X48476135Y48907928D01*
X48907928Y48476135D01*
X49247185Y47968401D01*
X49480869Y47404237D01*
X49480869Y47404236D01*
X49600000Y46805325D01*
X49600000Y46194675D01*
X49549620Y45941399D01*
X49480869Y45595763D01*
X49247185Y45031599D01*
X48907928Y44523865D01*
X48476135Y44092072D01*
X47968401Y43752815D01*
X47404237Y43519131D01*
X47204599Y43479421D01*
X46805325Y43400000D01*
X46194675Y43400000D01*
X45795401Y43479421D01*
X45595763Y43519131D01*
X45031599Y43752815D01*
X44523865Y44092072D01*
X44092072Y44523865D01*
X43752815Y45031599D01*
X43519131Y45595763D01*
X43450380Y45941399D01*
X43400000Y46194675D01*
X43400000Y46805325D01*
X43519131Y47404236D01*
X43519131Y47404237D01*
X43752815Y47968401D01*
X44092072Y48476135D01*
X44523865Y48907928D01*
X45031599Y49247185D01*
X45595763Y49480869D01*
X45795401Y49520579D01*
X46194675Y49600000D01*
X46805325Y49600000D01*
X47204599Y49520579D01*
X47204599Y49520579D01*
G37*
G36*
X16343352Y46089257D02*
X16488941Y46028952D01*
X16619973Y45941399D01*
X16731399Y45829973D01*
X16818952Y45698941D01*
X16879257Y45553352D01*
X16910000Y45398795D01*
X16910000Y45241205D01*
X16879257Y45086648D01*
X16818952Y44941059D01*
X16731399Y44810027D01*
X16619973Y44698601D01*
X16488941Y44611048D01*
X16343352Y44550743D01*
X16188795Y44520000D01*
X16031205Y44520000D01*
X15876648Y44550743D01*
X15731059Y44611048D01*
X15600027Y44698601D01*
X15488601Y44810027D01*
X15401048Y44941059D01*
X15340743Y45086648D01*
X15310000Y45241205D01*
X15310000Y45398795D01*
X15340743Y45553352D01*
X15401048Y45698941D01*
X15488601Y45829973D01*
X15600027Y45941399D01*
X15731059Y46028952D01*
X15876648Y46089257D01*
X16031205Y46120000D01*
X16188795Y46120000D01*
X16343352Y46089257D01*
X16343352Y46089257D01*
G37*
G36*
X8723352Y46089257D02*
X8868941Y46028952D01*
X8999973Y45941399D01*
X9111399Y45829973D01*
X9198952Y45698941D01*
X9259257Y45553352D01*
X9290000Y45398795D01*
X9290000Y45241205D01*
X9259257Y45086648D01*
X9198952Y44941059D01*
X9111399Y44810027D01*
X8999973Y44698601D01*
X8868941Y44611048D01*
X8723352Y44550743D01*
X8568795Y44520000D01*
X8411205Y44520000D01*
X8256648Y44550743D01*
X8111059Y44611048D01*
X7980027Y44698601D01*
X7868601Y44810027D01*
X7781048Y44941059D01*
X7720743Y45086648D01*
X7690000Y45241205D01*
X7690000Y45398795D01*
X7720743Y45553352D01*
X7781048Y45698941D01*
X7868601Y45829973D01*
X7980027Y45941399D01*
X8111059Y46028952D01*
X8256648Y46089257D01*
X8411205Y46120000D01*
X8568795Y46120000D01*
X8723352Y46089257D01*
X8723352Y46089257D01*
G37*
G36*
X11263352Y46089257D02*
X11408941Y46028952D01*
X11539973Y45941399D01*
X11651399Y45829973D01*
X11738952Y45698941D01*
X11799257Y45553352D01*
X11830000Y45398795D01*
X11830000Y45241205D01*
X11799257Y45086648D01*
X11738952Y44941059D01*
X11651399Y44810027D01*
X11539973Y44698601D01*
X11408941Y44611048D01*
X11263352Y44550743D01*
X11108795Y44520000D01*
X10951205Y44520000D01*
X10796648Y44550743D01*
X10651059Y44611048D01*
X10520027Y44698601D01*
X10408601Y44810027D01*
X10321048Y44941059D01*
X10260743Y45086648D01*
X10230000Y45241205D01*
X10230000Y45398795D01*
X10260743Y45553352D01*
X10321048Y45698941D01*
X10408601Y45829973D01*
X10520027Y45941399D01*
X10651059Y46028952D01*
X10796648Y46089257D01*
X10951205Y46120000D01*
X11108795Y46120000D01*
X11263352Y46089257D01*
X11263352Y46089257D01*
G37*
G36*
X13803352Y46089257D02*
X13948941Y46028952D01*
X14079973Y45941399D01*
X14191399Y45829973D01*
X14278952Y45698941D01*
X14339257Y45553352D01*
X14370000Y45398795D01*
X14370000Y45241205D01*
X14339257Y45086648D01*
X14278952Y44941059D01*
X14191399Y44810027D01*
X14079973Y44698601D01*
X13948941Y44611048D01*
X13803352Y44550743D01*
X13648795Y44520000D01*
X13491205Y44520000D01*
X13336648Y44550743D01*
X13191059Y44611048D01*
X13060027Y44698601D01*
X12948601Y44810027D01*
X12861048Y44941059D01*
X12800743Y45086648D01*
X12770000Y45241205D01*
X12770000Y45398795D01*
X12800743Y45553352D01*
X12861048Y45698941D01*
X12948601Y45829973D01*
X13060027Y45941399D01*
X13191059Y46028952D01*
X13336648Y46089257D01*
X13491205Y46120000D01*
X13648795Y46120000D01*
X13803352Y46089257D01*
X13803352Y46089257D01*
G37*
G36*
X42310000Y44520000D02*
X40710000Y44520000D01*
X40710000Y46120000D01*
X42310000Y46120000D01*
X42310000Y44520000D01*
X42310000Y44520000D01*
G37*
G36*
X39203352Y46089257D02*
X39348941Y46028952D01*
X39479973Y45941399D01*
X39591399Y45829973D01*
X39678952Y45698941D01*
X39739257Y45553352D01*
X39770000Y45398795D01*
X39770000Y45241205D01*
X39739257Y45086648D01*
X39678952Y44941059D01*
X39591399Y44810027D01*
X39479973Y44698601D01*
X39348941Y44611048D01*
X39203352Y44550743D01*
X39048795Y44520000D01*
X38891205Y44520000D01*
X38736648Y44550743D01*
X38591059Y44611048D01*
X38460027Y44698601D01*
X38348601Y44810027D01*
X38261048Y44941059D01*
X38200743Y45086648D01*
X38170000Y45241205D01*
X38170000Y45398795D01*
X38200743Y45553352D01*
X38261048Y45698941D01*
X38348601Y45829973D01*
X38460027Y45941399D01*
X38591059Y46028952D01*
X38736648Y46089257D01*
X38891205Y46120000D01*
X39048795Y46120000D01*
X39203352Y46089257D01*
X39203352Y46089257D01*
G37*
G36*
X36663352Y46089257D02*
X36808941Y46028952D01*
X36939973Y45941399D01*
X37051399Y45829973D01*
X37138952Y45698941D01*
X37199257Y45553352D01*
X37230000Y45398795D01*
X37230000Y45241205D01*
X37199257Y45086648D01*
X37138952Y44941059D01*
X37051399Y44810027D01*
X36939973Y44698601D01*
X36808941Y44611048D01*
X36663352Y44550743D01*
X36508795Y44520000D01*
X36351205Y44520000D01*
X36196648Y44550743D01*
X36051059Y44611048D01*
X35920027Y44698601D01*
X35808601Y44810027D01*
X35721048Y44941059D01*
X35660743Y45086648D01*
X35630000Y45241205D01*
X35630000Y45398795D01*
X35660743Y45553352D01*
X35721048Y45698941D01*
X35808601Y45829973D01*
X35920027Y45941399D01*
X36051059Y46028952D01*
X36196648Y46089257D01*
X36351205Y46120000D01*
X36508795Y46120000D01*
X36663352Y46089257D01*
X36663352Y46089257D01*
G37*
G36*
X34123352Y46089257D02*
X34268941Y46028952D01*
X34399973Y45941399D01*
X34511399Y45829973D01*
X34598952Y45698941D01*
X34659257Y45553352D01*
X34690000Y45398795D01*
X34690000Y45241205D01*
X34659257Y45086648D01*
X34598952Y44941059D01*
X34511399Y44810027D01*
X34399973Y44698601D01*
X34268941Y44611048D01*
X34123352Y44550743D01*
X33968795Y44520000D01*
X33811205Y44520000D01*
X33656648Y44550743D01*
X33511059Y44611048D01*
X33380027Y44698601D01*
X33268601Y44810027D01*
X33181048Y44941059D01*
X33120743Y45086648D01*
X33090000Y45241205D01*
X33090000Y45398795D01*
X33120743Y45553352D01*
X33181048Y45698941D01*
X33268601Y45829973D01*
X33380027Y45941399D01*
X33511059Y46028952D01*
X33656648Y46089257D01*
X33811205Y46120000D01*
X33968795Y46120000D01*
X34123352Y46089257D01*
X34123352Y46089257D01*
G37*
G36*
X31583352Y46089257D02*
X31728941Y46028952D01*
X31859973Y45941399D01*
X31971399Y45829973D01*
X32058952Y45698941D01*
X32119257Y45553352D01*
X32150000Y45398795D01*
X32150000Y45241205D01*
X32119257Y45086648D01*
X32058952Y44941059D01*
X31971399Y44810027D01*
X31859973Y44698601D01*
X31728941Y44611048D01*
X31583352Y44550743D01*
X31428795Y44520000D01*
X31271205Y44520000D01*
X31116648Y44550743D01*
X30971059Y44611048D01*
X30840027Y44698601D01*
X30728601Y44810027D01*
X30641048Y44941059D01*
X30580743Y45086648D01*
X30550000Y45241205D01*
X30550000Y45398795D01*
X30580743Y45553352D01*
X30641048Y45698941D01*
X30728601Y45829973D01*
X30840027Y45941399D01*
X30971059Y46028952D01*
X31116648Y46089257D01*
X31271205Y46120000D01*
X31428795Y46120000D01*
X31583352Y46089257D01*
X31583352Y46089257D01*
G37*
G36*
X29043352Y46089257D02*
X29188941Y46028952D01*
X29319973Y45941399D01*
X29431399Y45829973D01*
X29518952Y45698941D01*
X29579257Y45553352D01*
X29610000Y45398795D01*
X29610000Y45241205D01*
X29579257Y45086648D01*
X29518952Y44941059D01*
X29431399Y44810027D01*
X29319973Y44698601D01*
X29188941Y44611048D01*
X29043352Y44550743D01*
X28888795Y44520000D01*
X28731205Y44520000D01*
X28576648Y44550743D01*
X28431059Y44611048D01*
X28300027Y44698601D01*
X28188601Y44810027D01*
X28101048Y44941059D01*
X28040743Y45086648D01*
X28010000Y45241205D01*
X28010000Y45398795D01*
X28040743Y45553352D01*
X28101048Y45698941D01*
X28188601Y45829973D01*
X28300027Y45941399D01*
X28431059Y46028952D01*
X28576648Y46089257D01*
X28731205Y46120000D01*
X28888795Y46120000D01*
X29043352Y46089257D01*
X29043352Y46089257D01*
G37*
G36*
X26503352Y46089257D02*
X26648941Y46028952D01*
X26779973Y45941399D01*
X26891399Y45829973D01*
X26978952Y45698941D01*
X27039257Y45553352D01*
X27070000Y45398795D01*
X27070000Y45241205D01*
X27039257Y45086648D01*
X26978952Y44941059D01*
X26891399Y44810027D01*
X26779973Y44698601D01*
X26648941Y44611048D01*
X26503352Y44550743D01*
X26348795Y44520000D01*
X26191205Y44520000D01*
X26036648Y44550743D01*
X25891059Y44611048D01*
X25760027Y44698601D01*
X25648601Y44810027D01*
X25561048Y44941059D01*
X25500743Y45086648D01*
X25470000Y45241205D01*
X25470000Y45398795D01*
X25500743Y45553352D01*
X25561048Y45698941D01*
X25648601Y45829973D01*
X25760027Y45941399D01*
X25891059Y46028952D01*
X26036648Y46089257D01*
X26191205Y46120000D01*
X26348795Y46120000D01*
X26503352Y46089257D01*
X26503352Y46089257D01*
G37*
G36*
X24530000Y44520000D02*
X22930000Y44520000D01*
X22930000Y46120000D01*
X24530000Y46120000D01*
X24530000Y44520000D01*
X24530000Y44520000D01*
G37*
G36*
X19450000Y44520000D02*
X17850000Y44520000D01*
X17850000Y46120000D01*
X19450000Y46120000D01*
X19450000Y44520000D01*
X19450000Y44520000D01*
G37*
G36*
X21640000Y45444000D02*
X20740000Y45444000D01*
X20740000Y46344000D01*
X21640000Y46344000D01*
X21640000Y45444000D01*
X21640000Y45444000D01*
G37*
G36*
X31583352Y48629257D02*
X31728941Y48568952D01*
X31859973Y48481399D01*
X31971399Y48369973D01*
X32058952Y48238941D01*
X32119257Y48093352D01*
X32150000Y47938795D01*
X32150000Y47781205D01*
X32119257Y47626648D01*
X32058952Y47481059D01*
X31971399Y47350027D01*
X31859973Y47238601D01*
X31728941Y47151048D01*
X31583352Y47090743D01*
X31428795Y47060000D01*
X31271205Y47060000D01*
X31116648Y47090743D01*
X30971059Y47151048D01*
X30840027Y47238601D01*
X30728601Y47350027D01*
X30641048Y47481059D01*
X30580743Y47626648D01*
X30550000Y47781205D01*
X30550000Y47938795D01*
X30580743Y48093352D01*
X30641048Y48238941D01*
X30728601Y48369973D01*
X30840027Y48481399D01*
X30971059Y48568952D01*
X31116648Y48629257D01*
X31271205Y48660000D01*
X31428795Y48660000D01*
X31583352Y48629257D01*
X31583352Y48629257D01*
G37*
G36*
X42310000Y47060000D02*
X40710000Y47060000D01*
X40710000Y48660000D01*
X42310000Y48660000D01*
X42310000Y47060000D01*
X42310000Y47060000D01*
G37*
G36*
X39203352Y48629257D02*
X39348941Y48568952D01*
X39479973Y48481399D01*
X39591399Y48369973D01*
X39678952Y48238941D01*
X39739257Y48093352D01*
X39770000Y47938795D01*
X39770000Y47781205D01*
X39739257Y47626648D01*
X39678952Y47481059D01*
X39591399Y47350027D01*
X39479973Y47238601D01*
X39348941Y47151048D01*
X39203352Y47090743D01*
X39048795Y47060000D01*
X38891205Y47060000D01*
X38736648Y47090743D01*
X38591059Y47151048D01*
X38460027Y47238601D01*
X38348601Y47350027D01*
X38261048Y47481059D01*
X38200743Y47626648D01*
X38170000Y47781205D01*
X38170000Y47938795D01*
X38200743Y48093352D01*
X38261048Y48238941D01*
X38348601Y48369973D01*
X38460027Y48481399D01*
X38591059Y48568952D01*
X38736648Y48629257D01*
X38891205Y48660000D01*
X39048795Y48660000D01*
X39203352Y48629257D01*
X39203352Y48629257D01*
G37*
G36*
X36663352Y48629257D02*
X36808941Y48568952D01*
X36939973Y48481399D01*
X37051399Y48369973D01*
X37138952Y48238941D01*
X37199257Y48093352D01*
X37230000Y47938795D01*
X37230000Y47781205D01*
X37199257Y47626648D01*
X37138952Y47481059D01*
X37051399Y47350027D01*
X36939973Y47238601D01*
X36808941Y47151048D01*
X36663352Y47090743D01*
X36508795Y47060000D01*
X36351205Y47060000D01*
X36196648Y47090743D01*
X36051059Y47151048D01*
X35920027Y47238601D01*
X35808601Y47350027D01*
X35721048Y47481059D01*
X35660743Y47626648D01*
X35630000Y47781205D01*
X35630000Y47938795D01*
X35660743Y48093352D01*
X35721048Y48238941D01*
X35808601Y48369973D01*
X35920027Y48481399D01*
X36051059Y48568952D01*
X36196648Y48629257D01*
X36351205Y48660000D01*
X36508795Y48660000D01*
X36663352Y48629257D01*
X36663352Y48629257D01*
G37*
G36*
X8723352Y48629257D02*
X8868941Y48568952D01*
X8999973Y48481399D01*
X9111399Y48369973D01*
X9198952Y48238941D01*
X9259257Y48093352D01*
X9290000Y47938795D01*
X9290000Y47781205D01*
X9259257Y47626648D01*
X9198952Y47481059D01*
X9111399Y47350027D01*
X8999973Y47238601D01*
X8868941Y47151048D01*
X8723352Y47090743D01*
X8568795Y47060000D01*
X8411205Y47060000D01*
X8256648Y47090743D01*
X8111059Y47151048D01*
X7980027Y47238601D01*
X7868601Y47350027D01*
X7781048Y47481059D01*
X7720743Y47626648D01*
X7690000Y47781205D01*
X7690000Y47938795D01*
X7720743Y48093352D01*
X7781048Y48238941D01*
X7868601Y48369973D01*
X7980027Y48481399D01*
X8111059Y48568952D01*
X8256648Y48629257D01*
X8411205Y48660000D01*
X8568795Y48660000D01*
X8723352Y48629257D01*
X8723352Y48629257D01*
G37*
G36*
X11263352Y48629257D02*
X11408941Y48568952D01*
X11539973Y48481399D01*
X11651399Y48369973D01*
X11738952Y48238941D01*
X11799257Y48093352D01*
X11830000Y47938795D01*
X11830000Y47781205D01*
X11799257Y47626648D01*
X11738952Y47481059D01*
X11651399Y47350027D01*
X11539973Y47238601D01*
X11408941Y47151048D01*
X11263352Y47090743D01*
X11108795Y47060000D01*
X10951205Y47060000D01*
X10796648Y47090743D01*
X10651059Y47151048D01*
X10520027Y47238601D01*
X10408601Y47350027D01*
X10321048Y47481059D01*
X10260743Y47626648D01*
X10230000Y47781205D01*
X10230000Y47938795D01*
X10260743Y48093352D01*
X10321048Y48238941D01*
X10408601Y48369973D01*
X10520027Y48481399D01*
X10651059Y48568952D01*
X10796648Y48629257D01*
X10951205Y48660000D01*
X11108795Y48660000D01*
X11263352Y48629257D01*
X11263352Y48629257D01*
G37*
G36*
X16343352Y48629257D02*
X16488941Y48568952D01*
X16619973Y48481399D01*
X16731399Y48369973D01*
X16818952Y48238941D01*
X16879257Y48093352D01*
X16910000Y47938795D01*
X16910000Y47781205D01*
X16879257Y47626648D01*
X16818952Y47481059D01*
X16731399Y47350027D01*
X16619973Y47238601D01*
X16488941Y47151048D01*
X16343352Y47090743D01*
X16188795Y47060000D01*
X16031205Y47060000D01*
X15876648Y47090743D01*
X15731059Y47151048D01*
X15600027Y47238601D01*
X15488601Y47350027D01*
X15401048Y47481059D01*
X15340743Y47626648D01*
X15310000Y47781205D01*
X15310000Y47938795D01*
X15340743Y48093352D01*
X15401048Y48238941D01*
X15488601Y48369973D01*
X15600027Y48481399D01*
X15731059Y48568952D01*
X15876648Y48629257D01*
X16031205Y48660000D01*
X16188795Y48660000D01*
X16343352Y48629257D01*
X16343352Y48629257D01*
G37*
G36*
X19450000Y47060000D02*
X17850000Y47060000D01*
X17850000Y48660000D01*
X19450000Y48660000D01*
X19450000Y47060000D01*
X19450000Y47060000D01*
G37*
G36*
X24530000Y47060000D02*
X22930000Y47060000D01*
X22930000Y48660000D01*
X24530000Y48660000D01*
X24530000Y47060000D01*
X24530000Y47060000D01*
G37*
G36*
X13803352Y48629257D02*
X13948941Y48568952D01*
X14079973Y48481399D01*
X14191399Y48369973D01*
X14278952Y48238941D01*
X14339257Y48093352D01*
X14370000Y47938795D01*
X14370000Y47781205D01*
X14339257Y47626648D01*
X14278952Y47481059D01*
X14191399Y47350027D01*
X14079973Y47238601D01*
X13948941Y47151048D01*
X13803352Y47090743D01*
X13648795Y47060000D01*
X13491205Y47060000D01*
X13336648Y47090743D01*
X13191059Y47151048D01*
X13060027Y47238601D01*
X12948601Y47350027D01*
X12861048Y47481059D01*
X12800743Y47626648D01*
X12770000Y47781205D01*
X12770000Y47938795D01*
X12800743Y48093352D01*
X12861048Y48238941D01*
X12948601Y48369973D01*
X13060027Y48481399D01*
X13191059Y48568952D01*
X13336648Y48629257D01*
X13491205Y48660000D01*
X13648795Y48660000D01*
X13803352Y48629257D01*
X13803352Y48629257D01*
G37*
G36*
X29043352Y48629257D02*
X29188941Y48568952D01*
X29319973Y48481399D01*
X29431399Y48369973D01*
X29518952Y48238941D01*
X29579257Y48093352D01*
X29610000Y47938795D01*
X29610000Y47781205D01*
X29579257Y47626648D01*
X29518952Y47481059D01*
X29431399Y47350027D01*
X29319973Y47238601D01*
X29188941Y47151048D01*
X29043352Y47090743D01*
X28888795Y47060000D01*
X28731205Y47060000D01*
X28576648Y47090743D01*
X28431059Y47151048D01*
X28300027Y47238601D01*
X28188601Y47350027D01*
X28101048Y47481059D01*
X28040743Y47626648D01*
X28010000Y47781205D01*
X28010000Y47938795D01*
X28040743Y48093352D01*
X28101048Y48238941D01*
X28188601Y48369973D01*
X28300027Y48481399D01*
X28431059Y48568952D01*
X28576648Y48629257D01*
X28731205Y48660000D01*
X28888795Y48660000D01*
X29043352Y48629257D01*
X29043352Y48629257D01*
G37*
G36*
X34123352Y48629257D02*
X34268941Y48568952D01*
X34399973Y48481399D01*
X34511399Y48369973D01*
X34598952Y48238941D01*
X34659257Y48093352D01*
X34690000Y47938795D01*
X34690000Y47781205D01*
X34659257Y47626648D01*
X34598952Y47481059D01*
X34511399Y47350027D01*
X34399973Y47238601D01*
X34268941Y47151048D01*
X34123352Y47090743D01*
X33968795Y47060000D01*
X33811205Y47060000D01*
X33656648Y47090743D01*
X33511059Y47151048D01*
X33380027Y47238601D01*
X33268601Y47350027D01*
X33181048Y47481059D01*
X33120743Y47626648D01*
X33090000Y47781205D01*
X33090000Y47938795D01*
X33120743Y48093352D01*
X33181048Y48238941D01*
X33268601Y48369973D01*
X33380027Y48481399D01*
X33511059Y48568952D01*
X33656648Y48629257D01*
X33811205Y48660000D01*
X33968795Y48660000D01*
X34123352Y48629257D01*
X34123352Y48629257D01*
G37*
G36*
X26503352Y48629257D02*
X26648941Y48568952D01*
X26779973Y48481399D01*
X26891399Y48369973D01*
X26978952Y48238941D01*
X27039257Y48093352D01*
X27070000Y47938795D01*
X27070000Y47781205D01*
X27039257Y47626648D01*
X26978952Y47481059D01*
X26891399Y47350027D01*
X26779973Y47238601D01*
X26648941Y47151048D01*
X26503352Y47090743D01*
X26348795Y47060000D01*
X26191205Y47060000D01*
X26036648Y47090743D01*
X25891059Y47151048D01*
X25760027Y47238601D01*
X25648601Y47350027D01*
X25561048Y47481059D01*
X25500743Y47626648D01*
X25470000Y47781205D01*
X25470000Y47938795D01*
X25500743Y48093352D01*
X25561048Y48238941D01*
X25648601Y48369973D01*
X25760027Y48481399D01*
X25891059Y48568952D01*
X26036648Y48629257D01*
X26191205Y48660000D01*
X26348795Y48660000D01*
X26503352Y48629257D01*
X26503352Y48629257D01*
G37*
G36*
X21640000Y47344000D02*
X20740000Y47344000D01*
X20740000Y48244000D01*
X21640000Y48244000D01*
X21640000Y47344000D01*
X21640000Y47344000D01*
G37*
M02*
