%TF.GenerationSoftware,KiCad,Pcbnew,(5.1.0)-1*%
%TF.CreationDate,2019-04-02T22:12:56+01:00*%
%TF.ProjectId,uDSP-1.1,75445350-2d31-42e3-912e-6b696361645f,1.1*%
%TF.SameCoordinates,PX660b0c0PY81b3200*%
%TF.FileFunction,Soldermask,Bot*%
%TF.FilePolarity,Negative*%
%FSLAX46Y46*%
G04 Gerber Fmt 4.6, Leading zero omitted, Abs format (unit mm)*
G04 Created by KiCad (PCBNEW (5.1.0)-1) date 2019-04-02 22:12:56*
%MOMM*%
%LPD*%
G04 APERTURE LIST*
%ADD10C,0.100000*%
%ADD11C,0.150000*%
G04 APERTURE END LIST*
D10*
X0Y50000000D02*
X0Y0D01*
X50000000Y50000000D02*
X0Y50000000D01*
X50000000Y0D02*
X50000000Y50000000D01*
X0Y0D02*
X50000000Y0D01*
D11*
G36*
X47104780Y6540435D02*
G01*
X47404237Y6480869D01*
X47968401Y6247185D01*
X48476135Y5907928D01*
X48907928Y5476135D01*
X49247185Y4968401D01*
X49480869Y4404237D01*
X49539082Y4111578D01*
X49600000Y3805325D01*
X49600000Y3194675D01*
X49549342Y2940000D01*
X49480869Y2595763D01*
X49247185Y2031599D01*
X48907928Y1523865D01*
X48476135Y1092072D01*
X47968401Y752815D01*
X47404237Y519131D01*
X47104780Y459566D01*
X46805325Y400000D01*
X46194675Y400000D01*
X45895220Y459566D01*
X45595763Y519131D01*
X45031599Y752815D01*
X44523865Y1092072D01*
X44092072Y1523865D01*
X43752815Y2031599D01*
X43519131Y2595763D01*
X43450658Y2940000D01*
X43400000Y3194675D01*
X43400000Y3805325D01*
X43460918Y4111578D01*
X43519131Y4404237D01*
X43752815Y4968401D01*
X44092072Y5476135D01*
X44523865Y5907928D01*
X45031599Y6247185D01*
X45595763Y6480869D01*
X45895220Y6540435D01*
X46194675Y6600000D01*
X46805325Y6600000D01*
X47104780Y6540435D01*
X47104780Y6540435D01*
G37*
G36*
X4104780Y6540435D02*
G01*
X4404237Y6480869D01*
X4968401Y6247185D01*
X5476135Y5907928D01*
X5907928Y5476135D01*
X6247185Y4968401D01*
X6480869Y4404237D01*
X6539082Y4111578D01*
X6600000Y3805325D01*
X6600000Y3194675D01*
X6549342Y2940000D01*
X6480869Y2595763D01*
X6247185Y2031599D01*
X5907928Y1523865D01*
X5476135Y1092072D01*
X4968401Y752815D01*
X4404237Y519131D01*
X4104780Y459566D01*
X3805325Y400000D01*
X3194675Y400000D01*
X2895220Y459566D01*
X2595763Y519131D01*
X2031599Y752815D01*
X1523865Y1092072D01*
X1092072Y1523865D01*
X752815Y2031599D01*
X519131Y2595763D01*
X450658Y2940000D01*
X400000Y3194675D01*
X400000Y3805325D01*
X460918Y4111578D01*
X519131Y4404237D01*
X752815Y4968401D01*
X1092072Y5476135D01*
X1523865Y5907928D01*
X2031599Y6247185D01*
X2595763Y6480869D01*
X2895220Y6540435D01*
X3194675Y6600000D01*
X3805325Y6600000D01*
X4104780Y6540435D01*
X4104780Y6540435D01*
G37*
G36*
X8927534Y3582357D02*
G01*
X9200515Y3469284D01*
X9200517Y3469283D01*
X9324190Y3386647D01*
X9446193Y3305127D01*
X9655127Y3096193D01*
X9819284Y2850515D01*
X9932357Y2577534D01*
X9990000Y2287738D01*
X9990000Y1992262D01*
X9932357Y1702466D01*
X9856196Y1518599D01*
X9819283Y1429483D01*
X9655126Y1183806D01*
X9446194Y974874D01*
X9200517Y810717D01*
X9200516Y810716D01*
X9200515Y810716D01*
X8927534Y697643D01*
X8637738Y640000D01*
X8342262Y640000D01*
X8052466Y697643D01*
X7779485Y810716D01*
X7779484Y810716D01*
X7779483Y810717D01*
X7533806Y974874D01*
X7324874Y1183806D01*
X7160717Y1429483D01*
X7123804Y1518599D01*
X7047643Y1702466D01*
X6990000Y1992262D01*
X6990000Y2287738D01*
X7047643Y2577534D01*
X7160716Y2850515D01*
X7324873Y3096193D01*
X7533807Y3305127D01*
X7655810Y3386647D01*
X7779483Y3469283D01*
X7779485Y3469284D01*
X8052466Y3582357D01*
X8342262Y3640000D01*
X8637738Y3640000D01*
X8927534Y3582357D01*
X8927534Y3582357D01*
G37*
G36*
X37230000Y1340000D02*
G01*
X35630000Y1340000D01*
X35630000Y2940000D01*
X37230000Y2940000D01*
X37230000Y1340000D01*
X37230000Y1340000D01*
G37*
G36*
X24530000Y1340000D02*
G01*
X22930000Y1340000D01*
X22930000Y2940000D01*
X24530000Y2940000D01*
X24530000Y1340000D01*
X24530000Y1340000D01*
G37*
G36*
X21990000Y1340000D02*
G01*
X20390000Y1340000D01*
X20390000Y2940000D01*
X21990000Y2940000D01*
X21990000Y1340000D01*
X21990000Y1340000D01*
G37*
G36*
X34123351Y2909257D02*
G01*
X34268941Y2848952D01*
X34399970Y2761401D01*
X34511401Y2649970D01*
X34598952Y2518941D01*
X34659257Y2373351D01*
X34690000Y2218794D01*
X34690000Y2061206D01*
X34659257Y1906649D01*
X34598952Y1761059D01*
X34511401Y1630030D01*
X34399970Y1518599D01*
X34268941Y1431048D01*
X34123351Y1370743D01*
X33968794Y1340000D01*
X33811206Y1340000D01*
X33656649Y1370743D01*
X33511059Y1431048D01*
X33380030Y1518599D01*
X33268599Y1630030D01*
X33181048Y1761059D01*
X33120743Y1906649D01*
X33090000Y2061206D01*
X33090000Y2218794D01*
X33120743Y2373351D01*
X33181048Y2518941D01*
X33268599Y2649970D01*
X33380030Y2761401D01*
X33511059Y2848952D01*
X33656649Y2909257D01*
X33811206Y2940000D01*
X33968794Y2940000D01*
X34123351Y2909257D01*
X34123351Y2909257D01*
G37*
G36*
X31583351Y2909257D02*
G01*
X31728941Y2848952D01*
X31859970Y2761401D01*
X31971401Y2649970D01*
X32058952Y2518941D01*
X32119257Y2373351D01*
X32150000Y2218794D01*
X32150000Y2061206D01*
X32119257Y1906649D01*
X32058952Y1761059D01*
X31971401Y1630030D01*
X31859970Y1518599D01*
X31728941Y1431048D01*
X31583351Y1370743D01*
X31428794Y1340000D01*
X31271206Y1340000D01*
X31116649Y1370743D01*
X30971059Y1431048D01*
X30840030Y1518599D01*
X30728599Y1630030D01*
X30641048Y1761059D01*
X30580743Y1906649D01*
X30550000Y2061206D01*
X30550000Y2218794D01*
X30580743Y2373351D01*
X30641048Y2518941D01*
X30728599Y2649970D01*
X30840030Y2761401D01*
X30971059Y2848952D01*
X31116649Y2909257D01*
X31271206Y2940000D01*
X31428794Y2940000D01*
X31583351Y2909257D01*
X31583351Y2909257D01*
G37*
G36*
X29043351Y2909257D02*
G01*
X29188941Y2848952D01*
X29319970Y2761401D01*
X29431401Y2649970D01*
X29518952Y2518941D01*
X29579257Y2373351D01*
X29610000Y2218794D01*
X29610000Y2061206D01*
X29579257Y1906649D01*
X29518952Y1761059D01*
X29431401Y1630030D01*
X29319970Y1518599D01*
X29188941Y1431048D01*
X29043351Y1370743D01*
X28888794Y1340000D01*
X28731206Y1340000D01*
X28576649Y1370743D01*
X28431059Y1431048D01*
X28300030Y1518599D01*
X28188599Y1630030D01*
X28101048Y1761059D01*
X28040743Y1906649D01*
X28010000Y2061206D01*
X28010000Y2218794D01*
X28040743Y2373351D01*
X28101048Y2518941D01*
X28188599Y2649970D01*
X28300030Y2761401D01*
X28431059Y2848952D01*
X28576649Y2909257D01*
X28731206Y2940000D01*
X28888794Y2940000D01*
X29043351Y2909257D01*
X29043351Y2909257D01*
G37*
G36*
X27070000Y1340000D02*
G01*
X25470000Y1340000D01*
X25470000Y2940000D01*
X27070000Y2940000D01*
X27070000Y1340000D01*
X27070000Y1340000D01*
G37*
G36*
X39203351Y2909257D02*
G01*
X39348941Y2848952D01*
X39479970Y2761401D01*
X39591401Y2649970D01*
X39678952Y2518941D01*
X39739257Y2373351D01*
X39770000Y2218794D01*
X39770000Y2061206D01*
X39739257Y1906649D01*
X39678952Y1761059D01*
X39591401Y1630030D01*
X39479970Y1518599D01*
X39348941Y1431048D01*
X39203351Y1370743D01*
X39048794Y1340000D01*
X38891206Y1340000D01*
X38736649Y1370743D01*
X38591059Y1431048D01*
X38460030Y1518599D01*
X38348599Y1630030D01*
X38261048Y1761059D01*
X38200743Y1906649D01*
X38170000Y2061206D01*
X38170000Y2218794D01*
X38200743Y2373351D01*
X38261048Y2518941D01*
X38348599Y2649970D01*
X38460030Y2761401D01*
X38591059Y2848952D01*
X38736649Y2909257D01*
X38891206Y2940000D01*
X39048794Y2940000D01*
X39203351Y2909257D01*
X39203351Y2909257D01*
G37*
G36*
X41743351Y2909257D02*
G01*
X41888941Y2848952D01*
X42019970Y2761401D01*
X42131401Y2649970D01*
X42218952Y2518941D01*
X42279257Y2373351D01*
X42310000Y2218794D01*
X42310000Y2061206D01*
X42279257Y1906649D01*
X42218952Y1761059D01*
X42131401Y1630030D01*
X42019970Y1518599D01*
X41888941Y1431048D01*
X41743351Y1370743D01*
X41588794Y1340000D01*
X41431206Y1340000D01*
X41276649Y1370743D01*
X41131059Y1431048D01*
X41000030Y1518599D01*
X40888599Y1630030D01*
X40801048Y1761059D01*
X40740743Y1906649D01*
X40710000Y2061206D01*
X40710000Y2218794D01*
X40740743Y2373351D01*
X40801048Y2518941D01*
X40888599Y2649970D01*
X41000030Y2761401D01*
X41131059Y2848952D01*
X41276649Y2909257D01*
X41431206Y2940000D01*
X41588794Y2940000D01*
X41743351Y2909257D01*
X41743351Y2909257D01*
G37*
G36*
X16880000Y1690000D02*
G01*
X15980000Y1690000D01*
X15980000Y2590000D01*
X16880000Y2590000D01*
X16880000Y1690000D01*
X16880000Y1690000D01*
G37*
G36*
X18780000Y1690000D02*
G01*
X17880000Y1690000D01*
X17880000Y2590000D01*
X18780000Y2590000D01*
X18780000Y1690000D01*
X18780000Y1690000D01*
G37*
G36*
X37230000Y3880000D02*
G01*
X35630000Y3880000D01*
X35630000Y5480000D01*
X37230000Y5480000D01*
X37230000Y3880000D01*
X37230000Y3880000D01*
G37*
G36*
X23963351Y5449257D02*
G01*
X24108941Y5388952D01*
X24239970Y5301401D01*
X24351401Y5189970D01*
X24438952Y5058941D01*
X24499257Y4913351D01*
X24530000Y4758794D01*
X24530000Y4601206D01*
X24499257Y4446649D01*
X24438952Y4301059D01*
X24351401Y4170030D01*
X24239970Y4058599D01*
X24108941Y3971048D01*
X23963351Y3910743D01*
X23808794Y3880000D01*
X23651206Y3880000D01*
X23496649Y3910743D01*
X23351059Y3971048D01*
X23220030Y4058599D01*
X23108599Y4170030D01*
X23021048Y4301059D01*
X22960743Y4446649D01*
X22930000Y4601206D01*
X22930000Y4758794D01*
X22960743Y4913351D01*
X23021048Y5058941D01*
X23108599Y5189970D01*
X23220030Y5301401D01*
X23351059Y5388952D01*
X23496649Y5449257D01*
X23651206Y5480000D01*
X23808794Y5480000D01*
X23963351Y5449257D01*
X23963351Y5449257D01*
G37*
G36*
X11273471Y5476141D02*
G01*
X11351827Y5468424D01*
X11502628Y5422679D01*
X11502630Y5422678D01*
X11641605Y5348394D01*
X11641607Y5348393D01*
X11641606Y5348393D01*
X11763422Y5248422D01*
X11863393Y5126606D01*
X11937679Y4987628D01*
X11983424Y4836827D01*
X11998870Y4680000D01*
X11983424Y4523173D01*
X11937679Y4372372D01*
X11937678Y4372370D01*
X11863394Y4233395D01*
X11763422Y4111578D01*
X11641605Y4011606D01*
X11502630Y3937322D01*
X11502628Y3937321D01*
X11351827Y3891576D01*
X11273471Y3883859D01*
X11234294Y3880000D01*
X9555706Y3880000D01*
X9516529Y3883859D01*
X9438173Y3891576D01*
X9287372Y3937321D01*
X9287370Y3937322D01*
X9148395Y4011606D01*
X9026578Y4111578D01*
X8926606Y4233395D01*
X8852322Y4372370D01*
X8852321Y4372372D01*
X8806576Y4523173D01*
X8791130Y4680000D01*
X8806576Y4836827D01*
X8852321Y4987628D01*
X8926607Y5126606D01*
X9026578Y5248422D01*
X9148394Y5348393D01*
X9148393Y5348393D01*
X9148395Y5348394D01*
X9287370Y5422678D01*
X9287372Y5422679D01*
X9438173Y5468424D01*
X9516529Y5476141D01*
X9555706Y5480000D01*
X11234294Y5480000D01*
X11273471Y5476141D01*
X11273471Y5476141D01*
G37*
G36*
X13803351Y5449257D02*
G01*
X13948941Y5388952D01*
X14079970Y5301401D01*
X14191401Y5189970D01*
X14278952Y5058941D01*
X14339257Y4913351D01*
X14370000Y4758794D01*
X14370000Y4601206D01*
X14339257Y4446649D01*
X14278952Y4301059D01*
X14191401Y4170030D01*
X14079970Y4058599D01*
X13948941Y3971048D01*
X13803351Y3910743D01*
X13648794Y3880000D01*
X13491206Y3880000D01*
X13336649Y3910743D01*
X13191059Y3971048D01*
X13060030Y4058599D01*
X12948599Y4170030D01*
X12861048Y4301059D01*
X12800743Y4446649D01*
X12770000Y4601206D01*
X12770000Y4758794D01*
X12800743Y4913351D01*
X12861048Y5058941D01*
X12948599Y5189970D01*
X13060030Y5301401D01*
X13191059Y5388952D01*
X13336649Y5449257D01*
X13491206Y5480000D01*
X13648794Y5480000D01*
X13803351Y5449257D01*
X13803351Y5449257D01*
G37*
G36*
X41743351Y5449257D02*
G01*
X41888941Y5388952D01*
X42019970Y5301401D01*
X42131401Y5189970D01*
X42218952Y5058941D01*
X42279257Y4913351D01*
X42310000Y4758794D01*
X42310000Y4601206D01*
X42279257Y4446649D01*
X42218952Y4301059D01*
X42131401Y4170030D01*
X42019970Y4058599D01*
X41888941Y3971048D01*
X41743351Y3910743D01*
X41588794Y3880000D01*
X41431206Y3880000D01*
X41276649Y3910743D01*
X41131059Y3971048D01*
X41000030Y4058599D01*
X40888599Y4170030D01*
X40801048Y4301059D01*
X40740743Y4446649D01*
X40710000Y4601206D01*
X40710000Y4758794D01*
X40740743Y4913351D01*
X40801048Y5058941D01*
X40888599Y5189970D01*
X41000030Y5301401D01*
X41131059Y5388952D01*
X41276649Y5449257D01*
X41431206Y5480000D01*
X41588794Y5480000D01*
X41743351Y5449257D01*
X41743351Y5449257D01*
G37*
G36*
X39203351Y5449257D02*
G01*
X39348941Y5388952D01*
X39479970Y5301401D01*
X39591401Y5189970D01*
X39678952Y5058941D01*
X39739257Y4913351D01*
X39770000Y4758794D01*
X39770000Y4601206D01*
X39739257Y4446649D01*
X39678952Y4301059D01*
X39591401Y4170030D01*
X39479970Y4058599D01*
X39348941Y3971048D01*
X39203351Y3910743D01*
X39048794Y3880000D01*
X38891206Y3880000D01*
X38736649Y3910743D01*
X38591059Y3971048D01*
X38460030Y4058599D01*
X38348599Y4170030D01*
X38261048Y4301059D01*
X38200743Y4446649D01*
X38170000Y4601206D01*
X38170000Y4758794D01*
X38200743Y4913351D01*
X38261048Y5058941D01*
X38348599Y5189970D01*
X38460030Y5301401D01*
X38591059Y5388952D01*
X38736649Y5449257D01*
X38891206Y5480000D01*
X39048794Y5480000D01*
X39203351Y5449257D01*
X39203351Y5449257D01*
G37*
G36*
X31583351Y5449257D02*
G01*
X31728941Y5388952D01*
X31859970Y5301401D01*
X31971401Y5189970D01*
X32058952Y5058941D01*
X32119257Y4913351D01*
X32150000Y4758794D01*
X32150000Y4601206D01*
X32119257Y4446649D01*
X32058952Y4301059D01*
X31971401Y4170030D01*
X31859970Y4058599D01*
X31728941Y3971048D01*
X31583351Y3910743D01*
X31428794Y3880000D01*
X31271206Y3880000D01*
X31116649Y3910743D01*
X30971059Y3971048D01*
X30840030Y4058599D01*
X30728599Y4170030D01*
X30641048Y4301059D01*
X30580743Y4446649D01*
X30550000Y4601206D01*
X30550000Y4758794D01*
X30580743Y4913351D01*
X30641048Y5058941D01*
X30728599Y5189970D01*
X30840030Y5301401D01*
X30971059Y5388952D01*
X31116649Y5449257D01*
X31271206Y5480000D01*
X31428794Y5480000D01*
X31583351Y5449257D01*
X31583351Y5449257D01*
G37*
G36*
X21423351Y5449257D02*
G01*
X21568941Y5388952D01*
X21699970Y5301401D01*
X21811401Y5189970D01*
X21898952Y5058941D01*
X21959257Y4913351D01*
X21990000Y4758794D01*
X21990000Y4601206D01*
X21959257Y4446649D01*
X21898952Y4301059D01*
X21811401Y4170030D01*
X21699970Y4058599D01*
X21568941Y3971048D01*
X21423351Y3910743D01*
X21268794Y3880000D01*
X21111206Y3880000D01*
X20956649Y3910743D01*
X20811059Y3971048D01*
X20680030Y4058599D01*
X20568599Y4170030D01*
X20481048Y4301059D01*
X20420743Y4446649D01*
X20390000Y4601206D01*
X20390000Y4758794D01*
X20420743Y4913351D01*
X20481048Y5058941D01*
X20568599Y5189970D01*
X20680030Y5301401D01*
X20811059Y5388952D01*
X20956649Y5449257D01*
X21111206Y5480000D01*
X21268794Y5480000D01*
X21423351Y5449257D01*
X21423351Y5449257D01*
G37*
G36*
X29043351Y5449257D02*
G01*
X29188941Y5388952D01*
X29319970Y5301401D01*
X29431401Y5189970D01*
X29518952Y5058941D01*
X29579257Y4913351D01*
X29610000Y4758794D01*
X29610000Y4601206D01*
X29579257Y4446649D01*
X29518952Y4301059D01*
X29431401Y4170030D01*
X29319970Y4058599D01*
X29188941Y3971048D01*
X29043351Y3910743D01*
X28888794Y3880000D01*
X28731206Y3880000D01*
X28576649Y3910743D01*
X28431059Y3971048D01*
X28300030Y4058599D01*
X28188599Y4170030D01*
X28101048Y4301059D01*
X28040743Y4446649D01*
X28010000Y4601206D01*
X28010000Y4758794D01*
X28040743Y4913351D01*
X28101048Y5058941D01*
X28188599Y5189970D01*
X28300030Y5301401D01*
X28431059Y5388952D01*
X28576649Y5449257D01*
X28731206Y5480000D01*
X28888794Y5480000D01*
X29043351Y5449257D01*
X29043351Y5449257D01*
G37*
G36*
X27070000Y3880000D02*
G01*
X25470000Y3880000D01*
X25470000Y5480000D01*
X27070000Y5480000D01*
X27070000Y3880000D01*
X27070000Y3880000D01*
G37*
G36*
X34123351Y5449257D02*
G01*
X34268941Y5388952D01*
X34399970Y5301401D01*
X34511401Y5189970D01*
X34598952Y5058941D01*
X34659257Y4913351D01*
X34690000Y4758794D01*
X34690000Y4601206D01*
X34659257Y4446649D01*
X34598952Y4301059D01*
X34511401Y4170030D01*
X34399970Y4058599D01*
X34268941Y3971048D01*
X34123351Y3910743D01*
X33968794Y3880000D01*
X33811206Y3880000D01*
X33656649Y3910743D01*
X33511059Y3971048D01*
X33380030Y4058599D01*
X33268599Y4170030D01*
X33181048Y4301059D01*
X33120743Y4446649D01*
X33090000Y4601206D01*
X33090000Y4758794D01*
X33120743Y4913351D01*
X33181048Y5058941D01*
X33268599Y5189970D01*
X33380030Y5301401D01*
X33511059Y5388952D01*
X33656649Y5449257D01*
X33811206Y5480000D01*
X33968794Y5480000D01*
X34123351Y5449257D01*
X34123351Y5449257D01*
G37*
G36*
X16880000Y4230000D02*
G01*
X15980000Y4230000D01*
X15980000Y5130000D01*
X16880000Y5130000D01*
X16880000Y4230000D01*
X16880000Y4230000D01*
G37*
G36*
X18780000Y4230000D02*
G01*
X17880000Y4230000D01*
X17880000Y5130000D01*
X18780000Y5130000D01*
X18780000Y4230000D01*
X18780000Y4230000D01*
G37*
G36*
X36663351Y7989257D02*
G01*
X36808941Y7928952D01*
X36939970Y7841401D01*
X37051401Y7729970D01*
X37138952Y7598941D01*
X37199257Y7453351D01*
X37230000Y7298794D01*
X37230000Y7141206D01*
X37199257Y6986649D01*
X37138952Y6841059D01*
X37051401Y6710030D01*
X36939970Y6598599D01*
X36808941Y6511048D01*
X36663351Y6450743D01*
X36508794Y6420000D01*
X36351206Y6420000D01*
X36196649Y6450743D01*
X36051059Y6511048D01*
X35920030Y6598599D01*
X35808599Y6710030D01*
X35721048Y6841059D01*
X35660743Y6986649D01*
X35630000Y7141206D01*
X35630000Y7298794D01*
X35660743Y7453351D01*
X35721048Y7598941D01*
X35808599Y7729970D01*
X35920030Y7841401D01*
X36051059Y7928952D01*
X36196649Y7989257D01*
X36351206Y8020000D01*
X36508794Y8020000D01*
X36663351Y7989257D01*
X36663351Y7989257D01*
G37*
G36*
X21990000Y6420000D02*
G01*
X20390000Y6420000D01*
X20390000Y8020000D01*
X21990000Y8020000D01*
X21990000Y6420000D01*
X21990000Y6420000D01*
G37*
G36*
X39770000Y6420000D02*
G01*
X38170000Y6420000D01*
X38170000Y8020000D01*
X39770000Y8020000D01*
X39770000Y6420000D01*
X39770000Y6420000D01*
G37*
G36*
X31583351Y7989257D02*
G01*
X31728941Y7928952D01*
X31859970Y7841401D01*
X31971401Y7729970D01*
X32058952Y7598941D01*
X32119257Y7453351D01*
X32150000Y7298794D01*
X32150000Y7141206D01*
X32119257Y6986649D01*
X32058952Y6841059D01*
X31971401Y6710030D01*
X31859970Y6598599D01*
X31728941Y6511048D01*
X31583351Y6450743D01*
X31428794Y6420000D01*
X31271206Y6420000D01*
X31116649Y6450743D01*
X30971059Y6511048D01*
X30840030Y6598599D01*
X30728599Y6710030D01*
X30641048Y6841059D01*
X30580743Y6986649D01*
X30550000Y7141206D01*
X30550000Y7298794D01*
X30580743Y7453351D01*
X30641048Y7598941D01*
X30728599Y7729970D01*
X30840030Y7841401D01*
X30971059Y7928952D01*
X31116649Y7989257D01*
X31271206Y8020000D01*
X31428794Y8020000D01*
X31583351Y7989257D01*
X31583351Y7989257D01*
G37*
G36*
X34123351Y7989257D02*
G01*
X34268941Y7928952D01*
X34399970Y7841401D01*
X34511401Y7729970D01*
X34598952Y7598941D01*
X34659257Y7453351D01*
X34690000Y7298794D01*
X34690000Y7141206D01*
X34659257Y6986649D01*
X34598952Y6841059D01*
X34511401Y6710030D01*
X34399970Y6598599D01*
X34268941Y6511048D01*
X34123351Y6450743D01*
X33968794Y6420000D01*
X33811206Y6420000D01*
X33656649Y6450743D01*
X33511059Y6511048D01*
X33380030Y6598599D01*
X33268599Y6710030D01*
X33181048Y6841059D01*
X33120743Y6986649D01*
X33090000Y7141206D01*
X33090000Y7298794D01*
X33120743Y7453351D01*
X33181048Y7598941D01*
X33268599Y7729970D01*
X33380030Y7841401D01*
X33511059Y7928952D01*
X33656649Y7989257D01*
X33811206Y8020000D01*
X33968794Y8020000D01*
X34123351Y7989257D01*
X34123351Y7989257D01*
G37*
G36*
X26503351Y7989257D02*
G01*
X26648941Y7928952D01*
X26779970Y7841401D01*
X26891401Y7729970D01*
X26978952Y7598941D01*
X27039257Y7453351D01*
X27070000Y7298794D01*
X27070000Y7141206D01*
X27039257Y6986649D01*
X26978952Y6841059D01*
X26891401Y6710030D01*
X26779970Y6598599D01*
X26648941Y6511048D01*
X26503351Y6450743D01*
X26348794Y6420000D01*
X26191206Y6420000D01*
X26036649Y6450743D01*
X25891059Y6511048D01*
X25760030Y6598599D01*
X25648599Y6710030D01*
X25561048Y6841059D01*
X25500743Y6986649D01*
X25470000Y7141206D01*
X25470000Y7298794D01*
X25500743Y7453351D01*
X25561048Y7598941D01*
X25648599Y7729970D01*
X25760030Y7841401D01*
X25891059Y7928952D01*
X26036649Y7989257D01*
X26191206Y8020000D01*
X26348794Y8020000D01*
X26503351Y7989257D01*
X26503351Y7989257D01*
G37*
G36*
X29610000Y6420000D02*
G01*
X28010000Y6420000D01*
X28010000Y8020000D01*
X29610000Y8020000D01*
X29610000Y6420000D01*
X29610000Y6420000D01*
G37*
G36*
X23963351Y7989257D02*
G01*
X24108941Y7928952D01*
X24239970Y7841401D01*
X24351401Y7729970D01*
X24438952Y7598941D01*
X24499257Y7453351D01*
X24530000Y7298794D01*
X24530000Y7141206D01*
X24499257Y6986649D01*
X24438952Y6841059D01*
X24351401Y6710030D01*
X24239970Y6598599D01*
X24108941Y6511048D01*
X23963351Y6450743D01*
X23808794Y6420000D01*
X23651206Y6420000D01*
X23496649Y6450743D01*
X23351059Y6511048D01*
X23220030Y6598599D01*
X23108599Y6710030D01*
X23021048Y6841059D01*
X22960743Y6986649D01*
X22930000Y7141206D01*
X22930000Y7298794D01*
X22960743Y7453351D01*
X23021048Y7598941D01*
X23108599Y7729970D01*
X23220030Y7841401D01*
X23351059Y7928952D01*
X23496649Y7989257D01*
X23651206Y8020000D01*
X23808794Y8020000D01*
X23963351Y7989257D01*
X23963351Y7989257D01*
G37*
G36*
X18780000Y6770000D02*
G01*
X17880000Y6770000D01*
X17880000Y7670000D01*
X18780000Y7670000D01*
X18780000Y6770000D01*
X18780000Y6770000D01*
G37*
G36*
X16880000Y6770000D02*
G01*
X15980000Y6770000D01*
X15980000Y7670000D01*
X16880000Y7670000D01*
X16880000Y6770000D01*
X16880000Y6770000D01*
G37*
G36*
X9391000Y7640000D02*
G01*
X6891000Y7640000D01*
X6891000Y9340000D01*
X9391000Y9340000D01*
X9391000Y7640000D01*
X9391000Y7640000D01*
G37*
G36*
X13391000Y7640000D02*
G01*
X10891000Y7640000D01*
X10891000Y9340000D01*
X13391000Y9340000D01*
X13391000Y7640000D01*
X13391000Y7640000D01*
G37*
G36*
X3014000Y8094000D02*
G01*
X2114000Y8094000D01*
X2114000Y9394000D01*
X3014000Y9394000D01*
X3014000Y8094000D01*
X3014000Y8094000D01*
G37*
G36*
X5214000Y8094000D02*
G01*
X4314000Y8094000D01*
X4314000Y9394000D01*
X5214000Y9394000D01*
X5214000Y8094000D01*
X5214000Y8094000D01*
G37*
G36*
X46800000Y8550000D02*
G01*
X45900000Y8550000D01*
X45900000Y9450000D01*
X46800000Y9450000D01*
X46800000Y8550000D01*
X46800000Y8550000D01*
G37*
G36*
X44900000Y8550000D02*
G01*
X44000000Y8550000D01*
X44000000Y9450000D01*
X44900000Y9450000D01*
X44900000Y8550000D01*
X44900000Y8550000D01*
G37*
G36*
X21423351Y10529257D02*
G01*
X21568941Y10468952D01*
X21699970Y10381401D01*
X21811401Y10269970D01*
X21898952Y10138941D01*
X21959257Y9993351D01*
X21990000Y9838794D01*
X21990000Y9681206D01*
X21959257Y9526649D01*
X21898952Y9381059D01*
X21811401Y9250030D01*
X21699970Y9138599D01*
X21568941Y9051048D01*
X21423351Y8990743D01*
X21268794Y8960000D01*
X21111206Y8960000D01*
X20956649Y8990743D01*
X20811059Y9051048D01*
X20680030Y9138599D01*
X20568599Y9250030D01*
X20481048Y9381059D01*
X20420743Y9526649D01*
X20390000Y9681206D01*
X20390000Y9838794D01*
X20420743Y9993351D01*
X20481048Y10138941D01*
X20568599Y10269970D01*
X20680030Y10381401D01*
X20811059Y10468952D01*
X20956649Y10529257D01*
X21111206Y10560000D01*
X21268794Y10560000D01*
X21423351Y10529257D01*
X21423351Y10529257D01*
G37*
G36*
X16880000Y9437000D02*
G01*
X15980000Y9437000D01*
X15980000Y10337000D01*
X16880000Y10337000D01*
X16880000Y9437000D01*
X16880000Y9437000D01*
G37*
G36*
X18780000Y9437000D02*
G01*
X17880000Y9437000D01*
X17880000Y10337000D01*
X18780000Y10337000D01*
X18780000Y9437000D01*
X18780000Y9437000D01*
G37*
G36*
X24815000Y9630000D02*
G01*
X23915000Y9630000D01*
X23915000Y10530000D01*
X24815000Y10530000D01*
X24815000Y9630000D01*
X24815000Y9630000D01*
G37*
G36*
X27355000Y9630000D02*
G01*
X26455000Y9630000D01*
X26455000Y10530000D01*
X27355000Y10530000D01*
X27355000Y9630000D01*
X27355000Y9630000D01*
G37*
G36*
X31485000Y9945000D02*
G01*
X30585000Y9945000D01*
X30585000Y10845000D01*
X31485000Y10845000D01*
X31485000Y9945000D01*
X31485000Y9945000D01*
G37*
G36*
X37830000Y9945000D02*
G01*
X36930000Y9945000D01*
X36930000Y10845000D01*
X37830000Y10845000D01*
X37830000Y9945000D01*
X37830000Y9945000D01*
G37*
G36*
X35930000Y9945000D02*
G01*
X35030000Y9945000D01*
X35030000Y10845000D01*
X35930000Y10845000D01*
X35930000Y9945000D01*
X35930000Y9945000D01*
G37*
G36*
X40375000Y9945000D02*
G01*
X39475000Y9945000D01*
X39475000Y10845000D01*
X40375000Y10845000D01*
X40375000Y9945000D01*
X40375000Y9945000D01*
G37*
G36*
X42275000Y9945000D02*
G01*
X41375000Y9945000D01*
X41375000Y10845000D01*
X42275000Y10845000D01*
X42275000Y9945000D01*
X42275000Y9945000D01*
G37*
G36*
X33385000Y9945000D02*
G01*
X32485000Y9945000D01*
X32485000Y10845000D01*
X33385000Y10845000D01*
X33385000Y9945000D01*
X33385000Y9945000D01*
G37*
G36*
X2971000Y10900000D02*
G01*
X2071000Y10900000D01*
X2071000Y11800000D01*
X2971000Y11800000D01*
X2971000Y10900000D01*
X2971000Y10900000D01*
G37*
G36*
X46823351Y13069257D02*
G01*
X46968941Y13008952D01*
X47099970Y12921401D01*
X47211401Y12809970D01*
X47298952Y12678941D01*
X47359257Y12533351D01*
X47390000Y12378794D01*
X47390000Y12221206D01*
X47359257Y12066649D01*
X47298952Y11921059D01*
X47211401Y11790030D01*
X47099970Y11678599D01*
X46968941Y11591048D01*
X46823351Y11530743D01*
X46668794Y11500000D01*
X46511206Y11500000D01*
X46356649Y11530743D01*
X46211059Y11591048D01*
X46080030Y11678599D01*
X45968599Y11790030D01*
X45881048Y11921059D01*
X45820743Y12066649D01*
X45790000Y12221206D01*
X45790000Y12378794D01*
X45820743Y12533351D01*
X45881048Y12678941D01*
X45968599Y12809970D01*
X46080030Y12921401D01*
X46211059Y13008952D01*
X46356649Y13069257D01*
X46511206Y13100000D01*
X46668794Y13100000D01*
X46823351Y13069257D01*
X46823351Y13069257D01*
G37*
G36*
X21423351Y13069257D02*
G01*
X21568941Y13008952D01*
X21699970Y12921401D01*
X21811401Y12809970D01*
X21898952Y12678941D01*
X21959257Y12533351D01*
X21990000Y12378794D01*
X21990000Y12221206D01*
X21959257Y12066649D01*
X21898952Y11921059D01*
X21811401Y11790030D01*
X21699970Y11678599D01*
X21568941Y11591048D01*
X21423351Y11530743D01*
X21268794Y11500000D01*
X21111206Y11500000D01*
X20956649Y11530743D01*
X20811059Y11591048D01*
X20680030Y11678599D01*
X20568599Y11790030D01*
X20481048Y11921059D01*
X20420743Y12066649D01*
X20390000Y12221206D01*
X20390000Y12378794D01*
X20420743Y12533351D01*
X20481048Y12678941D01*
X20568599Y12809970D01*
X20680030Y12921401D01*
X20811059Y13008952D01*
X20956649Y13069257D01*
X21111206Y13100000D01*
X21268794Y13100000D01*
X21423351Y13069257D01*
X21423351Y13069257D01*
G37*
G36*
X44283351Y13069257D02*
G01*
X44428941Y13008952D01*
X44559970Y12921401D01*
X44671401Y12809970D01*
X44758952Y12678941D01*
X44819257Y12533351D01*
X44850000Y12378794D01*
X44850000Y12221206D01*
X44819257Y12066649D01*
X44758952Y11921059D01*
X44671401Y11790030D01*
X44559970Y11678599D01*
X44428941Y11591048D01*
X44283351Y11530743D01*
X44128794Y11500000D01*
X43971206Y11500000D01*
X43816649Y11530743D01*
X43671059Y11591048D01*
X43540030Y11678599D01*
X43428599Y11790030D01*
X43341048Y11921059D01*
X43280743Y12066649D01*
X43250000Y12221206D01*
X43250000Y12378794D01*
X43280743Y12533351D01*
X43341048Y12678941D01*
X43428599Y12809970D01*
X43540030Y12921401D01*
X43671059Y13008952D01*
X43816649Y13069257D01*
X43971206Y13100000D01*
X44128794Y13100000D01*
X44283351Y13069257D01*
X44283351Y13069257D01*
G37*
G36*
X24815000Y11530000D02*
G01*
X23915000Y11530000D01*
X23915000Y12430000D01*
X24815000Y12430000D01*
X24815000Y11530000D01*
X24815000Y11530000D01*
G37*
G36*
X27355000Y11530000D02*
G01*
X26455000Y11530000D01*
X26455000Y12430000D01*
X27355000Y12430000D01*
X27355000Y11530000D01*
X27355000Y11530000D01*
G37*
G36*
X6720000Y11850000D02*
G01*
X5820000Y11850000D01*
X5820000Y12750000D01*
X6720000Y12750000D01*
X6720000Y11850000D01*
X6720000Y11850000D01*
G37*
G36*
X8620000Y11850000D02*
G01*
X7720000Y11850000D01*
X7720000Y12750000D01*
X8620000Y12750000D01*
X8620000Y11850000D01*
X8620000Y11850000D01*
G37*
G36*
X13133000Y11951000D02*
G01*
X12483000Y11951000D01*
X12483000Y13151000D01*
X13133000Y13151000D01*
X13133000Y11951000D01*
X13133000Y11951000D01*
G37*
G36*
X12183000Y11951000D02*
G01*
X11533000Y11951000D01*
X11533000Y13151000D01*
X12183000Y13151000D01*
X12183000Y11951000D01*
X12183000Y11951000D01*
G37*
G36*
X14083000Y11951000D02*
G01*
X13433000Y11951000D01*
X13433000Y13151000D01*
X14083000Y13151000D01*
X14083000Y11951000D01*
X14083000Y11951000D01*
G37*
G36*
X31419000Y12551000D02*
G01*
X30519000Y12551000D01*
X30519000Y13451000D01*
X31419000Y13451000D01*
X31419000Y12551000D01*
X31419000Y12551000D01*
G37*
G36*
X40959000Y12635000D02*
G01*
X38759000Y12635000D01*
X38759000Y13235000D01*
X40959000Y13235000D01*
X40959000Y12635000D01*
X40959000Y12635000D01*
G37*
G36*
X35759000Y12635000D02*
G01*
X33559000Y12635000D01*
X33559000Y13235000D01*
X35759000Y13235000D01*
X35759000Y12635000D01*
X35759000Y12635000D01*
G37*
G36*
X2971000Y12800000D02*
G01*
X2071000Y12800000D01*
X2071000Y13700000D01*
X2971000Y13700000D01*
X2971000Y12800000D01*
X2971000Y12800000D01*
G37*
G36*
X16814000Y13059000D02*
G01*
X15914000Y13059000D01*
X15914000Y13959000D01*
X16814000Y13959000D01*
X16814000Y13059000D01*
X16814000Y13059000D01*
G37*
G36*
X35759000Y13905000D02*
G01*
X33559000Y13905000D01*
X33559000Y14505000D01*
X35759000Y14505000D01*
X35759000Y13905000D01*
X35759000Y13905000D01*
G37*
G36*
X40959000Y13905000D02*
G01*
X38759000Y13905000D01*
X38759000Y14505000D01*
X40959000Y14505000D01*
X40959000Y13905000D01*
X40959000Y13905000D01*
G37*
G36*
X46823351Y15609257D02*
G01*
X46968941Y15548952D01*
X47099970Y15461401D01*
X47211401Y15349970D01*
X47298952Y15218941D01*
X47359257Y15073351D01*
X47390000Y14918794D01*
X47390000Y14761206D01*
X47359257Y14606649D01*
X47298952Y14461059D01*
X47211401Y14330030D01*
X47099970Y14218599D01*
X46968941Y14131048D01*
X46823351Y14070743D01*
X46668794Y14040000D01*
X46511206Y14040000D01*
X46356649Y14070743D01*
X46211059Y14131048D01*
X46080030Y14218599D01*
X45968599Y14330030D01*
X45881048Y14461059D01*
X45820743Y14606649D01*
X45790000Y14761206D01*
X45790000Y14918794D01*
X45820743Y15073351D01*
X45881048Y15218941D01*
X45968599Y15349970D01*
X46080030Y15461401D01*
X46211059Y15548952D01*
X46356649Y15609257D01*
X46511206Y15640000D01*
X46668794Y15640000D01*
X46823351Y15609257D01*
X46823351Y15609257D01*
G37*
G36*
X44283351Y15609257D02*
G01*
X44428941Y15548952D01*
X44559970Y15461401D01*
X44671401Y15349970D01*
X44758952Y15218941D01*
X44819257Y15073351D01*
X44850000Y14918794D01*
X44850000Y14761206D01*
X44819257Y14606649D01*
X44758952Y14461059D01*
X44671401Y14330030D01*
X44559970Y14218599D01*
X44428941Y14131048D01*
X44283351Y14070743D01*
X44128794Y14040000D01*
X43971206Y14040000D01*
X43816649Y14070743D01*
X43671059Y14131048D01*
X43540030Y14218599D01*
X43428599Y14330030D01*
X43341048Y14461059D01*
X43280743Y14606649D01*
X43250000Y14761206D01*
X43250000Y14918794D01*
X43280743Y15073351D01*
X43341048Y15218941D01*
X43428599Y15349970D01*
X43540030Y15461401D01*
X43671059Y15548952D01*
X43816649Y15609257D01*
X43971206Y15640000D01*
X44128794Y15640000D01*
X44283351Y15609257D01*
X44283351Y15609257D01*
G37*
G36*
X25455000Y14136000D02*
G01*
X24555000Y14136000D01*
X24555000Y15036000D01*
X25455000Y15036000D01*
X25455000Y14136000D01*
X25455000Y14136000D01*
G37*
G36*
X27355000Y14136000D02*
G01*
X26455000Y14136000D01*
X26455000Y15036000D01*
X27355000Y15036000D01*
X27355000Y14136000D01*
X27355000Y14136000D01*
G37*
G36*
X8620000Y14390000D02*
G01*
X7720000Y14390000D01*
X7720000Y15290000D01*
X8620000Y15290000D01*
X8620000Y14390000D01*
X8620000Y14390000D01*
G37*
G36*
X6720000Y14390000D02*
G01*
X5820000Y14390000D01*
X5820000Y15290000D01*
X6720000Y15290000D01*
X6720000Y14390000D01*
X6720000Y14390000D01*
G37*
G36*
X31419000Y14451000D02*
G01*
X30519000Y14451000D01*
X30519000Y15351000D01*
X31419000Y15351000D01*
X31419000Y14451000D01*
X31419000Y14451000D01*
G37*
G36*
X14083000Y14751000D02*
G01*
X13433000Y14751000D01*
X13433000Y15951000D01*
X14083000Y15951000D01*
X14083000Y14751000D01*
X14083000Y14751000D01*
G37*
G36*
X12183000Y14751000D02*
G01*
X11533000Y14751000D01*
X11533000Y15951000D01*
X12183000Y15951000D01*
X12183000Y14751000D01*
X12183000Y14751000D01*
G37*
G36*
X13133000Y14751000D02*
G01*
X12483000Y14751000D01*
X12483000Y15951000D01*
X13133000Y15951000D01*
X13133000Y14751000D01*
X13133000Y14751000D01*
G37*
G36*
X16814000Y14959000D02*
G01*
X15914000Y14959000D01*
X15914000Y15859000D01*
X16814000Y15859000D01*
X16814000Y14959000D01*
X16814000Y14959000D01*
G37*
G36*
X2971000Y14964000D02*
G01*
X2071000Y14964000D01*
X2071000Y15864000D01*
X2971000Y15864000D01*
X2971000Y14964000D01*
X2971000Y14964000D01*
G37*
G36*
X35759000Y15175000D02*
G01*
X33559000Y15175000D01*
X33559000Y15775000D01*
X35759000Y15775000D01*
X35759000Y15175000D01*
X35759000Y15175000D01*
G37*
G36*
X40959000Y15175000D02*
G01*
X38759000Y15175000D01*
X38759000Y15775000D01*
X40959000Y15775000D01*
X40959000Y15175000D01*
X40959000Y15175000D01*
G37*
G36*
X40959000Y16445000D02*
G01*
X38759000Y16445000D01*
X38759000Y17045000D01*
X40959000Y17045000D01*
X40959000Y16445000D01*
X40959000Y16445000D01*
G37*
G36*
X35759000Y16445000D02*
G01*
X33559000Y16445000D01*
X33559000Y17045000D01*
X35759000Y17045000D01*
X35759000Y16445000D01*
X35759000Y16445000D01*
G37*
G36*
X46823351Y18149257D02*
G01*
X46968941Y18088952D01*
X47099970Y18001401D01*
X47211401Y17889970D01*
X47298952Y17758941D01*
X47359257Y17613351D01*
X47390000Y17458794D01*
X47390000Y17301206D01*
X47359257Y17146649D01*
X47298952Y17001059D01*
X47211401Y16870030D01*
X47099970Y16758599D01*
X46968941Y16671048D01*
X46823351Y16610743D01*
X46668794Y16580000D01*
X46511206Y16580000D01*
X46356649Y16610743D01*
X46211059Y16671048D01*
X46080030Y16758599D01*
X45968599Y16870030D01*
X45881048Y17001059D01*
X45820743Y17146649D01*
X45790000Y17301206D01*
X45790000Y17458794D01*
X45820743Y17613351D01*
X45881048Y17758941D01*
X45968599Y17889970D01*
X46080030Y18001401D01*
X46211059Y18088952D01*
X46356649Y18149257D01*
X46511206Y18180000D01*
X46668794Y18180000D01*
X46823351Y18149257D01*
X46823351Y18149257D01*
G37*
G36*
X44283351Y18149257D02*
G01*
X44428941Y18088952D01*
X44559970Y18001401D01*
X44671401Y17889970D01*
X44758952Y17758941D01*
X44819257Y17613351D01*
X44850000Y17458794D01*
X44850000Y17301206D01*
X44819257Y17146649D01*
X44758952Y17001059D01*
X44671401Y16870030D01*
X44559970Y16758599D01*
X44428941Y16671048D01*
X44283351Y16610743D01*
X44128794Y16580000D01*
X43971206Y16580000D01*
X43816649Y16610743D01*
X43671059Y16671048D01*
X43540030Y16758599D01*
X43428599Y16870030D01*
X43341048Y17001059D01*
X43280743Y17146649D01*
X43250000Y17301206D01*
X43250000Y17458794D01*
X43280743Y17613351D01*
X43341048Y17758941D01*
X43428599Y17889970D01*
X43540030Y18001401D01*
X43671059Y18088952D01*
X43816649Y18149257D01*
X43971206Y18180000D01*
X44128794Y18180000D01*
X44283351Y18149257D01*
X44283351Y18149257D01*
G37*
G36*
X5450000Y16600000D02*
G01*
X4550000Y16600000D01*
X4550000Y17500000D01*
X5450000Y17500000D01*
X5450000Y16600000D01*
X5450000Y16600000D01*
G37*
G36*
X2971000Y16864000D02*
G01*
X2071000Y16864000D01*
X2071000Y17764000D01*
X2971000Y17764000D01*
X2971000Y16864000D01*
X2971000Y16864000D01*
G37*
G36*
X27355000Y17123000D02*
G01*
X26455000Y17123000D01*
X26455000Y18023000D01*
X27355000Y18023000D01*
X27355000Y17123000D01*
X27355000Y17123000D01*
G37*
G36*
X31419000Y17250000D02*
G01*
X30519000Y17250000D01*
X30519000Y18150000D01*
X31419000Y18150000D01*
X31419000Y17250000D01*
X31419000Y17250000D01*
G37*
G36*
X8000000Y17550000D02*
G01*
X7100000Y17550000D01*
X7100000Y18450000D01*
X8000000Y18450000D01*
X8000000Y17550000D01*
X8000000Y17550000D01*
G37*
G36*
X9900000Y17550000D02*
G01*
X9000000Y17550000D01*
X9000000Y18450000D01*
X9900000Y18450000D01*
X9900000Y17550000D01*
X9900000Y17550000D01*
G37*
G36*
X12308000Y17565000D02*
G01*
X11408000Y17565000D01*
X11408000Y18465000D01*
X12308000Y18465000D01*
X12308000Y17565000D01*
X12308000Y17565000D01*
G37*
G36*
X14208000Y17565000D02*
G01*
X13308000Y17565000D01*
X13308000Y18465000D01*
X14208000Y18465000D01*
X14208000Y17565000D01*
X14208000Y17565000D01*
G37*
G36*
X19354000Y17885000D02*
G01*
X18454000Y17885000D01*
X18454000Y18785000D01*
X19354000Y18785000D01*
X19354000Y17885000D01*
X19354000Y17885000D01*
G37*
G36*
X16814000Y17885000D02*
G01*
X15914000Y17885000D01*
X15914000Y18785000D01*
X16814000Y18785000D01*
X16814000Y17885000D01*
X16814000Y17885000D01*
G37*
G36*
X24434000Y17885000D02*
G01*
X23534000Y17885000D01*
X23534000Y18785000D01*
X24434000Y18785000D01*
X24434000Y17885000D01*
X24434000Y17885000D01*
G37*
G36*
X21894000Y17885000D02*
G01*
X20994000Y17885000D01*
X20994000Y18785000D01*
X21894000Y18785000D01*
X21894000Y17885000D01*
X21894000Y17885000D01*
G37*
G36*
X5450000Y18500000D02*
G01*
X4550000Y18500000D01*
X4550000Y19400000D01*
X5450000Y19400000D01*
X5450000Y18500000D01*
X5450000Y18500000D01*
G37*
G36*
X36245000Y18520000D02*
G01*
X35345000Y18520000D01*
X35345000Y19420000D01*
X36245000Y19420000D01*
X36245000Y18520000D01*
X36245000Y18520000D01*
G37*
G36*
X41005000Y18835000D02*
G01*
X40105000Y18835000D01*
X40105000Y19735000D01*
X41005000Y19735000D01*
X41005000Y18835000D01*
X41005000Y18835000D01*
G37*
G36*
X39105000Y18835000D02*
G01*
X38205000Y18835000D01*
X38205000Y19735000D01*
X39105000Y19735000D01*
X39105000Y18835000D01*
X39105000Y18835000D01*
G37*
G36*
X27355000Y19023000D02*
G01*
X26455000Y19023000D01*
X26455000Y19923000D01*
X27355000Y19923000D01*
X27355000Y19023000D01*
X27355000Y19023000D01*
G37*
G36*
X46823351Y20689257D02*
G01*
X46968941Y20628952D01*
X47099970Y20541401D01*
X47211401Y20429970D01*
X47298952Y20298941D01*
X47359257Y20153351D01*
X47390000Y19998794D01*
X47390000Y19841206D01*
X47359257Y19686649D01*
X47298952Y19541059D01*
X47211401Y19410030D01*
X47099970Y19298599D01*
X46968941Y19211048D01*
X46823351Y19150743D01*
X46668794Y19120000D01*
X46511206Y19120000D01*
X46356649Y19150743D01*
X46211059Y19211048D01*
X46080030Y19298599D01*
X45968599Y19410030D01*
X45881048Y19541059D01*
X45820743Y19686649D01*
X45790000Y19841206D01*
X45790000Y19998794D01*
X45820743Y20153351D01*
X45881048Y20298941D01*
X45968599Y20429970D01*
X46080030Y20541401D01*
X46211059Y20628952D01*
X46356649Y20689257D01*
X46511206Y20720000D01*
X46668794Y20720000D01*
X46823351Y20689257D01*
X46823351Y20689257D01*
G37*
G36*
X44283351Y20689257D02*
G01*
X44428941Y20628952D01*
X44559970Y20541401D01*
X44671401Y20429970D01*
X44758952Y20298941D01*
X44819257Y20153351D01*
X44850000Y19998794D01*
X44850000Y19841206D01*
X44819257Y19686649D01*
X44758952Y19541059D01*
X44671401Y19410030D01*
X44559970Y19298599D01*
X44428941Y19211048D01*
X44283351Y19150743D01*
X44128794Y19120000D01*
X43971206Y19120000D01*
X43816649Y19150743D01*
X43671059Y19211048D01*
X43540030Y19298599D01*
X43428599Y19410030D01*
X43341048Y19541059D01*
X43280743Y19686649D01*
X43250000Y19841206D01*
X43250000Y19998794D01*
X43280743Y20153351D01*
X43341048Y20298941D01*
X43428599Y20429970D01*
X43540030Y20541401D01*
X43671059Y20628952D01*
X43816649Y20689257D01*
X43971206Y20720000D01*
X44128794Y20720000D01*
X44283351Y20689257D01*
X44283351Y20689257D01*
G37*
G36*
X31419000Y19150000D02*
G01*
X30519000Y19150000D01*
X30519000Y20050000D01*
X31419000Y20050000D01*
X31419000Y19150000D01*
X31419000Y19150000D01*
G37*
G36*
X16814000Y19785000D02*
G01*
X15914000Y19785000D01*
X15914000Y20685000D01*
X16814000Y20685000D01*
X16814000Y19785000D01*
X16814000Y19785000D01*
G37*
G36*
X19354000Y19785000D02*
G01*
X18454000Y19785000D01*
X18454000Y20685000D01*
X19354000Y20685000D01*
X19354000Y19785000D01*
X19354000Y19785000D01*
G37*
G36*
X21894000Y19785000D02*
G01*
X20994000Y19785000D01*
X20994000Y20685000D01*
X21894000Y20685000D01*
X21894000Y19785000D01*
X21894000Y19785000D01*
G37*
G36*
X24434000Y19785000D02*
G01*
X23534000Y19785000D01*
X23534000Y20685000D01*
X24434000Y20685000D01*
X24434000Y19785000D01*
X24434000Y19785000D01*
G37*
G36*
X9260000Y19978000D02*
G01*
X8360000Y19978000D01*
X8360000Y20878000D01*
X9260000Y20878000D01*
X9260000Y19978000D01*
X9260000Y19978000D01*
G37*
G36*
X11160000Y19978000D02*
G01*
X10260000Y19978000D01*
X10260000Y20878000D01*
X11160000Y20878000D01*
X11160000Y19978000D01*
X11160000Y19978000D01*
G37*
G36*
X36245000Y20420000D02*
G01*
X35345000Y20420000D01*
X35345000Y21320000D01*
X36245000Y21320000D01*
X36245000Y20420000D01*
X36245000Y20420000D01*
G37*
G36*
X6704000Y20768000D02*
G01*
X5704000Y20768000D01*
X5704000Y21768000D01*
X6704000Y21768000D01*
X6704000Y20768000D01*
X6704000Y20768000D01*
G37*
G36*
X3656000Y20768000D02*
G01*
X2656000Y20768000D01*
X2656000Y21768000D01*
X3656000Y21768000D01*
X3656000Y20768000D01*
X3656000Y20768000D01*
G37*
G36*
X41325000Y21060000D02*
G01*
X40425000Y21060000D01*
X40425000Y21960000D01*
X41325000Y21960000D01*
X41325000Y21060000D01*
X41325000Y21060000D01*
G37*
G36*
X38785000Y21060000D02*
G01*
X37885000Y21060000D01*
X37885000Y21960000D01*
X38785000Y21960000D01*
X38785000Y21060000D01*
X38785000Y21060000D01*
G37*
G36*
X44850000Y21660000D02*
G01*
X43250000Y21660000D01*
X43250000Y23260000D01*
X44850000Y23260000D01*
X44850000Y21660000D01*
X44850000Y21660000D01*
G37*
G36*
X46823351Y23229257D02*
G01*
X46968941Y23168952D01*
X47099970Y23081401D01*
X47211401Y22969970D01*
X47298952Y22838941D01*
X47359257Y22693351D01*
X47390000Y22538794D01*
X47390000Y22381206D01*
X47359257Y22226649D01*
X47298952Y22081059D01*
X47211401Y21950030D01*
X47099970Y21838599D01*
X46968941Y21751048D01*
X46823351Y21690743D01*
X46668794Y21660000D01*
X46511206Y21660000D01*
X46356649Y21690743D01*
X46211059Y21751048D01*
X46080030Y21838599D01*
X45968599Y21950030D01*
X45881048Y22081059D01*
X45820743Y22226649D01*
X45790000Y22381206D01*
X45790000Y22538794D01*
X45820743Y22693351D01*
X45881048Y22838941D01*
X45968599Y22969970D01*
X46080030Y23081401D01*
X46211059Y23168952D01*
X46356649Y23229257D01*
X46511206Y23260000D01*
X46668794Y23260000D01*
X46823351Y23229257D01*
X46823351Y23229257D01*
G37*
G36*
X19354000Y22518000D02*
G01*
X18454000Y22518000D01*
X18454000Y23418000D01*
X19354000Y23418000D01*
X19354000Y22518000D01*
X19354000Y22518000D01*
G37*
G36*
X9260000Y22518000D02*
G01*
X8360000Y22518000D01*
X8360000Y23418000D01*
X9260000Y23418000D01*
X9260000Y22518000D01*
X9260000Y22518000D01*
G37*
G36*
X11160000Y22518000D02*
G01*
X10260000Y22518000D01*
X10260000Y23418000D01*
X11160000Y23418000D01*
X11160000Y22518000D01*
X11160000Y22518000D01*
G37*
G36*
X13832000Y22518000D02*
G01*
X12932000Y22518000D01*
X12932000Y23418000D01*
X13832000Y23418000D01*
X13832000Y22518000D01*
X13832000Y22518000D01*
G37*
G36*
X15732000Y22518000D02*
G01*
X14832000Y22518000D01*
X14832000Y23418000D01*
X15732000Y23418000D01*
X15732000Y22518000D01*
X15732000Y22518000D01*
G37*
G36*
X41325000Y22960000D02*
G01*
X40425000Y22960000D01*
X40425000Y23860000D01*
X41325000Y23860000D01*
X41325000Y22960000D01*
X41325000Y22960000D01*
G37*
G36*
X38785000Y22960000D02*
G01*
X37885000Y22960000D01*
X37885000Y23860000D01*
X38785000Y23860000D01*
X38785000Y22960000D01*
X38785000Y22960000D01*
G37*
G36*
X31165000Y22965000D02*
G01*
X30265000Y22965000D01*
X30265000Y23865000D01*
X31165000Y23865000D01*
X31165000Y22965000D01*
X31165000Y22965000D01*
G37*
G36*
X6704000Y24168000D02*
G01*
X5704000Y24168000D01*
X5704000Y25168000D01*
X6704000Y25168000D01*
X6704000Y24168000D01*
X6704000Y24168000D01*
G37*
G36*
X3656000Y24168000D02*
G01*
X2656000Y24168000D01*
X2656000Y25168000D01*
X3656000Y25168000D01*
X3656000Y24168000D01*
X3656000Y24168000D01*
G37*
G36*
X19354000Y24418000D02*
G01*
X18454000Y24418000D01*
X18454000Y25318000D01*
X19354000Y25318000D01*
X19354000Y24418000D01*
X19354000Y24418000D01*
G37*
G36*
X47027534Y27712357D02*
G01*
X47300515Y27599284D01*
X47300517Y27599283D01*
X47302437Y27598000D01*
X47546193Y27435127D01*
X47755127Y27226193D01*
X47919284Y26980515D01*
X48032357Y26707534D01*
X48090000Y26417738D01*
X48090000Y26122262D01*
X48032357Y25832466D01*
X47919284Y25559485D01*
X47755127Y25313807D01*
X47546193Y25104873D01*
X47424190Y25023353D01*
X47300517Y24940717D01*
X47300516Y24940716D01*
X47300515Y24940716D01*
X47027534Y24827643D01*
X46737738Y24770000D01*
X46442262Y24770000D01*
X46152466Y24827643D01*
X45879485Y24940716D01*
X45879484Y24940716D01*
X45879483Y24940717D01*
X45755810Y25023353D01*
X45633807Y25104873D01*
X45424873Y25313807D01*
X45260716Y25559485D01*
X45147643Y25832466D01*
X45090000Y26122262D01*
X45090000Y26417738D01*
X45147643Y26707534D01*
X45260716Y26980515D01*
X45424873Y27226193D01*
X45633807Y27435127D01*
X45877563Y27598000D01*
X45879483Y27599283D01*
X45879485Y27599284D01*
X46152466Y27712357D01*
X46442262Y27770000D01*
X46737738Y27770000D01*
X47027534Y27712357D01*
X47027534Y27712357D01*
G37*
G36*
X31165000Y24865000D02*
G01*
X30265000Y24865000D01*
X30265000Y25765000D01*
X31165000Y25765000D01*
X31165000Y24865000D01*
X31165000Y24865000D01*
G37*
G36*
X41325000Y24870000D02*
G01*
X40425000Y24870000D01*
X40425000Y25770000D01*
X41325000Y25770000D01*
X41325000Y24870000D01*
X41325000Y24870000D01*
G37*
G36*
X43865000Y24870000D02*
G01*
X42965000Y24870000D01*
X42965000Y25770000D01*
X43865000Y25770000D01*
X43865000Y24870000D01*
X43865000Y24870000D01*
G37*
G36*
X38785000Y24870000D02*
G01*
X37885000Y24870000D01*
X37885000Y25770000D01*
X38785000Y25770000D01*
X38785000Y24870000D01*
X38785000Y24870000D01*
G37*
G36*
X9260000Y25058000D02*
G01*
X8360000Y25058000D01*
X8360000Y25958000D01*
X9260000Y25958000D01*
X9260000Y25058000D01*
X9260000Y25058000D01*
G37*
G36*
X11160000Y25058000D02*
G01*
X10260000Y25058000D01*
X10260000Y25958000D01*
X11160000Y25958000D01*
X11160000Y25058000D01*
X11160000Y25058000D01*
G37*
G36*
X13766000Y25124000D02*
G01*
X12866000Y25124000D01*
X12866000Y26024000D01*
X13766000Y26024000D01*
X13766000Y25124000D01*
X13766000Y25124000D01*
G37*
G36*
X16306000Y25124000D02*
G01*
X15406000Y25124000D01*
X15406000Y26024000D01*
X16306000Y26024000D01*
X16306000Y25124000D01*
X16306000Y25124000D01*
G37*
G36*
X27021676Y26640666D02*
G01*
X27053424Y26627516D01*
X27094468Y26610515D01*
X27094471Y26610513D01*
X27159985Y26566738D01*
X27215700Y26511023D01*
X27215701Y26511021D01*
X27259477Y26445506D01*
X27270978Y26417738D01*
X27289628Y26372714D01*
X27305000Y26295435D01*
X27305000Y26216641D01*
X27289628Y26139362D01*
X27282545Y26122263D01*
X27259477Y26066570D01*
X27259475Y26066567D01*
X27215700Y26001053D01*
X27159985Y25945338D01*
X27094471Y25901563D01*
X27094468Y25901561D01*
X27053424Y25884560D01*
X27021676Y25871410D01*
X26944397Y25856038D01*
X26865603Y25856038D01*
X26788324Y25871410D01*
X26756576Y25884560D01*
X26715532Y25901561D01*
X26715529Y25901563D01*
X26650015Y25945338D01*
X26594300Y26001053D01*
X26550525Y26066567D01*
X26550523Y26066570D01*
X26527455Y26122263D01*
X26520372Y26139362D01*
X26505000Y26216641D01*
X26505000Y26295435D01*
X26520372Y26372714D01*
X26539022Y26417738D01*
X26550523Y26445506D01*
X26594299Y26511021D01*
X26594300Y26511023D01*
X26650015Y26566738D01*
X26715529Y26610513D01*
X26715532Y26610515D01*
X26756576Y26627516D01*
X26788324Y26640666D01*
X26865603Y26656038D01*
X26944397Y26656038D01*
X27021676Y26640666D01*
X27021676Y26640666D01*
G37*
G36*
X38785000Y26770000D02*
G01*
X37885000Y26770000D01*
X37885000Y27670000D01*
X38785000Y27670000D01*
X38785000Y26770000D01*
X38785000Y26770000D01*
G37*
G36*
X41325000Y26770000D02*
G01*
X40425000Y26770000D01*
X40425000Y27670000D01*
X41325000Y27670000D01*
X41325000Y26770000D01*
X41325000Y26770000D01*
G37*
G36*
X43865000Y26770000D02*
G01*
X42965000Y26770000D01*
X42965000Y27670000D01*
X43865000Y27670000D01*
X43865000Y26770000D01*
X43865000Y26770000D01*
G37*
G36*
X27634222Y31841946D02*
G01*
X28089192Y31653491D01*
X28089194Y31653490D01*
X28151288Y31612000D01*
X28498656Y31379896D01*
X28846877Y31031675D01*
X29120472Y30622211D01*
X29308927Y30167241D01*
X29405000Y29684249D01*
X29405000Y29191789D01*
X29308927Y28708797D01*
X29120472Y28253827D01*
X28846877Y27844363D01*
X28498656Y27496142D01*
X28407339Y27435126D01*
X28089194Y27222548D01*
X28089193Y27222547D01*
X28089192Y27222547D01*
X27634222Y27034092D01*
X27151230Y26938019D01*
X26658770Y26938019D01*
X26175778Y27034092D01*
X25720808Y27222547D01*
X25720807Y27222547D01*
X25720806Y27222548D01*
X25402661Y27435126D01*
X25311344Y27496142D01*
X24963123Y27844363D01*
X24689528Y28253827D01*
X24501073Y28708797D01*
X24405000Y29191789D01*
X24405000Y29684249D01*
X24501073Y30167241D01*
X24689528Y30622211D01*
X24963123Y31031675D01*
X25311344Y31379896D01*
X25658712Y31612000D01*
X25720806Y31653490D01*
X25720808Y31653491D01*
X26175778Y31841946D01*
X26658770Y31938019D01*
X27151230Y31938019D01*
X27634222Y31841946D01*
X27634222Y31841946D01*
G37*
G36*
X16306000Y27024000D02*
G01*
X15406000Y27024000D01*
X15406000Y27924000D01*
X16306000Y27924000D01*
X16306000Y27024000D01*
X16306000Y27024000D01*
G37*
G36*
X13766000Y27024000D02*
G01*
X12866000Y27024000D01*
X12866000Y27924000D01*
X13766000Y27924000D01*
X13766000Y27024000D01*
X13766000Y27024000D01*
G37*
G36*
X4000000Y27217000D02*
G01*
X3100000Y27217000D01*
X3100000Y28117000D01*
X4000000Y28117000D01*
X4000000Y27217000D01*
X4000000Y27217000D01*
G37*
G36*
X5900000Y27217000D02*
G01*
X5000000Y27217000D01*
X5000000Y28117000D01*
X5900000Y28117000D01*
X5900000Y27217000D01*
X5900000Y27217000D01*
G37*
G36*
X11160000Y27598000D02*
G01*
X10260000Y27598000D01*
X10260000Y28498000D01*
X11160000Y28498000D01*
X11160000Y27598000D01*
X11160000Y27598000D01*
G37*
G36*
X9260000Y27598000D02*
G01*
X8360000Y27598000D01*
X8360000Y28498000D01*
X9260000Y28498000D01*
X9260000Y27598000D01*
X9260000Y27598000D01*
G37*
G36*
X23839695Y29822647D02*
G01*
X23871443Y29809497D01*
X23912487Y29792496D01*
X23912490Y29792494D01*
X23978004Y29748719D01*
X24033719Y29693004D01*
X24033720Y29693002D01*
X24077496Y29627487D01*
X24094497Y29586443D01*
X24107647Y29554695D01*
X24123019Y29477416D01*
X24123019Y29398622D01*
X24107647Y29321343D01*
X24103256Y29310743D01*
X24077496Y29248551D01*
X24077494Y29248548D01*
X24033719Y29183034D01*
X23978004Y29127319D01*
X23912490Y29083544D01*
X23912487Y29083542D01*
X23871443Y29066541D01*
X23839695Y29053391D01*
X23762416Y29038019D01*
X23683622Y29038019D01*
X23606343Y29053391D01*
X23574595Y29066541D01*
X23533551Y29083542D01*
X23533548Y29083544D01*
X23468034Y29127319D01*
X23412319Y29183034D01*
X23368544Y29248548D01*
X23368542Y29248551D01*
X23342782Y29310743D01*
X23338391Y29321343D01*
X23323019Y29398622D01*
X23323019Y29477416D01*
X23338391Y29554695D01*
X23351541Y29586443D01*
X23368542Y29627487D01*
X23412318Y29693002D01*
X23412319Y29693004D01*
X23468034Y29748719D01*
X23533548Y29792494D01*
X23533551Y29792496D01*
X23574595Y29809497D01*
X23606343Y29822647D01*
X23683622Y29838019D01*
X23762416Y29838019D01*
X23839695Y29822647D01*
X23839695Y29822647D01*
G37*
G36*
X30203657Y29822647D02*
G01*
X30235405Y29809497D01*
X30276449Y29792496D01*
X30276452Y29792494D01*
X30341966Y29748719D01*
X30397681Y29693004D01*
X30397682Y29693002D01*
X30441458Y29627487D01*
X30458459Y29586443D01*
X30471609Y29554695D01*
X30486981Y29477416D01*
X30486981Y29398622D01*
X30471609Y29321343D01*
X30467218Y29310743D01*
X30441458Y29248551D01*
X30441456Y29248548D01*
X30397681Y29183034D01*
X30341966Y29127319D01*
X30276452Y29083544D01*
X30276449Y29083542D01*
X30235405Y29066541D01*
X30203657Y29053391D01*
X30126378Y29038019D01*
X30047584Y29038019D01*
X29970305Y29053391D01*
X29938557Y29066541D01*
X29897513Y29083542D01*
X29897510Y29083544D01*
X29831996Y29127319D01*
X29776281Y29183034D01*
X29732506Y29248548D01*
X29732504Y29248551D01*
X29706744Y29310743D01*
X29702353Y29321343D01*
X29686981Y29398622D01*
X29686981Y29477416D01*
X29702353Y29554695D01*
X29715503Y29586443D01*
X29732504Y29627487D01*
X29776280Y29693002D01*
X29776281Y29693004D01*
X29831996Y29748719D01*
X29897510Y29792494D01*
X29897513Y29792496D01*
X29938557Y29809497D01*
X29970305Y29822647D01*
X30047584Y29838019D01*
X30126378Y29838019D01*
X30203657Y29822647D01*
X30203657Y29822647D01*
G37*
G36*
X34420000Y29190000D02*
G01*
X33520000Y29190000D01*
X33520000Y30090000D01*
X34420000Y30090000D01*
X34420000Y29190000D01*
X34420000Y29190000D01*
G37*
G36*
X36706000Y29190000D02*
G01*
X35806000Y29190000D01*
X35806000Y30090000D01*
X36706000Y30090000D01*
X36706000Y29190000D01*
X36706000Y29190000D01*
G37*
G36*
X3643351Y30849257D02*
G01*
X3788941Y30788952D01*
X3919970Y30701401D01*
X4031401Y30589970D01*
X4118952Y30458941D01*
X4179257Y30313351D01*
X4210000Y30158794D01*
X4210000Y30001206D01*
X4179257Y29846649D01*
X4118952Y29701059D01*
X4031401Y29570030D01*
X3919970Y29458599D01*
X3788941Y29371048D01*
X3643351Y29310743D01*
X3488794Y29280000D01*
X3331206Y29280000D01*
X3176649Y29310743D01*
X3031059Y29371048D01*
X2900030Y29458599D01*
X2788599Y29570030D01*
X2701048Y29701059D01*
X2640743Y29846649D01*
X2610000Y30001206D01*
X2610000Y30158794D01*
X2640743Y30313351D01*
X2701048Y30458941D01*
X2788599Y30589970D01*
X2900030Y30701401D01*
X3031059Y30788952D01*
X3176649Y30849257D01*
X3331206Y30880000D01*
X3488794Y30880000D01*
X3643351Y30849257D01*
X3643351Y30849257D01*
G37*
G36*
X6183351Y30849257D02*
G01*
X6328941Y30788952D01*
X6459970Y30701401D01*
X6571401Y30589970D01*
X6658952Y30458941D01*
X6719257Y30313351D01*
X6750000Y30158794D01*
X6750000Y30001206D01*
X6719257Y29846649D01*
X6658952Y29701059D01*
X6571401Y29570030D01*
X6459970Y29458599D01*
X6328941Y29371048D01*
X6183351Y29310743D01*
X6028794Y29280000D01*
X5871206Y29280000D01*
X5716649Y29310743D01*
X5571059Y29371048D01*
X5440030Y29458599D01*
X5328599Y29570030D01*
X5241048Y29701059D01*
X5180743Y29846649D01*
X5150000Y30001206D01*
X5150000Y30158794D01*
X5180743Y30313351D01*
X5241048Y30458941D01*
X5328599Y30589970D01*
X5440030Y30701401D01*
X5571059Y30788952D01*
X5716649Y30849257D01*
X5871206Y30880000D01*
X6028794Y30880000D01*
X6183351Y30849257D01*
X6183351Y30849257D01*
G37*
G36*
X44850000Y29280000D02*
G01*
X43250000Y29280000D01*
X43250000Y30880000D01*
X44850000Y30880000D01*
X44850000Y29280000D01*
X44850000Y29280000D01*
G37*
G36*
X47390000Y29280000D02*
G01*
X45790000Y29280000D01*
X45790000Y30880000D01*
X47390000Y30880000D01*
X47390000Y29280000D01*
X47390000Y29280000D01*
G37*
G36*
X41640000Y29630000D02*
G01*
X40740000Y29630000D01*
X40740000Y30530000D01*
X41640000Y30530000D01*
X41640000Y29630000D01*
X41640000Y29630000D01*
G37*
G36*
X39740000Y29630000D02*
G01*
X38840000Y29630000D01*
X38840000Y30530000D01*
X39740000Y30530000D01*
X39740000Y29630000D01*
X39740000Y29630000D01*
G37*
G36*
X9260000Y30138000D02*
G01*
X8360000Y30138000D01*
X8360000Y31038000D01*
X9260000Y31038000D01*
X9260000Y30138000D01*
X9260000Y30138000D01*
G37*
G36*
X11160000Y30138000D02*
G01*
X10260000Y30138000D01*
X10260000Y31038000D01*
X11160000Y31038000D01*
X11160000Y30138000D01*
X11160000Y30138000D01*
G37*
G36*
X14782000Y30712000D02*
G01*
X13882000Y30712000D01*
X13882000Y31612000D01*
X14782000Y31612000D01*
X14782000Y30712000D01*
X14782000Y30712000D01*
G37*
G36*
X21005000Y30712000D02*
G01*
X20105000Y30712000D01*
X20105000Y31612000D01*
X21005000Y31612000D01*
X21005000Y30712000D01*
X21005000Y30712000D01*
G37*
G36*
X17830000Y30712000D02*
G01*
X16930000Y30712000D01*
X16930000Y31612000D01*
X17830000Y31612000D01*
X17830000Y30712000D01*
X17830000Y30712000D01*
G37*
G36*
X34420000Y31090000D02*
G01*
X33520000Y31090000D01*
X33520000Y31990000D01*
X34420000Y31990000D01*
X34420000Y31090000D01*
X34420000Y31090000D01*
G37*
G36*
X36706000Y31090000D02*
G01*
X35806000Y31090000D01*
X35806000Y31990000D01*
X36706000Y31990000D01*
X36706000Y31090000D01*
X36706000Y31090000D01*
G37*
G36*
X3643351Y33389257D02*
G01*
X3788941Y33328952D01*
X3919970Y33241401D01*
X4031401Y33129970D01*
X4118952Y32998941D01*
X4179257Y32853351D01*
X4210000Y32698794D01*
X4210000Y32541206D01*
X4179257Y32386649D01*
X4118952Y32241059D01*
X4031401Y32110030D01*
X3919970Y31998599D01*
X3788941Y31911048D01*
X3643351Y31850743D01*
X3488794Y31820000D01*
X3331206Y31820000D01*
X3176649Y31850743D01*
X3031059Y31911048D01*
X2900030Y31998599D01*
X2788599Y32110030D01*
X2701048Y32241059D01*
X2640743Y32386649D01*
X2610000Y32541206D01*
X2610000Y32698794D01*
X2640743Y32853351D01*
X2701048Y32998941D01*
X2788599Y33129970D01*
X2900030Y33241401D01*
X3031059Y33328952D01*
X3176649Y33389257D01*
X3331206Y33420000D01*
X3488794Y33420000D01*
X3643351Y33389257D01*
X3643351Y33389257D01*
G37*
G36*
X46823351Y33389257D02*
G01*
X46968941Y33328952D01*
X47099970Y33241401D01*
X47211401Y33129970D01*
X47298952Y32998941D01*
X47359257Y32853351D01*
X47390000Y32698794D01*
X47390000Y32541206D01*
X47359257Y32386649D01*
X47298952Y32241059D01*
X47211401Y32110030D01*
X47099970Y31998599D01*
X46968941Y31911048D01*
X46823351Y31850743D01*
X46668794Y31820000D01*
X46511206Y31820000D01*
X46356649Y31850743D01*
X46211059Y31911048D01*
X46080030Y31998599D01*
X45968599Y32110030D01*
X45881048Y32241059D01*
X45820743Y32386649D01*
X45790000Y32541206D01*
X45790000Y32698794D01*
X45820743Y32853351D01*
X45881048Y32998941D01*
X45968599Y33129970D01*
X46080030Y33241401D01*
X46211059Y33328952D01*
X46356649Y33389257D01*
X46511206Y33420000D01*
X46668794Y33420000D01*
X46823351Y33389257D01*
X46823351Y33389257D01*
G37*
G36*
X6183351Y33389257D02*
G01*
X6328941Y33328952D01*
X6459970Y33241401D01*
X6571401Y33129970D01*
X6658952Y32998941D01*
X6719257Y32853351D01*
X6750000Y32698794D01*
X6750000Y32541206D01*
X6719257Y32386649D01*
X6658952Y32241059D01*
X6571401Y32110030D01*
X6459970Y31998599D01*
X6328941Y31911048D01*
X6183351Y31850743D01*
X6028794Y31820000D01*
X5871206Y31820000D01*
X5716649Y31850743D01*
X5571059Y31911048D01*
X5440030Y31998599D01*
X5328599Y32110030D01*
X5241048Y32241059D01*
X5180743Y32386649D01*
X5150000Y32541206D01*
X5150000Y32698794D01*
X5180743Y32853351D01*
X5241048Y32998941D01*
X5328599Y33129970D01*
X5440030Y33241401D01*
X5571059Y33328952D01*
X5716649Y33389257D01*
X5871206Y33420000D01*
X6028794Y33420000D01*
X6183351Y33389257D01*
X6183351Y33389257D01*
G37*
G36*
X44283351Y33389257D02*
G01*
X44428941Y33328952D01*
X44559970Y33241401D01*
X44671401Y33129970D01*
X44758952Y32998941D01*
X44819257Y32853351D01*
X44850000Y32698794D01*
X44850000Y32541206D01*
X44819257Y32386649D01*
X44758952Y32241059D01*
X44671401Y32110030D01*
X44559970Y31998599D01*
X44428941Y31911048D01*
X44283351Y31850743D01*
X44128794Y31820000D01*
X43971206Y31820000D01*
X43816649Y31850743D01*
X43671059Y31911048D01*
X43540030Y31998599D01*
X43428599Y32110030D01*
X43341048Y32241059D01*
X43280743Y32386649D01*
X43250000Y32541206D01*
X43250000Y32698794D01*
X43280743Y32853351D01*
X43341048Y32998941D01*
X43428599Y33129970D01*
X43540030Y33241401D01*
X43671059Y33328952D01*
X43816649Y33389257D01*
X43971206Y33420000D01*
X44128794Y33420000D01*
X44283351Y33389257D01*
X44283351Y33389257D01*
G37*
G36*
X39740000Y32170000D02*
G01*
X38840000Y32170000D01*
X38840000Y33070000D01*
X39740000Y33070000D01*
X39740000Y32170000D01*
X39740000Y32170000D01*
G37*
G36*
X41640000Y32170000D02*
G01*
X40740000Y32170000D01*
X40740000Y33070000D01*
X41640000Y33070000D01*
X41640000Y32170000D01*
X41640000Y32170000D01*
G37*
G36*
X27021676Y33004628D02*
G01*
X27035405Y32998941D01*
X27094468Y32974477D01*
X27094471Y32974475D01*
X27159985Y32930700D01*
X27215700Y32874985D01*
X27215701Y32874983D01*
X27259477Y32809468D01*
X27276478Y32768424D01*
X27289628Y32736676D01*
X27305000Y32659397D01*
X27305000Y32580603D01*
X27289628Y32503324D01*
X27276478Y32471576D01*
X27259477Y32430532D01*
X27259475Y32430529D01*
X27215700Y32365015D01*
X27159985Y32309300D01*
X27094471Y32265525D01*
X27094468Y32265523D01*
X27053424Y32248522D01*
X27021676Y32235372D01*
X26944397Y32220000D01*
X26865603Y32220000D01*
X26788324Y32235372D01*
X26756576Y32248522D01*
X26715532Y32265523D01*
X26715529Y32265525D01*
X26650015Y32309300D01*
X26594300Y32365015D01*
X26550525Y32430529D01*
X26550523Y32430532D01*
X26533522Y32471576D01*
X26520372Y32503324D01*
X26505000Y32580603D01*
X26505000Y32659397D01*
X26520372Y32736676D01*
X26533522Y32768424D01*
X26550523Y32809468D01*
X26594299Y32874983D01*
X26594300Y32874985D01*
X26650015Y32930700D01*
X26715529Y32974475D01*
X26715532Y32974477D01*
X26774595Y32998941D01*
X26788324Y33004628D01*
X26865603Y33020000D01*
X26944397Y33020000D01*
X27021676Y33004628D01*
X27021676Y33004628D01*
G37*
G36*
X21005000Y32612000D02*
G01*
X20105000Y32612000D01*
X20105000Y33512000D01*
X21005000Y33512000D01*
X21005000Y32612000D01*
X21005000Y32612000D01*
G37*
G36*
X17830000Y32612000D02*
G01*
X16930000Y32612000D01*
X16930000Y33512000D01*
X17830000Y33512000D01*
X17830000Y32612000D01*
X17830000Y32612000D01*
G37*
G36*
X14782000Y32612000D02*
G01*
X13882000Y32612000D01*
X13882000Y33512000D01*
X14782000Y33512000D01*
X14782000Y32612000D01*
X14782000Y32612000D01*
G37*
G36*
X9260000Y33378500D02*
G01*
X8360000Y33378500D01*
X8360000Y34278500D01*
X9260000Y34278500D01*
X9260000Y33378500D01*
X9260000Y33378500D01*
G37*
G36*
X11160000Y33378500D02*
G01*
X10260000Y33378500D01*
X10260000Y34278500D01*
X11160000Y34278500D01*
X11160000Y33378500D01*
X11160000Y33378500D01*
G37*
G36*
X30925000Y33950000D02*
G01*
X30025000Y33950000D01*
X30025000Y34850000D01*
X30925000Y34850000D01*
X30925000Y33950000D01*
X30925000Y33950000D01*
G37*
G36*
X29025000Y33950000D02*
G01*
X28125000Y33950000D01*
X28125000Y34850000D01*
X29025000Y34850000D01*
X29025000Y33950000D01*
X29025000Y33950000D01*
G37*
G36*
X36271000Y33993000D02*
G01*
X34971000Y33993000D01*
X34971000Y34893000D01*
X36271000Y34893000D01*
X36271000Y33993000D01*
X36271000Y33993000D01*
G37*
G36*
X33150000Y34270000D02*
G01*
X32250000Y34270000D01*
X32250000Y35170000D01*
X33150000Y35170000D01*
X33150000Y34270000D01*
X33150000Y34270000D01*
G37*
G36*
X46823351Y35929257D02*
G01*
X46968941Y35868952D01*
X47099970Y35781401D01*
X47211401Y35669970D01*
X47298952Y35538941D01*
X47359257Y35393351D01*
X47390000Y35238794D01*
X47390000Y35081206D01*
X47359257Y34926649D01*
X47298952Y34781059D01*
X47211401Y34650030D01*
X47099970Y34538599D01*
X46968941Y34451048D01*
X46823351Y34390743D01*
X46668794Y34360000D01*
X46511206Y34360000D01*
X46356649Y34390743D01*
X46211059Y34451048D01*
X46080030Y34538599D01*
X45968599Y34650030D01*
X45881048Y34781059D01*
X45820743Y34926649D01*
X45790000Y35081206D01*
X45790000Y35238794D01*
X45820743Y35393351D01*
X45881048Y35538941D01*
X45968599Y35669970D01*
X46080030Y35781401D01*
X46211059Y35868952D01*
X46356649Y35929257D01*
X46511206Y35960000D01*
X46668794Y35960000D01*
X46823351Y35929257D01*
X46823351Y35929257D01*
G37*
G36*
X44283351Y35929257D02*
G01*
X44428941Y35868952D01*
X44559970Y35781401D01*
X44671401Y35669970D01*
X44758952Y35538941D01*
X44819257Y35393351D01*
X44850000Y35238794D01*
X44850000Y35081206D01*
X44819257Y34926649D01*
X44758952Y34781059D01*
X44671401Y34650030D01*
X44559970Y34538599D01*
X44428941Y34451048D01*
X44283351Y34390743D01*
X44128794Y34360000D01*
X43971206Y34360000D01*
X43816649Y34390743D01*
X43671059Y34451048D01*
X43540030Y34538599D01*
X43428599Y34650030D01*
X43341048Y34781059D01*
X43280743Y34926649D01*
X43250000Y35081206D01*
X43250000Y35238794D01*
X43280743Y35393351D01*
X43341048Y35538941D01*
X43428599Y35669970D01*
X43540030Y35781401D01*
X43671059Y35868952D01*
X43816649Y35929257D01*
X43971206Y35960000D01*
X44128794Y35960000D01*
X44283351Y35929257D01*
X44283351Y35929257D01*
G37*
G36*
X6183351Y35929257D02*
G01*
X6328941Y35868952D01*
X6459970Y35781401D01*
X6571401Y35669970D01*
X6658952Y35538941D01*
X6719257Y35393351D01*
X6750000Y35238794D01*
X6750000Y35081206D01*
X6719257Y34926649D01*
X6658952Y34781059D01*
X6571401Y34650030D01*
X6459970Y34538599D01*
X6328941Y34451048D01*
X6183351Y34390743D01*
X6028794Y34360000D01*
X5871206Y34360000D01*
X5716649Y34390743D01*
X5571059Y34451048D01*
X5440030Y34538599D01*
X5328599Y34650030D01*
X5241048Y34781059D01*
X5180743Y34926649D01*
X5150000Y35081206D01*
X5150000Y35238794D01*
X5180743Y35393351D01*
X5241048Y35538941D01*
X5328599Y35669970D01*
X5440030Y35781401D01*
X5571059Y35868952D01*
X5716649Y35929257D01*
X5871206Y35960000D01*
X6028794Y35960000D01*
X6183351Y35929257D01*
X6183351Y35929257D01*
G37*
G36*
X3643351Y35929257D02*
G01*
X3788941Y35868952D01*
X3919970Y35781401D01*
X4031401Y35669970D01*
X4118952Y35538941D01*
X4179257Y35393351D01*
X4210000Y35238794D01*
X4210000Y35081206D01*
X4179257Y34926649D01*
X4118952Y34781059D01*
X4031401Y34650030D01*
X3919970Y34538599D01*
X3788941Y34451048D01*
X3643351Y34390743D01*
X3488794Y34360000D01*
X3331206Y34360000D01*
X3176649Y34390743D01*
X3031059Y34451048D01*
X2900030Y34538599D01*
X2788599Y34650030D01*
X2701048Y34781059D01*
X2640743Y34926649D01*
X2610000Y35081206D01*
X2610000Y35238794D01*
X2640743Y35393351D01*
X2701048Y35538941D01*
X2788599Y35669970D01*
X2900030Y35781401D01*
X3031059Y35868952D01*
X3176649Y35929257D01*
X3331206Y35960000D01*
X3488794Y35960000D01*
X3643351Y35929257D01*
X3643351Y35929257D01*
G37*
G36*
X39740000Y34710000D02*
G01*
X38840000Y34710000D01*
X38840000Y35610000D01*
X39740000Y35610000D01*
X39740000Y34710000D01*
X39740000Y34710000D01*
G37*
G36*
X41640000Y34710000D02*
G01*
X40740000Y34710000D01*
X40740000Y35610000D01*
X41640000Y35610000D01*
X41640000Y34710000D01*
X41640000Y34710000D01*
G37*
G36*
X17830000Y35030000D02*
G01*
X16930000Y35030000D01*
X16930000Y35930000D01*
X17830000Y35930000D01*
X17830000Y35030000D01*
X17830000Y35030000D01*
G37*
G36*
X21005000Y35030000D02*
G01*
X20105000Y35030000D01*
X20105000Y35930000D01*
X21005000Y35930000D01*
X21005000Y35030000D01*
X21005000Y35030000D01*
G37*
G36*
X9260000Y35918500D02*
G01*
X8360000Y35918500D01*
X8360000Y36818500D01*
X9260000Y36818500D01*
X9260000Y35918500D01*
X9260000Y35918500D01*
G37*
G36*
X11160000Y35918500D02*
G01*
X10260000Y35918500D01*
X10260000Y36818500D01*
X11160000Y36818500D01*
X11160000Y35918500D01*
X11160000Y35918500D01*
G37*
G36*
X25465000Y36130000D02*
G01*
X23265000Y36130000D01*
X23265000Y36730000D01*
X25465000Y36730000D01*
X25465000Y36130000D01*
X25465000Y36130000D01*
G37*
G36*
X30665000Y36130000D02*
G01*
X28465000Y36130000D01*
X28465000Y36730000D01*
X30665000Y36730000D01*
X30665000Y36130000D01*
X30665000Y36130000D01*
G37*
G36*
X33150000Y36170000D02*
G01*
X32250000Y36170000D01*
X32250000Y37070000D01*
X33150000Y37070000D01*
X33150000Y36170000D01*
X33150000Y36170000D01*
G37*
G36*
X36271000Y36193000D02*
G01*
X34971000Y36193000D01*
X34971000Y37093000D01*
X36271000Y37093000D01*
X36271000Y36193000D01*
X36271000Y36193000D01*
G37*
G36*
X46823351Y38469257D02*
G01*
X46968941Y38408952D01*
X47099970Y38321401D01*
X47211401Y38209970D01*
X47298952Y38078941D01*
X47359257Y37933351D01*
X47390000Y37778794D01*
X47390000Y37621206D01*
X47359257Y37466649D01*
X47298952Y37321059D01*
X47211401Y37190030D01*
X47099970Y37078599D01*
X46968941Y36991048D01*
X46823351Y36930743D01*
X46668794Y36900000D01*
X46511206Y36900000D01*
X46356649Y36930743D01*
X46211059Y36991048D01*
X46080030Y37078599D01*
X45968599Y37190030D01*
X45881048Y37321059D01*
X45820743Y37466649D01*
X45790000Y37621206D01*
X45790000Y37778794D01*
X45820743Y37933351D01*
X45881048Y38078941D01*
X45968599Y38209970D01*
X46080030Y38321401D01*
X46211059Y38408952D01*
X46356649Y38469257D01*
X46511206Y38500000D01*
X46668794Y38500000D01*
X46823351Y38469257D01*
X46823351Y38469257D01*
G37*
G36*
X44283351Y38469257D02*
G01*
X44428941Y38408952D01*
X44559970Y38321401D01*
X44671401Y38209970D01*
X44758952Y38078941D01*
X44819257Y37933351D01*
X44850000Y37778794D01*
X44850000Y37621206D01*
X44819257Y37466649D01*
X44758952Y37321059D01*
X44671401Y37190030D01*
X44559970Y37078599D01*
X44428941Y36991048D01*
X44283351Y36930743D01*
X44128794Y36900000D01*
X43971206Y36900000D01*
X43816649Y36930743D01*
X43671059Y36991048D01*
X43540030Y37078599D01*
X43428599Y37190030D01*
X43341048Y37321059D01*
X43280743Y37466649D01*
X43250000Y37621206D01*
X43250000Y37778794D01*
X43280743Y37933351D01*
X43341048Y38078941D01*
X43428599Y38209970D01*
X43540030Y38321401D01*
X43671059Y38408952D01*
X43816649Y38469257D01*
X43971206Y38500000D01*
X44128794Y38500000D01*
X44283351Y38469257D01*
X44283351Y38469257D01*
G37*
G36*
X6183351Y38469257D02*
G01*
X6328941Y38408952D01*
X6459970Y38321401D01*
X6571401Y38209970D01*
X6658952Y38078941D01*
X6719257Y37933351D01*
X6750000Y37778794D01*
X6750000Y37621206D01*
X6719257Y37466649D01*
X6658952Y37321059D01*
X6571401Y37190030D01*
X6459970Y37078599D01*
X6328941Y36991048D01*
X6183351Y36930743D01*
X6028794Y36900000D01*
X5871206Y36900000D01*
X5716649Y36930743D01*
X5571059Y36991048D01*
X5440030Y37078599D01*
X5328599Y37190030D01*
X5241048Y37321059D01*
X5180743Y37466649D01*
X5150000Y37621206D01*
X5150000Y37778794D01*
X5180743Y37933351D01*
X5241048Y38078941D01*
X5328599Y38209970D01*
X5440030Y38321401D01*
X5571059Y38408952D01*
X5716649Y38469257D01*
X5871206Y38500000D01*
X6028794Y38500000D01*
X6183351Y38469257D01*
X6183351Y38469257D01*
G37*
G36*
X3643351Y38469257D02*
G01*
X3788941Y38408952D01*
X3919970Y38321401D01*
X4031401Y38209970D01*
X4118952Y38078941D01*
X4179257Y37933351D01*
X4210000Y37778794D01*
X4210000Y37621206D01*
X4179257Y37466649D01*
X4118952Y37321059D01*
X4031401Y37190030D01*
X3919970Y37078599D01*
X3788941Y36991048D01*
X3643351Y36930743D01*
X3488794Y36900000D01*
X3331206Y36900000D01*
X3176649Y36930743D01*
X3031059Y36991048D01*
X2900030Y37078599D01*
X2788599Y37190030D01*
X2701048Y37321059D01*
X2640743Y37466649D01*
X2610000Y37621206D01*
X2610000Y37778794D01*
X2640743Y37933351D01*
X2701048Y38078941D01*
X2788599Y38209970D01*
X2900030Y38321401D01*
X3031059Y38408952D01*
X3176649Y38469257D01*
X3331206Y38500000D01*
X3488794Y38500000D01*
X3643351Y38469257D01*
X3643351Y38469257D01*
G37*
G36*
X21005000Y36930000D02*
G01*
X20105000Y36930000D01*
X20105000Y37830000D01*
X21005000Y37830000D01*
X21005000Y36930000D01*
X21005000Y36930000D01*
G37*
G36*
X17830000Y36930000D02*
G01*
X16930000Y36930000D01*
X16930000Y37830000D01*
X17830000Y37830000D01*
X17830000Y36930000D01*
X17830000Y36930000D01*
G37*
G36*
X39740000Y37250000D02*
G01*
X38840000Y37250000D01*
X38840000Y38150000D01*
X39740000Y38150000D01*
X39740000Y37250000D01*
X39740000Y37250000D01*
G37*
G36*
X41640000Y37250000D02*
G01*
X40740000Y37250000D01*
X40740000Y38150000D01*
X41640000Y38150000D01*
X41640000Y37250000D01*
X41640000Y37250000D01*
G37*
G36*
X25465000Y37400000D02*
G01*
X23265000Y37400000D01*
X23265000Y38000000D01*
X25465000Y38000000D01*
X25465000Y37400000D01*
X25465000Y37400000D01*
G37*
G36*
X30665000Y37400000D02*
G01*
X28465000Y37400000D01*
X28465000Y38000000D01*
X30665000Y38000000D01*
X30665000Y37400000D01*
X30665000Y37400000D01*
G37*
G36*
X11160000Y38522000D02*
G01*
X10260000Y38522000D01*
X10260000Y39422000D01*
X11160000Y39422000D01*
X11160000Y38522000D01*
X11160000Y38522000D01*
G37*
G36*
X9260000Y38522000D02*
G01*
X8360000Y38522000D01*
X8360000Y39422000D01*
X9260000Y39422000D01*
X9260000Y38522000D01*
X9260000Y38522000D01*
G37*
G36*
X30665000Y38670000D02*
G01*
X28465000Y38670000D01*
X28465000Y39270000D01*
X30665000Y39270000D01*
X30665000Y38670000D01*
X30665000Y38670000D01*
G37*
G36*
X25465000Y38670000D02*
G01*
X23265000Y38670000D01*
X23265000Y39270000D01*
X25465000Y39270000D01*
X25465000Y38670000D01*
X25465000Y38670000D01*
G37*
G36*
X44283351Y41009257D02*
G01*
X44428941Y40948952D01*
X44559970Y40861401D01*
X44671401Y40749970D01*
X44758952Y40618941D01*
X44819257Y40473351D01*
X44850000Y40318794D01*
X44850000Y40161206D01*
X44819257Y40006649D01*
X44758952Y39861059D01*
X44671401Y39730030D01*
X44559970Y39618599D01*
X44428941Y39531048D01*
X44283351Y39470743D01*
X44128794Y39440000D01*
X43971206Y39440000D01*
X43816649Y39470743D01*
X43671059Y39531048D01*
X43540030Y39618599D01*
X43428599Y39730030D01*
X43341048Y39861059D01*
X43280743Y40006649D01*
X43250000Y40161206D01*
X43250000Y40318794D01*
X43280743Y40473351D01*
X43341048Y40618941D01*
X43428599Y40749970D01*
X43540030Y40861401D01*
X43671059Y40948952D01*
X43816649Y41009257D01*
X43971206Y41040000D01*
X44128794Y41040000D01*
X44283351Y41009257D01*
X44283351Y41009257D01*
G37*
G36*
X4210000Y39440000D02*
G01*
X2610000Y39440000D01*
X2610000Y41040000D01*
X4210000Y41040000D01*
X4210000Y39440000D01*
X4210000Y39440000D01*
G37*
G36*
X6750000Y39440000D02*
G01*
X5150000Y39440000D01*
X5150000Y41040000D01*
X6750000Y41040000D01*
X6750000Y39440000D01*
X6750000Y39440000D01*
G37*
G36*
X46823351Y41009257D02*
G01*
X46968941Y40948952D01*
X47099970Y40861401D01*
X47211401Y40749970D01*
X47298952Y40618941D01*
X47359257Y40473351D01*
X47390000Y40318794D01*
X47390000Y40161206D01*
X47359257Y40006649D01*
X47298952Y39861059D01*
X47211401Y39730030D01*
X47099970Y39618599D01*
X46968941Y39531048D01*
X46823351Y39470743D01*
X46668794Y39440000D01*
X46511206Y39440000D01*
X46356649Y39470743D01*
X46211059Y39531048D01*
X46080030Y39618599D01*
X45968599Y39730030D01*
X45881048Y39861059D01*
X45820743Y40006649D01*
X45790000Y40161206D01*
X45790000Y40318794D01*
X45820743Y40473351D01*
X45881048Y40618941D01*
X45968599Y40749970D01*
X46080030Y40861401D01*
X46211059Y40948952D01*
X46356649Y41009257D01*
X46511206Y41040000D01*
X46668794Y41040000D01*
X46823351Y41009257D01*
X46823351Y41009257D01*
G37*
G36*
X30665000Y39940000D02*
G01*
X28465000Y39940000D01*
X28465000Y40540000D01*
X30665000Y40540000D01*
X30665000Y39940000D01*
X30665000Y39940000D01*
G37*
G36*
X25465000Y39940000D02*
G01*
X23265000Y39940000D01*
X23265000Y40540000D01*
X25465000Y40540000D01*
X25465000Y39940000D01*
X25465000Y39940000D01*
G37*
G36*
X39420000Y40110000D02*
G01*
X38520000Y40110000D01*
X38520000Y41010000D01*
X39420000Y41010000D01*
X39420000Y40110000D01*
X39420000Y40110000D01*
G37*
G36*
X41960000Y40110000D02*
G01*
X41060000Y40110000D01*
X41060000Y41010000D01*
X41960000Y41010000D01*
X41960000Y40110000D01*
X41960000Y40110000D01*
G37*
G36*
X36880000Y40110000D02*
G01*
X35980000Y40110000D01*
X35980000Y41010000D01*
X36880000Y41010000D01*
X36880000Y40110000D01*
X36880000Y40110000D01*
G37*
G36*
X34340000Y40110000D02*
G01*
X33440000Y40110000D01*
X33440000Y41010000D01*
X34340000Y41010000D01*
X34340000Y40110000D01*
X34340000Y40110000D01*
G37*
G36*
X21640000Y40110000D02*
G01*
X20740000Y40110000D01*
X20740000Y41010000D01*
X21640000Y41010000D01*
X21640000Y40110000D01*
X21640000Y40110000D01*
G37*
G36*
X16560000Y40110000D02*
G01*
X15660000Y40110000D01*
X15660000Y41010000D01*
X16560000Y41010000D01*
X16560000Y40110000D01*
X16560000Y40110000D01*
G37*
G36*
X14020000Y40110000D02*
G01*
X13120000Y40110000D01*
X13120000Y41010000D01*
X14020000Y41010000D01*
X14020000Y40110000D01*
X14020000Y40110000D01*
G37*
G36*
X19100000Y40110000D02*
G01*
X18200000Y40110000D01*
X18200000Y41010000D01*
X19100000Y41010000D01*
X19100000Y40110000D01*
X19100000Y40110000D01*
G37*
G36*
X9196500Y41060000D02*
G01*
X8296500Y41060000D01*
X8296500Y41960000D01*
X9196500Y41960000D01*
X9196500Y41060000D01*
X9196500Y41060000D01*
G37*
G36*
X11096500Y41060000D02*
G01*
X10196500Y41060000D01*
X10196500Y41960000D01*
X11096500Y41960000D01*
X11096500Y41060000D01*
X11096500Y41060000D01*
G37*
G36*
X4104780Y49540435D02*
G01*
X4404237Y49480869D01*
X4968401Y49247185D01*
X5476135Y48907928D01*
X5907928Y48476135D01*
X6247185Y47968401D01*
X6480869Y47404237D01*
X6480869Y47404235D01*
X6600000Y46805325D01*
X6600000Y46194675D01*
X6540434Y45895220D01*
X6480869Y45595763D01*
X6247185Y45031599D01*
X5907928Y44523865D01*
X5647439Y44263376D01*
X5631903Y44244445D01*
X5620352Y44222834D01*
X5613239Y44199385D01*
X5610837Y44174999D01*
X5613239Y44150613D01*
X5620352Y44127164D01*
X5631903Y44105553D01*
X5647448Y44086611D01*
X5666390Y44071066D01*
X5688001Y44059515D01*
X5711450Y44052402D01*
X5735836Y44050000D01*
X5950000Y44050000D01*
X5950000Y41510000D01*
X1505000Y41510000D01*
X1505000Y44050000D01*
X1505219Y44050000D01*
X1505221Y44070583D01*
X1500442Y44094617D01*
X1491066Y44117257D01*
X1477454Y44137632D01*
X1469230Y44146707D01*
X1092072Y44523865D01*
X752815Y45031599D01*
X519131Y45595763D01*
X459566Y45895220D01*
X400000Y46194675D01*
X400000Y46805325D01*
X519131Y47404235D01*
X519131Y47404237D01*
X752815Y47968401D01*
X1092072Y48476135D01*
X1523865Y48907928D01*
X2031599Y49247185D01*
X2595763Y49480869D01*
X2895220Y49540435D01*
X3194675Y49600000D01*
X3805325Y49600000D01*
X4104780Y49540435D01*
X4104780Y49540435D01*
G37*
G36*
X36880000Y42010000D02*
G01*
X35980000Y42010000D01*
X35980000Y42910000D01*
X36880000Y42910000D01*
X36880000Y42010000D01*
X36880000Y42010000D01*
G37*
G36*
X41960000Y42010000D02*
G01*
X41060000Y42010000D01*
X41060000Y42910000D01*
X41960000Y42910000D01*
X41960000Y42010000D01*
X41960000Y42010000D01*
G37*
G36*
X39420000Y42010000D02*
G01*
X38520000Y42010000D01*
X38520000Y42910000D01*
X39420000Y42910000D01*
X39420000Y42010000D01*
X39420000Y42010000D01*
G37*
G36*
X19100000Y42010000D02*
G01*
X18200000Y42010000D01*
X18200000Y42910000D01*
X19100000Y42910000D01*
X19100000Y42010000D01*
X19100000Y42010000D01*
G37*
G36*
X14020000Y42010000D02*
G01*
X13120000Y42010000D01*
X13120000Y42910000D01*
X14020000Y42910000D01*
X14020000Y42010000D01*
X14020000Y42010000D01*
G37*
G36*
X16560000Y42010000D02*
G01*
X15660000Y42010000D01*
X15660000Y42910000D01*
X16560000Y42910000D01*
X16560000Y42010000D01*
X16560000Y42010000D01*
G37*
G36*
X21640000Y42010000D02*
G01*
X20740000Y42010000D01*
X20740000Y42910000D01*
X21640000Y42910000D01*
X21640000Y42010000D01*
X21640000Y42010000D01*
G37*
G36*
X34340000Y42010000D02*
G01*
X33440000Y42010000D01*
X33440000Y42910000D01*
X34340000Y42910000D01*
X34340000Y42010000D01*
X34340000Y42010000D01*
G37*
G36*
X44268766Y43501179D02*
G01*
X44405257Y43444642D01*
X44528097Y43362563D01*
X44632563Y43258097D01*
X44714642Y43135257D01*
X44771179Y42998766D01*
X44800000Y42853870D01*
X44800000Y42706130D01*
X44771179Y42561234D01*
X44714642Y42424743D01*
X44632563Y42301903D01*
X44528097Y42197437D01*
X44405257Y42115358D01*
X44268766Y42058821D01*
X44123870Y42030000D01*
X43976130Y42030000D01*
X43831234Y42058821D01*
X43694743Y42115358D01*
X43571903Y42197437D01*
X43467437Y42301903D01*
X43385358Y42424743D01*
X43328821Y42561234D01*
X43300000Y42706130D01*
X43300000Y42853870D01*
X43328821Y42998766D01*
X43385358Y43135257D01*
X43467437Y43258097D01*
X43571903Y43362563D01*
X43694743Y43444642D01*
X43831234Y43501179D01*
X43976130Y43530000D01*
X44123870Y43530000D01*
X44268766Y43501179D01*
X44268766Y43501179D01*
G37*
G36*
X47104780Y49540435D02*
G01*
X47404237Y49480869D01*
X47968401Y49247185D01*
X48476135Y48907928D01*
X48907928Y48476135D01*
X49247185Y47968401D01*
X49480869Y47404237D01*
X49480869Y47404235D01*
X49600000Y46805325D01*
X49600000Y46194675D01*
X49540434Y45895220D01*
X49480869Y45595763D01*
X49247185Y45031599D01*
X48907928Y44523865D01*
X48476135Y44092072D01*
X47968401Y43752815D01*
X47404237Y43519131D01*
X47104780Y43459565D01*
X46805325Y43400000D01*
X46194675Y43400000D01*
X45895220Y43459565D01*
X45595763Y43519131D01*
X45031599Y43752815D01*
X44523865Y44092072D01*
X44092072Y44523865D01*
X43752815Y45031599D01*
X43519131Y45595763D01*
X43459566Y45895220D01*
X43400000Y46194675D01*
X43400000Y46805325D01*
X43519131Y47404235D01*
X43519131Y47404237D01*
X43752815Y47968401D01*
X44092072Y48476135D01*
X44523865Y48907928D01*
X45031599Y49247185D01*
X45595763Y49480869D01*
X45895220Y49540435D01*
X46194675Y49600000D01*
X46805325Y49600000D01*
X47104780Y49540435D01*
X47104780Y49540435D01*
G37*
G36*
X11263351Y46089257D02*
G01*
X11408941Y46028952D01*
X11539970Y45941401D01*
X11651401Y45829970D01*
X11738952Y45698941D01*
X11799257Y45553351D01*
X11830000Y45398794D01*
X11830000Y45241206D01*
X11799257Y45086649D01*
X11738952Y44941059D01*
X11651401Y44810030D01*
X11539970Y44698599D01*
X11408941Y44611048D01*
X11263351Y44550743D01*
X11108794Y44520000D01*
X10951206Y44520000D01*
X10796649Y44550743D01*
X10651059Y44611048D01*
X10520030Y44698599D01*
X10408599Y44810030D01*
X10321048Y44941059D01*
X10260743Y45086649D01*
X10230000Y45241206D01*
X10230000Y45398794D01*
X10260743Y45553351D01*
X10321048Y45698941D01*
X10408599Y45829970D01*
X10520030Y45941401D01*
X10651059Y46028952D01*
X10796649Y46089257D01*
X10951206Y46120000D01*
X11108794Y46120000D01*
X11263351Y46089257D01*
X11263351Y46089257D01*
G37*
G36*
X36663351Y46089257D02*
G01*
X36808941Y46028952D01*
X36939970Y45941401D01*
X37051401Y45829970D01*
X37138952Y45698941D01*
X37199257Y45553351D01*
X37230000Y45398794D01*
X37230000Y45241206D01*
X37199257Y45086649D01*
X37138952Y44941059D01*
X37051401Y44810030D01*
X36939970Y44698599D01*
X36808941Y44611048D01*
X36663351Y44550743D01*
X36508794Y44520000D01*
X36351206Y44520000D01*
X36196649Y44550743D01*
X36051059Y44611048D01*
X35920030Y44698599D01*
X35808599Y44810030D01*
X35721048Y44941059D01*
X35660743Y45086649D01*
X35630000Y45241206D01*
X35630000Y45398794D01*
X35660743Y45553351D01*
X35721048Y45698941D01*
X35808599Y45829970D01*
X35920030Y45941401D01*
X36051059Y46028952D01*
X36196649Y46089257D01*
X36351206Y46120000D01*
X36508794Y46120000D01*
X36663351Y46089257D01*
X36663351Y46089257D01*
G37*
G36*
X31583351Y46089257D02*
G01*
X31728941Y46028952D01*
X31859970Y45941401D01*
X31971401Y45829970D01*
X32058952Y45698941D01*
X32119257Y45553351D01*
X32150000Y45398794D01*
X32150000Y45241206D01*
X32119257Y45086649D01*
X32058952Y44941059D01*
X31971401Y44810030D01*
X31859970Y44698599D01*
X31728941Y44611048D01*
X31583351Y44550743D01*
X31428794Y44520000D01*
X31271206Y44520000D01*
X31116649Y44550743D01*
X30971059Y44611048D01*
X30840030Y44698599D01*
X30728599Y44810030D01*
X30641048Y44941059D01*
X30580743Y45086649D01*
X30550000Y45241206D01*
X30550000Y45398794D01*
X30580743Y45553351D01*
X30641048Y45698941D01*
X30728599Y45829970D01*
X30840030Y45941401D01*
X30971059Y46028952D01*
X31116649Y46089257D01*
X31271206Y46120000D01*
X31428794Y46120000D01*
X31583351Y46089257D01*
X31583351Y46089257D01*
G37*
G36*
X19450000Y44520000D02*
G01*
X17850000Y44520000D01*
X17850000Y46120000D01*
X19450000Y46120000D01*
X19450000Y44520000D01*
X19450000Y44520000D01*
G37*
G36*
X16343351Y46089257D02*
G01*
X16488941Y46028952D01*
X16619970Y45941401D01*
X16731401Y45829970D01*
X16818952Y45698941D01*
X16879257Y45553351D01*
X16910000Y45398794D01*
X16910000Y45241206D01*
X16879257Y45086649D01*
X16818952Y44941059D01*
X16731401Y44810030D01*
X16619970Y44698599D01*
X16488941Y44611048D01*
X16343351Y44550743D01*
X16188794Y44520000D01*
X16031206Y44520000D01*
X15876649Y44550743D01*
X15731059Y44611048D01*
X15600030Y44698599D01*
X15488599Y44810030D01*
X15401048Y44941059D01*
X15340743Y45086649D01*
X15310000Y45241206D01*
X15310000Y45398794D01*
X15340743Y45553351D01*
X15401048Y45698941D01*
X15488599Y45829970D01*
X15600030Y45941401D01*
X15731059Y46028952D01*
X15876649Y46089257D01*
X16031206Y46120000D01*
X16188794Y46120000D01*
X16343351Y46089257D01*
X16343351Y46089257D01*
G37*
G36*
X13803351Y46089257D02*
G01*
X13948941Y46028952D01*
X14079970Y45941401D01*
X14191401Y45829970D01*
X14278952Y45698941D01*
X14339257Y45553351D01*
X14370000Y45398794D01*
X14370000Y45241206D01*
X14339257Y45086649D01*
X14278952Y44941059D01*
X14191401Y44810030D01*
X14079970Y44698599D01*
X13948941Y44611048D01*
X13803351Y44550743D01*
X13648794Y44520000D01*
X13491206Y44520000D01*
X13336649Y44550743D01*
X13191059Y44611048D01*
X13060030Y44698599D01*
X12948599Y44810030D01*
X12861048Y44941059D01*
X12800743Y45086649D01*
X12770000Y45241206D01*
X12770000Y45398794D01*
X12800743Y45553351D01*
X12861048Y45698941D01*
X12948599Y45829970D01*
X13060030Y45941401D01*
X13191059Y46028952D01*
X13336649Y46089257D01*
X13491206Y46120000D01*
X13648794Y46120000D01*
X13803351Y46089257D01*
X13803351Y46089257D01*
G37*
G36*
X34123351Y46089257D02*
G01*
X34268941Y46028952D01*
X34399970Y45941401D01*
X34511401Y45829970D01*
X34598952Y45698941D01*
X34659257Y45553351D01*
X34690000Y45398794D01*
X34690000Y45241206D01*
X34659257Y45086649D01*
X34598952Y44941059D01*
X34511401Y44810030D01*
X34399970Y44698599D01*
X34268941Y44611048D01*
X34123351Y44550743D01*
X33968794Y44520000D01*
X33811206Y44520000D01*
X33656649Y44550743D01*
X33511059Y44611048D01*
X33380030Y44698599D01*
X33268599Y44810030D01*
X33181048Y44941059D01*
X33120743Y45086649D01*
X33090000Y45241206D01*
X33090000Y45398794D01*
X33120743Y45553351D01*
X33181048Y45698941D01*
X33268599Y45829970D01*
X33380030Y45941401D01*
X33511059Y46028952D01*
X33656649Y46089257D01*
X33811206Y46120000D01*
X33968794Y46120000D01*
X34123351Y46089257D01*
X34123351Y46089257D01*
G37*
G36*
X8723351Y46089257D02*
G01*
X8868941Y46028952D01*
X8999970Y45941401D01*
X9111401Y45829970D01*
X9198952Y45698941D01*
X9259257Y45553351D01*
X9290000Y45398794D01*
X9290000Y45241206D01*
X9259257Y45086649D01*
X9198952Y44941059D01*
X9111401Y44810030D01*
X8999970Y44698599D01*
X8868941Y44611048D01*
X8723351Y44550743D01*
X8568794Y44520000D01*
X8411206Y44520000D01*
X8256649Y44550743D01*
X8111059Y44611048D01*
X7980030Y44698599D01*
X7868599Y44810030D01*
X7781048Y44941059D01*
X7720743Y45086649D01*
X7690000Y45241206D01*
X7690000Y45398794D01*
X7720743Y45553351D01*
X7781048Y45698941D01*
X7868599Y45829970D01*
X7980030Y45941401D01*
X8111059Y46028952D01*
X8256649Y46089257D01*
X8411206Y46120000D01*
X8568794Y46120000D01*
X8723351Y46089257D01*
X8723351Y46089257D01*
G37*
G36*
X26503351Y46089257D02*
G01*
X26648941Y46028952D01*
X26779970Y45941401D01*
X26891401Y45829970D01*
X26978952Y45698941D01*
X27039257Y45553351D01*
X27070000Y45398794D01*
X27070000Y45241206D01*
X27039257Y45086649D01*
X26978952Y44941059D01*
X26891401Y44810030D01*
X26779970Y44698599D01*
X26648941Y44611048D01*
X26503351Y44550743D01*
X26348794Y44520000D01*
X26191206Y44520000D01*
X26036649Y44550743D01*
X25891059Y44611048D01*
X25760030Y44698599D01*
X25648599Y44810030D01*
X25561048Y44941059D01*
X25500743Y45086649D01*
X25470000Y45241206D01*
X25470000Y45398794D01*
X25500743Y45553351D01*
X25561048Y45698941D01*
X25648599Y45829970D01*
X25760030Y45941401D01*
X25891059Y46028952D01*
X26036649Y46089257D01*
X26191206Y46120000D01*
X26348794Y46120000D01*
X26503351Y46089257D01*
X26503351Y46089257D01*
G37*
G36*
X24530000Y44520000D02*
G01*
X22930000Y44520000D01*
X22930000Y46120000D01*
X24530000Y46120000D01*
X24530000Y44520000D01*
X24530000Y44520000D01*
G37*
G36*
X42310000Y44520000D02*
G01*
X40710000Y44520000D01*
X40710000Y46120000D01*
X42310000Y46120000D01*
X42310000Y44520000D01*
X42310000Y44520000D01*
G37*
G36*
X29043351Y46089257D02*
G01*
X29188941Y46028952D01*
X29319970Y45941401D01*
X29431401Y45829970D01*
X29518952Y45698941D01*
X29579257Y45553351D01*
X29610000Y45398794D01*
X29610000Y45241206D01*
X29579257Y45086649D01*
X29518952Y44941059D01*
X29431401Y44810030D01*
X29319970Y44698599D01*
X29188941Y44611048D01*
X29043351Y44550743D01*
X28888794Y44520000D01*
X28731206Y44520000D01*
X28576649Y44550743D01*
X28431059Y44611048D01*
X28300030Y44698599D01*
X28188599Y44810030D01*
X28101048Y44941059D01*
X28040743Y45086649D01*
X28010000Y45241206D01*
X28010000Y45398794D01*
X28040743Y45553351D01*
X28101048Y45698941D01*
X28188599Y45829970D01*
X28300030Y45941401D01*
X28431059Y46028952D01*
X28576649Y46089257D01*
X28731206Y46120000D01*
X28888794Y46120000D01*
X29043351Y46089257D01*
X29043351Y46089257D01*
G37*
G36*
X39203351Y46089257D02*
G01*
X39348941Y46028952D01*
X39479970Y45941401D01*
X39591401Y45829970D01*
X39678952Y45698941D01*
X39739257Y45553351D01*
X39770000Y45398794D01*
X39770000Y45241206D01*
X39739257Y45086649D01*
X39678952Y44941059D01*
X39591401Y44810030D01*
X39479970Y44698599D01*
X39348941Y44611048D01*
X39203351Y44550743D01*
X39048794Y44520000D01*
X38891206Y44520000D01*
X38736649Y44550743D01*
X38591059Y44611048D01*
X38460030Y44698599D01*
X38348599Y44810030D01*
X38261048Y44941059D01*
X38200743Y45086649D01*
X38170000Y45241206D01*
X38170000Y45398794D01*
X38200743Y45553351D01*
X38261048Y45698941D01*
X38348599Y45829970D01*
X38460030Y45941401D01*
X38591059Y46028952D01*
X38736649Y46089257D01*
X38891206Y46120000D01*
X39048794Y46120000D01*
X39203351Y46089257D01*
X39203351Y46089257D01*
G37*
G36*
X21640000Y45190000D02*
G01*
X20740000Y45190000D01*
X20740000Y46090000D01*
X21640000Y46090000D01*
X21640000Y45190000D01*
X21640000Y45190000D01*
G37*
G36*
X34123351Y48629257D02*
G01*
X34268941Y48568952D01*
X34399970Y48481401D01*
X34511401Y48369970D01*
X34598952Y48238941D01*
X34659257Y48093351D01*
X34690000Y47938794D01*
X34690000Y47781206D01*
X34659257Y47626649D01*
X34598952Y47481059D01*
X34511401Y47350030D01*
X34399970Y47238599D01*
X34268941Y47151048D01*
X34123351Y47090743D01*
X33968794Y47060000D01*
X33811206Y47060000D01*
X33656649Y47090743D01*
X33511059Y47151048D01*
X33380030Y47238599D01*
X33268599Y47350030D01*
X33181048Y47481059D01*
X33120743Y47626649D01*
X33090000Y47781206D01*
X33090000Y47938794D01*
X33120743Y48093351D01*
X33181048Y48238941D01*
X33268599Y48369970D01*
X33380030Y48481401D01*
X33511059Y48568952D01*
X33656649Y48629257D01*
X33811206Y48660000D01*
X33968794Y48660000D01*
X34123351Y48629257D01*
X34123351Y48629257D01*
G37*
G36*
X29043351Y48629257D02*
G01*
X29188941Y48568952D01*
X29319970Y48481401D01*
X29431401Y48369970D01*
X29518952Y48238941D01*
X29579257Y48093351D01*
X29610000Y47938794D01*
X29610000Y47781206D01*
X29579257Y47626649D01*
X29518952Y47481059D01*
X29431401Y47350030D01*
X29319970Y47238599D01*
X29188941Y47151048D01*
X29043351Y47090743D01*
X28888794Y47060000D01*
X28731206Y47060000D01*
X28576649Y47090743D01*
X28431059Y47151048D01*
X28300030Y47238599D01*
X28188599Y47350030D01*
X28101048Y47481059D01*
X28040743Y47626649D01*
X28010000Y47781206D01*
X28010000Y47938794D01*
X28040743Y48093351D01*
X28101048Y48238941D01*
X28188599Y48369970D01*
X28300030Y48481401D01*
X28431059Y48568952D01*
X28576649Y48629257D01*
X28731206Y48660000D01*
X28888794Y48660000D01*
X29043351Y48629257D01*
X29043351Y48629257D01*
G37*
G36*
X24530000Y47060000D02*
G01*
X22930000Y47060000D01*
X22930000Y48660000D01*
X24530000Y48660000D01*
X24530000Y47060000D01*
X24530000Y47060000D01*
G37*
G36*
X26503351Y48629257D02*
G01*
X26648941Y48568952D01*
X26779970Y48481401D01*
X26891401Y48369970D01*
X26978952Y48238941D01*
X27039257Y48093351D01*
X27070000Y47938794D01*
X27070000Y47781206D01*
X27039257Y47626649D01*
X26978952Y47481059D01*
X26891401Y47350030D01*
X26779970Y47238599D01*
X26648941Y47151048D01*
X26503351Y47090743D01*
X26348794Y47060000D01*
X26191206Y47060000D01*
X26036649Y47090743D01*
X25891059Y47151048D01*
X25760030Y47238599D01*
X25648599Y47350030D01*
X25561048Y47481059D01*
X25500743Y47626649D01*
X25470000Y47781206D01*
X25470000Y47938794D01*
X25500743Y48093351D01*
X25561048Y48238941D01*
X25648599Y48369970D01*
X25760030Y48481401D01*
X25891059Y48568952D01*
X26036649Y48629257D01*
X26191206Y48660000D01*
X26348794Y48660000D01*
X26503351Y48629257D01*
X26503351Y48629257D01*
G37*
G36*
X16343351Y48629257D02*
G01*
X16488941Y48568952D01*
X16619970Y48481401D01*
X16731401Y48369970D01*
X16818952Y48238941D01*
X16879257Y48093351D01*
X16910000Y47938794D01*
X16910000Y47781206D01*
X16879257Y47626649D01*
X16818952Y47481059D01*
X16731401Y47350030D01*
X16619970Y47238599D01*
X16488941Y47151048D01*
X16343351Y47090743D01*
X16188794Y47060000D01*
X16031206Y47060000D01*
X15876649Y47090743D01*
X15731059Y47151048D01*
X15600030Y47238599D01*
X15488599Y47350030D01*
X15401048Y47481059D01*
X15340743Y47626649D01*
X15310000Y47781206D01*
X15310000Y47938794D01*
X15340743Y48093351D01*
X15401048Y48238941D01*
X15488599Y48369970D01*
X15600030Y48481401D01*
X15731059Y48568952D01*
X15876649Y48629257D01*
X16031206Y48660000D01*
X16188794Y48660000D01*
X16343351Y48629257D01*
X16343351Y48629257D01*
G37*
G36*
X19450000Y47060000D02*
G01*
X17850000Y47060000D01*
X17850000Y48660000D01*
X19450000Y48660000D01*
X19450000Y47060000D01*
X19450000Y47060000D01*
G37*
G36*
X13803351Y48629257D02*
G01*
X13948941Y48568952D01*
X14079970Y48481401D01*
X14191401Y48369970D01*
X14278952Y48238941D01*
X14339257Y48093351D01*
X14370000Y47938794D01*
X14370000Y47781206D01*
X14339257Y47626649D01*
X14278952Y47481059D01*
X14191401Y47350030D01*
X14079970Y47238599D01*
X13948941Y47151048D01*
X13803351Y47090743D01*
X13648794Y47060000D01*
X13491206Y47060000D01*
X13336649Y47090743D01*
X13191059Y47151048D01*
X13060030Y47238599D01*
X12948599Y47350030D01*
X12861048Y47481059D01*
X12800743Y47626649D01*
X12770000Y47781206D01*
X12770000Y47938794D01*
X12800743Y48093351D01*
X12861048Y48238941D01*
X12948599Y48369970D01*
X13060030Y48481401D01*
X13191059Y48568952D01*
X13336649Y48629257D01*
X13491206Y48660000D01*
X13648794Y48660000D01*
X13803351Y48629257D01*
X13803351Y48629257D01*
G37*
G36*
X11263351Y48629257D02*
G01*
X11408941Y48568952D01*
X11539970Y48481401D01*
X11651401Y48369970D01*
X11738952Y48238941D01*
X11799257Y48093351D01*
X11830000Y47938794D01*
X11830000Y47781206D01*
X11799257Y47626649D01*
X11738952Y47481059D01*
X11651401Y47350030D01*
X11539970Y47238599D01*
X11408941Y47151048D01*
X11263351Y47090743D01*
X11108794Y47060000D01*
X10951206Y47060000D01*
X10796649Y47090743D01*
X10651059Y47151048D01*
X10520030Y47238599D01*
X10408599Y47350030D01*
X10321048Y47481059D01*
X10260743Y47626649D01*
X10230000Y47781206D01*
X10230000Y47938794D01*
X10260743Y48093351D01*
X10321048Y48238941D01*
X10408599Y48369970D01*
X10520030Y48481401D01*
X10651059Y48568952D01*
X10796649Y48629257D01*
X10951206Y48660000D01*
X11108794Y48660000D01*
X11263351Y48629257D01*
X11263351Y48629257D01*
G37*
G36*
X8723351Y48629257D02*
G01*
X8868941Y48568952D01*
X8999970Y48481401D01*
X9111401Y48369970D01*
X9198952Y48238941D01*
X9259257Y48093351D01*
X9290000Y47938794D01*
X9290000Y47781206D01*
X9259257Y47626649D01*
X9198952Y47481059D01*
X9111401Y47350030D01*
X8999970Y47238599D01*
X8868941Y47151048D01*
X8723351Y47090743D01*
X8568794Y47060000D01*
X8411206Y47060000D01*
X8256649Y47090743D01*
X8111059Y47151048D01*
X7980030Y47238599D01*
X7868599Y47350030D01*
X7781048Y47481059D01*
X7720743Y47626649D01*
X7690000Y47781206D01*
X7690000Y47938794D01*
X7720743Y48093351D01*
X7781048Y48238941D01*
X7868599Y48369970D01*
X7980030Y48481401D01*
X8111059Y48568952D01*
X8256649Y48629257D01*
X8411206Y48660000D01*
X8568794Y48660000D01*
X8723351Y48629257D01*
X8723351Y48629257D01*
G37*
G36*
X36663351Y48629257D02*
G01*
X36808941Y48568952D01*
X36939970Y48481401D01*
X37051401Y48369970D01*
X37138952Y48238941D01*
X37199257Y48093351D01*
X37230000Y47938794D01*
X37230000Y47781206D01*
X37199257Y47626649D01*
X37138952Y47481059D01*
X37051401Y47350030D01*
X36939970Y47238599D01*
X36808941Y47151048D01*
X36663351Y47090743D01*
X36508794Y47060000D01*
X36351206Y47060000D01*
X36196649Y47090743D01*
X36051059Y47151048D01*
X35920030Y47238599D01*
X35808599Y47350030D01*
X35721048Y47481059D01*
X35660743Y47626649D01*
X35630000Y47781206D01*
X35630000Y47938794D01*
X35660743Y48093351D01*
X35721048Y48238941D01*
X35808599Y48369970D01*
X35920030Y48481401D01*
X36051059Y48568952D01*
X36196649Y48629257D01*
X36351206Y48660000D01*
X36508794Y48660000D01*
X36663351Y48629257D01*
X36663351Y48629257D01*
G37*
G36*
X42310000Y47060000D02*
G01*
X40710000Y47060000D01*
X40710000Y48660000D01*
X42310000Y48660000D01*
X42310000Y47060000D01*
X42310000Y47060000D01*
G37*
G36*
X39203351Y48629257D02*
G01*
X39348941Y48568952D01*
X39479970Y48481401D01*
X39591401Y48369970D01*
X39678952Y48238941D01*
X39739257Y48093351D01*
X39770000Y47938794D01*
X39770000Y47781206D01*
X39739257Y47626649D01*
X39678952Y47481059D01*
X39591401Y47350030D01*
X39479970Y47238599D01*
X39348941Y47151048D01*
X39203351Y47090743D01*
X39048794Y47060000D01*
X38891206Y47060000D01*
X38736649Y47090743D01*
X38591059Y47151048D01*
X38460030Y47238599D01*
X38348599Y47350030D01*
X38261048Y47481059D01*
X38200743Y47626649D01*
X38170000Y47781206D01*
X38170000Y47938794D01*
X38200743Y48093351D01*
X38261048Y48238941D01*
X38348599Y48369970D01*
X38460030Y48481401D01*
X38591059Y48568952D01*
X38736649Y48629257D01*
X38891206Y48660000D01*
X39048794Y48660000D01*
X39203351Y48629257D01*
X39203351Y48629257D01*
G37*
G36*
X31583351Y48629257D02*
G01*
X31728941Y48568952D01*
X31859970Y48481401D01*
X31971401Y48369970D01*
X32058952Y48238941D01*
X32119257Y48093351D01*
X32150000Y47938794D01*
X32150000Y47781206D01*
X32119257Y47626649D01*
X32058952Y47481059D01*
X31971401Y47350030D01*
X31859970Y47238599D01*
X31728941Y47151048D01*
X31583351Y47090743D01*
X31428794Y47060000D01*
X31271206Y47060000D01*
X31116649Y47090743D01*
X30971059Y47151048D01*
X30840030Y47238599D01*
X30728599Y47350030D01*
X30641048Y47481059D01*
X30580743Y47626649D01*
X30550000Y47781206D01*
X30550000Y47938794D01*
X30580743Y48093351D01*
X30641048Y48238941D01*
X30728599Y48369970D01*
X30840030Y48481401D01*
X30971059Y48568952D01*
X31116649Y48629257D01*
X31271206Y48660000D01*
X31428794Y48660000D01*
X31583351Y48629257D01*
X31583351Y48629257D01*
G37*
G36*
X21640000Y47090000D02*
G01*
X20740000Y47090000D01*
X20740000Y47990000D01*
X21640000Y47990000D01*
X21640000Y47090000D01*
X21640000Y47090000D01*
G37*
M02*
