%TF.GenerationSoftware,KiCad,Pcbnew,(5.0.2)-1*%
%TF.CreationDate,2019-03-11T21:45:58+00:00*%
%TF.ProjectId,uDSP-1.0,75445350-2d31-42e3-902e-6b696361645f,1.0*%
%TF.SameCoordinates,PX660b0c0PY81b3200*%
%TF.FileFunction,Paste,Top*%
%TF.FilePolarity,Positive*%
%FSLAX46Y46*%
G04 Gerber Fmt 4.6, Leading zero omitted, Abs format (unit mm)*
G04 Created by KiCad (PCBNEW (5.0.2)-1) date 11/03/2019 21:45:58*
%MOMM*%
%LPD*%
G01*
G04 APERTURE LIST*
%ADD10C,0.100000*%
%ADD11R,0.900000X0.900000*%
%ADD12R,1.300000X0.900000*%
%ADD13R,1.200000X3.000000*%
%ADD14R,1.200000X1.400000*%
%ADD15C,5.300000*%
%ADD16C,0.150000*%
%ADD17C,0.250000*%
%ADD18C,1.000000*%
%ADD19R,1.600000X2.100000*%
%ADD20R,1.200000X2.000000*%
%ADD21R,3.600000X2.000000*%
%ADD22C,1.500000*%
G04 APERTURE END LIST*
D10*
X0Y50000000D02*
X0Y0D01*
X50000000Y50000000D02*
X0Y50000000D01*
X50000000Y0D02*
X50000000Y50000000D01*
X0Y0D02*
X50000000Y0D01*
D11*
X18918000Y13191000D03*
X17018000Y13191000D03*
X15174000Y12614500D03*
X15174000Y10714500D03*
D12*
X10080000Y10565000D03*
X10080000Y12765000D03*
D11*
X9887000Y14969500D03*
X9887000Y16869500D03*
X7220000Y10715000D03*
X7220000Y12615000D03*
X5450000Y27540000D03*
X3550000Y27540000D03*
D13*
X3490000Y13413000D03*
X3490000Y9413000D03*
X10395000Y27891500D03*
X10395000Y31891500D03*
D11*
X24492000Y10275000D03*
X24492000Y12175000D03*
X27159000Y12175000D03*
X27159000Y10275000D03*
D14*
X34525000Y10565000D03*
X34525000Y12765000D03*
X32825000Y12765000D03*
X32825000Y10565000D03*
D11*
X37385000Y25320000D03*
X39285000Y25320000D03*
X12888000Y12617000D03*
X12888000Y10717000D03*
D15*
X26905000Y29438019D03*
D16*
G36*
X26905000Y25690353D02*
X23157334Y29438019D01*
X26905000Y33185685D01*
X30652666Y29438019D01*
X26905000Y25690353D01*
X26905000Y25690353D01*
G37*
D17*
X19975354Y30357258D03*
D16*
G36*
X20417296Y29738540D02*
X19356636Y30799200D01*
X19533412Y30975976D01*
X20594072Y29915316D01*
X20417296Y29738540D01*
X20417296Y29738540D01*
G37*
D17*
X20328907Y30710811D03*
D16*
G36*
X20770849Y30092093D02*
X19710189Y31152753D01*
X19886965Y31329529D01*
X20947625Y30268869D01*
X20770849Y30092093D01*
X20770849Y30092093D01*
G37*
D17*
X20682460Y31064365D03*
D16*
G36*
X21124402Y30445647D02*
X20063742Y31506307D01*
X20240518Y31683083D01*
X21301178Y30622423D01*
X21124402Y30445647D01*
X21124402Y30445647D01*
G37*
D17*
X21036014Y31417918D03*
D16*
G36*
X21477956Y30799200D02*
X20417296Y31859860D01*
X20594072Y32036636D01*
X21654732Y30975976D01*
X21477956Y30799200D01*
X21477956Y30799200D01*
G37*
D17*
X21389567Y31771471D03*
D16*
G36*
X21831509Y31152753D02*
X20770849Y32213413D01*
X20947625Y32390189D01*
X22008285Y31329529D01*
X21831509Y31152753D01*
X21831509Y31152753D01*
G37*
D17*
X21743120Y32125025D03*
D16*
G36*
X22185062Y31506307D02*
X21124402Y32566967D01*
X21301178Y32743743D01*
X22361838Y31683083D01*
X22185062Y31506307D01*
X22185062Y31506307D01*
G37*
D17*
X22096674Y32478578D03*
D16*
G36*
X22538616Y31859860D02*
X21477956Y32920520D01*
X21654732Y33097296D01*
X22715392Y32036636D01*
X22538616Y31859860D01*
X22538616Y31859860D01*
G37*
D17*
X22450227Y32832132D03*
D16*
G36*
X22892169Y32213414D02*
X21831509Y33274074D01*
X22008285Y33450850D01*
X23068945Y32390190D01*
X22892169Y32213414D01*
X22892169Y32213414D01*
G37*
D17*
X22803781Y33185685D03*
D16*
G36*
X23245723Y32566967D02*
X22185063Y33627627D01*
X22361839Y33804403D01*
X23422499Y32743743D01*
X23245723Y32566967D01*
X23245723Y32566967D01*
G37*
D17*
X23157334Y33539238D03*
D16*
G36*
X23599276Y32920520D02*
X22538616Y33981180D01*
X22715392Y34157956D01*
X23776052Y33097296D01*
X23599276Y32920520D01*
X23599276Y32920520D01*
G37*
D17*
X23510887Y33892792D03*
D16*
G36*
X23952829Y33274074D02*
X22892169Y34334734D01*
X23068945Y34511510D01*
X24129605Y33450850D01*
X23952829Y33274074D01*
X23952829Y33274074D01*
G37*
D17*
X23864441Y34246345D03*
D16*
G36*
X24306383Y33627627D02*
X23245723Y34688287D01*
X23422499Y34865063D01*
X24483159Y33804403D01*
X24306383Y33627627D01*
X24306383Y33627627D01*
G37*
D17*
X24217994Y34599899D03*
D16*
G36*
X24659936Y33981181D02*
X23599276Y35041841D01*
X23776052Y35218617D01*
X24836712Y34157957D01*
X24659936Y33981181D01*
X24659936Y33981181D01*
G37*
D17*
X24571548Y34953452D03*
D16*
G36*
X25013490Y34334734D02*
X23952830Y35395394D01*
X24129606Y35572170D01*
X25190266Y34511510D01*
X25013490Y34334734D01*
X25013490Y34334734D01*
G37*
D17*
X24925101Y35307005D03*
D16*
G36*
X25367043Y34688287D02*
X24306383Y35748947D01*
X24483159Y35925723D01*
X25543819Y34865063D01*
X25367043Y34688287D01*
X25367043Y34688287D01*
G37*
D17*
X25278654Y35660559D03*
D16*
G36*
X25720596Y35041841D02*
X24659936Y36102501D01*
X24836712Y36279277D01*
X25897372Y35218617D01*
X25720596Y35041841D01*
X25720596Y35041841D01*
G37*
D17*
X25632208Y36014112D03*
D16*
G36*
X26074150Y35395394D02*
X25013490Y36456054D01*
X25190266Y36632830D01*
X26250926Y35572170D01*
X26074150Y35395394D01*
X26074150Y35395394D01*
G37*
D17*
X25985761Y36367665D03*
D16*
G36*
X26427703Y35748947D02*
X25367043Y36809607D01*
X25543819Y36986383D01*
X26604479Y35925723D01*
X26427703Y35748947D01*
X26427703Y35748947D01*
G37*
D17*
X27824239Y36367665D03*
D16*
G36*
X27382297Y35748947D02*
X27205521Y35925723D01*
X28266181Y36986383D01*
X28442957Y36809607D01*
X27382297Y35748947D01*
X27382297Y35748947D01*
G37*
D17*
X28177792Y36014112D03*
D16*
G36*
X27735850Y35395394D02*
X27559074Y35572170D01*
X28619734Y36632830D01*
X28796510Y36456054D01*
X27735850Y35395394D01*
X27735850Y35395394D01*
G37*
D17*
X28531346Y35660559D03*
D16*
G36*
X28089404Y35041841D02*
X27912628Y35218617D01*
X28973288Y36279277D01*
X29150064Y36102501D01*
X28089404Y35041841D01*
X28089404Y35041841D01*
G37*
D17*
X28884899Y35307005D03*
D16*
G36*
X28442957Y34688287D02*
X28266181Y34865063D01*
X29326841Y35925723D01*
X29503617Y35748947D01*
X28442957Y34688287D01*
X28442957Y34688287D01*
G37*
D17*
X29238452Y34953452D03*
D16*
G36*
X28796510Y34334734D02*
X28619734Y34511510D01*
X29680394Y35572170D01*
X29857170Y35395394D01*
X28796510Y34334734D01*
X28796510Y34334734D01*
G37*
D17*
X29592006Y34599899D03*
D16*
G36*
X29150064Y33981181D02*
X28973288Y34157957D01*
X30033948Y35218617D01*
X30210724Y35041841D01*
X29150064Y33981181D01*
X29150064Y33981181D01*
G37*
D17*
X29945559Y34246345D03*
D16*
G36*
X29503617Y33627627D02*
X29326841Y33804403D01*
X30387501Y34865063D01*
X30564277Y34688287D01*
X29503617Y33627627D01*
X29503617Y33627627D01*
G37*
D17*
X30299113Y33892792D03*
D16*
G36*
X29857171Y33274074D02*
X29680395Y33450850D01*
X30741055Y34511510D01*
X30917831Y34334734D01*
X29857171Y33274074D01*
X29857171Y33274074D01*
G37*
D17*
X30652666Y33539238D03*
D16*
G36*
X30210724Y32920520D02*
X30033948Y33097296D01*
X31094608Y34157956D01*
X31271384Y33981180D01*
X30210724Y32920520D01*
X30210724Y32920520D01*
G37*
D17*
X31006219Y33185685D03*
D16*
G36*
X30564277Y32566967D02*
X30387501Y32743743D01*
X31448161Y33804403D01*
X31624937Y33627627D01*
X30564277Y32566967D01*
X30564277Y32566967D01*
G37*
D17*
X31359773Y32832132D03*
D16*
G36*
X30917831Y32213414D02*
X30741055Y32390190D01*
X31801715Y33450850D01*
X31978491Y33274074D01*
X30917831Y32213414D01*
X30917831Y32213414D01*
G37*
D17*
X31713326Y32478578D03*
D16*
G36*
X31271384Y31859860D02*
X31094608Y32036636D01*
X32155268Y33097296D01*
X32332044Y32920520D01*
X31271384Y31859860D01*
X31271384Y31859860D01*
G37*
D17*
X32066880Y32125025D03*
D16*
G36*
X31624938Y31506307D02*
X31448162Y31683083D01*
X32508822Y32743743D01*
X32685598Y32566967D01*
X31624938Y31506307D01*
X31624938Y31506307D01*
G37*
D17*
X32420433Y31771471D03*
D16*
G36*
X31978491Y31152753D02*
X31801715Y31329529D01*
X32862375Y32390189D01*
X33039151Y32213413D01*
X31978491Y31152753D01*
X31978491Y31152753D01*
G37*
D17*
X32773986Y31417918D03*
D16*
G36*
X32332044Y30799200D02*
X32155268Y30975976D01*
X33215928Y32036636D01*
X33392704Y31859860D01*
X32332044Y30799200D01*
X32332044Y30799200D01*
G37*
D17*
X33127540Y31064365D03*
D16*
G36*
X32685598Y30445647D02*
X32508822Y30622423D01*
X33569482Y31683083D01*
X33746258Y31506307D01*
X32685598Y30445647D01*
X32685598Y30445647D01*
G37*
D17*
X33481093Y30710811D03*
D16*
G36*
X33039151Y30092093D02*
X32862375Y30268869D01*
X33923035Y31329529D01*
X34099811Y31152753D01*
X33039151Y30092093D01*
X33039151Y30092093D01*
G37*
D17*
X33834646Y30357258D03*
D16*
G36*
X33392704Y29738540D02*
X33215928Y29915316D01*
X34276588Y30975976D01*
X34453364Y30799200D01*
X33392704Y29738540D01*
X33392704Y29738540D01*
G37*
D17*
X33834646Y28518780D03*
D16*
G36*
X34276588Y27900062D02*
X33215928Y28960722D01*
X33392704Y29137498D01*
X34453364Y28076838D01*
X34276588Y27900062D01*
X34276588Y27900062D01*
G37*
D17*
X33481093Y28165227D03*
D16*
G36*
X33923035Y27546509D02*
X32862375Y28607169D01*
X33039151Y28783945D01*
X34099811Y27723285D01*
X33923035Y27546509D01*
X33923035Y27546509D01*
G37*
D17*
X33127540Y27811673D03*
D16*
G36*
X33569482Y27192955D02*
X32508822Y28253615D01*
X32685598Y28430391D01*
X33746258Y27369731D01*
X33569482Y27192955D01*
X33569482Y27192955D01*
G37*
D17*
X32773986Y27458120D03*
D16*
G36*
X33215928Y26839402D02*
X32155268Y27900062D01*
X32332044Y28076838D01*
X33392704Y27016178D01*
X33215928Y26839402D01*
X33215928Y26839402D01*
G37*
D17*
X32420433Y27104567D03*
D16*
G36*
X32862375Y26485849D02*
X31801715Y27546509D01*
X31978491Y27723285D01*
X33039151Y26662625D01*
X32862375Y26485849D01*
X32862375Y26485849D01*
G37*
D17*
X32066880Y26751013D03*
D16*
G36*
X32508822Y26132295D02*
X31448162Y27192955D01*
X31624938Y27369731D01*
X32685598Y26309071D01*
X32508822Y26132295D01*
X32508822Y26132295D01*
G37*
D17*
X31713326Y26397460D03*
D16*
G36*
X32155268Y25778742D02*
X31094608Y26839402D01*
X31271384Y27016178D01*
X32332044Y25955518D01*
X32155268Y25778742D01*
X32155268Y25778742D01*
G37*
D17*
X31359773Y26043906D03*
D16*
G36*
X31801715Y25425188D02*
X30741055Y26485848D01*
X30917831Y26662624D01*
X31978491Y25601964D01*
X31801715Y25425188D01*
X31801715Y25425188D01*
G37*
D17*
X31006219Y25690353D03*
D16*
G36*
X31448161Y25071635D02*
X30387501Y26132295D01*
X30564277Y26309071D01*
X31624937Y25248411D01*
X31448161Y25071635D01*
X31448161Y25071635D01*
G37*
D17*
X30652666Y25336800D03*
D16*
G36*
X31094608Y24718082D02*
X30033948Y25778742D01*
X30210724Y25955518D01*
X31271384Y24894858D01*
X31094608Y24718082D01*
X31094608Y24718082D01*
G37*
D17*
X30299113Y24983246D03*
D16*
G36*
X30741055Y24364528D02*
X29680395Y25425188D01*
X29857171Y25601964D01*
X30917831Y24541304D01*
X30741055Y24364528D01*
X30741055Y24364528D01*
G37*
D17*
X29945559Y24629693D03*
D16*
G36*
X30387501Y24010975D02*
X29326841Y25071635D01*
X29503617Y25248411D01*
X30564277Y24187751D01*
X30387501Y24010975D01*
X30387501Y24010975D01*
G37*
D17*
X29592006Y24276139D03*
D16*
G36*
X30033948Y23657421D02*
X28973288Y24718081D01*
X29150064Y24894857D01*
X30210724Y23834197D01*
X30033948Y23657421D01*
X30033948Y23657421D01*
G37*
D17*
X29238452Y23922586D03*
D16*
G36*
X29680394Y23303868D02*
X28619734Y24364528D01*
X28796510Y24541304D01*
X29857170Y23480644D01*
X29680394Y23303868D01*
X29680394Y23303868D01*
G37*
D17*
X28884899Y23569033D03*
D16*
G36*
X29326841Y22950315D02*
X28266181Y24010975D01*
X28442957Y24187751D01*
X29503617Y23127091D01*
X29326841Y22950315D01*
X29326841Y22950315D01*
G37*
D17*
X28531346Y23215479D03*
D16*
G36*
X28973288Y22596761D02*
X27912628Y23657421D01*
X28089404Y23834197D01*
X29150064Y22773537D01*
X28973288Y22596761D01*
X28973288Y22596761D01*
G37*
D17*
X28177792Y22861926D03*
D16*
G36*
X28619734Y22243208D02*
X27559074Y23303868D01*
X27735850Y23480644D01*
X28796510Y22419984D01*
X28619734Y22243208D01*
X28619734Y22243208D01*
G37*
D17*
X27824239Y22508373D03*
D16*
G36*
X28266181Y21889655D02*
X27205521Y22950315D01*
X27382297Y23127091D01*
X28442957Y22066431D01*
X28266181Y21889655D01*
X28266181Y21889655D01*
G37*
D17*
X25985761Y22508373D03*
D16*
G36*
X25543819Y21889655D02*
X25367043Y22066431D01*
X26427703Y23127091D01*
X26604479Y22950315D01*
X25543819Y21889655D01*
X25543819Y21889655D01*
G37*
D17*
X25632208Y22861926D03*
D16*
G36*
X25190266Y22243208D02*
X25013490Y22419984D01*
X26074150Y23480644D01*
X26250926Y23303868D01*
X25190266Y22243208D01*
X25190266Y22243208D01*
G37*
D17*
X25278654Y23215479D03*
D16*
G36*
X24836712Y22596761D02*
X24659936Y22773537D01*
X25720596Y23834197D01*
X25897372Y23657421D01*
X24836712Y22596761D01*
X24836712Y22596761D01*
G37*
D17*
X24925101Y23569033D03*
D16*
G36*
X24483159Y22950315D02*
X24306383Y23127091D01*
X25367043Y24187751D01*
X25543819Y24010975D01*
X24483159Y22950315D01*
X24483159Y22950315D01*
G37*
D17*
X24571548Y23922586D03*
D16*
G36*
X24129606Y23303868D02*
X23952830Y23480644D01*
X25013490Y24541304D01*
X25190266Y24364528D01*
X24129606Y23303868D01*
X24129606Y23303868D01*
G37*
D17*
X24217994Y24276139D03*
D16*
G36*
X23776052Y23657421D02*
X23599276Y23834197D01*
X24659936Y24894857D01*
X24836712Y24718081D01*
X23776052Y23657421D01*
X23776052Y23657421D01*
G37*
D17*
X23864441Y24629693D03*
D16*
G36*
X23422499Y24010975D02*
X23245723Y24187751D01*
X24306383Y25248411D01*
X24483159Y25071635D01*
X23422499Y24010975D01*
X23422499Y24010975D01*
G37*
D17*
X23510887Y24983246D03*
D16*
G36*
X23068945Y24364528D02*
X22892169Y24541304D01*
X23952829Y25601964D01*
X24129605Y25425188D01*
X23068945Y24364528D01*
X23068945Y24364528D01*
G37*
D17*
X23157334Y25336800D03*
D16*
G36*
X22715392Y24718082D02*
X22538616Y24894858D01*
X23599276Y25955518D01*
X23776052Y25778742D01*
X22715392Y24718082D01*
X22715392Y24718082D01*
G37*
D17*
X22803781Y25690353D03*
D16*
G36*
X22361839Y25071635D02*
X22185063Y25248411D01*
X23245723Y26309071D01*
X23422499Y26132295D01*
X22361839Y25071635D01*
X22361839Y25071635D01*
G37*
D17*
X22450227Y26043906D03*
D16*
G36*
X22008285Y25425188D02*
X21831509Y25601964D01*
X22892169Y26662624D01*
X23068945Y26485848D01*
X22008285Y25425188D01*
X22008285Y25425188D01*
G37*
D17*
X22096674Y26397460D03*
D16*
G36*
X21654732Y25778742D02*
X21477956Y25955518D01*
X22538616Y27016178D01*
X22715392Y26839402D01*
X21654732Y25778742D01*
X21654732Y25778742D01*
G37*
D17*
X21743120Y26751013D03*
D16*
G36*
X21301178Y26132295D02*
X21124402Y26309071D01*
X22185062Y27369731D01*
X22361838Y27192955D01*
X21301178Y26132295D01*
X21301178Y26132295D01*
G37*
D17*
X21389567Y27104567D03*
D16*
G36*
X20947625Y26485849D02*
X20770849Y26662625D01*
X21831509Y27723285D01*
X22008285Y27546509D01*
X20947625Y26485849D01*
X20947625Y26485849D01*
G37*
D17*
X21036014Y27458120D03*
D16*
G36*
X20594072Y26839402D02*
X20417296Y27016178D01*
X21477956Y28076838D01*
X21654732Y27900062D01*
X20594072Y26839402D01*
X20594072Y26839402D01*
G37*
D17*
X20682460Y27811673D03*
D16*
G36*
X20240518Y27192955D02*
X20063742Y27369731D01*
X21124402Y28430391D01*
X21301178Y28253615D01*
X20240518Y27192955D01*
X20240518Y27192955D01*
G37*
D17*
X20328907Y28165227D03*
D16*
G36*
X19886965Y27546509D02*
X19710189Y27723285D01*
X20770849Y28783945D01*
X20947625Y28607169D01*
X19886965Y27546509D01*
X19886965Y27546509D01*
G37*
D17*
X19975354Y28518780D03*
D16*
G36*
X19533412Y27900062D02*
X19356636Y28076838D01*
X20417296Y29137498D01*
X20594072Y28960722D01*
X19533412Y27900062D01*
X19533412Y27900062D01*
G37*
D11*
X32940001Y18015000D03*
X34839999Y18015000D03*
X21190000Y47794000D03*
X21190000Y45894000D03*
X19031000Y40560000D03*
X19031000Y42460000D03*
X26270000Y42460000D03*
X26270000Y40560000D03*
X21380500Y42460000D03*
X21380500Y40560000D03*
X23730000Y40560000D03*
X23730000Y42460000D03*
X28810000Y42460000D03*
X28810000Y40560000D03*
X29840000Y12175000D03*
X29840000Y10275000D03*
X14078000Y40560000D03*
X14078000Y42460000D03*
X36745000Y35160000D03*
X34845000Y35160000D03*
X41190000Y35160000D03*
X39290000Y35160000D03*
X41190000Y37700000D03*
X39290000Y37700000D03*
X16745000Y42460000D03*
X16745000Y40560000D03*
X38970000Y42460000D03*
X38970000Y40560000D03*
X36430000Y42460000D03*
X36430000Y40560000D03*
X33890000Y42460000D03*
X33890000Y40560000D03*
X41510000Y42460000D03*
X41510000Y40560000D03*
X10710000Y38019500D03*
X8810000Y38019500D03*
X16425000Y35160000D03*
X14525000Y35160000D03*
X10710000Y35479500D03*
X8810000Y35479500D03*
X8744000Y40560000D03*
X8744000Y42460000D03*
X11411000Y40560000D03*
X11411000Y42460000D03*
X16425000Y26270000D03*
X14525000Y26270000D03*
D18*
X31985000Y21825000D03*
D19*
X17888000Y2031000D03*
X17888000Y10631000D03*
D11*
X34840000Y20555000D03*
X32940000Y20555000D03*
X39285000Y12935000D03*
X37385000Y12935000D03*
X39285000Y10395000D03*
X37385000Y10395000D03*
X34840000Y15475000D03*
X32940000Y15475000D03*
X27940000Y14715000D03*
X29840000Y14715000D03*
X37385000Y23095000D03*
X39285000Y23095000D03*
X37385000Y15475000D03*
X39285000Y15475000D03*
X37385000Y20555000D03*
X39285000Y20555000D03*
X37385000Y18015000D03*
X39285000Y18015000D03*
D20*
X15475000Y23476000D03*
X10903000Y23476000D03*
X13189000Y23476000D03*
D21*
X13189000Y16872000D03*
D22*
X44050000Y42780000D03*
D11*
X22841000Y17695000D03*
X22841000Y15795000D03*
X20108000Y18269000D03*
X18208000Y18269000D03*
X20108000Y15729000D03*
X18208000Y15729000D03*
X18208001Y23476000D03*
X20107999Y23476000D03*
X18208000Y20809000D03*
X20108000Y20809000D03*
X39285000Y31985000D03*
X37385000Y31985000D03*
X25508000Y17573000D03*
X25508000Y19473000D03*
X25315000Y38335000D03*
X23415000Y38335000D03*
X31350000Y42460000D03*
X31350000Y40560000D03*
X27860000Y38335000D03*
X29760000Y38335000D03*
X37065000Y29760000D03*
X37065000Y27860000D03*
X39605000Y29760000D03*
X39605000Y27860000D03*
X27940000Y19795000D03*
X29840000Y19795000D03*
X27940000Y17255000D03*
X29840000Y17255000D03*
X14205000Y32935000D03*
X14205000Y31035000D03*
X16745000Y32935000D03*
X16745000Y31035000D03*
D18*
X19539000Y35795000D03*
X20555000Y34652000D03*
D11*
X14525000Y28810000D03*
X16425000Y28810000D03*
D20*
X3214000Y18198000D03*
X7786000Y18198000D03*
X5500000Y18198000D03*
D21*
X5500000Y24802000D03*
D18*
X46590000Y26270000D03*
X8490000Y2140000D03*
M02*
