%TF.GenerationSoftware,KiCad,Pcbnew,(5.1.0)-1*%
%TF.CreationDate,2019-04-02T22:12:56+01:00*%
%TF.ProjectId,uDSP-1.1,75445350-2d31-42e3-912e-6b696361645f,1.1*%
%TF.SameCoordinates,PX660b0c0PY81b3200*%
%TF.FileFunction,Legend,Bot*%
%TF.FilePolarity,Positive*%
%FSLAX46Y46*%
G04 Gerber Fmt 4.6, Leading zero omitted, Abs format (unit mm)*
G04 Created by KiCad (PCBNEW (5.1.0)-1) date 2019-04-02 22:12:56*
%MOMM*%
%LPD*%
G04 APERTURE LIST*
%ADD10C,0.200000*%
%ADD11C,0.150000*%
%ADD12C,0.300000*%
%ADD13C,0.100000*%
G04 APERTURE END LIST*
D10*
X7173000Y27859500D02*
X6157000Y27796000D01*
X11300500Y26272000D02*
X10665500Y26145000D01*
D11*
X27211428Y5422858D02*
X27211428Y5051429D01*
X27440000Y5251429D01*
X27440000Y5165715D01*
X27468571Y5108572D01*
X27497142Y5080000D01*
X27554285Y5051429D01*
X27697142Y5051429D01*
X27754285Y5080000D01*
X27782857Y5108572D01*
X27811428Y5165715D01*
X27811428Y5337143D01*
X27782857Y5394286D01*
X27754285Y5422858D01*
X27211428Y4880000D02*
X27811428Y4680000D01*
X27211428Y4480000D01*
X27211428Y4337143D02*
X27211428Y3965715D01*
X27440000Y4165715D01*
X27440000Y4080000D01*
X27468571Y4022858D01*
X27497142Y3994286D01*
X27554285Y3965715D01*
X27697142Y3965715D01*
X27754285Y3994286D01*
X27782857Y4022858D01*
X27811428Y4080000D01*
X27811428Y4251429D01*
X27782857Y4308572D01*
X27754285Y4337143D01*
D10*
X2775000Y28937000D02*
X2267000Y28937000D01*
X2267000Y41383000D02*
X2267000Y40494000D01*
X27387619Y7899429D02*
X27387619Y7366096D01*
X27578095Y8204191D02*
X27768571Y7632762D01*
X27273333Y7632762D01*
X24809523Y8166096D02*
X25190476Y8166096D01*
X25228571Y7785143D01*
X25190476Y7823239D01*
X25114285Y7861334D01*
X24923809Y7861334D01*
X24847619Y7823239D01*
X24809523Y7785143D01*
X24771428Y7708953D01*
X24771428Y7518477D01*
X24809523Y7442286D01*
X24847619Y7404191D01*
X24923809Y7366096D01*
X25114285Y7366096D01*
X25190476Y7404191D01*
X25228571Y7442286D01*
X22434619Y8166096D02*
X22587000Y8166096D01*
X22663190Y8128000D01*
X22701285Y8089905D01*
X22777476Y7975620D01*
X22815571Y7823239D01*
X22815571Y7518477D01*
X22777476Y7442286D01*
X22739380Y7404191D01*
X22663190Y7366096D01*
X22510809Y7366096D01*
X22434619Y7404191D01*
X22396523Y7442286D01*
X22358428Y7518477D01*
X22358428Y7708953D01*
X22396523Y7785143D01*
X22434619Y7823239D01*
X22510809Y7861334D01*
X22663190Y7861334D01*
X22739380Y7823239D01*
X22777476Y7785143D01*
X22815571Y7708953D01*
X22333000Y13443000D02*
X21952000Y13443000D01*
X21551904Y8134429D02*
X21551904Y8591572D01*
X21551904Y8363000D02*
X20751904Y8363000D01*
X20866190Y8439191D01*
X20942380Y8515381D01*
X20980476Y8591572D01*
X20828095Y11258572D02*
X20790000Y11220477D01*
X20751904Y11144286D01*
X20751904Y10953810D01*
X20790000Y10877620D01*
X20828095Y10839524D01*
X20904285Y10801429D01*
X20980476Y10801429D01*
X21094761Y10839524D01*
X21551904Y11296667D01*
X21551904Y10801429D01*
X20751904Y13836667D02*
X20751904Y13341429D01*
X21056666Y13608096D01*
X21056666Y13493810D01*
X21094761Y13417620D01*
X21132857Y13379524D01*
X21209047Y13341429D01*
X21399523Y13341429D01*
X21475714Y13379524D01*
X21513809Y13417620D01*
X21551904Y13493810D01*
X21551904Y13722381D01*
X21513809Y13798572D01*
X21475714Y13836667D01*
X22333000Y13443000D02*
X22333000Y9633000D01*
X42653000Y997000D02*
X41764000Y997000D01*
X25000000Y997000D02*
X27032000Y997000D01*
X38842714Y8801143D02*
X38576047Y8801143D01*
X38461761Y8382096D02*
X38842714Y8382096D01*
X38842714Y9182096D01*
X38461761Y9182096D01*
X38195095Y9182096D02*
X37661761Y8382096D01*
X37661761Y9182096D02*
X38195095Y8382096D01*
X37471285Y9182096D02*
X37014142Y9182096D01*
X37242714Y8382096D02*
X37242714Y9182096D01*
X35680809Y8458286D02*
X35718904Y8420191D01*
X35833190Y8382096D01*
X35909380Y8382096D01*
X36023666Y8420191D01*
X36099857Y8496381D01*
X36137952Y8572572D01*
X36176047Y8724953D01*
X36176047Y8839239D01*
X36137952Y8991620D01*
X36099857Y9067810D01*
X36023666Y9144000D01*
X35909380Y9182096D01*
X35833190Y9182096D01*
X35718904Y9144000D01*
X35680809Y9105905D01*
X34957000Y8382096D02*
X35337952Y8382096D01*
X35337952Y9182096D01*
X34690333Y8382096D02*
X34690333Y9182096D01*
X34233190Y8382096D02*
X34576047Y8839239D01*
X34233190Y9182096D02*
X34690333Y8724953D01*
X41338190Y292191D02*
X41223904Y254096D01*
X41033428Y254096D01*
X40957238Y292191D01*
X40919142Y330286D01*
X40881047Y406477D01*
X40881047Y482667D01*
X40919142Y558858D01*
X40957238Y596953D01*
X41033428Y635048D01*
X41185809Y673143D01*
X41262000Y711239D01*
X41300095Y749334D01*
X41338190Y825524D01*
X41338190Y901715D01*
X41300095Y977905D01*
X41262000Y1016000D01*
X41185809Y1054096D01*
X40995333Y1054096D01*
X40881047Y1016000D01*
X40157238Y254096D02*
X40538190Y254096D01*
X40538190Y1054096D01*
X39928666Y482667D02*
X39547714Y482667D01*
X40004857Y254096D02*
X39738190Y1054096D01*
X39471523Y254096D01*
X39319142Y1054096D02*
X39052476Y254096D01*
X38785809Y1054096D01*
X38519142Y673143D02*
X38252476Y673143D01*
X38138190Y254096D02*
X38519142Y254096D01*
X38519142Y1054096D01*
X38138190Y1054096D01*
X37223904Y292191D02*
X37109619Y254096D01*
X36919142Y254096D01*
X36842952Y292191D01*
X36804857Y330286D01*
X36766761Y406477D01*
X36766761Y482667D01*
X36804857Y558858D01*
X36842952Y596953D01*
X36919142Y635048D01*
X37071523Y673143D01*
X37147714Y711239D01*
X37185809Y749334D01*
X37223904Y825524D01*
X37223904Y901715D01*
X37185809Y977905D01*
X37147714Y1016000D01*
X37071523Y1054096D01*
X36881047Y1054096D01*
X36766761Y1016000D01*
X36423904Y254096D02*
X36423904Y1054096D01*
X36119142Y1054096D01*
X36042952Y1016000D01*
X36004857Y977905D01*
X35966761Y901715D01*
X35966761Y787429D01*
X36004857Y711239D01*
X36042952Y673143D01*
X36119142Y635048D01*
X36423904Y635048D01*
X35623904Y254096D02*
X35623904Y1054096D01*
X34810333Y254096D02*
X34810333Y1054096D01*
X34543666Y482667D01*
X34277000Y1054096D01*
X34277000Y254096D01*
X33934142Y482667D02*
X33553190Y482667D01*
X34010333Y254096D02*
X33743666Y1054096D01*
X33477000Y254096D01*
X33248428Y292191D02*
X33134142Y254096D01*
X32943666Y254096D01*
X32867476Y292191D01*
X32829380Y330286D01*
X32791285Y406477D01*
X32791285Y482667D01*
X32829380Y558858D01*
X32867476Y596953D01*
X32943666Y635048D01*
X33096047Y673143D01*
X33172238Y711239D01*
X33210333Y749334D01*
X33248428Y825524D01*
X33248428Y901715D01*
X33210333Y977905D01*
X33172238Y1016000D01*
X33096047Y1054096D01*
X32905571Y1054096D01*
X32791285Y1016000D01*
X32562714Y1054096D02*
X32105571Y1054096D01*
X32334142Y254096D02*
X32334142Y1054096D01*
X31838904Y673143D02*
X31572238Y673143D01*
X31457952Y254096D02*
X31838904Y254096D01*
X31838904Y1054096D01*
X31457952Y1054096D01*
X30657952Y254096D02*
X30924619Y635048D01*
X31115095Y254096D02*
X31115095Y1054096D01*
X30810333Y1054096D01*
X30734142Y1016000D01*
X30696047Y977905D01*
X30657952Y901715D01*
X30657952Y787429D01*
X30696047Y711239D01*
X30734142Y673143D01*
X30810333Y635048D01*
X31115095Y635048D01*
X29743666Y292191D02*
X29629380Y254096D01*
X29438904Y254096D01*
X29362714Y292191D01*
X29324619Y330286D01*
X29286523Y406477D01*
X29286523Y482667D01*
X29324619Y558858D01*
X29362714Y596953D01*
X29438904Y635048D01*
X29591285Y673143D01*
X29667476Y711239D01*
X29705571Y749334D01*
X29743666Y825524D01*
X29743666Y901715D01*
X29705571Y977905D01*
X29667476Y1016000D01*
X29591285Y1054096D01*
X29400809Y1054096D01*
X29286523Y1016000D01*
X28943666Y254096D02*
X28943666Y1054096D01*
X28638904Y1054096D01*
X28562714Y1016000D01*
X28524619Y977905D01*
X28486523Y901715D01*
X28486523Y787429D01*
X28524619Y711239D01*
X28562714Y673143D01*
X28638904Y635048D01*
X28943666Y635048D01*
X28143666Y254096D02*
X28143666Y1054096D01*
X24295095Y254096D02*
X24561761Y635048D01*
X24752238Y254096D02*
X24752238Y1054096D01*
X24447476Y1054096D01*
X24371285Y1016000D01*
X24333190Y977905D01*
X24295095Y901715D01*
X24295095Y787429D01*
X24333190Y711239D01*
X24371285Y673143D01*
X24447476Y635048D01*
X24752238Y635048D01*
X23990333Y292191D02*
X23876047Y254096D01*
X23685571Y254096D01*
X23609380Y292191D01*
X23571285Y330286D01*
X23533190Y406477D01*
X23533190Y482667D01*
X23571285Y558858D01*
X23609380Y596953D01*
X23685571Y635048D01*
X23837952Y673143D01*
X23914142Y711239D01*
X23952238Y749334D01*
X23990333Y825524D01*
X23990333Y901715D01*
X23952238Y977905D01*
X23914142Y1016000D01*
X23837952Y1054096D01*
X23647476Y1054096D01*
X23533190Y1016000D01*
X23304619Y1054096D02*
X22847476Y1054096D01*
X23076047Y254096D02*
X23076047Y1054096D01*
X35160000Y997000D02*
X35160000Y5950000D01*
X25000000Y5950000D02*
X25000000Y997000D01*
X30080000Y8363000D02*
X30080000Y5950000D01*
X40113000Y8363000D02*
X40113000Y5950000D01*
X30080000Y8363000D02*
X33763000Y8363000D01*
X30080000Y8363000D02*
X27921000Y8363000D01*
X42653000Y5950000D02*
X42653000Y997000D01*
X20047000Y5950000D02*
X42653000Y5950000D01*
X20301000Y13443000D02*
X20047000Y13443000D01*
X22460000Y997000D02*
X22460000Y5950000D01*
X21571000Y997000D02*
X22460000Y997000D01*
X20047000Y13443000D02*
X20047000Y1378000D01*
X42907000Y28937000D02*
X42907000Y41383000D01*
X45320000Y28937000D02*
X42907000Y28937000D01*
X47733000Y28937000D02*
X47733000Y30588000D01*
X45320000Y28937000D02*
X47733000Y28937000D01*
X45320000Y41383000D02*
X45320000Y28937000D01*
X42907000Y41383000D02*
X47733000Y41383000D01*
X4680000Y41383000D02*
X2267000Y41383000D01*
X4680000Y41383000D02*
X4680000Y29445000D01*
X7093000Y41383000D02*
X4680000Y41383000D01*
X7093000Y28937000D02*
X7093000Y41383000D01*
X7347000Y44177000D02*
X7347000Y46590000D01*
X19793000Y44177000D02*
X7347000Y44177000D01*
X19793000Y46590000D02*
X19793000Y44177000D01*
X16745000Y49003000D02*
X19412000Y49003000D01*
X19793000Y46590000D02*
X19793000Y47352000D01*
X7347000Y46590000D02*
X19793000Y46590000D01*
X7347000Y49003000D02*
X7347000Y46590000D01*
X12427000Y49003000D02*
X7347000Y49003000D01*
X42653000Y44177000D02*
X31874500Y44179000D01*
X42653000Y46590000D02*
X42653000Y44177000D01*
X30207000Y44177000D02*
X31858000Y44177000D01*
X30207000Y46590000D02*
X30207000Y44177000D01*
X35287000Y49003000D02*
X30207000Y49003000D01*
X42653000Y49003000D02*
X39605000Y49003000D01*
X42653000Y46590000D02*
X42653000Y49003000D01*
X30207000Y46590000D02*
X42653000Y46590000D01*
X30207000Y49003000D02*
X30207000Y46590000D01*
X22587000Y44177000D02*
X23984000Y44177000D01*
X23603000Y49003000D02*
X22841000Y49003000D01*
X29953000Y49003000D02*
X29318000Y49003000D01*
X29953000Y46590000D02*
X29953000Y44177000D01*
X22587000Y46590000D02*
X22587000Y44177000D01*
X22587000Y46590000D02*
X22587000Y48241000D01*
X29953000Y46590000D02*
X29953000Y49003000D01*
X22587000Y46590000D02*
X29953000Y46590000D01*
X21196000Y292191D02*
X21081714Y254096D01*
X20891238Y254096D01*
X20815047Y292191D01*
X20776952Y330286D01*
X20738857Y406477D01*
X20738857Y482667D01*
X20776952Y558858D01*
X20815047Y596953D01*
X20891238Y635048D01*
X21043619Y673143D01*
X21119809Y711239D01*
X21157904Y749334D01*
X21196000Y825524D01*
X21196000Y901715D01*
X21157904Y977905D01*
X21119809Y1016000D01*
X21043619Y1054096D01*
X20853142Y1054096D01*
X20738857Y1016000D01*
X20396000Y673143D02*
X20129333Y673143D01*
X20015047Y254096D02*
X20396000Y254096D01*
X20396000Y1054096D01*
X20015047Y1054096D01*
X19291238Y254096D02*
X19672190Y254096D01*
X19672190Y1054096D01*
X18757904Y673143D02*
X19024571Y673143D01*
X19024571Y254096D02*
X19024571Y1054096D01*
X18643619Y1054096D01*
X18072190Y673143D02*
X17957904Y635048D01*
X17919809Y596953D01*
X17881714Y520762D01*
X17881714Y406477D01*
X17919809Y330286D01*
X17957904Y292191D01*
X18034095Y254096D01*
X18338857Y254096D01*
X18338857Y1054096D01*
X18072190Y1054096D01*
X17996000Y1016000D01*
X17957904Y977905D01*
X17919809Y901715D01*
X17919809Y825524D01*
X17957904Y749334D01*
X17996000Y711239D01*
X18072190Y673143D01*
X18338857Y673143D01*
X17386476Y1054096D02*
X17234095Y1054096D01*
X17157904Y1016000D01*
X17081714Y939810D01*
X17043619Y787429D01*
X17043619Y520762D01*
X17081714Y368381D01*
X17157904Y292191D01*
X17234095Y254096D01*
X17386476Y254096D01*
X17462666Y292191D01*
X17538857Y368381D01*
X17576952Y520762D01*
X17576952Y787429D01*
X17538857Y939810D01*
X17462666Y1016000D01*
X17386476Y1054096D01*
X16548380Y1054096D02*
X16396000Y1054096D01*
X16319809Y1016000D01*
X16243619Y939810D01*
X16205523Y787429D01*
X16205523Y520762D01*
X16243619Y368381D01*
X16319809Y292191D01*
X16396000Y254096D01*
X16548380Y254096D01*
X16624571Y292191D01*
X16700761Y368381D01*
X16738857Y520762D01*
X16738857Y787429D01*
X16700761Y939810D01*
X16624571Y1016000D01*
X16548380Y1054096D01*
X15976952Y1054096D02*
X15519809Y1054096D01*
X15748380Y254096D02*
X15748380Y1054096D01*
X24339476Y8610667D02*
X23958523Y8610667D01*
X24415666Y8382096D02*
X24149000Y9182096D01*
X23882333Y8382096D01*
X23615666Y9182096D02*
X23615666Y8534477D01*
X23577571Y8458286D01*
X23539476Y8420191D01*
X23463285Y8382096D01*
X23310904Y8382096D01*
X23234714Y8420191D01*
X23196619Y8458286D01*
X23158523Y8534477D01*
X23158523Y9182096D01*
X22853761Y9182096D02*
X22320428Y8382096D01*
X22320428Y9182096D02*
X22853761Y8382096D01*
X4153238Y28323096D02*
X3734190Y28856429D01*
X4153238Y28856429D02*
X3734190Y28323096D01*
X3467523Y29046905D02*
X3429428Y29085000D01*
X3353238Y29123096D01*
X3162761Y29123096D01*
X3086571Y29085000D01*
X3048476Y29046905D01*
X3010380Y28970715D01*
X3010380Y28894524D01*
X3048476Y28780239D01*
X3505619Y28323096D01*
X3010380Y28323096D01*
X48180285Y41656096D02*
X48180285Y42456096D01*
X47837428Y42379905D02*
X47799333Y42418000D01*
X47723142Y42456096D01*
X47532666Y42456096D01*
X47456476Y42418000D01*
X47418380Y42379905D01*
X47380285Y42303715D01*
X47380285Y42227524D01*
X47418380Y42113239D01*
X47875523Y41656096D01*
X47380285Y41656096D01*
X47075523Y41694191D02*
X46961238Y41656096D01*
X46770761Y41656096D01*
X46694571Y41694191D01*
X46656476Y41732286D01*
X46618380Y41808477D01*
X46618380Y41884667D01*
X46656476Y41960858D01*
X46694571Y41998953D01*
X46770761Y42037048D01*
X46923142Y42075143D01*
X46999333Y42113239D01*
X47037428Y42151334D01*
X47075523Y42227524D01*
X47075523Y42303715D01*
X47037428Y42379905D01*
X46999333Y42418000D01*
X46923142Y42456096D01*
X46732666Y42456096D01*
X46618380Y42418000D01*
X46237238Y41656096D02*
X45818190Y42189429D01*
X46237238Y42189429D02*
X45818190Y41656096D01*
X45551523Y42379905D02*
X45513428Y42418000D01*
X45437238Y42456096D01*
X45246761Y42456096D01*
X45170571Y42418000D01*
X45132476Y42379905D01*
X45094380Y42303715D01*
X45094380Y42227524D01*
X45132476Y42113239D01*
X45589619Y41656096D01*
X45094380Y41656096D01*
X29688619Y43599191D02*
X29574333Y43561096D01*
X29383857Y43561096D01*
X29307666Y43599191D01*
X29269571Y43637286D01*
X29231476Y43713477D01*
X29231476Y43789667D01*
X29269571Y43865858D01*
X29307666Y43903953D01*
X29383857Y43942048D01*
X29536238Y43980143D01*
X29612428Y44018239D01*
X29650523Y44056334D01*
X29688619Y44132524D01*
X29688619Y44208715D01*
X29650523Y44284905D01*
X29612428Y44323000D01*
X29536238Y44361096D01*
X29345761Y44361096D01*
X29231476Y44323000D01*
X28888619Y43561096D02*
X28888619Y44361096D01*
X28583857Y44361096D01*
X28507666Y44323000D01*
X28469571Y44284905D01*
X28431476Y44208715D01*
X28431476Y44094429D01*
X28469571Y44018239D01*
X28507666Y43980143D01*
X28583857Y43942048D01*
X28888619Y43942048D01*
X28088619Y43561096D02*
X28088619Y44361096D01*
X27898142Y44361096D01*
X27783857Y44323000D01*
X27707666Y44246810D01*
X27669571Y44170620D01*
X27631476Y44018239D01*
X27631476Y43903953D01*
X27669571Y43751572D01*
X27707666Y43675381D01*
X27783857Y43599191D01*
X27898142Y43561096D01*
X28088619Y43561096D01*
X27288619Y43561096D02*
X27288619Y44361096D01*
X26641000Y43980143D02*
X26907666Y43980143D01*
X26907666Y43561096D02*
X26907666Y44361096D01*
X26526714Y44361096D01*
X25155285Y43561096D02*
X25421952Y43942048D01*
X25612428Y43561096D02*
X25612428Y44361096D01*
X25307666Y44361096D01*
X25231476Y44323000D01*
X25193380Y44284905D01*
X25155285Y44208715D01*
X25155285Y44094429D01*
X25193380Y44018239D01*
X25231476Y43980143D01*
X25307666Y43942048D01*
X25612428Y43942048D01*
X24888619Y44361096D02*
X24355285Y43561096D01*
X24355285Y44361096D02*
X24888619Y43561096D01*
X6223285Y28323096D02*
X6223285Y29123096D01*
X5880428Y29046905D02*
X5842333Y29085000D01*
X5766142Y29123096D01*
X5575666Y29123096D01*
X5499476Y29085000D01*
X5461380Y29046905D01*
X5423285Y28970715D01*
X5423285Y28894524D01*
X5461380Y28780239D01*
X5918523Y28323096D01*
X5423285Y28323096D01*
X5118523Y28361191D02*
X5004238Y28323096D01*
X4813761Y28323096D01*
X4737571Y28361191D01*
X4699476Y28399286D01*
X4661380Y28475477D01*
X4661380Y28551667D01*
X4699476Y28627858D01*
X4737571Y28665953D01*
X4813761Y28704048D01*
X4966142Y28742143D01*
X5042333Y28780239D01*
X5080428Y28818334D01*
X5118523Y28894524D01*
X5118523Y28970715D01*
X5080428Y29046905D01*
X5042333Y29085000D01*
X4966142Y29123096D01*
X4775666Y29123096D01*
X4661380Y29085000D01*
X16417333Y49022096D02*
X16417333Y49822096D01*
X16074476Y49745905D02*
X16036380Y49784000D01*
X15960190Y49822096D01*
X15769714Y49822096D01*
X15693523Y49784000D01*
X15655428Y49745905D01*
X15617333Y49669715D01*
X15617333Y49593524D01*
X15655428Y49479239D01*
X16112571Y49022096D01*
X15617333Y49022096D01*
X15312571Y49060191D02*
X15198285Y49022096D01*
X15007809Y49022096D01*
X14931619Y49060191D01*
X14893523Y49098286D01*
X14855428Y49174477D01*
X14855428Y49250667D01*
X14893523Y49326858D01*
X14931619Y49364953D01*
X15007809Y49403048D01*
X15160190Y49441143D01*
X15236380Y49479239D01*
X15274476Y49517334D01*
X15312571Y49593524D01*
X15312571Y49669715D01*
X15274476Y49745905D01*
X15236380Y49784000D01*
X15160190Y49822096D01*
X14969714Y49822096D01*
X14855428Y49784000D01*
X13979238Y49022096D02*
X13560190Y49555429D01*
X13979238Y49555429D02*
X13560190Y49022096D01*
X13293523Y49745905D02*
X13255428Y49784000D01*
X13179238Y49822096D01*
X12988761Y49822096D01*
X12912571Y49784000D01*
X12874476Y49745905D01*
X12836380Y49669715D01*
X12836380Y49593524D01*
X12874476Y49479239D01*
X13331619Y49022096D01*
X12836380Y49022096D01*
X39277333Y49022096D02*
X39277333Y49822096D01*
X38934476Y49745905D02*
X38896380Y49784000D01*
X38820190Y49822096D01*
X38629714Y49822096D01*
X38553523Y49784000D01*
X38515428Y49745905D01*
X38477333Y49669715D01*
X38477333Y49593524D01*
X38515428Y49479239D01*
X38972571Y49022096D01*
X38477333Y49022096D01*
X38172571Y49060191D02*
X38058285Y49022096D01*
X37867809Y49022096D01*
X37791619Y49060191D01*
X37753523Y49098286D01*
X37715428Y49174477D01*
X37715428Y49250667D01*
X37753523Y49326858D01*
X37791619Y49364953D01*
X37867809Y49403048D01*
X38020190Y49441143D01*
X38096380Y49479239D01*
X38134476Y49517334D01*
X38172571Y49593524D01*
X38172571Y49669715D01*
X38134476Y49745905D01*
X38096380Y49784000D01*
X38020190Y49822096D01*
X37829714Y49822096D01*
X37715428Y49784000D01*
X36839238Y49022096D02*
X36420190Y49555429D01*
X36839238Y49555429D02*
X36420190Y49022096D01*
X36153523Y49745905D02*
X36115428Y49784000D01*
X36039238Y49822096D01*
X35848761Y49822096D01*
X35772571Y49784000D01*
X35734476Y49745905D01*
X35696380Y49669715D01*
X35696380Y49593524D01*
X35734476Y49479239D01*
X36191619Y49022096D01*
X35696380Y49022096D01*
X28547619Y25295620D02*
X27976190Y25295620D01*
X28261904Y24295620D02*
X28261904Y25295620D01*
X27690476Y24581334D02*
X27214285Y24581334D01*
X27785714Y24295620D02*
X27452380Y25295620D01*
X27119047Y24295620D01*
X26785714Y24295620D02*
X26785714Y25295620D01*
X26404761Y25295620D01*
X26309523Y25248000D01*
X26261904Y25200381D01*
X26214285Y25105143D01*
X26214285Y24962286D01*
X26261904Y24867048D01*
X26309523Y24819429D01*
X26404761Y24771810D01*
X26785714Y24771810D01*
X25214285Y24295620D02*
X25547619Y24771810D01*
X25785714Y24295620D02*
X25785714Y25295620D01*
X25404761Y25295620D01*
X25309523Y25248000D01*
X25261904Y25200381D01*
X25214285Y25105143D01*
X25214285Y24962286D01*
X25261904Y24867048D01*
X25309523Y24819429D01*
X25404761Y24771810D01*
X25785714Y24771810D01*
X23833333Y25295620D02*
X23642857Y25295620D01*
X23547619Y25248000D01*
X23452380Y25152762D01*
X23404761Y24962286D01*
X23404761Y24628953D01*
X23452380Y24438477D01*
X23547619Y24343239D01*
X23642857Y24295620D01*
X23833333Y24295620D01*
X23928571Y24343239D01*
X24023809Y24438477D01*
X24071428Y24628953D01*
X24071428Y24962286D01*
X24023809Y25152762D01*
X23928571Y25248000D01*
X23833333Y25295620D01*
X22976190Y24295620D02*
X22976190Y25295620D01*
X22976190Y24819429D02*
X22404761Y24819429D01*
X22404761Y24295620D02*
X22404761Y25295620D01*
X21452380Y24295620D02*
X21928571Y24295620D01*
X21928571Y25295620D01*
X24745857Y26187429D02*
X24745857Y25654096D01*
X25088714Y26187429D02*
X25088714Y25768381D01*
X25050619Y25692191D01*
X24974428Y25654096D01*
X24860142Y25654096D01*
X24783952Y25692191D01*
X24745857Y25730286D01*
X24364904Y26187429D02*
X24364904Y25654096D01*
X24364904Y26111239D02*
X24326809Y26149334D01*
X24250619Y26187429D01*
X24136333Y26187429D01*
X24060142Y26149334D01*
X24022047Y26073143D01*
X24022047Y25654096D01*
X23298238Y25654096D02*
X23298238Y26454096D01*
X23298238Y25692191D02*
X23374428Y25654096D01*
X23526809Y25654096D01*
X23603000Y25692191D01*
X23641095Y25730286D01*
X23679190Y25806477D01*
X23679190Y26035048D01*
X23641095Y26111239D01*
X23603000Y26149334D01*
X23526809Y26187429D01*
X23374428Y26187429D01*
X23298238Y26149334D01*
X22612523Y25692191D02*
X22688714Y25654096D01*
X22841095Y25654096D01*
X22917285Y25692191D01*
X22955380Y25768381D01*
X22955380Y26073143D01*
X22917285Y26149334D01*
X22841095Y26187429D01*
X22688714Y26187429D01*
X22612523Y26149334D01*
X22574428Y26073143D01*
X22574428Y25996953D01*
X22955380Y25920762D01*
X22231571Y25654096D02*
X22231571Y26187429D01*
X22231571Y26035048D02*
X22193476Y26111239D01*
X22155380Y26149334D01*
X22079190Y26187429D01*
X22003000Y26187429D01*
X27498690Y34507929D02*
X27346309Y33974596D01*
X27193928Y34355548D01*
X27041547Y33974596D01*
X26889166Y34507929D01*
X26660595Y34507929D02*
X26508214Y33974596D01*
X26355833Y34355548D01*
X26203452Y33974596D01*
X26051071Y34507929D01*
X25822500Y34507929D02*
X25670119Y33974596D01*
X25517738Y34355548D01*
X25365357Y33974596D01*
X25212976Y34507929D01*
X24908214Y34050786D02*
X24870119Y34012691D01*
X24908214Y33974596D01*
X24946309Y34012691D01*
X24908214Y34050786D01*
X24908214Y33974596D01*
X24641547Y34507929D02*
X24336785Y34507929D01*
X24527261Y34774596D02*
X24527261Y34088881D01*
X24489166Y34012691D01*
X24412976Y33974596D01*
X24336785Y33974596D01*
X23727261Y33974596D02*
X23727261Y34393643D01*
X23765357Y34469834D01*
X23841547Y34507929D01*
X23993928Y34507929D01*
X24070119Y34469834D01*
X23727261Y34012691D02*
X23803452Y33974596D01*
X23993928Y33974596D01*
X24070119Y34012691D01*
X24108214Y34088881D01*
X24108214Y34165072D01*
X24070119Y34241262D01*
X23993928Y34279358D01*
X23803452Y34279358D01*
X23727261Y34317453D01*
X23346309Y34507929D02*
X23346309Y33707929D01*
X23346309Y34469834D02*
X23270119Y34507929D01*
X23117738Y34507929D01*
X23041547Y34469834D01*
X23003452Y34431739D01*
X22965357Y34355548D01*
X22965357Y34126977D01*
X23003452Y34050786D01*
X23041547Y34012691D01*
X23117738Y33974596D01*
X23270119Y33974596D01*
X23346309Y34012691D01*
X22622500Y33974596D02*
X22622500Y34507929D01*
X22622500Y34355548D02*
X22584404Y34431739D01*
X22546309Y34469834D01*
X22470119Y34507929D01*
X22393928Y34507929D01*
X22127261Y34050786D02*
X22089166Y34012691D01*
X22127261Y33974596D01*
X22165357Y34012691D01*
X22127261Y34050786D01*
X22127261Y33974596D01*
X21632023Y33974596D02*
X21708214Y34012691D01*
X21746309Y34050786D01*
X21784404Y34126977D01*
X21784404Y34355548D01*
X21746309Y34431739D01*
X21708214Y34469834D01*
X21632023Y34507929D01*
X21517738Y34507929D01*
X21441547Y34469834D01*
X21403452Y34431739D01*
X21365357Y34355548D01*
X21365357Y34126977D01*
X21403452Y34050786D01*
X21441547Y34012691D01*
X21517738Y33974596D01*
X21632023Y33974596D01*
X21022500Y33974596D02*
X21022500Y34507929D01*
X21022500Y34355548D02*
X20984404Y34431739D01*
X20946309Y34469834D01*
X20870119Y34507929D01*
X20793928Y34507929D01*
X20184404Y34507929D02*
X20184404Y33860310D01*
X20222500Y33784120D01*
X20260595Y33746024D01*
X20336785Y33707929D01*
X20451071Y33707929D01*
X20527261Y33746024D01*
X20184404Y34012691D02*
X20260595Y33974596D01*
X20412976Y33974596D01*
X20489166Y34012691D01*
X20527261Y34050786D01*
X20565357Y34126977D01*
X20565357Y34355548D01*
X20527261Y34431739D01*
X20489166Y34469834D01*
X20412976Y34507929D01*
X20260595Y34507929D01*
X20184404Y34469834D01*
X19232023Y34812691D02*
X19917738Y33784120D01*
X18812976Y34774596D02*
X18660595Y34774596D01*
X18584404Y34736500D01*
X18508214Y34660310D01*
X18470119Y34507929D01*
X18470119Y34241262D01*
X18508214Y34088881D01*
X18584404Y34012691D01*
X18660595Y33974596D01*
X18812976Y33974596D01*
X18889166Y34012691D01*
X18965357Y34088881D01*
X19003452Y34241262D01*
X19003452Y34507929D01*
X18965357Y34660310D01*
X18889166Y34736500D01*
X18812976Y34774596D01*
X18127261Y33974596D02*
X18127261Y34774596D01*
X18127261Y34393643D02*
X17670119Y34393643D01*
X17670119Y33974596D02*
X17670119Y34774596D01*
X16908214Y33974596D02*
X17289166Y33974596D01*
X17289166Y34774596D01*
X48947428Y35247429D02*
X48899809Y35390286D01*
X48852190Y35437905D01*
X48756952Y35485524D01*
X48614095Y35485524D01*
X48518857Y35437905D01*
X48471238Y35390286D01*
X48423619Y35295048D01*
X48423619Y34914096D01*
X49423619Y34914096D01*
X49423619Y35247429D01*
X49376000Y35342667D01*
X49328380Y35390286D01*
X49233142Y35437905D01*
X49137904Y35437905D01*
X49042666Y35390286D01*
X48995047Y35342667D01*
X48947428Y35247429D01*
X48947428Y34914096D01*
X48518857Y36485524D02*
X48471238Y36437905D01*
X48423619Y36295048D01*
X48423619Y36199810D01*
X48471238Y36056953D01*
X48566476Y35961715D01*
X48661714Y35914096D01*
X48852190Y35866477D01*
X48995047Y35866477D01*
X49185523Y35914096D01*
X49280761Y35961715D01*
X49376000Y36056953D01*
X49423619Y36199810D01*
X49423619Y36295048D01*
X49376000Y36437905D01*
X49328380Y36485524D01*
X48423619Y36914096D02*
X49423619Y36914096D01*
X48423619Y37485524D02*
X48995047Y37056953D01*
X49423619Y37485524D02*
X48852190Y36914096D01*
X48423619Y27452905D02*
X49423619Y27452905D01*
X48709333Y27786239D01*
X49423619Y28119572D01*
X48423619Y28119572D01*
X48518857Y29167191D02*
X48471238Y29119572D01*
X48423619Y28976715D01*
X48423619Y28881477D01*
X48471238Y28738620D01*
X48566476Y28643381D01*
X48661714Y28595762D01*
X48852190Y28548143D01*
X48995047Y28548143D01*
X49185523Y28595762D01*
X49280761Y28643381D01*
X49376000Y28738620D01*
X49423619Y28881477D01*
X49423619Y28976715D01*
X49376000Y29119572D01*
X49328380Y29167191D01*
X48423619Y30071953D02*
X48423619Y29595762D01*
X49423619Y29595762D01*
X48423619Y30405286D02*
X49423619Y30405286D01*
X48423619Y30976715D02*
X48995047Y30548143D01*
X49423619Y30976715D02*
X48852190Y30405286D01*
X49630000Y41764096D02*
X49677619Y41668858D01*
X49677619Y41526000D01*
X49630000Y41383143D01*
X49534761Y41287905D01*
X49439523Y41240286D01*
X49249047Y41192667D01*
X49106190Y41192667D01*
X48915714Y41240286D01*
X48820476Y41287905D01*
X48725238Y41383143D01*
X48677619Y41526000D01*
X48677619Y41621239D01*
X48725238Y41764096D01*
X48772857Y41811715D01*
X49106190Y41811715D01*
X49106190Y41621239D01*
X48677619Y42240286D02*
X49677619Y42240286D01*
X48677619Y42811715D01*
X49677619Y42811715D01*
X48677619Y43287905D02*
X49677619Y43287905D01*
X49677619Y43526000D01*
X49630000Y43668858D01*
X49534761Y43764096D01*
X49439523Y43811715D01*
X49249047Y43859334D01*
X49106190Y43859334D01*
X48915714Y43811715D01*
X48820476Y43764096D01*
X48725238Y43668858D01*
X48677619Y43526000D01*
X48677619Y43287905D01*
X47788619Y31683524D02*
X47788619Y31207334D01*
X48788619Y31207334D01*
X47788619Y32588286D02*
X48264809Y32254953D01*
X47788619Y32016858D02*
X48788619Y32016858D01*
X48788619Y32397810D01*
X48741000Y32493048D01*
X48693380Y32540667D01*
X48598142Y32588286D01*
X48455285Y32588286D01*
X48360047Y32540667D01*
X48312428Y32493048D01*
X48264809Y32397810D01*
X48264809Y32016858D01*
X47883857Y33588286D02*
X47836238Y33540667D01*
X47788619Y33397810D01*
X47788619Y33302572D01*
X47836238Y33159715D01*
X47931476Y33064477D01*
X48026714Y33016858D01*
X48217190Y32969239D01*
X48360047Y32969239D01*
X48550523Y33016858D01*
X48645761Y33064477D01*
X48741000Y33159715D01*
X48788619Y33302572D01*
X48788619Y33397810D01*
X48741000Y33540667D01*
X48693380Y33588286D01*
X47788619Y34016858D02*
X48788619Y34016858D01*
X47788619Y34588286D02*
X48360047Y34159715D01*
X48788619Y34588286D02*
X48217190Y34016858D01*
X47788619Y37851000D02*
X48788619Y37851000D01*
X48788619Y38089096D01*
X48741000Y38231953D01*
X48645761Y38327191D01*
X48550523Y38374810D01*
X48360047Y38422429D01*
X48217190Y38422429D01*
X48026714Y38374810D01*
X47931476Y38327191D01*
X47836238Y38231953D01*
X47788619Y38089096D01*
X47788619Y37851000D01*
X48074333Y38803381D02*
X48074333Y39279572D01*
X47788619Y38708143D02*
X48788619Y39041477D01*
X47788619Y39374810D01*
X48788619Y39565286D02*
X48788619Y40136715D01*
X47788619Y39851000D02*
X48788619Y39851000D01*
X48074333Y40422429D02*
X48074333Y40898620D01*
X47788619Y40327191D02*
X48788619Y40660524D01*
X47788619Y40993858D01*
X243000Y29571905D02*
X195380Y29667143D01*
X195380Y29810000D01*
X243000Y29952858D01*
X338238Y30048096D01*
X433476Y30095715D01*
X623952Y30143334D01*
X766809Y30143334D01*
X957285Y30095715D01*
X1052523Y30048096D01*
X1147761Y29952858D01*
X1195380Y29810000D01*
X1195380Y29714762D01*
X1147761Y29571905D01*
X1100142Y29524286D01*
X766809Y29524286D01*
X766809Y29714762D01*
X1195380Y29095715D02*
X195380Y29095715D01*
X1195380Y28524286D01*
X195380Y28524286D01*
X1195380Y28048096D02*
X195380Y28048096D01*
X195380Y27810000D01*
X243000Y27667143D01*
X338238Y27571905D01*
X433476Y27524286D01*
X623952Y27476667D01*
X766809Y27476667D01*
X957285Y27524286D01*
X1052523Y27571905D01*
X1147761Y27667143D01*
X1195380Y27810000D01*
X1195380Y28048096D01*
X2084380Y33485000D02*
X1084380Y33485000D01*
X1084380Y33246905D01*
X1132000Y33104048D01*
X1227238Y33008810D01*
X1322476Y32961191D01*
X1512952Y32913572D01*
X1655809Y32913572D01*
X1846285Y32961191D01*
X1941523Y33008810D01*
X2036761Y33104048D01*
X2084380Y33246905D01*
X2084380Y33485000D01*
X1798666Y32532620D02*
X1798666Y32056429D01*
X2084380Y32627858D02*
X1084380Y32294524D01*
X2084380Y31961191D01*
X1084380Y31770715D02*
X1084380Y31199286D01*
X2084380Y31485000D02*
X1084380Y31485000D01*
X1798666Y30913572D02*
X1798666Y30437381D01*
X2084380Y31008810D02*
X1084380Y30675477D01*
X2084380Y30342143D01*
X925571Y36088572D02*
X973190Y35945715D01*
X1020809Y35898096D01*
X1116047Y35850477D01*
X1258904Y35850477D01*
X1354142Y35898096D01*
X1401761Y35945715D01*
X1449380Y36040953D01*
X1449380Y36421905D01*
X449380Y36421905D01*
X449380Y36088572D01*
X497000Y35993334D01*
X544619Y35945715D01*
X639857Y35898096D01*
X735095Y35898096D01*
X830333Y35945715D01*
X877952Y35993334D01*
X925571Y36088572D01*
X925571Y36421905D01*
X1354142Y34850477D02*
X1401761Y34898096D01*
X1449380Y35040953D01*
X1449380Y35136191D01*
X1401761Y35279048D01*
X1306523Y35374286D01*
X1211285Y35421905D01*
X1020809Y35469524D01*
X877952Y35469524D01*
X687476Y35421905D01*
X592238Y35374286D01*
X497000Y35279048D01*
X449380Y35136191D01*
X449380Y35040953D01*
X497000Y34898096D01*
X544619Y34850477D01*
X1449380Y34421905D02*
X449380Y34421905D01*
X1449380Y33850477D02*
X877952Y34279048D01*
X449380Y33850477D02*
X1020809Y34421905D01*
X2084380Y39652477D02*
X2084380Y40128667D01*
X1084380Y40128667D01*
X2084380Y38747715D02*
X1608190Y39081048D01*
X2084380Y39319143D02*
X1084380Y39319143D01*
X1084380Y38938191D01*
X1132000Y38842953D01*
X1179619Y38795334D01*
X1274857Y38747715D01*
X1417714Y38747715D01*
X1512952Y38795334D01*
X1560571Y38842953D01*
X1608190Y38938191D01*
X1608190Y39319143D01*
X1989142Y37747715D02*
X2036761Y37795334D01*
X2084380Y37938191D01*
X2084380Y38033429D01*
X2036761Y38176286D01*
X1941523Y38271524D01*
X1846285Y38319143D01*
X1655809Y38366762D01*
X1512952Y38366762D01*
X1322476Y38319143D01*
X1227238Y38271524D01*
X1132000Y38176286D01*
X1084380Y38033429D01*
X1084380Y37938191D01*
X1132000Y37795334D01*
X1179619Y37747715D01*
X2084380Y37319143D02*
X1084380Y37319143D01*
X2084380Y36747715D02*
X1512952Y37176286D01*
X1084380Y36747715D02*
X1655809Y37319143D01*
X1449380Y43883096D02*
X449380Y43883096D01*
X1163666Y43549762D01*
X449380Y43216429D01*
X1449380Y43216429D01*
X1354142Y42168810D02*
X1401761Y42216429D01*
X1449380Y42359286D01*
X1449380Y42454524D01*
X1401761Y42597381D01*
X1306523Y42692620D01*
X1211285Y42740239D01*
X1020809Y42787858D01*
X877952Y42787858D01*
X687476Y42740239D01*
X592238Y42692620D01*
X497000Y42597381D01*
X449380Y42454524D01*
X449380Y42359286D01*
X497000Y42216429D01*
X544619Y42168810D01*
X1449380Y41264048D02*
X1449380Y41740239D01*
X449380Y41740239D01*
X1449380Y40930715D02*
X449380Y40930715D01*
X1449380Y40359286D02*
X877952Y40787858D01*
X449380Y40359286D02*
X1020809Y40930715D01*
D12*
X12331714Y2072429D02*
X13046000Y2072429D01*
X13117428Y1358143D01*
X13046000Y1429572D01*
X12903142Y1501000D01*
X12546000Y1501000D01*
X12403142Y1429572D01*
X12331714Y1358143D01*
X12260285Y1215286D01*
X12260285Y858143D01*
X12331714Y715286D01*
X12403142Y643858D01*
X12546000Y572429D01*
X12903142Y572429D01*
X13046000Y643858D01*
X13117428Y715286D01*
X11831714Y2072429D02*
X11331714Y572429D01*
X10831714Y2072429D01*
X9974571Y2882143D02*
X11117428Y2882143D01*
X12974571Y2882143D02*
X14117428Y2882143D01*
X13546000Y3453572D02*
X13546000Y2310715D01*
D10*
X28302000Y15348000D02*
X27540000Y15348000D01*
D13*
X0Y50000000D02*
X0Y0D01*
X50000000Y50000000D02*
X0Y50000000D01*
X50000000Y0D02*
X50000000Y50000000D01*
X0Y0D02*
X50000000Y0D01*
D10*
X28990142Y49060191D02*
X28875857Y49022096D01*
X28685380Y49022096D01*
X28609190Y49060191D01*
X28571095Y49098286D01*
X28533000Y49174477D01*
X28533000Y49250667D01*
X28571095Y49326858D01*
X28609190Y49364953D01*
X28685380Y49403048D01*
X28837761Y49441143D01*
X28913952Y49479239D01*
X28952047Y49517334D01*
X28990142Y49593524D01*
X28990142Y49669715D01*
X28952047Y49745905D01*
X28913952Y49784000D01*
X28837761Y49822096D01*
X28647285Y49822096D01*
X28533000Y49784000D01*
X28190142Y49022096D02*
X28190142Y49822096D01*
X27885380Y49822096D01*
X27809190Y49784000D01*
X27771095Y49745905D01*
X27733000Y49669715D01*
X27733000Y49555429D01*
X27771095Y49479239D01*
X27809190Y49441143D01*
X27885380Y49403048D01*
X28190142Y49403048D01*
X27390142Y49022096D02*
X27390142Y49822096D01*
X27199666Y49822096D01*
X27085380Y49784000D01*
X27009190Y49707810D01*
X26971095Y49631620D01*
X26933000Y49479239D01*
X26933000Y49364953D01*
X26971095Y49212572D01*
X27009190Y49136381D01*
X27085380Y49060191D01*
X27199666Y49022096D01*
X27390142Y49022096D01*
X26590142Y49022096D02*
X26590142Y49822096D01*
X25942523Y49441143D02*
X26209190Y49441143D01*
X26209190Y49022096D02*
X26209190Y49822096D01*
X25828238Y49822096D01*
X25028238Y49822096D02*
X24571095Y49822096D01*
X24799666Y49022096D02*
X24799666Y49822096D01*
X24380619Y49822096D02*
X23847285Y49022096D01*
X23847285Y49822096D02*
X24380619Y49022096D01*
X48082285Y6846477D02*
X48044190Y6808381D01*
X48006095Y6694096D01*
X48006095Y6617905D01*
X48044190Y6503620D01*
X48120380Y6427429D01*
X48196571Y6389334D01*
X48348952Y6351239D01*
X48463238Y6351239D01*
X48615619Y6389334D01*
X48691809Y6427429D01*
X48768000Y6503620D01*
X48806095Y6617905D01*
X48806095Y6694096D01*
X48768000Y6808381D01*
X48729904Y6846477D01*
X48006095Y7303620D02*
X48044190Y7227429D01*
X48082285Y7189334D01*
X48158476Y7151239D01*
X48387047Y7151239D01*
X48463238Y7189334D01*
X48501333Y7227429D01*
X48539428Y7303620D01*
X48539428Y7417905D01*
X48501333Y7494096D01*
X48463238Y7532191D01*
X48387047Y7570286D01*
X48158476Y7570286D01*
X48082285Y7532191D01*
X48044190Y7494096D01*
X48006095Y7417905D01*
X48006095Y7303620D01*
X48539428Y7913143D02*
X47739428Y7913143D01*
X48501333Y7913143D02*
X48539428Y7989334D01*
X48539428Y8141715D01*
X48501333Y8217905D01*
X48463238Y8256000D01*
X48387047Y8294096D01*
X48158476Y8294096D01*
X48082285Y8256000D01*
X48044190Y8217905D01*
X48006095Y8141715D01*
X48006095Y7989334D01*
X48044190Y7913143D01*
X48539428Y8560762D02*
X48006095Y8751239D01*
X48539428Y8941715D02*
X48006095Y8751239D01*
X47815619Y8675048D01*
X47777523Y8636953D01*
X47739428Y8560762D01*
X48006095Y9246477D02*
X48539428Y9246477D01*
X48387047Y9246477D02*
X48463238Y9284572D01*
X48501333Y9322667D01*
X48539428Y9398858D01*
X48539428Y9475048D01*
X48006095Y9741715D02*
X48539428Y9741715D01*
X48806095Y9741715D02*
X48768000Y9703620D01*
X48729904Y9741715D01*
X48768000Y9779810D01*
X48806095Y9741715D01*
X48729904Y9741715D01*
X48539428Y10465524D02*
X47891809Y10465524D01*
X47815619Y10427429D01*
X47777523Y10389334D01*
X47739428Y10313143D01*
X47739428Y10198858D01*
X47777523Y10122667D01*
X48044190Y10465524D02*
X48006095Y10389334D01*
X48006095Y10236953D01*
X48044190Y10160762D01*
X48082285Y10122667D01*
X48158476Y10084572D01*
X48387047Y10084572D01*
X48463238Y10122667D01*
X48501333Y10160762D01*
X48539428Y10236953D01*
X48539428Y10389334D01*
X48501333Y10465524D01*
X48006095Y10846477D02*
X48806095Y10846477D01*
X48006095Y11189334D02*
X48425142Y11189334D01*
X48501333Y11151239D01*
X48539428Y11075048D01*
X48539428Y10960762D01*
X48501333Y10884572D01*
X48463238Y10846477D01*
X48539428Y11456000D02*
X48539428Y11760762D01*
X48806095Y11570286D02*
X48120380Y11570286D01*
X48044190Y11608381D01*
X48006095Y11684572D01*
X48006095Y11760762D01*
X48615619Y13284572D02*
X48653714Y13208381D01*
X48653714Y13056000D01*
X48615619Y12979810D01*
X48539428Y12903620D01*
X48463238Y12865524D01*
X48310857Y12865524D01*
X48234666Y12903620D01*
X48158476Y12979810D01*
X48120380Y13056000D01*
X48120380Y13208381D01*
X48158476Y13284572D01*
X48920380Y13132191D02*
X48882285Y12941715D01*
X48768000Y12751239D01*
X48577523Y12636953D01*
X48387047Y12598858D01*
X48196571Y12636953D01*
X48006095Y12751239D01*
X47891809Y12941715D01*
X47853714Y13132191D01*
X47891809Y13322667D01*
X48006095Y13513143D01*
X48196571Y13627429D01*
X48387047Y13665524D01*
X48577523Y13627429D01*
X48768000Y13513143D01*
X48882285Y13322667D01*
X48920380Y13132191D01*
X48006095Y14617905D02*
X48806095Y14617905D01*
X48806095Y14922667D01*
X48768000Y14998858D01*
X48729904Y15036953D01*
X48653714Y15075048D01*
X48539428Y15075048D01*
X48463238Y15036953D01*
X48425142Y14998858D01*
X48387047Y14922667D01*
X48387047Y14617905D01*
X48006095Y15760762D02*
X48425142Y15760762D01*
X48501333Y15722667D01*
X48539428Y15646477D01*
X48539428Y15494096D01*
X48501333Y15417905D01*
X48044190Y15760762D02*
X48006095Y15684572D01*
X48006095Y15494096D01*
X48044190Y15417905D01*
X48120380Y15379810D01*
X48196571Y15379810D01*
X48272761Y15417905D01*
X48310857Y15494096D01*
X48310857Y15684572D01*
X48348952Y15760762D01*
X48539428Y16484572D02*
X48006095Y16484572D01*
X48539428Y16141715D02*
X48120380Y16141715D01*
X48044190Y16179810D01*
X48006095Y16256000D01*
X48006095Y16370286D01*
X48044190Y16446477D01*
X48082285Y16484572D01*
X48006095Y16979810D02*
X48044190Y16903620D01*
X48120380Y16865524D01*
X48806095Y16865524D01*
X48806095Y18122667D02*
X48234666Y18122667D01*
X48120380Y18084572D01*
X48044190Y18008381D01*
X48006095Y17894096D01*
X48006095Y17817905D01*
X48006095Y18846477D02*
X48425142Y18846477D01*
X48501333Y18808381D01*
X48539428Y18732191D01*
X48539428Y18579810D01*
X48501333Y18503620D01*
X48044190Y18846477D02*
X48006095Y18770286D01*
X48006095Y18579810D01*
X48044190Y18503620D01*
X48120380Y18465524D01*
X48196571Y18465524D01*
X48272761Y18503620D01*
X48310857Y18579810D01*
X48310857Y18770286D01*
X48348952Y18846477D01*
X48539428Y19227429D02*
X48006095Y19227429D01*
X48463238Y19227429D02*
X48501333Y19265524D01*
X48539428Y19341715D01*
X48539428Y19456000D01*
X48501333Y19532191D01*
X48425142Y19570286D01*
X48006095Y19570286D01*
X48006095Y19951239D02*
X48539428Y19951239D01*
X48806095Y19951239D02*
X48768000Y19913143D01*
X48729904Y19951239D01*
X48768000Y19989334D01*
X48806095Y19951239D01*
X48729904Y19951239D01*
X48044190Y20675048D02*
X48006095Y20598858D01*
X48006095Y20446477D01*
X48044190Y20370286D01*
X48082285Y20332191D01*
X48158476Y20294096D01*
X48387047Y20294096D01*
X48463238Y20332191D01*
X48501333Y20370286D01*
X48539428Y20446477D01*
X48539428Y20598858D01*
X48501333Y20675048D01*
X48006095Y21017905D02*
X48806095Y21017905D01*
X48310857Y21094096D02*
X48006095Y21322667D01*
X48539428Y21322667D02*
X48234666Y21017905D01*
X48006095Y21665524D02*
X48539428Y21665524D01*
X48806095Y21665524D02*
X48768000Y21627429D01*
X48729904Y21665524D01*
X48768000Y21703620D01*
X48806095Y21665524D01*
X48729904Y21665524D01*
X48729904Y22617905D02*
X48768000Y22656000D01*
X48806095Y22732191D01*
X48806095Y22922667D01*
X48768000Y22998858D01*
X48729904Y23036953D01*
X48653714Y23075048D01*
X48577523Y23075048D01*
X48463238Y23036953D01*
X48006095Y22579810D01*
X48006095Y23075048D01*
X48806095Y23570286D02*
X48806095Y23646477D01*
X48768000Y23722667D01*
X48729904Y23760762D01*
X48653714Y23798858D01*
X48501333Y23836953D01*
X48310857Y23836953D01*
X48158476Y23798858D01*
X48082285Y23760762D01*
X48044190Y23722667D01*
X48006095Y23646477D01*
X48006095Y23570286D01*
X48044190Y23494096D01*
X48082285Y23456000D01*
X48158476Y23417905D01*
X48310857Y23379810D01*
X48501333Y23379810D01*
X48653714Y23417905D01*
X48729904Y23456000D01*
X48768000Y23494096D01*
X48806095Y23570286D01*
X48006095Y24598858D02*
X48006095Y24141715D01*
X48006095Y24370286D02*
X48806095Y24370286D01*
X48691809Y24294096D01*
X48615619Y24217905D01*
X48577523Y24141715D01*
X48006095Y24979810D02*
X48006095Y25132191D01*
X48044190Y25208381D01*
X48082285Y25246477D01*
X48196571Y25322667D01*
X48348952Y25360762D01*
X48653714Y25360762D01*
X48729904Y25322667D01*
X48768000Y25284572D01*
X48806095Y25208381D01*
X48806095Y25056000D01*
X48768000Y24979810D01*
X48729904Y24941715D01*
X48653714Y24903620D01*
X48463238Y24903620D01*
X48387047Y24941715D01*
X48348952Y24979810D01*
X48310857Y25056000D01*
X48310857Y25208381D01*
X48348952Y25284572D01*
X48387047Y25322667D01*
X48463238Y25360762D01*
X24098047Y26797096D02*
X24479000Y26797096D01*
X24479000Y27597096D01*
X23831380Y26797096D02*
X23831380Y27330429D01*
X23831380Y27597096D02*
X23869476Y27559000D01*
X23831380Y27520905D01*
X23793285Y27559000D01*
X23831380Y27597096D01*
X23831380Y27520905D01*
X23107571Y26835191D02*
X23183761Y26797096D01*
X23336142Y26797096D01*
X23412333Y26835191D01*
X23450428Y26873286D01*
X23488523Y26949477D01*
X23488523Y27178048D01*
X23450428Y27254239D01*
X23412333Y27292334D01*
X23336142Y27330429D01*
X23183761Y27330429D01*
X23107571Y27292334D01*
X22459952Y26835191D02*
X22536142Y26797096D01*
X22688523Y26797096D01*
X22764714Y26835191D01*
X22802809Y26911381D01*
X22802809Y27216143D01*
X22764714Y27292334D01*
X22688523Y27330429D01*
X22536142Y27330429D01*
X22459952Y27292334D01*
X22421857Y27216143D01*
X22421857Y27139953D01*
X22802809Y27063762D01*
X22079000Y27330429D02*
X22079000Y26797096D01*
X22079000Y27254239D02*
X22040904Y27292334D01*
X21964714Y27330429D01*
X21850428Y27330429D01*
X21774238Y27292334D01*
X21736142Y27216143D01*
X21736142Y26797096D01*
X21393285Y26835191D02*
X21317095Y26797096D01*
X21164714Y26797096D01*
X21088523Y26835191D01*
X21050428Y26911381D01*
X21050428Y26949477D01*
X21088523Y27025667D01*
X21164714Y27063762D01*
X21279000Y27063762D01*
X21355190Y27101858D01*
X21393285Y27178048D01*
X21393285Y27216143D01*
X21355190Y27292334D01*
X21279000Y27330429D01*
X21164714Y27330429D01*
X21088523Y27292334D01*
X20402809Y26835191D02*
X20479000Y26797096D01*
X20631380Y26797096D01*
X20707571Y26835191D01*
X20745666Y26911381D01*
X20745666Y27216143D01*
X20707571Y27292334D01*
X20631380Y27330429D01*
X20479000Y27330429D01*
X20402809Y27292334D01*
X20364714Y27216143D01*
X20364714Y27139953D01*
X20745666Y27063762D01*
X19679000Y26797096D02*
X19679000Y27597096D01*
X19679000Y26835191D02*
X19755190Y26797096D01*
X19907571Y26797096D01*
X19983761Y26835191D01*
X20021857Y26873286D01*
X20059952Y26949477D01*
X20059952Y27178048D01*
X20021857Y27254239D01*
X19983761Y27292334D01*
X19907571Y27330429D01*
X19755190Y27330429D01*
X19679000Y27292334D01*
D11*
X5431800Y18000000D02*
X5431800Y17619000D01*
X5431800Y18000000D02*
X5431800Y18381000D01*
X4568200Y18000000D02*
X4568200Y17619000D01*
X4568200Y18000000D02*
X4568200Y18381000D01*
X17380000Y9455200D02*
X16999000Y9455200D01*
X17380000Y9455200D02*
X17761000Y9455200D01*
X17380000Y10318800D02*
X16999000Y10318800D01*
X17380000Y10318800D02*
X17761000Y10318800D01*
X8500000Y18431800D02*
X8881000Y18431800D01*
X8500000Y18431800D02*
X8119000Y18431800D01*
X8500000Y17568200D02*
X8881000Y17568200D01*
X8500000Y17568200D02*
X8119000Y17568200D01*
X7220000Y15271800D02*
X7601000Y15271800D01*
X7220000Y15271800D02*
X6839000Y15271800D01*
X7220000Y14408200D02*
X7601000Y14408200D01*
X7220000Y14408200D02*
X6839000Y14408200D01*
X9760000Y25939800D02*
X10141000Y25939800D01*
X9760000Y25939800D02*
X9379000Y25939800D01*
X9760000Y25076200D02*
X10141000Y25076200D01*
X9760000Y25076200D02*
X9379000Y25076200D01*
X14763800Y32112000D02*
X14763800Y31731000D01*
X14763800Y32112000D02*
X14763800Y32493000D01*
X13900200Y32112000D02*
X13900200Y31731000D01*
X13900200Y32112000D02*
X13900200Y32493000D01*
X9760000Y23399800D02*
X10141000Y23399800D01*
X9760000Y23399800D02*
X9379000Y23399800D01*
X9760000Y22536200D02*
X10141000Y22536200D01*
X9760000Y22536200D02*
X9379000Y22536200D01*
X9696500Y41078200D02*
X9315500Y41078200D01*
X9696500Y41078200D02*
X10077500Y41078200D01*
X9696500Y41941800D02*
X9315500Y41941800D01*
X9696500Y41941800D02*
X10077500Y41941800D01*
X19335800Y23918000D02*
X19335800Y23537000D01*
X19335800Y23918000D02*
X19335800Y24299000D01*
X18472200Y23918000D02*
X18472200Y23537000D01*
X18472200Y23918000D02*
X18472200Y24299000D01*
X16795800Y14459000D02*
X16795800Y14078000D01*
X16795800Y14459000D02*
X16795800Y14840000D01*
X15932200Y14459000D02*
X15932200Y14078000D01*
X15932200Y14459000D02*
X15932200Y14840000D01*
X17811800Y36430000D02*
X17811800Y36049000D01*
X17811800Y36430000D02*
X17811800Y36811000D01*
X16948200Y36430000D02*
X16948200Y36049000D01*
X16948200Y36430000D02*
X16948200Y36811000D01*
X15424200Y26524000D02*
X15424200Y26905000D01*
X15424200Y26524000D02*
X15424200Y26143000D01*
X16287800Y26524000D02*
X16287800Y26905000D01*
X16287800Y26524000D02*
X16287800Y26143000D01*
X39605000Y18853200D02*
X39224000Y18853200D01*
X39605000Y18853200D02*
X39986000Y18853200D01*
X39605000Y19716800D02*
X39224000Y19716800D01*
X39605000Y19716800D02*
X39986000Y19716800D01*
X4500000Y27235200D02*
X4119000Y27235200D01*
X4500000Y27235200D02*
X4881000Y27235200D01*
X4500000Y28098800D02*
X4119000Y28098800D01*
X4500000Y28098800D02*
X4881000Y28098800D01*
X9760000Y20859800D02*
X10141000Y20859800D01*
X9760000Y20859800D02*
X9379000Y20859800D01*
X9760000Y19996200D02*
X10141000Y19996200D01*
X9760000Y19996200D02*
X9379000Y19996200D01*
X20758200Y46590000D02*
X20758200Y46971000D01*
X20758200Y46590000D02*
X20758200Y46209000D01*
X21621800Y46590000D02*
X21621800Y46971000D01*
X21621800Y46590000D02*
X21621800Y46209000D01*
X14258000Y13751000D02*
X14258000Y13151000D01*
X11358000Y14751000D02*
X12808000Y14751000D01*
X11358000Y13151000D02*
X11358000Y14751000D01*
X14258000Y13151000D02*
X11358000Y13151000D01*
X12808000Y14751000D02*
X14258000Y14751000D01*
X14258000Y14151000D02*
X14008000Y14151000D01*
X14008000Y14151000D02*
X14008000Y13951000D01*
X14008000Y13951000D02*
X14008000Y13751000D01*
X14008000Y13751000D02*
X14258000Y13751000D01*
X14258000Y14751000D02*
X14258000Y14151000D01*
D12*
X14656661Y12851000D02*
G75*
G03X14656661Y12851000I-148661J0D01*
G01*
D11*
X29525000Y33968200D02*
X29144000Y33968200D01*
X29525000Y33968200D02*
X29906000Y33968200D01*
X29525000Y34831800D02*
X29144000Y34831800D01*
X29525000Y34831800D02*
X29906000Y34831800D01*
X39097000Y12173000D02*
X35541000Y12173000D01*
X35541000Y12173000D02*
X35414000Y12173000D01*
X37827000Y17507000D02*
X37827000Y16999000D01*
X37827000Y16999000D02*
X36811000Y16999000D01*
X36684000Y16999000D02*
X36684000Y17507000D01*
X38387605Y16745000D02*
G75*
G03X38387605Y16745000I-179605J0D01*
G01*
X37827000Y17507000D02*
X39097000Y17507000D01*
X36811000Y16999000D02*
X36684000Y16999000D01*
X36684000Y17507000D02*
X35414000Y17507000D01*
X35414000Y17507000D02*
X35414000Y17380000D01*
X39097000Y17507000D02*
X39097000Y17380000D01*
X35414000Y12173000D02*
X35414000Y12300000D01*
X39097000Y12173000D02*
X39097000Y12300000D01*
X15932200Y19285000D02*
X15932200Y19666000D01*
X15932200Y19285000D02*
X15932200Y18904000D01*
X16795800Y19285000D02*
X16795800Y19666000D01*
X16795800Y19285000D02*
X16795800Y18904000D01*
X21875800Y19285000D02*
X21875800Y18904000D01*
X21875800Y19285000D02*
X21875800Y19666000D01*
X21012200Y19285000D02*
X21012200Y18904000D01*
X21012200Y19285000D02*
X21012200Y19666000D01*
X18472200Y19285000D02*
X18472200Y19666000D01*
X18472200Y19285000D02*
X18472200Y18904000D01*
X19335800Y19285000D02*
X19335800Y19666000D01*
X19335800Y19285000D02*
X19335800Y18904000D01*
X24415800Y19285000D02*
X24415800Y18904000D01*
X24415800Y19285000D02*
X24415800Y19666000D01*
X23552200Y19285000D02*
X23552200Y18904000D01*
X23552200Y19285000D02*
X23552200Y19666000D01*
X14332000Y23399800D02*
X14713000Y23399800D01*
X14332000Y23399800D02*
X13951000Y23399800D01*
X14332000Y22536200D02*
X14713000Y22536200D01*
X14332000Y22536200D02*
X13951000Y22536200D01*
X17380000Y6788200D02*
X16999000Y6788200D01*
X17380000Y6788200D02*
X17761000Y6788200D01*
X17380000Y7651800D02*
X16999000Y7651800D01*
X17380000Y7651800D02*
X17761000Y7651800D01*
X41941800Y41510000D02*
X41941800Y41129000D01*
X41941800Y41510000D02*
X41941800Y41891000D01*
X41078200Y41510000D02*
X41078200Y41129000D01*
X41078200Y41510000D02*
X41078200Y41891000D01*
X2952800Y16364000D02*
X2952800Y15983000D01*
X2952800Y16364000D02*
X2952800Y16745000D01*
X2089200Y16364000D02*
X2089200Y15983000D01*
X2089200Y16364000D02*
X2089200Y16745000D01*
X2089200Y12300000D02*
X2089200Y12681000D01*
X2089200Y12300000D02*
X2089200Y11919000D01*
X2952800Y12300000D02*
X2952800Y12681000D01*
X2952800Y12300000D02*
X2952800Y11919000D01*
X17811800Y32112000D02*
X17811800Y31731000D01*
X17811800Y32112000D02*
X17811800Y32493000D01*
X16948200Y32112000D02*
X16948200Y31731000D01*
X16948200Y32112000D02*
X16948200Y32493000D01*
X12884200Y26524000D02*
X12884200Y26905000D01*
X12884200Y26524000D02*
X12884200Y26143000D01*
X13747800Y26524000D02*
X13747800Y26905000D01*
X13747800Y26524000D02*
X13747800Y26143000D01*
X20986800Y32112000D02*
X20986800Y31731000D01*
X20986800Y32112000D02*
X20986800Y32493000D01*
X20123200Y32112000D02*
X20123200Y31731000D01*
X20123200Y32112000D02*
X20123200Y32493000D01*
X35998200Y41510000D02*
X35998200Y41891000D01*
X35998200Y41510000D02*
X35998200Y41129000D01*
X36861800Y41510000D02*
X36861800Y41891000D01*
X36861800Y41510000D02*
X36861800Y41129000D01*
X20123200Y36430000D02*
X20123200Y36811000D01*
X20123200Y36430000D02*
X20123200Y36049000D01*
X20986800Y36430000D02*
X20986800Y36811000D01*
X20986800Y36430000D02*
X20986800Y36049000D01*
X32268200Y35670000D02*
X32268200Y36051000D01*
X32268200Y35670000D02*
X32268200Y35289000D01*
X33131800Y35670000D02*
X33131800Y36051000D01*
X33131800Y35670000D02*
X33131800Y35289000D01*
X21621800Y41510000D02*
X21621800Y41129000D01*
X21621800Y41510000D02*
X21621800Y41891000D01*
X20758200Y41510000D02*
X20758200Y41129000D01*
X20758200Y41510000D02*
X20758200Y41891000D01*
X42983200Y26270000D02*
X42983200Y26651000D01*
X42983200Y26270000D02*
X42983200Y25889000D01*
X43846800Y26270000D02*
X43846800Y26651000D01*
X43846800Y26270000D02*
X43846800Y25889000D01*
X9760000Y35936700D02*
X9379000Y35936700D01*
X9760000Y35936700D02*
X10141000Y35936700D01*
X9760000Y36800300D02*
X9379000Y36800300D01*
X9760000Y36800300D02*
X10141000Y36800300D01*
X40240000Y29648200D02*
X39859000Y29648200D01*
X40240000Y29648200D02*
X40621000Y29648200D01*
X40240000Y30511800D02*
X39859000Y30511800D01*
X40240000Y30511800D02*
X40621000Y30511800D01*
X38538200Y41510000D02*
X38538200Y41891000D01*
X38538200Y41510000D02*
X38538200Y41129000D01*
X39401800Y41510000D02*
X39401800Y41891000D01*
X39401800Y41510000D02*
X39401800Y41129000D01*
X19081800Y41510000D02*
X19081800Y41129000D01*
X19081800Y41510000D02*
X19081800Y41891000D01*
X18218200Y41510000D02*
X18218200Y41129000D01*
X18218200Y41510000D02*
X18218200Y41891000D01*
X9760000Y38540200D02*
X9379000Y38540200D01*
X9760000Y38540200D02*
X10141000Y38540200D01*
X9760000Y39403800D02*
X9379000Y39403800D01*
X9760000Y39403800D02*
X10141000Y39403800D01*
X31146800Y24365000D02*
X31146800Y23984000D01*
X31146800Y24365000D02*
X31146800Y24746000D01*
X30283200Y24365000D02*
X30283200Y23984000D01*
X30283200Y24365000D02*
X30283200Y24746000D01*
X9760000Y34260300D02*
X10141000Y34260300D01*
X9760000Y34260300D02*
X9379000Y34260300D01*
X9760000Y33396700D02*
X10141000Y33396700D01*
X9760000Y33396700D02*
X9379000Y33396700D01*
X40240000Y32188200D02*
X39859000Y32188200D01*
X40240000Y32188200D02*
X40621000Y32188200D01*
X40240000Y33051800D02*
X39859000Y33051800D01*
X40240000Y33051800D02*
X40621000Y33051800D01*
X40240000Y34728200D02*
X39859000Y34728200D01*
X40240000Y34728200D02*
X40621000Y34728200D01*
X40240000Y35591800D02*
X39859000Y35591800D01*
X40240000Y35591800D02*
X40621000Y35591800D01*
X34321800Y41510000D02*
X34321800Y41129000D01*
X34321800Y41510000D02*
X34321800Y41891000D01*
X33458200Y41510000D02*
X33458200Y41129000D01*
X33458200Y41510000D02*
X33458200Y41891000D01*
X40240000Y37268200D02*
X39859000Y37268200D01*
X40240000Y37268200D02*
X40621000Y37268200D01*
X40240000Y38131800D02*
X39859000Y38131800D01*
X40240000Y38131800D02*
X40621000Y38131800D01*
X9760000Y31019800D02*
X10141000Y31019800D01*
X9760000Y31019800D02*
X9379000Y31019800D01*
X9760000Y30156200D02*
X10141000Y30156200D01*
X9760000Y30156200D02*
X9379000Y30156200D01*
X13138200Y41510000D02*
X13138200Y41891000D01*
X13138200Y41510000D02*
X13138200Y41129000D01*
X14001800Y41510000D02*
X14001800Y41891000D01*
X14001800Y41510000D02*
X14001800Y41129000D01*
X15678200Y41510000D02*
X15678200Y41891000D01*
X15678200Y41510000D02*
X15678200Y41129000D01*
X16541800Y41510000D02*
X16541800Y41891000D01*
X16541800Y41510000D02*
X16541800Y41129000D01*
X9760000Y28479800D02*
X10141000Y28479800D01*
X9760000Y28479800D02*
X9379000Y28479800D01*
X9760000Y27616200D02*
X10141000Y27616200D01*
X9760000Y27616200D02*
X9379000Y27616200D01*
X17380000Y1708200D02*
X16999000Y1708200D01*
X17380000Y1708200D02*
X17761000Y1708200D01*
X17380000Y2571800D02*
X16999000Y2571800D01*
X17380000Y2571800D02*
X17761000Y2571800D01*
X12808000Y18446800D02*
X13189000Y18446800D01*
X12808000Y18446800D02*
X12427000Y18446800D01*
X12808000Y17583200D02*
X13189000Y17583200D01*
X12808000Y17583200D02*
X12427000Y17583200D01*
X7220000Y12731800D02*
X7601000Y12731800D01*
X7220000Y12731800D02*
X6839000Y12731800D01*
X7220000Y11868200D02*
X7601000Y11868200D01*
X7220000Y11868200D02*
X6839000Y11868200D01*
X45400000Y8568200D02*
X45019000Y8568200D01*
X45400000Y8568200D02*
X45781000Y8568200D01*
X45400000Y9431800D02*
X45019000Y9431800D01*
X45400000Y9431800D02*
X45781000Y9431800D01*
X23933200Y11030000D02*
X23933200Y11411000D01*
X23933200Y11030000D02*
X23933200Y10649000D01*
X24796800Y11030000D02*
X24796800Y11411000D01*
X24796800Y11030000D02*
X24796800Y10649000D01*
X27336800Y18523000D02*
X27336800Y18142000D01*
X27336800Y18523000D02*
X27336800Y18904000D01*
X26473200Y18523000D02*
X26473200Y18142000D01*
X26473200Y18523000D02*
X26473200Y18904000D01*
X17380000Y4248200D02*
X16999000Y4248200D01*
X17380000Y4248200D02*
X17761000Y4248200D01*
X17380000Y5111800D02*
X16999000Y5111800D01*
X17380000Y5111800D02*
X17761000Y5111800D01*
X25955000Y15017800D02*
X26336000Y15017800D01*
X25955000Y15017800D02*
X25574000Y15017800D01*
X25955000Y14154200D02*
X26336000Y14154200D01*
X25955000Y14154200D02*
X25574000Y14154200D01*
X27336800Y11030000D02*
X27336800Y10649000D01*
X27336800Y11030000D02*
X27336800Y11411000D01*
X26473200Y11030000D02*
X26473200Y10649000D01*
X26473200Y11030000D02*
X26473200Y11411000D01*
X36226800Y19920000D02*
X36226800Y19539000D01*
X36226800Y19920000D02*
X36226800Y20301000D01*
X35363200Y19920000D02*
X35363200Y19539000D01*
X35363200Y19920000D02*
X35363200Y20301000D01*
X34401800Y30590000D02*
X34401800Y30209000D01*
X34401800Y30590000D02*
X34401800Y30971000D01*
X33538200Y30590000D02*
X33538200Y30209000D01*
X33538200Y30590000D02*
X33538200Y30971000D01*
X35824200Y30590000D02*
X35824200Y30971000D01*
X35824200Y30590000D02*
X35824200Y30209000D01*
X36687800Y30590000D02*
X36687800Y30971000D01*
X36687800Y30590000D02*
X36687800Y30209000D01*
X30537200Y13951000D02*
X30537200Y14332000D01*
X30537200Y13951000D02*
X30537200Y13570000D01*
X31400800Y13951000D02*
X31400800Y14332000D01*
X31400800Y13951000D02*
X31400800Y13570000D01*
X30537200Y18650000D02*
X30537200Y19031000D01*
X30537200Y18650000D02*
X30537200Y18269000D01*
X31400800Y18650000D02*
X31400800Y19031000D01*
X31400800Y18650000D02*
X31400800Y18269000D01*
X37903200Y22460000D02*
X37903200Y22841000D01*
X37903200Y22460000D02*
X37903200Y22079000D01*
X38766800Y22460000D02*
X38766800Y22841000D01*
X38766800Y22460000D02*
X38766800Y22079000D01*
X36430000Y9963200D02*
X36049000Y9963200D01*
X36430000Y9963200D02*
X36811000Y9963200D01*
X36430000Y10826800D02*
X36049000Y10826800D01*
X36430000Y10826800D02*
X36811000Y10826800D01*
X38766800Y26270000D02*
X38766800Y25889000D01*
X38766800Y26270000D02*
X38766800Y26651000D01*
X37903200Y26270000D02*
X37903200Y25889000D01*
X37903200Y26270000D02*
X37903200Y26651000D01*
X41306800Y22460000D02*
X41306800Y22079000D01*
X41306800Y22460000D02*
X41306800Y22841000D01*
X40443200Y22460000D02*
X40443200Y22079000D01*
X40443200Y22460000D02*
X40443200Y22841000D01*
X41306800Y26270000D02*
X41306800Y25889000D01*
X41306800Y26270000D02*
X41306800Y26651000D01*
X40443200Y26270000D02*
X40443200Y25889000D01*
X40443200Y26270000D02*
X40443200Y26651000D01*
X40875000Y10826800D02*
X41256000Y10826800D01*
X40875000Y10826800D02*
X40494000Y10826800D01*
X40875000Y9963200D02*
X41256000Y9963200D01*
X40875000Y9963200D02*
X40494000Y9963200D01*
X31985000Y9963200D02*
X31604000Y9963200D01*
X31985000Y9963200D02*
X32366000Y9963200D01*
X31985000Y10826800D02*
X31604000Y10826800D01*
X31985000Y10826800D02*
X32366000Y10826800D01*
X36256000Y35543000D02*
X36256000Y36076400D01*
X36256000Y35543000D02*
X36256000Y35009600D01*
X34986000Y35543000D02*
X34986000Y36076400D01*
X34986000Y35543000D02*
X34986000Y35009600D01*
X25127000Y41002000D02*
X25127000Y40875000D01*
X28810000Y41002000D02*
X28810000Y40875000D01*
X25127000Y35668000D02*
X25127000Y35795000D01*
X28810000Y35668000D02*
X28810000Y35795000D01*
X27540000Y35668000D02*
X28810000Y35668000D01*
X27413000Y36176000D02*
X27540000Y36176000D01*
X26397000Y35668000D02*
X25127000Y35668000D01*
X26195605Y36430000D02*
G75*
G03X26195605Y36430000I-179605J0D01*
G01*
X27540000Y36176000D02*
X27540000Y35668000D01*
X26397000Y36176000D02*
X27413000Y36176000D01*
X26397000Y35668000D02*
X26397000Y36176000D01*
X28683000Y41002000D02*
X28810000Y41002000D01*
X25127000Y41002000D02*
X28683000Y41002000D01*
X3664000Y9379000D02*
X3130600Y9379000D01*
X3664000Y9379000D02*
X4197400Y9379000D01*
X3664000Y8109000D02*
X3130600Y8109000D01*
X3664000Y8109000D02*
X4197400Y8109000D01*
X4056000Y22068000D02*
X2256000Y22068000D01*
X3156000Y22768000D02*
X3156000Y22368000D01*
X3156000Y23268000D02*
X3156000Y23668000D01*
X3556000Y22768000D02*
X2756000Y22768000D01*
X2756000Y23268000D02*
X3156000Y22868000D01*
X3556000Y23268000D02*
X2756000Y23268000D01*
X3156000Y22868000D02*
X3556000Y23268000D01*
X2256000Y24568000D02*
X2356000Y24568000D01*
X2256000Y21568000D02*
X2256000Y24568000D01*
X2356000Y21568000D02*
X2256000Y21568000D01*
X4056000Y24368000D02*
X3956000Y24368000D01*
X4056000Y22968000D02*
X4056000Y24368000D01*
X4056000Y21568000D02*
X3956000Y21568000D01*
X4056000Y22968000D02*
X4056000Y21568000D01*
X5304000Y23868000D02*
X7104000Y23868000D01*
X6204000Y23168000D02*
X6204000Y23568000D01*
X6204000Y22668000D02*
X6204000Y22268000D01*
X5804000Y23168000D02*
X6604000Y23168000D01*
X6604000Y22668000D02*
X6204000Y23068000D01*
X5804000Y22668000D02*
X6604000Y22668000D01*
X6204000Y23068000D02*
X5804000Y22668000D01*
X7104000Y21368000D02*
X7004000Y21368000D01*
X7104000Y24368000D02*
X7104000Y21368000D01*
X7004000Y24368000D02*
X7104000Y24368000D01*
X5304000Y21568000D02*
X5404000Y21568000D01*
X5304000Y22968000D02*
X5304000Y21568000D01*
X5304000Y24368000D02*
X5404000Y24368000D01*
X5304000Y22968000D02*
X5304000Y24368000D01*
X10141000Y9890000D02*
X10941000Y9890000D01*
X10141000Y9890000D02*
X9341000Y9890000D01*
X10141000Y7090000D02*
X9341000Y7090000D01*
X10141000Y7090000D02*
X10941000Y7090000D01*
X10391000Y7990000D02*
X9891000Y8490000D01*
X10391000Y8990000D02*
X10391000Y7990000D01*
X10391000Y8990000D02*
X9891000Y8490000D01*
X9891000Y8990000D02*
X9891000Y7990000D01*
X6396902Y9690000D02*
G75*
G03X6396902Y9690000I-55902J0D01*
G01*
X9841000Y8490000D02*
X9741000Y8490000D01*
X10441000Y8490000D02*
X10541000Y8490000D01*
X4182380Y19119048D02*
X3706190Y19452381D01*
X4182380Y19690477D02*
X3182380Y19690477D01*
X3182380Y19309524D01*
X3230000Y19214286D01*
X3277619Y19166667D01*
X3372857Y19119048D01*
X3515714Y19119048D01*
X3610952Y19166667D01*
X3658571Y19214286D01*
X3706190Y19309524D01*
X3706190Y19690477D01*
X3182380Y18261905D02*
X3182380Y18452381D01*
X3230000Y18547620D01*
X3277619Y18595239D01*
X3420476Y18690477D01*
X3610952Y18738096D01*
X3991904Y18738096D01*
X4087142Y18690477D01*
X4134761Y18642858D01*
X4182380Y18547620D01*
X4182380Y18357143D01*
X4134761Y18261905D01*
X4087142Y18214286D01*
X3991904Y18166667D01*
X3753809Y18166667D01*
X3658571Y18214286D01*
X3610952Y18261905D01*
X3563333Y18357143D01*
X3563333Y18547620D01*
X3610952Y18642858D01*
X3658571Y18690477D01*
X3753809Y18738096D01*
X3182380Y17547620D02*
X3182380Y17452381D01*
X3230000Y17357143D01*
X3277619Y17309524D01*
X3372857Y17261905D01*
X3563333Y17214286D01*
X3801428Y17214286D01*
X3991904Y17261905D01*
X4087142Y17309524D01*
X4134761Y17357143D01*
X4182380Y17452381D01*
X4182380Y17547620D01*
X4134761Y17642858D01*
X4087142Y17690477D01*
X3991904Y17738096D01*
X3801428Y17785715D01*
X3563333Y17785715D01*
X3372857Y17738096D01*
X3277619Y17690477D01*
X3230000Y17642858D01*
X3182380Y17547620D01*
X4182380Y16738096D02*
X4182380Y16547620D01*
X4134761Y16452381D01*
X4087142Y16404762D01*
X3944285Y16309524D01*
X3753809Y16261905D01*
X3372857Y16261905D01*
X3277619Y16309524D01*
X3230000Y16357143D01*
X3182380Y16452381D01*
X3182380Y16642858D01*
X3230000Y16738096D01*
X3277619Y16785715D01*
X3372857Y16833334D01*
X3610952Y16833334D01*
X3706190Y16785715D01*
X3753809Y16738096D01*
X3801428Y16642858D01*
X3801428Y16452381D01*
X3753809Y16357143D01*
X3706190Y16309524D01*
X3610952Y16261905D01*
X18228238Y10682786D02*
X18266333Y10644691D01*
X18380619Y10606596D01*
X18456809Y10606596D01*
X18571095Y10644691D01*
X18647285Y10720881D01*
X18685380Y10797072D01*
X18723476Y10949453D01*
X18723476Y11063739D01*
X18685380Y11216120D01*
X18647285Y11292310D01*
X18571095Y11368500D01*
X18456809Y11406596D01*
X18380619Y11406596D01*
X18266333Y11368500D01*
X18228238Y11330405D01*
X17542523Y11406596D02*
X17694904Y11406596D01*
X17771095Y11368500D01*
X17809190Y11330405D01*
X17885380Y11216120D01*
X17923476Y11063739D01*
X17923476Y10758977D01*
X17885380Y10682786D01*
X17847285Y10644691D01*
X17771095Y10606596D01*
X17618714Y10606596D01*
X17542523Y10644691D01*
X17504428Y10682786D01*
X17466333Y10758977D01*
X17466333Y10949453D01*
X17504428Y11025643D01*
X17542523Y11063739D01*
X17618714Y11101834D01*
X17771095Y11101834D01*
X17847285Y11063739D01*
X17885380Y11025643D01*
X17923476Y10949453D01*
X16971095Y11406596D02*
X16894904Y11406596D01*
X16818714Y11368500D01*
X16780619Y11330405D01*
X16742523Y11254215D01*
X16704428Y11101834D01*
X16704428Y10911358D01*
X16742523Y10758977D01*
X16780619Y10682786D01*
X16818714Y10644691D01*
X16894904Y10606596D01*
X16971095Y10606596D01*
X17047285Y10644691D01*
X17085380Y10682786D01*
X17123476Y10758977D01*
X17161571Y10911358D01*
X17161571Y11101834D01*
X17123476Y11254215D01*
X17085380Y11330405D01*
X17047285Y11368500D01*
X16971095Y11406596D01*
X16018714Y11139929D02*
X16018714Y10606596D01*
X16209190Y11444691D02*
X16399666Y10873262D01*
X15904428Y10873262D01*
X7887738Y18719596D02*
X8154404Y19100548D01*
X8344880Y18719596D02*
X8344880Y19519596D01*
X8040119Y19519596D01*
X7963928Y19481500D01*
X7925833Y19443405D01*
X7887738Y19367215D01*
X7887738Y19252929D01*
X7925833Y19176739D01*
X7963928Y19138643D01*
X8040119Y19100548D01*
X8344880Y19100548D01*
X7202023Y19519596D02*
X7354404Y19519596D01*
X7430595Y19481500D01*
X7468690Y19443405D01*
X7544880Y19329120D01*
X7582976Y19176739D01*
X7582976Y18871977D01*
X7544880Y18795786D01*
X7506785Y18757691D01*
X7430595Y18719596D01*
X7278214Y18719596D01*
X7202023Y18757691D01*
X7163928Y18795786D01*
X7125833Y18871977D01*
X7125833Y19062453D01*
X7163928Y19138643D01*
X7202023Y19176739D01*
X7278214Y19214834D01*
X7430595Y19214834D01*
X7506785Y19176739D01*
X7544880Y19138643D01*
X7582976Y19062453D01*
X6630595Y19519596D02*
X6554404Y19519596D01*
X6478214Y19481500D01*
X6440119Y19443405D01*
X6402023Y19367215D01*
X6363928Y19214834D01*
X6363928Y19024358D01*
X6402023Y18871977D01*
X6440119Y18795786D01*
X6478214Y18757691D01*
X6554404Y18719596D01*
X6630595Y18719596D01*
X6706785Y18757691D01*
X6744880Y18795786D01*
X6782976Y18871977D01*
X6821071Y19024358D01*
X6821071Y19214834D01*
X6782976Y19367215D01*
X6744880Y19443405D01*
X6706785Y19481500D01*
X6630595Y19519596D01*
X5602023Y18719596D02*
X6059166Y18719596D01*
X5830595Y18719596D02*
X5830595Y19519596D01*
X5906785Y19405310D01*
X5982976Y19329120D01*
X6059166Y19291024D01*
X8957238Y13337096D02*
X9223904Y13718048D01*
X9414380Y13337096D02*
X9414380Y14137096D01*
X9109619Y14137096D01*
X9033428Y14099000D01*
X8995333Y14060905D01*
X8957238Y13984715D01*
X8957238Y13870429D01*
X8995333Y13794239D01*
X9033428Y13756143D01*
X9109619Y13718048D01*
X9414380Y13718048D01*
X8271523Y14137096D02*
X8423904Y14137096D01*
X8500095Y14099000D01*
X8538190Y14060905D01*
X8614380Y13946620D01*
X8652476Y13794239D01*
X8652476Y13489477D01*
X8614380Y13413286D01*
X8576285Y13375191D01*
X8500095Y13337096D01*
X8347714Y13337096D01*
X8271523Y13375191D01*
X8233428Y13413286D01*
X8195333Y13489477D01*
X8195333Y13679953D01*
X8233428Y13756143D01*
X8271523Y13794239D01*
X8347714Y13832334D01*
X8500095Y13832334D01*
X8576285Y13794239D01*
X8614380Y13756143D01*
X8652476Y13679953D01*
X7700095Y14137096D02*
X7623904Y14137096D01*
X7547714Y14099000D01*
X7509619Y14060905D01*
X7471523Y13984715D01*
X7433428Y13832334D01*
X7433428Y13641858D01*
X7471523Y13489477D01*
X7509619Y13413286D01*
X7547714Y13375191D01*
X7623904Y13337096D01*
X7700095Y13337096D01*
X7776285Y13375191D01*
X7814380Y13413286D01*
X7852476Y13489477D01*
X7890571Y13641858D01*
X7890571Y13832334D01*
X7852476Y13984715D01*
X7814380Y14060905D01*
X7776285Y14099000D01*
X7700095Y14137096D01*
X7128666Y14060905D02*
X7090571Y14099000D01*
X7014380Y14137096D01*
X6823904Y14137096D01*
X6747714Y14099000D01*
X6709619Y14060905D01*
X6671523Y13984715D01*
X6671523Y13908524D01*
X6709619Y13794239D01*
X7166761Y13337096D01*
X6671523Y13337096D01*
X12297404Y26913239D02*
X11916452Y27179905D01*
X12297404Y27370381D02*
X11497404Y27370381D01*
X11497404Y27065620D01*
X11535500Y26989429D01*
X11573595Y26951334D01*
X11649785Y26913239D01*
X11764071Y26913239D01*
X11840261Y26951334D01*
X11878357Y26989429D01*
X11916452Y27065620D01*
X11916452Y27370381D01*
X11573595Y26608477D02*
X11535500Y26570381D01*
X11497404Y26494191D01*
X11497404Y26303715D01*
X11535500Y26227524D01*
X11573595Y26189429D01*
X11649785Y26151334D01*
X11725976Y26151334D01*
X11840261Y26189429D01*
X12297404Y26646572D01*
X12297404Y26151334D01*
X11573595Y25846572D02*
X11535500Y25808477D01*
X11497404Y25732286D01*
X11497404Y25541810D01*
X11535500Y25465620D01*
X11573595Y25427524D01*
X11649785Y25389429D01*
X11725976Y25389429D01*
X11840261Y25427524D01*
X12297404Y25884667D01*
X12297404Y25389429D01*
X11573595Y25084667D02*
X11535500Y25046572D01*
X11497404Y24970381D01*
X11497404Y24779905D01*
X11535500Y24703715D01*
X11573595Y24665620D01*
X11649785Y24627524D01*
X11725976Y24627524D01*
X11840261Y24665620D01*
X12297404Y25122762D01*
X12297404Y24627524D01*
X14800880Y36598548D02*
X14324690Y36931881D01*
X14800880Y37169977D02*
X13800880Y37169977D01*
X13800880Y36789024D01*
X13848500Y36693786D01*
X13896119Y36646167D01*
X13991357Y36598548D01*
X14134214Y36598548D01*
X14229452Y36646167D01*
X14277071Y36693786D01*
X14324690Y36789024D01*
X14324690Y37169977D01*
X13800880Y35693786D02*
X13800880Y36169977D01*
X14277071Y36217596D01*
X14229452Y36169977D01*
X14181833Y36074739D01*
X14181833Y35836643D01*
X14229452Y35741405D01*
X14277071Y35693786D01*
X14372309Y35646167D01*
X14610404Y35646167D01*
X14705642Y35693786D01*
X14753261Y35741405D01*
X14800880Y35836643D01*
X14800880Y36074739D01*
X14753261Y36169977D01*
X14705642Y36217596D01*
X13800880Y35312834D02*
X13800880Y34693786D01*
X14181833Y35027120D01*
X14181833Y34884262D01*
X14229452Y34789024D01*
X14277071Y34741405D01*
X14372309Y34693786D01*
X14610404Y34693786D01*
X14705642Y34741405D01*
X14753261Y34789024D01*
X14800880Y34884262D01*
X14800880Y35169977D01*
X14753261Y35265215D01*
X14705642Y35312834D01*
X13800880Y34360453D02*
X13800880Y33741405D01*
X14181833Y34074739D01*
X14181833Y33931881D01*
X14229452Y33836643D01*
X14277071Y33789024D01*
X14372309Y33741405D01*
X14610404Y33741405D01*
X14705642Y33789024D01*
X14753261Y33836643D01*
X14800880Y33931881D01*
X14800880Y34217596D01*
X14753261Y34312834D01*
X14705642Y34360453D01*
X11295238Y23624096D02*
X11561904Y24005048D01*
X11752380Y23624096D02*
X11752380Y24424096D01*
X11447619Y24424096D01*
X11371428Y24386000D01*
X11333333Y24347905D01*
X11295238Y24271715D01*
X11295238Y24157429D01*
X11333333Y24081239D01*
X11371428Y24043143D01*
X11447619Y24005048D01*
X11752380Y24005048D01*
X10990476Y24347905D02*
X10952380Y24386000D01*
X10876190Y24424096D01*
X10685714Y24424096D01*
X10609523Y24386000D01*
X10571428Y24347905D01*
X10533333Y24271715D01*
X10533333Y24195524D01*
X10571428Y24081239D01*
X11028571Y23624096D01*
X10533333Y23624096D01*
X9771428Y23624096D02*
X10228571Y23624096D01*
X10000000Y23624096D02*
X10000000Y24424096D01*
X10076190Y24309810D01*
X10152380Y24233620D01*
X10228571Y24195524D01*
X9085714Y24157429D02*
X9085714Y23624096D01*
X9276190Y24462191D02*
X9466666Y23890762D01*
X8971428Y23890762D01*
X10815547Y42327620D02*
X11148880Y42803810D01*
X11386976Y42327620D02*
X11386976Y43327620D01*
X11006023Y43327620D01*
X10910785Y43280000D01*
X10863166Y43232381D01*
X10815547Y43137143D01*
X10815547Y42994286D01*
X10863166Y42899048D01*
X10910785Y42851429D01*
X11006023Y42803810D01*
X11386976Y42803810D01*
X9958404Y42994286D02*
X9958404Y42327620D01*
X10196500Y43375239D02*
X10434595Y42660953D01*
X9815547Y42660953D01*
X9244119Y43327620D02*
X9148880Y43327620D01*
X9053642Y43280000D01*
X9006023Y43232381D01*
X8958404Y43137143D01*
X8910785Y42946667D01*
X8910785Y42708572D01*
X8958404Y42518096D01*
X9006023Y42422858D01*
X9053642Y42375239D01*
X9148880Y42327620D01*
X9244119Y42327620D01*
X9339357Y42375239D01*
X9386976Y42422858D01*
X9434595Y42518096D01*
X9482214Y42708572D01*
X9482214Y42946667D01*
X9434595Y43137143D01*
X9386976Y43232381D01*
X9339357Y43280000D01*
X9244119Y43327620D01*
X7958404Y42327620D02*
X8529833Y42327620D01*
X8244119Y42327620D02*
X8244119Y43327620D01*
X8339357Y43184762D01*
X8434595Y43089524D01*
X8529833Y43041905D01*
X20412714Y24817739D02*
X20450809Y24855834D01*
X20488904Y24970120D01*
X20488904Y25046310D01*
X20450809Y25160596D01*
X20374619Y25236786D01*
X20298428Y25274881D01*
X20146047Y25312977D01*
X20031761Y25312977D01*
X19879380Y25274881D01*
X19803190Y25236786D01*
X19727000Y25160596D01*
X19688904Y25046310D01*
X19688904Y24970120D01*
X19727000Y24855834D01*
X19765095Y24817739D01*
X19765095Y24512977D02*
X19727000Y24474881D01*
X19688904Y24398691D01*
X19688904Y24208215D01*
X19727000Y24132024D01*
X19765095Y24093929D01*
X19841285Y24055834D01*
X19917476Y24055834D01*
X20031761Y24093929D01*
X20488904Y24551072D01*
X20488904Y24055834D01*
X19765095Y23751072D02*
X19727000Y23712977D01*
X19688904Y23636786D01*
X19688904Y23446310D01*
X19727000Y23370120D01*
X19765095Y23332024D01*
X19841285Y23293929D01*
X19917476Y23293929D01*
X20031761Y23332024D01*
X20488904Y23789167D01*
X20488904Y23293929D01*
X20488904Y22532024D02*
X20488904Y22989167D01*
X20488904Y22760596D02*
X19688904Y22760596D01*
X19803190Y22836786D01*
X19879380Y22912977D01*
X19917476Y22989167D01*
X17944142Y15453048D02*
X17991761Y15500667D01*
X18039380Y15643524D01*
X18039380Y15738762D01*
X17991761Y15881620D01*
X17896523Y15976858D01*
X17801285Y16024477D01*
X17610809Y16072096D01*
X17467952Y16072096D01*
X17277476Y16024477D01*
X17182238Y15976858D01*
X17087000Y15881620D01*
X17039380Y15738762D01*
X17039380Y15643524D01*
X17087000Y15500667D01*
X17134619Y15453048D01*
X17039380Y14595905D02*
X17039380Y14786381D01*
X17087000Y14881620D01*
X17134619Y14929239D01*
X17277476Y15024477D01*
X17467952Y15072096D01*
X17848904Y15072096D01*
X17944142Y15024477D01*
X17991761Y14976858D01*
X18039380Y14881620D01*
X18039380Y14691143D01*
X17991761Y14595905D01*
X17944142Y14548286D01*
X17848904Y14500667D01*
X17610809Y14500667D01*
X17515571Y14548286D01*
X17467952Y14595905D01*
X17420333Y14691143D01*
X17420333Y14881620D01*
X17467952Y14976858D01*
X17515571Y15024477D01*
X17610809Y15072096D01*
X17039380Y13881620D02*
X17039380Y13786381D01*
X17087000Y13691143D01*
X17134619Y13643524D01*
X17229857Y13595905D01*
X17420333Y13548286D01*
X17658428Y13548286D01*
X17848904Y13595905D01*
X17944142Y13643524D01*
X17991761Y13691143D01*
X18039380Y13786381D01*
X18039380Y13881620D01*
X17991761Y13976858D01*
X17944142Y14024477D01*
X17848904Y14072096D01*
X17658428Y14119715D01*
X17420333Y14119715D01*
X17229857Y14072096D01*
X17134619Y14024477D01*
X17087000Y13976858D01*
X17039380Y13881620D01*
X18039380Y12595905D02*
X18039380Y13167334D01*
X18039380Y12881620D02*
X17039380Y12881620D01*
X17182238Y12976858D01*
X17277476Y13072096D01*
X17325095Y13167334D01*
X16547142Y37678048D02*
X16594761Y37725667D01*
X16642380Y37868524D01*
X16642380Y37963762D01*
X16594761Y38106620D01*
X16499523Y38201858D01*
X16404285Y38249477D01*
X16213809Y38297096D01*
X16070952Y38297096D01*
X15880476Y38249477D01*
X15785238Y38201858D01*
X15690000Y38106620D01*
X15642380Y37963762D01*
X15642380Y37868524D01*
X15690000Y37725667D01*
X15737619Y37678048D01*
X15642380Y36773286D02*
X15642380Y37249477D01*
X16118571Y37297096D01*
X16070952Y37249477D01*
X16023333Y37154239D01*
X16023333Y36916143D01*
X16070952Y36820905D01*
X16118571Y36773286D01*
X16213809Y36725667D01*
X16451904Y36725667D01*
X16547142Y36773286D01*
X16594761Y36820905D01*
X16642380Y36916143D01*
X16642380Y37154239D01*
X16594761Y37249477D01*
X16547142Y37297096D01*
X15642380Y36106620D02*
X15642380Y36011381D01*
X15690000Y35916143D01*
X15737619Y35868524D01*
X15832857Y35820905D01*
X16023333Y35773286D01*
X16261428Y35773286D01*
X16451904Y35820905D01*
X16547142Y35868524D01*
X16594761Y35916143D01*
X16642380Y36011381D01*
X16642380Y36106620D01*
X16594761Y36201858D01*
X16547142Y36249477D01*
X16451904Y36297096D01*
X16261428Y36344715D01*
X16023333Y36344715D01*
X15832857Y36297096D01*
X15737619Y36249477D01*
X15690000Y36201858D01*
X15642380Y36106620D01*
X15737619Y35392334D02*
X15690000Y35344715D01*
X15642380Y35249477D01*
X15642380Y35011381D01*
X15690000Y34916143D01*
X15737619Y34868524D01*
X15832857Y34820905D01*
X15928095Y34820905D01*
X16070952Y34868524D01*
X16642380Y35439953D01*
X16642380Y34820905D01*
X16158214Y30342239D02*
X16196309Y30380334D01*
X16234404Y30494620D01*
X16234404Y30570810D01*
X16196309Y30685096D01*
X16120119Y30761286D01*
X16043928Y30799381D01*
X15891547Y30837477D01*
X15777261Y30837477D01*
X15624880Y30799381D01*
X15548690Y30761286D01*
X15472500Y30685096D01*
X15434404Y30570810D01*
X15434404Y30494620D01*
X15472500Y30380334D01*
X15510595Y30342239D01*
X15510595Y30037477D02*
X15472500Y29999381D01*
X15434404Y29923191D01*
X15434404Y29732715D01*
X15472500Y29656524D01*
X15510595Y29618429D01*
X15586785Y29580334D01*
X15662976Y29580334D01*
X15777261Y29618429D01*
X16234404Y30075572D01*
X16234404Y29580334D01*
X15434404Y29313667D02*
X15434404Y28818429D01*
X15739166Y29085096D01*
X15739166Y28970810D01*
X15777261Y28894620D01*
X15815357Y28856524D01*
X15891547Y28818429D01*
X16082023Y28818429D01*
X16158214Y28856524D01*
X16196309Y28894620D01*
X16234404Y28970810D01*
X16234404Y29199381D01*
X16196309Y29275572D01*
X16158214Y29313667D01*
X16234404Y28056524D02*
X16234404Y28513667D01*
X16234404Y28285096D02*
X15434404Y28285096D01*
X15548690Y28361286D01*
X15624880Y28437477D01*
X15662976Y28513667D01*
X40389738Y17921786D02*
X40427833Y17883691D01*
X40542119Y17845596D01*
X40618309Y17845596D01*
X40732595Y17883691D01*
X40808785Y17959881D01*
X40846880Y18036072D01*
X40884976Y18188453D01*
X40884976Y18302739D01*
X40846880Y18455120D01*
X40808785Y18531310D01*
X40732595Y18607500D01*
X40618309Y18645596D01*
X40542119Y18645596D01*
X40427833Y18607500D01*
X40389738Y18569405D01*
X40084976Y18569405D02*
X40046880Y18607500D01*
X39970690Y18645596D01*
X39780214Y18645596D01*
X39704023Y18607500D01*
X39665928Y18569405D01*
X39627833Y18493215D01*
X39627833Y18417024D01*
X39665928Y18302739D01*
X40123071Y17845596D01*
X39627833Y17845596D01*
X39361166Y18645596D02*
X38865928Y18645596D01*
X39132595Y18340834D01*
X39018309Y18340834D01*
X38942119Y18302739D01*
X38904023Y18264643D01*
X38865928Y18188453D01*
X38865928Y17997977D01*
X38904023Y17921786D01*
X38942119Y17883691D01*
X39018309Y17845596D01*
X39246880Y17845596D01*
X39323071Y17883691D01*
X39361166Y17921786D01*
X38561166Y18569405D02*
X38523071Y18607500D01*
X38446880Y18645596D01*
X38256404Y18645596D01*
X38180214Y18607500D01*
X38142119Y18569405D01*
X38104023Y18493215D01*
X38104023Y18417024D01*
X38142119Y18302739D01*
X38599261Y17845596D01*
X38104023Y17845596D01*
X8093714Y29326239D02*
X8131809Y29364334D01*
X8169904Y29478620D01*
X8169904Y29554810D01*
X8131809Y29669096D01*
X8055619Y29745286D01*
X7979428Y29783381D01*
X7827047Y29821477D01*
X7712761Y29821477D01*
X7560380Y29783381D01*
X7484190Y29745286D01*
X7408000Y29669096D01*
X7369904Y29554810D01*
X7369904Y29478620D01*
X7408000Y29364334D01*
X7446095Y29326239D01*
X7369904Y29059572D02*
X7369904Y28564334D01*
X7674666Y28831000D01*
X7674666Y28716715D01*
X7712761Y28640524D01*
X7750857Y28602429D01*
X7827047Y28564334D01*
X8017523Y28564334D01*
X8093714Y28602429D01*
X8131809Y28640524D01*
X8169904Y28716715D01*
X8169904Y28945286D01*
X8131809Y29021477D01*
X8093714Y29059572D01*
X7369904Y28069096D02*
X7369904Y27992905D01*
X7408000Y27916715D01*
X7446095Y27878620D01*
X7522285Y27840524D01*
X7674666Y27802429D01*
X7865142Y27802429D01*
X8017523Y27840524D01*
X8093714Y27878620D01*
X8131809Y27916715D01*
X8169904Y27992905D01*
X8169904Y28069096D01*
X8131809Y28145286D01*
X8093714Y28183381D01*
X8017523Y28221477D01*
X7865142Y28259572D01*
X7674666Y28259572D01*
X7522285Y28221477D01*
X7446095Y28183381D01*
X7408000Y28145286D01*
X7369904Y28069096D01*
X7369904Y27116715D02*
X7369904Y27269096D01*
X7408000Y27345286D01*
X7446095Y27383381D01*
X7560380Y27459572D01*
X7712761Y27497667D01*
X8017523Y27497667D01*
X8093714Y27459572D01*
X8131809Y27421477D01*
X8169904Y27345286D01*
X8169904Y27192905D01*
X8131809Y27116715D01*
X8093714Y27078620D01*
X8017523Y27040524D01*
X7827047Y27040524D01*
X7750857Y27078620D01*
X7712761Y27116715D01*
X7674666Y27192905D01*
X7674666Y27345286D01*
X7712761Y27421477D01*
X7750857Y27459572D01*
X7827047Y27497667D01*
X12195738Y21412286D02*
X12233833Y21374191D01*
X12348119Y21336096D01*
X12424309Y21336096D01*
X12538595Y21374191D01*
X12614785Y21450381D01*
X12652880Y21526572D01*
X12690976Y21678953D01*
X12690976Y21793239D01*
X12652880Y21945620D01*
X12614785Y22021810D01*
X12538595Y22098000D01*
X12424309Y22136096D01*
X12348119Y22136096D01*
X12233833Y22098000D01*
X12195738Y22059905D01*
X11929071Y22136096D02*
X11433833Y22136096D01*
X11700500Y21831334D01*
X11586214Y21831334D01*
X11510023Y21793239D01*
X11471928Y21755143D01*
X11433833Y21678953D01*
X11433833Y21488477D01*
X11471928Y21412286D01*
X11510023Y21374191D01*
X11586214Y21336096D01*
X11814785Y21336096D01*
X11890976Y21374191D01*
X11929071Y21412286D01*
X10671928Y21336096D02*
X11129071Y21336096D01*
X10900500Y21336096D02*
X10900500Y22136096D01*
X10976690Y22021810D01*
X11052880Y21945620D01*
X11129071Y21907524D01*
X10176690Y22136096D02*
X10100500Y22136096D01*
X10024309Y22098000D01*
X9986214Y22059905D01*
X9948119Y21983715D01*
X9910023Y21831334D01*
X9910023Y21640858D01*
X9948119Y21488477D01*
X9986214Y21412286D01*
X10024309Y21374191D01*
X10100500Y21336096D01*
X10176690Y21336096D01*
X10252880Y21374191D01*
X10290976Y21412286D01*
X10329071Y21488477D01*
X10367166Y21640858D01*
X10367166Y21831334D01*
X10329071Y21983715D01*
X10290976Y22059905D01*
X10252880Y22098000D01*
X10176690Y22136096D01*
X22101738Y48592286D02*
X22139833Y48554191D01*
X22254119Y48516096D01*
X22330309Y48516096D01*
X22444595Y48554191D01*
X22520785Y48630381D01*
X22558880Y48706572D01*
X22596976Y48858953D01*
X22596976Y48973239D01*
X22558880Y49125620D01*
X22520785Y49201810D01*
X22444595Y49278000D01*
X22330309Y49316096D01*
X22254119Y49316096D01*
X22139833Y49278000D01*
X22101738Y49239905D01*
X21416023Y49049429D02*
X21416023Y48516096D01*
X21606500Y49354191D02*
X21796976Y48782762D01*
X21301738Y48782762D01*
X20844595Y49316096D02*
X20768404Y49316096D01*
X20692214Y49278000D01*
X20654119Y49239905D01*
X20616023Y49163715D01*
X20577928Y49011334D01*
X20577928Y48820858D01*
X20616023Y48668477D01*
X20654119Y48592286D01*
X20692214Y48554191D01*
X20768404Y48516096D01*
X20844595Y48516096D01*
X20920785Y48554191D01*
X20958880Y48592286D01*
X20996976Y48668477D01*
X21035071Y48820858D01*
X21035071Y49011334D01*
X20996976Y49163715D01*
X20958880Y49239905D01*
X20920785Y49278000D01*
X20844595Y49316096D01*
X20273166Y49239905D02*
X20235071Y49278000D01*
X20158880Y49316096D01*
X19968404Y49316096D01*
X19892214Y49278000D01*
X19854119Y49239905D01*
X19816023Y49163715D01*
X19816023Y49087524D01*
X19854119Y48973239D01*
X20311261Y48516096D01*
X19816023Y48516096D01*
X10337904Y15322429D02*
X10985523Y15322429D01*
X11061714Y15284334D01*
X11099809Y15246239D01*
X11137904Y15170048D01*
X11137904Y15017667D01*
X11099809Y14941477D01*
X11061714Y14903381D01*
X10985523Y14865286D01*
X10337904Y14865286D01*
X10337904Y14141477D02*
X10337904Y14293858D01*
X10376000Y14370048D01*
X10414095Y14408143D01*
X10528380Y14484334D01*
X10680761Y14522429D01*
X10985523Y14522429D01*
X11061714Y14484334D01*
X11099809Y14446239D01*
X11137904Y14370048D01*
X11137904Y14217667D01*
X11099809Y14141477D01*
X11061714Y14103381D01*
X10985523Y14065286D01*
X10795047Y14065286D01*
X10718857Y14103381D01*
X10680761Y14141477D01*
X10642666Y14217667D01*
X10642666Y14370048D01*
X10680761Y14446239D01*
X10718857Y14484334D01*
X10795047Y14522429D01*
X10337904Y13570048D02*
X10337904Y13493858D01*
X10376000Y13417667D01*
X10414095Y13379572D01*
X10490285Y13341477D01*
X10642666Y13303381D01*
X10833142Y13303381D01*
X10985523Y13341477D01*
X11061714Y13379572D01*
X11099809Y13417667D01*
X11137904Y13493858D01*
X11137904Y13570048D01*
X11099809Y13646239D01*
X11061714Y13684334D01*
X10985523Y13722429D01*
X10833142Y13760524D01*
X10642666Y13760524D01*
X10490285Y13722429D01*
X10414095Y13684334D01*
X10376000Y13646239D01*
X10337904Y13570048D01*
X11137904Y12541477D02*
X11137904Y12998620D01*
X11137904Y12770048D02*
X10337904Y12770048D01*
X10452190Y12846239D01*
X10528380Y12922429D01*
X10566476Y12998620D01*
X30644047Y32643858D02*
X30691666Y32596239D01*
X30834523Y32548620D01*
X30929761Y32548620D01*
X31072619Y32596239D01*
X31167857Y32691477D01*
X31215476Y32786715D01*
X31263095Y32977191D01*
X31263095Y33120048D01*
X31215476Y33310524D01*
X31167857Y33405762D01*
X31072619Y33501000D01*
X30929761Y33548620D01*
X30834523Y33548620D01*
X30691666Y33501000D01*
X30644047Y33453381D01*
X29739285Y33548620D02*
X30215476Y33548620D01*
X30263095Y33072429D01*
X30215476Y33120048D01*
X30120238Y33167667D01*
X29882142Y33167667D01*
X29786904Y33120048D01*
X29739285Y33072429D01*
X29691666Y32977191D01*
X29691666Y32739096D01*
X29739285Y32643858D01*
X29786904Y32596239D01*
X29882142Y32548620D01*
X30120238Y32548620D01*
X30215476Y32596239D01*
X30263095Y32643858D01*
X29072619Y33548620D02*
X28977380Y33548620D01*
X28882142Y33501000D01*
X28834523Y33453381D01*
X28786904Y33358143D01*
X28739285Y33167667D01*
X28739285Y32929572D01*
X28786904Y32739096D01*
X28834523Y32643858D01*
X28882142Y32596239D01*
X28977380Y32548620D01*
X29072619Y32548620D01*
X29167857Y32596239D01*
X29215476Y32643858D01*
X29263095Y32739096D01*
X29310714Y32929572D01*
X29310714Y33167667D01*
X29263095Y33358143D01*
X29215476Y33453381D01*
X29167857Y33501000D01*
X29072619Y33548620D01*
X27882142Y33215286D02*
X27882142Y32548620D01*
X28120238Y33596239D02*
X28358333Y32881953D01*
X27739285Y32881953D01*
X41343380Y17062286D02*
X42152904Y17062286D01*
X42248142Y17014667D01*
X42295761Y16967048D01*
X42343380Y16871810D01*
X42343380Y16681334D01*
X42295761Y16586096D01*
X42248142Y16538477D01*
X42152904Y16490858D01*
X41343380Y16490858D01*
X41438619Y16062286D02*
X41391000Y16014667D01*
X41343380Y15919429D01*
X41343380Y15681334D01*
X41391000Y15586096D01*
X41438619Y15538477D01*
X41533857Y15490858D01*
X41629095Y15490858D01*
X41771952Y15538477D01*
X42343380Y16109905D01*
X42343380Y15490858D01*
X41343380Y14871810D02*
X41343380Y14776572D01*
X41391000Y14681334D01*
X41438619Y14633715D01*
X41533857Y14586096D01*
X41724333Y14538477D01*
X41962428Y14538477D01*
X42152904Y14586096D01*
X42248142Y14633715D01*
X42295761Y14681334D01*
X42343380Y14776572D01*
X42343380Y14871810D01*
X42295761Y14967048D01*
X42248142Y15014667D01*
X42152904Y15062286D01*
X41962428Y15109905D01*
X41724333Y15109905D01*
X41533857Y15062286D01*
X41438619Y15014667D01*
X41391000Y14967048D01*
X41343380Y14871810D01*
X41438619Y14157524D02*
X41391000Y14109905D01*
X41343380Y14014667D01*
X41343380Y13776572D01*
X41391000Y13681334D01*
X41438619Y13633715D01*
X41533857Y13586096D01*
X41629095Y13586096D01*
X41771952Y13633715D01*
X42343380Y14205143D01*
X42343380Y13586096D01*
X15662904Y19991739D02*
X15281952Y20258405D01*
X15662904Y20448881D02*
X14862904Y20448881D01*
X14862904Y20144120D01*
X14901000Y20067929D01*
X14939095Y20029834D01*
X15015285Y19991739D01*
X15129571Y19991739D01*
X15205761Y20029834D01*
X15243857Y20067929D01*
X15281952Y20144120D01*
X15281952Y20448881D01*
X14862904Y19267929D02*
X14862904Y19648881D01*
X15243857Y19686977D01*
X15205761Y19648881D01*
X15167666Y19572691D01*
X15167666Y19382215D01*
X15205761Y19306024D01*
X15243857Y19267929D01*
X15320047Y19229834D01*
X15510523Y19229834D01*
X15586714Y19267929D01*
X15624809Y19306024D01*
X15662904Y19382215D01*
X15662904Y19572691D01*
X15624809Y19648881D01*
X15586714Y19686977D01*
X15662904Y18467929D02*
X15662904Y18925072D01*
X15662904Y18696500D02*
X14862904Y18696500D01*
X14977190Y18772691D01*
X15053380Y18848881D01*
X15091476Y18925072D01*
X14862904Y18201262D02*
X14862904Y17706024D01*
X15167666Y17972691D01*
X15167666Y17858405D01*
X15205761Y17782215D01*
X15243857Y17744120D01*
X15320047Y17706024D01*
X15510523Y17706024D01*
X15586714Y17744120D01*
X15624809Y17782215D01*
X15662904Y17858405D01*
X15662904Y18086977D01*
X15624809Y18163167D01*
X15586714Y18201262D01*
X22901904Y19928239D02*
X22520952Y20194905D01*
X22901904Y20385381D02*
X22101904Y20385381D01*
X22101904Y20080620D01*
X22140000Y20004429D01*
X22178095Y19966334D01*
X22254285Y19928239D01*
X22368571Y19928239D01*
X22444761Y19966334D01*
X22482857Y20004429D01*
X22520952Y20080620D01*
X22520952Y20385381D01*
X22101904Y19204429D02*
X22101904Y19585381D01*
X22482857Y19623477D01*
X22444761Y19585381D01*
X22406666Y19509191D01*
X22406666Y19318715D01*
X22444761Y19242524D01*
X22482857Y19204429D01*
X22559047Y19166334D01*
X22749523Y19166334D01*
X22825714Y19204429D01*
X22863809Y19242524D01*
X22901904Y19318715D01*
X22901904Y19509191D01*
X22863809Y19585381D01*
X22825714Y19623477D01*
X22178095Y18861572D02*
X22140000Y18823477D01*
X22101904Y18747286D01*
X22101904Y18556810D01*
X22140000Y18480620D01*
X22178095Y18442524D01*
X22254285Y18404429D01*
X22330476Y18404429D01*
X22444761Y18442524D01*
X22901904Y18899667D01*
X22901904Y18404429D01*
X22101904Y17680620D02*
X22101904Y18061572D01*
X22482857Y18099667D01*
X22444761Y18061572D01*
X22406666Y17985381D01*
X22406666Y17794905D01*
X22444761Y17718715D01*
X22482857Y17680620D01*
X22559047Y17642524D01*
X22749523Y17642524D01*
X22825714Y17680620D01*
X22863809Y17718715D01*
X22901904Y17794905D01*
X22901904Y17985381D01*
X22863809Y18061572D01*
X22825714Y18099667D01*
X20425404Y20182239D02*
X20044452Y20448905D01*
X20425404Y20639381D02*
X19625404Y20639381D01*
X19625404Y20334620D01*
X19663500Y20258429D01*
X19701595Y20220334D01*
X19777785Y20182239D01*
X19892071Y20182239D01*
X19968261Y20220334D01*
X20006357Y20258429D01*
X20044452Y20334620D01*
X20044452Y20639381D01*
X19625404Y19458429D02*
X19625404Y19839381D01*
X20006357Y19877477D01*
X19968261Y19839381D01*
X19930166Y19763191D01*
X19930166Y19572715D01*
X19968261Y19496524D01*
X20006357Y19458429D01*
X20082547Y19420334D01*
X20273023Y19420334D01*
X20349214Y19458429D01*
X20387309Y19496524D01*
X20425404Y19572715D01*
X20425404Y19763191D01*
X20387309Y19839381D01*
X20349214Y19877477D01*
X19625404Y18925096D02*
X19625404Y18848905D01*
X19663500Y18772715D01*
X19701595Y18734620D01*
X19777785Y18696524D01*
X19930166Y18658429D01*
X20120642Y18658429D01*
X20273023Y18696524D01*
X20349214Y18734620D01*
X20387309Y18772715D01*
X20425404Y18848905D01*
X20425404Y18925096D01*
X20387309Y19001286D01*
X20349214Y19039381D01*
X20273023Y19077477D01*
X20120642Y19115572D01*
X19930166Y19115572D01*
X19777785Y19077477D01*
X19701595Y19039381D01*
X19663500Y19001286D01*
X19625404Y18925096D01*
X19625404Y17934620D02*
X19625404Y18315572D01*
X20006357Y18353667D01*
X19968261Y18315572D01*
X19930166Y18239381D01*
X19930166Y18048905D01*
X19968261Y17972715D01*
X20006357Y17934620D01*
X20082547Y17896524D01*
X20273023Y17896524D01*
X20349214Y17934620D01*
X20387309Y17972715D01*
X20425404Y18048905D01*
X20425404Y18239381D01*
X20387309Y18315572D01*
X20349214Y18353667D01*
X24616404Y23166739D02*
X24235452Y23433405D01*
X24616404Y23623881D02*
X23816404Y23623881D01*
X23816404Y23319120D01*
X23854500Y23242929D01*
X23892595Y23204834D01*
X23968785Y23166739D01*
X24083071Y23166739D01*
X24159261Y23204834D01*
X24197357Y23242929D01*
X24235452Y23319120D01*
X24235452Y23623881D01*
X23816404Y22442929D02*
X23816404Y22823881D01*
X24197357Y22861977D01*
X24159261Y22823881D01*
X24121166Y22747691D01*
X24121166Y22557215D01*
X24159261Y22481024D01*
X24197357Y22442929D01*
X24273547Y22404834D01*
X24464023Y22404834D01*
X24540214Y22442929D01*
X24578309Y22481024D01*
X24616404Y22557215D01*
X24616404Y22747691D01*
X24578309Y22823881D01*
X24540214Y22861977D01*
X23816404Y21909596D02*
X23816404Y21833405D01*
X23854500Y21757215D01*
X23892595Y21719120D01*
X23968785Y21681024D01*
X24121166Y21642929D01*
X24311642Y21642929D01*
X24464023Y21681024D01*
X24540214Y21719120D01*
X24578309Y21757215D01*
X24616404Y21833405D01*
X24616404Y21909596D01*
X24578309Y21985786D01*
X24540214Y22023881D01*
X24464023Y22061977D01*
X24311642Y22100072D01*
X24121166Y22100072D01*
X23968785Y22061977D01*
X23892595Y22023881D01*
X23854500Y21985786D01*
X23816404Y21909596D01*
X24616404Y21261977D02*
X24616404Y21109596D01*
X24578309Y21033405D01*
X24540214Y20995310D01*
X24425928Y20919120D01*
X24273547Y20881024D01*
X23968785Y20881024D01*
X23892595Y20919120D01*
X23854500Y20957215D01*
X23816404Y21033405D01*
X23816404Y21185786D01*
X23854500Y21261977D01*
X23892595Y21300072D01*
X23968785Y21338167D01*
X24159261Y21338167D01*
X24235452Y21300072D01*
X24273547Y21261977D01*
X24311642Y21185786D01*
X24311642Y21033405D01*
X24273547Y20957215D01*
X24235452Y20919120D01*
X24159261Y20881024D01*
X15624738Y21604786D02*
X15662833Y21566691D01*
X15777119Y21528596D01*
X15853309Y21528596D01*
X15967595Y21566691D01*
X16043785Y21642881D01*
X16081880Y21719072D01*
X16119976Y21871453D01*
X16119976Y21985739D01*
X16081880Y22138120D01*
X16043785Y22214310D01*
X15967595Y22290500D01*
X15853309Y22328596D01*
X15777119Y22328596D01*
X15662833Y22290500D01*
X15624738Y22252405D01*
X15319976Y22252405D02*
X15281880Y22290500D01*
X15205690Y22328596D01*
X15015214Y22328596D01*
X14939023Y22290500D01*
X14900928Y22252405D01*
X14862833Y22176215D01*
X14862833Y22100024D01*
X14900928Y21985739D01*
X15358071Y21528596D01*
X14862833Y21528596D01*
X14100928Y21528596D02*
X14558071Y21528596D01*
X14329500Y21528596D02*
X14329500Y22328596D01*
X14405690Y22214310D01*
X14481880Y22138120D01*
X14558071Y22100024D01*
X13719976Y21528596D02*
X13567595Y21528596D01*
X13491404Y21566691D01*
X13453309Y21604786D01*
X13377119Y21719072D01*
X13339023Y21871453D01*
X13339023Y22176215D01*
X13377119Y22252405D01*
X13415214Y22290500D01*
X13491404Y22328596D01*
X13643785Y22328596D01*
X13719976Y22290500D01*
X13758071Y22252405D01*
X13796166Y22176215D01*
X13796166Y21985739D01*
X13758071Y21909548D01*
X13719976Y21871453D01*
X13643785Y21833358D01*
X13491404Y21833358D01*
X13415214Y21871453D01*
X13377119Y21909548D01*
X13339023Y21985739D01*
X18148238Y7874096D02*
X18414904Y8255048D01*
X18605380Y7874096D02*
X18605380Y8674096D01*
X18300619Y8674096D01*
X18224428Y8636000D01*
X18186333Y8597905D01*
X18148238Y8521715D01*
X18148238Y8407429D01*
X18186333Y8331239D01*
X18224428Y8293143D01*
X18300619Y8255048D01*
X18605380Y8255048D01*
X17462523Y8674096D02*
X17614904Y8674096D01*
X17691095Y8636000D01*
X17729190Y8597905D01*
X17805380Y8483620D01*
X17843476Y8331239D01*
X17843476Y8026477D01*
X17805380Y7950286D01*
X17767285Y7912191D01*
X17691095Y7874096D01*
X17538714Y7874096D01*
X17462523Y7912191D01*
X17424428Y7950286D01*
X17386333Y8026477D01*
X17386333Y8216953D01*
X17424428Y8293143D01*
X17462523Y8331239D01*
X17538714Y8369334D01*
X17691095Y8369334D01*
X17767285Y8331239D01*
X17805380Y8293143D01*
X17843476Y8216953D01*
X16891095Y8674096D02*
X16814904Y8674096D01*
X16738714Y8636000D01*
X16700619Y8597905D01*
X16662523Y8521715D01*
X16624428Y8369334D01*
X16624428Y8178858D01*
X16662523Y8026477D01*
X16700619Y7950286D01*
X16738714Y7912191D01*
X16814904Y7874096D01*
X16891095Y7874096D01*
X16967285Y7912191D01*
X17005380Y7950286D01*
X17043476Y8026477D01*
X17081571Y8178858D01*
X17081571Y8369334D01*
X17043476Y8521715D01*
X17005380Y8597905D01*
X16967285Y8636000D01*
X16891095Y8674096D01*
X16167285Y8331239D02*
X16243476Y8369334D01*
X16281571Y8407429D01*
X16319666Y8483620D01*
X16319666Y8521715D01*
X16281571Y8597905D01*
X16243476Y8636000D01*
X16167285Y8674096D01*
X16014904Y8674096D01*
X15938714Y8636000D01*
X15900619Y8597905D01*
X15862523Y8521715D01*
X15862523Y8483620D01*
X15900619Y8407429D01*
X15938714Y8369334D01*
X16014904Y8331239D01*
X16167285Y8331239D01*
X16243476Y8293143D01*
X16281571Y8255048D01*
X16319666Y8178858D01*
X16319666Y8026477D01*
X16281571Y7950286D01*
X16243476Y7912191D01*
X16167285Y7874096D01*
X16014904Y7874096D01*
X15938714Y7912191D01*
X15900619Y7950286D01*
X15862523Y8026477D01*
X15862523Y8178858D01*
X15900619Y8255048D01*
X15938714Y8293143D01*
X16014904Y8331239D01*
X40819380Y42631048D02*
X40343190Y42964381D01*
X40819380Y43202477D02*
X39819380Y43202477D01*
X39819380Y42821524D01*
X39867000Y42726286D01*
X39914619Y42678667D01*
X40009857Y42631048D01*
X40152714Y42631048D01*
X40247952Y42678667D01*
X40295571Y42726286D01*
X40343190Y42821524D01*
X40343190Y43202477D01*
X39819380Y41726286D02*
X39819380Y42202477D01*
X40295571Y42250096D01*
X40247952Y42202477D01*
X40200333Y42107239D01*
X40200333Y41869143D01*
X40247952Y41773905D01*
X40295571Y41726286D01*
X40390809Y41678667D01*
X40628904Y41678667D01*
X40724142Y41726286D01*
X40771761Y41773905D01*
X40819380Y41869143D01*
X40819380Y42107239D01*
X40771761Y42202477D01*
X40724142Y42250096D01*
X39914619Y41297715D02*
X39867000Y41250096D01*
X39819380Y41154858D01*
X39819380Y40916762D01*
X39867000Y40821524D01*
X39914619Y40773905D01*
X40009857Y40726286D01*
X40105095Y40726286D01*
X40247952Y40773905D01*
X40819380Y41345334D01*
X40819380Y40726286D01*
X39819380Y39869143D02*
X39819380Y40059620D01*
X39867000Y40154858D01*
X39914619Y40202477D01*
X40057476Y40297715D01*
X40247952Y40345334D01*
X40628904Y40345334D01*
X40724142Y40297715D01*
X40771761Y40250096D01*
X40819380Y40154858D01*
X40819380Y39964381D01*
X40771761Y39869143D01*
X40724142Y39821524D01*
X40628904Y39773905D01*
X40390809Y39773905D01*
X40295571Y39821524D01*
X40247952Y39869143D01*
X40200333Y39964381D01*
X40200333Y40154858D01*
X40247952Y40250096D01*
X40295571Y40297715D01*
X40390809Y40345334D01*
X3902714Y18912239D02*
X3940809Y18950334D01*
X3978904Y19064620D01*
X3978904Y19140810D01*
X3940809Y19255096D01*
X3864619Y19331286D01*
X3788428Y19369381D01*
X3636047Y19407477D01*
X3521761Y19407477D01*
X3369380Y19369381D01*
X3293190Y19331286D01*
X3217000Y19255096D01*
X3178904Y19140810D01*
X3178904Y19064620D01*
X3217000Y18950334D01*
X3255095Y18912239D01*
X3178904Y18645572D02*
X3178904Y18150334D01*
X3483666Y18417000D01*
X3483666Y18302715D01*
X3521761Y18226524D01*
X3559857Y18188429D01*
X3636047Y18150334D01*
X3826523Y18150334D01*
X3902714Y18188429D01*
X3940809Y18226524D01*
X3978904Y18302715D01*
X3978904Y18531286D01*
X3940809Y18607477D01*
X3902714Y18645572D01*
X3178904Y17655096D02*
X3178904Y17578905D01*
X3217000Y17502715D01*
X3255095Y17464620D01*
X3331285Y17426524D01*
X3483666Y17388429D01*
X3674142Y17388429D01*
X3826523Y17426524D01*
X3902714Y17464620D01*
X3940809Y17502715D01*
X3978904Y17578905D01*
X3978904Y17655096D01*
X3940809Y17731286D01*
X3902714Y17769381D01*
X3826523Y17807477D01*
X3674142Y17845572D01*
X3483666Y17845572D01*
X3331285Y17807477D01*
X3255095Y17769381D01*
X3217000Y17731286D01*
X3178904Y17655096D01*
X3978904Y16626524D02*
X3978904Y17083667D01*
X3978904Y16855096D02*
X3178904Y16855096D01*
X3293190Y16931286D01*
X3369380Y17007477D01*
X3407476Y17083667D01*
X1819904Y12879739D02*
X1438952Y13146405D01*
X1819904Y13336881D02*
X1019904Y13336881D01*
X1019904Y13032120D01*
X1058000Y12955929D01*
X1096095Y12917834D01*
X1172285Y12879739D01*
X1286571Y12879739D01*
X1362761Y12917834D01*
X1400857Y12955929D01*
X1438952Y13032120D01*
X1438952Y13336881D01*
X1019904Y12613072D02*
X1019904Y12117834D01*
X1324666Y12384500D01*
X1324666Y12270215D01*
X1362761Y12194024D01*
X1400857Y12155929D01*
X1477047Y12117834D01*
X1667523Y12117834D01*
X1743714Y12155929D01*
X1781809Y12194024D01*
X1819904Y12270215D01*
X1819904Y12498786D01*
X1781809Y12574977D01*
X1743714Y12613072D01*
X1019904Y11622596D02*
X1019904Y11546405D01*
X1058000Y11470215D01*
X1096095Y11432120D01*
X1172285Y11394024D01*
X1324666Y11355929D01*
X1515142Y11355929D01*
X1667523Y11394024D01*
X1743714Y11432120D01*
X1781809Y11470215D01*
X1819904Y11546405D01*
X1819904Y11622596D01*
X1781809Y11698786D01*
X1743714Y11736881D01*
X1667523Y11774977D01*
X1515142Y11813072D01*
X1324666Y11813072D01*
X1172285Y11774977D01*
X1096095Y11736881D01*
X1058000Y11698786D01*
X1019904Y11622596D01*
X1819904Y10594024D02*
X1819904Y11051167D01*
X1819904Y10822596D02*
X1019904Y10822596D01*
X1134190Y10898786D01*
X1210380Y10974977D01*
X1248476Y11051167D01*
X16539214Y33326739D02*
X16577309Y33364834D01*
X16615404Y33479120D01*
X16615404Y33555310D01*
X16577309Y33669596D01*
X16501119Y33745786D01*
X16424928Y33783881D01*
X16272547Y33821977D01*
X16158261Y33821977D01*
X16005880Y33783881D01*
X15929690Y33745786D01*
X15853500Y33669596D01*
X15815404Y33555310D01*
X15815404Y33479120D01*
X15853500Y33364834D01*
X15891595Y33326739D01*
X15815404Y32602929D02*
X15815404Y32983881D01*
X16196357Y33021977D01*
X16158261Y32983881D01*
X16120166Y32907691D01*
X16120166Y32717215D01*
X16158261Y32641024D01*
X16196357Y32602929D01*
X16272547Y32564834D01*
X16463023Y32564834D01*
X16539214Y32602929D01*
X16577309Y32641024D01*
X16615404Y32717215D01*
X16615404Y32907691D01*
X16577309Y32983881D01*
X16539214Y33021977D01*
X15815404Y32069596D02*
X15815404Y31993405D01*
X15853500Y31917215D01*
X15891595Y31879120D01*
X15967785Y31841024D01*
X16120166Y31802929D01*
X16310642Y31802929D01*
X16463023Y31841024D01*
X16539214Y31879120D01*
X16577309Y31917215D01*
X16615404Y31993405D01*
X16615404Y32069596D01*
X16577309Y32145786D01*
X16539214Y32183881D01*
X16463023Y32221977D01*
X16310642Y32260072D01*
X16120166Y32260072D01*
X15967785Y32221977D01*
X15891595Y32183881D01*
X15853500Y32145786D01*
X15815404Y32069596D01*
X16615404Y31041024D02*
X16615404Y31498167D01*
X16615404Y31269596D02*
X15815404Y31269596D01*
X15929690Y31345786D01*
X16005880Y31421977D01*
X16043976Y31498167D01*
X14697714Y26468739D02*
X14735809Y26506834D01*
X14773904Y26621120D01*
X14773904Y26697310D01*
X14735809Y26811596D01*
X14659619Y26887786D01*
X14583428Y26925881D01*
X14431047Y26963977D01*
X14316761Y26963977D01*
X14164380Y26925881D01*
X14088190Y26887786D01*
X14012000Y26811596D01*
X13973904Y26697310D01*
X13973904Y26621120D01*
X14012000Y26506834D01*
X14050095Y26468739D01*
X14050095Y26163977D02*
X14012000Y26125881D01*
X13973904Y26049691D01*
X13973904Y25859215D01*
X14012000Y25783024D01*
X14050095Y25744929D01*
X14126285Y25706834D01*
X14202476Y25706834D01*
X14316761Y25744929D01*
X14773904Y26202072D01*
X14773904Y25706834D01*
X14050095Y25402072D02*
X14012000Y25363977D01*
X13973904Y25287786D01*
X13973904Y25097310D01*
X14012000Y25021120D01*
X14050095Y24983024D01*
X14126285Y24944929D01*
X14202476Y24944929D01*
X14316761Y24983024D01*
X14773904Y25440167D01*
X14773904Y24944929D01*
X14316761Y24487786D02*
X14278666Y24563977D01*
X14240571Y24602072D01*
X14164380Y24640167D01*
X14126285Y24640167D01*
X14050095Y24602072D01*
X14012000Y24563977D01*
X13973904Y24487786D01*
X13973904Y24335405D01*
X14012000Y24259215D01*
X14050095Y24221120D01*
X14126285Y24183024D01*
X14164380Y24183024D01*
X14240571Y24221120D01*
X14278666Y24259215D01*
X14316761Y24335405D01*
X14316761Y24487786D01*
X14354857Y24563977D01*
X14392952Y24602072D01*
X14469142Y24640167D01*
X14621523Y24640167D01*
X14697714Y24602072D01*
X14735809Y24563977D01*
X14773904Y24487786D01*
X14773904Y24335405D01*
X14735809Y24259215D01*
X14697714Y24221120D01*
X14621523Y24183024D01*
X14469142Y24183024D01*
X14392952Y24221120D01*
X14354857Y24259215D01*
X14316761Y24335405D01*
X20996904Y30088239D02*
X20615952Y30354905D01*
X20996904Y30545381D02*
X20196904Y30545381D01*
X20196904Y30240620D01*
X20235000Y30164429D01*
X20273095Y30126334D01*
X20349285Y30088239D01*
X20463571Y30088239D01*
X20539761Y30126334D01*
X20577857Y30164429D01*
X20615952Y30240620D01*
X20615952Y30545381D01*
X20463571Y29402524D02*
X20996904Y29402524D01*
X20158809Y29593000D02*
X20730238Y29783477D01*
X20730238Y29288239D01*
X20196904Y28831096D02*
X20196904Y28754905D01*
X20235000Y28678715D01*
X20273095Y28640620D01*
X20349285Y28602524D01*
X20501666Y28564429D01*
X20692142Y28564429D01*
X20844523Y28602524D01*
X20920714Y28640620D01*
X20958809Y28678715D01*
X20996904Y28754905D01*
X20996904Y28831096D01*
X20958809Y28907286D01*
X20920714Y28945381D01*
X20844523Y28983477D01*
X20692142Y29021572D01*
X20501666Y29021572D01*
X20349285Y28983477D01*
X20273095Y28945381D01*
X20235000Y28907286D01*
X20196904Y28831096D01*
X20463571Y27878715D02*
X20996904Y27878715D01*
X20158809Y28069191D02*
X20730238Y28259667D01*
X20730238Y27764429D01*
X35739380Y43139048D02*
X35263190Y43472381D01*
X35739380Y43710477D02*
X34739380Y43710477D01*
X34739380Y43329524D01*
X34787000Y43234286D01*
X34834619Y43186667D01*
X34929857Y43139048D01*
X35072714Y43139048D01*
X35167952Y43186667D01*
X35215571Y43234286D01*
X35263190Y43329524D01*
X35263190Y43710477D01*
X34739380Y42234286D02*
X34739380Y42710477D01*
X35215571Y42758096D01*
X35167952Y42710477D01*
X35120333Y42615239D01*
X35120333Y42377143D01*
X35167952Y42281905D01*
X35215571Y42234286D01*
X35310809Y42186667D01*
X35548904Y42186667D01*
X35644142Y42234286D01*
X35691761Y42281905D01*
X35739380Y42377143D01*
X35739380Y42615239D01*
X35691761Y42710477D01*
X35644142Y42758096D01*
X35072714Y41329524D02*
X35739380Y41329524D01*
X34691761Y41567620D02*
X35406047Y41805715D01*
X35406047Y41186667D01*
X34739380Y40377143D02*
X34739380Y40567620D01*
X34787000Y40662858D01*
X34834619Y40710477D01*
X34977476Y40805715D01*
X35167952Y40853334D01*
X35548904Y40853334D01*
X35644142Y40805715D01*
X35691761Y40758096D01*
X35739380Y40662858D01*
X35739380Y40472381D01*
X35691761Y40377143D01*
X35644142Y40329524D01*
X35548904Y40281905D01*
X35310809Y40281905D01*
X35215571Y40329524D01*
X35167952Y40377143D01*
X35120333Y40472381D01*
X35120333Y40662858D01*
X35167952Y40758096D01*
X35215571Y40805715D01*
X35310809Y40853334D01*
X22182142Y37803048D02*
X22229761Y37850667D01*
X22277380Y37993524D01*
X22277380Y38088762D01*
X22229761Y38231620D01*
X22134523Y38326858D01*
X22039285Y38374477D01*
X21848809Y38422096D01*
X21705952Y38422096D01*
X21515476Y38374477D01*
X21420238Y38326858D01*
X21325000Y38231620D01*
X21277380Y38088762D01*
X21277380Y37993524D01*
X21325000Y37850667D01*
X21372619Y37803048D01*
X21277380Y36898286D02*
X21277380Y37374477D01*
X21753571Y37422096D01*
X21705952Y37374477D01*
X21658333Y37279239D01*
X21658333Y37041143D01*
X21705952Y36945905D01*
X21753571Y36898286D01*
X21848809Y36850667D01*
X22086904Y36850667D01*
X22182142Y36898286D01*
X22229761Y36945905D01*
X22277380Y37041143D01*
X22277380Y37279239D01*
X22229761Y37374477D01*
X22182142Y37422096D01*
X21277380Y36231620D02*
X21277380Y36136381D01*
X21325000Y36041143D01*
X21372619Y35993524D01*
X21467857Y35945905D01*
X21658333Y35898286D01*
X21896428Y35898286D01*
X22086904Y35945905D01*
X22182142Y35993524D01*
X22229761Y36041143D01*
X22277380Y36136381D01*
X22277380Y36231620D01*
X22229761Y36326858D01*
X22182142Y36374477D01*
X22086904Y36422096D01*
X21896428Y36469715D01*
X21658333Y36469715D01*
X21467857Y36422096D01*
X21372619Y36374477D01*
X21325000Y36326858D01*
X21277380Y36231620D01*
X21277380Y35564953D02*
X21277380Y34945905D01*
X21658333Y35279239D01*
X21658333Y35136381D01*
X21705952Y35041143D01*
X21753571Y34993524D01*
X21848809Y34945905D01*
X22086904Y34945905D01*
X22182142Y34993524D01*
X22229761Y35041143D01*
X22277380Y35136381D01*
X22277380Y35422096D01*
X22229761Y35517334D01*
X22182142Y35564953D01*
X31965904Y37579239D02*
X31584952Y37845905D01*
X31965904Y38036381D02*
X31165904Y38036381D01*
X31165904Y37731620D01*
X31204000Y37655429D01*
X31242095Y37617334D01*
X31318285Y37579239D01*
X31432571Y37579239D01*
X31508761Y37617334D01*
X31546857Y37655429D01*
X31584952Y37731620D01*
X31584952Y38036381D01*
X31165904Y36855429D02*
X31165904Y37236381D01*
X31546857Y37274477D01*
X31508761Y37236381D01*
X31470666Y37160191D01*
X31470666Y36969715D01*
X31508761Y36893524D01*
X31546857Y36855429D01*
X31623047Y36817334D01*
X31813523Y36817334D01*
X31889714Y36855429D01*
X31927809Y36893524D01*
X31965904Y36969715D01*
X31965904Y37160191D01*
X31927809Y37236381D01*
X31889714Y37274477D01*
X31165904Y36322096D02*
X31165904Y36245905D01*
X31204000Y36169715D01*
X31242095Y36131620D01*
X31318285Y36093524D01*
X31470666Y36055429D01*
X31661142Y36055429D01*
X31813523Y36093524D01*
X31889714Y36131620D01*
X31927809Y36169715D01*
X31965904Y36245905D01*
X31965904Y36322096D01*
X31927809Y36398286D01*
X31889714Y36436381D01*
X31813523Y36474477D01*
X31661142Y36512572D01*
X31470666Y36512572D01*
X31318285Y36474477D01*
X31242095Y36436381D01*
X31204000Y36398286D01*
X31165904Y36322096D01*
X31965904Y35293524D02*
X31965904Y35750667D01*
X31965904Y35522096D02*
X31165904Y35522096D01*
X31280190Y35598286D01*
X31356380Y35674477D01*
X31394476Y35750667D01*
X22912380Y42629048D02*
X22436190Y42962381D01*
X22912380Y43200477D02*
X21912380Y43200477D01*
X21912380Y42819524D01*
X21960000Y42724286D01*
X22007619Y42676667D01*
X22102857Y42629048D01*
X22245714Y42629048D01*
X22340952Y42676667D01*
X22388571Y42724286D01*
X22436190Y42819524D01*
X22436190Y43200477D01*
X21912380Y41724286D02*
X21912380Y42200477D01*
X22388571Y42248096D01*
X22340952Y42200477D01*
X22293333Y42105239D01*
X22293333Y41867143D01*
X22340952Y41771905D01*
X22388571Y41724286D01*
X22483809Y41676667D01*
X22721904Y41676667D01*
X22817142Y41724286D01*
X22864761Y41771905D01*
X22912380Y41867143D01*
X22912380Y42105239D01*
X22864761Y42200477D01*
X22817142Y42248096D01*
X22245714Y40819524D02*
X22912380Y40819524D01*
X21864761Y41057620D02*
X22579047Y41295715D01*
X22579047Y40676667D01*
X21912380Y39819524D02*
X21912380Y40295715D01*
X22388571Y40343334D01*
X22340952Y40295715D01*
X22293333Y40200477D01*
X22293333Y39962381D01*
X22340952Y39867143D01*
X22388571Y39819524D01*
X22483809Y39771905D01*
X22721904Y39771905D01*
X22817142Y39819524D01*
X22864761Y39867143D01*
X22912380Y39962381D01*
X22912380Y40200477D01*
X22864761Y40295715D01*
X22817142Y40343334D01*
X44872904Y27167239D02*
X44491952Y27433905D01*
X44872904Y27624381D02*
X44072904Y27624381D01*
X44072904Y27319620D01*
X44111000Y27243429D01*
X44149095Y27205334D01*
X44225285Y27167239D01*
X44339571Y27167239D01*
X44415761Y27205334D01*
X44453857Y27243429D01*
X44491952Y27319620D01*
X44491952Y27624381D01*
X44072904Y26443429D02*
X44072904Y26824381D01*
X44453857Y26862477D01*
X44415761Y26824381D01*
X44377666Y26748191D01*
X44377666Y26557715D01*
X44415761Y26481524D01*
X44453857Y26443429D01*
X44530047Y26405334D01*
X44720523Y26405334D01*
X44796714Y26443429D01*
X44834809Y26481524D01*
X44872904Y26557715D01*
X44872904Y26748191D01*
X44834809Y26824381D01*
X44796714Y26862477D01*
X44339571Y25719620D02*
X44872904Y25719620D01*
X44034809Y25910096D02*
X44606238Y26100572D01*
X44606238Y25605334D01*
X44072904Y25376762D02*
X44072904Y24843429D01*
X44872904Y25186286D01*
X10528238Y34863596D02*
X10794904Y35244548D01*
X10985380Y34863596D02*
X10985380Y35663596D01*
X10680619Y35663596D01*
X10604428Y35625500D01*
X10566333Y35587405D01*
X10528238Y35511215D01*
X10528238Y35396929D01*
X10566333Y35320739D01*
X10604428Y35282643D01*
X10680619Y35244548D01*
X10985380Y35244548D01*
X9804428Y35663596D02*
X10185380Y35663596D01*
X10223476Y35282643D01*
X10185380Y35320739D01*
X10109190Y35358834D01*
X9918714Y35358834D01*
X9842523Y35320739D01*
X9804428Y35282643D01*
X9766333Y35206453D01*
X9766333Y35015977D01*
X9804428Y34939786D01*
X9842523Y34901691D01*
X9918714Y34863596D01*
X10109190Y34863596D01*
X10185380Y34901691D01*
X10223476Y34939786D01*
X9080619Y35396929D02*
X9080619Y34863596D01*
X9271095Y35701691D02*
X9461571Y35130262D01*
X8966333Y35130262D01*
X8318714Y35396929D02*
X8318714Y34863596D01*
X8509190Y35701691D02*
X8699666Y35130262D01*
X8204428Y35130262D01*
X39881738Y28577096D02*
X40148404Y28958048D01*
X40338880Y28577096D02*
X40338880Y29377096D01*
X40034119Y29377096D01*
X39957928Y29339000D01*
X39919833Y29300905D01*
X39881738Y29224715D01*
X39881738Y29110429D01*
X39919833Y29034239D01*
X39957928Y28996143D01*
X40034119Y28958048D01*
X40338880Y28958048D01*
X39157928Y29377096D02*
X39538880Y29377096D01*
X39576976Y28996143D01*
X39538880Y29034239D01*
X39462690Y29072334D01*
X39272214Y29072334D01*
X39196023Y29034239D01*
X39157928Y28996143D01*
X39119833Y28919953D01*
X39119833Y28729477D01*
X39157928Y28653286D01*
X39196023Y28615191D01*
X39272214Y28577096D01*
X39462690Y28577096D01*
X39538880Y28615191D01*
X39576976Y28653286D01*
X38434119Y29110429D02*
X38434119Y28577096D01*
X38624595Y29415191D02*
X38815071Y28843762D01*
X38319833Y28843762D01*
X37900785Y29034239D02*
X37976976Y29072334D01*
X38015071Y29110429D01*
X38053166Y29186620D01*
X38053166Y29224715D01*
X38015071Y29300905D01*
X37976976Y29339000D01*
X37900785Y29377096D01*
X37748404Y29377096D01*
X37672214Y29339000D01*
X37634119Y29300905D01*
X37596023Y29224715D01*
X37596023Y29186620D01*
X37634119Y29110429D01*
X37672214Y29072334D01*
X37748404Y29034239D01*
X37900785Y29034239D01*
X37976976Y28996143D01*
X38015071Y28958048D01*
X38053166Y28881858D01*
X38053166Y28729477D01*
X38015071Y28653286D01*
X37976976Y28615191D01*
X37900785Y28577096D01*
X37748404Y28577096D01*
X37672214Y28615191D01*
X37634119Y28653286D01*
X37596023Y28729477D01*
X37596023Y28881858D01*
X37634119Y28958048D01*
X37672214Y28996143D01*
X37748404Y29034239D01*
X38279380Y42631048D02*
X37803190Y42964381D01*
X38279380Y43202477D02*
X37279380Y43202477D01*
X37279380Y42821524D01*
X37327000Y42726286D01*
X37374619Y42678667D01*
X37469857Y42631048D01*
X37612714Y42631048D01*
X37707952Y42678667D01*
X37755571Y42726286D01*
X37803190Y42821524D01*
X37803190Y43202477D01*
X37279380Y41726286D02*
X37279380Y42202477D01*
X37755571Y42250096D01*
X37707952Y42202477D01*
X37660333Y42107239D01*
X37660333Y41869143D01*
X37707952Y41773905D01*
X37755571Y41726286D01*
X37850809Y41678667D01*
X38088904Y41678667D01*
X38184142Y41726286D01*
X38231761Y41773905D01*
X38279380Y41869143D01*
X38279380Y42107239D01*
X38231761Y42202477D01*
X38184142Y42250096D01*
X37612714Y40821524D02*
X38279380Y40821524D01*
X37231761Y41059620D02*
X37946047Y41297715D01*
X37946047Y40678667D01*
X38279380Y40250096D02*
X38279380Y40059620D01*
X38231761Y39964381D01*
X38184142Y39916762D01*
X38041285Y39821524D01*
X37850809Y39773905D01*
X37469857Y39773905D01*
X37374619Y39821524D01*
X37327000Y39869143D01*
X37279380Y39964381D01*
X37279380Y40154858D01*
X37327000Y40250096D01*
X37374619Y40297715D01*
X37469857Y40345334D01*
X37707952Y40345334D01*
X37803190Y40297715D01*
X37850809Y40250096D01*
X37898428Y40154858D01*
X37898428Y39964381D01*
X37850809Y39869143D01*
X37803190Y39821524D01*
X37707952Y39773905D01*
X20107904Y42470739D02*
X19726952Y42737405D01*
X20107904Y42927881D02*
X19307904Y42927881D01*
X19307904Y42623120D01*
X19346000Y42546929D01*
X19384095Y42508834D01*
X19460285Y42470739D01*
X19574571Y42470739D01*
X19650761Y42508834D01*
X19688857Y42546929D01*
X19726952Y42623120D01*
X19726952Y42927881D01*
X19307904Y41746929D02*
X19307904Y42127881D01*
X19688857Y42165977D01*
X19650761Y42127881D01*
X19612666Y42051691D01*
X19612666Y41861215D01*
X19650761Y41785024D01*
X19688857Y41746929D01*
X19765047Y41708834D01*
X19955523Y41708834D01*
X20031714Y41746929D01*
X20069809Y41785024D01*
X20107904Y41861215D01*
X20107904Y42051691D01*
X20069809Y42127881D01*
X20031714Y42165977D01*
X19307904Y40985024D02*
X19307904Y41365977D01*
X19688857Y41404072D01*
X19650761Y41365977D01*
X19612666Y41289786D01*
X19612666Y41099310D01*
X19650761Y41023120D01*
X19688857Y40985024D01*
X19765047Y40946929D01*
X19955523Y40946929D01*
X20031714Y40985024D01*
X20069809Y41023120D01*
X20107904Y41099310D01*
X20107904Y41289786D01*
X20069809Y41365977D01*
X20031714Y41404072D01*
X19307904Y40451691D02*
X19307904Y40375500D01*
X19346000Y40299310D01*
X19384095Y40261215D01*
X19460285Y40223120D01*
X19612666Y40185024D01*
X19803142Y40185024D01*
X19955523Y40223120D01*
X20031714Y40261215D01*
X20069809Y40299310D01*
X20107904Y40375500D01*
X20107904Y40451691D01*
X20069809Y40527881D01*
X20031714Y40565977D01*
X19955523Y40604072D01*
X19803142Y40642167D01*
X19612666Y40642167D01*
X19460285Y40604072D01*
X19384095Y40565977D01*
X19346000Y40527881D01*
X19307904Y40451691D01*
X10655238Y37467096D02*
X10921904Y37848048D01*
X11112380Y37467096D02*
X11112380Y38267096D01*
X10807619Y38267096D01*
X10731428Y38229000D01*
X10693333Y38190905D01*
X10655238Y38114715D01*
X10655238Y38000429D01*
X10693333Y37924239D01*
X10731428Y37886143D01*
X10807619Y37848048D01*
X11112380Y37848048D01*
X9931428Y38267096D02*
X10312380Y38267096D01*
X10350476Y37886143D01*
X10312380Y37924239D01*
X10236190Y37962334D01*
X10045714Y37962334D01*
X9969523Y37924239D01*
X9931428Y37886143D01*
X9893333Y37809953D01*
X9893333Y37619477D01*
X9931428Y37543286D01*
X9969523Y37505191D01*
X10045714Y37467096D01*
X10236190Y37467096D01*
X10312380Y37505191D01*
X10350476Y37543286D01*
X9169523Y38267096D02*
X9550476Y38267096D01*
X9588571Y37886143D01*
X9550476Y37924239D01*
X9474285Y37962334D01*
X9283809Y37962334D01*
X9207619Y37924239D01*
X9169523Y37886143D01*
X9131428Y37809953D01*
X9131428Y37619477D01*
X9169523Y37543286D01*
X9207619Y37505191D01*
X9283809Y37467096D01*
X9474285Y37467096D01*
X9550476Y37505191D01*
X9588571Y37543286D01*
X8369523Y37467096D02*
X8826666Y37467096D01*
X8598095Y37467096D02*
X8598095Y38267096D01*
X8674285Y38152810D01*
X8750476Y38076620D01*
X8826666Y38038524D01*
X29897380Y25484048D02*
X29421190Y25817381D01*
X29897380Y26055477D02*
X28897380Y26055477D01*
X28897380Y25674524D01*
X28945000Y25579286D01*
X28992619Y25531667D01*
X29087857Y25484048D01*
X29230714Y25484048D01*
X29325952Y25531667D01*
X29373571Y25579286D01*
X29421190Y25674524D01*
X29421190Y26055477D01*
X28897380Y24579286D02*
X28897380Y25055477D01*
X29373571Y25103096D01*
X29325952Y25055477D01*
X29278333Y24960239D01*
X29278333Y24722143D01*
X29325952Y24626905D01*
X29373571Y24579286D01*
X29468809Y24531667D01*
X29706904Y24531667D01*
X29802142Y24579286D01*
X29849761Y24626905D01*
X29897380Y24722143D01*
X29897380Y24960239D01*
X29849761Y25055477D01*
X29802142Y25103096D01*
X28897380Y24198334D02*
X28897380Y23579286D01*
X29278333Y23912620D01*
X29278333Y23769762D01*
X29325952Y23674524D01*
X29373571Y23626905D01*
X29468809Y23579286D01*
X29706904Y23579286D01*
X29802142Y23626905D01*
X29849761Y23674524D01*
X29897380Y23769762D01*
X29897380Y24055477D01*
X29849761Y24150715D01*
X29802142Y24198334D01*
X28897380Y22674524D02*
X28897380Y23150715D01*
X29373571Y23198334D01*
X29325952Y23150715D01*
X29278333Y23055477D01*
X29278333Y22817381D01*
X29325952Y22722143D01*
X29373571Y22674524D01*
X29468809Y22626905D01*
X29706904Y22626905D01*
X29802142Y22674524D01*
X29849761Y22722143D01*
X29897380Y22817381D01*
X29897380Y23055477D01*
X29849761Y23150715D01*
X29802142Y23198334D01*
X10655238Y32323596D02*
X10921904Y32704548D01*
X11112380Y32323596D02*
X11112380Y33123596D01*
X10807619Y33123596D01*
X10731428Y33085500D01*
X10693333Y33047405D01*
X10655238Y32971215D01*
X10655238Y32856929D01*
X10693333Y32780739D01*
X10731428Y32742643D01*
X10807619Y32704548D01*
X11112380Y32704548D01*
X9931428Y33123596D02*
X10312380Y33123596D01*
X10350476Y32742643D01*
X10312380Y32780739D01*
X10236190Y32818834D01*
X10045714Y32818834D01*
X9969523Y32780739D01*
X9931428Y32742643D01*
X9893333Y32666453D01*
X9893333Y32475977D01*
X9931428Y32399786D01*
X9969523Y32361691D01*
X10045714Y32323596D01*
X10236190Y32323596D01*
X10312380Y32361691D01*
X10350476Y32399786D01*
X9398095Y33123596D02*
X9321904Y33123596D01*
X9245714Y33085500D01*
X9207619Y33047405D01*
X9169523Y32971215D01*
X9131428Y32818834D01*
X9131428Y32628358D01*
X9169523Y32475977D01*
X9207619Y32399786D01*
X9245714Y32361691D01*
X9321904Y32323596D01*
X9398095Y32323596D01*
X9474285Y32361691D01*
X9512380Y32399786D01*
X9550476Y32475977D01*
X9588571Y32628358D01*
X9588571Y32818834D01*
X9550476Y32971215D01*
X9512380Y33047405D01*
X9474285Y33085500D01*
X9398095Y33123596D01*
X8445714Y33123596D02*
X8598095Y33123596D01*
X8674285Y33085500D01*
X8712380Y33047405D01*
X8788571Y32933120D01*
X8826666Y32780739D01*
X8826666Y32475977D01*
X8788571Y32399786D01*
X8750476Y32361691D01*
X8674285Y32323596D01*
X8521904Y32323596D01*
X8445714Y32361691D01*
X8407619Y32399786D01*
X8369523Y32475977D01*
X8369523Y32666453D01*
X8407619Y32742643D01*
X8445714Y32780739D01*
X8521904Y32818834D01*
X8674285Y32818834D01*
X8750476Y32780739D01*
X8788571Y32742643D01*
X8826666Y32666453D01*
X42586904Y33961739D02*
X42205952Y34228405D01*
X42586904Y34418881D02*
X41786904Y34418881D01*
X41786904Y34114120D01*
X41825000Y34037929D01*
X41863095Y33999834D01*
X41939285Y33961739D01*
X42053571Y33961739D01*
X42129761Y33999834D01*
X42167857Y34037929D01*
X42205952Y34114120D01*
X42205952Y34418881D01*
X41786904Y33237929D02*
X41786904Y33618881D01*
X42167857Y33656977D01*
X42129761Y33618881D01*
X42091666Y33542691D01*
X42091666Y33352215D01*
X42129761Y33276024D01*
X42167857Y33237929D01*
X42244047Y33199834D01*
X42434523Y33199834D01*
X42510714Y33237929D01*
X42548809Y33276024D01*
X42586904Y33352215D01*
X42586904Y33542691D01*
X42548809Y33618881D01*
X42510714Y33656977D01*
X42586904Y32437929D02*
X42586904Y32895072D01*
X42586904Y32666500D02*
X41786904Y32666500D01*
X41901190Y32742691D01*
X41977380Y32818881D01*
X42015476Y32895072D01*
X42129761Y31980786D02*
X42091666Y32056977D01*
X42053571Y32095072D01*
X41977380Y32133167D01*
X41939285Y32133167D01*
X41863095Y32095072D01*
X41825000Y32056977D01*
X41786904Y31980786D01*
X41786904Y31828405D01*
X41825000Y31752215D01*
X41863095Y31714120D01*
X41939285Y31676024D01*
X41977380Y31676024D01*
X42053571Y31714120D01*
X42091666Y31752215D01*
X42129761Y31828405D01*
X42129761Y31980786D01*
X42167857Y32056977D01*
X42205952Y32095072D01*
X42282142Y32133167D01*
X42434523Y32133167D01*
X42510714Y32095072D01*
X42548809Y32056977D01*
X42586904Y31980786D01*
X42586904Y31828405D01*
X42548809Y31752215D01*
X42510714Y31714120D01*
X42434523Y31676024D01*
X42282142Y31676024D01*
X42205952Y31714120D01*
X42167857Y31752215D01*
X42129761Y31828405D01*
X41740047Y35850620D02*
X42073380Y36326810D01*
X42311476Y35850620D02*
X42311476Y36850620D01*
X41930523Y36850620D01*
X41835285Y36803000D01*
X41787666Y36755381D01*
X41740047Y36660143D01*
X41740047Y36517286D01*
X41787666Y36422048D01*
X41835285Y36374429D01*
X41930523Y36326810D01*
X42311476Y36326810D01*
X40835285Y36850620D02*
X41311476Y36850620D01*
X41359095Y36374429D01*
X41311476Y36422048D01*
X41216238Y36469667D01*
X40978142Y36469667D01*
X40882904Y36422048D01*
X40835285Y36374429D01*
X40787666Y36279191D01*
X40787666Y36041096D01*
X40835285Y35945858D01*
X40882904Y35898239D01*
X40978142Y35850620D01*
X41216238Y35850620D01*
X41311476Y35898239D01*
X41359095Y35945858D01*
X39835285Y35850620D02*
X40406714Y35850620D01*
X40121000Y35850620D02*
X40121000Y36850620D01*
X40216238Y36707762D01*
X40311476Y36612524D01*
X40406714Y36564905D01*
X39359095Y35850620D02*
X39168619Y35850620D01*
X39073380Y35898239D01*
X39025761Y35945858D01*
X38930523Y36088715D01*
X38882904Y36279191D01*
X38882904Y36660143D01*
X38930523Y36755381D01*
X38978142Y36803000D01*
X39073380Y36850620D01*
X39263857Y36850620D01*
X39359095Y36803000D01*
X39406714Y36755381D01*
X39454333Y36660143D01*
X39454333Y36422048D01*
X39406714Y36326810D01*
X39359095Y36279191D01*
X39263857Y36231572D01*
X39073380Y36231572D01*
X38978142Y36279191D01*
X38930523Y36326810D01*
X38882904Y36422048D01*
X33199380Y42631048D02*
X32723190Y42964381D01*
X33199380Y43202477D02*
X32199380Y43202477D01*
X32199380Y42821524D01*
X32247000Y42726286D01*
X32294619Y42678667D01*
X32389857Y42631048D01*
X32532714Y42631048D01*
X32627952Y42678667D01*
X32675571Y42726286D01*
X32723190Y42821524D01*
X32723190Y43202477D01*
X32199380Y41726286D02*
X32199380Y42202477D01*
X32675571Y42250096D01*
X32627952Y42202477D01*
X32580333Y42107239D01*
X32580333Y41869143D01*
X32627952Y41773905D01*
X32675571Y41726286D01*
X32770809Y41678667D01*
X33008904Y41678667D01*
X33104142Y41726286D01*
X33151761Y41773905D01*
X33199380Y41869143D01*
X33199380Y42107239D01*
X33151761Y42202477D01*
X33104142Y42250096D01*
X32199380Y41345334D02*
X32199380Y40726286D01*
X32580333Y41059620D01*
X32580333Y40916762D01*
X32627952Y40821524D01*
X32675571Y40773905D01*
X32770809Y40726286D01*
X33008904Y40726286D01*
X33104142Y40773905D01*
X33151761Y40821524D01*
X33199380Y40916762D01*
X33199380Y41202477D01*
X33151761Y41297715D01*
X33104142Y41345334D01*
X32199380Y40107239D02*
X32199380Y40012000D01*
X32247000Y39916762D01*
X32294619Y39869143D01*
X32389857Y39821524D01*
X32580333Y39773905D01*
X32818428Y39773905D01*
X33008904Y39821524D01*
X33104142Y39869143D01*
X33151761Y39916762D01*
X33199380Y40012000D01*
X33199380Y40107239D01*
X33151761Y40202477D01*
X33104142Y40250096D01*
X33008904Y40297715D01*
X32818428Y40345334D01*
X32580333Y40345334D01*
X32389857Y40297715D01*
X32294619Y40250096D01*
X32247000Y40202477D01*
X32199380Y40107239D01*
X40470047Y38390620D02*
X40803380Y38866810D01*
X41041476Y38390620D02*
X41041476Y39390620D01*
X40660523Y39390620D01*
X40565285Y39343000D01*
X40517666Y39295381D01*
X40470047Y39200143D01*
X40470047Y39057286D01*
X40517666Y38962048D01*
X40565285Y38914429D01*
X40660523Y38866810D01*
X41041476Y38866810D01*
X39565285Y39390620D02*
X40041476Y39390620D01*
X40089095Y38914429D01*
X40041476Y38962048D01*
X39946238Y39009667D01*
X39708142Y39009667D01*
X39612904Y38962048D01*
X39565285Y38914429D01*
X39517666Y38819191D01*
X39517666Y38581096D01*
X39565285Y38485858D01*
X39612904Y38438239D01*
X39708142Y38390620D01*
X39946238Y38390620D01*
X40041476Y38438239D01*
X40089095Y38485858D01*
X39136714Y39295381D02*
X39089095Y39343000D01*
X38993857Y39390620D01*
X38755761Y39390620D01*
X38660523Y39343000D01*
X38612904Y39295381D01*
X38565285Y39200143D01*
X38565285Y39104905D01*
X38612904Y38962048D01*
X39184333Y38390620D01*
X38565285Y38390620D01*
X37946238Y39390620D02*
X37851000Y39390620D01*
X37755761Y39343000D01*
X37708142Y39295381D01*
X37660523Y39200143D01*
X37612904Y39009667D01*
X37612904Y38771572D01*
X37660523Y38581096D01*
X37708142Y38485858D01*
X37755761Y38438239D01*
X37851000Y38390620D01*
X37946238Y38390620D01*
X38041476Y38438239D01*
X38089095Y38485858D01*
X38136714Y38581096D01*
X38184333Y38771572D01*
X38184333Y39009667D01*
X38136714Y39200143D01*
X38089095Y39295381D01*
X38041476Y39343000D01*
X37946238Y39390620D01*
X10655238Y29083096D02*
X10921904Y29464048D01*
X11112380Y29083096D02*
X11112380Y29883096D01*
X10807619Y29883096D01*
X10731428Y29845000D01*
X10693333Y29806905D01*
X10655238Y29730715D01*
X10655238Y29616429D01*
X10693333Y29540239D01*
X10731428Y29502143D01*
X10807619Y29464048D01*
X11112380Y29464048D01*
X9931428Y29883096D02*
X10312380Y29883096D01*
X10350476Y29502143D01*
X10312380Y29540239D01*
X10236190Y29578334D01*
X10045714Y29578334D01*
X9969523Y29540239D01*
X9931428Y29502143D01*
X9893333Y29425953D01*
X9893333Y29235477D01*
X9931428Y29159286D01*
X9969523Y29121191D01*
X10045714Y29083096D01*
X10236190Y29083096D01*
X10312380Y29121191D01*
X10350476Y29159286D01*
X9398095Y29883096D02*
X9321904Y29883096D01*
X9245714Y29845000D01*
X9207619Y29806905D01*
X9169523Y29730715D01*
X9131428Y29578334D01*
X9131428Y29387858D01*
X9169523Y29235477D01*
X9207619Y29159286D01*
X9245714Y29121191D01*
X9321904Y29083096D01*
X9398095Y29083096D01*
X9474285Y29121191D01*
X9512380Y29159286D01*
X9550476Y29235477D01*
X9588571Y29387858D01*
X9588571Y29578334D01*
X9550476Y29730715D01*
X9512380Y29806905D01*
X9474285Y29845000D01*
X9398095Y29883096D01*
X8864761Y29883096D02*
X8331428Y29883096D01*
X8674285Y29083096D01*
X15027904Y42343739D02*
X14646952Y42610405D01*
X15027904Y42800881D02*
X14227904Y42800881D01*
X14227904Y42496120D01*
X14266000Y42419929D01*
X14304095Y42381834D01*
X14380285Y42343739D01*
X14494571Y42343739D01*
X14570761Y42381834D01*
X14608857Y42419929D01*
X14646952Y42496120D01*
X14646952Y42800881D01*
X14227904Y41619929D02*
X14227904Y42000881D01*
X14608857Y42038977D01*
X14570761Y42000881D01*
X14532666Y41924691D01*
X14532666Y41734215D01*
X14570761Y41658024D01*
X14608857Y41619929D01*
X14685047Y41581834D01*
X14875523Y41581834D01*
X14951714Y41619929D01*
X14989809Y41658024D01*
X15027904Y41734215D01*
X15027904Y41924691D01*
X14989809Y42000881D01*
X14951714Y42038977D01*
X15027904Y40819929D02*
X15027904Y41277072D01*
X15027904Y41048500D02*
X14227904Y41048500D01*
X14342190Y41124691D01*
X14418380Y41200881D01*
X14456476Y41277072D01*
X14494571Y40134215D02*
X15027904Y40134215D01*
X14189809Y40324691D02*
X14761238Y40515167D01*
X14761238Y40019929D01*
X17567904Y42661239D02*
X17186952Y42927905D01*
X17567904Y43118381D02*
X16767904Y43118381D01*
X16767904Y42813620D01*
X16806000Y42737429D01*
X16844095Y42699334D01*
X16920285Y42661239D01*
X17034571Y42661239D01*
X17110761Y42699334D01*
X17148857Y42737429D01*
X17186952Y42813620D01*
X17186952Y43118381D01*
X16767904Y41937429D02*
X16767904Y42318381D01*
X17148857Y42356477D01*
X17110761Y42318381D01*
X17072666Y42242191D01*
X17072666Y42051715D01*
X17110761Y41975524D01*
X17148857Y41937429D01*
X17225047Y41899334D01*
X17415523Y41899334D01*
X17491714Y41937429D01*
X17529809Y41975524D01*
X17567904Y42051715D01*
X17567904Y42242191D01*
X17529809Y42318381D01*
X17491714Y42356477D01*
X17567904Y41137429D02*
X17567904Y41594572D01*
X17567904Y41366000D02*
X16767904Y41366000D01*
X16882190Y41442191D01*
X16958380Y41518381D01*
X16996476Y41594572D01*
X16767904Y40642191D02*
X16767904Y40566000D01*
X16806000Y40489810D01*
X16844095Y40451715D01*
X16920285Y40413620D01*
X17072666Y40375524D01*
X17263142Y40375524D01*
X17415523Y40413620D01*
X17491714Y40451715D01*
X17529809Y40489810D01*
X17567904Y40566000D01*
X17567904Y40642191D01*
X17529809Y40718381D01*
X17491714Y40756477D01*
X17415523Y40794572D01*
X17263142Y40832667D01*
X17072666Y40832667D01*
X16920285Y40794572D01*
X16844095Y40756477D01*
X16806000Y40718381D01*
X16767904Y40642191D01*
X10655238Y26543096D02*
X10921904Y26924048D01*
X11112380Y26543096D02*
X11112380Y27343096D01*
X10807619Y27343096D01*
X10731428Y27305000D01*
X10693333Y27266905D01*
X10655238Y27190715D01*
X10655238Y27076429D01*
X10693333Y27000239D01*
X10731428Y26962143D01*
X10807619Y26924048D01*
X11112380Y26924048D01*
X9931428Y27343096D02*
X10312380Y27343096D01*
X10350476Y26962143D01*
X10312380Y27000239D01*
X10236190Y27038334D01*
X10045714Y27038334D01*
X9969523Y27000239D01*
X9931428Y26962143D01*
X9893333Y26885953D01*
X9893333Y26695477D01*
X9931428Y26619286D01*
X9969523Y26581191D01*
X10045714Y26543096D01*
X10236190Y26543096D01*
X10312380Y26581191D01*
X10350476Y26619286D01*
X9398095Y27343096D02*
X9321904Y27343096D01*
X9245714Y27305000D01*
X9207619Y27266905D01*
X9169523Y27190715D01*
X9131428Y27038334D01*
X9131428Y26847858D01*
X9169523Y26695477D01*
X9207619Y26619286D01*
X9245714Y26581191D01*
X9321904Y26543096D01*
X9398095Y26543096D01*
X9474285Y26581191D01*
X9512380Y26619286D01*
X9550476Y26695477D01*
X9588571Y26847858D01*
X9588571Y27038334D01*
X9550476Y27190715D01*
X9512380Y27266905D01*
X9474285Y27305000D01*
X9398095Y27343096D01*
X8674285Y27000239D02*
X8750476Y27038334D01*
X8788571Y27076429D01*
X8826666Y27152620D01*
X8826666Y27190715D01*
X8788571Y27266905D01*
X8750476Y27305000D01*
X8674285Y27343096D01*
X8521904Y27343096D01*
X8445714Y27305000D01*
X8407619Y27266905D01*
X8369523Y27190715D01*
X8369523Y27152620D01*
X8407619Y27076429D01*
X8445714Y27038334D01*
X8521904Y27000239D01*
X8674285Y27000239D01*
X8750476Y26962143D01*
X8788571Y26924048D01*
X8826666Y26847858D01*
X8826666Y26695477D01*
X8788571Y26619286D01*
X8750476Y26581191D01*
X8674285Y26543096D01*
X8521904Y26543096D01*
X8445714Y26581191D01*
X8407619Y26619286D01*
X8369523Y26695477D01*
X8369523Y26847858D01*
X8407619Y26924048D01*
X8445714Y26962143D01*
X8521904Y27000239D01*
X18499047Y2830620D02*
X18832380Y3306810D01*
X19070476Y2830620D02*
X19070476Y3830620D01*
X18689523Y3830620D01*
X18594285Y3783000D01*
X18546666Y3735381D01*
X18499047Y3640143D01*
X18499047Y3497286D01*
X18546666Y3402048D01*
X18594285Y3354429D01*
X18689523Y3306810D01*
X19070476Y3306810D01*
X18118095Y3735381D02*
X18070476Y3783000D01*
X17975238Y3830620D01*
X17737142Y3830620D01*
X17641904Y3783000D01*
X17594285Y3735381D01*
X17546666Y3640143D01*
X17546666Y3544905D01*
X17594285Y3402048D01*
X18165714Y2830620D01*
X17546666Y2830620D01*
X16927619Y3830620D02*
X16832380Y3830620D01*
X16737142Y3783000D01*
X16689523Y3735381D01*
X16641904Y3640143D01*
X16594285Y3449667D01*
X16594285Y3211572D01*
X16641904Y3021096D01*
X16689523Y2925858D01*
X16737142Y2878239D01*
X16832380Y2830620D01*
X16927619Y2830620D01*
X17022857Y2878239D01*
X17070476Y2925858D01*
X17118095Y3021096D01*
X17165714Y3211572D01*
X17165714Y3449667D01*
X17118095Y3640143D01*
X17070476Y3735381D01*
X17022857Y3783000D01*
X16927619Y3830620D01*
X15641904Y2830620D02*
X16213333Y2830620D01*
X15927619Y2830620D02*
X15927619Y3830620D01*
X16022857Y3687762D01*
X16118095Y3592524D01*
X16213333Y3544905D01*
X13529238Y18747286D02*
X13567333Y18709191D01*
X13681619Y18671096D01*
X13757809Y18671096D01*
X13872095Y18709191D01*
X13948285Y18785381D01*
X13986380Y18861572D01*
X14024476Y19013953D01*
X14024476Y19128239D01*
X13986380Y19280620D01*
X13948285Y19356810D01*
X13872095Y19433000D01*
X13757809Y19471096D01*
X13681619Y19471096D01*
X13567333Y19433000D01*
X13529238Y19394905D01*
X12843523Y19471096D02*
X12995904Y19471096D01*
X13072095Y19433000D01*
X13110190Y19394905D01*
X13186380Y19280620D01*
X13224476Y19128239D01*
X13224476Y18823477D01*
X13186380Y18747286D01*
X13148285Y18709191D01*
X13072095Y18671096D01*
X12919714Y18671096D01*
X12843523Y18709191D01*
X12805428Y18747286D01*
X12767333Y18823477D01*
X12767333Y19013953D01*
X12805428Y19090143D01*
X12843523Y19128239D01*
X12919714Y19166334D01*
X13072095Y19166334D01*
X13148285Y19128239D01*
X13186380Y19090143D01*
X13224476Y19013953D01*
X12272095Y19471096D02*
X12195904Y19471096D01*
X12119714Y19433000D01*
X12081619Y19394905D01*
X12043523Y19318715D01*
X12005428Y19166334D01*
X12005428Y18975858D01*
X12043523Y18823477D01*
X12081619Y18747286D01*
X12119714Y18709191D01*
X12195904Y18671096D01*
X12272095Y18671096D01*
X12348285Y18709191D01*
X12386380Y18747286D01*
X12424476Y18823477D01*
X12462571Y18975858D01*
X12462571Y19166334D01*
X12424476Y19318715D01*
X12386380Y19394905D01*
X12348285Y19433000D01*
X12272095Y19471096D01*
X11700666Y19394905D02*
X11662571Y19433000D01*
X11586380Y19471096D01*
X11395904Y19471096D01*
X11319714Y19433000D01*
X11281619Y19394905D01*
X11243523Y19318715D01*
X11243523Y19242524D01*
X11281619Y19128239D01*
X11738761Y18671096D01*
X11243523Y18671096D01*
X7623738Y10936786D02*
X7661833Y10898691D01*
X7776119Y10860596D01*
X7852309Y10860596D01*
X7966595Y10898691D01*
X8042785Y10974881D01*
X8080880Y11051072D01*
X8118976Y11203453D01*
X8118976Y11317739D01*
X8080880Y11470120D01*
X8042785Y11546310D01*
X7966595Y11622500D01*
X7852309Y11660596D01*
X7776119Y11660596D01*
X7661833Y11622500D01*
X7623738Y11584405D01*
X6938023Y11660596D02*
X7090404Y11660596D01*
X7166595Y11622500D01*
X7204690Y11584405D01*
X7280880Y11470120D01*
X7318976Y11317739D01*
X7318976Y11012977D01*
X7280880Y10936786D01*
X7242785Y10898691D01*
X7166595Y10860596D01*
X7014214Y10860596D01*
X6938023Y10898691D01*
X6899928Y10936786D01*
X6861833Y11012977D01*
X6861833Y11203453D01*
X6899928Y11279643D01*
X6938023Y11317739D01*
X7014214Y11355834D01*
X7166595Y11355834D01*
X7242785Y11317739D01*
X7280880Y11279643D01*
X7318976Y11203453D01*
X6366595Y11660596D02*
X6290404Y11660596D01*
X6214214Y11622500D01*
X6176119Y11584405D01*
X6138023Y11508215D01*
X6099928Y11355834D01*
X6099928Y11165358D01*
X6138023Y11012977D01*
X6176119Y10936786D01*
X6214214Y10898691D01*
X6290404Y10860596D01*
X6366595Y10860596D01*
X6442785Y10898691D01*
X6480880Y10936786D01*
X6518976Y11012977D01*
X6557071Y11165358D01*
X6557071Y11355834D01*
X6518976Y11508215D01*
X6480880Y11584405D01*
X6442785Y11622500D01*
X6366595Y11660596D01*
X5833261Y11660596D02*
X5338023Y11660596D01*
X5604690Y11355834D01*
X5490404Y11355834D01*
X5414214Y11317739D01*
X5376119Y11279643D01*
X5338023Y11203453D01*
X5338023Y11012977D01*
X5376119Y10936786D01*
X5414214Y10898691D01*
X5490404Y10860596D01*
X5718976Y10860596D01*
X5795166Y10898691D01*
X5833261Y10936786D01*
X46519047Y7277620D02*
X46852380Y7753810D01*
X47090476Y7277620D02*
X47090476Y8277620D01*
X46709523Y8277620D01*
X46614285Y8230000D01*
X46566666Y8182381D01*
X46519047Y8087143D01*
X46519047Y7944286D01*
X46566666Y7849048D01*
X46614285Y7801429D01*
X46709523Y7753810D01*
X47090476Y7753810D01*
X45661904Y8277620D02*
X45852380Y8277620D01*
X45947619Y8230000D01*
X45995238Y8182381D01*
X46090476Y8039524D01*
X46138095Y7849048D01*
X46138095Y7468096D01*
X46090476Y7372858D01*
X46042857Y7325239D01*
X45947619Y7277620D01*
X45757142Y7277620D01*
X45661904Y7325239D01*
X45614285Y7372858D01*
X45566666Y7468096D01*
X45566666Y7706191D01*
X45614285Y7801429D01*
X45661904Y7849048D01*
X45757142Y7896667D01*
X45947619Y7896667D01*
X46042857Y7849048D01*
X46090476Y7801429D01*
X46138095Y7706191D01*
X44947619Y8277620D02*
X44852380Y8277620D01*
X44757142Y8230000D01*
X44709523Y8182381D01*
X44661904Y8087143D01*
X44614285Y7896667D01*
X44614285Y7658572D01*
X44661904Y7468096D01*
X44709523Y7372858D01*
X44757142Y7325239D01*
X44852380Y7277620D01*
X44947619Y7277620D01*
X45042857Y7325239D01*
X45090476Y7372858D01*
X45138095Y7468096D01*
X45185714Y7658572D01*
X45185714Y7896667D01*
X45138095Y8087143D01*
X45090476Y8182381D01*
X45042857Y8230000D01*
X44947619Y8277620D01*
X44280952Y8277620D02*
X43614285Y8277620D01*
X44042857Y7277620D01*
X25886404Y11990739D02*
X25505452Y12257405D01*
X25886404Y12447881D02*
X25086404Y12447881D01*
X25086404Y12143120D01*
X25124500Y12066929D01*
X25162595Y12028834D01*
X25238785Y11990739D01*
X25353071Y11990739D01*
X25429261Y12028834D01*
X25467357Y12066929D01*
X25505452Y12143120D01*
X25505452Y12447881D01*
X25086404Y11305024D02*
X25086404Y11457405D01*
X25124500Y11533596D01*
X25162595Y11571691D01*
X25276880Y11647881D01*
X25429261Y11685977D01*
X25734023Y11685977D01*
X25810214Y11647881D01*
X25848309Y11609786D01*
X25886404Y11533596D01*
X25886404Y11381215D01*
X25848309Y11305024D01*
X25810214Y11266929D01*
X25734023Y11228834D01*
X25543547Y11228834D01*
X25467357Y11266929D01*
X25429261Y11305024D01*
X25391166Y11381215D01*
X25391166Y11533596D01*
X25429261Y11609786D01*
X25467357Y11647881D01*
X25543547Y11685977D01*
X25086404Y10733596D02*
X25086404Y10657405D01*
X25124500Y10581215D01*
X25162595Y10543120D01*
X25238785Y10505024D01*
X25391166Y10466929D01*
X25581642Y10466929D01*
X25734023Y10505024D01*
X25810214Y10543120D01*
X25848309Y10581215D01*
X25886404Y10657405D01*
X25886404Y10733596D01*
X25848309Y10809786D01*
X25810214Y10847881D01*
X25734023Y10885977D01*
X25581642Y10924072D01*
X25391166Y10924072D01*
X25238785Y10885977D01*
X25162595Y10847881D01*
X25124500Y10809786D01*
X25086404Y10733596D01*
X25086404Y9781215D02*
X25086404Y9933596D01*
X25124500Y10009786D01*
X25162595Y10047881D01*
X25276880Y10124072D01*
X25429261Y10162167D01*
X25734023Y10162167D01*
X25810214Y10124072D01*
X25848309Y10085977D01*
X25886404Y10009786D01*
X25886404Y9857405D01*
X25848309Y9781215D01*
X25810214Y9743120D01*
X25734023Y9705024D01*
X25543547Y9705024D01*
X25467357Y9743120D01*
X25429261Y9781215D01*
X25391166Y9857405D01*
X25391166Y10009786D01*
X25429261Y10085977D01*
X25467357Y10124072D01*
X25543547Y10162167D01*
X26203904Y19420239D02*
X25822952Y19686905D01*
X26203904Y19877381D02*
X25403904Y19877381D01*
X25403904Y19572620D01*
X25442000Y19496429D01*
X25480095Y19458334D01*
X25556285Y19420239D01*
X25670571Y19420239D01*
X25746761Y19458334D01*
X25784857Y19496429D01*
X25822952Y19572620D01*
X25822952Y19877381D01*
X25403904Y18734524D02*
X25403904Y18886905D01*
X25442000Y18963096D01*
X25480095Y19001191D01*
X25594380Y19077381D01*
X25746761Y19115477D01*
X26051523Y19115477D01*
X26127714Y19077381D01*
X26165809Y19039286D01*
X26203904Y18963096D01*
X26203904Y18810715D01*
X26165809Y18734524D01*
X26127714Y18696429D01*
X26051523Y18658334D01*
X25861047Y18658334D01*
X25784857Y18696429D01*
X25746761Y18734524D01*
X25708666Y18810715D01*
X25708666Y18963096D01*
X25746761Y19039286D01*
X25784857Y19077381D01*
X25861047Y19115477D01*
X25403904Y18163096D02*
X25403904Y18086905D01*
X25442000Y18010715D01*
X25480095Y17972620D01*
X25556285Y17934524D01*
X25708666Y17896429D01*
X25899142Y17896429D01*
X26051523Y17934524D01*
X26127714Y17972620D01*
X26165809Y18010715D01*
X26203904Y18086905D01*
X26203904Y18163096D01*
X26165809Y18239286D01*
X26127714Y18277381D01*
X26051523Y18315477D01*
X25899142Y18353572D01*
X25708666Y18353572D01*
X25556285Y18315477D01*
X25480095Y18277381D01*
X25442000Y18239286D01*
X25403904Y18163096D01*
X25403904Y17172620D02*
X25403904Y17553572D01*
X25784857Y17591667D01*
X25746761Y17553572D01*
X25708666Y17477381D01*
X25708666Y17286905D01*
X25746761Y17210715D01*
X25784857Y17172620D01*
X25861047Y17134524D01*
X26051523Y17134524D01*
X26127714Y17172620D01*
X26165809Y17210715D01*
X26203904Y17286905D01*
X26203904Y17477381D01*
X26165809Y17553572D01*
X26127714Y17591667D01*
X18275238Y5461096D02*
X18541904Y5842048D01*
X18732380Y5461096D02*
X18732380Y6261096D01*
X18427619Y6261096D01*
X18351428Y6223000D01*
X18313333Y6184905D01*
X18275238Y6108715D01*
X18275238Y5994429D01*
X18313333Y5918239D01*
X18351428Y5880143D01*
X18427619Y5842048D01*
X18732380Y5842048D01*
X17589523Y6261096D02*
X17741904Y6261096D01*
X17818095Y6223000D01*
X17856190Y6184905D01*
X17932380Y6070620D01*
X17970476Y5918239D01*
X17970476Y5613477D01*
X17932380Y5537286D01*
X17894285Y5499191D01*
X17818095Y5461096D01*
X17665714Y5461096D01*
X17589523Y5499191D01*
X17551428Y5537286D01*
X17513333Y5613477D01*
X17513333Y5803953D01*
X17551428Y5880143D01*
X17589523Y5918239D01*
X17665714Y5956334D01*
X17818095Y5956334D01*
X17894285Y5918239D01*
X17932380Y5880143D01*
X17970476Y5803953D01*
X17018095Y6261096D02*
X16941904Y6261096D01*
X16865714Y6223000D01*
X16827619Y6184905D01*
X16789523Y6108715D01*
X16751428Y5956334D01*
X16751428Y5765858D01*
X16789523Y5613477D01*
X16827619Y5537286D01*
X16865714Y5499191D01*
X16941904Y5461096D01*
X17018095Y5461096D01*
X17094285Y5499191D01*
X17132380Y5537286D01*
X17170476Y5613477D01*
X17208571Y5765858D01*
X17208571Y5956334D01*
X17170476Y6108715D01*
X17132380Y6184905D01*
X17094285Y6223000D01*
X17018095Y6261096D01*
X16065714Y5994429D02*
X16065714Y5461096D01*
X16256190Y6299191D02*
X16446666Y5727762D01*
X15951428Y5727762D01*
X25530738Y15178596D02*
X25797404Y15559548D01*
X25987880Y15178596D02*
X25987880Y15978596D01*
X25683119Y15978596D01*
X25606928Y15940500D01*
X25568833Y15902405D01*
X25530738Y15826215D01*
X25530738Y15711929D01*
X25568833Y15635739D01*
X25606928Y15597643D01*
X25683119Y15559548D01*
X25987880Y15559548D01*
X24845023Y15978596D02*
X24997404Y15978596D01*
X25073595Y15940500D01*
X25111690Y15902405D01*
X25187880Y15788120D01*
X25225976Y15635739D01*
X25225976Y15330977D01*
X25187880Y15254786D01*
X25149785Y15216691D01*
X25073595Y15178596D01*
X24921214Y15178596D01*
X24845023Y15216691D01*
X24806928Y15254786D01*
X24768833Y15330977D01*
X24768833Y15521453D01*
X24806928Y15597643D01*
X24845023Y15635739D01*
X24921214Y15673834D01*
X25073595Y15673834D01*
X25149785Y15635739D01*
X25187880Y15597643D01*
X25225976Y15521453D01*
X24273595Y15978596D02*
X24197404Y15978596D01*
X24121214Y15940500D01*
X24083119Y15902405D01*
X24045023Y15826215D01*
X24006928Y15673834D01*
X24006928Y15483358D01*
X24045023Y15330977D01*
X24083119Y15254786D01*
X24121214Y15216691D01*
X24197404Y15178596D01*
X24273595Y15178596D01*
X24349785Y15216691D01*
X24387880Y15254786D01*
X24425976Y15330977D01*
X24464071Y15483358D01*
X24464071Y15673834D01*
X24425976Y15826215D01*
X24387880Y15902405D01*
X24349785Y15940500D01*
X24273595Y15978596D01*
X23740261Y15978596D02*
X23245023Y15978596D01*
X23511690Y15673834D01*
X23397404Y15673834D01*
X23321214Y15635739D01*
X23283119Y15597643D01*
X23245023Y15521453D01*
X23245023Y15330977D01*
X23283119Y15254786D01*
X23321214Y15216691D01*
X23397404Y15178596D01*
X23625976Y15178596D01*
X23702166Y15216691D01*
X23740261Y15254786D01*
X28587714Y12052239D02*
X28625809Y12090334D01*
X28663904Y12204620D01*
X28663904Y12280810D01*
X28625809Y12395096D01*
X28549619Y12471286D01*
X28473428Y12509381D01*
X28321047Y12547477D01*
X28206761Y12547477D01*
X28054380Y12509381D01*
X27978190Y12471286D01*
X27902000Y12395096D01*
X27863904Y12280810D01*
X27863904Y12204620D01*
X27902000Y12090334D01*
X27940095Y12052239D01*
X27863904Y11366524D02*
X27863904Y11518905D01*
X27902000Y11595096D01*
X27940095Y11633191D01*
X28054380Y11709381D01*
X28206761Y11747477D01*
X28511523Y11747477D01*
X28587714Y11709381D01*
X28625809Y11671286D01*
X28663904Y11595096D01*
X28663904Y11442715D01*
X28625809Y11366524D01*
X28587714Y11328429D01*
X28511523Y11290334D01*
X28321047Y11290334D01*
X28244857Y11328429D01*
X28206761Y11366524D01*
X28168666Y11442715D01*
X28168666Y11595096D01*
X28206761Y11671286D01*
X28244857Y11709381D01*
X28321047Y11747477D01*
X27863904Y10795096D02*
X27863904Y10718905D01*
X27902000Y10642715D01*
X27940095Y10604620D01*
X28016285Y10566524D01*
X28168666Y10528429D01*
X28359142Y10528429D01*
X28511523Y10566524D01*
X28587714Y10604620D01*
X28625809Y10642715D01*
X28663904Y10718905D01*
X28663904Y10795096D01*
X28625809Y10871286D01*
X28587714Y10909381D01*
X28511523Y10947477D01*
X28359142Y10985572D01*
X28168666Y10985572D01*
X28016285Y10947477D01*
X27940095Y10909381D01*
X27902000Y10871286D01*
X27863904Y10795096D01*
X27863904Y9842715D02*
X27863904Y9995096D01*
X27902000Y10071286D01*
X27940095Y10109381D01*
X28054380Y10185572D01*
X28206761Y10223667D01*
X28511523Y10223667D01*
X28587714Y10185572D01*
X28625809Y10147477D01*
X28663904Y10071286D01*
X28663904Y9918905D01*
X28625809Y9842715D01*
X28587714Y9804620D01*
X28511523Y9766524D01*
X28321047Y9766524D01*
X28244857Y9804620D01*
X28206761Y9842715D01*
X28168666Y9918905D01*
X28168666Y10071286D01*
X28206761Y10147477D01*
X28244857Y10185572D01*
X28321047Y10223667D01*
X37422142Y22690048D02*
X37469761Y22737667D01*
X37517380Y22880524D01*
X37517380Y22975762D01*
X37469761Y23118620D01*
X37374523Y23213858D01*
X37279285Y23261477D01*
X37088809Y23309096D01*
X36945952Y23309096D01*
X36755476Y23261477D01*
X36660238Y23213858D01*
X36565000Y23118620D01*
X36517380Y22975762D01*
X36517380Y22880524D01*
X36565000Y22737667D01*
X36612619Y22690048D01*
X36612619Y22309096D02*
X36565000Y22261477D01*
X36517380Y22166239D01*
X36517380Y21928143D01*
X36565000Y21832905D01*
X36612619Y21785286D01*
X36707857Y21737667D01*
X36803095Y21737667D01*
X36945952Y21785286D01*
X37517380Y22356715D01*
X37517380Y21737667D01*
X36612619Y21356715D02*
X36565000Y21309096D01*
X36517380Y21213858D01*
X36517380Y20975762D01*
X36565000Y20880524D01*
X36612619Y20832905D01*
X36707857Y20785286D01*
X36803095Y20785286D01*
X36945952Y20832905D01*
X37517380Y21404334D01*
X37517380Y20785286D01*
X37517380Y20309096D02*
X37517380Y20118620D01*
X37469761Y20023381D01*
X37422142Y19975762D01*
X37279285Y19880524D01*
X37088809Y19832905D01*
X36707857Y19832905D01*
X36612619Y19880524D01*
X36565000Y19928143D01*
X36517380Y20023381D01*
X36517380Y20213858D01*
X36565000Y20309096D01*
X36612619Y20356715D01*
X36707857Y20404334D01*
X36945952Y20404334D01*
X37041190Y20356715D01*
X37088809Y20309096D01*
X37136428Y20213858D01*
X37136428Y20023381D01*
X37088809Y19928143D01*
X37041190Y19880524D01*
X36945952Y19832905D01*
X33152380Y31709048D02*
X32676190Y32042381D01*
X33152380Y32280477D02*
X32152380Y32280477D01*
X32152380Y31899524D01*
X32200000Y31804286D01*
X32247619Y31756667D01*
X32342857Y31709048D01*
X32485714Y31709048D01*
X32580952Y31756667D01*
X32628571Y31804286D01*
X32676190Y31899524D01*
X32676190Y32280477D01*
X32247619Y31328096D02*
X32200000Y31280477D01*
X32152380Y31185239D01*
X32152380Y30947143D01*
X32200000Y30851905D01*
X32247619Y30804286D01*
X32342857Y30756667D01*
X32438095Y30756667D01*
X32580952Y30804286D01*
X33152380Y31375715D01*
X33152380Y30756667D01*
X33152380Y29804286D02*
X33152380Y30375715D01*
X33152380Y30090000D02*
X32152380Y30090000D01*
X32295238Y30185239D01*
X32390476Y30280477D01*
X32438095Y30375715D01*
X33152380Y28851905D02*
X33152380Y29423334D01*
X33152380Y29137620D02*
X32152380Y29137620D01*
X32295238Y29232858D01*
X32390476Y29328096D01*
X32438095Y29423334D01*
X36882380Y28278048D02*
X36406190Y28611381D01*
X36882380Y28849477D02*
X35882380Y28849477D01*
X35882380Y28468524D01*
X35930000Y28373286D01*
X35977619Y28325667D01*
X36072857Y28278048D01*
X36215714Y28278048D01*
X36310952Y28325667D01*
X36358571Y28373286D01*
X36406190Y28468524D01*
X36406190Y28849477D01*
X35977619Y27897096D02*
X35930000Y27849477D01*
X35882380Y27754239D01*
X35882380Y27516143D01*
X35930000Y27420905D01*
X35977619Y27373286D01*
X36072857Y27325667D01*
X36168095Y27325667D01*
X36310952Y27373286D01*
X36882380Y27944715D01*
X36882380Y27325667D01*
X36882380Y26373286D02*
X36882380Y26944715D01*
X36882380Y26659000D02*
X35882380Y26659000D01*
X36025238Y26754239D01*
X36120476Y26849477D01*
X36168095Y26944715D01*
X35977619Y25992334D02*
X35930000Y25944715D01*
X35882380Y25849477D01*
X35882380Y25611381D01*
X35930000Y25516143D01*
X35977619Y25468524D01*
X36072857Y25420905D01*
X36168095Y25420905D01*
X36310952Y25468524D01*
X36882380Y26039953D01*
X36882380Y25420905D01*
X32580880Y15389548D02*
X32104690Y15722881D01*
X32580880Y15960977D02*
X31580880Y15960977D01*
X31580880Y15580024D01*
X31628500Y15484786D01*
X31676119Y15437167D01*
X31771357Y15389548D01*
X31914214Y15389548D01*
X32009452Y15437167D01*
X32057071Y15484786D01*
X32104690Y15580024D01*
X32104690Y15960977D01*
X31676119Y15008596D02*
X31628500Y14960977D01*
X31580880Y14865739D01*
X31580880Y14627643D01*
X31628500Y14532405D01*
X31676119Y14484786D01*
X31771357Y14437167D01*
X31866595Y14437167D01*
X32009452Y14484786D01*
X32580880Y15056215D01*
X32580880Y14437167D01*
X31580880Y13818120D02*
X31580880Y13722881D01*
X31628500Y13627643D01*
X31676119Y13580024D01*
X31771357Y13532405D01*
X31961833Y13484786D01*
X32199928Y13484786D01*
X32390404Y13532405D01*
X32485642Y13580024D01*
X32533261Y13627643D01*
X32580880Y13722881D01*
X32580880Y13818120D01*
X32533261Y13913358D01*
X32485642Y13960977D01*
X32390404Y14008596D01*
X32199928Y14056215D01*
X31961833Y14056215D01*
X31771357Y14008596D01*
X31676119Y13960977D01*
X31628500Y13913358D01*
X31580880Y13818120D01*
X32580880Y13008596D02*
X32580880Y12818120D01*
X32533261Y12722881D01*
X32485642Y12675262D01*
X32342785Y12580024D01*
X32152309Y12532405D01*
X31771357Y12532405D01*
X31676119Y12580024D01*
X31628500Y12627643D01*
X31580880Y12722881D01*
X31580880Y12913358D01*
X31628500Y13008596D01*
X31676119Y13056215D01*
X31771357Y13103834D01*
X32009452Y13103834D01*
X32104690Y13056215D01*
X32152309Y13008596D01*
X32199928Y12913358D01*
X32199928Y12722881D01*
X32152309Y12627643D01*
X32104690Y12580024D01*
X32009452Y12532405D01*
X32490404Y19483739D02*
X32109452Y19750405D01*
X32490404Y19940881D02*
X31690404Y19940881D01*
X31690404Y19636120D01*
X31728500Y19559929D01*
X31766595Y19521834D01*
X31842785Y19483739D01*
X31957071Y19483739D01*
X32033261Y19521834D01*
X32071357Y19559929D01*
X32109452Y19636120D01*
X32109452Y19940881D01*
X31766595Y19178977D02*
X31728500Y19140881D01*
X31690404Y19064691D01*
X31690404Y18874215D01*
X31728500Y18798024D01*
X31766595Y18759929D01*
X31842785Y18721834D01*
X31918976Y18721834D01*
X32033261Y18759929D01*
X32490404Y19217072D01*
X32490404Y18721834D01*
X31690404Y18226596D02*
X31690404Y18150405D01*
X31728500Y18074215D01*
X31766595Y18036120D01*
X31842785Y17998024D01*
X31995166Y17959929D01*
X32185642Y17959929D01*
X32338023Y17998024D01*
X32414214Y18036120D01*
X32452309Y18074215D01*
X32490404Y18150405D01*
X32490404Y18226596D01*
X32452309Y18302786D01*
X32414214Y18340881D01*
X32338023Y18378977D01*
X32185642Y18417072D01*
X31995166Y18417072D01*
X31842785Y18378977D01*
X31766595Y18340881D01*
X31728500Y18302786D01*
X31690404Y18226596D01*
X32033261Y17502786D02*
X31995166Y17578977D01*
X31957071Y17617072D01*
X31880880Y17655167D01*
X31842785Y17655167D01*
X31766595Y17617072D01*
X31728500Y17578977D01*
X31690404Y17502786D01*
X31690404Y17350405D01*
X31728500Y17274215D01*
X31766595Y17236120D01*
X31842785Y17198024D01*
X31880880Y17198024D01*
X31957071Y17236120D01*
X31995166Y17274215D01*
X32033261Y17350405D01*
X32033261Y17502786D01*
X32071357Y17578977D01*
X32109452Y17617072D01*
X32185642Y17655167D01*
X32338023Y17655167D01*
X32414214Y17617072D01*
X32452309Y17578977D01*
X32490404Y17502786D01*
X32490404Y17350405D01*
X32452309Y17274215D01*
X32414214Y17236120D01*
X32338023Y17198024D01*
X32185642Y17198024D01*
X32109452Y17236120D01*
X32071357Y17274215D01*
X32033261Y17350405D01*
X39946880Y23009548D02*
X39470690Y23342881D01*
X39946880Y23580977D02*
X38946880Y23580977D01*
X38946880Y23200024D01*
X38994500Y23104786D01*
X39042119Y23057167D01*
X39137357Y23009548D01*
X39280214Y23009548D01*
X39375452Y23057167D01*
X39423071Y23104786D01*
X39470690Y23200024D01*
X39470690Y23580977D01*
X39042119Y22628596D02*
X38994500Y22580977D01*
X38946880Y22485739D01*
X38946880Y22247643D01*
X38994500Y22152405D01*
X39042119Y22104786D01*
X39137357Y22057167D01*
X39232595Y22057167D01*
X39375452Y22104786D01*
X39946880Y22676215D01*
X39946880Y22057167D01*
X39946880Y21104786D02*
X39946880Y21676215D01*
X39946880Y21390500D02*
X38946880Y21390500D01*
X39089738Y21485739D01*
X39184976Y21580977D01*
X39232595Y21676215D01*
X38946880Y20485739D02*
X38946880Y20390500D01*
X38994500Y20295262D01*
X39042119Y20247643D01*
X39137357Y20200024D01*
X39327833Y20152405D01*
X39565928Y20152405D01*
X39756404Y20200024D01*
X39851642Y20247643D01*
X39899261Y20295262D01*
X39946880Y20390500D01*
X39946880Y20485739D01*
X39899261Y20580977D01*
X39851642Y20628596D01*
X39756404Y20676215D01*
X39565928Y20723834D01*
X39327833Y20723834D01*
X39137357Y20676215D01*
X39042119Y20628596D01*
X38994500Y20580977D01*
X38946880Y20485739D01*
X37325238Y11049096D02*
X37591904Y11430048D01*
X37782380Y11049096D02*
X37782380Y11849096D01*
X37477619Y11849096D01*
X37401428Y11811000D01*
X37363333Y11772905D01*
X37325238Y11696715D01*
X37325238Y11582429D01*
X37363333Y11506239D01*
X37401428Y11468143D01*
X37477619Y11430048D01*
X37782380Y11430048D01*
X37020476Y11772905D02*
X36982380Y11811000D01*
X36906190Y11849096D01*
X36715714Y11849096D01*
X36639523Y11811000D01*
X36601428Y11772905D01*
X36563333Y11696715D01*
X36563333Y11620524D01*
X36601428Y11506239D01*
X37058571Y11049096D01*
X36563333Y11049096D01*
X36258571Y11772905D02*
X36220476Y11811000D01*
X36144285Y11849096D01*
X35953809Y11849096D01*
X35877619Y11811000D01*
X35839523Y11772905D01*
X35801428Y11696715D01*
X35801428Y11620524D01*
X35839523Y11506239D01*
X36296666Y11049096D01*
X35801428Y11049096D01*
X35534761Y11849096D02*
X35039523Y11849096D01*
X35306190Y11544334D01*
X35191904Y11544334D01*
X35115714Y11506239D01*
X35077619Y11468143D01*
X35039523Y11391953D01*
X35039523Y11201477D01*
X35077619Y11125286D01*
X35115714Y11087191D01*
X35191904Y11049096D01*
X35420476Y11049096D01*
X35496666Y11087191D01*
X35534761Y11125286D01*
X40057380Y27643048D02*
X39581190Y27976381D01*
X40057380Y28214477D02*
X39057380Y28214477D01*
X39057380Y27833524D01*
X39105000Y27738286D01*
X39152619Y27690667D01*
X39247857Y27643048D01*
X39390714Y27643048D01*
X39485952Y27690667D01*
X39533571Y27738286D01*
X39581190Y27833524D01*
X39581190Y28214477D01*
X39152619Y27262096D02*
X39105000Y27214477D01*
X39057380Y27119239D01*
X39057380Y26881143D01*
X39105000Y26785905D01*
X39152619Y26738286D01*
X39247857Y26690667D01*
X39343095Y26690667D01*
X39485952Y26738286D01*
X40057380Y27309715D01*
X40057380Y26690667D01*
X40057380Y25738286D02*
X40057380Y26309715D01*
X40057380Y26024000D02*
X39057380Y26024000D01*
X39200238Y26119239D01*
X39295476Y26214477D01*
X39343095Y26309715D01*
X39057380Y24881143D02*
X39057380Y25071620D01*
X39105000Y25166858D01*
X39152619Y25214477D01*
X39295476Y25309715D01*
X39485952Y25357334D01*
X39866904Y25357334D01*
X39962142Y25309715D01*
X40009761Y25262096D01*
X40057380Y25166858D01*
X40057380Y24976381D01*
X40009761Y24881143D01*
X39962142Y24833524D01*
X39866904Y24785905D01*
X39628809Y24785905D01*
X39533571Y24833524D01*
X39485952Y24881143D01*
X39438333Y24976381D01*
X39438333Y25166858D01*
X39485952Y25262096D01*
X39533571Y25309715D01*
X39628809Y25357334D01*
X42724380Y23071048D02*
X42248190Y23404381D01*
X42724380Y23642477D02*
X41724380Y23642477D01*
X41724380Y23261524D01*
X41772000Y23166286D01*
X41819619Y23118667D01*
X41914857Y23071048D01*
X42057714Y23071048D01*
X42152952Y23118667D01*
X42200571Y23166286D01*
X42248190Y23261524D01*
X42248190Y23642477D01*
X41819619Y22690096D02*
X41772000Y22642477D01*
X41724380Y22547239D01*
X41724380Y22309143D01*
X41772000Y22213905D01*
X41819619Y22166286D01*
X41914857Y22118667D01*
X42010095Y22118667D01*
X42152952Y22166286D01*
X42724380Y22737715D01*
X42724380Y22118667D01*
X42724380Y21166286D02*
X42724380Y21737715D01*
X42724380Y21452000D02*
X41724380Y21452000D01*
X41867238Y21547239D01*
X41962476Y21642477D01*
X42010095Y21737715D01*
X41724380Y20832953D02*
X41724380Y20166286D01*
X42724380Y20594858D01*
X42597380Y27897048D02*
X42121190Y28230381D01*
X42597380Y28468477D02*
X41597380Y28468477D01*
X41597380Y28087524D01*
X41645000Y27992286D01*
X41692619Y27944667D01*
X41787857Y27897048D01*
X41930714Y27897048D01*
X42025952Y27944667D01*
X42073571Y27992286D01*
X42121190Y28087524D01*
X42121190Y28468477D01*
X41692619Y27516096D02*
X41645000Y27468477D01*
X41597380Y27373239D01*
X41597380Y27135143D01*
X41645000Y27039905D01*
X41692619Y26992286D01*
X41787857Y26944667D01*
X41883095Y26944667D01*
X42025952Y26992286D01*
X42597380Y27563715D01*
X42597380Y26944667D01*
X42597380Y25992286D02*
X42597380Y26563715D01*
X42597380Y26278000D02*
X41597380Y26278000D01*
X41740238Y26373239D01*
X41835476Y26468477D01*
X41883095Y26563715D01*
X42025952Y25420858D02*
X41978333Y25516096D01*
X41930714Y25563715D01*
X41835476Y25611334D01*
X41787857Y25611334D01*
X41692619Y25563715D01*
X41645000Y25516096D01*
X41597380Y25420858D01*
X41597380Y25230381D01*
X41645000Y25135143D01*
X41692619Y25087524D01*
X41787857Y25039905D01*
X41835476Y25039905D01*
X41930714Y25087524D01*
X41978333Y25135143D01*
X42025952Y25230381D01*
X42025952Y25420858D01*
X42073571Y25516096D01*
X42121190Y25563715D01*
X42216428Y25611334D01*
X42406904Y25611334D01*
X42502142Y25563715D01*
X42549761Y25516096D01*
X42597380Y25420858D01*
X42597380Y25230381D01*
X42549761Y25135143D01*
X42502142Y25087524D01*
X42406904Y25039905D01*
X42216428Y25039905D01*
X42121190Y25087524D01*
X42073571Y25135143D01*
X42025952Y25230381D01*
X43010047Y8672620D02*
X43343380Y9148810D01*
X43581476Y8672620D02*
X43581476Y9672620D01*
X43200523Y9672620D01*
X43105285Y9625000D01*
X43057666Y9577381D01*
X43010047Y9482143D01*
X43010047Y9339286D01*
X43057666Y9244048D01*
X43105285Y9196429D01*
X43200523Y9148810D01*
X43581476Y9148810D01*
X42629095Y9577381D02*
X42581476Y9625000D01*
X42486238Y9672620D01*
X42248142Y9672620D01*
X42152904Y9625000D01*
X42105285Y9577381D01*
X42057666Y9482143D01*
X42057666Y9386905D01*
X42105285Y9244048D01*
X42676714Y8672620D01*
X42057666Y8672620D01*
X41676714Y9577381D02*
X41629095Y9625000D01*
X41533857Y9672620D01*
X41295761Y9672620D01*
X41200523Y9625000D01*
X41152904Y9577381D01*
X41105285Y9482143D01*
X41105285Y9386905D01*
X41152904Y9244048D01*
X41724333Y8672620D01*
X41105285Y8672620D01*
X40486238Y9672620D02*
X40391000Y9672620D01*
X40295761Y9625000D01*
X40248142Y9577381D01*
X40200523Y9482143D01*
X40152904Y9291667D01*
X40152904Y9053572D01*
X40200523Y8863096D01*
X40248142Y8767858D01*
X40295761Y8720239D01*
X40391000Y8672620D01*
X40486238Y8672620D01*
X40581476Y8720239D01*
X40629095Y8767858D01*
X40676714Y8863096D01*
X40724333Y9053572D01*
X40724333Y9291667D01*
X40676714Y9482143D01*
X40629095Y9577381D01*
X40581476Y9625000D01*
X40486238Y9672620D01*
X31499738Y8968286D02*
X31537833Y8930191D01*
X31652119Y8892096D01*
X31728309Y8892096D01*
X31842595Y8930191D01*
X31918785Y9006381D01*
X31956880Y9082572D01*
X31994976Y9234953D01*
X31994976Y9349239D01*
X31956880Y9501620D01*
X31918785Y9577810D01*
X31842595Y9654000D01*
X31728309Y9692096D01*
X31652119Y9692096D01*
X31537833Y9654000D01*
X31499738Y9615905D01*
X31194976Y9615905D02*
X31156880Y9654000D01*
X31080690Y9692096D01*
X30890214Y9692096D01*
X30814023Y9654000D01*
X30775928Y9615905D01*
X30737833Y9539715D01*
X30737833Y9463524D01*
X30775928Y9349239D01*
X31233071Y8892096D01*
X30737833Y8892096D01*
X30471166Y9692096D02*
X29975928Y9692096D01*
X30242595Y9387334D01*
X30128309Y9387334D01*
X30052119Y9349239D01*
X30014023Y9311143D01*
X29975928Y9234953D01*
X29975928Y9044477D01*
X30014023Y8968286D01*
X30052119Y8930191D01*
X30128309Y8892096D01*
X30356880Y8892096D01*
X30433071Y8930191D01*
X30471166Y8968286D01*
X29480690Y9692096D02*
X29404500Y9692096D01*
X29328309Y9654000D01*
X29290214Y9615905D01*
X29252119Y9539715D01*
X29214023Y9387334D01*
X29214023Y9196858D01*
X29252119Y9044477D01*
X29290214Y8968286D01*
X29328309Y8930191D01*
X29404500Y8892096D01*
X29480690Y8892096D01*
X29556880Y8930191D01*
X29594976Y8968286D01*
X29633071Y9044477D01*
X29671166Y9196858D01*
X29671166Y9387334D01*
X29633071Y9539715D01*
X29594976Y9615905D01*
X29556880Y9654000D01*
X29480690Y9692096D01*
X37502142Y36916048D02*
X37549761Y36963667D01*
X37597380Y37106524D01*
X37597380Y37201762D01*
X37549761Y37344620D01*
X37454523Y37439858D01*
X37359285Y37487477D01*
X37168809Y37535096D01*
X37025952Y37535096D01*
X36835476Y37487477D01*
X36740238Y37439858D01*
X36645000Y37344620D01*
X36597380Y37201762D01*
X36597380Y37106524D01*
X36645000Y36963667D01*
X36692619Y36916048D01*
X36692619Y36535096D02*
X36645000Y36487477D01*
X36597380Y36392239D01*
X36597380Y36154143D01*
X36645000Y36058905D01*
X36692619Y36011286D01*
X36787857Y35963667D01*
X36883095Y35963667D01*
X37025952Y36011286D01*
X37597380Y36582715D01*
X37597380Y35963667D01*
X37597380Y35011286D02*
X37597380Y35582715D01*
X37597380Y35297000D02*
X36597380Y35297000D01*
X36740238Y35392239D01*
X36835476Y35487477D01*
X36883095Y35582715D01*
X36930714Y34154143D02*
X37597380Y34154143D01*
X36549761Y34392239D02*
X37264047Y34630334D01*
X37264047Y34011286D01*
X28619285Y42311620D02*
X28619285Y41502096D01*
X28571666Y41406858D01*
X28524047Y41359239D01*
X28428809Y41311620D01*
X28238333Y41311620D01*
X28143095Y41359239D01*
X28095476Y41406858D01*
X28047857Y41502096D01*
X28047857Y42311620D01*
X27095476Y42311620D02*
X27571666Y42311620D01*
X27619285Y41835429D01*
X27571666Y41883048D01*
X27476428Y41930667D01*
X27238333Y41930667D01*
X27143095Y41883048D01*
X27095476Y41835429D01*
X27047857Y41740191D01*
X27047857Y41502096D01*
X27095476Y41406858D01*
X27143095Y41359239D01*
X27238333Y41311620D01*
X27476428Y41311620D01*
X27571666Y41359239D01*
X27619285Y41406858D01*
X26428809Y42311620D02*
X26333571Y42311620D01*
X26238333Y42264000D01*
X26190714Y42216381D01*
X26143095Y42121143D01*
X26095476Y41930667D01*
X26095476Y41692572D01*
X26143095Y41502096D01*
X26190714Y41406858D01*
X26238333Y41359239D01*
X26333571Y41311620D01*
X26428809Y41311620D01*
X26524047Y41359239D01*
X26571666Y41406858D01*
X26619285Y41502096D01*
X26666904Y41692572D01*
X26666904Y41930667D01*
X26619285Y42121143D01*
X26571666Y42216381D01*
X26524047Y42264000D01*
X26428809Y42311620D01*
X25143095Y41311620D02*
X25714523Y41311620D01*
X25428809Y41311620D02*
X25428809Y42311620D01*
X25524047Y42168762D01*
X25619285Y42073524D01*
X25714523Y42025905D01*
X4783047Y9741620D02*
X5259238Y9741620D01*
X5259238Y10741620D01*
X4544952Y10741620D02*
X3925904Y10741620D01*
X4259238Y10360667D01*
X4116380Y10360667D01*
X4021142Y10313048D01*
X3973523Y10265429D01*
X3925904Y10170191D01*
X3925904Y9932096D01*
X3973523Y9836858D01*
X4021142Y9789239D01*
X4116380Y9741620D01*
X4402095Y9741620D01*
X4497333Y9789239D01*
X4544952Y9836858D01*
X3306857Y10741620D02*
X3211619Y10741620D01*
X3116380Y10694000D01*
X3068761Y10646381D01*
X3021142Y10551143D01*
X2973523Y10360667D01*
X2973523Y10122572D01*
X3021142Y9932096D01*
X3068761Y9836858D01*
X3116380Y9789239D01*
X3211619Y9741620D01*
X3306857Y9741620D01*
X3402095Y9789239D01*
X3449714Y9836858D01*
X3497333Y9932096D01*
X3544952Y10122572D01*
X3544952Y10360667D01*
X3497333Y10551143D01*
X3449714Y10646381D01*
X3402095Y10694000D01*
X3306857Y10741620D01*
X2021142Y9741620D02*
X2592571Y9741620D01*
X2306857Y9741620D02*
X2306857Y10741620D01*
X2402095Y10598762D01*
X2497333Y10503524D01*
X2592571Y10455905D01*
X1993904Y25082381D02*
X1193904Y25082381D01*
X1193904Y24891905D01*
X1232000Y24777620D01*
X1308190Y24701429D01*
X1384380Y24663334D01*
X1536761Y24625239D01*
X1651047Y24625239D01*
X1803428Y24663334D01*
X1879619Y24701429D01*
X1955809Y24777620D01*
X1993904Y24891905D01*
X1993904Y25082381D01*
X1193904Y24358572D02*
X1193904Y23863334D01*
X1498666Y24130000D01*
X1498666Y24015715D01*
X1536761Y23939524D01*
X1574857Y23901429D01*
X1651047Y23863334D01*
X1841523Y23863334D01*
X1917714Y23901429D01*
X1955809Y23939524D01*
X1993904Y24015715D01*
X1993904Y24244286D01*
X1955809Y24320477D01*
X1917714Y24358572D01*
X1193904Y23368096D02*
X1193904Y23291905D01*
X1232000Y23215715D01*
X1270095Y23177620D01*
X1346285Y23139524D01*
X1498666Y23101429D01*
X1689142Y23101429D01*
X1841523Y23139524D01*
X1917714Y23177620D01*
X1955809Y23215715D01*
X1993904Y23291905D01*
X1993904Y23368096D01*
X1955809Y23444286D01*
X1917714Y23482381D01*
X1841523Y23520477D01*
X1689142Y23558572D01*
X1498666Y23558572D01*
X1346285Y23520477D01*
X1270095Y23482381D01*
X1232000Y23444286D01*
X1193904Y23368096D01*
X1193904Y22834762D02*
X1193904Y22339524D01*
X1498666Y22606191D01*
X1498666Y22491905D01*
X1536761Y22415715D01*
X1574857Y22377620D01*
X1651047Y22339524D01*
X1841523Y22339524D01*
X1917714Y22377620D01*
X1955809Y22415715D01*
X1993904Y22491905D01*
X1993904Y22720477D01*
X1955809Y22796667D01*
X1917714Y22834762D01*
X4386904Y19914120D02*
X4386904Y20914120D01*
X3815476Y19914120D02*
X4244047Y20485548D01*
X3815476Y20914120D02*
X4386904Y20342691D01*
X4426595Y24960334D02*
X3950404Y24960334D01*
X4521833Y24674620D02*
X4188500Y25674620D01*
X3855166Y24674620D01*
X8106404Y21845881D02*
X7306404Y21845881D01*
X7306404Y21655405D01*
X7344500Y21541120D01*
X7420690Y21464929D01*
X7496880Y21426834D01*
X7649261Y21388739D01*
X7763547Y21388739D01*
X7915928Y21426834D01*
X7992119Y21464929D01*
X8068309Y21541120D01*
X8106404Y21655405D01*
X8106404Y21845881D01*
X7306404Y21122072D02*
X7306404Y20626834D01*
X7611166Y20893500D01*
X7611166Y20779215D01*
X7649261Y20703024D01*
X7687357Y20664929D01*
X7763547Y20626834D01*
X7954023Y20626834D01*
X8030214Y20664929D01*
X8068309Y20703024D01*
X8106404Y20779215D01*
X8106404Y21007786D01*
X8068309Y21083977D01*
X8030214Y21122072D01*
X7306404Y20131596D02*
X7306404Y20055405D01*
X7344500Y19979215D01*
X7382595Y19941120D01*
X7458785Y19903024D01*
X7611166Y19864929D01*
X7801642Y19864929D01*
X7954023Y19903024D01*
X8030214Y19941120D01*
X8068309Y19979215D01*
X8106404Y20055405D01*
X8106404Y20131596D01*
X8068309Y20207786D01*
X8030214Y20245881D01*
X7954023Y20283977D01*
X7801642Y20322072D01*
X7611166Y20322072D01*
X7458785Y20283977D01*
X7382595Y20245881D01*
X7344500Y20207786D01*
X7306404Y20131596D01*
X7573071Y19179215D02*
X8106404Y19179215D01*
X7268309Y19369691D02*
X7839738Y19560167D01*
X7839738Y19064929D01*
X5322904Y24674620D02*
X5322904Y25674620D01*
X4751476Y24674620D02*
X5180047Y25246048D01*
X4751476Y25674620D02*
X5322904Y25103191D01*
X5633095Y20199834D02*
X5156904Y20199834D01*
X5728333Y19914120D02*
X5395000Y20914120D01*
X5061666Y19914120D01*
X8953380Y6288596D02*
X8953380Y7088596D01*
X8762904Y7088596D01*
X8648619Y7050500D01*
X8572428Y6974310D01*
X8534333Y6898120D01*
X8496238Y6745739D01*
X8496238Y6631453D01*
X8534333Y6479072D01*
X8572428Y6402881D01*
X8648619Y6326691D01*
X8762904Y6288596D01*
X8953380Y6288596D01*
X8229571Y7088596D02*
X7734333Y7088596D01*
X8001000Y6783834D01*
X7886714Y6783834D01*
X7810523Y6745739D01*
X7772428Y6707643D01*
X7734333Y6631453D01*
X7734333Y6440977D01*
X7772428Y6364786D01*
X7810523Y6326691D01*
X7886714Y6288596D01*
X8115285Y6288596D01*
X8191476Y6326691D01*
X8229571Y6364786D01*
X7239095Y7088596D02*
X7162904Y7088596D01*
X7086714Y7050500D01*
X7048619Y7012405D01*
X7010523Y6936215D01*
X6972428Y6783834D01*
X6972428Y6593358D01*
X7010523Y6440977D01*
X7048619Y6364786D01*
X7086714Y6326691D01*
X7162904Y6288596D01*
X7239095Y6288596D01*
X7315285Y6326691D01*
X7353380Y6364786D01*
X7391476Y6440977D01*
X7429571Y6593358D01*
X7429571Y6783834D01*
X7391476Y6936215D01*
X7353380Y7012405D01*
X7315285Y7050500D01*
X7239095Y7088596D01*
X6210523Y6288596D02*
X6667666Y6288596D01*
X6439095Y6288596D02*
X6439095Y7088596D01*
X6515285Y6974310D01*
X6591476Y6898120D01*
X6667666Y6860024D01*
X14379095Y8323334D02*
X13902904Y8323334D01*
X14474333Y8037620D02*
X14141000Y9037620D01*
X13807666Y8037620D01*
X6402904Y8037620D02*
X6402904Y9037620D01*
X5831476Y8037620D02*
X6260047Y8609048D01*
X5831476Y9037620D02*
X6402904Y8466191D01*
M02*
