%TF.GenerationSoftware,KiCad,Pcbnew,(5.0.2)-1*%
%TF.CreationDate,2019-03-11T21:45:58+00:00*%
%TF.ProjectId,uDSP-1.0,75445350-2d31-42e3-902e-6b696361645f,1.0*%
%TF.SameCoordinates,PX660b0c0PY81b3200*%
%TF.FileFunction,Copper,L2,Inr*%
%TF.FilePolarity,Positive*%
%FSLAX46Y46*%
G04 Gerber Fmt 4.6, Leading zero omitted, Abs format (unit mm)*
G04 Created by KiCad (PCBNEW (5.0.2)-1) date 11/03/2019 21:45:58*
%MOMM*%
%LPD*%
G01*
G04 APERTURE LIST*
%ADD10C,0.100000*%
%ADD11C,0.200000*%
%ADD12C,1.600000*%
%ADD13R,1.600000X1.600000*%
%ADD14C,0.800000*%
%ADD15C,5.000000*%
%ADD16C,1.500000*%
%ADD17O,3.200000X1.600000*%
%ADD18C,0.600000*%
%ADD19C,0.700000*%
%ADD20C,0.254000*%
G04 APERTURE END LIST*
D10*
X0Y50000000D02*
X0Y0D01*
X50000000Y50000000D02*
X0Y50000000D01*
X50000000Y0D02*
X50000000Y50000000D01*
X0Y0D02*
X50000000Y0D01*
D11*
X4394285Y42978381D02*
X4441904Y43026000D01*
X4537142Y43073620D01*
X4775238Y43073620D01*
X4870476Y43026000D01*
X4918095Y42978381D01*
X4965714Y42883143D01*
X4965714Y42787905D01*
X4918095Y42645048D01*
X4346666Y42073620D01*
X4965714Y42073620D01*
D12*
X33890000Y4680000D03*
X31350000Y4680000D03*
D13*
X26270000Y4680000D03*
D12*
X28810000Y4680000D03*
X46590000Y12300000D03*
X44050000Y12300000D03*
X46590000Y14840000D03*
X44050000Y14840000D03*
X46590000Y17380000D03*
X44050000Y17380000D03*
X46590000Y19920000D03*
X44050000Y19920000D03*
X46590000Y22460000D03*
D13*
X44050000Y22460000D03*
D14*
X30086981Y29438019D03*
X26905000Y26256038D03*
X23723019Y29438019D03*
X26905000Y32620000D03*
D15*
X26905000Y29438019D03*
D12*
X41510000Y4680000D03*
D13*
X36430000Y4680000D03*
D12*
X38970000Y4680000D03*
X46590000Y32620000D03*
D13*
X46590000Y30080000D03*
D12*
X46590000Y35160000D03*
X46590000Y37700000D03*
X46590000Y40240000D03*
X21190000Y9760000D03*
D13*
X21190000Y7220000D03*
D12*
X21190000Y12300000D03*
X38970000Y2140000D03*
D13*
X36430000Y2140000D03*
D12*
X41510000Y2140000D03*
X26270000Y7220000D03*
D13*
X28810000Y7220000D03*
D12*
X23730000Y7220000D03*
X28810000Y2140000D03*
D13*
X26270000Y2140000D03*
D12*
X31350000Y2140000D03*
X33890000Y2140000D03*
X16110000Y47860000D03*
D13*
X18650000Y47860000D03*
D12*
X13570000Y47860000D03*
X11030000Y47860000D03*
X8490000Y47860000D03*
X16110000Y45320000D03*
D13*
X18650000Y45320000D03*
D12*
X13570000Y45320000D03*
X11030000Y45320000D03*
X8490000Y45320000D03*
X3410000Y37700000D03*
D13*
X3410000Y40240000D03*
D12*
X3410000Y35160000D03*
X3410000Y32620000D03*
X3410000Y30080000D03*
X5950000Y37700000D03*
D13*
X5950000Y40240000D03*
D12*
X5950000Y35160000D03*
X5950000Y32620000D03*
X5950000Y30080000D03*
X38970000Y45320000D03*
D13*
X41510000Y45320000D03*
D12*
X36430000Y45320000D03*
X33890000Y45320000D03*
X31350000Y45320000D03*
X38970000Y47860000D03*
D13*
X41510000Y47860000D03*
D12*
X36430000Y47860000D03*
X33890000Y47860000D03*
X31350000Y47860000D03*
X44050000Y32620000D03*
D13*
X44050000Y30080000D03*
D12*
X44050000Y35160000D03*
X44050000Y37700000D03*
X44050000Y40240000D03*
X26270000Y45320000D03*
D13*
X23730000Y45320000D03*
D12*
X28810000Y45320000D03*
X26270000Y47860000D03*
D13*
X23730000Y47860000D03*
D12*
X28810000Y47860000D03*
X36430000Y7220000D03*
D13*
X38970000Y7220000D03*
D12*
X33890000Y7220000D03*
X31350000Y7220000D03*
D13*
X21190000Y2140000D03*
D12*
X21190000Y4680000D03*
D13*
X23730000Y2140000D03*
D12*
X23730000Y4680000D03*
D16*
X44050000Y42780000D03*
D17*
X10395000Y4680000D03*
D12*
X13570000Y4680000D03*
D18*
X31350000Y43605500D03*
X41662400Y19259600D03*
X34702800Y19310400D03*
X31350000Y11665000D03*
X35621000Y37575000D03*
X23175000Y11793964D03*
X1585000Y18525000D03*
X35113000Y29574000D03*
X27366000Y22081000D03*
X26604000Y38337000D03*
X8570000Y10587500D03*
X3490000Y7031500D03*
X1077000Y8873000D03*
X1077000Y7031500D03*
X5839500Y10460500D03*
X1013500Y13826000D03*
X7617500Y4682000D03*
X10411500Y6587000D03*
X11919000Y2775000D03*
X39351000Y24111000D03*
X38208000Y29826000D03*
X41129000Y31350000D03*
X20047000Y47733000D03*
X22333000Y47733000D03*
X49130000Y42780000D03*
X49130000Y37700000D03*
X49130000Y32620000D03*
X49130000Y26270000D03*
X49130000Y21190000D03*
X49130000Y16110000D03*
X49130000Y11030000D03*
X49130000Y5950000D03*
X5950000Y870000D03*
X14840000Y870000D03*
X27540000Y870000D03*
X37700000Y870000D03*
X44050000Y870000D03*
X22460000Y870000D03*
X870000Y44050000D03*
X5950000Y49130000D03*
X870000Y37700000D03*
X870000Y22206000D03*
X16872000Y23984000D03*
X16849662Y22990338D03*
X14967000Y13697000D03*
X14967000Y14459000D03*
X20301000Y25762000D03*
X27921000Y18523000D03*
X27921000Y15983000D03*
X25381000Y16364000D03*
X9887000Y13887500D03*
X11665000Y10649000D03*
X14014500Y10712500D03*
X3918000Y16046500D03*
X1568500Y16237000D03*
X6267500Y13570000D03*
X17316500Y19348500D03*
X10776000Y18078500D03*
X9252000Y21825000D03*
X2013000Y27540000D03*
X2013000Y28429000D03*
X41637000Y12935000D03*
X41637000Y11538000D03*
X32493000Y8744000D03*
X17062500Y27476500D03*
X18701978Y38069478D03*
X19365000Y29447000D03*
X14602500Y27478500D03*
X13205500Y32939500D03*
X9014500Y31923500D03*
X11681500Y31923500D03*
X13269000Y29701000D03*
X26921500Y34971500D03*
X17396500Y29955000D03*
X36319500Y12937000D03*
X19555500Y2904000D03*
X19365000Y9889000D03*
X9014500Y18969500D03*
X22413000Y40559500D03*
X24699000Y41512000D03*
X20254000Y39607000D03*
X30350500Y43607500D03*
X7808000Y16747000D03*
X4760000Y12683010D03*
X7220000Y16745000D03*
X1886000Y21190000D03*
X2902000Y26397000D03*
X19285000Y7855000D03*
X40900400Y28352800D03*
X41662400Y24136400D03*
X37576032Y19285000D03*
X37954000Y30969000D03*
X22447338Y38633384D03*
X35621000Y33511000D03*
X33334991Y33892008D03*
X36637000Y9000000D03*
X18920500Y14334000D03*
X15475000Y5950000D03*
X4680000Y26397000D03*
X7347000Y26397000D03*
X5569000Y26397000D03*
X6458000Y26397000D03*
X3791000Y26397000D03*
X6966000Y27413000D03*
X6966000Y28302000D03*
X9887000Y19539000D03*
X15983000Y16491000D03*
X25461000Y20938000D03*
X26905000Y15983000D03*
X18650004Y28359190D03*
X7681000Y41512000D03*
X13205500Y31987000D03*
X4696500Y23097000D03*
X4696500Y22335000D03*
X7554000Y23097000D03*
X7554000Y22335000D03*
X7808000Y24049500D03*
X7808000Y25510000D03*
X8570000Y24240000D03*
X11999000Y29066000D03*
X14586000Y20936000D03*
X30461000Y41602010D03*
X18579951Y31333505D03*
X12507000Y28558000D03*
X11999000Y28050000D03*
X35493992Y28431000D03*
X12046000Y20936000D03*
X13316000Y20936000D03*
X12681000Y20428000D03*
X13951000Y20428000D03*
D19*
X13316000Y19920000D03*
D18*
X27794004Y20936000D03*
X21053493Y24568630D03*
X21183013Y23589526D03*
X20351978Y21930934D03*
X22652799Y23787011D03*
X26270000Y20428000D03*
X21952000Y21825000D03*
X23983996Y14205000D03*
X22586988Y22587000D03*
X29064000Y43796000D03*
X17742913Y26176382D03*
X26477000Y9127000D03*
X33255000Y23730000D03*
X33890000Y24873000D03*
X18523973Y26349484D03*
X12189500Y38591000D03*
X13269000Y38591004D03*
X12888000Y37067000D03*
X15268742Y38905014D03*
X17380000Y39541500D03*
X40319996Y33511000D03*
X39049990Y33765000D03*
X38161000Y34019000D03*
X41510000Y39224000D03*
X35541000Y39732000D03*
X19285000Y5950000D03*
X42987000Y7984000D03*
X21190000Y44050000D03*
X23730000Y44049980D03*
X12490500Y41510000D03*
X25762000Y13062000D03*
X23984000Y17126000D03*
X22968000Y14205000D03*
X20936000Y14205000D03*
X21952000Y14205000D03*
X34374135Y37600396D03*
X33550987Y37575000D03*
X32188236Y23699976D03*
X31583029Y24223180D03*
X33255000Y22460000D03*
X26422400Y22002800D03*
X17634000Y24873010D03*
X18904000Y21952006D03*
X34718195Y22863349D03*
X36049000Y24746000D03*
X35367000Y27415000D03*
X25461000Y9127000D03*
D20*
G36*
X44615406Y49320495D02*
X43679505Y48384594D01*
X43173000Y47161781D01*
X43173000Y45838219D01*
X43679505Y44615406D01*
X44124343Y44170568D01*
X43704552Y44149230D01*
X43326077Y43992460D01*
X43258088Y43751517D01*
X44050000Y42959605D01*
X44064143Y42973747D01*
X44243748Y42794142D01*
X44229605Y42780000D01*
X45021517Y41988088D01*
X45262460Y42056077D01*
X45447201Y42575171D01*
X45419230Y43125448D01*
X45308678Y43392343D01*
X45838219Y43173000D01*
X47161781Y43173000D01*
X48384594Y43679505D01*
X49320495Y44615406D01*
X49373000Y44742164D01*
X49373000Y5257836D01*
X49320495Y5384594D01*
X48384594Y6320495D01*
X47161781Y6827000D01*
X45838219Y6827000D01*
X44615406Y6320495D01*
X43679505Y5384594D01*
X43173000Y4161781D01*
X43173000Y2838219D01*
X43679505Y1615406D01*
X44615406Y679505D01*
X44742164Y627000D01*
X5257836Y627000D01*
X5384594Y679505D01*
X6320495Y1615406D01*
X6827000Y2838219D01*
X6827000Y2940000D01*
X19954635Y2940000D01*
X19954635Y1340000D01*
X19987775Y1173393D01*
X20082150Y1032150D01*
X20223393Y937775D01*
X20390000Y904635D01*
X21990000Y904635D01*
X22156607Y937775D01*
X22297850Y1032150D01*
X22392225Y1173393D01*
X22425365Y1340000D01*
X22425365Y2940000D01*
X22494635Y2940000D01*
X22494635Y1340000D01*
X22527775Y1173393D01*
X22622150Y1032150D01*
X22763393Y937775D01*
X22930000Y904635D01*
X24530000Y904635D01*
X24696607Y937775D01*
X24837850Y1032150D01*
X24932225Y1173393D01*
X24965365Y1340000D01*
X24965365Y2940000D01*
X25034635Y2940000D01*
X25034635Y1340000D01*
X25067775Y1173393D01*
X25162150Y1032150D01*
X25303393Y937775D01*
X25470000Y904635D01*
X27070000Y904635D01*
X27236607Y937775D01*
X27377850Y1032150D01*
X27472225Y1173393D01*
X27505365Y1340000D01*
X27505365Y2384065D01*
X27583000Y2384065D01*
X27583000Y1895935D01*
X27769800Y1444961D01*
X28114961Y1099800D01*
X28565935Y913000D01*
X29054065Y913000D01*
X29505039Y1099800D01*
X29850200Y1444961D01*
X30037000Y1895935D01*
X30037000Y2384065D01*
X30123000Y2384065D01*
X30123000Y1895935D01*
X30309800Y1444961D01*
X30654961Y1099800D01*
X31105935Y913000D01*
X31594065Y913000D01*
X32045039Y1099800D01*
X32077494Y1132255D01*
X33061861Y1132255D01*
X33135995Y886136D01*
X33673223Y693035D01*
X34243454Y720222D01*
X34644005Y886136D01*
X34718139Y1132255D01*
X33890000Y1960395D01*
X33061861Y1132255D01*
X32077494Y1132255D01*
X32390200Y1444961D01*
X32500956Y1712348D01*
X32636136Y1385995D01*
X32882255Y1311861D01*
X33710395Y2140000D01*
X34069605Y2140000D01*
X34897745Y1311861D01*
X35143864Y1385995D01*
X35194635Y1527245D01*
X35194635Y1340000D01*
X35227775Y1173393D01*
X35322150Y1032150D01*
X35463393Y937775D01*
X35630000Y904635D01*
X37230000Y904635D01*
X37396607Y937775D01*
X37537850Y1032150D01*
X37632225Y1173393D01*
X37665365Y1340000D01*
X37665365Y2384065D01*
X37743000Y2384065D01*
X37743000Y1895935D01*
X37929800Y1444961D01*
X38274961Y1099800D01*
X38725935Y913000D01*
X39214065Y913000D01*
X39665039Y1099800D01*
X40010200Y1444961D01*
X40197000Y1895935D01*
X40197000Y2384065D01*
X40283000Y2384065D01*
X40283000Y1895935D01*
X40469800Y1444961D01*
X40814961Y1099800D01*
X41265935Y913000D01*
X41754065Y913000D01*
X42205039Y1099800D01*
X42550200Y1444961D01*
X42737000Y1895935D01*
X42737000Y2384065D01*
X42550200Y2835039D01*
X42205039Y3180200D01*
X41937652Y3290956D01*
X42264005Y3426136D01*
X42338139Y3672255D01*
X41510000Y4500395D01*
X40681861Y3672255D01*
X40755995Y3426136D01*
X41105454Y3300527D01*
X40814961Y3180200D01*
X40469800Y2835039D01*
X40283000Y2384065D01*
X40197000Y2384065D01*
X40010200Y2835039D01*
X39665039Y3180200D01*
X39214065Y3367000D01*
X38725935Y3367000D01*
X38274961Y3180200D01*
X37929800Y2835039D01*
X37743000Y2384065D01*
X37665365Y2384065D01*
X37665365Y2940000D01*
X37632225Y3106607D01*
X37537850Y3247850D01*
X37396607Y3342225D01*
X37230000Y3375365D01*
X35630000Y3375365D01*
X35463393Y3342225D01*
X35322150Y3247850D01*
X35227775Y3106607D01*
X35194635Y2940000D01*
X35194635Y2771433D01*
X35143864Y2894005D01*
X34897745Y2968139D01*
X34069605Y2140000D01*
X33710395Y2140000D01*
X32882255Y2968139D01*
X32636136Y2894005D01*
X32510527Y2544546D01*
X32390200Y2835039D01*
X32045039Y3180200D01*
X31594065Y3367000D01*
X31105935Y3367000D01*
X30654961Y3180200D01*
X30309800Y2835039D01*
X30123000Y2384065D01*
X30037000Y2384065D01*
X29850200Y2835039D01*
X29505039Y3180200D01*
X29054065Y3367000D01*
X28565935Y3367000D01*
X28114961Y3180200D01*
X27769800Y2835039D01*
X27583000Y2384065D01*
X27505365Y2384065D01*
X27505365Y2940000D01*
X27472225Y3106607D01*
X27377850Y3247850D01*
X27236607Y3342225D01*
X27070000Y3375365D01*
X25470000Y3375365D01*
X25303393Y3342225D01*
X25162150Y3247850D01*
X25067775Y3106607D01*
X25034635Y2940000D01*
X24965365Y2940000D01*
X24932225Y3106607D01*
X24837850Y3247850D01*
X24696607Y3342225D01*
X24530000Y3375365D01*
X24361433Y3375365D01*
X24484005Y3426136D01*
X24558139Y3672255D01*
X23730000Y4500395D01*
X22901861Y3672255D01*
X22975995Y3426136D01*
X23117245Y3375365D01*
X22930000Y3375365D01*
X22763393Y3342225D01*
X22622150Y3247850D01*
X22527775Y3106607D01*
X22494635Y2940000D01*
X22425365Y2940000D01*
X22392225Y3106607D01*
X22297850Y3247850D01*
X22156607Y3342225D01*
X21990000Y3375365D01*
X21821433Y3375365D01*
X21944005Y3426136D01*
X22018139Y3672255D01*
X21190000Y4500395D01*
X20361861Y3672255D01*
X20435995Y3426136D01*
X20577245Y3375365D01*
X20390000Y3375365D01*
X20223393Y3342225D01*
X20082150Y3247850D01*
X19987775Y3106607D01*
X19954635Y2940000D01*
X6827000Y2940000D01*
X6827000Y4161781D01*
X6756924Y4330961D01*
X8203096Y4330961D01*
X8220633Y4248181D01*
X8490500Y3755104D01*
X8928517Y3402834D01*
X9468000Y3245000D01*
X10268000Y3245000D01*
X10268000Y4553000D01*
X8325085Y4553000D01*
X8203096Y4330961D01*
X6756924Y4330961D01*
X6467771Y5029039D01*
X8203096Y5029039D01*
X8325085Y4807000D01*
X10268000Y4807000D01*
X10268000Y6115000D01*
X10522000Y6115000D01*
X10522000Y4807000D01*
X10542000Y4807000D01*
X10542000Y4553000D01*
X10522000Y4553000D01*
X10522000Y3245000D01*
X11322000Y3245000D01*
X11861483Y3402834D01*
X12299500Y3755104D01*
X12484784Y4093639D01*
X12529800Y3984961D01*
X12874961Y3639800D01*
X13325935Y3453000D01*
X13814065Y3453000D01*
X14265039Y3639800D01*
X14610200Y3984961D01*
X14797000Y4435935D01*
X14797000Y4896777D01*
X19743035Y4896777D01*
X19770222Y4326546D01*
X19936136Y3925995D01*
X20182255Y3851861D01*
X21010395Y4680000D01*
X21369605Y4680000D01*
X22197745Y3851861D01*
X22443864Y3925995D01*
X22458858Y3967709D01*
X22476136Y3925995D01*
X22722255Y3851861D01*
X23550395Y4680000D01*
X23909605Y4680000D01*
X24737745Y3851861D01*
X24983864Y3925995D01*
X25034635Y4067245D01*
X25034635Y3880000D01*
X25067775Y3713393D01*
X25162150Y3572150D01*
X25303393Y3477775D01*
X25470000Y3444635D01*
X27070000Y3444635D01*
X27236607Y3477775D01*
X27377850Y3572150D01*
X27472225Y3713393D01*
X27505365Y3880000D01*
X27505365Y4924065D01*
X27583000Y4924065D01*
X27583000Y4435935D01*
X27769800Y3984961D01*
X28114961Y3639800D01*
X28565935Y3453000D01*
X29054065Y3453000D01*
X29505039Y3639800D01*
X29850200Y3984961D01*
X30037000Y4435935D01*
X30037000Y4924065D01*
X30123000Y4924065D01*
X30123000Y4435935D01*
X30309800Y3984961D01*
X30654961Y3639800D01*
X31105935Y3453000D01*
X31594065Y3453000D01*
X32045039Y3639800D01*
X32390200Y3984961D01*
X32577000Y4435935D01*
X32577000Y4924065D01*
X32663000Y4924065D01*
X32663000Y4435935D01*
X32849800Y3984961D01*
X33194961Y3639800D01*
X33462348Y3529044D01*
X33135995Y3393864D01*
X33061861Y3147745D01*
X33890000Y2319605D01*
X34718139Y3147745D01*
X34644005Y3393864D01*
X34294546Y3519473D01*
X34585039Y3639800D01*
X34930200Y3984961D01*
X35117000Y4435935D01*
X35117000Y4924065D01*
X34930200Y5375039D01*
X34825239Y5480000D01*
X35194635Y5480000D01*
X35194635Y3880000D01*
X35227775Y3713393D01*
X35322150Y3572150D01*
X35463393Y3477775D01*
X35630000Y3444635D01*
X37230000Y3444635D01*
X37396607Y3477775D01*
X37537850Y3572150D01*
X37632225Y3713393D01*
X37665365Y3880000D01*
X37665365Y5480000D01*
X37632225Y5646607D01*
X37537850Y5787850D01*
X37396607Y5882225D01*
X37230000Y5915365D01*
X35630000Y5915365D01*
X35463393Y5882225D01*
X35322150Y5787850D01*
X35227775Y5646607D01*
X35194635Y5480000D01*
X34825239Y5480000D01*
X34585039Y5720200D01*
X34317652Y5830956D01*
X34644005Y5966136D01*
X34718139Y6212255D01*
X33890000Y7040395D01*
X33061861Y6212255D01*
X33135995Y5966136D01*
X33485454Y5840527D01*
X33194961Y5720200D01*
X32849800Y5375039D01*
X32663000Y4924065D01*
X32577000Y4924065D01*
X32390200Y5375039D01*
X32045039Y5720200D01*
X31594065Y5907000D01*
X31105935Y5907000D01*
X30654961Y5720200D01*
X30309800Y5375039D01*
X30123000Y4924065D01*
X30037000Y4924065D01*
X29850200Y5375039D01*
X29505039Y5720200D01*
X29054065Y5907000D01*
X28565935Y5907000D01*
X28114961Y5720200D01*
X27769800Y5375039D01*
X27583000Y4924065D01*
X27505365Y4924065D01*
X27505365Y5480000D01*
X27472225Y5646607D01*
X27377850Y5787850D01*
X27236607Y5882225D01*
X27070000Y5915365D01*
X25470000Y5915365D01*
X25303393Y5882225D01*
X25162150Y5787850D01*
X25067775Y5646607D01*
X25034635Y5480000D01*
X25034635Y5311433D01*
X24983864Y5434005D01*
X24737745Y5508139D01*
X23909605Y4680000D01*
X23550395Y4680000D01*
X22722255Y5508139D01*
X22476136Y5434005D01*
X22461142Y5392291D01*
X22443864Y5434005D01*
X22197745Y5508139D01*
X21369605Y4680000D01*
X21010395Y4680000D01*
X20182255Y5508139D01*
X19936136Y5434005D01*
X19743035Y4896777D01*
X14797000Y4896777D01*
X14797000Y4924065D01*
X14610200Y5375039D01*
X14265039Y5720200D01*
X13814065Y5907000D01*
X13325935Y5907000D01*
X12874961Y5720200D01*
X12529800Y5375039D01*
X12484784Y5266361D01*
X12299500Y5604896D01*
X11861483Y5957166D01*
X11391698Y6094609D01*
X14748000Y6094609D01*
X14748000Y5805391D01*
X14858679Y5538187D01*
X15063187Y5333679D01*
X15330391Y5223000D01*
X15619609Y5223000D01*
X15886813Y5333679D01*
X16091321Y5538187D01*
X16202000Y5805391D01*
X16202000Y6094609D01*
X18558000Y6094609D01*
X18558000Y5805391D01*
X18668679Y5538187D01*
X18873187Y5333679D01*
X19140391Y5223000D01*
X19429609Y5223000D01*
X19696813Y5333679D01*
X19901321Y5538187D01*
X20012000Y5805391D01*
X20012000Y6094609D01*
X19901321Y6361813D01*
X19696813Y6566321D01*
X19429609Y6677000D01*
X19140391Y6677000D01*
X18873187Y6566321D01*
X18668679Y6361813D01*
X18558000Y6094609D01*
X16202000Y6094609D01*
X16091321Y6361813D01*
X15886813Y6566321D01*
X15619609Y6677000D01*
X15330391Y6677000D01*
X15063187Y6566321D01*
X14858679Y6361813D01*
X14748000Y6094609D01*
X11391698Y6094609D01*
X11322000Y6115000D01*
X10522000Y6115000D01*
X10268000Y6115000D01*
X9468000Y6115000D01*
X8928517Y5957166D01*
X8490500Y5604896D01*
X8220633Y5111819D01*
X8203096Y5029039D01*
X6467771Y5029039D01*
X6320495Y5384594D01*
X5384594Y6320495D01*
X4161781Y6827000D01*
X2838219Y6827000D01*
X1615406Y6320495D01*
X679505Y5384594D01*
X627000Y5257836D01*
X627000Y7999609D01*
X18558000Y7999609D01*
X18558000Y7710391D01*
X18668679Y7443187D01*
X18873187Y7238679D01*
X19140391Y7128000D01*
X19429609Y7128000D01*
X19696813Y7238679D01*
X19901321Y7443187D01*
X19954635Y7571899D01*
X19954635Y6420000D01*
X19987775Y6253393D01*
X20082150Y6112150D01*
X20223393Y6017775D01*
X20390000Y5984635D01*
X20558567Y5984635D01*
X20435995Y5933864D01*
X20361861Y5687745D01*
X21190000Y4859605D01*
X22018139Y5687745D01*
X21944005Y5933864D01*
X21802755Y5984635D01*
X21990000Y5984635D01*
X22156607Y6017775D01*
X22297850Y6112150D01*
X22392225Y6253393D01*
X22425365Y6420000D01*
X22425365Y7464065D01*
X22503000Y7464065D01*
X22503000Y6975935D01*
X22689800Y6524961D01*
X23034961Y6179800D01*
X23302348Y6069044D01*
X22975995Y5933864D01*
X22901861Y5687745D01*
X23730000Y4859605D01*
X24558139Y5687745D01*
X24484005Y5933864D01*
X24134546Y6059473D01*
X24425039Y6179800D01*
X24770200Y6524961D01*
X24957000Y6975935D01*
X24957000Y7464065D01*
X24770200Y7915039D01*
X24425039Y8260200D01*
X23974065Y8447000D01*
X23485935Y8447000D01*
X23034961Y8260200D01*
X22689800Y7915039D01*
X22503000Y7464065D01*
X22425365Y7464065D01*
X22425365Y8020000D01*
X22392225Y8186607D01*
X22297850Y8327850D01*
X22156607Y8422225D01*
X21990000Y8455365D01*
X20390000Y8455365D01*
X20223393Y8422225D01*
X20082150Y8327850D01*
X19987775Y8186607D01*
X19970505Y8099786D01*
X19901321Y8266813D01*
X19696813Y8471321D01*
X19429609Y8582000D01*
X19140391Y8582000D01*
X18873187Y8471321D01*
X18668679Y8266813D01*
X18558000Y7999609D01*
X627000Y7999609D01*
X627000Y10004065D01*
X19963000Y10004065D01*
X19963000Y9515935D01*
X20149800Y9064961D01*
X20494961Y8719800D01*
X20945935Y8533000D01*
X21434065Y8533000D01*
X21885039Y8719800D01*
X22230200Y9064961D01*
X22315796Y9271609D01*
X24734000Y9271609D01*
X24734000Y8982391D01*
X24844679Y8715187D01*
X25049187Y8510679D01*
X25316391Y8400000D01*
X25605609Y8400000D01*
X25872813Y8510679D01*
X25969000Y8606866D01*
X26065187Y8510679D01*
X26218922Y8447000D01*
X26025935Y8447000D01*
X25574961Y8260200D01*
X25229800Y7915039D01*
X25043000Y7464065D01*
X25043000Y6975935D01*
X25229800Y6524961D01*
X25574961Y6179800D01*
X26025935Y5993000D01*
X26514065Y5993000D01*
X26965039Y6179800D01*
X27310200Y6524961D01*
X27497000Y6975935D01*
X27497000Y7464065D01*
X27310200Y7915039D01*
X27205239Y8020000D01*
X27574635Y8020000D01*
X27574635Y6420000D01*
X27607775Y6253393D01*
X27702150Y6112150D01*
X27843393Y6017775D01*
X28010000Y5984635D01*
X29610000Y5984635D01*
X29776607Y6017775D01*
X29917850Y6112150D01*
X30012225Y6253393D01*
X30045365Y6420000D01*
X30045365Y7464065D01*
X30123000Y7464065D01*
X30123000Y6975935D01*
X30309800Y6524961D01*
X30654961Y6179800D01*
X31105935Y5993000D01*
X31594065Y5993000D01*
X32045039Y6179800D01*
X32390200Y6524961D01*
X32500956Y6792348D01*
X32636136Y6465995D01*
X32882255Y6391861D01*
X33710395Y7220000D01*
X34069605Y7220000D01*
X34897745Y6391861D01*
X35143864Y6465995D01*
X35269473Y6815454D01*
X35389800Y6524961D01*
X35734961Y6179800D01*
X36185935Y5993000D01*
X36674065Y5993000D01*
X37125039Y6179800D01*
X37470200Y6524961D01*
X37535000Y6681402D01*
X37535000Y6293690D01*
X37631673Y6060301D01*
X37810302Y5881673D01*
X38043691Y5785000D01*
X38431402Y5785000D01*
X38274961Y5720200D01*
X37929800Y5375039D01*
X37743000Y4924065D01*
X37743000Y4435935D01*
X37929800Y3984961D01*
X38274961Y3639800D01*
X38725935Y3453000D01*
X39214065Y3453000D01*
X39665039Y3639800D01*
X40010200Y3984961D01*
X40120956Y4252348D01*
X40256136Y3925995D01*
X40502255Y3851861D01*
X41330395Y4680000D01*
X41689605Y4680000D01*
X42517745Y3851861D01*
X42763864Y3925995D01*
X42956965Y4463223D01*
X42929778Y5033454D01*
X42763864Y5434005D01*
X42517745Y5508139D01*
X41689605Y4680000D01*
X41330395Y4680000D01*
X40502255Y5508139D01*
X40256136Y5434005D01*
X40130527Y5084546D01*
X40010200Y5375039D01*
X39697494Y5687745D01*
X40681861Y5687745D01*
X41510000Y4859605D01*
X42338139Y5687745D01*
X42264005Y5933864D01*
X41726777Y6126965D01*
X41156546Y6099778D01*
X40755995Y5933864D01*
X40681861Y5687745D01*
X39697494Y5687745D01*
X39665039Y5720200D01*
X39508598Y5785000D01*
X39896309Y5785000D01*
X40129698Y5881673D01*
X40308327Y6060301D01*
X40405000Y6293690D01*
X40405000Y6934250D01*
X40246250Y7093000D01*
X39097000Y7093000D01*
X39097000Y7073000D01*
X38843000Y7073000D01*
X38843000Y7093000D01*
X38823000Y7093000D01*
X38823000Y7347000D01*
X38843000Y7347000D01*
X38843000Y8496250D01*
X39097000Y8496250D01*
X39097000Y7347000D01*
X40246250Y7347000D01*
X40405000Y7505750D01*
X40405000Y8128609D01*
X42260000Y8128609D01*
X42260000Y7839391D01*
X42370679Y7572187D01*
X42575187Y7367679D01*
X42842391Y7257000D01*
X43131609Y7257000D01*
X43398813Y7367679D01*
X43603321Y7572187D01*
X43714000Y7839391D01*
X43714000Y8128609D01*
X43603321Y8395813D01*
X43398813Y8600321D01*
X43131609Y8711000D01*
X42842391Y8711000D01*
X42575187Y8600321D01*
X42370679Y8395813D01*
X42260000Y8128609D01*
X40405000Y8128609D01*
X40405000Y8146310D01*
X40308327Y8379699D01*
X40129698Y8558327D01*
X39896309Y8655000D01*
X39255750Y8655000D01*
X39097000Y8496250D01*
X38843000Y8496250D01*
X38684250Y8655000D01*
X38043691Y8655000D01*
X37810302Y8558327D01*
X37631673Y8379699D01*
X37535000Y8146310D01*
X37535000Y7758598D01*
X37470200Y7915039D01*
X37125039Y8260200D01*
X36937874Y8337727D01*
X37048813Y8383679D01*
X37253321Y8588187D01*
X37364000Y8855391D01*
X37364000Y9144609D01*
X37253321Y9411813D01*
X37048813Y9616321D01*
X36781609Y9727000D01*
X36492391Y9727000D01*
X36225187Y9616321D01*
X36020679Y9411813D01*
X35910000Y9144609D01*
X35910000Y8855391D01*
X36020679Y8588187D01*
X36168916Y8439950D01*
X35734961Y8260200D01*
X35389800Y7915039D01*
X35279044Y7647652D01*
X35143864Y7974005D01*
X34897745Y8048139D01*
X34069605Y7220000D01*
X33710395Y7220000D01*
X32882255Y8048139D01*
X32636136Y7974005D01*
X32510527Y7624546D01*
X32390200Y7915039D01*
X32077494Y8227745D01*
X33061861Y8227745D01*
X33890000Y7399605D01*
X34718139Y8227745D01*
X34644005Y8473864D01*
X34106777Y8666965D01*
X33536546Y8639778D01*
X33135995Y8473864D01*
X33061861Y8227745D01*
X32077494Y8227745D01*
X32045039Y8260200D01*
X31594065Y8447000D01*
X31105935Y8447000D01*
X30654961Y8260200D01*
X30309800Y7915039D01*
X30123000Y7464065D01*
X30045365Y7464065D01*
X30045365Y8020000D01*
X30012225Y8186607D01*
X29917850Y8327850D01*
X29776607Y8422225D01*
X29610000Y8455365D01*
X28010000Y8455365D01*
X27843393Y8422225D01*
X27702150Y8327850D01*
X27607775Y8186607D01*
X27574635Y8020000D01*
X27205239Y8020000D01*
X26965039Y8260200D01*
X26624571Y8401227D01*
X26888813Y8510679D01*
X27093321Y8715187D01*
X27204000Y8982391D01*
X27204000Y9271609D01*
X27093321Y9538813D01*
X26888813Y9743321D01*
X26621609Y9854000D01*
X26332391Y9854000D01*
X26065187Y9743321D01*
X25969000Y9647134D01*
X25872813Y9743321D01*
X25605609Y9854000D01*
X25316391Y9854000D01*
X25049187Y9743321D01*
X24844679Y9538813D01*
X24734000Y9271609D01*
X22315796Y9271609D01*
X22417000Y9515935D01*
X22417000Y10004065D01*
X22230200Y10455039D01*
X21885039Y10800200D01*
X21434065Y10987000D01*
X20945935Y10987000D01*
X20494961Y10800200D01*
X20149800Y10455039D01*
X19963000Y10004065D01*
X627000Y10004065D01*
X627000Y12827619D01*
X4033000Y12827619D01*
X4033000Y12538401D01*
X4143679Y12271197D01*
X4348187Y12066689D01*
X4615391Y11956010D01*
X4904609Y11956010D01*
X5171813Y12066689D01*
X5376321Y12271197D01*
X5487000Y12538401D01*
X5487000Y12544065D01*
X19963000Y12544065D01*
X19963000Y12055935D01*
X20149800Y11604961D01*
X20494961Y11259800D01*
X20945935Y11073000D01*
X21434065Y11073000D01*
X21885039Y11259800D01*
X22230200Y11604961D01*
X22417000Y12055935D01*
X22417000Y12544065D01*
X22230200Y12995039D01*
X22018630Y13206609D01*
X25035000Y13206609D01*
X25035000Y12917391D01*
X25145679Y12650187D01*
X25350187Y12445679D01*
X25617391Y12335000D01*
X25906609Y12335000D01*
X26173813Y12445679D01*
X26272199Y12544065D01*
X42823000Y12544065D01*
X42823000Y12055935D01*
X43009800Y11604961D01*
X43354961Y11259800D01*
X43805935Y11073000D01*
X44294065Y11073000D01*
X44745039Y11259800D01*
X44777494Y11292255D01*
X45761861Y11292255D01*
X45835995Y11046136D01*
X46373223Y10853035D01*
X46943454Y10880222D01*
X47344005Y11046136D01*
X47418139Y11292255D01*
X46590000Y12120395D01*
X45761861Y11292255D01*
X44777494Y11292255D01*
X45090200Y11604961D01*
X45200956Y11872348D01*
X45336136Y11545995D01*
X45582255Y11471861D01*
X46410395Y12300000D01*
X46769605Y12300000D01*
X47597745Y11471861D01*
X47843864Y11545995D01*
X48036965Y12083223D01*
X48009778Y12653454D01*
X47843864Y13054005D01*
X47597745Y13128139D01*
X46769605Y12300000D01*
X46410395Y12300000D01*
X45582255Y13128139D01*
X45336136Y13054005D01*
X45210527Y12704546D01*
X45090200Y12995039D01*
X44745039Y13340200D01*
X44294065Y13527000D01*
X43805935Y13527000D01*
X43354961Y13340200D01*
X43009800Y12995039D01*
X42823000Y12544065D01*
X26272199Y12544065D01*
X26378321Y12650187D01*
X26489000Y12917391D01*
X26489000Y13206609D01*
X26378321Y13473813D01*
X26173813Y13678321D01*
X25906609Y13789000D01*
X25617391Y13789000D01*
X25350187Y13678321D01*
X25145679Y13473813D01*
X25035000Y13206609D01*
X22018630Y13206609D01*
X21885039Y13340200D01*
X21434065Y13527000D01*
X21198906Y13527000D01*
X21347813Y13588679D01*
X21444000Y13684866D01*
X21540187Y13588679D01*
X21807391Y13478000D01*
X22096609Y13478000D01*
X22363813Y13588679D01*
X22460000Y13684866D01*
X22556187Y13588679D01*
X22823391Y13478000D01*
X23112609Y13478000D01*
X23379813Y13588679D01*
X23475998Y13684864D01*
X23572183Y13588679D01*
X23839387Y13478000D01*
X24128605Y13478000D01*
X24395809Y13588679D01*
X24600317Y13793187D01*
X24710996Y14060391D01*
X24710996Y14349609D01*
X24600317Y14616813D01*
X24395809Y14821321D01*
X24128605Y14932000D01*
X23839387Y14932000D01*
X23572183Y14821321D01*
X23475998Y14725136D01*
X23379813Y14821321D01*
X23112609Y14932000D01*
X22823391Y14932000D01*
X22556187Y14821321D01*
X22460000Y14725134D01*
X22363813Y14821321D01*
X22096609Y14932000D01*
X21807391Y14932000D01*
X21540187Y14821321D01*
X21444000Y14725134D01*
X21347813Y14821321D01*
X21080609Y14932000D01*
X20791391Y14932000D01*
X20524187Y14821321D01*
X20319679Y14616813D01*
X20209000Y14349609D01*
X20209000Y14060391D01*
X20319679Y13793187D01*
X20524187Y13588679D01*
X20791391Y13478000D01*
X20827639Y13478000D01*
X20494961Y13340200D01*
X20149800Y12995039D01*
X19963000Y12544065D01*
X5487000Y12544065D01*
X5487000Y12827619D01*
X5376321Y13094823D01*
X5171813Y13299331D01*
X4904609Y13410010D01*
X4615391Y13410010D01*
X4348187Y13299331D01*
X4143679Y13094823D01*
X4033000Y12827619D01*
X627000Y12827619D01*
X627000Y14478609D01*
X18193500Y14478609D01*
X18193500Y14189391D01*
X18304179Y13922187D01*
X18508687Y13717679D01*
X18775891Y13607000D01*
X19065109Y13607000D01*
X19332313Y13717679D01*
X19536821Y13922187D01*
X19647500Y14189391D01*
X19647500Y14478609D01*
X19536821Y14745813D01*
X19332313Y14950321D01*
X19065109Y15061000D01*
X18775891Y15061000D01*
X18508687Y14950321D01*
X18304179Y14745813D01*
X18193500Y14478609D01*
X627000Y14478609D01*
X627000Y15084065D01*
X42823000Y15084065D01*
X42823000Y14595935D01*
X43009800Y14144961D01*
X43354961Y13799800D01*
X43805935Y13613000D01*
X44294065Y13613000D01*
X44745039Y13799800D01*
X45090200Y14144961D01*
X45277000Y14595935D01*
X45277000Y15084065D01*
X45363000Y15084065D01*
X45363000Y14595935D01*
X45549800Y14144961D01*
X45894961Y13799800D01*
X46162348Y13689044D01*
X45835995Y13553864D01*
X45761861Y13307745D01*
X46590000Y12479605D01*
X47418139Y13307745D01*
X47344005Y13553864D01*
X46994546Y13679473D01*
X47285039Y13799800D01*
X47630200Y14144961D01*
X47817000Y14595935D01*
X47817000Y15084065D01*
X47630200Y15535039D01*
X47285039Y15880200D01*
X46834065Y16067000D01*
X46345935Y16067000D01*
X45894961Y15880200D01*
X45549800Y15535039D01*
X45363000Y15084065D01*
X45277000Y15084065D01*
X45090200Y15535039D01*
X44745039Y15880200D01*
X44294065Y16067000D01*
X43805935Y16067000D01*
X43354961Y15880200D01*
X43009800Y15535039D01*
X42823000Y15084065D01*
X627000Y15084065D01*
X627000Y16889609D01*
X6493000Y16889609D01*
X6493000Y16600391D01*
X6603679Y16333187D01*
X6808187Y16128679D01*
X7075391Y16018000D01*
X7364609Y16018000D01*
X7516414Y16080879D01*
X7663391Y16020000D01*
X7952609Y16020000D01*
X8219813Y16130679D01*
X8424321Y16335187D01*
X8535000Y16602391D01*
X8535000Y16635609D01*
X15256000Y16635609D01*
X15256000Y16346391D01*
X15366679Y16079187D01*
X15571187Y15874679D01*
X15838391Y15764000D01*
X16127609Y15764000D01*
X16394813Y15874679D01*
X16599321Y16079187D01*
X16619377Y16127609D01*
X26178000Y16127609D01*
X26178000Y15838391D01*
X26288679Y15571187D01*
X26493187Y15366679D01*
X26760391Y15256000D01*
X27049609Y15256000D01*
X27316813Y15366679D01*
X27521321Y15571187D01*
X27632000Y15838391D01*
X27632000Y16127609D01*
X27521321Y16394813D01*
X27316813Y16599321D01*
X27049609Y16710000D01*
X26760391Y16710000D01*
X26493187Y16599321D01*
X26288679Y16394813D01*
X26178000Y16127609D01*
X16619377Y16127609D01*
X16710000Y16346391D01*
X16710000Y16635609D01*
X16599321Y16902813D01*
X16394813Y17107321D01*
X16127609Y17218000D01*
X15838391Y17218000D01*
X15571187Y17107321D01*
X15366679Y16902813D01*
X15256000Y16635609D01*
X8535000Y16635609D01*
X8535000Y16891609D01*
X8424321Y17158813D01*
X8312525Y17270609D01*
X23257000Y17270609D01*
X23257000Y16981391D01*
X23367679Y16714187D01*
X23572187Y16509679D01*
X23839391Y16399000D01*
X24128609Y16399000D01*
X24395813Y16509679D01*
X24600321Y16714187D01*
X24711000Y16981391D01*
X24711000Y17270609D01*
X24600321Y17537813D01*
X24514069Y17624065D01*
X42823000Y17624065D01*
X42823000Y17135935D01*
X43009800Y16684961D01*
X43354961Y16339800D01*
X43805935Y16153000D01*
X44294065Y16153000D01*
X44745039Y16339800D01*
X45090200Y16684961D01*
X45277000Y17135935D01*
X45277000Y17624065D01*
X45363000Y17624065D01*
X45363000Y17135935D01*
X45549800Y16684961D01*
X45894961Y16339800D01*
X46345935Y16153000D01*
X46834065Y16153000D01*
X47285039Y16339800D01*
X47630200Y16684961D01*
X47817000Y17135935D01*
X47817000Y17624065D01*
X47630200Y18075039D01*
X47285039Y18420200D01*
X46834065Y18607000D01*
X46345935Y18607000D01*
X45894961Y18420200D01*
X45549800Y18075039D01*
X45363000Y17624065D01*
X45277000Y17624065D01*
X45090200Y18075039D01*
X44745039Y18420200D01*
X44294065Y18607000D01*
X43805935Y18607000D01*
X43354961Y18420200D01*
X43009800Y18075039D01*
X42823000Y17624065D01*
X24514069Y17624065D01*
X24395813Y17742321D01*
X24128609Y17853000D01*
X23839391Y17853000D01*
X23572187Y17742321D01*
X23367679Y17537813D01*
X23257000Y17270609D01*
X8312525Y17270609D01*
X8219813Y17363321D01*
X7952609Y17474000D01*
X7663391Y17474000D01*
X7511586Y17411121D01*
X7364609Y17472000D01*
X7075391Y17472000D01*
X6808187Y17361321D01*
X6603679Y17156813D01*
X6493000Y16889609D01*
X627000Y16889609D01*
X627000Y19683609D01*
X9160000Y19683609D01*
X9160000Y19394391D01*
X9270679Y19127187D01*
X9475187Y18922679D01*
X9742391Y18812000D01*
X10031609Y18812000D01*
X10298813Y18922679D01*
X10503321Y19127187D01*
X10614000Y19394391D01*
X10614000Y19683609D01*
X10503321Y19950813D01*
X10298813Y20155321D01*
X10031609Y20266000D01*
X9742391Y20266000D01*
X9475187Y20155321D01*
X9270679Y19950813D01*
X9160000Y19683609D01*
X627000Y19683609D01*
X627000Y21334609D01*
X1159000Y21334609D01*
X1159000Y21045391D01*
X1269679Y20778187D01*
X1474187Y20573679D01*
X1741391Y20463000D01*
X2030609Y20463000D01*
X2297813Y20573679D01*
X2502321Y20778187D01*
X2613000Y21045391D01*
X2613000Y21080609D01*
X11319000Y21080609D01*
X11319000Y20791391D01*
X11429679Y20524187D01*
X11634187Y20319679D01*
X11901391Y20209000D01*
X11984814Y20209000D01*
X12064679Y20016187D01*
X12269187Y19811679D01*
X12536391Y19701000D01*
X12565694Y19701000D01*
X12657291Y19479865D01*
X12875865Y19261291D01*
X13161445Y19143000D01*
X13470555Y19143000D01*
X13756135Y19261291D01*
X13924453Y19429609D01*
X36849032Y19429609D01*
X36849032Y19140391D01*
X36959711Y18873187D01*
X37164219Y18668679D01*
X37431423Y18558000D01*
X37720641Y18558000D01*
X37987845Y18668679D01*
X38192353Y18873187D01*
X38303032Y19140391D01*
X38303032Y19429609D01*
X38192353Y19696813D01*
X37987845Y19901321D01*
X37720641Y20012000D01*
X37431423Y20012000D01*
X37164219Y19901321D01*
X36959711Y19696813D01*
X36849032Y19429609D01*
X13924453Y19429609D01*
X13974709Y19479865D01*
X14066306Y19701000D01*
X14095609Y19701000D01*
X14362813Y19811679D01*
X14567321Y20016187D01*
X14647186Y20209000D01*
X14730609Y20209000D01*
X14997813Y20319679D01*
X15202321Y20524187D01*
X15313000Y20791391D01*
X15313000Y21080609D01*
X15312172Y21082609D01*
X24734000Y21082609D01*
X24734000Y20793391D01*
X24844679Y20526187D01*
X25049187Y20321679D01*
X25316391Y20211000D01*
X25572985Y20211000D01*
X25653679Y20016187D01*
X25858187Y19811679D01*
X26125391Y19701000D01*
X26414609Y19701000D01*
X26681813Y19811679D01*
X26886321Y20016187D01*
X26947573Y20164065D01*
X42823000Y20164065D01*
X42823000Y19675935D01*
X43009800Y19224961D01*
X43354961Y18879800D01*
X43805935Y18693000D01*
X44294065Y18693000D01*
X44745039Y18879800D01*
X45090200Y19224961D01*
X45277000Y19675935D01*
X45277000Y20164065D01*
X45363000Y20164065D01*
X45363000Y19675935D01*
X45549800Y19224961D01*
X45894961Y18879800D01*
X46345935Y18693000D01*
X46834065Y18693000D01*
X47285039Y18879800D01*
X47630200Y19224961D01*
X47817000Y19675935D01*
X47817000Y20164065D01*
X47630200Y20615039D01*
X47285039Y20960200D01*
X46834065Y21147000D01*
X46345935Y21147000D01*
X45894961Y20960200D01*
X45549800Y20615039D01*
X45363000Y20164065D01*
X45277000Y20164065D01*
X45090200Y20615039D01*
X44745039Y20960200D01*
X44294065Y21147000D01*
X43805935Y21147000D01*
X43354961Y20960200D01*
X43009800Y20615039D01*
X42823000Y20164065D01*
X26947573Y20164065D01*
X26997000Y20283391D01*
X26997000Y20572609D01*
X26886321Y20839813D01*
X26681813Y21044321D01*
X26594206Y21080609D01*
X27067004Y21080609D01*
X27067004Y20791391D01*
X27177683Y20524187D01*
X27382191Y20319679D01*
X27649395Y20209000D01*
X27938613Y20209000D01*
X28205817Y20319679D01*
X28410325Y20524187D01*
X28521004Y20791391D01*
X28521004Y21080609D01*
X28410325Y21347813D01*
X28205817Y21552321D01*
X27938613Y21663000D01*
X27649395Y21663000D01*
X27382191Y21552321D01*
X27177683Y21347813D01*
X27067004Y21080609D01*
X26594206Y21080609D01*
X26414609Y21155000D01*
X26158015Y21155000D01*
X26077321Y21349813D01*
X26061916Y21365218D01*
X26277791Y21275800D01*
X26567009Y21275800D01*
X26834213Y21386479D01*
X27038721Y21590987D01*
X27149400Y21858191D01*
X27149400Y22147409D01*
X27038721Y22414613D01*
X26834213Y22619121D01*
X26567009Y22729800D01*
X26277791Y22729800D01*
X26010587Y22619121D01*
X25806079Y22414613D01*
X25695400Y22147409D01*
X25695400Y21858191D01*
X25806079Y21590987D01*
X25821484Y21575582D01*
X25605609Y21665000D01*
X25316391Y21665000D01*
X25049187Y21554321D01*
X24844679Y21349813D01*
X24734000Y21082609D01*
X15312172Y21082609D01*
X15202321Y21347813D01*
X14997813Y21552321D01*
X14730609Y21663000D01*
X14441391Y21663000D01*
X14174187Y21552321D01*
X13969679Y21347813D01*
X13951000Y21302718D01*
X13932321Y21347813D01*
X13727813Y21552321D01*
X13460609Y21663000D01*
X13171391Y21663000D01*
X12904187Y21552321D01*
X12699679Y21347813D01*
X12681000Y21302718D01*
X12662321Y21347813D01*
X12457813Y21552321D01*
X12190609Y21663000D01*
X11901391Y21663000D01*
X11634187Y21552321D01*
X11429679Y21347813D01*
X11319000Y21080609D01*
X2613000Y21080609D01*
X2613000Y21334609D01*
X2502321Y21601813D01*
X2297813Y21806321D01*
X2030609Y21917000D01*
X1741391Y21917000D01*
X1474187Y21806321D01*
X1269679Y21601813D01*
X1159000Y21334609D01*
X627000Y21334609D01*
X627000Y23241609D01*
X3969500Y23241609D01*
X3969500Y22952391D01*
X4067416Y22716000D01*
X3969500Y22479609D01*
X3969500Y22190391D01*
X4080179Y21923187D01*
X4284687Y21718679D01*
X4551891Y21608000D01*
X4841109Y21608000D01*
X5108313Y21718679D01*
X5312821Y21923187D01*
X5423500Y22190391D01*
X5423500Y22479609D01*
X5325584Y22716000D01*
X5423500Y22952391D01*
X5423500Y23241609D01*
X6827000Y23241609D01*
X6827000Y22952391D01*
X6924916Y22716000D01*
X6827000Y22479609D01*
X6827000Y22190391D01*
X6937679Y21923187D01*
X7142187Y21718679D01*
X7409391Y21608000D01*
X7698609Y21608000D01*
X7965813Y21718679D01*
X8170321Y21923187D01*
X8242156Y22096615D01*
X18177000Y22096615D01*
X18177000Y21807397D01*
X18287679Y21540193D01*
X18492187Y21335685D01*
X18759391Y21225006D01*
X19048609Y21225006D01*
X19315813Y21335685D01*
X19520321Y21540193D01*
X19624978Y21792859D01*
X19624978Y21786325D01*
X19735657Y21519121D01*
X19940165Y21314613D01*
X20207369Y21203934D01*
X20496587Y21203934D01*
X20763791Y21314613D01*
X20968299Y21519121D01*
X21078978Y21786325D01*
X21078978Y21969609D01*
X21225000Y21969609D01*
X21225000Y21680391D01*
X21335679Y21413187D01*
X21540187Y21208679D01*
X21807391Y21098000D01*
X22096609Y21098000D01*
X22363813Y21208679D01*
X22568321Y21413187D01*
X22679000Y21680391D01*
X22679000Y21860000D01*
X22731597Y21860000D01*
X22998801Y21970679D01*
X23203309Y22175187D01*
X23313988Y22442391D01*
X23313988Y22731609D01*
X23203309Y22998813D01*
X23041150Y23160972D01*
X23064612Y23170690D01*
X23269120Y23375198D01*
X23379799Y23642402D01*
X23379799Y23931620D01*
X23269120Y24198824D01*
X23100155Y24367789D01*
X30856029Y24367789D01*
X30856029Y24078571D01*
X30966708Y23811367D01*
X31171216Y23606859D01*
X31438420Y23496180D01*
X31485752Y23496180D01*
X31571915Y23288163D01*
X31776423Y23083655D01*
X32043627Y22972976D01*
X32332845Y22972976D01*
X32600049Y23083655D01*
X32736630Y23220236D01*
X32843187Y23113679D01*
X32888282Y23095000D01*
X32843187Y23076321D01*
X32638679Y22871813D01*
X32528000Y22604609D01*
X32528000Y22315391D01*
X32638679Y22048187D01*
X32843187Y21843679D01*
X33110391Y21733000D01*
X33399609Y21733000D01*
X33666813Y21843679D01*
X33871321Y22048187D01*
X33982000Y22315391D01*
X33982000Y22604609D01*
X33871321Y22871813D01*
X33735176Y23007958D01*
X33991195Y23007958D01*
X33991195Y22718740D01*
X34101874Y22451536D01*
X34306382Y22247028D01*
X34573586Y22136349D01*
X34862804Y22136349D01*
X35130008Y22247028D01*
X35334516Y22451536D01*
X35445195Y22718740D01*
X35445195Y23007958D01*
X35340797Y23260000D01*
X42814635Y23260000D01*
X42814635Y21660000D01*
X42847775Y21493393D01*
X42942150Y21352150D01*
X43083393Y21257775D01*
X43250000Y21224635D01*
X44850000Y21224635D01*
X45016607Y21257775D01*
X45157850Y21352150D01*
X45252225Y21493393D01*
X45285365Y21660000D01*
X45285365Y22704065D01*
X45363000Y22704065D01*
X45363000Y22215935D01*
X45549800Y21764961D01*
X45894961Y21419800D01*
X46345935Y21233000D01*
X46834065Y21233000D01*
X47285039Y21419800D01*
X47630200Y21764961D01*
X47817000Y22215935D01*
X47817000Y22704065D01*
X47630200Y23155039D01*
X47285039Y23500200D01*
X46834065Y23687000D01*
X46345935Y23687000D01*
X45894961Y23500200D01*
X45549800Y23155039D01*
X45363000Y22704065D01*
X45285365Y22704065D01*
X45285365Y23260000D01*
X45252225Y23426607D01*
X45157850Y23567850D01*
X45016607Y23662225D01*
X44850000Y23695365D01*
X43250000Y23695365D01*
X43083393Y23662225D01*
X42942150Y23567850D01*
X42847775Y23426607D01*
X42814635Y23260000D01*
X35340797Y23260000D01*
X35334516Y23275162D01*
X35130008Y23479670D01*
X34862804Y23590349D01*
X34573586Y23590349D01*
X34306382Y23479670D01*
X34101874Y23275162D01*
X33991195Y23007958D01*
X33735176Y23007958D01*
X33666813Y23076321D01*
X33621718Y23095000D01*
X33666813Y23113679D01*
X33871321Y23318187D01*
X33982000Y23585391D01*
X33982000Y23874609D01*
X33871321Y24141813D01*
X33867134Y24146000D01*
X34034609Y24146000D01*
X34301813Y24256679D01*
X34506321Y24461187D01*
X34617000Y24728391D01*
X34617000Y24890609D01*
X35322000Y24890609D01*
X35322000Y24601391D01*
X35432679Y24334187D01*
X35637187Y24129679D01*
X35904391Y24019000D01*
X36193609Y24019000D01*
X36460813Y24129679D01*
X36612143Y24281009D01*
X40935400Y24281009D01*
X40935400Y23991791D01*
X41046079Y23724587D01*
X41250587Y23520079D01*
X41517791Y23409400D01*
X41807009Y23409400D01*
X42074213Y23520079D01*
X42278721Y23724587D01*
X42389400Y23991791D01*
X42389400Y24281009D01*
X42278721Y24548213D01*
X42074213Y24752721D01*
X41807009Y24863400D01*
X41517791Y24863400D01*
X41250587Y24752721D01*
X41046079Y24548213D01*
X40935400Y24281009D01*
X36612143Y24281009D01*
X36665321Y24334187D01*
X36776000Y24601391D01*
X36776000Y24890609D01*
X36665321Y25157813D01*
X36460813Y25362321D01*
X36193609Y25473000D01*
X35904391Y25473000D01*
X35637187Y25362321D01*
X35432679Y25157813D01*
X35322000Y24890609D01*
X34617000Y24890609D01*
X34617000Y25017609D01*
X34506321Y25284813D01*
X34301813Y25489321D01*
X34034609Y25600000D01*
X33745391Y25600000D01*
X33478187Y25489321D01*
X33273679Y25284813D01*
X33163000Y25017609D01*
X33163000Y24728391D01*
X33273679Y24461187D01*
X33277866Y24457000D01*
X33110391Y24457000D01*
X32843187Y24346321D01*
X32706606Y24209740D01*
X32600049Y24316297D01*
X32332845Y24426976D01*
X32285513Y24426976D01*
X32199350Y24634993D01*
X31994842Y24839501D01*
X31727638Y24950180D01*
X31438420Y24950180D01*
X31171216Y24839501D01*
X30966708Y24634993D01*
X30856029Y24367789D01*
X23100155Y24367789D01*
X23064612Y24403332D01*
X22797408Y24514011D01*
X22508190Y24514011D01*
X22240986Y24403332D01*
X22036478Y24198824D01*
X21925799Y23931620D01*
X21925799Y23642402D01*
X22036478Y23375198D01*
X22198637Y23213039D01*
X22175175Y23203321D01*
X21970667Y22998813D01*
X21859988Y22731609D01*
X21859988Y22552000D01*
X21807391Y22552000D01*
X21540187Y22441321D01*
X21335679Y22236813D01*
X21225000Y21969609D01*
X21078978Y21969609D01*
X21078978Y22075543D01*
X20968299Y22342747D01*
X20763791Y22547255D01*
X20496587Y22657934D01*
X20207369Y22657934D01*
X19940165Y22547255D01*
X19735657Y22342747D01*
X19631000Y22090081D01*
X19631000Y22096615D01*
X19520321Y22363819D01*
X19315813Y22568327D01*
X19048609Y22679006D01*
X18759391Y22679006D01*
X18492187Y22568327D01*
X18287679Y22363819D01*
X18177000Y22096615D01*
X8242156Y22096615D01*
X8281000Y22190391D01*
X8281000Y22479609D01*
X8183084Y22716000D01*
X8281000Y22952391D01*
X8281000Y23241609D01*
X8204309Y23426757D01*
X8219813Y23433179D01*
X8336467Y23549833D01*
X8425391Y23513000D01*
X8714609Y23513000D01*
X8981813Y23623679D01*
X9186321Y23828187D01*
X9297000Y24095391D01*
X9297000Y24384609D01*
X9186321Y24651813D01*
X8981813Y24856321D01*
X8714609Y24967000D01*
X8425391Y24967000D01*
X8158187Y24856321D01*
X8041533Y24739667D01*
X7952609Y24776500D01*
X7663391Y24776500D01*
X7396187Y24665821D01*
X7191679Y24461313D01*
X7081000Y24194109D01*
X7081000Y23904891D01*
X7157691Y23719743D01*
X7142187Y23713321D01*
X6937679Y23508813D01*
X6827000Y23241609D01*
X5423500Y23241609D01*
X5312821Y23508813D01*
X5108313Y23713321D01*
X4841109Y23824000D01*
X4551891Y23824000D01*
X4284687Y23713321D01*
X4080179Y23508813D01*
X3969500Y23241609D01*
X627000Y23241609D01*
X627000Y26541609D01*
X2175000Y26541609D01*
X2175000Y26252391D01*
X2285679Y25985187D01*
X2490187Y25780679D01*
X2757391Y25670000D01*
X3046609Y25670000D01*
X3313813Y25780679D01*
X3346500Y25813366D01*
X3379187Y25780679D01*
X3646391Y25670000D01*
X3935609Y25670000D01*
X4202813Y25780679D01*
X4235500Y25813366D01*
X4268187Y25780679D01*
X4535391Y25670000D01*
X4824609Y25670000D01*
X5091813Y25780679D01*
X5124500Y25813366D01*
X5157187Y25780679D01*
X5424391Y25670000D01*
X5713609Y25670000D01*
X5980813Y25780679D01*
X6013500Y25813366D01*
X6046187Y25780679D01*
X6313391Y25670000D01*
X6602609Y25670000D01*
X6869813Y25780679D01*
X6902500Y25813366D01*
X6935187Y25780679D01*
X7104219Y25710664D01*
X7081000Y25654609D01*
X7081000Y25365391D01*
X7191679Y25098187D01*
X7396187Y24893679D01*
X7663391Y24783000D01*
X7952609Y24783000D01*
X8219813Y24893679D01*
X8343753Y25017619D01*
X16907000Y25017619D01*
X16907000Y24728401D01*
X17017679Y24461197D01*
X17222187Y24256689D01*
X17489391Y24146010D01*
X17778609Y24146010D01*
X18045813Y24256689D01*
X18250321Y24461197D01*
X18354719Y24713239D01*
X20326493Y24713239D01*
X20326493Y24424021D01*
X20437172Y24156817D01*
X20579671Y24014318D01*
X20566692Y24001339D01*
X20456013Y23734135D01*
X20456013Y23444917D01*
X20566692Y23177713D01*
X20771200Y22973205D01*
X21038404Y22862526D01*
X21327622Y22862526D01*
X21594826Y22973205D01*
X21799334Y23177713D01*
X21910013Y23444917D01*
X21910013Y23734135D01*
X21799334Y24001339D01*
X21656835Y24143838D01*
X21669814Y24156817D01*
X21780493Y24424021D01*
X21780493Y24713239D01*
X21669814Y24980443D01*
X21465306Y25184951D01*
X21198102Y25295630D01*
X20908884Y25295630D01*
X20641680Y25184951D01*
X20437172Y24980443D01*
X20326493Y24713239D01*
X18354719Y24713239D01*
X18361000Y24728401D01*
X18361000Y25017619D01*
X18250321Y25284823D01*
X18045813Y25489331D01*
X18014890Y25502139D01*
X18154726Y25560061D01*
X18264661Y25669996D01*
X18379364Y25622484D01*
X18668582Y25622484D01*
X18935786Y25733163D01*
X19140294Y25937671D01*
X19152326Y25966720D01*
X25890158Y25966720D01*
X26078125Y25600380D01*
X26391977Y25333858D01*
X26615682Y25241196D01*
X26778000Y25368552D01*
X26778000Y26129038D01*
X27032000Y26129038D01*
X27032000Y25368552D01*
X27194318Y25241196D01*
X27560658Y25429163D01*
X27827180Y25743015D01*
X27919842Y25966720D01*
X27792486Y26129038D01*
X27032000Y26129038D01*
X26778000Y26129038D01*
X26017514Y26129038D01*
X25890158Y25966720D01*
X19152326Y25966720D01*
X19250973Y26204875D01*
X19250973Y26494093D01*
X19140294Y26761297D01*
X18935786Y26965805D01*
X18668582Y27076484D01*
X18379364Y27076484D01*
X18112160Y26965805D01*
X18002225Y26855870D01*
X17887522Y26903382D01*
X17598304Y26903382D01*
X17331100Y26792703D01*
X17126592Y26588195D01*
X17015913Y26320991D01*
X17015913Y26031773D01*
X17126592Y25764569D01*
X17331100Y25560061D01*
X17362023Y25547253D01*
X17222187Y25489331D01*
X17017679Y25284823D01*
X16907000Y25017619D01*
X8343753Y25017619D01*
X8424321Y25098187D01*
X8535000Y25365391D01*
X8535000Y25654609D01*
X8424321Y25921813D01*
X8219813Y26126321D01*
X8050781Y26196336D01*
X8074000Y26252391D01*
X8074000Y26541609D01*
X7963321Y26808813D01*
X7758813Y27013321D01*
X7612457Y27073943D01*
X7693000Y27268391D01*
X7693000Y27557609D01*
X7582321Y27824813D01*
X7549634Y27857500D01*
X7582321Y27890187D01*
X7693000Y28157391D01*
X7693000Y28446609D01*
X7582321Y28713813D01*
X7377813Y28918321D01*
X7110609Y29029000D01*
X6821391Y29029000D01*
X6757087Y29002365D01*
X6778139Y29072255D01*
X6639786Y29210609D01*
X11272000Y29210609D01*
X11272000Y28921391D01*
X11382679Y28654187D01*
X11478866Y28558000D01*
X11382679Y28461813D01*
X11272000Y28194609D01*
X11272000Y27905391D01*
X11382679Y27638187D01*
X11587187Y27433679D01*
X11854391Y27323000D01*
X12143609Y27323000D01*
X12410813Y27433679D01*
X12615321Y27638187D01*
X12704211Y27852789D01*
X12918813Y27941679D01*
X13123321Y28146187D01*
X13234000Y28413391D01*
X13234000Y28503799D01*
X17923004Y28503799D01*
X17923004Y28214581D01*
X18033683Y27947377D01*
X18238191Y27742869D01*
X18505395Y27632190D01*
X18794613Y27632190D01*
X19061817Y27742869D01*
X19266325Y27947377D01*
X19377004Y28214581D01*
X19377004Y28503799D01*
X19266325Y28771003D01*
X19061817Y28975511D01*
X18794613Y29086190D01*
X18505395Y29086190D01*
X18238191Y28975511D01*
X18033683Y28771003D01*
X17923004Y28503799D01*
X13234000Y28503799D01*
X13234000Y28702609D01*
X13123321Y28969813D01*
X12944433Y29148701D01*
X22708177Y29148701D01*
X22896144Y28782361D01*
X23209996Y28515839D01*
X23433701Y28423177D01*
X23596019Y28550533D01*
X23596019Y29244270D01*
X23737160Y29244270D01*
X23836703Y29144727D01*
X23770295Y28812947D01*
X23850019Y28620733D01*
X23850019Y28550533D01*
X23893182Y28516667D01*
X24248115Y27660928D01*
X25130422Y26779455D01*
X25983838Y26425958D01*
X26017514Y26383038D01*
X26087457Y26383038D01*
X26279928Y26303314D01*
X26611708Y26369722D01*
X26711251Y26270179D01*
X26890859Y26449787D01*
X26919141Y26449787D01*
X27098749Y26270179D01*
X27198292Y26369722D01*
X27530072Y26303314D01*
X27722286Y26383038D01*
X27792486Y26383038D01*
X27826352Y26426201D01*
X28682091Y26781134D01*
X29459830Y27559609D01*
X34640000Y27559609D01*
X34640000Y27270391D01*
X34750679Y27003187D01*
X34955187Y26798679D01*
X35222391Y26688000D01*
X35511609Y26688000D01*
X35778813Y26798679D01*
X35983321Y27003187D01*
X36094000Y27270391D01*
X36094000Y27559609D01*
X35983321Y27826813D01*
X35950630Y27859504D01*
X36110313Y28019187D01*
X36220992Y28286391D01*
X36220992Y28497409D01*
X40173400Y28497409D01*
X40173400Y28208191D01*
X40284079Y27940987D01*
X40488587Y27736479D01*
X40755791Y27625800D01*
X41045009Y27625800D01*
X41312213Y27736479D01*
X41516721Y27940987D01*
X41627400Y28208191D01*
X41627400Y28497409D01*
X41516721Y28764613D01*
X41312213Y28969121D01*
X41045009Y29079800D01*
X40755791Y29079800D01*
X40488587Y28969121D01*
X40284079Y28764613D01*
X40173400Y28497409D01*
X36220992Y28497409D01*
X36220992Y28575609D01*
X36110313Y28842813D01*
X35905805Y29047321D01*
X35638601Y29158000D01*
X35349383Y29158000D01*
X35082179Y29047321D01*
X34877671Y28842813D01*
X34766992Y28575609D01*
X34766992Y28286391D01*
X34877671Y28019187D01*
X34910362Y27986496D01*
X34750679Y27826813D01*
X34640000Y27559609D01*
X29459830Y27559609D01*
X29563564Y27663441D01*
X29917061Y28516857D01*
X29959981Y28550533D01*
X29959981Y28620476D01*
X30039705Y28812947D01*
X29973297Y29144727D01*
X30072840Y29244270D01*
X30006091Y29311019D01*
X30213981Y29311019D01*
X30213981Y28550533D01*
X30376299Y28423177D01*
X30742639Y28611144D01*
X31009161Y28924996D01*
X31101823Y29148701D01*
X30974467Y29311019D01*
X30213981Y29311019D01*
X30006091Y29311019D01*
X29893232Y29423878D01*
X29780373Y29311019D01*
X27032000Y29311019D01*
X27032000Y26562646D01*
X26919141Y26449787D01*
X26890859Y26449787D01*
X26778000Y26562646D01*
X26778000Y29311019D01*
X24029627Y29311019D01*
X23916768Y29423878D01*
X23737160Y29244270D01*
X23596019Y29244270D01*
X23596019Y29311019D01*
X22835533Y29311019D01*
X22708177Y29148701D01*
X12944433Y29148701D01*
X12918813Y29174321D01*
X12704211Y29263211D01*
X12615321Y29477813D01*
X12410813Y29682321D01*
X12302135Y29727337D01*
X22708177Y29727337D01*
X22835533Y29565019D01*
X23596019Y29565019D01*
X23596019Y29631768D01*
X23737160Y29631768D01*
X23916768Y29452160D01*
X24029627Y29565019D01*
X26778000Y29565019D01*
X26778000Y32313392D01*
X26890859Y32426251D01*
X26919141Y32426251D01*
X27032000Y32313392D01*
X27032000Y29565019D01*
X29780373Y29565019D01*
X29893232Y29452160D01*
X30072840Y29631768D01*
X29973297Y29731311D01*
X30039705Y30063091D01*
X29959981Y30255305D01*
X29959981Y30325505D01*
X30213981Y30325505D01*
X30213981Y29565019D01*
X30974467Y29565019D01*
X31101823Y29727337D01*
X30913856Y30093677D01*
X30600004Y30360199D01*
X30376299Y30452861D01*
X30213981Y30325505D01*
X29959981Y30325505D01*
X29916818Y30359371D01*
X29603985Y31113609D01*
X37227000Y31113609D01*
X37227000Y30824391D01*
X37337679Y30557187D01*
X37542187Y30352679D01*
X37809391Y30242000D01*
X38098609Y30242000D01*
X38365813Y30352679D01*
X38570321Y30557187D01*
X38681000Y30824391D01*
X38681000Y30880000D01*
X42814635Y30880000D01*
X42814635Y29280000D01*
X42847775Y29113393D01*
X42942150Y28972150D01*
X43083393Y28877775D01*
X43250000Y28844635D01*
X44850000Y28844635D01*
X45016607Y28877775D01*
X45157850Y28972150D01*
X45252225Y29113393D01*
X45285365Y29280000D01*
X45285365Y30880000D01*
X45354635Y30880000D01*
X45354635Y29280000D01*
X45387775Y29113393D01*
X45482150Y28972150D01*
X45623393Y28877775D01*
X45790000Y28844635D01*
X47390000Y28844635D01*
X47556607Y28877775D01*
X47697850Y28972150D01*
X47792225Y29113393D01*
X47825365Y29280000D01*
X47825365Y30880000D01*
X47792225Y31046607D01*
X47697850Y31187850D01*
X47556607Y31282225D01*
X47390000Y31315365D01*
X45790000Y31315365D01*
X45623393Y31282225D01*
X45482150Y31187850D01*
X45387775Y31046607D01*
X45354635Y30880000D01*
X45285365Y30880000D01*
X45252225Y31046607D01*
X45157850Y31187850D01*
X45016607Y31282225D01*
X44850000Y31315365D01*
X43250000Y31315365D01*
X43083393Y31282225D01*
X42942150Y31187850D01*
X42847775Y31046607D01*
X42814635Y30880000D01*
X38681000Y30880000D01*
X38681000Y31113609D01*
X38570321Y31380813D01*
X38365813Y31585321D01*
X38098609Y31696000D01*
X37809391Y31696000D01*
X37542187Y31585321D01*
X37337679Y31380813D01*
X37227000Y31113609D01*
X29603985Y31113609D01*
X29561885Y31215110D01*
X28679578Y32096583D01*
X27826162Y32450080D01*
X27792486Y32493000D01*
X27722543Y32493000D01*
X27530072Y32572724D01*
X27198292Y32506316D01*
X27098749Y32605859D01*
X26919141Y32426251D01*
X26890859Y32426251D01*
X26711251Y32605859D01*
X26611708Y32506316D01*
X26279928Y32572724D01*
X26087714Y32493000D01*
X26017514Y32493000D01*
X25983648Y32449837D01*
X25127909Y32094904D01*
X24246436Y31212597D01*
X23892939Y30359181D01*
X23850019Y30325505D01*
X23850019Y30255562D01*
X23770295Y30063091D01*
X23836703Y29731311D01*
X23737160Y29631768D01*
X23596019Y29631768D01*
X23596019Y30325505D01*
X23433701Y30452861D01*
X23067361Y30264894D01*
X22800839Y29951042D01*
X22708177Y29727337D01*
X12302135Y29727337D01*
X12143609Y29793000D01*
X11854391Y29793000D01*
X11587187Y29682321D01*
X11382679Y29477813D01*
X11272000Y29210609D01*
X6639786Y29210609D01*
X5950000Y29900395D01*
X5121861Y29072255D01*
X5195995Y28826136D01*
X5733223Y28633035D01*
X6303454Y28660222D01*
X6332457Y28672236D01*
X6239000Y28446609D01*
X6239000Y28157391D01*
X6349679Y27890187D01*
X6382366Y27857500D01*
X6349679Y27824813D01*
X6239000Y27557609D01*
X6239000Y27268391D01*
X6300944Y27118844D01*
X6046187Y27013321D01*
X6013500Y26980634D01*
X5980813Y27013321D01*
X5713609Y27124000D01*
X5424391Y27124000D01*
X5157187Y27013321D01*
X5124500Y26980634D01*
X5091813Y27013321D01*
X4824609Y27124000D01*
X4535391Y27124000D01*
X4268187Y27013321D01*
X4235500Y26980634D01*
X4202813Y27013321D01*
X3935609Y27124000D01*
X3646391Y27124000D01*
X3379187Y27013321D01*
X3346500Y26980634D01*
X3313813Y27013321D01*
X3046609Y27124000D01*
X2757391Y27124000D01*
X2490187Y27013321D01*
X2285679Y26808813D01*
X2175000Y26541609D01*
X627000Y26541609D01*
X627000Y29072255D01*
X2581861Y29072255D01*
X2655995Y28826136D01*
X3193223Y28633035D01*
X3763454Y28660222D01*
X4164005Y28826136D01*
X4238139Y29072255D01*
X3410000Y29900395D01*
X2581861Y29072255D01*
X627000Y29072255D01*
X627000Y30296777D01*
X1963035Y30296777D01*
X1990222Y29726546D01*
X2156136Y29325995D01*
X2402255Y29251861D01*
X3230395Y30080000D01*
X3589605Y30080000D01*
X4417745Y29251861D01*
X4663864Y29325995D01*
X4678858Y29367709D01*
X4696136Y29325995D01*
X4942255Y29251861D01*
X5770395Y30080000D01*
X6129605Y30080000D01*
X6957745Y29251861D01*
X7203864Y29325995D01*
X7396965Y29863223D01*
X7369778Y30433454D01*
X7203864Y30834005D01*
X6957745Y30908139D01*
X6129605Y30080000D01*
X5770395Y30080000D01*
X4942255Y30908139D01*
X4696136Y30834005D01*
X4681142Y30792291D01*
X4663864Y30834005D01*
X4417745Y30908139D01*
X3589605Y30080000D01*
X3230395Y30080000D01*
X2402255Y30908139D01*
X2156136Y30834005D01*
X1963035Y30296777D01*
X627000Y30296777D01*
X627000Y32864065D01*
X2183000Y32864065D01*
X2183000Y32375935D01*
X2369800Y31924961D01*
X2714961Y31579800D01*
X2982348Y31469044D01*
X2655995Y31333864D01*
X2581861Y31087745D01*
X3410000Y30259605D01*
X4238139Y31087745D01*
X4164005Y31333864D01*
X3814546Y31459473D01*
X4105039Y31579800D01*
X4450200Y31924961D01*
X4637000Y32375935D01*
X4637000Y32864065D01*
X4723000Y32864065D01*
X4723000Y32375935D01*
X4909800Y31924961D01*
X5254961Y31579800D01*
X5522348Y31469044D01*
X5195995Y31333864D01*
X5121861Y31087745D01*
X5950000Y30259605D01*
X6778139Y31087745D01*
X6704005Y31333864D01*
X6354546Y31459473D01*
X6645039Y31579800D01*
X6990200Y31924961D01*
X7075796Y32131609D01*
X12478500Y32131609D01*
X12478500Y31842391D01*
X12589179Y31575187D01*
X12793687Y31370679D01*
X13060891Y31260000D01*
X13350109Y31260000D01*
X13617313Y31370679D01*
X13724748Y31478114D01*
X17852951Y31478114D01*
X17852951Y31188896D01*
X17963630Y30921692D01*
X18168138Y30717184D01*
X18435342Y30606505D01*
X18724560Y30606505D01*
X18991764Y30717184D01*
X19196272Y30921692D01*
X19306951Y31188896D01*
X19306951Y31478114D01*
X19196272Y31745318D01*
X18991764Y31949826D01*
X18724560Y32060505D01*
X18435342Y32060505D01*
X18168138Y31949826D01*
X17963630Y31745318D01*
X17852951Y31478114D01*
X13724748Y31478114D01*
X13821821Y31575187D01*
X13932500Y31842391D01*
X13932500Y32131609D01*
X13821821Y32398813D01*
X13617313Y32603321D01*
X13350109Y32714000D01*
X13060891Y32714000D01*
X12793687Y32603321D01*
X12589179Y32398813D01*
X12478500Y32131609D01*
X7075796Y32131609D01*
X7177000Y32375935D01*
X7177000Y32864065D01*
X7158256Y32909318D01*
X25890158Y32909318D01*
X26017514Y32747000D01*
X26778000Y32747000D01*
X26778000Y33507486D01*
X27032000Y33507486D01*
X27032000Y32747000D01*
X27792486Y32747000D01*
X27919842Y32909318D01*
X27731875Y33275658D01*
X27418023Y33542180D01*
X27194318Y33634842D01*
X27032000Y33507486D01*
X26778000Y33507486D01*
X26615682Y33634842D01*
X26249342Y33446875D01*
X25982820Y33133023D01*
X25890158Y32909318D01*
X7158256Y32909318D01*
X6990200Y33315039D01*
X6645039Y33660200D01*
X6194065Y33847000D01*
X5705935Y33847000D01*
X5254961Y33660200D01*
X4909800Y33315039D01*
X4723000Y32864065D01*
X4637000Y32864065D01*
X4450200Y33315039D01*
X4105039Y33660200D01*
X3654065Y33847000D01*
X3165935Y33847000D01*
X2714961Y33660200D01*
X2369800Y33315039D01*
X2183000Y32864065D01*
X627000Y32864065D01*
X627000Y35404065D01*
X2183000Y35404065D01*
X2183000Y34915935D01*
X2369800Y34464961D01*
X2714961Y34119800D01*
X3165935Y33933000D01*
X3654065Y33933000D01*
X4105039Y34119800D01*
X4450200Y34464961D01*
X4637000Y34915935D01*
X4637000Y35404065D01*
X4723000Y35404065D01*
X4723000Y34915935D01*
X4909800Y34464961D01*
X5254961Y34119800D01*
X5705935Y33933000D01*
X6194065Y33933000D01*
X6444217Y34036617D01*
X32607991Y34036617D01*
X32607991Y33747399D01*
X32718670Y33480195D01*
X32923178Y33275687D01*
X33190382Y33165008D01*
X33479600Y33165008D01*
X33746804Y33275687D01*
X33951312Y33480195D01*
X34023970Y33655609D01*
X34894000Y33655609D01*
X34894000Y33366391D01*
X35004679Y33099187D01*
X35209187Y32894679D01*
X35476391Y32784000D01*
X35765609Y32784000D01*
X36032813Y32894679D01*
X36237321Y33099187D01*
X36348000Y33366391D01*
X36348000Y33655609D01*
X36237321Y33922813D01*
X36032813Y34127321D01*
X35945206Y34163609D01*
X37434000Y34163609D01*
X37434000Y33874391D01*
X37544679Y33607187D01*
X37749187Y33402679D01*
X38016391Y33292000D01*
X38305609Y33292000D01*
X38439427Y33347429D01*
X38638177Y33148679D01*
X38905381Y33038000D01*
X39194599Y33038000D01*
X39461803Y33148679D01*
X39618337Y33305213D01*
X39703675Y33099187D01*
X39908183Y32894679D01*
X40175387Y32784000D01*
X40464605Y32784000D01*
X40657899Y32864065D01*
X42823000Y32864065D01*
X42823000Y32375935D01*
X43009800Y31924961D01*
X43354961Y31579800D01*
X43805935Y31393000D01*
X44294065Y31393000D01*
X44745039Y31579800D01*
X45090200Y31924961D01*
X45277000Y32375935D01*
X45277000Y32864065D01*
X45363000Y32864065D01*
X45363000Y32375935D01*
X45549800Y31924961D01*
X45894961Y31579800D01*
X46345935Y31393000D01*
X46834065Y31393000D01*
X47285039Y31579800D01*
X47630200Y31924961D01*
X47817000Y32375935D01*
X47817000Y32864065D01*
X47630200Y33315039D01*
X47285039Y33660200D01*
X46834065Y33847000D01*
X46345935Y33847000D01*
X45894961Y33660200D01*
X45549800Y33315039D01*
X45363000Y32864065D01*
X45277000Y32864065D01*
X45090200Y33315039D01*
X44745039Y33660200D01*
X44294065Y33847000D01*
X43805935Y33847000D01*
X43354961Y33660200D01*
X43009800Y33315039D01*
X42823000Y32864065D01*
X40657899Y32864065D01*
X40731809Y32894679D01*
X40936317Y33099187D01*
X41046996Y33366391D01*
X41046996Y33655609D01*
X40936317Y33922813D01*
X40731809Y34127321D01*
X40464605Y34238000D01*
X40175387Y34238000D01*
X39908183Y34127321D01*
X39751649Y33970787D01*
X39666311Y34176813D01*
X39461803Y34381321D01*
X39194599Y34492000D01*
X38905381Y34492000D01*
X38771563Y34436571D01*
X38572813Y34635321D01*
X38305609Y34746000D01*
X38016391Y34746000D01*
X37749187Y34635321D01*
X37544679Y34430813D01*
X37434000Y34163609D01*
X35945206Y34163609D01*
X35765609Y34238000D01*
X35476391Y34238000D01*
X35209187Y34127321D01*
X35004679Y33922813D01*
X34894000Y33655609D01*
X34023970Y33655609D01*
X34061991Y33747399D01*
X34061991Y34036617D01*
X33951312Y34303821D01*
X33746804Y34508329D01*
X33479600Y34619008D01*
X33190382Y34619008D01*
X32923178Y34508329D01*
X32718670Y34303821D01*
X32607991Y34036617D01*
X6444217Y34036617D01*
X6645039Y34119800D01*
X6990200Y34464961D01*
X7177000Y34915935D01*
X7177000Y35404065D01*
X42823000Y35404065D01*
X42823000Y34915935D01*
X43009800Y34464961D01*
X43354961Y34119800D01*
X43805935Y33933000D01*
X44294065Y33933000D01*
X44745039Y34119800D01*
X45090200Y34464961D01*
X45277000Y34915935D01*
X45277000Y35404065D01*
X45363000Y35404065D01*
X45363000Y34915935D01*
X45549800Y34464961D01*
X45894961Y34119800D01*
X46345935Y33933000D01*
X46834065Y33933000D01*
X47285039Y34119800D01*
X47630200Y34464961D01*
X47817000Y34915935D01*
X47817000Y35404065D01*
X47630200Y35855039D01*
X47285039Y36200200D01*
X46834065Y36387000D01*
X46345935Y36387000D01*
X45894961Y36200200D01*
X45549800Y35855039D01*
X45363000Y35404065D01*
X45277000Y35404065D01*
X45090200Y35855039D01*
X44745039Y36200200D01*
X44294065Y36387000D01*
X43805935Y36387000D01*
X43354961Y36200200D01*
X43009800Y35855039D01*
X42823000Y35404065D01*
X7177000Y35404065D01*
X6990200Y35855039D01*
X6645039Y36200200D01*
X6194065Y36387000D01*
X5705935Y36387000D01*
X5254961Y36200200D01*
X4909800Y35855039D01*
X4723000Y35404065D01*
X4637000Y35404065D01*
X4450200Y35855039D01*
X4105039Y36200200D01*
X3654065Y36387000D01*
X3165935Y36387000D01*
X2714961Y36200200D01*
X2369800Y35855039D01*
X2183000Y35404065D01*
X627000Y35404065D01*
X627000Y37944065D01*
X2183000Y37944065D01*
X2183000Y37455935D01*
X2369800Y37004961D01*
X2714961Y36659800D01*
X3165935Y36473000D01*
X3654065Y36473000D01*
X4105039Y36659800D01*
X4450200Y37004961D01*
X4637000Y37455935D01*
X4637000Y37944065D01*
X4723000Y37944065D01*
X4723000Y37455935D01*
X4909800Y37004961D01*
X5254961Y36659800D01*
X5705935Y36473000D01*
X6194065Y36473000D01*
X6645039Y36659800D01*
X6990200Y37004961D01*
X7075796Y37211609D01*
X12161000Y37211609D01*
X12161000Y36922391D01*
X12271679Y36655187D01*
X12476187Y36450679D01*
X12743391Y36340000D01*
X13032609Y36340000D01*
X13299813Y36450679D01*
X13504321Y36655187D01*
X13615000Y36922391D01*
X13615000Y37211609D01*
X13504321Y37478813D01*
X13299813Y37683321D01*
X13212206Y37719609D01*
X32823987Y37719609D01*
X32823987Y37430391D01*
X32934666Y37163187D01*
X33139174Y36958679D01*
X33406378Y36848000D01*
X33695596Y36848000D01*
X33962800Y36958679D01*
X33980618Y36976497D01*
X34229526Y36873396D01*
X34518744Y36873396D01*
X34785948Y36984075D01*
X34990456Y37188583D01*
X35101135Y37455787D01*
X35101135Y37745005D01*
X35018683Y37944065D01*
X42823000Y37944065D01*
X42823000Y37455935D01*
X43009800Y37004961D01*
X43354961Y36659800D01*
X43805935Y36473000D01*
X44294065Y36473000D01*
X44745039Y36659800D01*
X45090200Y37004961D01*
X45277000Y37455935D01*
X45277000Y37944065D01*
X45363000Y37944065D01*
X45363000Y37455935D01*
X45549800Y37004961D01*
X45894961Y36659800D01*
X46345935Y36473000D01*
X46834065Y36473000D01*
X47285039Y36659800D01*
X47630200Y37004961D01*
X47817000Y37455935D01*
X47817000Y37944065D01*
X47630200Y38395039D01*
X47285039Y38740200D01*
X47017652Y38850956D01*
X47344005Y38986136D01*
X47418139Y39232255D01*
X46590000Y40060395D01*
X45761861Y39232255D01*
X45835995Y38986136D01*
X46185454Y38860527D01*
X45894961Y38740200D01*
X45549800Y38395039D01*
X45363000Y37944065D01*
X45277000Y37944065D01*
X45090200Y38395039D01*
X44745039Y38740200D01*
X44477652Y38850956D01*
X44804005Y38986136D01*
X44878139Y39232255D01*
X44050000Y40060395D01*
X43221861Y39232255D01*
X43295995Y38986136D01*
X43645454Y38860527D01*
X43354961Y38740200D01*
X43009800Y38395039D01*
X42823000Y37944065D01*
X35018683Y37944065D01*
X34990456Y38012209D01*
X34785948Y38216717D01*
X34518744Y38327396D01*
X34229526Y38327396D01*
X33962322Y38216717D01*
X33944504Y38198899D01*
X33695596Y38302000D01*
X33406378Y38302000D01*
X33139174Y38191321D01*
X32934666Y37986813D01*
X32823987Y37719609D01*
X13212206Y37719609D01*
X13032609Y37794000D01*
X12743391Y37794000D01*
X12476187Y37683321D01*
X12271679Y37478813D01*
X12161000Y37211609D01*
X7075796Y37211609D01*
X7177000Y37455935D01*
X7177000Y37944065D01*
X6990200Y38395039D01*
X6649630Y38735609D01*
X11462500Y38735609D01*
X11462500Y38446391D01*
X11573179Y38179187D01*
X11777687Y37974679D01*
X12044891Y37864000D01*
X12334109Y37864000D01*
X12601313Y37974679D01*
X12729252Y38102618D01*
X12857187Y37974683D01*
X13124391Y37864004D01*
X13413609Y37864004D01*
X13680813Y37974683D01*
X13885321Y38179191D01*
X13996000Y38446395D01*
X13996000Y38735613D01*
X13885321Y39002817D01*
X13838515Y39049623D01*
X14541742Y39049623D01*
X14541742Y38760405D01*
X14652421Y38493201D01*
X14856929Y38288693D01*
X15124133Y38178014D01*
X15413351Y38178014D01*
X15680555Y38288693D01*
X15885063Y38493201D01*
X15995742Y38760405D01*
X15995742Y38777993D01*
X21720338Y38777993D01*
X21720338Y38488775D01*
X21831017Y38221571D01*
X22035525Y38017063D01*
X22302729Y37906384D01*
X22591947Y37906384D01*
X22859151Y38017063D01*
X23063659Y38221571D01*
X23174338Y38488775D01*
X23174338Y38777993D01*
X23063659Y39045197D01*
X22859151Y39249705D01*
X22591947Y39360384D01*
X22302729Y39360384D01*
X22035525Y39249705D01*
X21831017Y39045197D01*
X21720338Y38777993D01*
X15995742Y38777993D01*
X15995742Y39049623D01*
X15885063Y39316827D01*
X15680555Y39521335D01*
X15413351Y39632014D01*
X15124133Y39632014D01*
X14856929Y39521335D01*
X14652421Y39316827D01*
X14541742Y39049623D01*
X13838515Y39049623D01*
X13680813Y39207325D01*
X13413609Y39318004D01*
X13124391Y39318004D01*
X12857187Y39207325D01*
X12729248Y39079386D01*
X12601313Y39207321D01*
X12334109Y39318000D01*
X12044891Y39318000D01*
X11777687Y39207321D01*
X11573179Y39002813D01*
X11462500Y38735609D01*
X6649630Y38735609D01*
X6645039Y38740200D01*
X6194065Y38927000D01*
X5705935Y38927000D01*
X5254961Y38740200D01*
X4909800Y38395039D01*
X4723000Y37944065D01*
X4637000Y37944065D01*
X4450200Y38395039D01*
X4105039Y38740200D01*
X3654065Y38927000D01*
X3165935Y38927000D01*
X2714961Y38740200D01*
X2369800Y38395039D01*
X2183000Y37944065D01*
X627000Y37944065D01*
X627000Y44742164D01*
X679505Y44615406D01*
X1378000Y43916911D01*
X1378000Y41510000D01*
X1387667Y41461399D01*
X1415197Y41420197D01*
X1456399Y41392667D01*
X1505000Y41383000D01*
X2354756Y41383000D01*
X2302150Y41347850D01*
X2207775Y41206607D01*
X2174635Y41040000D01*
X2174635Y39440000D01*
X2207775Y39273393D01*
X2302150Y39132150D01*
X2443393Y39037775D01*
X2610000Y39004635D01*
X4210000Y39004635D01*
X4376607Y39037775D01*
X4517850Y39132150D01*
X4612225Y39273393D01*
X4645365Y39440000D01*
X4645365Y41040000D01*
X4619705Y41169000D01*
X4740295Y41169000D01*
X4714635Y41040000D01*
X4714635Y39440000D01*
X4747775Y39273393D01*
X4842150Y39132150D01*
X4983393Y39037775D01*
X5150000Y39004635D01*
X6750000Y39004635D01*
X6916607Y39037775D01*
X7057850Y39132150D01*
X7152225Y39273393D01*
X7185365Y39440000D01*
X7185365Y39686109D01*
X16653000Y39686109D01*
X16653000Y39396891D01*
X16763679Y39129687D01*
X16968187Y38925179D01*
X17235391Y38814500D01*
X17524609Y38814500D01*
X17791813Y38925179D01*
X17996321Y39129687D01*
X18107000Y39396891D01*
X18107000Y39686109D01*
X18028093Y39876609D01*
X34814000Y39876609D01*
X34814000Y39587391D01*
X34924679Y39320187D01*
X35129187Y39115679D01*
X35396391Y39005000D01*
X35685609Y39005000D01*
X35952813Y39115679D01*
X36157321Y39320187D01*
X36177377Y39368609D01*
X40783000Y39368609D01*
X40783000Y39079391D01*
X40893679Y38812187D01*
X41098187Y38607679D01*
X41365391Y38497000D01*
X41654609Y38497000D01*
X41921813Y38607679D01*
X42126321Y38812187D01*
X42237000Y39079391D01*
X42237000Y39368609D01*
X42126321Y39635813D01*
X41921813Y39840321D01*
X41654609Y39951000D01*
X41365391Y39951000D01*
X41098187Y39840321D01*
X40893679Y39635813D01*
X40783000Y39368609D01*
X36177377Y39368609D01*
X36268000Y39587391D01*
X36268000Y39876609D01*
X36157321Y40143813D01*
X35952813Y40348321D01*
X35690976Y40456777D01*
X42603035Y40456777D01*
X42630222Y39886546D01*
X42796136Y39485995D01*
X43042255Y39411861D01*
X43870395Y40240000D01*
X44229605Y40240000D01*
X45057745Y39411861D01*
X45303864Y39485995D01*
X45318858Y39527709D01*
X45336136Y39485995D01*
X45582255Y39411861D01*
X46410395Y40240000D01*
X46769605Y40240000D01*
X47597745Y39411861D01*
X47843864Y39485995D01*
X48036965Y40023223D01*
X48009778Y40593454D01*
X47843864Y40994005D01*
X47597745Y41068139D01*
X46769605Y40240000D01*
X46410395Y40240000D01*
X45582255Y41068139D01*
X45336136Y40994005D01*
X45321142Y40952291D01*
X45303864Y40994005D01*
X45057745Y41068139D01*
X44229605Y40240000D01*
X43870395Y40240000D01*
X43042255Y41068139D01*
X42796136Y40994005D01*
X42603035Y40456777D01*
X35690976Y40456777D01*
X35685609Y40459000D01*
X35396391Y40459000D01*
X35129187Y40348321D01*
X34924679Y40143813D01*
X34814000Y39876609D01*
X18028093Y39876609D01*
X17996321Y39953313D01*
X17791813Y40157821D01*
X17524609Y40268500D01*
X17235391Y40268500D01*
X16968187Y40157821D01*
X16763679Y39953313D01*
X16653000Y39686109D01*
X7185365Y39686109D01*
X7185365Y40979501D01*
X7269187Y40895679D01*
X7536391Y40785000D01*
X7825609Y40785000D01*
X8092813Y40895679D01*
X8297321Y41100187D01*
X8408000Y41367391D01*
X8408000Y41654609D01*
X11763500Y41654609D01*
X11763500Y41365391D01*
X11874179Y41098187D01*
X12078687Y40893679D01*
X12345891Y40783000D01*
X12635109Y40783000D01*
X12902313Y40893679D01*
X13106821Y41098187D01*
X13217500Y41365391D01*
X13217500Y41654609D01*
X13179389Y41746619D01*
X29734000Y41746619D01*
X29734000Y41457401D01*
X29844679Y41190197D01*
X30049187Y40985689D01*
X30316391Y40875010D01*
X30605609Y40875010D01*
X30872813Y40985689D01*
X31077321Y41190197D01*
X31101158Y41247745D01*
X43221861Y41247745D01*
X44050000Y40419605D01*
X44878139Y41247745D01*
X45761861Y41247745D01*
X46590000Y40419605D01*
X47418139Y41247745D01*
X47344005Y41493864D01*
X46806777Y41686965D01*
X46236546Y41659778D01*
X45835995Y41493864D01*
X45761861Y41247745D01*
X44878139Y41247745D01*
X44804005Y41493864D01*
X44692668Y41533883D01*
X44773923Y41567540D01*
X44841912Y41808483D01*
X44050000Y42600395D01*
X43258088Y41808483D01*
X43326077Y41567540D01*
X43405567Y41539250D01*
X43295995Y41493864D01*
X43221861Y41247745D01*
X31101158Y41247745D01*
X31188000Y41457401D01*
X31188000Y41746619D01*
X31077321Y42013823D01*
X30872813Y42218331D01*
X30605609Y42329010D01*
X30316391Y42329010D01*
X30049187Y42218331D01*
X29844679Y42013823D01*
X29734000Y41746619D01*
X13179389Y41746619D01*
X13106821Y41921813D01*
X12902313Y42126321D01*
X12635109Y42237000D01*
X12345891Y42237000D01*
X12078687Y42126321D01*
X11874179Y41921813D01*
X11763500Y41654609D01*
X8408000Y41654609D01*
X8408000Y41656609D01*
X8297321Y41923813D01*
X8092813Y42128321D01*
X7825609Y42239000D01*
X7536391Y42239000D01*
X7269187Y42128321D01*
X7064679Y41923813D01*
X6954000Y41656609D01*
X6954000Y41417240D01*
X6916607Y41442225D01*
X6750000Y41475365D01*
X6070111Y41475365D01*
X6077000Y41510000D01*
X6077000Y42984829D01*
X42652799Y42984829D01*
X42680770Y42434552D01*
X42837540Y42056077D01*
X43078483Y41988088D01*
X43870395Y42780000D01*
X43078483Y43571912D01*
X42837540Y43503923D01*
X42652799Y42984829D01*
X6077000Y42984829D01*
X6077000Y44050000D01*
X6067333Y44098601D01*
X6039803Y44139803D01*
X5998601Y44167333D01*
X5950000Y44177000D01*
X5882089Y44177000D01*
X6017344Y44312255D01*
X7661861Y44312255D01*
X7735995Y44066136D01*
X8273223Y43873035D01*
X8843454Y43900222D01*
X9244005Y44066136D01*
X9318139Y44312255D01*
X8490000Y45140395D01*
X7661861Y44312255D01*
X6017344Y44312255D01*
X6320495Y44615406D01*
X6702138Y45536777D01*
X7043035Y45536777D01*
X7070222Y44966546D01*
X7236136Y44565995D01*
X7482255Y44491861D01*
X8310395Y45320000D01*
X8669605Y45320000D01*
X9497745Y44491861D01*
X9743864Y44565995D01*
X9869473Y44915454D01*
X9989800Y44624961D01*
X10334961Y44279800D01*
X10785935Y44093000D01*
X11274065Y44093000D01*
X11725039Y44279800D01*
X12070200Y44624961D01*
X12257000Y45075935D01*
X12257000Y45564065D01*
X12343000Y45564065D01*
X12343000Y45075935D01*
X12529800Y44624961D01*
X12874961Y44279800D01*
X13325935Y44093000D01*
X13814065Y44093000D01*
X14265039Y44279800D01*
X14610200Y44624961D01*
X14797000Y45075935D01*
X14797000Y45564065D01*
X14883000Y45564065D01*
X14883000Y45075935D01*
X15069800Y44624961D01*
X15414961Y44279800D01*
X15865935Y44093000D01*
X16354065Y44093000D01*
X16805039Y44279800D01*
X17150200Y44624961D01*
X17337000Y45075935D01*
X17337000Y45564065D01*
X17150200Y46015039D01*
X17045239Y46120000D01*
X17414635Y46120000D01*
X17414635Y44520000D01*
X17447775Y44353393D01*
X17542150Y44212150D01*
X17683393Y44117775D01*
X17850000Y44084635D01*
X19450000Y44084635D01*
X19616607Y44117775D01*
X19731597Y44194609D01*
X20463000Y44194609D01*
X20463000Y43905391D01*
X20573679Y43638187D01*
X20778187Y43433679D01*
X21045391Y43323000D01*
X21334609Y43323000D01*
X21601813Y43433679D01*
X21806321Y43638187D01*
X21917000Y43905391D01*
X21917000Y44194609D01*
X21806321Y44461813D01*
X21601813Y44666321D01*
X21334609Y44777000D01*
X21045391Y44777000D01*
X20778187Y44666321D01*
X20573679Y44461813D01*
X20463000Y44194609D01*
X19731597Y44194609D01*
X19757850Y44212150D01*
X19852225Y44353393D01*
X19885365Y44520000D01*
X19885365Y46120000D01*
X22494635Y46120000D01*
X22494635Y44520000D01*
X22527775Y44353393D01*
X22622150Y44212150D01*
X22763393Y44117775D01*
X22930000Y44084635D01*
X23003000Y44084635D01*
X23003000Y43905371D01*
X23113679Y43638167D01*
X23318187Y43433659D01*
X23585391Y43322980D01*
X23874609Y43322980D01*
X24141813Y43433659D01*
X24346321Y43638167D01*
X24457000Y43905371D01*
X24457000Y44084635D01*
X24530000Y44084635D01*
X24696607Y44117775D01*
X24837850Y44212150D01*
X24904737Y44312255D01*
X25441861Y44312255D01*
X25515995Y44066136D01*
X26053223Y43873035D01*
X26623454Y43900222D01*
X27024005Y44066136D01*
X27098139Y44312255D01*
X26270000Y45140395D01*
X25441861Y44312255D01*
X24904737Y44312255D01*
X24932225Y44353393D01*
X24965365Y44520000D01*
X24965365Y44688567D01*
X25016136Y44565995D01*
X25262255Y44491861D01*
X26090395Y45320000D01*
X26449605Y45320000D01*
X27277745Y44491861D01*
X27523864Y44565995D01*
X27649473Y44915454D01*
X27769800Y44624961D01*
X28114961Y44279800D01*
X28424405Y44151624D01*
X28337000Y43940609D01*
X28337000Y43651391D01*
X28447679Y43384187D01*
X28652187Y43179679D01*
X28919391Y43069000D01*
X29208609Y43069000D01*
X29475813Y43179679D01*
X29680321Y43384187D01*
X29791000Y43651391D01*
X29791000Y43940609D01*
X29680321Y44207813D01*
X29575879Y44312255D01*
X30521861Y44312255D01*
X30595995Y44066136D01*
X31133223Y43873035D01*
X31703454Y43900222D01*
X32104005Y44066136D01*
X32178139Y44312255D01*
X31350000Y45140395D01*
X30521861Y44312255D01*
X29575879Y44312255D01*
X29556687Y44331447D01*
X29850200Y44624961D01*
X29960956Y44892348D01*
X30096136Y44565995D01*
X30342255Y44491861D01*
X31170395Y45320000D01*
X31529605Y45320000D01*
X32357745Y44491861D01*
X32603864Y44565995D01*
X32729473Y44915454D01*
X32849800Y44624961D01*
X33194961Y44279800D01*
X33645935Y44093000D01*
X34134065Y44093000D01*
X34585039Y44279800D01*
X34930200Y44624961D01*
X35117000Y45075935D01*
X35117000Y45564065D01*
X35203000Y45564065D01*
X35203000Y45075935D01*
X35389800Y44624961D01*
X35734961Y44279800D01*
X36185935Y44093000D01*
X36674065Y44093000D01*
X37125039Y44279800D01*
X37470200Y44624961D01*
X37657000Y45075935D01*
X37657000Y45564065D01*
X37743000Y45564065D01*
X37743000Y45075935D01*
X37929800Y44624961D01*
X38274961Y44279800D01*
X38725935Y44093000D01*
X39214065Y44093000D01*
X39665039Y44279800D01*
X40010200Y44624961D01*
X40197000Y45075935D01*
X40197000Y45564065D01*
X40010200Y46015039D01*
X39905239Y46120000D01*
X40274635Y46120000D01*
X40274635Y44520000D01*
X40307775Y44353393D01*
X40402150Y44212150D01*
X40543393Y44117775D01*
X40710000Y44084635D01*
X42310000Y44084635D01*
X42476607Y44117775D01*
X42617850Y44212150D01*
X42712225Y44353393D01*
X42745365Y44520000D01*
X42745365Y46120000D01*
X42712225Y46286607D01*
X42617850Y46427850D01*
X42476607Y46522225D01*
X42310000Y46555365D01*
X40710000Y46555365D01*
X40543393Y46522225D01*
X40402150Y46427850D01*
X40307775Y46286607D01*
X40274635Y46120000D01*
X39905239Y46120000D01*
X39665039Y46360200D01*
X39214065Y46547000D01*
X38725935Y46547000D01*
X38274961Y46360200D01*
X37929800Y46015039D01*
X37743000Y45564065D01*
X37657000Y45564065D01*
X37470200Y46015039D01*
X37125039Y46360200D01*
X36674065Y46547000D01*
X36185935Y46547000D01*
X35734961Y46360200D01*
X35389800Y46015039D01*
X35203000Y45564065D01*
X35117000Y45564065D01*
X34930200Y46015039D01*
X34585039Y46360200D01*
X34134065Y46547000D01*
X33645935Y46547000D01*
X33194961Y46360200D01*
X32849800Y46015039D01*
X32739044Y45747652D01*
X32603864Y46074005D01*
X32357745Y46148139D01*
X31529605Y45320000D01*
X31170395Y45320000D01*
X30342255Y46148139D01*
X30096136Y46074005D01*
X29970527Y45724546D01*
X29850200Y46015039D01*
X29505039Y46360200D01*
X29237652Y46470956D01*
X29564005Y46606136D01*
X29638139Y46852255D01*
X30521861Y46852255D01*
X30595995Y46606136D01*
X30637709Y46591142D01*
X30595995Y46573864D01*
X30521861Y46327745D01*
X31350000Y45499605D01*
X32178139Y46327745D01*
X32104005Y46573864D01*
X32062291Y46588858D01*
X32104005Y46606136D01*
X32178139Y46852255D01*
X31350000Y47680395D01*
X30521861Y46852255D01*
X29638139Y46852255D01*
X28810000Y47680395D01*
X27981861Y46852255D01*
X28055995Y46606136D01*
X28405454Y46480527D01*
X28114961Y46360200D01*
X27769800Y46015039D01*
X27659044Y45747652D01*
X27523864Y46074005D01*
X27277745Y46148139D01*
X26449605Y45320000D01*
X26090395Y45320000D01*
X25262255Y46148139D01*
X25016136Y46074005D01*
X24965365Y45932755D01*
X24965365Y46120000D01*
X24932225Y46286607D01*
X24837850Y46427850D01*
X24696607Y46522225D01*
X24530000Y46555365D01*
X22930000Y46555365D01*
X22763393Y46522225D01*
X22622150Y46427850D01*
X22527775Y46286607D01*
X22494635Y46120000D01*
X19885365Y46120000D01*
X19852225Y46286607D01*
X19757850Y46427850D01*
X19616607Y46522225D01*
X19450000Y46555365D01*
X17850000Y46555365D01*
X17683393Y46522225D01*
X17542150Y46427850D01*
X17447775Y46286607D01*
X17414635Y46120000D01*
X17045239Y46120000D01*
X16805039Y46360200D01*
X16354065Y46547000D01*
X15865935Y46547000D01*
X15414961Y46360200D01*
X15069800Y46015039D01*
X14883000Y45564065D01*
X14797000Y45564065D01*
X14610200Y46015039D01*
X14265039Y46360200D01*
X13814065Y46547000D01*
X13325935Y46547000D01*
X12874961Y46360200D01*
X12529800Y46015039D01*
X12343000Y45564065D01*
X12257000Y45564065D01*
X12070200Y46015039D01*
X11725039Y46360200D01*
X11274065Y46547000D01*
X10785935Y46547000D01*
X10334961Y46360200D01*
X9989800Y46015039D01*
X9879044Y45747652D01*
X9743864Y46074005D01*
X9497745Y46148139D01*
X8669605Y45320000D01*
X8310395Y45320000D01*
X7482255Y46148139D01*
X7236136Y46074005D01*
X7043035Y45536777D01*
X6702138Y45536777D01*
X6827000Y45838219D01*
X6827000Y46852255D01*
X7661861Y46852255D01*
X7735995Y46606136D01*
X7777709Y46591142D01*
X7735995Y46573864D01*
X7661861Y46327745D01*
X8490000Y45499605D01*
X9318139Y46327745D01*
X9244005Y46573864D01*
X9202291Y46588858D01*
X9244005Y46606136D01*
X9318139Y46852255D01*
X8490000Y47680395D01*
X7661861Y46852255D01*
X6827000Y46852255D01*
X6827000Y47161781D01*
X6447997Y48076777D01*
X7043035Y48076777D01*
X7070222Y47506546D01*
X7236136Y47105995D01*
X7482255Y47031861D01*
X8310395Y47860000D01*
X8669605Y47860000D01*
X9497745Y47031861D01*
X9743864Y47105995D01*
X9869473Y47455454D01*
X9989800Y47164961D01*
X10334961Y46819800D01*
X10785935Y46633000D01*
X11274065Y46633000D01*
X11725039Y46819800D01*
X12070200Y47164961D01*
X12257000Y47615935D01*
X12257000Y48104065D01*
X12343000Y48104065D01*
X12343000Y47615935D01*
X12529800Y47164961D01*
X12874961Y46819800D01*
X13325935Y46633000D01*
X13814065Y46633000D01*
X14265039Y46819800D01*
X14610200Y47164961D01*
X14797000Y47615935D01*
X14797000Y48104065D01*
X14883000Y48104065D01*
X14883000Y47615935D01*
X15069800Y47164961D01*
X15414961Y46819800D01*
X15865935Y46633000D01*
X16354065Y46633000D01*
X16805039Y46819800D01*
X17150200Y47164961D01*
X17337000Y47615935D01*
X17337000Y48104065D01*
X17150200Y48555039D01*
X17045239Y48660000D01*
X17414635Y48660000D01*
X17414635Y47060000D01*
X17447775Y46893393D01*
X17542150Y46752150D01*
X17683393Y46657775D01*
X17850000Y46624635D01*
X19450000Y46624635D01*
X19616607Y46657775D01*
X19757850Y46752150D01*
X19852225Y46893393D01*
X19885365Y47060000D01*
X19885365Y48660000D01*
X22494635Y48660000D01*
X22494635Y47060000D01*
X22527775Y46893393D01*
X22622150Y46752150D01*
X22763393Y46657775D01*
X22930000Y46624635D01*
X24530000Y46624635D01*
X24696607Y46657775D01*
X24837850Y46752150D01*
X24932225Y46893393D01*
X24965365Y47060000D01*
X24965365Y48104065D01*
X25043000Y48104065D01*
X25043000Y47615935D01*
X25229800Y47164961D01*
X25574961Y46819800D01*
X25842348Y46709044D01*
X25515995Y46573864D01*
X25441861Y46327745D01*
X26270000Y45499605D01*
X27098139Y46327745D01*
X27024005Y46573864D01*
X26674546Y46699473D01*
X26965039Y46819800D01*
X27310200Y47164961D01*
X27420956Y47432348D01*
X27556136Y47105995D01*
X27802255Y47031861D01*
X28630395Y47860000D01*
X28989605Y47860000D01*
X29817745Y47031861D01*
X30063864Y47105995D01*
X30078858Y47147709D01*
X30096136Y47105995D01*
X30342255Y47031861D01*
X31170395Y47860000D01*
X31529605Y47860000D01*
X32357745Y47031861D01*
X32603864Y47105995D01*
X32729473Y47455454D01*
X32849800Y47164961D01*
X33194961Y46819800D01*
X33645935Y46633000D01*
X34134065Y46633000D01*
X34585039Y46819800D01*
X34930200Y47164961D01*
X35117000Y47615935D01*
X35117000Y48104065D01*
X35203000Y48104065D01*
X35203000Y47615935D01*
X35389800Y47164961D01*
X35734961Y46819800D01*
X36185935Y46633000D01*
X36674065Y46633000D01*
X37125039Y46819800D01*
X37470200Y47164961D01*
X37657000Y47615935D01*
X37657000Y48104065D01*
X37743000Y48104065D01*
X37743000Y47615935D01*
X37929800Y47164961D01*
X38274961Y46819800D01*
X38725935Y46633000D01*
X39214065Y46633000D01*
X39665039Y46819800D01*
X40010200Y47164961D01*
X40197000Y47615935D01*
X40197000Y48104065D01*
X40010200Y48555039D01*
X39905239Y48660000D01*
X40274635Y48660000D01*
X40274635Y47060000D01*
X40307775Y46893393D01*
X40402150Y46752150D01*
X40543393Y46657775D01*
X40710000Y46624635D01*
X42310000Y46624635D01*
X42476607Y46657775D01*
X42617850Y46752150D01*
X42712225Y46893393D01*
X42745365Y47060000D01*
X42745365Y48660000D01*
X42712225Y48826607D01*
X42617850Y48967850D01*
X42476607Y49062225D01*
X42310000Y49095365D01*
X40710000Y49095365D01*
X40543393Y49062225D01*
X40402150Y48967850D01*
X40307775Y48826607D01*
X40274635Y48660000D01*
X39905239Y48660000D01*
X39665039Y48900200D01*
X39214065Y49087000D01*
X38725935Y49087000D01*
X38274961Y48900200D01*
X37929800Y48555039D01*
X37743000Y48104065D01*
X37657000Y48104065D01*
X37470200Y48555039D01*
X37125039Y48900200D01*
X36674065Y49087000D01*
X36185935Y49087000D01*
X35734961Y48900200D01*
X35389800Y48555039D01*
X35203000Y48104065D01*
X35117000Y48104065D01*
X34930200Y48555039D01*
X34585039Y48900200D01*
X34134065Y49087000D01*
X33645935Y49087000D01*
X33194961Y48900200D01*
X32849800Y48555039D01*
X32739044Y48287652D01*
X32603864Y48614005D01*
X32357745Y48688139D01*
X31529605Y47860000D01*
X31170395Y47860000D01*
X30342255Y48688139D01*
X30096136Y48614005D01*
X30081142Y48572291D01*
X30063864Y48614005D01*
X29817745Y48688139D01*
X28989605Y47860000D01*
X28630395Y47860000D01*
X27802255Y48688139D01*
X27556136Y48614005D01*
X27430527Y48264546D01*
X27310200Y48555039D01*
X26997494Y48867745D01*
X27981861Y48867745D01*
X28810000Y48039605D01*
X29638139Y48867745D01*
X30521861Y48867745D01*
X31350000Y48039605D01*
X32178139Y48867745D01*
X32104005Y49113864D01*
X31566777Y49306965D01*
X30996546Y49279778D01*
X30595995Y49113864D01*
X30521861Y48867745D01*
X29638139Y48867745D01*
X29564005Y49113864D01*
X29026777Y49306965D01*
X28456546Y49279778D01*
X28055995Y49113864D01*
X27981861Y48867745D01*
X26997494Y48867745D01*
X26965039Y48900200D01*
X26514065Y49087000D01*
X26025935Y49087000D01*
X25574961Y48900200D01*
X25229800Y48555039D01*
X25043000Y48104065D01*
X24965365Y48104065D01*
X24965365Y48660000D01*
X24932225Y48826607D01*
X24837850Y48967850D01*
X24696607Y49062225D01*
X24530000Y49095365D01*
X22930000Y49095365D01*
X22763393Y49062225D01*
X22622150Y48967850D01*
X22527775Y48826607D01*
X22494635Y48660000D01*
X19885365Y48660000D01*
X19852225Y48826607D01*
X19757850Y48967850D01*
X19616607Y49062225D01*
X19450000Y49095365D01*
X17850000Y49095365D01*
X17683393Y49062225D01*
X17542150Y48967850D01*
X17447775Y48826607D01*
X17414635Y48660000D01*
X17045239Y48660000D01*
X16805039Y48900200D01*
X16354065Y49087000D01*
X15865935Y49087000D01*
X15414961Y48900200D01*
X15069800Y48555039D01*
X14883000Y48104065D01*
X14797000Y48104065D01*
X14610200Y48555039D01*
X14265039Y48900200D01*
X13814065Y49087000D01*
X13325935Y49087000D01*
X12874961Y48900200D01*
X12529800Y48555039D01*
X12343000Y48104065D01*
X12257000Y48104065D01*
X12070200Y48555039D01*
X11725039Y48900200D01*
X11274065Y49087000D01*
X10785935Y49087000D01*
X10334961Y48900200D01*
X9989800Y48555039D01*
X9879044Y48287652D01*
X9743864Y48614005D01*
X9497745Y48688139D01*
X8669605Y47860000D01*
X8310395Y47860000D01*
X7482255Y48688139D01*
X7236136Y48614005D01*
X7043035Y48076777D01*
X6447997Y48076777D01*
X6320495Y48384594D01*
X5837344Y48867745D01*
X7661861Y48867745D01*
X8490000Y48039605D01*
X9318139Y48867745D01*
X9244005Y49113864D01*
X8706777Y49306965D01*
X8136546Y49279778D01*
X7735995Y49113864D01*
X7661861Y48867745D01*
X5837344Y48867745D01*
X5384594Y49320495D01*
X5257836Y49373000D01*
X44742164Y49373000D01*
X44615406Y49320495D01*
X44615406Y49320495D01*
G37*
X44615406Y49320495D02*
X43679505Y48384594D01*
X43173000Y47161781D01*
X43173000Y45838219D01*
X43679505Y44615406D01*
X44124343Y44170568D01*
X43704552Y44149230D01*
X43326077Y43992460D01*
X43258088Y43751517D01*
X44050000Y42959605D01*
X44064143Y42973747D01*
X44243748Y42794142D01*
X44229605Y42780000D01*
X45021517Y41988088D01*
X45262460Y42056077D01*
X45447201Y42575171D01*
X45419230Y43125448D01*
X45308678Y43392343D01*
X45838219Y43173000D01*
X47161781Y43173000D01*
X48384594Y43679505D01*
X49320495Y44615406D01*
X49373000Y44742164D01*
X49373000Y5257836D01*
X49320495Y5384594D01*
X48384594Y6320495D01*
X47161781Y6827000D01*
X45838219Y6827000D01*
X44615406Y6320495D01*
X43679505Y5384594D01*
X43173000Y4161781D01*
X43173000Y2838219D01*
X43679505Y1615406D01*
X44615406Y679505D01*
X44742164Y627000D01*
X5257836Y627000D01*
X5384594Y679505D01*
X6320495Y1615406D01*
X6827000Y2838219D01*
X6827000Y2940000D01*
X19954635Y2940000D01*
X19954635Y1340000D01*
X19987775Y1173393D01*
X20082150Y1032150D01*
X20223393Y937775D01*
X20390000Y904635D01*
X21990000Y904635D01*
X22156607Y937775D01*
X22297850Y1032150D01*
X22392225Y1173393D01*
X22425365Y1340000D01*
X22425365Y2940000D01*
X22494635Y2940000D01*
X22494635Y1340000D01*
X22527775Y1173393D01*
X22622150Y1032150D01*
X22763393Y937775D01*
X22930000Y904635D01*
X24530000Y904635D01*
X24696607Y937775D01*
X24837850Y1032150D01*
X24932225Y1173393D01*
X24965365Y1340000D01*
X24965365Y2940000D01*
X25034635Y2940000D01*
X25034635Y1340000D01*
X25067775Y1173393D01*
X25162150Y1032150D01*
X25303393Y937775D01*
X25470000Y904635D01*
X27070000Y904635D01*
X27236607Y937775D01*
X27377850Y1032150D01*
X27472225Y1173393D01*
X27505365Y1340000D01*
X27505365Y2384065D01*
X27583000Y2384065D01*
X27583000Y1895935D01*
X27769800Y1444961D01*
X28114961Y1099800D01*
X28565935Y913000D01*
X29054065Y913000D01*
X29505039Y1099800D01*
X29850200Y1444961D01*
X30037000Y1895935D01*
X30037000Y2384065D01*
X30123000Y2384065D01*
X30123000Y1895935D01*
X30309800Y1444961D01*
X30654961Y1099800D01*
X31105935Y913000D01*
X31594065Y913000D01*
X32045039Y1099800D01*
X32077494Y1132255D01*
X33061861Y1132255D01*
X33135995Y886136D01*
X33673223Y693035D01*
X34243454Y720222D01*
X34644005Y886136D01*
X34718139Y1132255D01*
X33890000Y1960395D01*
X33061861Y1132255D01*
X32077494Y1132255D01*
X32390200Y1444961D01*
X32500956Y1712348D01*
X32636136Y1385995D01*
X32882255Y1311861D01*
X33710395Y2140000D01*
X34069605Y2140000D01*
X34897745Y1311861D01*
X35143864Y1385995D01*
X35194635Y1527245D01*
X35194635Y1340000D01*
X35227775Y1173393D01*
X35322150Y1032150D01*
X35463393Y937775D01*
X35630000Y904635D01*
X37230000Y904635D01*
X37396607Y937775D01*
X37537850Y1032150D01*
X37632225Y1173393D01*
X37665365Y1340000D01*
X37665365Y2384065D01*
X37743000Y2384065D01*
X37743000Y1895935D01*
X37929800Y1444961D01*
X38274961Y1099800D01*
X38725935Y913000D01*
X39214065Y913000D01*
X39665039Y1099800D01*
X40010200Y1444961D01*
X40197000Y1895935D01*
X40197000Y2384065D01*
X40283000Y2384065D01*
X40283000Y1895935D01*
X40469800Y1444961D01*
X40814961Y1099800D01*
X41265935Y913000D01*
X41754065Y913000D01*
X42205039Y1099800D01*
X42550200Y1444961D01*
X42737000Y1895935D01*
X42737000Y2384065D01*
X42550200Y2835039D01*
X42205039Y3180200D01*
X41937652Y3290956D01*
X42264005Y3426136D01*
X42338139Y3672255D01*
X41510000Y4500395D01*
X40681861Y3672255D01*
X40755995Y3426136D01*
X41105454Y3300527D01*
X40814961Y3180200D01*
X40469800Y2835039D01*
X40283000Y2384065D01*
X40197000Y2384065D01*
X40010200Y2835039D01*
X39665039Y3180200D01*
X39214065Y3367000D01*
X38725935Y3367000D01*
X38274961Y3180200D01*
X37929800Y2835039D01*
X37743000Y2384065D01*
X37665365Y2384065D01*
X37665365Y2940000D01*
X37632225Y3106607D01*
X37537850Y3247850D01*
X37396607Y3342225D01*
X37230000Y3375365D01*
X35630000Y3375365D01*
X35463393Y3342225D01*
X35322150Y3247850D01*
X35227775Y3106607D01*
X35194635Y2940000D01*
X35194635Y2771433D01*
X35143864Y2894005D01*
X34897745Y2968139D01*
X34069605Y2140000D01*
X33710395Y2140000D01*
X32882255Y2968139D01*
X32636136Y2894005D01*
X32510527Y2544546D01*
X32390200Y2835039D01*
X32045039Y3180200D01*
X31594065Y3367000D01*
X31105935Y3367000D01*
X30654961Y3180200D01*
X30309800Y2835039D01*
X30123000Y2384065D01*
X30037000Y2384065D01*
X29850200Y2835039D01*
X29505039Y3180200D01*
X29054065Y3367000D01*
X28565935Y3367000D01*
X28114961Y3180200D01*
X27769800Y2835039D01*
X27583000Y2384065D01*
X27505365Y2384065D01*
X27505365Y2940000D01*
X27472225Y3106607D01*
X27377850Y3247850D01*
X27236607Y3342225D01*
X27070000Y3375365D01*
X25470000Y3375365D01*
X25303393Y3342225D01*
X25162150Y3247850D01*
X25067775Y3106607D01*
X25034635Y2940000D01*
X24965365Y2940000D01*
X24932225Y3106607D01*
X24837850Y3247850D01*
X24696607Y3342225D01*
X24530000Y3375365D01*
X24361433Y3375365D01*
X24484005Y3426136D01*
X24558139Y3672255D01*
X23730000Y4500395D01*
X22901861Y3672255D01*
X22975995Y3426136D01*
X23117245Y3375365D01*
X22930000Y3375365D01*
X22763393Y3342225D01*
X22622150Y3247850D01*
X22527775Y3106607D01*
X22494635Y2940000D01*
X22425365Y2940000D01*
X22392225Y3106607D01*
X22297850Y3247850D01*
X22156607Y3342225D01*
X21990000Y3375365D01*
X21821433Y3375365D01*
X21944005Y3426136D01*
X22018139Y3672255D01*
X21190000Y4500395D01*
X20361861Y3672255D01*
X20435995Y3426136D01*
X20577245Y3375365D01*
X20390000Y3375365D01*
X20223393Y3342225D01*
X20082150Y3247850D01*
X19987775Y3106607D01*
X19954635Y2940000D01*
X6827000Y2940000D01*
X6827000Y4161781D01*
X6756924Y4330961D01*
X8203096Y4330961D01*
X8220633Y4248181D01*
X8490500Y3755104D01*
X8928517Y3402834D01*
X9468000Y3245000D01*
X10268000Y3245000D01*
X10268000Y4553000D01*
X8325085Y4553000D01*
X8203096Y4330961D01*
X6756924Y4330961D01*
X6467771Y5029039D01*
X8203096Y5029039D01*
X8325085Y4807000D01*
X10268000Y4807000D01*
X10268000Y6115000D01*
X10522000Y6115000D01*
X10522000Y4807000D01*
X10542000Y4807000D01*
X10542000Y4553000D01*
X10522000Y4553000D01*
X10522000Y3245000D01*
X11322000Y3245000D01*
X11861483Y3402834D01*
X12299500Y3755104D01*
X12484784Y4093639D01*
X12529800Y3984961D01*
X12874961Y3639800D01*
X13325935Y3453000D01*
X13814065Y3453000D01*
X14265039Y3639800D01*
X14610200Y3984961D01*
X14797000Y4435935D01*
X14797000Y4896777D01*
X19743035Y4896777D01*
X19770222Y4326546D01*
X19936136Y3925995D01*
X20182255Y3851861D01*
X21010395Y4680000D01*
X21369605Y4680000D01*
X22197745Y3851861D01*
X22443864Y3925995D01*
X22458858Y3967709D01*
X22476136Y3925995D01*
X22722255Y3851861D01*
X23550395Y4680000D01*
X23909605Y4680000D01*
X24737745Y3851861D01*
X24983864Y3925995D01*
X25034635Y4067245D01*
X25034635Y3880000D01*
X25067775Y3713393D01*
X25162150Y3572150D01*
X25303393Y3477775D01*
X25470000Y3444635D01*
X27070000Y3444635D01*
X27236607Y3477775D01*
X27377850Y3572150D01*
X27472225Y3713393D01*
X27505365Y3880000D01*
X27505365Y4924065D01*
X27583000Y4924065D01*
X27583000Y4435935D01*
X27769800Y3984961D01*
X28114961Y3639800D01*
X28565935Y3453000D01*
X29054065Y3453000D01*
X29505039Y3639800D01*
X29850200Y3984961D01*
X30037000Y4435935D01*
X30037000Y4924065D01*
X30123000Y4924065D01*
X30123000Y4435935D01*
X30309800Y3984961D01*
X30654961Y3639800D01*
X31105935Y3453000D01*
X31594065Y3453000D01*
X32045039Y3639800D01*
X32390200Y3984961D01*
X32577000Y4435935D01*
X32577000Y4924065D01*
X32663000Y4924065D01*
X32663000Y4435935D01*
X32849800Y3984961D01*
X33194961Y3639800D01*
X33462348Y3529044D01*
X33135995Y3393864D01*
X33061861Y3147745D01*
X33890000Y2319605D01*
X34718139Y3147745D01*
X34644005Y3393864D01*
X34294546Y3519473D01*
X34585039Y3639800D01*
X34930200Y3984961D01*
X35117000Y4435935D01*
X35117000Y4924065D01*
X34930200Y5375039D01*
X34825239Y5480000D01*
X35194635Y5480000D01*
X35194635Y3880000D01*
X35227775Y3713393D01*
X35322150Y3572150D01*
X35463393Y3477775D01*
X35630000Y3444635D01*
X37230000Y3444635D01*
X37396607Y3477775D01*
X37537850Y3572150D01*
X37632225Y3713393D01*
X37665365Y3880000D01*
X37665365Y5480000D01*
X37632225Y5646607D01*
X37537850Y5787850D01*
X37396607Y5882225D01*
X37230000Y5915365D01*
X35630000Y5915365D01*
X35463393Y5882225D01*
X35322150Y5787850D01*
X35227775Y5646607D01*
X35194635Y5480000D01*
X34825239Y5480000D01*
X34585039Y5720200D01*
X34317652Y5830956D01*
X34644005Y5966136D01*
X34718139Y6212255D01*
X33890000Y7040395D01*
X33061861Y6212255D01*
X33135995Y5966136D01*
X33485454Y5840527D01*
X33194961Y5720200D01*
X32849800Y5375039D01*
X32663000Y4924065D01*
X32577000Y4924065D01*
X32390200Y5375039D01*
X32045039Y5720200D01*
X31594065Y5907000D01*
X31105935Y5907000D01*
X30654961Y5720200D01*
X30309800Y5375039D01*
X30123000Y4924065D01*
X30037000Y4924065D01*
X29850200Y5375039D01*
X29505039Y5720200D01*
X29054065Y5907000D01*
X28565935Y5907000D01*
X28114961Y5720200D01*
X27769800Y5375039D01*
X27583000Y4924065D01*
X27505365Y4924065D01*
X27505365Y5480000D01*
X27472225Y5646607D01*
X27377850Y5787850D01*
X27236607Y5882225D01*
X27070000Y5915365D01*
X25470000Y5915365D01*
X25303393Y5882225D01*
X25162150Y5787850D01*
X25067775Y5646607D01*
X25034635Y5480000D01*
X25034635Y5311433D01*
X24983864Y5434005D01*
X24737745Y5508139D01*
X23909605Y4680000D01*
X23550395Y4680000D01*
X22722255Y5508139D01*
X22476136Y5434005D01*
X22461142Y5392291D01*
X22443864Y5434005D01*
X22197745Y5508139D01*
X21369605Y4680000D01*
X21010395Y4680000D01*
X20182255Y5508139D01*
X19936136Y5434005D01*
X19743035Y4896777D01*
X14797000Y4896777D01*
X14797000Y4924065D01*
X14610200Y5375039D01*
X14265039Y5720200D01*
X13814065Y5907000D01*
X13325935Y5907000D01*
X12874961Y5720200D01*
X12529800Y5375039D01*
X12484784Y5266361D01*
X12299500Y5604896D01*
X11861483Y5957166D01*
X11391698Y6094609D01*
X14748000Y6094609D01*
X14748000Y5805391D01*
X14858679Y5538187D01*
X15063187Y5333679D01*
X15330391Y5223000D01*
X15619609Y5223000D01*
X15886813Y5333679D01*
X16091321Y5538187D01*
X16202000Y5805391D01*
X16202000Y6094609D01*
X18558000Y6094609D01*
X18558000Y5805391D01*
X18668679Y5538187D01*
X18873187Y5333679D01*
X19140391Y5223000D01*
X19429609Y5223000D01*
X19696813Y5333679D01*
X19901321Y5538187D01*
X20012000Y5805391D01*
X20012000Y6094609D01*
X19901321Y6361813D01*
X19696813Y6566321D01*
X19429609Y6677000D01*
X19140391Y6677000D01*
X18873187Y6566321D01*
X18668679Y6361813D01*
X18558000Y6094609D01*
X16202000Y6094609D01*
X16091321Y6361813D01*
X15886813Y6566321D01*
X15619609Y6677000D01*
X15330391Y6677000D01*
X15063187Y6566321D01*
X14858679Y6361813D01*
X14748000Y6094609D01*
X11391698Y6094609D01*
X11322000Y6115000D01*
X10522000Y6115000D01*
X10268000Y6115000D01*
X9468000Y6115000D01*
X8928517Y5957166D01*
X8490500Y5604896D01*
X8220633Y5111819D01*
X8203096Y5029039D01*
X6467771Y5029039D01*
X6320495Y5384594D01*
X5384594Y6320495D01*
X4161781Y6827000D01*
X2838219Y6827000D01*
X1615406Y6320495D01*
X679505Y5384594D01*
X627000Y5257836D01*
X627000Y7999609D01*
X18558000Y7999609D01*
X18558000Y7710391D01*
X18668679Y7443187D01*
X18873187Y7238679D01*
X19140391Y7128000D01*
X19429609Y7128000D01*
X19696813Y7238679D01*
X19901321Y7443187D01*
X19954635Y7571899D01*
X19954635Y6420000D01*
X19987775Y6253393D01*
X20082150Y6112150D01*
X20223393Y6017775D01*
X20390000Y5984635D01*
X20558567Y5984635D01*
X20435995Y5933864D01*
X20361861Y5687745D01*
X21190000Y4859605D01*
X22018139Y5687745D01*
X21944005Y5933864D01*
X21802755Y5984635D01*
X21990000Y5984635D01*
X22156607Y6017775D01*
X22297850Y6112150D01*
X22392225Y6253393D01*
X22425365Y6420000D01*
X22425365Y7464065D01*
X22503000Y7464065D01*
X22503000Y6975935D01*
X22689800Y6524961D01*
X23034961Y6179800D01*
X23302348Y6069044D01*
X22975995Y5933864D01*
X22901861Y5687745D01*
X23730000Y4859605D01*
X24558139Y5687745D01*
X24484005Y5933864D01*
X24134546Y6059473D01*
X24425039Y6179800D01*
X24770200Y6524961D01*
X24957000Y6975935D01*
X24957000Y7464065D01*
X24770200Y7915039D01*
X24425039Y8260200D01*
X23974065Y8447000D01*
X23485935Y8447000D01*
X23034961Y8260200D01*
X22689800Y7915039D01*
X22503000Y7464065D01*
X22425365Y7464065D01*
X22425365Y8020000D01*
X22392225Y8186607D01*
X22297850Y8327850D01*
X22156607Y8422225D01*
X21990000Y8455365D01*
X20390000Y8455365D01*
X20223393Y8422225D01*
X20082150Y8327850D01*
X19987775Y8186607D01*
X19970505Y8099786D01*
X19901321Y8266813D01*
X19696813Y8471321D01*
X19429609Y8582000D01*
X19140391Y8582000D01*
X18873187Y8471321D01*
X18668679Y8266813D01*
X18558000Y7999609D01*
X627000Y7999609D01*
X627000Y10004065D01*
X19963000Y10004065D01*
X19963000Y9515935D01*
X20149800Y9064961D01*
X20494961Y8719800D01*
X20945935Y8533000D01*
X21434065Y8533000D01*
X21885039Y8719800D01*
X22230200Y9064961D01*
X22315796Y9271609D01*
X24734000Y9271609D01*
X24734000Y8982391D01*
X24844679Y8715187D01*
X25049187Y8510679D01*
X25316391Y8400000D01*
X25605609Y8400000D01*
X25872813Y8510679D01*
X25969000Y8606866D01*
X26065187Y8510679D01*
X26218922Y8447000D01*
X26025935Y8447000D01*
X25574961Y8260200D01*
X25229800Y7915039D01*
X25043000Y7464065D01*
X25043000Y6975935D01*
X25229800Y6524961D01*
X25574961Y6179800D01*
X26025935Y5993000D01*
X26514065Y5993000D01*
X26965039Y6179800D01*
X27310200Y6524961D01*
X27497000Y6975935D01*
X27497000Y7464065D01*
X27310200Y7915039D01*
X27205239Y8020000D01*
X27574635Y8020000D01*
X27574635Y6420000D01*
X27607775Y6253393D01*
X27702150Y6112150D01*
X27843393Y6017775D01*
X28010000Y5984635D01*
X29610000Y5984635D01*
X29776607Y6017775D01*
X29917850Y6112150D01*
X30012225Y6253393D01*
X30045365Y6420000D01*
X30045365Y7464065D01*
X30123000Y7464065D01*
X30123000Y6975935D01*
X30309800Y6524961D01*
X30654961Y6179800D01*
X31105935Y5993000D01*
X31594065Y5993000D01*
X32045039Y6179800D01*
X32390200Y6524961D01*
X32500956Y6792348D01*
X32636136Y6465995D01*
X32882255Y6391861D01*
X33710395Y7220000D01*
X34069605Y7220000D01*
X34897745Y6391861D01*
X35143864Y6465995D01*
X35269473Y6815454D01*
X35389800Y6524961D01*
X35734961Y6179800D01*
X36185935Y5993000D01*
X36674065Y5993000D01*
X37125039Y6179800D01*
X37470200Y6524961D01*
X37535000Y6681402D01*
X37535000Y6293690D01*
X37631673Y6060301D01*
X37810302Y5881673D01*
X38043691Y5785000D01*
X38431402Y5785000D01*
X38274961Y5720200D01*
X37929800Y5375039D01*
X37743000Y4924065D01*
X37743000Y4435935D01*
X37929800Y3984961D01*
X38274961Y3639800D01*
X38725935Y3453000D01*
X39214065Y3453000D01*
X39665039Y3639800D01*
X40010200Y3984961D01*
X40120956Y4252348D01*
X40256136Y3925995D01*
X40502255Y3851861D01*
X41330395Y4680000D01*
X41689605Y4680000D01*
X42517745Y3851861D01*
X42763864Y3925995D01*
X42956965Y4463223D01*
X42929778Y5033454D01*
X42763864Y5434005D01*
X42517745Y5508139D01*
X41689605Y4680000D01*
X41330395Y4680000D01*
X40502255Y5508139D01*
X40256136Y5434005D01*
X40130527Y5084546D01*
X40010200Y5375039D01*
X39697494Y5687745D01*
X40681861Y5687745D01*
X41510000Y4859605D01*
X42338139Y5687745D01*
X42264005Y5933864D01*
X41726777Y6126965D01*
X41156546Y6099778D01*
X40755995Y5933864D01*
X40681861Y5687745D01*
X39697494Y5687745D01*
X39665039Y5720200D01*
X39508598Y5785000D01*
X39896309Y5785000D01*
X40129698Y5881673D01*
X40308327Y6060301D01*
X40405000Y6293690D01*
X40405000Y6934250D01*
X40246250Y7093000D01*
X39097000Y7093000D01*
X39097000Y7073000D01*
X38843000Y7073000D01*
X38843000Y7093000D01*
X38823000Y7093000D01*
X38823000Y7347000D01*
X38843000Y7347000D01*
X38843000Y8496250D01*
X39097000Y8496250D01*
X39097000Y7347000D01*
X40246250Y7347000D01*
X40405000Y7505750D01*
X40405000Y8128609D01*
X42260000Y8128609D01*
X42260000Y7839391D01*
X42370679Y7572187D01*
X42575187Y7367679D01*
X42842391Y7257000D01*
X43131609Y7257000D01*
X43398813Y7367679D01*
X43603321Y7572187D01*
X43714000Y7839391D01*
X43714000Y8128609D01*
X43603321Y8395813D01*
X43398813Y8600321D01*
X43131609Y8711000D01*
X42842391Y8711000D01*
X42575187Y8600321D01*
X42370679Y8395813D01*
X42260000Y8128609D01*
X40405000Y8128609D01*
X40405000Y8146310D01*
X40308327Y8379699D01*
X40129698Y8558327D01*
X39896309Y8655000D01*
X39255750Y8655000D01*
X39097000Y8496250D01*
X38843000Y8496250D01*
X38684250Y8655000D01*
X38043691Y8655000D01*
X37810302Y8558327D01*
X37631673Y8379699D01*
X37535000Y8146310D01*
X37535000Y7758598D01*
X37470200Y7915039D01*
X37125039Y8260200D01*
X36937874Y8337727D01*
X37048813Y8383679D01*
X37253321Y8588187D01*
X37364000Y8855391D01*
X37364000Y9144609D01*
X37253321Y9411813D01*
X37048813Y9616321D01*
X36781609Y9727000D01*
X36492391Y9727000D01*
X36225187Y9616321D01*
X36020679Y9411813D01*
X35910000Y9144609D01*
X35910000Y8855391D01*
X36020679Y8588187D01*
X36168916Y8439950D01*
X35734961Y8260200D01*
X35389800Y7915039D01*
X35279044Y7647652D01*
X35143864Y7974005D01*
X34897745Y8048139D01*
X34069605Y7220000D01*
X33710395Y7220000D01*
X32882255Y8048139D01*
X32636136Y7974005D01*
X32510527Y7624546D01*
X32390200Y7915039D01*
X32077494Y8227745D01*
X33061861Y8227745D01*
X33890000Y7399605D01*
X34718139Y8227745D01*
X34644005Y8473864D01*
X34106777Y8666965D01*
X33536546Y8639778D01*
X33135995Y8473864D01*
X33061861Y8227745D01*
X32077494Y8227745D01*
X32045039Y8260200D01*
X31594065Y8447000D01*
X31105935Y8447000D01*
X30654961Y8260200D01*
X30309800Y7915039D01*
X30123000Y7464065D01*
X30045365Y7464065D01*
X30045365Y8020000D01*
X30012225Y8186607D01*
X29917850Y8327850D01*
X29776607Y8422225D01*
X29610000Y8455365D01*
X28010000Y8455365D01*
X27843393Y8422225D01*
X27702150Y8327850D01*
X27607775Y8186607D01*
X27574635Y8020000D01*
X27205239Y8020000D01*
X26965039Y8260200D01*
X26624571Y8401227D01*
X26888813Y8510679D01*
X27093321Y8715187D01*
X27204000Y8982391D01*
X27204000Y9271609D01*
X27093321Y9538813D01*
X26888813Y9743321D01*
X26621609Y9854000D01*
X26332391Y9854000D01*
X26065187Y9743321D01*
X25969000Y9647134D01*
X25872813Y9743321D01*
X25605609Y9854000D01*
X25316391Y9854000D01*
X25049187Y9743321D01*
X24844679Y9538813D01*
X24734000Y9271609D01*
X22315796Y9271609D01*
X22417000Y9515935D01*
X22417000Y10004065D01*
X22230200Y10455039D01*
X21885039Y10800200D01*
X21434065Y10987000D01*
X20945935Y10987000D01*
X20494961Y10800200D01*
X20149800Y10455039D01*
X19963000Y10004065D01*
X627000Y10004065D01*
X627000Y12827619D01*
X4033000Y12827619D01*
X4033000Y12538401D01*
X4143679Y12271197D01*
X4348187Y12066689D01*
X4615391Y11956010D01*
X4904609Y11956010D01*
X5171813Y12066689D01*
X5376321Y12271197D01*
X5487000Y12538401D01*
X5487000Y12544065D01*
X19963000Y12544065D01*
X19963000Y12055935D01*
X20149800Y11604961D01*
X20494961Y11259800D01*
X20945935Y11073000D01*
X21434065Y11073000D01*
X21885039Y11259800D01*
X22230200Y11604961D01*
X22417000Y12055935D01*
X22417000Y12544065D01*
X22230200Y12995039D01*
X22018630Y13206609D01*
X25035000Y13206609D01*
X25035000Y12917391D01*
X25145679Y12650187D01*
X25350187Y12445679D01*
X25617391Y12335000D01*
X25906609Y12335000D01*
X26173813Y12445679D01*
X26272199Y12544065D01*
X42823000Y12544065D01*
X42823000Y12055935D01*
X43009800Y11604961D01*
X43354961Y11259800D01*
X43805935Y11073000D01*
X44294065Y11073000D01*
X44745039Y11259800D01*
X44777494Y11292255D01*
X45761861Y11292255D01*
X45835995Y11046136D01*
X46373223Y10853035D01*
X46943454Y10880222D01*
X47344005Y11046136D01*
X47418139Y11292255D01*
X46590000Y12120395D01*
X45761861Y11292255D01*
X44777494Y11292255D01*
X45090200Y11604961D01*
X45200956Y11872348D01*
X45336136Y11545995D01*
X45582255Y11471861D01*
X46410395Y12300000D01*
X46769605Y12300000D01*
X47597745Y11471861D01*
X47843864Y11545995D01*
X48036965Y12083223D01*
X48009778Y12653454D01*
X47843864Y13054005D01*
X47597745Y13128139D01*
X46769605Y12300000D01*
X46410395Y12300000D01*
X45582255Y13128139D01*
X45336136Y13054005D01*
X45210527Y12704546D01*
X45090200Y12995039D01*
X44745039Y13340200D01*
X44294065Y13527000D01*
X43805935Y13527000D01*
X43354961Y13340200D01*
X43009800Y12995039D01*
X42823000Y12544065D01*
X26272199Y12544065D01*
X26378321Y12650187D01*
X26489000Y12917391D01*
X26489000Y13206609D01*
X26378321Y13473813D01*
X26173813Y13678321D01*
X25906609Y13789000D01*
X25617391Y13789000D01*
X25350187Y13678321D01*
X25145679Y13473813D01*
X25035000Y13206609D01*
X22018630Y13206609D01*
X21885039Y13340200D01*
X21434065Y13527000D01*
X21198906Y13527000D01*
X21347813Y13588679D01*
X21444000Y13684866D01*
X21540187Y13588679D01*
X21807391Y13478000D01*
X22096609Y13478000D01*
X22363813Y13588679D01*
X22460000Y13684866D01*
X22556187Y13588679D01*
X22823391Y13478000D01*
X23112609Y13478000D01*
X23379813Y13588679D01*
X23475998Y13684864D01*
X23572183Y13588679D01*
X23839387Y13478000D01*
X24128605Y13478000D01*
X24395809Y13588679D01*
X24600317Y13793187D01*
X24710996Y14060391D01*
X24710996Y14349609D01*
X24600317Y14616813D01*
X24395809Y14821321D01*
X24128605Y14932000D01*
X23839387Y14932000D01*
X23572183Y14821321D01*
X23475998Y14725136D01*
X23379813Y14821321D01*
X23112609Y14932000D01*
X22823391Y14932000D01*
X22556187Y14821321D01*
X22460000Y14725134D01*
X22363813Y14821321D01*
X22096609Y14932000D01*
X21807391Y14932000D01*
X21540187Y14821321D01*
X21444000Y14725134D01*
X21347813Y14821321D01*
X21080609Y14932000D01*
X20791391Y14932000D01*
X20524187Y14821321D01*
X20319679Y14616813D01*
X20209000Y14349609D01*
X20209000Y14060391D01*
X20319679Y13793187D01*
X20524187Y13588679D01*
X20791391Y13478000D01*
X20827639Y13478000D01*
X20494961Y13340200D01*
X20149800Y12995039D01*
X19963000Y12544065D01*
X5487000Y12544065D01*
X5487000Y12827619D01*
X5376321Y13094823D01*
X5171813Y13299331D01*
X4904609Y13410010D01*
X4615391Y13410010D01*
X4348187Y13299331D01*
X4143679Y13094823D01*
X4033000Y12827619D01*
X627000Y12827619D01*
X627000Y14478609D01*
X18193500Y14478609D01*
X18193500Y14189391D01*
X18304179Y13922187D01*
X18508687Y13717679D01*
X18775891Y13607000D01*
X19065109Y13607000D01*
X19332313Y13717679D01*
X19536821Y13922187D01*
X19647500Y14189391D01*
X19647500Y14478609D01*
X19536821Y14745813D01*
X19332313Y14950321D01*
X19065109Y15061000D01*
X18775891Y15061000D01*
X18508687Y14950321D01*
X18304179Y14745813D01*
X18193500Y14478609D01*
X627000Y14478609D01*
X627000Y15084065D01*
X42823000Y15084065D01*
X42823000Y14595935D01*
X43009800Y14144961D01*
X43354961Y13799800D01*
X43805935Y13613000D01*
X44294065Y13613000D01*
X44745039Y13799800D01*
X45090200Y14144961D01*
X45277000Y14595935D01*
X45277000Y15084065D01*
X45363000Y15084065D01*
X45363000Y14595935D01*
X45549800Y14144961D01*
X45894961Y13799800D01*
X46162348Y13689044D01*
X45835995Y13553864D01*
X45761861Y13307745D01*
X46590000Y12479605D01*
X47418139Y13307745D01*
X47344005Y13553864D01*
X46994546Y13679473D01*
X47285039Y13799800D01*
X47630200Y14144961D01*
X47817000Y14595935D01*
X47817000Y15084065D01*
X47630200Y15535039D01*
X47285039Y15880200D01*
X46834065Y16067000D01*
X46345935Y16067000D01*
X45894961Y15880200D01*
X45549800Y15535039D01*
X45363000Y15084065D01*
X45277000Y15084065D01*
X45090200Y15535039D01*
X44745039Y15880200D01*
X44294065Y16067000D01*
X43805935Y16067000D01*
X43354961Y15880200D01*
X43009800Y15535039D01*
X42823000Y15084065D01*
X627000Y15084065D01*
X627000Y16889609D01*
X6493000Y16889609D01*
X6493000Y16600391D01*
X6603679Y16333187D01*
X6808187Y16128679D01*
X7075391Y16018000D01*
X7364609Y16018000D01*
X7516414Y16080879D01*
X7663391Y16020000D01*
X7952609Y16020000D01*
X8219813Y16130679D01*
X8424321Y16335187D01*
X8535000Y16602391D01*
X8535000Y16635609D01*
X15256000Y16635609D01*
X15256000Y16346391D01*
X15366679Y16079187D01*
X15571187Y15874679D01*
X15838391Y15764000D01*
X16127609Y15764000D01*
X16394813Y15874679D01*
X16599321Y16079187D01*
X16619377Y16127609D01*
X26178000Y16127609D01*
X26178000Y15838391D01*
X26288679Y15571187D01*
X26493187Y15366679D01*
X26760391Y15256000D01*
X27049609Y15256000D01*
X27316813Y15366679D01*
X27521321Y15571187D01*
X27632000Y15838391D01*
X27632000Y16127609D01*
X27521321Y16394813D01*
X27316813Y16599321D01*
X27049609Y16710000D01*
X26760391Y16710000D01*
X26493187Y16599321D01*
X26288679Y16394813D01*
X26178000Y16127609D01*
X16619377Y16127609D01*
X16710000Y16346391D01*
X16710000Y16635609D01*
X16599321Y16902813D01*
X16394813Y17107321D01*
X16127609Y17218000D01*
X15838391Y17218000D01*
X15571187Y17107321D01*
X15366679Y16902813D01*
X15256000Y16635609D01*
X8535000Y16635609D01*
X8535000Y16891609D01*
X8424321Y17158813D01*
X8312525Y17270609D01*
X23257000Y17270609D01*
X23257000Y16981391D01*
X23367679Y16714187D01*
X23572187Y16509679D01*
X23839391Y16399000D01*
X24128609Y16399000D01*
X24395813Y16509679D01*
X24600321Y16714187D01*
X24711000Y16981391D01*
X24711000Y17270609D01*
X24600321Y17537813D01*
X24514069Y17624065D01*
X42823000Y17624065D01*
X42823000Y17135935D01*
X43009800Y16684961D01*
X43354961Y16339800D01*
X43805935Y16153000D01*
X44294065Y16153000D01*
X44745039Y16339800D01*
X45090200Y16684961D01*
X45277000Y17135935D01*
X45277000Y17624065D01*
X45363000Y17624065D01*
X45363000Y17135935D01*
X45549800Y16684961D01*
X45894961Y16339800D01*
X46345935Y16153000D01*
X46834065Y16153000D01*
X47285039Y16339800D01*
X47630200Y16684961D01*
X47817000Y17135935D01*
X47817000Y17624065D01*
X47630200Y18075039D01*
X47285039Y18420200D01*
X46834065Y18607000D01*
X46345935Y18607000D01*
X45894961Y18420200D01*
X45549800Y18075039D01*
X45363000Y17624065D01*
X45277000Y17624065D01*
X45090200Y18075039D01*
X44745039Y18420200D01*
X44294065Y18607000D01*
X43805935Y18607000D01*
X43354961Y18420200D01*
X43009800Y18075039D01*
X42823000Y17624065D01*
X24514069Y17624065D01*
X24395813Y17742321D01*
X24128609Y17853000D01*
X23839391Y17853000D01*
X23572187Y17742321D01*
X23367679Y17537813D01*
X23257000Y17270609D01*
X8312525Y17270609D01*
X8219813Y17363321D01*
X7952609Y17474000D01*
X7663391Y17474000D01*
X7511586Y17411121D01*
X7364609Y17472000D01*
X7075391Y17472000D01*
X6808187Y17361321D01*
X6603679Y17156813D01*
X6493000Y16889609D01*
X627000Y16889609D01*
X627000Y19683609D01*
X9160000Y19683609D01*
X9160000Y19394391D01*
X9270679Y19127187D01*
X9475187Y18922679D01*
X9742391Y18812000D01*
X10031609Y18812000D01*
X10298813Y18922679D01*
X10503321Y19127187D01*
X10614000Y19394391D01*
X10614000Y19683609D01*
X10503321Y19950813D01*
X10298813Y20155321D01*
X10031609Y20266000D01*
X9742391Y20266000D01*
X9475187Y20155321D01*
X9270679Y19950813D01*
X9160000Y19683609D01*
X627000Y19683609D01*
X627000Y21334609D01*
X1159000Y21334609D01*
X1159000Y21045391D01*
X1269679Y20778187D01*
X1474187Y20573679D01*
X1741391Y20463000D01*
X2030609Y20463000D01*
X2297813Y20573679D01*
X2502321Y20778187D01*
X2613000Y21045391D01*
X2613000Y21080609D01*
X11319000Y21080609D01*
X11319000Y20791391D01*
X11429679Y20524187D01*
X11634187Y20319679D01*
X11901391Y20209000D01*
X11984814Y20209000D01*
X12064679Y20016187D01*
X12269187Y19811679D01*
X12536391Y19701000D01*
X12565694Y19701000D01*
X12657291Y19479865D01*
X12875865Y19261291D01*
X13161445Y19143000D01*
X13470555Y19143000D01*
X13756135Y19261291D01*
X13924453Y19429609D01*
X36849032Y19429609D01*
X36849032Y19140391D01*
X36959711Y18873187D01*
X37164219Y18668679D01*
X37431423Y18558000D01*
X37720641Y18558000D01*
X37987845Y18668679D01*
X38192353Y18873187D01*
X38303032Y19140391D01*
X38303032Y19429609D01*
X38192353Y19696813D01*
X37987845Y19901321D01*
X37720641Y20012000D01*
X37431423Y20012000D01*
X37164219Y19901321D01*
X36959711Y19696813D01*
X36849032Y19429609D01*
X13924453Y19429609D01*
X13974709Y19479865D01*
X14066306Y19701000D01*
X14095609Y19701000D01*
X14362813Y19811679D01*
X14567321Y20016187D01*
X14647186Y20209000D01*
X14730609Y20209000D01*
X14997813Y20319679D01*
X15202321Y20524187D01*
X15313000Y20791391D01*
X15313000Y21080609D01*
X15312172Y21082609D01*
X24734000Y21082609D01*
X24734000Y20793391D01*
X24844679Y20526187D01*
X25049187Y20321679D01*
X25316391Y20211000D01*
X25572985Y20211000D01*
X25653679Y20016187D01*
X25858187Y19811679D01*
X26125391Y19701000D01*
X26414609Y19701000D01*
X26681813Y19811679D01*
X26886321Y20016187D01*
X26947573Y20164065D01*
X42823000Y20164065D01*
X42823000Y19675935D01*
X43009800Y19224961D01*
X43354961Y18879800D01*
X43805935Y18693000D01*
X44294065Y18693000D01*
X44745039Y18879800D01*
X45090200Y19224961D01*
X45277000Y19675935D01*
X45277000Y20164065D01*
X45363000Y20164065D01*
X45363000Y19675935D01*
X45549800Y19224961D01*
X45894961Y18879800D01*
X46345935Y18693000D01*
X46834065Y18693000D01*
X47285039Y18879800D01*
X47630200Y19224961D01*
X47817000Y19675935D01*
X47817000Y20164065D01*
X47630200Y20615039D01*
X47285039Y20960200D01*
X46834065Y21147000D01*
X46345935Y21147000D01*
X45894961Y20960200D01*
X45549800Y20615039D01*
X45363000Y20164065D01*
X45277000Y20164065D01*
X45090200Y20615039D01*
X44745039Y20960200D01*
X44294065Y21147000D01*
X43805935Y21147000D01*
X43354961Y20960200D01*
X43009800Y20615039D01*
X42823000Y20164065D01*
X26947573Y20164065D01*
X26997000Y20283391D01*
X26997000Y20572609D01*
X26886321Y20839813D01*
X26681813Y21044321D01*
X26594206Y21080609D01*
X27067004Y21080609D01*
X27067004Y20791391D01*
X27177683Y20524187D01*
X27382191Y20319679D01*
X27649395Y20209000D01*
X27938613Y20209000D01*
X28205817Y20319679D01*
X28410325Y20524187D01*
X28521004Y20791391D01*
X28521004Y21080609D01*
X28410325Y21347813D01*
X28205817Y21552321D01*
X27938613Y21663000D01*
X27649395Y21663000D01*
X27382191Y21552321D01*
X27177683Y21347813D01*
X27067004Y21080609D01*
X26594206Y21080609D01*
X26414609Y21155000D01*
X26158015Y21155000D01*
X26077321Y21349813D01*
X26061916Y21365218D01*
X26277791Y21275800D01*
X26567009Y21275800D01*
X26834213Y21386479D01*
X27038721Y21590987D01*
X27149400Y21858191D01*
X27149400Y22147409D01*
X27038721Y22414613D01*
X26834213Y22619121D01*
X26567009Y22729800D01*
X26277791Y22729800D01*
X26010587Y22619121D01*
X25806079Y22414613D01*
X25695400Y22147409D01*
X25695400Y21858191D01*
X25806079Y21590987D01*
X25821484Y21575582D01*
X25605609Y21665000D01*
X25316391Y21665000D01*
X25049187Y21554321D01*
X24844679Y21349813D01*
X24734000Y21082609D01*
X15312172Y21082609D01*
X15202321Y21347813D01*
X14997813Y21552321D01*
X14730609Y21663000D01*
X14441391Y21663000D01*
X14174187Y21552321D01*
X13969679Y21347813D01*
X13951000Y21302718D01*
X13932321Y21347813D01*
X13727813Y21552321D01*
X13460609Y21663000D01*
X13171391Y21663000D01*
X12904187Y21552321D01*
X12699679Y21347813D01*
X12681000Y21302718D01*
X12662321Y21347813D01*
X12457813Y21552321D01*
X12190609Y21663000D01*
X11901391Y21663000D01*
X11634187Y21552321D01*
X11429679Y21347813D01*
X11319000Y21080609D01*
X2613000Y21080609D01*
X2613000Y21334609D01*
X2502321Y21601813D01*
X2297813Y21806321D01*
X2030609Y21917000D01*
X1741391Y21917000D01*
X1474187Y21806321D01*
X1269679Y21601813D01*
X1159000Y21334609D01*
X627000Y21334609D01*
X627000Y23241609D01*
X3969500Y23241609D01*
X3969500Y22952391D01*
X4067416Y22716000D01*
X3969500Y22479609D01*
X3969500Y22190391D01*
X4080179Y21923187D01*
X4284687Y21718679D01*
X4551891Y21608000D01*
X4841109Y21608000D01*
X5108313Y21718679D01*
X5312821Y21923187D01*
X5423500Y22190391D01*
X5423500Y22479609D01*
X5325584Y22716000D01*
X5423500Y22952391D01*
X5423500Y23241609D01*
X6827000Y23241609D01*
X6827000Y22952391D01*
X6924916Y22716000D01*
X6827000Y22479609D01*
X6827000Y22190391D01*
X6937679Y21923187D01*
X7142187Y21718679D01*
X7409391Y21608000D01*
X7698609Y21608000D01*
X7965813Y21718679D01*
X8170321Y21923187D01*
X8242156Y22096615D01*
X18177000Y22096615D01*
X18177000Y21807397D01*
X18287679Y21540193D01*
X18492187Y21335685D01*
X18759391Y21225006D01*
X19048609Y21225006D01*
X19315813Y21335685D01*
X19520321Y21540193D01*
X19624978Y21792859D01*
X19624978Y21786325D01*
X19735657Y21519121D01*
X19940165Y21314613D01*
X20207369Y21203934D01*
X20496587Y21203934D01*
X20763791Y21314613D01*
X20968299Y21519121D01*
X21078978Y21786325D01*
X21078978Y21969609D01*
X21225000Y21969609D01*
X21225000Y21680391D01*
X21335679Y21413187D01*
X21540187Y21208679D01*
X21807391Y21098000D01*
X22096609Y21098000D01*
X22363813Y21208679D01*
X22568321Y21413187D01*
X22679000Y21680391D01*
X22679000Y21860000D01*
X22731597Y21860000D01*
X22998801Y21970679D01*
X23203309Y22175187D01*
X23313988Y22442391D01*
X23313988Y22731609D01*
X23203309Y22998813D01*
X23041150Y23160972D01*
X23064612Y23170690D01*
X23269120Y23375198D01*
X23379799Y23642402D01*
X23379799Y23931620D01*
X23269120Y24198824D01*
X23100155Y24367789D01*
X30856029Y24367789D01*
X30856029Y24078571D01*
X30966708Y23811367D01*
X31171216Y23606859D01*
X31438420Y23496180D01*
X31485752Y23496180D01*
X31571915Y23288163D01*
X31776423Y23083655D01*
X32043627Y22972976D01*
X32332845Y22972976D01*
X32600049Y23083655D01*
X32736630Y23220236D01*
X32843187Y23113679D01*
X32888282Y23095000D01*
X32843187Y23076321D01*
X32638679Y22871813D01*
X32528000Y22604609D01*
X32528000Y22315391D01*
X32638679Y22048187D01*
X32843187Y21843679D01*
X33110391Y21733000D01*
X33399609Y21733000D01*
X33666813Y21843679D01*
X33871321Y22048187D01*
X33982000Y22315391D01*
X33982000Y22604609D01*
X33871321Y22871813D01*
X33735176Y23007958D01*
X33991195Y23007958D01*
X33991195Y22718740D01*
X34101874Y22451536D01*
X34306382Y22247028D01*
X34573586Y22136349D01*
X34862804Y22136349D01*
X35130008Y22247028D01*
X35334516Y22451536D01*
X35445195Y22718740D01*
X35445195Y23007958D01*
X35340797Y23260000D01*
X42814635Y23260000D01*
X42814635Y21660000D01*
X42847775Y21493393D01*
X42942150Y21352150D01*
X43083393Y21257775D01*
X43250000Y21224635D01*
X44850000Y21224635D01*
X45016607Y21257775D01*
X45157850Y21352150D01*
X45252225Y21493393D01*
X45285365Y21660000D01*
X45285365Y22704065D01*
X45363000Y22704065D01*
X45363000Y22215935D01*
X45549800Y21764961D01*
X45894961Y21419800D01*
X46345935Y21233000D01*
X46834065Y21233000D01*
X47285039Y21419800D01*
X47630200Y21764961D01*
X47817000Y22215935D01*
X47817000Y22704065D01*
X47630200Y23155039D01*
X47285039Y23500200D01*
X46834065Y23687000D01*
X46345935Y23687000D01*
X45894961Y23500200D01*
X45549800Y23155039D01*
X45363000Y22704065D01*
X45285365Y22704065D01*
X45285365Y23260000D01*
X45252225Y23426607D01*
X45157850Y23567850D01*
X45016607Y23662225D01*
X44850000Y23695365D01*
X43250000Y23695365D01*
X43083393Y23662225D01*
X42942150Y23567850D01*
X42847775Y23426607D01*
X42814635Y23260000D01*
X35340797Y23260000D01*
X35334516Y23275162D01*
X35130008Y23479670D01*
X34862804Y23590349D01*
X34573586Y23590349D01*
X34306382Y23479670D01*
X34101874Y23275162D01*
X33991195Y23007958D01*
X33735176Y23007958D01*
X33666813Y23076321D01*
X33621718Y23095000D01*
X33666813Y23113679D01*
X33871321Y23318187D01*
X33982000Y23585391D01*
X33982000Y23874609D01*
X33871321Y24141813D01*
X33867134Y24146000D01*
X34034609Y24146000D01*
X34301813Y24256679D01*
X34506321Y24461187D01*
X34617000Y24728391D01*
X34617000Y24890609D01*
X35322000Y24890609D01*
X35322000Y24601391D01*
X35432679Y24334187D01*
X35637187Y24129679D01*
X35904391Y24019000D01*
X36193609Y24019000D01*
X36460813Y24129679D01*
X36612143Y24281009D01*
X40935400Y24281009D01*
X40935400Y23991791D01*
X41046079Y23724587D01*
X41250587Y23520079D01*
X41517791Y23409400D01*
X41807009Y23409400D01*
X42074213Y23520079D01*
X42278721Y23724587D01*
X42389400Y23991791D01*
X42389400Y24281009D01*
X42278721Y24548213D01*
X42074213Y24752721D01*
X41807009Y24863400D01*
X41517791Y24863400D01*
X41250587Y24752721D01*
X41046079Y24548213D01*
X40935400Y24281009D01*
X36612143Y24281009D01*
X36665321Y24334187D01*
X36776000Y24601391D01*
X36776000Y24890609D01*
X36665321Y25157813D01*
X36460813Y25362321D01*
X36193609Y25473000D01*
X35904391Y25473000D01*
X35637187Y25362321D01*
X35432679Y25157813D01*
X35322000Y24890609D01*
X34617000Y24890609D01*
X34617000Y25017609D01*
X34506321Y25284813D01*
X34301813Y25489321D01*
X34034609Y25600000D01*
X33745391Y25600000D01*
X33478187Y25489321D01*
X33273679Y25284813D01*
X33163000Y25017609D01*
X33163000Y24728391D01*
X33273679Y24461187D01*
X33277866Y24457000D01*
X33110391Y24457000D01*
X32843187Y24346321D01*
X32706606Y24209740D01*
X32600049Y24316297D01*
X32332845Y24426976D01*
X32285513Y24426976D01*
X32199350Y24634993D01*
X31994842Y24839501D01*
X31727638Y24950180D01*
X31438420Y24950180D01*
X31171216Y24839501D01*
X30966708Y24634993D01*
X30856029Y24367789D01*
X23100155Y24367789D01*
X23064612Y24403332D01*
X22797408Y24514011D01*
X22508190Y24514011D01*
X22240986Y24403332D01*
X22036478Y24198824D01*
X21925799Y23931620D01*
X21925799Y23642402D01*
X22036478Y23375198D01*
X22198637Y23213039D01*
X22175175Y23203321D01*
X21970667Y22998813D01*
X21859988Y22731609D01*
X21859988Y22552000D01*
X21807391Y22552000D01*
X21540187Y22441321D01*
X21335679Y22236813D01*
X21225000Y21969609D01*
X21078978Y21969609D01*
X21078978Y22075543D01*
X20968299Y22342747D01*
X20763791Y22547255D01*
X20496587Y22657934D01*
X20207369Y22657934D01*
X19940165Y22547255D01*
X19735657Y22342747D01*
X19631000Y22090081D01*
X19631000Y22096615D01*
X19520321Y22363819D01*
X19315813Y22568327D01*
X19048609Y22679006D01*
X18759391Y22679006D01*
X18492187Y22568327D01*
X18287679Y22363819D01*
X18177000Y22096615D01*
X8242156Y22096615D01*
X8281000Y22190391D01*
X8281000Y22479609D01*
X8183084Y22716000D01*
X8281000Y22952391D01*
X8281000Y23241609D01*
X8204309Y23426757D01*
X8219813Y23433179D01*
X8336467Y23549833D01*
X8425391Y23513000D01*
X8714609Y23513000D01*
X8981813Y23623679D01*
X9186321Y23828187D01*
X9297000Y24095391D01*
X9297000Y24384609D01*
X9186321Y24651813D01*
X8981813Y24856321D01*
X8714609Y24967000D01*
X8425391Y24967000D01*
X8158187Y24856321D01*
X8041533Y24739667D01*
X7952609Y24776500D01*
X7663391Y24776500D01*
X7396187Y24665821D01*
X7191679Y24461313D01*
X7081000Y24194109D01*
X7081000Y23904891D01*
X7157691Y23719743D01*
X7142187Y23713321D01*
X6937679Y23508813D01*
X6827000Y23241609D01*
X5423500Y23241609D01*
X5312821Y23508813D01*
X5108313Y23713321D01*
X4841109Y23824000D01*
X4551891Y23824000D01*
X4284687Y23713321D01*
X4080179Y23508813D01*
X3969500Y23241609D01*
X627000Y23241609D01*
X627000Y26541609D01*
X2175000Y26541609D01*
X2175000Y26252391D01*
X2285679Y25985187D01*
X2490187Y25780679D01*
X2757391Y25670000D01*
X3046609Y25670000D01*
X3313813Y25780679D01*
X3346500Y25813366D01*
X3379187Y25780679D01*
X3646391Y25670000D01*
X3935609Y25670000D01*
X4202813Y25780679D01*
X4235500Y25813366D01*
X4268187Y25780679D01*
X4535391Y25670000D01*
X4824609Y25670000D01*
X5091813Y25780679D01*
X5124500Y25813366D01*
X5157187Y25780679D01*
X5424391Y25670000D01*
X5713609Y25670000D01*
X5980813Y25780679D01*
X6013500Y25813366D01*
X6046187Y25780679D01*
X6313391Y25670000D01*
X6602609Y25670000D01*
X6869813Y25780679D01*
X6902500Y25813366D01*
X6935187Y25780679D01*
X7104219Y25710664D01*
X7081000Y25654609D01*
X7081000Y25365391D01*
X7191679Y25098187D01*
X7396187Y24893679D01*
X7663391Y24783000D01*
X7952609Y24783000D01*
X8219813Y24893679D01*
X8343753Y25017619D01*
X16907000Y25017619D01*
X16907000Y24728401D01*
X17017679Y24461197D01*
X17222187Y24256689D01*
X17489391Y24146010D01*
X17778609Y24146010D01*
X18045813Y24256689D01*
X18250321Y24461197D01*
X18354719Y24713239D01*
X20326493Y24713239D01*
X20326493Y24424021D01*
X20437172Y24156817D01*
X20579671Y24014318D01*
X20566692Y24001339D01*
X20456013Y23734135D01*
X20456013Y23444917D01*
X20566692Y23177713D01*
X20771200Y22973205D01*
X21038404Y22862526D01*
X21327622Y22862526D01*
X21594826Y22973205D01*
X21799334Y23177713D01*
X21910013Y23444917D01*
X21910013Y23734135D01*
X21799334Y24001339D01*
X21656835Y24143838D01*
X21669814Y24156817D01*
X21780493Y24424021D01*
X21780493Y24713239D01*
X21669814Y24980443D01*
X21465306Y25184951D01*
X21198102Y25295630D01*
X20908884Y25295630D01*
X20641680Y25184951D01*
X20437172Y24980443D01*
X20326493Y24713239D01*
X18354719Y24713239D01*
X18361000Y24728401D01*
X18361000Y25017619D01*
X18250321Y25284823D01*
X18045813Y25489331D01*
X18014890Y25502139D01*
X18154726Y25560061D01*
X18264661Y25669996D01*
X18379364Y25622484D01*
X18668582Y25622484D01*
X18935786Y25733163D01*
X19140294Y25937671D01*
X19152326Y25966720D01*
X25890158Y25966720D01*
X26078125Y25600380D01*
X26391977Y25333858D01*
X26615682Y25241196D01*
X26778000Y25368552D01*
X26778000Y26129038D01*
X27032000Y26129038D01*
X27032000Y25368552D01*
X27194318Y25241196D01*
X27560658Y25429163D01*
X27827180Y25743015D01*
X27919842Y25966720D01*
X27792486Y26129038D01*
X27032000Y26129038D01*
X26778000Y26129038D01*
X26017514Y26129038D01*
X25890158Y25966720D01*
X19152326Y25966720D01*
X19250973Y26204875D01*
X19250973Y26494093D01*
X19140294Y26761297D01*
X18935786Y26965805D01*
X18668582Y27076484D01*
X18379364Y27076484D01*
X18112160Y26965805D01*
X18002225Y26855870D01*
X17887522Y26903382D01*
X17598304Y26903382D01*
X17331100Y26792703D01*
X17126592Y26588195D01*
X17015913Y26320991D01*
X17015913Y26031773D01*
X17126592Y25764569D01*
X17331100Y25560061D01*
X17362023Y25547253D01*
X17222187Y25489331D01*
X17017679Y25284823D01*
X16907000Y25017619D01*
X8343753Y25017619D01*
X8424321Y25098187D01*
X8535000Y25365391D01*
X8535000Y25654609D01*
X8424321Y25921813D01*
X8219813Y26126321D01*
X8050781Y26196336D01*
X8074000Y26252391D01*
X8074000Y26541609D01*
X7963321Y26808813D01*
X7758813Y27013321D01*
X7612457Y27073943D01*
X7693000Y27268391D01*
X7693000Y27557609D01*
X7582321Y27824813D01*
X7549634Y27857500D01*
X7582321Y27890187D01*
X7693000Y28157391D01*
X7693000Y28446609D01*
X7582321Y28713813D01*
X7377813Y28918321D01*
X7110609Y29029000D01*
X6821391Y29029000D01*
X6757087Y29002365D01*
X6778139Y29072255D01*
X6639786Y29210609D01*
X11272000Y29210609D01*
X11272000Y28921391D01*
X11382679Y28654187D01*
X11478866Y28558000D01*
X11382679Y28461813D01*
X11272000Y28194609D01*
X11272000Y27905391D01*
X11382679Y27638187D01*
X11587187Y27433679D01*
X11854391Y27323000D01*
X12143609Y27323000D01*
X12410813Y27433679D01*
X12615321Y27638187D01*
X12704211Y27852789D01*
X12918813Y27941679D01*
X13123321Y28146187D01*
X13234000Y28413391D01*
X13234000Y28503799D01*
X17923004Y28503799D01*
X17923004Y28214581D01*
X18033683Y27947377D01*
X18238191Y27742869D01*
X18505395Y27632190D01*
X18794613Y27632190D01*
X19061817Y27742869D01*
X19266325Y27947377D01*
X19377004Y28214581D01*
X19377004Y28503799D01*
X19266325Y28771003D01*
X19061817Y28975511D01*
X18794613Y29086190D01*
X18505395Y29086190D01*
X18238191Y28975511D01*
X18033683Y28771003D01*
X17923004Y28503799D01*
X13234000Y28503799D01*
X13234000Y28702609D01*
X13123321Y28969813D01*
X12944433Y29148701D01*
X22708177Y29148701D01*
X22896144Y28782361D01*
X23209996Y28515839D01*
X23433701Y28423177D01*
X23596019Y28550533D01*
X23596019Y29244270D01*
X23737160Y29244270D01*
X23836703Y29144727D01*
X23770295Y28812947D01*
X23850019Y28620733D01*
X23850019Y28550533D01*
X23893182Y28516667D01*
X24248115Y27660928D01*
X25130422Y26779455D01*
X25983838Y26425958D01*
X26017514Y26383038D01*
X26087457Y26383038D01*
X26279928Y26303314D01*
X26611708Y26369722D01*
X26711251Y26270179D01*
X26890859Y26449787D01*
X26919141Y26449787D01*
X27098749Y26270179D01*
X27198292Y26369722D01*
X27530072Y26303314D01*
X27722286Y26383038D01*
X27792486Y26383038D01*
X27826352Y26426201D01*
X28682091Y26781134D01*
X29459830Y27559609D01*
X34640000Y27559609D01*
X34640000Y27270391D01*
X34750679Y27003187D01*
X34955187Y26798679D01*
X35222391Y26688000D01*
X35511609Y26688000D01*
X35778813Y26798679D01*
X35983321Y27003187D01*
X36094000Y27270391D01*
X36094000Y27559609D01*
X35983321Y27826813D01*
X35950630Y27859504D01*
X36110313Y28019187D01*
X36220992Y28286391D01*
X36220992Y28497409D01*
X40173400Y28497409D01*
X40173400Y28208191D01*
X40284079Y27940987D01*
X40488587Y27736479D01*
X40755791Y27625800D01*
X41045009Y27625800D01*
X41312213Y27736479D01*
X41516721Y27940987D01*
X41627400Y28208191D01*
X41627400Y28497409D01*
X41516721Y28764613D01*
X41312213Y28969121D01*
X41045009Y29079800D01*
X40755791Y29079800D01*
X40488587Y28969121D01*
X40284079Y28764613D01*
X40173400Y28497409D01*
X36220992Y28497409D01*
X36220992Y28575609D01*
X36110313Y28842813D01*
X35905805Y29047321D01*
X35638601Y29158000D01*
X35349383Y29158000D01*
X35082179Y29047321D01*
X34877671Y28842813D01*
X34766992Y28575609D01*
X34766992Y28286391D01*
X34877671Y28019187D01*
X34910362Y27986496D01*
X34750679Y27826813D01*
X34640000Y27559609D01*
X29459830Y27559609D01*
X29563564Y27663441D01*
X29917061Y28516857D01*
X29959981Y28550533D01*
X29959981Y28620476D01*
X30039705Y28812947D01*
X29973297Y29144727D01*
X30072840Y29244270D01*
X30006091Y29311019D01*
X30213981Y29311019D01*
X30213981Y28550533D01*
X30376299Y28423177D01*
X30742639Y28611144D01*
X31009161Y28924996D01*
X31101823Y29148701D01*
X30974467Y29311019D01*
X30213981Y29311019D01*
X30006091Y29311019D01*
X29893232Y29423878D01*
X29780373Y29311019D01*
X27032000Y29311019D01*
X27032000Y26562646D01*
X26919141Y26449787D01*
X26890859Y26449787D01*
X26778000Y26562646D01*
X26778000Y29311019D01*
X24029627Y29311019D01*
X23916768Y29423878D01*
X23737160Y29244270D01*
X23596019Y29244270D01*
X23596019Y29311019D01*
X22835533Y29311019D01*
X22708177Y29148701D01*
X12944433Y29148701D01*
X12918813Y29174321D01*
X12704211Y29263211D01*
X12615321Y29477813D01*
X12410813Y29682321D01*
X12302135Y29727337D01*
X22708177Y29727337D01*
X22835533Y29565019D01*
X23596019Y29565019D01*
X23596019Y29631768D01*
X23737160Y29631768D01*
X23916768Y29452160D01*
X24029627Y29565019D01*
X26778000Y29565019D01*
X26778000Y32313392D01*
X26890859Y32426251D01*
X26919141Y32426251D01*
X27032000Y32313392D01*
X27032000Y29565019D01*
X29780373Y29565019D01*
X29893232Y29452160D01*
X30072840Y29631768D01*
X29973297Y29731311D01*
X30039705Y30063091D01*
X29959981Y30255305D01*
X29959981Y30325505D01*
X30213981Y30325505D01*
X30213981Y29565019D01*
X30974467Y29565019D01*
X31101823Y29727337D01*
X30913856Y30093677D01*
X30600004Y30360199D01*
X30376299Y30452861D01*
X30213981Y30325505D01*
X29959981Y30325505D01*
X29916818Y30359371D01*
X29603985Y31113609D01*
X37227000Y31113609D01*
X37227000Y30824391D01*
X37337679Y30557187D01*
X37542187Y30352679D01*
X37809391Y30242000D01*
X38098609Y30242000D01*
X38365813Y30352679D01*
X38570321Y30557187D01*
X38681000Y30824391D01*
X38681000Y30880000D01*
X42814635Y30880000D01*
X42814635Y29280000D01*
X42847775Y29113393D01*
X42942150Y28972150D01*
X43083393Y28877775D01*
X43250000Y28844635D01*
X44850000Y28844635D01*
X45016607Y28877775D01*
X45157850Y28972150D01*
X45252225Y29113393D01*
X45285365Y29280000D01*
X45285365Y30880000D01*
X45354635Y30880000D01*
X45354635Y29280000D01*
X45387775Y29113393D01*
X45482150Y28972150D01*
X45623393Y28877775D01*
X45790000Y28844635D01*
X47390000Y28844635D01*
X47556607Y28877775D01*
X47697850Y28972150D01*
X47792225Y29113393D01*
X47825365Y29280000D01*
X47825365Y30880000D01*
X47792225Y31046607D01*
X47697850Y31187850D01*
X47556607Y31282225D01*
X47390000Y31315365D01*
X45790000Y31315365D01*
X45623393Y31282225D01*
X45482150Y31187850D01*
X45387775Y31046607D01*
X45354635Y30880000D01*
X45285365Y30880000D01*
X45252225Y31046607D01*
X45157850Y31187850D01*
X45016607Y31282225D01*
X44850000Y31315365D01*
X43250000Y31315365D01*
X43083393Y31282225D01*
X42942150Y31187850D01*
X42847775Y31046607D01*
X42814635Y30880000D01*
X38681000Y30880000D01*
X38681000Y31113609D01*
X38570321Y31380813D01*
X38365813Y31585321D01*
X38098609Y31696000D01*
X37809391Y31696000D01*
X37542187Y31585321D01*
X37337679Y31380813D01*
X37227000Y31113609D01*
X29603985Y31113609D01*
X29561885Y31215110D01*
X28679578Y32096583D01*
X27826162Y32450080D01*
X27792486Y32493000D01*
X27722543Y32493000D01*
X27530072Y32572724D01*
X27198292Y32506316D01*
X27098749Y32605859D01*
X26919141Y32426251D01*
X26890859Y32426251D01*
X26711251Y32605859D01*
X26611708Y32506316D01*
X26279928Y32572724D01*
X26087714Y32493000D01*
X26017514Y32493000D01*
X25983648Y32449837D01*
X25127909Y32094904D01*
X24246436Y31212597D01*
X23892939Y30359181D01*
X23850019Y30325505D01*
X23850019Y30255562D01*
X23770295Y30063091D01*
X23836703Y29731311D01*
X23737160Y29631768D01*
X23596019Y29631768D01*
X23596019Y30325505D01*
X23433701Y30452861D01*
X23067361Y30264894D01*
X22800839Y29951042D01*
X22708177Y29727337D01*
X12302135Y29727337D01*
X12143609Y29793000D01*
X11854391Y29793000D01*
X11587187Y29682321D01*
X11382679Y29477813D01*
X11272000Y29210609D01*
X6639786Y29210609D01*
X5950000Y29900395D01*
X5121861Y29072255D01*
X5195995Y28826136D01*
X5733223Y28633035D01*
X6303454Y28660222D01*
X6332457Y28672236D01*
X6239000Y28446609D01*
X6239000Y28157391D01*
X6349679Y27890187D01*
X6382366Y27857500D01*
X6349679Y27824813D01*
X6239000Y27557609D01*
X6239000Y27268391D01*
X6300944Y27118844D01*
X6046187Y27013321D01*
X6013500Y26980634D01*
X5980813Y27013321D01*
X5713609Y27124000D01*
X5424391Y27124000D01*
X5157187Y27013321D01*
X5124500Y26980634D01*
X5091813Y27013321D01*
X4824609Y27124000D01*
X4535391Y27124000D01*
X4268187Y27013321D01*
X4235500Y26980634D01*
X4202813Y27013321D01*
X3935609Y27124000D01*
X3646391Y27124000D01*
X3379187Y27013321D01*
X3346500Y26980634D01*
X3313813Y27013321D01*
X3046609Y27124000D01*
X2757391Y27124000D01*
X2490187Y27013321D01*
X2285679Y26808813D01*
X2175000Y26541609D01*
X627000Y26541609D01*
X627000Y29072255D01*
X2581861Y29072255D01*
X2655995Y28826136D01*
X3193223Y28633035D01*
X3763454Y28660222D01*
X4164005Y28826136D01*
X4238139Y29072255D01*
X3410000Y29900395D01*
X2581861Y29072255D01*
X627000Y29072255D01*
X627000Y30296777D01*
X1963035Y30296777D01*
X1990222Y29726546D01*
X2156136Y29325995D01*
X2402255Y29251861D01*
X3230395Y30080000D01*
X3589605Y30080000D01*
X4417745Y29251861D01*
X4663864Y29325995D01*
X4678858Y29367709D01*
X4696136Y29325995D01*
X4942255Y29251861D01*
X5770395Y30080000D01*
X6129605Y30080000D01*
X6957745Y29251861D01*
X7203864Y29325995D01*
X7396965Y29863223D01*
X7369778Y30433454D01*
X7203864Y30834005D01*
X6957745Y30908139D01*
X6129605Y30080000D01*
X5770395Y30080000D01*
X4942255Y30908139D01*
X4696136Y30834005D01*
X4681142Y30792291D01*
X4663864Y30834005D01*
X4417745Y30908139D01*
X3589605Y30080000D01*
X3230395Y30080000D01*
X2402255Y30908139D01*
X2156136Y30834005D01*
X1963035Y30296777D01*
X627000Y30296777D01*
X627000Y32864065D01*
X2183000Y32864065D01*
X2183000Y32375935D01*
X2369800Y31924961D01*
X2714961Y31579800D01*
X2982348Y31469044D01*
X2655995Y31333864D01*
X2581861Y31087745D01*
X3410000Y30259605D01*
X4238139Y31087745D01*
X4164005Y31333864D01*
X3814546Y31459473D01*
X4105039Y31579800D01*
X4450200Y31924961D01*
X4637000Y32375935D01*
X4637000Y32864065D01*
X4723000Y32864065D01*
X4723000Y32375935D01*
X4909800Y31924961D01*
X5254961Y31579800D01*
X5522348Y31469044D01*
X5195995Y31333864D01*
X5121861Y31087745D01*
X5950000Y30259605D01*
X6778139Y31087745D01*
X6704005Y31333864D01*
X6354546Y31459473D01*
X6645039Y31579800D01*
X6990200Y31924961D01*
X7075796Y32131609D01*
X12478500Y32131609D01*
X12478500Y31842391D01*
X12589179Y31575187D01*
X12793687Y31370679D01*
X13060891Y31260000D01*
X13350109Y31260000D01*
X13617313Y31370679D01*
X13724748Y31478114D01*
X17852951Y31478114D01*
X17852951Y31188896D01*
X17963630Y30921692D01*
X18168138Y30717184D01*
X18435342Y30606505D01*
X18724560Y30606505D01*
X18991764Y30717184D01*
X19196272Y30921692D01*
X19306951Y31188896D01*
X19306951Y31478114D01*
X19196272Y31745318D01*
X18991764Y31949826D01*
X18724560Y32060505D01*
X18435342Y32060505D01*
X18168138Y31949826D01*
X17963630Y31745318D01*
X17852951Y31478114D01*
X13724748Y31478114D01*
X13821821Y31575187D01*
X13932500Y31842391D01*
X13932500Y32131609D01*
X13821821Y32398813D01*
X13617313Y32603321D01*
X13350109Y32714000D01*
X13060891Y32714000D01*
X12793687Y32603321D01*
X12589179Y32398813D01*
X12478500Y32131609D01*
X7075796Y32131609D01*
X7177000Y32375935D01*
X7177000Y32864065D01*
X7158256Y32909318D01*
X25890158Y32909318D01*
X26017514Y32747000D01*
X26778000Y32747000D01*
X26778000Y33507486D01*
X27032000Y33507486D01*
X27032000Y32747000D01*
X27792486Y32747000D01*
X27919842Y32909318D01*
X27731875Y33275658D01*
X27418023Y33542180D01*
X27194318Y33634842D01*
X27032000Y33507486D01*
X26778000Y33507486D01*
X26615682Y33634842D01*
X26249342Y33446875D01*
X25982820Y33133023D01*
X25890158Y32909318D01*
X7158256Y32909318D01*
X6990200Y33315039D01*
X6645039Y33660200D01*
X6194065Y33847000D01*
X5705935Y33847000D01*
X5254961Y33660200D01*
X4909800Y33315039D01*
X4723000Y32864065D01*
X4637000Y32864065D01*
X4450200Y33315039D01*
X4105039Y33660200D01*
X3654065Y33847000D01*
X3165935Y33847000D01*
X2714961Y33660200D01*
X2369800Y33315039D01*
X2183000Y32864065D01*
X627000Y32864065D01*
X627000Y35404065D01*
X2183000Y35404065D01*
X2183000Y34915935D01*
X2369800Y34464961D01*
X2714961Y34119800D01*
X3165935Y33933000D01*
X3654065Y33933000D01*
X4105039Y34119800D01*
X4450200Y34464961D01*
X4637000Y34915935D01*
X4637000Y35404065D01*
X4723000Y35404065D01*
X4723000Y34915935D01*
X4909800Y34464961D01*
X5254961Y34119800D01*
X5705935Y33933000D01*
X6194065Y33933000D01*
X6444217Y34036617D01*
X32607991Y34036617D01*
X32607991Y33747399D01*
X32718670Y33480195D01*
X32923178Y33275687D01*
X33190382Y33165008D01*
X33479600Y33165008D01*
X33746804Y33275687D01*
X33951312Y33480195D01*
X34023970Y33655609D01*
X34894000Y33655609D01*
X34894000Y33366391D01*
X35004679Y33099187D01*
X35209187Y32894679D01*
X35476391Y32784000D01*
X35765609Y32784000D01*
X36032813Y32894679D01*
X36237321Y33099187D01*
X36348000Y33366391D01*
X36348000Y33655609D01*
X36237321Y33922813D01*
X36032813Y34127321D01*
X35945206Y34163609D01*
X37434000Y34163609D01*
X37434000Y33874391D01*
X37544679Y33607187D01*
X37749187Y33402679D01*
X38016391Y33292000D01*
X38305609Y33292000D01*
X38439427Y33347429D01*
X38638177Y33148679D01*
X38905381Y33038000D01*
X39194599Y33038000D01*
X39461803Y33148679D01*
X39618337Y33305213D01*
X39703675Y33099187D01*
X39908183Y32894679D01*
X40175387Y32784000D01*
X40464605Y32784000D01*
X40657899Y32864065D01*
X42823000Y32864065D01*
X42823000Y32375935D01*
X43009800Y31924961D01*
X43354961Y31579800D01*
X43805935Y31393000D01*
X44294065Y31393000D01*
X44745039Y31579800D01*
X45090200Y31924961D01*
X45277000Y32375935D01*
X45277000Y32864065D01*
X45363000Y32864065D01*
X45363000Y32375935D01*
X45549800Y31924961D01*
X45894961Y31579800D01*
X46345935Y31393000D01*
X46834065Y31393000D01*
X47285039Y31579800D01*
X47630200Y31924961D01*
X47817000Y32375935D01*
X47817000Y32864065D01*
X47630200Y33315039D01*
X47285039Y33660200D01*
X46834065Y33847000D01*
X46345935Y33847000D01*
X45894961Y33660200D01*
X45549800Y33315039D01*
X45363000Y32864065D01*
X45277000Y32864065D01*
X45090200Y33315039D01*
X44745039Y33660200D01*
X44294065Y33847000D01*
X43805935Y33847000D01*
X43354961Y33660200D01*
X43009800Y33315039D01*
X42823000Y32864065D01*
X40657899Y32864065D01*
X40731809Y32894679D01*
X40936317Y33099187D01*
X41046996Y33366391D01*
X41046996Y33655609D01*
X40936317Y33922813D01*
X40731809Y34127321D01*
X40464605Y34238000D01*
X40175387Y34238000D01*
X39908183Y34127321D01*
X39751649Y33970787D01*
X39666311Y34176813D01*
X39461803Y34381321D01*
X39194599Y34492000D01*
X38905381Y34492000D01*
X38771563Y34436571D01*
X38572813Y34635321D01*
X38305609Y34746000D01*
X38016391Y34746000D01*
X37749187Y34635321D01*
X37544679Y34430813D01*
X37434000Y34163609D01*
X35945206Y34163609D01*
X35765609Y34238000D01*
X35476391Y34238000D01*
X35209187Y34127321D01*
X35004679Y33922813D01*
X34894000Y33655609D01*
X34023970Y33655609D01*
X34061991Y33747399D01*
X34061991Y34036617D01*
X33951312Y34303821D01*
X33746804Y34508329D01*
X33479600Y34619008D01*
X33190382Y34619008D01*
X32923178Y34508329D01*
X32718670Y34303821D01*
X32607991Y34036617D01*
X6444217Y34036617D01*
X6645039Y34119800D01*
X6990200Y34464961D01*
X7177000Y34915935D01*
X7177000Y35404065D01*
X42823000Y35404065D01*
X42823000Y34915935D01*
X43009800Y34464961D01*
X43354961Y34119800D01*
X43805935Y33933000D01*
X44294065Y33933000D01*
X44745039Y34119800D01*
X45090200Y34464961D01*
X45277000Y34915935D01*
X45277000Y35404065D01*
X45363000Y35404065D01*
X45363000Y34915935D01*
X45549800Y34464961D01*
X45894961Y34119800D01*
X46345935Y33933000D01*
X46834065Y33933000D01*
X47285039Y34119800D01*
X47630200Y34464961D01*
X47817000Y34915935D01*
X47817000Y35404065D01*
X47630200Y35855039D01*
X47285039Y36200200D01*
X46834065Y36387000D01*
X46345935Y36387000D01*
X45894961Y36200200D01*
X45549800Y35855039D01*
X45363000Y35404065D01*
X45277000Y35404065D01*
X45090200Y35855039D01*
X44745039Y36200200D01*
X44294065Y36387000D01*
X43805935Y36387000D01*
X43354961Y36200200D01*
X43009800Y35855039D01*
X42823000Y35404065D01*
X7177000Y35404065D01*
X6990200Y35855039D01*
X6645039Y36200200D01*
X6194065Y36387000D01*
X5705935Y36387000D01*
X5254961Y36200200D01*
X4909800Y35855039D01*
X4723000Y35404065D01*
X4637000Y35404065D01*
X4450200Y35855039D01*
X4105039Y36200200D01*
X3654065Y36387000D01*
X3165935Y36387000D01*
X2714961Y36200200D01*
X2369800Y35855039D01*
X2183000Y35404065D01*
X627000Y35404065D01*
X627000Y37944065D01*
X2183000Y37944065D01*
X2183000Y37455935D01*
X2369800Y37004961D01*
X2714961Y36659800D01*
X3165935Y36473000D01*
X3654065Y36473000D01*
X4105039Y36659800D01*
X4450200Y37004961D01*
X4637000Y37455935D01*
X4637000Y37944065D01*
X4723000Y37944065D01*
X4723000Y37455935D01*
X4909800Y37004961D01*
X5254961Y36659800D01*
X5705935Y36473000D01*
X6194065Y36473000D01*
X6645039Y36659800D01*
X6990200Y37004961D01*
X7075796Y37211609D01*
X12161000Y37211609D01*
X12161000Y36922391D01*
X12271679Y36655187D01*
X12476187Y36450679D01*
X12743391Y36340000D01*
X13032609Y36340000D01*
X13299813Y36450679D01*
X13504321Y36655187D01*
X13615000Y36922391D01*
X13615000Y37211609D01*
X13504321Y37478813D01*
X13299813Y37683321D01*
X13212206Y37719609D01*
X32823987Y37719609D01*
X32823987Y37430391D01*
X32934666Y37163187D01*
X33139174Y36958679D01*
X33406378Y36848000D01*
X33695596Y36848000D01*
X33962800Y36958679D01*
X33980618Y36976497D01*
X34229526Y36873396D01*
X34518744Y36873396D01*
X34785948Y36984075D01*
X34990456Y37188583D01*
X35101135Y37455787D01*
X35101135Y37745005D01*
X35018683Y37944065D01*
X42823000Y37944065D01*
X42823000Y37455935D01*
X43009800Y37004961D01*
X43354961Y36659800D01*
X43805935Y36473000D01*
X44294065Y36473000D01*
X44745039Y36659800D01*
X45090200Y37004961D01*
X45277000Y37455935D01*
X45277000Y37944065D01*
X45363000Y37944065D01*
X45363000Y37455935D01*
X45549800Y37004961D01*
X45894961Y36659800D01*
X46345935Y36473000D01*
X46834065Y36473000D01*
X47285039Y36659800D01*
X47630200Y37004961D01*
X47817000Y37455935D01*
X47817000Y37944065D01*
X47630200Y38395039D01*
X47285039Y38740200D01*
X47017652Y38850956D01*
X47344005Y38986136D01*
X47418139Y39232255D01*
X46590000Y40060395D01*
X45761861Y39232255D01*
X45835995Y38986136D01*
X46185454Y38860527D01*
X45894961Y38740200D01*
X45549800Y38395039D01*
X45363000Y37944065D01*
X45277000Y37944065D01*
X45090200Y38395039D01*
X44745039Y38740200D01*
X44477652Y38850956D01*
X44804005Y38986136D01*
X44878139Y39232255D01*
X44050000Y40060395D01*
X43221861Y39232255D01*
X43295995Y38986136D01*
X43645454Y38860527D01*
X43354961Y38740200D01*
X43009800Y38395039D01*
X42823000Y37944065D01*
X35018683Y37944065D01*
X34990456Y38012209D01*
X34785948Y38216717D01*
X34518744Y38327396D01*
X34229526Y38327396D01*
X33962322Y38216717D01*
X33944504Y38198899D01*
X33695596Y38302000D01*
X33406378Y38302000D01*
X33139174Y38191321D01*
X32934666Y37986813D01*
X32823987Y37719609D01*
X13212206Y37719609D01*
X13032609Y37794000D01*
X12743391Y37794000D01*
X12476187Y37683321D01*
X12271679Y37478813D01*
X12161000Y37211609D01*
X7075796Y37211609D01*
X7177000Y37455935D01*
X7177000Y37944065D01*
X6990200Y38395039D01*
X6649630Y38735609D01*
X11462500Y38735609D01*
X11462500Y38446391D01*
X11573179Y38179187D01*
X11777687Y37974679D01*
X12044891Y37864000D01*
X12334109Y37864000D01*
X12601313Y37974679D01*
X12729252Y38102618D01*
X12857187Y37974683D01*
X13124391Y37864004D01*
X13413609Y37864004D01*
X13680813Y37974683D01*
X13885321Y38179191D01*
X13996000Y38446395D01*
X13996000Y38735613D01*
X13885321Y39002817D01*
X13838515Y39049623D01*
X14541742Y39049623D01*
X14541742Y38760405D01*
X14652421Y38493201D01*
X14856929Y38288693D01*
X15124133Y38178014D01*
X15413351Y38178014D01*
X15680555Y38288693D01*
X15885063Y38493201D01*
X15995742Y38760405D01*
X15995742Y38777993D01*
X21720338Y38777993D01*
X21720338Y38488775D01*
X21831017Y38221571D01*
X22035525Y38017063D01*
X22302729Y37906384D01*
X22591947Y37906384D01*
X22859151Y38017063D01*
X23063659Y38221571D01*
X23174338Y38488775D01*
X23174338Y38777993D01*
X23063659Y39045197D01*
X22859151Y39249705D01*
X22591947Y39360384D01*
X22302729Y39360384D01*
X22035525Y39249705D01*
X21831017Y39045197D01*
X21720338Y38777993D01*
X15995742Y38777993D01*
X15995742Y39049623D01*
X15885063Y39316827D01*
X15680555Y39521335D01*
X15413351Y39632014D01*
X15124133Y39632014D01*
X14856929Y39521335D01*
X14652421Y39316827D01*
X14541742Y39049623D01*
X13838515Y39049623D01*
X13680813Y39207325D01*
X13413609Y39318004D01*
X13124391Y39318004D01*
X12857187Y39207325D01*
X12729248Y39079386D01*
X12601313Y39207321D01*
X12334109Y39318000D01*
X12044891Y39318000D01*
X11777687Y39207321D01*
X11573179Y39002813D01*
X11462500Y38735609D01*
X6649630Y38735609D01*
X6645039Y38740200D01*
X6194065Y38927000D01*
X5705935Y38927000D01*
X5254961Y38740200D01*
X4909800Y38395039D01*
X4723000Y37944065D01*
X4637000Y37944065D01*
X4450200Y38395039D01*
X4105039Y38740200D01*
X3654065Y38927000D01*
X3165935Y38927000D01*
X2714961Y38740200D01*
X2369800Y38395039D01*
X2183000Y37944065D01*
X627000Y37944065D01*
X627000Y44742164D01*
X679505Y44615406D01*
X1378000Y43916911D01*
X1378000Y41510000D01*
X1387667Y41461399D01*
X1415197Y41420197D01*
X1456399Y41392667D01*
X1505000Y41383000D01*
X2354756Y41383000D01*
X2302150Y41347850D01*
X2207775Y41206607D01*
X2174635Y41040000D01*
X2174635Y39440000D01*
X2207775Y39273393D01*
X2302150Y39132150D01*
X2443393Y39037775D01*
X2610000Y39004635D01*
X4210000Y39004635D01*
X4376607Y39037775D01*
X4517850Y39132150D01*
X4612225Y39273393D01*
X4645365Y39440000D01*
X4645365Y41040000D01*
X4619705Y41169000D01*
X4740295Y41169000D01*
X4714635Y41040000D01*
X4714635Y39440000D01*
X4747775Y39273393D01*
X4842150Y39132150D01*
X4983393Y39037775D01*
X5150000Y39004635D01*
X6750000Y39004635D01*
X6916607Y39037775D01*
X7057850Y39132150D01*
X7152225Y39273393D01*
X7185365Y39440000D01*
X7185365Y39686109D01*
X16653000Y39686109D01*
X16653000Y39396891D01*
X16763679Y39129687D01*
X16968187Y38925179D01*
X17235391Y38814500D01*
X17524609Y38814500D01*
X17791813Y38925179D01*
X17996321Y39129687D01*
X18107000Y39396891D01*
X18107000Y39686109D01*
X18028093Y39876609D01*
X34814000Y39876609D01*
X34814000Y39587391D01*
X34924679Y39320187D01*
X35129187Y39115679D01*
X35396391Y39005000D01*
X35685609Y39005000D01*
X35952813Y39115679D01*
X36157321Y39320187D01*
X36177377Y39368609D01*
X40783000Y39368609D01*
X40783000Y39079391D01*
X40893679Y38812187D01*
X41098187Y38607679D01*
X41365391Y38497000D01*
X41654609Y38497000D01*
X41921813Y38607679D01*
X42126321Y38812187D01*
X42237000Y39079391D01*
X42237000Y39368609D01*
X42126321Y39635813D01*
X41921813Y39840321D01*
X41654609Y39951000D01*
X41365391Y39951000D01*
X41098187Y39840321D01*
X40893679Y39635813D01*
X40783000Y39368609D01*
X36177377Y39368609D01*
X36268000Y39587391D01*
X36268000Y39876609D01*
X36157321Y40143813D01*
X35952813Y40348321D01*
X35690976Y40456777D01*
X42603035Y40456777D01*
X42630222Y39886546D01*
X42796136Y39485995D01*
X43042255Y39411861D01*
X43870395Y40240000D01*
X44229605Y40240000D01*
X45057745Y39411861D01*
X45303864Y39485995D01*
X45318858Y39527709D01*
X45336136Y39485995D01*
X45582255Y39411861D01*
X46410395Y40240000D01*
X46769605Y40240000D01*
X47597745Y39411861D01*
X47843864Y39485995D01*
X48036965Y40023223D01*
X48009778Y40593454D01*
X47843864Y40994005D01*
X47597745Y41068139D01*
X46769605Y40240000D01*
X46410395Y40240000D01*
X45582255Y41068139D01*
X45336136Y40994005D01*
X45321142Y40952291D01*
X45303864Y40994005D01*
X45057745Y41068139D01*
X44229605Y40240000D01*
X43870395Y40240000D01*
X43042255Y41068139D01*
X42796136Y40994005D01*
X42603035Y40456777D01*
X35690976Y40456777D01*
X35685609Y40459000D01*
X35396391Y40459000D01*
X35129187Y40348321D01*
X34924679Y40143813D01*
X34814000Y39876609D01*
X18028093Y39876609D01*
X17996321Y39953313D01*
X17791813Y40157821D01*
X17524609Y40268500D01*
X17235391Y40268500D01*
X16968187Y40157821D01*
X16763679Y39953313D01*
X16653000Y39686109D01*
X7185365Y39686109D01*
X7185365Y40979501D01*
X7269187Y40895679D01*
X7536391Y40785000D01*
X7825609Y40785000D01*
X8092813Y40895679D01*
X8297321Y41100187D01*
X8408000Y41367391D01*
X8408000Y41654609D01*
X11763500Y41654609D01*
X11763500Y41365391D01*
X11874179Y41098187D01*
X12078687Y40893679D01*
X12345891Y40783000D01*
X12635109Y40783000D01*
X12902313Y40893679D01*
X13106821Y41098187D01*
X13217500Y41365391D01*
X13217500Y41654609D01*
X13179389Y41746619D01*
X29734000Y41746619D01*
X29734000Y41457401D01*
X29844679Y41190197D01*
X30049187Y40985689D01*
X30316391Y40875010D01*
X30605609Y40875010D01*
X30872813Y40985689D01*
X31077321Y41190197D01*
X31101158Y41247745D01*
X43221861Y41247745D01*
X44050000Y40419605D01*
X44878139Y41247745D01*
X45761861Y41247745D01*
X46590000Y40419605D01*
X47418139Y41247745D01*
X47344005Y41493864D01*
X46806777Y41686965D01*
X46236546Y41659778D01*
X45835995Y41493864D01*
X45761861Y41247745D01*
X44878139Y41247745D01*
X44804005Y41493864D01*
X44692668Y41533883D01*
X44773923Y41567540D01*
X44841912Y41808483D01*
X44050000Y42600395D01*
X43258088Y41808483D01*
X43326077Y41567540D01*
X43405567Y41539250D01*
X43295995Y41493864D01*
X43221861Y41247745D01*
X31101158Y41247745D01*
X31188000Y41457401D01*
X31188000Y41746619D01*
X31077321Y42013823D01*
X30872813Y42218331D01*
X30605609Y42329010D01*
X30316391Y42329010D01*
X30049187Y42218331D01*
X29844679Y42013823D01*
X29734000Y41746619D01*
X13179389Y41746619D01*
X13106821Y41921813D01*
X12902313Y42126321D01*
X12635109Y42237000D01*
X12345891Y42237000D01*
X12078687Y42126321D01*
X11874179Y41921813D01*
X11763500Y41654609D01*
X8408000Y41654609D01*
X8408000Y41656609D01*
X8297321Y41923813D01*
X8092813Y42128321D01*
X7825609Y42239000D01*
X7536391Y42239000D01*
X7269187Y42128321D01*
X7064679Y41923813D01*
X6954000Y41656609D01*
X6954000Y41417240D01*
X6916607Y41442225D01*
X6750000Y41475365D01*
X6070111Y41475365D01*
X6077000Y41510000D01*
X6077000Y42984829D01*
X42652799Y42984829D01*
X42680770Y42434552D01*
X42837540Y42056077D01*
X43078483Y41988088D01*
X43870395Y42780000D01*
X43078483Y43571912D01*
X42837540Y43503923D01*
X42652799Y42984829D01*
X6077000Y42984829D01*
X6077000Y44050000D01*
X6067333Y44098601D01*
X6039803Y44139803D01*
X5998601Y44167333D01*
X5950000Y44177000D01*
X5882089Y44177000D01*
X6017344Y44312255D01*
X7661861Y44312255D01*
X7735995Y44066136D01*
X8273223Y43873035D01*
X8843454Y43900222D01*
X9244005Y44066136D01*
X9318139Y44312255D01*
X8490000Y45140395D01*
X7661861Y44312255D01*
X6017344Y44312255D01*
X6320495Y44615406D01*
X6702138Y45536777D01*
X7043035Y45536777D01*
X7070222Y44966546D01*
X7236136Y44565995D01*
X7482255Y44491861D01*
X8310395Y45320000D01*
X8669605Y45320000D01*
X9497745Y44491861D01*
X9743864Y44565995D01*
X9869473Y44915454D01*
X9989800Y44624961D01*
X10334961Y44279800D01*
X10785935Y44093000D01*
X11274065Y44093000D01*
X11725039Y44279800D01*
X12070200Y44624961D01*
X12257000Y45075935D01*
X12257000Y45564065D01*
X12343000Y45564065D01*
X12343000Y45075935D01*
X12529800Y44624961D01*
X12874961Y44279800D01*
X13325935Y44093000D01*
X13814065Y44093000D01*
X14265039Y44279800D01*
X14610200Y44624961D01*
X14797000Y45075935D01*
X14797000Y45564065D01*
X14883000Y45564065D01*
X14883000Y45075935D01*
X15069800Y44624961D01*
X15414961Y44279800D01*
X15865935Y44093000D01*
X16354065Y44093000D01*
X16805039Y44279800D01*
X17150200Y44624961D01*
X17337000Y45075935D01*
X17337000Y45564065D01*
X17150200Y46015039D01*
X17045239Y46120000D01*
X17414635Y46120000D01*
X17414635Y44520000D01*
X17447775Y44353393D01*
X17542150Y44212150D01*
X17683393Y44117775D01*
X17850000Y44084635D01*
X19450000Y44084635D01*
X19616607Y44117775D01*
X19731597Y44194609D01*
X20463000Y44194609D01*
X20463000Y43905391D01*
X20573679Y43638187D01*
X20778187Y43433679D01*
X21045391Y43323000D01*
X21334609Y43323000D01*
X21601813Y43433679D01*
X21806321Y43638187D01*
X21917000Y43905391D01*
X21917000Y44194609D01*
X21806321Y44461813D01*
X21601813Y44666321D01*
X21334609Y44777000D01*
X21045391Y44777000D01*
X20778187Y44666321D01*
X20573679Y44461813D01*
X20463000Y44194609D01*
X19731597Y44194609D01*
X19757850Y44212150D01*
X19852225Y44353393D01*
X19885365Y44520000D01*
X19885365Y46120000D01*
X22494635Y46120000D01*
X22494635Y44520000D01*
X22527775Y44353393D01*
X22622150Y44212150D01*
X22763393Y44117775D01*
X22930000Y44084635D01*
X23003000Y44084635D01*
X23003000Y43905371D01*
X23113679Y43638167D01*
X23318187Y43433659D01*
X23585391Y43322980D01*
X23874609Y43322980D01*
X24141813Y43433659D01*
X24346321Y43638167D01*
X24457000Y43905371D01*
X24457000Y44084635D01*
X24530000Y44084635D01*
X24696607Y44117775D01*
X24837850Y44212150D01*
X24904737Y44312255D01*
X25441861Y44312255D01*
X25515995Y44066136D01*
X26053223Y43873035D01*
X26623454Y43900222D01*
X27024005Y44066136D01*
X27098139Y44312255D01*
X26270000Y45140395D01*
X25441861Y44312255D01*
X24904737Y44312255D01*
X24932225Y44353393D01*
X24965365Y44520000D01*
X24965365Y44688567D01*
X25016136Y44565995D01*
X25262255Y44491861D01*
X26090395Y45320000D01*
X26449605Y45320000D01*
X27277745Y44491861D01*
X27523864Y44565995D01*
X27649473Y44915454D01*
X27769800Y44624961D01*
X28114961Y44279800D01*
X28424405Y44151624D01*
X28337000Y43940609D01*
X28337000Y43651391D01*
X28447679Y43384187D01*
X28652187Y43179679D01*
X28919391Y43069000D01*
X29208609Y43069000D01*
X29475813Y43179679D01*
X29680321Y43384187D01*
X29791000Y43651391D01*
X29791000Y43940609D01*
X29680321Y44207813D01*
X29575879Y44312255D01*
X30521861Y44312255D01*
X30595995Y44066136D01*
X31133223Y43873035D01*
X31703454Y43900222D01*
X32104005Y44066136D01*
X32178139Y44312255D01*
X31350000Y45140395D01*
X30521861Y44312255D01*
X29575879Y44312255D01*
X29556687Y44331447D01*
X29850200Y44624961D01*
X29960956Y44892348D01*
X30096136Y44565995D01*
X30342255Y44491861D01*
X31170395Y45320000D01*
X31529605Y45320000D01*
X32357745Y44491861D01*
X32603864Y44565995D01*
X32729473Y44915454D01*
X32849800Y44624961D01*
X33194961Y44279800D01*
X33645935Y44093000D01*
X34134065Y44093000D01*
X34585039Y44279800D01*
X34930200Y44624961D01*
X35117000Y45075935D01*
X35117000Y45564065D01*
X35203000Y45564065D01*
X35203000Y45075935D01*
X35389800Y44624961D01*
X35734961Y44279800D01*
X36185935Y44093000D01*
X36674065Y44093000D01*
X37125039Y44279800D01*
X37470200Y44624961D01*
X37657000Y45075935D01*
X37657000Y45564065D01*
X37743000Y45564065D01*
X37743000Y45075935D01*
X37929800Y44624961D01*
X38274961Y44279800D01*
X38725935Y44093000D01*
X39214065Y44093000D01*
X39665039Y44279800D01*
X40010200Y44624961D01*
X40197000Y45075935D01*
X40197000Y45564065D01*
X40010200Y46015039D01*
X39905239Y46120000D01*
X40274635Y46120000D01*
X40274635Y44520000D01*
X40307775Y44353393D01*
X40402150Y44212150D01*
X40543393Y44117775D01*
X40710000Y44084635D01*
X42310000Y44084635D01*
X42476607Y44117775D01*
X42617850Y44212150D01*
X42712225Y44353393D01*
X42745365Y44520000D01*
X42745365Y46120000D01*
X42712225Y46286607D01*
X42617850Y46427850D01*
X42476607Y46522225D01*
X42310000Y46555365D01*
X40710000Y46555365D01*
X40543393Y46522225D01*
X40402150Y46427850D01*
X40307775Y46286607D01*
X40274635Y46120000D01*
X39905239Y46120000D01*
X39665039Y46360200D01*
X39214065Y46547000D01*
X38725935Y46547000D01*
X38274961Y46360200D01*
X37929800Y46015039D01*
X37743000Y45564065D01*
X37657000Y45564065D01*
X37470200Y46015039D01*
X37125039Y46360200D01*
X36674065Y46547000D01*
X36185935Y46547000D01*
X35734961Y46360200D01*
X35389800Y46015039D01*
X35203000Y45564065D01*
X35117000Y45564065D01*
X34930200Y46015039D01*
X34585039Y46360200D01*
X34134065Y46547000D01*
X33645935Y46547000D01*
X33194961Y46360200D01*
X32849800Y46015039D01*
X32739044Y45747652D01*
X32603864Y46074005D01*
X32357745Y46148139D01*
X31529605Y45320000D01*
X31170395Y45320000D01*
X30342255Y46148139D01*
X30096136Y46074005D01*
X29970527Y45724546D01*
X29850200Y46015039D01*
X29505039Y46360200D01*
X29237652Y46470956D01*
X29564005Y46606136D01*
X29638139Y46852255D01*
X30521861Y46852255D01*
X30595995Y46606136D01*
X30637709Y46591142D01*
X30595995Y46573864D01*
X30521861Y46327745D01*
X31350000Y45499605D01*
X32178139Y46327745D01*
X32104005Y46573864D01*
X32062291Y46588858D01*
X32104005Y46606136D01*
X32178139Y46852255D01*
X31350000Y47680395D01*
X30521861Y46852255D01*
X29638139Y46852255D01*
X28810000Y47680395D01*
X27981861Y46852255D01*
X28055995Y46606136D01*
X28405454Y46480527D01*
X28114961Y46360200D01*
X27769800Y46015039D01*
X27659044Y45747652D01*
X27523864Y46074005D01*
X27277745Y46148139D01*
X26449605Y45320000D01*
X26090395Y45320000D01*
X25262255Y46148139D01*
X25016136Y46074005D01*
X24965365Y45932755D01*
X24965365Y46120000D01*
X24932225Y46286607D01*
X24837850Y46427850D01*
X24696607Y46522225D01*
X24530000Y46555365D01*
X22930000Y46555365D01*
X22763393Y46522225D01*
X22622150Y46427850D01*
X22527775Y46286607D01*
X22494635Y46120000D01*
X19885365Y46120000D01*
X19852225Y46286607D01*
X19757850Y46427850D01*
X19616607Y46522225D01*
X19450000Y46555365D01*
X17850000Y46555365D01*
X17683393Y46522225D01*
X17542150Y46427850D01*
X17447775Y46286607D01*
X17414635Y46120000D01*
X17045239Y46120000D01*
X16805039Y46360200D01*
X16354065Y46547000D01*
X15865935Y46547000D01*
X15414961Y46360200D01*
X15069800Y46015039D01*
X14883000Y45564065D01*
X14797000Y45564065D01*
X14610200Y46015039D01*
X14265039Y46360200D01*
X13814065Y46547000D01*
X13325935Y46547000D01*
X12874961Y46360200D01*
X12529800Y46015039D01*
X12343000Y45564065D01*
X12257000Y45564065D01*
X12070200Y46015039D01*
X11725039Y46360200D01*
X11274065Y46547000D01*
X10785935Y46547000D01*
X10334961Y46360200D01*
X9989800Y46015039D01*
X9879044Y45747652D01*
X9743864Y46074005D01*
X9497745Y46148139D01*
X8669605Y45320000D01*
X8310395Y45320000D01*
X7482255Y46148139D01*
X7236136Y46074005D01*
X7043035Y45536777D01*
X6702138Y45536777D01*
X6827000Y45838219D01*
X6827000Y46852255D01*
X7661861Y46852255D01*
X7735995Y46606136D01*
X7777709Y46591142D01*
X7735995Y46573864D01*
X7661861Y46327745D01*
X8490000Y45499605D01*
X9318139Y46327745D01*
X9244005Y46573864D01*
X9202291Y46588858D01*
X9244005Y46606136D01*
X9318139Y46852255D01*
X8490000Y47680395D01*
X7661861Y46852255D01*
X6827000Y46852255D01*
X6827000Y47161781D01*
X6447997Y48076777D01*
X7043035Y48076777D01*
X7070222Y47506546D01*
X7236136Y47105995D01*
X7482255Y47031861D01*
X8310395Y47860000D01*
X8669605Y47860000D01*
X9497745Y47031861D01*
X9743864Y47105995D01*
X9869473Y47455454D01*
X9989800Y47164961D01*
X10334961Y46819800D01*
X10785935Y46633000D01*
X11274065Y46633000D01*
X11725039Y46819800D01*
X12070200Y47164961D01*
X12257000Y47615935D01*
X12257000Y48104065D01*
X12343000Y48104065D01*
X12343000Y47615935D01*
X12529800Y47164961D01*
X12874961Y46819800D01*
X13325935Y46633000D01*
X13814065Y46633000D01*
X14265039Y46819800D01*
X14610200Y47164961D01*
X14797000Y47615935D01*
X14797000Y48104065D01*
X14883000Y48104065D01*
X14883000Y47615935D01*
X15069800Y47164961D01*
X15414961Y46819800D01*
X15865935Y46633000D01*
X16354065Y46633000D01*
X16805039Y46819800D01*
X17150200Y47164961D01*
X17337000Y47615935D01*
X17337000Y48104065D01*
X17150200Y48555039D01*
X17045239Y48660000D01*
X17414635Y48660000D01*
X17414635Y47060000D01*
X17447775Y46893393D01*
X17542150Y46752150D01*
X17683393Y46657775D01*
X17850000Y46624635D01*
X19450000Y46624635D01*
X19616607Y46657775D01*
X19757850Y46752150D01*
X19852225Y46893393D01*
X19885365Y47060000D01*
X19885365Y48660000D01*
X22494635Y48660000D01*
X22494635Y47060000D01*
X22527775Y46893393D01*
X22622150Y46752150D01*
X22763393Y46657775D01*
X22930000Y46624635D01*
X24530000Y46624635D01*
X24696607Y46657775D01*
X24837850Y46752150D01*
X24932225Y46893393D01*
X24965365Y47060000D01*
X24965365Y48104065D01*
X25043000Y48104065D01*
X25043000Y47615935D01*
X25229800Y47164961D01*
X25574961Y46819800D01*
X25842348Y46709044D01*
X25515995Y46573864D01*
X25441861Y46327745D01*
X26270000Y45499605D01*
X27098139Y46327745D01*
X27024005Y46573864D01*
X26674546Y46699473D01*
X26965039Y46819800D01*
X27310200Y47164961D01*
X27420956Y47432348D01*
X27556136Y47105995D01*
X27802255Y47031861D01*
X28630395Y47860000D01*
X28989605Y47860000D01*
X29817745Y47031861D01*
X30063864Y47105995D01*
X30078858Y47147709D01*
X30096136Y47105995D01*
X30342255Y47031861D01*
X31170395Y47860000D01*
X31529605Y47860000D01*
X32357745Y47031861D01*
X32603864Y47105995D01*
X32729473Y47455454D01*
X32849800Y47164961D01*
X33194961Y46819800D01*
X33645935Y46633000D01*
X34134065Y46633000D01*
X34585039Y46819800D01*
X34930200Y47164961D01*
X35117000Y47615935D01*
X35117000Y48104065D01*
X35203000Y48104065D01*
X35203000Y47615935D01*
X35389800Y47164961D01*
X35734961Y46819800D01*
X36185935Y46633000D01*
X36674065Y46633000D01*
X37125039Y46819800D01*
X37470200Y47164961D01*
X37657000Y47615935D01*
X37657000Y48104065D01*
X37743000Y48104065D01*
X37743000Y47615935D01*
X37929800Y47164961D01*
X38274961Y46819800D01*
X38725935Y46633000D01*
X39214065Y46633000D01*
X39665039Y46819800D01*
X40010200Y47164961D01*
X40197000Y47615935D01*
X40197000Y48104065D01*
X40010200Y48555039D01*
X39905239Y48660000D01*
X40274635Y48660000D01*
X40274635Y47060000D01*
X40307775Y46893393D01*
X40402150Y46752150D01*
X40543393Y46657775D01*
X40710000Y46624635D01*
X42310000Y46624635D01*
X42476607Y46657775D01*
X42617850Y46752150D01*
X42712225Y46893393D01*
X42745365Y47060000D01*
X42745365Y48660000D01*
X42712225Y48826607D01*
X42617850Y48967850D01*
X42476607Y49062225D01*
X42310000Y49095365D01*
X40710000Y49095365D01*
X40543393Y49062225D01*
X40402150Y48967850D01*
X40307775Y48826607D01*
X40274635Y48660000D01*
X39905239Y48660000D01*
X39665039Y48900200D01*
X39214065Y49087000D01*
X38725935Y49087000D01*
X38274961Y48900200D01*
X37929800Y48555039D01*
X37743000Y48104065D01*
X37657000Y48104065D01*
X37470200Y48555039D01*
X37125039Y48900200D01*
X36674065Y49087000D01*
X36185935Y49087000D01*
X35734961Y48900200D01*
X35389800Y48555039D01*
X35203000Y48104065D01*
X35117000Y48104065D01*
X34930200Y48555039D01*
X34585039Y48900200D01*
X34134065Y49087000D01*
X33645935Y49087000D01*
X33194961Y48900200D01*
X32849800Y48555039D01*
X32739044Y48287652D01*
X32603864Y48614005D01*
X32357745Y48688139D01*
X31529605Y47860000D01*
X31170395Y47860000D01*
X30342255Y48688139D01*
X30096136Y48614005D01*
X30081142Y48572291D01*
X30063864Y48614005D01*
X29817745Y48688139D01*
X28989605Y47860000D01*
X28630395Y47860000D01*
X27802255Y48688139D01*
X27556136Y48614005D01*
X27430527Y48264546D01*
X27310200Y48555039D01*
X26997494Y48867745D01*
X27981861Y48867745D01*
X28810000Y48039605D01*
X29638139Y48867745D01*
X30521861Y48867745D01*
X31350000Y48039605D01*
X32178139Y48867745D01*
X32104005Y49113864D01*
X31566777Y49306965D01*
X30996546Y49279778D01*
X30595995Y49113864D01*
X30521861Y48867745D01*
X29638139Y48867745D01*
X29564005Y49113864D01*
X29026777Y49306965D01*
X28456546Y49279778D01*
X28055995Y49113864D01*
X27981861Y48867745D01*
X26997494Y48867745D01*
X26965039Y48900200D01*
X26514065Y49087000D01*
X26025935Y49087000D01*
X25574961Y48900200D01*
X25229800Y48555039D01*
X25043000Y48104065D01*
X24965365Y48104065D01*
X24965365Y48660000D01*
X24932225Y48826607D01*
X24837850Y48967850D01*
X24696607Y49062225D01*
X24530000Y49095365D01*
X22930000Y49095365D01*
X22763393Y49062225D01*
X22622150Y48967850D01*
X22527775Y48826607D01*
X22494635Y48660000D01*
X19885365Y48660000D01*
X19852225Y48826607D01*
X19757850Y48967850D01*
X19616607Y49062225D01*
X19450000Y49095365D01*
X17850000Y49095365D01*
X17683393Y49062225D01*
X17542150Y48967850D01*
X17447775Y48826607D01*
X17414635Y48660000D01*
X17045239Y48660000D01*
X16805039Y48900200D01*
X16354065Y49087000D01*
X15865935Y49087000D01*
X15414961Y48900200D01*
X15069800Y48555039D01*
X14883000Y48104065D01*
X14797000Y48104065D01*
X14610200Y48555039D01*
X14265039Y48900200D01*
X13814065Y49087000D01*
X13325935Y49087000D01*
X12874961Y48900200D01*
X12529800Y48555039D01*
X12343000Y48104065D01*
X12257000Y48104065D01*
X12070200Y48555039D01*
X11725039Y48900200D01*
X11274065Y49087000D01*
X10785935Y49087000D01*
X10334961Y48900200D01*
X9989800Y48555039D01*
X9879044Y48287652D01*
X9743864Y48614005D01*
X9497745Y48688139D01*
X8669605Y47860000D01*
X8310395Y47860000D01*
X7482255Y48688139D01*
X7236136Y48614005D01*
X7043035Y48076777D01*
X6447997Y48076777D01*
X6320495Y48384594D01*
X5837344Y48867745D01*
X7661861Y48867745D01*
X8490000Y48039605D01*
X9318139Y48867745D01*
X9244005Y49113864D01*
X8706777Y49306965D01*
X8136546Y49279778D01*
X7735995Y49113864D01*
X7661861Y48867745D01*
X5837344Y48867745D01*
X5384594Y49320495D01*
X5257836Y49373000D01*
X44742164Y49373000D01*
X44615406Y49320495D01*
M02*
